<?xml version="1.0" encoding="UTF-8"?><svg id="b" xmlns="http://www.w3.org/2000/svg" xmlns:xlink="http://www.w3.org/1999/xlink" viewBox="0 0 1028.7 198.7"><defs><style>.r{fill:url(#j);}.s{fill:url(#p);}.t{fill:url(#l);}.u{fill:url(#n);}</style><linearGradient id="j" x1="806" y1="527.6" x2="806.5" y2="527.3" gradientTransform="translate(-119010.7 104899.3) scale(147.7 -198.7)" gradientUnits="userSpaceOnUse"><stop offset="0" stop-color="#4285eb"/><stop offset="1" stop-color="#2ec7ff"/></linearGradient><linearGradient id="l" x1="806.2" y1="527.9" x2="806.1" y2="526.8" gradientTransform="translate(-119010.7 104899.3) scale(147.7 -198.7)" gradientUnits="userSpaceOnUse"><stop offset="0" stop-color="#29cdff"/><stop offset=".4" stop-color="#148eff"/><stop offset="1" stop-color="#0a60ff"/></linearGradient><linearGradient id="n" x1="795.3" y1="531.7" x2="794.8" y2="530.4" gradientTransform="translate(-38949.2 41222.6) scale(49.2 -77.4)" gradientUnits="userSpaceOnUse"><stop offset="0" stop-color="#fa816e"/><stop offset=".4" stop-color="#f74a5c"/><stop offset="1" stop-color="#f51d2c"/></linearGradient><linearGradient id="p" x1="794.6" y1="535.7" x2="794.2" y2="534.2" gradientTransform="translate(-37396.7 25325.9) scale(47.2 -47.2)" gradientUnits="userSpaceOnUse"><stop offset="0" stop-color="#fa8e7d"/><stop offset=".5" stop-color="#f74a5c"/><stop offset="1" stop-color="#f51d2c"/></linearGradient></defs><g id="c"><g id="d"><g id="e"><g id="f"><g id="g"><g id="h"><g id="i"><path id="k" class="r" d="M90.9,3.5L3.5,90.9c-4.7,4.7-4.7,12.3,0,17l87.4,87.3c4.7,4.7,12.3,4.7,17,0l36.6-36.6c4.2-4.2,4.2-11,0-15.2-4.2-4.2-11-4.2-15.2,0l-27.8,27.8c-1.2,1.2-2.9,1.2-4.1,0L27.6,101.4c-1.2-1.2-1.2-2.9,0-4.1L97.4,27.5c1.2-1.2,2.9-1.2,4.1,0l27.8,27.8c4.2,4.2,11,4.2,15.2,0,4.2-4.2,4.2-11,0-15.2L107.9,3.4c-4.7-4.6-12.3-4.6-17,.1Z"/><path id="m" class="t" d="M90.9,3.5L3.5,90.9c-4.7,4.7-4.7,12.3,0,17l87.4,87.3c4.7,4.7,12.3,4.7,17,0l36.6-36.6c4.2-4.2,4.2-11,0-15.2-4.2-4.2-11-4.2-15.2,0l-27.8,27.8c-1.2,1.2-2.9,1.2-4.1,0L27.6,101.4c-1.2-1.2-1.2-2.9,0-4.1L97.4,27.5c2.9-2.5,7.7-7.6,14.6-8.8,5.2-.9,10.9,1.1,17,5.8-4.1-4.1-11.2-11.2-21.2-21.1-4.7-4.6-12.3-4.6-17,.1Z"/></g><path id="o" class="u" d="M153,135.2c4.2,4.2,11,4.2,15.2,0l27-27c4.7-4.7,4.7-12.3,0-17l-27.3-27.2c-4.2-4.2-11-4.2-15.3,0-4.2,4.2-4.2,11,0,15.2l18.4,18.4c1.2,1.2,1.2,2.9,0,4.1l-18.2,18.2c-4.2,4.2-4.2,11,0,15.2Z"/></g><ellipse id="q" class="s" cx="99.9" cy="99.8" rx="23.6" ry="23.6"/></g></g></g></g><g><path d="M309.3,145.1h-30.9l-9-28h-44.8l-8.9,28h-30.8L230.8,19h33.7l44.8,126Zm-46.4-49.8l-13.5-42.4c-1-3.2-1.7-6.9-2.1-11.3h-.7c-.3,3.7-1,7.4-2.2,11l-13.7,42.7h32.3Z"/><path d="M400.2,145.1h-27.7v-50c0-13.9-5-20.9-14.9-20.9s-8.8,1.8-11.9,5.5c-3.1,3.7-4.7,8.4-4.7,14.1v51.3h-27.8V55.1h27.8v14.2h.4c6.6-11,16.3-16.4,28.9-16.4,19.9,0,29.9,12.4,29.9,37.1v55.1Z"/><path d="M467.6,144c-4.1,2.2-10.3,3.3-18.5,3.3-19.6,0-29.4-10.2-29.4-30.5v-41.2h-14.6v-20.5h14.6v-19.4l27.7-7.9v27.3h20.2v20.5h-20.2v36.4c0,9.4,3.7,14.1,11.2,14.1s5.9-.8,9.1-2.5v20.6Z"/><path d="M517.6,145.1V19h44.6c44.8,0,67.1,20.5,67.1,61.4s-6.1,35.3-18.3,47c-12.2,11.7-28.5,17.6-48.8,17.6h-44.6Zm28.4-102.9V122h14.1c12.3,0,22-3.7,29-11.1,7-7.4,10.5-17.4,10.5-30.1s-3.5-21.5-10.4-28.3c-6.9-6.9-16.7-10.3-29.2-10.3h-13.9Z"/><path d="M719.4,108h-58.7c.9,13.1,9.2,19.6,24.7,19.6s18.6-2.3,26.1-7v20c-8.3,4.5-19.1,6.7-32.4,6.7s-25.8-4-33.8-12.1c-8-8.1-12-19.3-12-33.7s4.3-26.8,13-35.5c8.7-8.7,19.3-13.1,32-13.1s23.3,3.9,30.5,11.7c7.2,7.8,10.8,18.4,10.8,31.7v11.7Zm-25.8-17.1c0-12.9-5.2-19.3-15.6-19.3s-8.3,1.8-11.6,5.5-5.2,8.3-5.9,13.8h33.1Z"/><path d="M721.1,142.7v-22.5c4.6,2.8,9.1,4.8,13.7,6.2,4.5,1.3,8.8,2,12.9,2s8.8-.7,11.6-2c2.8-1.3,4.3-3.4,4.3-6.2s-.6-3.2-1.9-4.4c-1.3-1.2-2.9-2.2-5-3.1s-4.2-1.7-6.6-2.4c-2.4-.7-4.7-1.5-6.9-2.4-3.6-1.3-6.7-2.8-9.4-4.4-2.7-1.6-5-3.4-6.9-5.4-1.8-2.1-3.3-4.4-4.2-7.1-1-2.7-1.5-5.9-1.5-9.6s1.1-9.4,3.3-13c2.2-3.6,5.1-6.6,8.8-8.9,3.7-2.3,7.9-4,12.6-5.1,4.7-1.1,9.6-1.6,14.7-1.6s8,.3,12.1,.9c4.1,.6,8.1,1.5,12.1,2.7v21.4c-3.5-2.1-7.3-3.6-11.3-4.6-4-1-8-1.5-11.8-1.5s-3.5,.2-5.1,.5c-1.6,.3-3,.8-4.3,1.4s-2.2,1.4-2.9,2.4-1.1,2.1-1.1,3.3,.5,3,1.6,4.2c1.1,1.2,2.4,2.2,4.1,3,1.7,.9,3.6,1.6,5.7,2.3,2.1,.7,4.1,1.4,6.2,2.1,3.7,1.3,7,2.7,10,4.2,3,1.5,5.6,3.3,7.7,5.4,2.1,2.1,3.8,4.5,4.9,7.2,1.1,2.8,1.7,6,1.7,9.8s-1.2,9.9-3.5,13.7c-2.3,3.8-5.4,6.9-9.2,9.2-3.8,2.4-8.3,4.1-13.3,5.2s-10.2,1.6-15.6,1.6c-9.9,0-19.1-1.5-27.5-4.6Z"/><path d="M811.2,40.8c-4.7,0-8.5-1.4-11.5-4.2-3-2.8-4.5-6.2-4.5-10.2s1.5-7.6,4.5-10.2,6.8-4,11.5-4,8.6,1.3,11.6,4c3,2.6,4.4,6,4.4,10.2s-1.5,7.7-4.4,10.4c-3,2.7-6.8,4-11.6,4Zm13.7,104.2h-27.8V55.1h27.8v90Z"/><path d="M927.6,134.8c0,16.7-4.8,29.6-14.5,38.8-9.7,9.2-23.7,13.8-42,13.8s-21.7-1.7-28.8-5.2v-23.4c9.3,5.4,18.6,8.1,28,8.1s16.6-2.5,21.8-7.4c5.2-5,7.7-11.7,7.7-20.2v-7.1h-.4c-6.3,10.1-15.7,15.1-28,15.1s-20.6-4-27.3-12.1c-6.7-8.1-10.1-18.9-10.1-32.5s3.7-27.3,11.2-36.3c7.5-9,17.4-13.4,29.6-13.4s19.2,4.2,24.6,12.7h.4v-10.5h27.8v79.7Zm-27.4-33v-7.1c0-5.7-1.7-10.5-5.1-14.5-3.4-4-7.7-6-13.1-6s-11,2.4-14.5,7.2c-3.5,4.8-5.3,11.6-5.3,20.3s1.7,13.4,5,17.8c3.3,4.4,7.9,6.5,13.7,6.5s10.4-2.2,13.9-6.6c3.5-4.4,5.3-10.3,5.3-17.5Z"/><path d="M1028.7,145.1h-27.7v-50c0-13.9-5-20.9-14.9-20.9s-8.8,1.8-11.9,5.5c-3.1,3.7-4.7,8.4-4.7,14.1v51.3h-27.8V55.1h27.8v14.2h.4c6.6-11,16.3-16.4,28.9-16.4,19.9,0,29.9,12.4,29.9,37.1v55.1Z"/></g></g></svg>