<?xml version="1.0" encoding="utf-8"?>
<!-- Generator: Adobe Illustrator 26.5.3, SVG Export Plug-In . SVG Version: 6.00 Build 0)  -->
<svg version="1.1" id="레이어_1" xmlns="http://www.w3.org/2000/svg" xmlns:xlink="http://www.w3.org/1999/xlink" x="0px"
	 y="0px" viewBox="0 0 3508.5 798.7" style="enable-background:new 0 0 3508.5 798.7;" xml:space="preserve">
<style type="text/css">
	.st0{fill:#E40046;}
	.st1{fill:#FFFFFF;}
	.st2{fill:#404040;}
</style>
<g>
	<path class="st0" d="M197.4,0C88.5,0,0,88.5,0,197.4v403.9c0,109,88.5,197.4,197.4,197.4h403.9c109,0,197.4-88.5,197.4-197.4V197.4
		C798.7,88.5,710.3,0,601.3,0H197.4z"/>
	<path class="st1" d="M340.3,399.1h51.6c6.1-0.1,11.8,3.1,14.9,8.3c3.1,5.3,3.1,11.8,0,17c-3.1,5.3-8.8,8.4-14.9,8.3H197.6
		c-6.1,0.1-11.8-3.1-14.9-8.3c-3.1-5.3-3.1-11.8,0-17c3.1-5.3,8.8-8.4,14.9-8.3h106.3c0.1-0.1,0.1-0.2,0.2-0.4l100.6-241.9
		c2.6-6.2,8.5-10.2,15.2-10.4c6.9-0.1,13.3,4,15.9,10.4l193.6,472c2.4,5.6,1.6,12.1-2.1,16.9s-9.7,7.3-15.7,6.5
		c-6-0.9-11.1-4.9-13.3-10.6L420,207.4L340.3,399.1z M293.2,512.7c-0.1,0.2-0.1,0.3-0.2,0.4l-53.5,128.6c-2.3,5.6-7.4,9.6-13.4,10.4
		c-6,0.8-12-1.7-15.6-6.5c-3.7-4.8-4.5-11.2-2.1-16.8l48.3-116.1H162c-6.1,0.1-11.8-3.1-14.9-8.3c-3.1-5.3-3.1-11.8,0-17
		c3.1-5.3,8.8-8.4,14.9-8.3l194.4,0c6.1-0.1,11.8,3.1,14.9,8.3c3.1,5.3,3.1,11.8,0,17c-3.1,5.3-8.8,8.4-14.9,8.3H293.2L293.2,512.7z
		"/>
</g>
<g>
	<g>
		<path class="st2" d="M1195.7,655.3c-5,0-9.5-3.1-11.2-7.8l-31.6-83.6H967.8l-32,83.6c-1.8,4.6-6.2,7.7-11.2,7.7h-99
			c-4,0-7.7-2-9.9-5.3c-2.2-3.3-2.7-7.5-1.2-11.2l197.3-490c1.8-4.5,6.2-7.5,11.1-7.5h77.4c4.9,0,9.3,3,11.1,7.5l196.6,490
			c1.5,3.7,1,7.9-1.2,11.2c-2.2,3.3-6,5.3-9.9,5.3H1195.7z M1113.9,460.6L1061,320.7l-53.6,139.9H1113.9z"/>
		<path class="st1" d="M1100.2,153.3l196.6,490h-101.1l-34.5-91.3H959.6l-35,91.3h-99l197.3-490H1100.2 M990,472.6h141.2
			l-70.1-185.6L990,472.6 M1100.2,129.3h-77.4c-9.8,0-18.6,6-22.3,15l-197.3,490c-3,7.4-2.1,15.8,2.4,22.4
			c4.5,6.6,11.9,10.6,19.9,10.6h99c9.9,0,18.9-6.1,22.4-15.4l29.1-75.9h168.6l28.6,75.8c3.5,9.3,12.5,15.5,22.5,15.5h101.1
			c8,0,15.4-4,19.9-10.6s5.4-15,2.4-22.4l-196.6-490C1118.9,135.3,1110,129.3,1100.2,129.3L1100.2,129.3z M1024.9,448.6l36-94.1
			l35.6,94.1H1024.9L1024.9,448.6z"/>
	</g>
	<g>
		<path class="st2" d="M1448.7,663c-20,0-40.1-2.7-59.6-8.1c-19.1-5.4-36.9-12.8-53-22.1c-0.1,0-0.2-0.1-0.2-0.1
			c-16.4-9.9-30.7-22-42.6-35.9c-4.1-4.7-3.8-11.8,0.6-16.2l54.4-55.1c2.3-2.3,5.3-3.6,8.5-3.6c0.1,0,0.2,0,0.3,0
			c3.3,0.1,6.4,1.5,8.7,4c10.4,11.6,22.5,20.4,36.2,26.2c13.8,5.8,29.3,8.8,46.2,8.8c15.8,0,23.7-2.6,27.6-4.7
			c0.1-0.1,0.2-0.1,0.3-0.1c4.6-2.4,5.5-4.9,5.5-8.2c0-5.1-2-8.4-6.8-11.4c-0.1-0.1-0.2-0.1-0.3-0.2c-6.8-4.4-16.1-8.1-27.8-11
			c-0.1,0-0.3-0.1-0.4-0.1c-12.9-3.7-26.8-7.7-41.2-11.9c-0.2,0-0.3-0.1-0.5-0.1c-14.5-4.8-28.8-11-42.3-18.2
			c-0.1-0.1-0.2-0.1-0.3-0.2c-14.6-8.3-26.7-19.7-36.1-33.7c-0.1-0.1-0.2-0.3-0.3-0.4c-9-14.9-13.6-33.8-13.6-56.4
			c0-23.6,5.8-44.6,17.3-62.3c0-0.1,0.1-0.1,0.1-0.2c11.9-17.6,28.8-31.4,50.3-41.2c21-9.5,45.9-14.3,74-14.3
			c29.4,0,56.4,5.3,80.1,15.6c24.5,10.5,45.1,26.5,61.2,47.6c3.6,4.8,3.2,11.5-1.1,15.8l-55.1,55.1c-2.3,2.3-5.3,3.5-8.5,3.5
			c-0.2,0-0.4,0-0.6,0c-3.4-0.2-6.5-1.8-8.7-4.4c-8.9-11-19.1-19-30.3-23.7c0,0-0.1,0-0.1-0.1c-10.9-4.9-23.1-7.3-36.3-7.3
			c-11.1,0-19.8,1.6-25.3,4.7c-3.7,2.3-4.5,4.4-4.5,7c0,2.9,0.7,6.1,5.8,9.1c7.5,4.1,17.3,8,29.2,11.4c13.1,3.3,26.9,7.3,40.9,12
			c15.3,4.5,29.8,11,43.2,19.4c14.5,8.8,26.4,20.7,35.2,35.2c9.5,14.9,14.4,33.9,14.4,56.5c0,36.6-13.4,66.2-39.9,88
			c0,0-0.1,0.1-0.1,0.1C1527.3,652.5,1492.2,663,1448.7,663z"/>
		<path class="st1" d="M1453.6,298.3c27.9,0,53,4.9,75.3,14.6c22.8,9.8,41.6,24.4,56.5,43.9l-55.1,55.1
			c-10.2-12.5-21.8-21.6-34.9-27.2c-12.5-5.6-26.3-8.4-41.1-8.4c-13.5,0-23.9,2.1-31.4,6.3c-7,4.2-10.5,10-10.5,17.4
			c0,8.4,3.9,14.9,11.9,19.5c8.4,4.6,19.1,8.8,32.1,12.5c13,3.3,26.5,7.2,40.4,11.9c14.4,4.2,27.9,10.2,40.4,18.1
			c13,7.9,23.5,18.4,31.4,31.4c8.4,13,12.6,29.7,12.6,50.2c0,33-11.9,59.3-35.6,78.8c-23.7,19.1-56,28.6-96.9,28.6
			c-19.1,0-37.9-2.6-56.5-7.7c-18.1-5.1-34.9-12.1-50.2-20.9c-15.3-9.3-28.6-20.4-39.7-33.5l54.4-55.1c11.6,13,25.1,22.8,40.4,29.3
			c15.3,6.5,32.3,9.8,50.9,9.8c14.9,0,26-2.1,33.5-6.3c7.9-4.2,11.9-10.5,11.9-18.8c0-9.3-4.2-16.5-12.6-21.6
			c-7.9-5.1-18.4-9.3-31.4-12.5c-13-3.7-26.7-7.7-41.1-11.9c-13.9-4.6-27.4-10.5-40.4-17.4c-13-7.4-23.7-17.4-32.1-30
			c-7.9-13-11.8-29.7-11.8-50.2c0-21.4,5.1-40,15.3-55.8c10.7-15.8,25.8-28.1,45.3-36.9C1404.1,302.7,1427.1,298.3,1453.6,298.3
			 M1453.6,274.3c-29.8,0-56.3,5.2-78.9,15.4c-23.5,10.6-42.1,25.9-55.3,45.4c-0.1,0.1-0.2,0.3-0.3,0.4
			c-12.7,19.7-19.2,42.8-19.2,68.8c0,24.8,5.2,45.9,15.3,62.6c0.2,0.3,0.4,0.6,0.5,0.9c10.4,15.6,23.9,28.2,40.1,37.5
			c0.2,0.1,0.4,0.2,0.6,0.3c14.1,7.6,29,14,44.2,19c0.3,0.1,0.6,0.2,0.9,0.3c14.4,4.2,28.2,8.2,41.2,11.9c0.3,0.1,0.5,0.1,0.8,0.2
			c10.4,2.6,18.5,5.8,24.1,9.4c0.1,0,0.1,0.1,0.2,0.1c-2.8,1-8.6,2.4-19.9,2.4c-15.3,0-29.2-2.6-41.5-7.9
			c-12.1-5.2-22.6-12.7-31.9-23.2c-4.4-4.9-10.7-7.8-17.3-8c-0.2,0-0.4,0-0.6,0c-6.4,0-12.6,2.6-17.1,7.1l-54.4,55.1
			c-8.8,8.9-9.3,23-1.1,32.5c12.7,14.9,28.1,27.8,45.5,38.4c0.2,0.1,0.3,0.2,0.5,0.3c17,9.8,35.7,17.6,55.6,23.2c0,0,0.1,0,0.2,0
			c20.6,5.7,41.7,8.5,62.8,8.5c46.3,0,84-11.4,111.9-33.9c0.1-0.1,0.1-0.1,0.2-0.2c14.7-12.1,25.9-26.5,33.3-43
			c7.3-16.2,11-34.5,11-54.3c0-24.9-5.4-46-16.2-62.9c-9.8-16.1-23-29.3-39.1-39.1c-3.9-2.5-8-4.8-12.1-7c3.5-1.2,6.8-3.1,9.5-5.8
			l55.1-55.1c8.5-8.5,9.4-22,2.1-31.5c-17.3-22.7-39.5-40-66-51.4C1513.1,279.9,1484.6,274.3,1453.6,274.3L1453.6,274.3z
			 M1441.5,401.4c3-0.6,7.2-1,12.8-1c11.6,0,21.8,2.1,31.4,6.3c0.1,0,0.2,0.1,0.3,0.1c7.7,3.3,14.8,8.3,21.3,15.3
			c-1.1-0.3-2.2-0.7-3.3-1c-14.2-4.7-28.1-8.8-41.4-12.1C1454.3,406.6,1447.3,404.1,1441.5,401.4L1441.5,401.4z"/>
	</g>
	<g>
		<path class="st2" d="M1784.2,662.3c-36.3,0-69.5-8.3-98.6-24.5c-29.1-16.3-52.5-38.9-69.3-67.1c-16.8-28.3-25.4-60.3-25.4-95.4
			c0-35.5,8.5-67.8,25.4-96.1c16.8-28.2,40.1-50.8,69.3-67.1c29.5-16.7,62.7-25.2,98.6-25.2c28,0,54.3,5.3,78,15.6
			c23.8,10.4,44.6,25.5,62,44.8c4.2,4.7,4.1,11.9-0.4,16.4l-58.6,59.3c-2.3,2.3-5.3,3.6-8.5,3.6c-0.1,0-0.2,0-0.3,0
			c-3.3-0.1-6.4-1.5-8.6-3.9c-7.6-8.4-16.9-14.8-27.7-19.2c-0.1,0-0.1,0-0.1-0.1c-10.5-4.5-22.6-6.7-35.8-6.7
			c-14.7,0-27.5,3.3-39.2,10.2c0,0-0.1,0-0.1,0.1c-11.2,6.4-20.1,15.2-26.9,27c-6.3,11.1-9.5,24.8-9.5,40.7
			c0,15.5,3.2,29.5,9.6,41.5c6.9,11.7,15.7,20.7,26.9,27.5c11.6,6.3,24.8,9.5,39.3,9.5c13.6,0,25.8-2.2,36.4-6.7
			c10.8-4.8,20.2-11.7,27.8-20.5c2.2-2.5,5.3-4,8.6-4.1c0.1,0,0.3,0,0.4,0c3.2,0,6.2,1.3,8.5,3.5l59.3,59.3
			c4.6,4.6,4.7,11.9,0.3,16.6c-18.2,19.7-39.5,35-63.3,45.4C1838.5,657.1,1812.2,662.3,1784.2,662.3z"/>
		<path class="st1" d="M1784.2,299c26.5,0,50.9,4.9,73.2,14.6c22.3,9.8,41.6,23.7,57.9,41.8l-58.6,59.3
			c-8.8-9.8-19.5-17.2-32.1-22.3c-12.1-5.1-25.6-7.7-40.4-7.7c-16.7,0-31.8,3.9-45.3,11.9c-13,7.4-23.5,17.9-31.4,31.4
			c-7.4,13-11.2,28.6-11.2,46.7c0,17.7,3.7,33.5,11.2,47.4c7.9,13.5,18.4,24.2,31.4,32.1c13.5,7.4,28.6,11.2,45.3,11.2
			c15.3,0,29-2.6,41.1-7.7c12.6-5.6,23.2-13.5,32.1-23.7l59.3,59.3c-17.2,18.6-36.9,32.8-59.3,42.5c-22.3,9.8-46.7,14.6-73.2,14.6
			c-34.4,0-65.3-7.7-92.7-23c-27.4-15.3-49-36.2-64.8-62.7c-15.8-26.5-23.7-56.2-23.7-89.2c0-33.5,7.9-63.4,23.7-89.9
			c15.8-26.5,37.4-47.4,64.8-62.7C1719.4,306.9,1750.3,299,1784.2,299 M1784.2,275c-37.9,0-73.1,9-104.5,26.8
			c-31,17.3-55.8,41.3-73.7,71.4c-18,30.1-27.1,64.5-27.1,102.2c0,37.2,9.1,71.4,27.1,101.5c17.9,30,42.7,54,73.7,71.4
			c30.9,17.3,66.1,26.1,104.4,26.1c29.7,0,57.6-5.6,82.8-16.7c25.2-11,47.9-27.3,67.3-48.2c8.8-9.5,8.5-24.2-0.6-33.3l-59.3-59.3
			c-4.5-4.5-10.6-7-17-7c-0.3,0-0.6,0-0.9,0c-6.7,0.2-12.9,3.2-17.3,8.3c-6.5,7.5-14.2,13.2-23.4,17.4c-9,3.8-19.6,5.7-31.6,5.7
			c-12.5,0-23.4-2.6-33.3-7.9c-9.3-5.7-16.7-13.3-22.4-23c-5.5-10.4-8.1-22.1-8.1-35.7c0-13.7,2.7-25.4,7.9-34.7
			c5.8-9.8,13.1-17.2,22.5-22.5c0.1,0,0.2-0.1,0.2-0.1c9.8-5.8,20.7-8.6,33.2-8.6c11.6,0,22,1.9,31.1,5.8c0.1,0,0.2,0.1,0.3,0.1
			c9.3,3.8,16.9,9.1,23.3,16.2c4.4,4.9,10.7,7.7,17.3,7.9c0.2,0,0.4,0,0.5,0c6.4,0,12.6-2.6,17.1-7.1l58.6-59.3
			c8.9-9,9.3-23.4,0.8-32.9c-18.5-20.6-40.7-36.7-66.1-47.8C1841.8,280.6,1813.9,275,1784.2,275L1784.2,275z"/>
	</g>
	<g>
		<path class="st2" d="M1996.9,264.3c-18.1,0-33.4-6.1-45.4-18.2c-0.1-0.1-0.1-0.1-0.2-0.2c-11.9-12.5-18-27.9-18-45.9
			c0-17.5,6-32.7,18-45.2c12.1-12.6,27.4-19.1,45.6-19.1c18.7,0,34.1,6.4,45.7,19.2c11.8,12.5,17.9,27.6,17.9,45.1
			c0,18-6,33.4-18,45.9C2031,258.1,2015.6,264.3,1996.9,264.3z"/>
		<path class="st1" d="M1996.9,147.7c15.3,0,27.7,5.1,36.9,15.3c9.8,10.2,14.6,22.5,14.6,36.9c0,14.9-4.9,27.4-14.6,37.6
			c-9.3,9.8-21.6,14.6-36.9,14.6c-14.9,0-27.2-4.9-36.9-14.6c-9.8-10.2-14.6-22.8-14.6-37.6c0-14.4,4.9-26.7,14.6-36.9
			C1969.8,152.8,1982.1,147.7,1996.9,147.7 M1996.9,123.7c-21.3,0-40.1,7.9-54.3,22.8c-14.1,14.8-21.3,32.8-21.3,53.5
			c0,21.2,7.2,39.4,21.3,54.2c0.1,0.1,0.3,0.3,0.4,0.4c14.2,14.2,32.8,21.7,53.9,21.7c21.8,0,40.6-7.6,54.3-22.1
			c14.1-14.8,21.3-33,21.3-54.2c0-20.6-7.1-38.6-21.1-53.3C2037.7,131.7,2018.8,123.7,1996.9,123.7L1996.9,123.7z"/>
	</g>
	<g>
		<path class="st2" d="M1950.9,655.3c-6.6,0-12-5.4-12-12V306.7c0-6.6,5.4-12,12-12h92c6.6,0,12,5.4,12,12v336.7c0,6.6-5.4,12-12,12
			H1950.9z"/>
		<path class="st1" d="M2042.9,306.7v336.7h-92V306.7H2042.9 M2042.9,282.7h-92c-13.3,0-24,10.7-24,24v336.7c0,13.3,10.7,24,24,24
			h92c13.3,0,24-10.7,24-24V306.7C2066.9,293.4,2056.2,282.7,2042.9,282.7L2042.9,282.7z"/>
	</g>
	<g>
		<path class="st2" d="M2106.4,655.3c-6.6,0-12-5.4-12-12V306.7c0-6.6,5.4-12,12-12h92c6.6,0,12,5.4,12,12v336.7c0,6.6-5.4,12-12,12
			H2106.4z"/>
		<path class="st1" d="M2198.4,306.7v336.7h-92V306.7H2198.4 M2198.4,282.7h-92c-13.3,0-24,10.7-24,24v336.7c0,13.3,10.7,24,24,24
			h92c13.3,0,24-10.7,24-24V306.7C2222.4,293.4,2211.7,282.7,2198.4,282.7L2198.4,282.7z"/>
	</g>
	<g>
		<path class="st2" d="M2152.4,264.3c-18.1,0-33.4-6.1-45.4-18.2c-0.1-0.1-0.1-0.1-0.2-0.2c-11.9-12.5-18-27.9-18-45.9
			c0-17.5,6-32.7,18-45.2c12.1-12.6,27.4-19.1,45.6-19.1c18.7,0,34.1,6.4,45.7,19.2c11.9,12.5,17.9,27.6,17.9,45.1
			c0,18-6,33.4-18,45.9C2186.4,258.1,2171.1,264.3,2152.4,264.3z"/>
		<path class="st1" d="M2152.4,147.7c15.3,0,27.7,5.1,36.9,15.3c9.8,10.2,14.6,22.5,14.6,36.9c0,14.9-4.9,27.4-14.6,37.6
			c-9.3,9.8-21.6,14.6-36.9,14.6c-14.9,0-27.2-4.9-36.9-14.6c-9.8-10.2-14.6-22.8-14.6-37.6c0-14.4,4.9-26.7,14.6-36.9
			C2125.2,152.8,2137.5,147.7,2152.4,147.7 M2152.4,123.7c-21.3,0-40.1,7.9-54.3,22.8c-14.1,14.8-21.3,32.8-21.3,53.5
			c0,21.2,7.2,39.4,21.3,54.2c0.1,0.1,0.3,0.3,0.4,0.4c14.2,14.2,32.8,21.7,53.9,21.7c21.8,0,40.6-7.6,54.3-22.1
			c14.1-14.8,21.3-33,21.3-54.2c0-20.6-7.1-38.6-21.1-53.3C2193.1,131.7,2174.3,123.7,2152.4,123.7L2152.4,123.7z"/>
	</g>
	<g>
		<path class="st2" d="M2266.4,655.3c-6.6,0-12-5.4-12-12v-490c0-6.6,5.4-12,12-12h191c37.6,0,72.8,6.4,104.8,19
			c32.4,12.6,61,30.8,84.8,54.1c24.3,22.9,43.3,50.2,56.4,81.3c13.6,31.1,20.5,65.5,20.5,102.3c0,36.8-6.9,71.5-20.5,103
			c-13.1,31-31.8,58.6-55.6,81.9c0,0-0.1,0.1-0.1,0.1c-23.8,22.8-52.3,40.8-84.8,53.4c-31.9,12.6-66.9,18.9-104,18.9H2266.4z
			 M2456,547c29.4,0,55.3-6.1,77.1-18c21.6-12.3,38.5-29.7,50.4-51.7c0-0.1,0.1-0.1,0.1-0.2c12.4-22.2,18.7-49.1,18.7-79.9
			c0-29.8-6.3-56-18.6-77.7c0,0,0-0.1,0-0.1c-12.3-22.1-29.5-39.2-51.1-51.1c-0.1,0-0.1-0.1-0.2-0.1c-21.8-12.4-47.4-18.6-76.3-18.6
			h-82.8V547H2456z"/>
		<path class="st1" d="M2457.4,153.3c36.2,0,69.7,6,100.4,18.1c31.1,12.1,58.1,29.3,80.9,51.6c23.2,21.8,41.1,47.6,53.7,77.4
			c13,29.7,19.5,62.3,19.5,97.6s-6.5,68.1-19.5,98.3c-12.5,29.7-30.2,55.8-53,78.1c-22.8,21.8-49.7,38.8-80.9,50.9
			c-30.7,12.1-63.9,18.1-99.7,18.1h-97.6h-30h-64.8v-490h62.7h32.1H2457.4 M2361.2,559h94.8c31.6,0,59.3-6.5,82.9-19.5
			c23.7-13.5,42.1-32.3,55.1-56.5c13.5-24.2,20.2-52.7,20.2-85.7c0-32.1-6.7-59.9-20.2-83.6c-13.5-24.2-32.1-42.8-55.8-55.8
			c-23.7-13.5-51.1-20.2-82.3-20.2h-94.8V559 M2457.4,129.3h-96.2h-32.1h-62.7c-13.3,0-24,10.7-24,24v490c0,13.3,10.7,24,24,24h64.8
			h30h97.6c38.6,0,75.1-6.7,108.4-19.8c33.9-13.2,63.8-32,88.7-55.9c0.1-0.1,0.1-0.1,0.2-0.2c24.9-24.4,44.5-53.3,58.3-85.8
			c14.2-33.1,21.4-69.3,21.4-107.7c0-38.4-7.2-74.5-21.5-107.1c-13.8-32.6-33.6-61.2-59.1-85.2c-25-24.4-54.8-43.4-88.7-56.6
			C2533.2,136,2496.4,129.3,2457.4,129.3L2457.4,129.3z M2385.2,261.6h70.8c26.8,0,50.5,5.7,70.4,17.1c0.1,0.1,0.2,0.1,0.3,0.2
			c19.9,10.9,35,26.1,46.4,46.4c0,0.1,0.1,0.1,0.1,0.2c11.3,19.9,17.1,44.1,17.1,71.8c0,28.7-5.8,53.6-17.2,74
			c-0.1,0.1-0.1,0.2-0.2,0.3c-10.9,20.2-25.8,35.6-45.6,46.9c-20,10.9-43.9,16.5-71.2,16.5h-70.8V261.6L2385.2,261.6z"/>
	</g>
	<g>
		<path class="st2" d="M2912.9,662.3c-35.8,0-68.8-8.3-97.9-24.5c-0.1,0-0.1-0.1-0.2-0.1c-28.6-16.7-51.8-39.5-69-67.5
			c0-0.1-0.1-0.1-0.1-0.2c-16.8-28.7-25.3-61-25.3-96c0-35.1,8.6-67,25.4-94.8c16.8-28.1,40-50.6,69.2-66.9
			c29.1-16.8,61.8-25.3,97.2-25.3c36.3,0,69.3,8.5,98,25.3c29.1,16.3,52.4,38.8,69.2,67c16.8,27.7,25.4,59.6,25.4,94.7
			c0,35-8.5,67.3-25.3,96c-16.8,28.2-40.1,51-69.2,67.8C2981.5,654.1,2948.8,662.3,2912.9,662.3z M2873.7,543.8
			c11.1,6.3,24,9.5,38.5,9.5c15,0,28.2-3.2,39.3-9.5c11.6-6.8,20.1-15.7,26-27.2c0,0,0-0.1,0.1-0.1c6.5-12.1,9.7-26.2,9.7-41.8
			c0-15.5-3.2-29.3-9.7-40.9c-6.4-11.6-15-20.4-26.1-26.7c-0.1-0.1-0.2-0.1-0.3-0.2c-11.2-6.8-24-10.1-39.1-10.1
			c-14.6,0-27.2,3.3-38.4,10.1c-0.1,0.1-0.2,0.1-0.3,0.2c-11.2,6.4-19.7,15.1-26.1,26.7c-6.4,11.6-9.7,25.4-9.7,40.9
			c0,15.6,3.3,29.6,9.7,41.7C2853.9,528,2862.5,536.9,2873.7,543.8z"/>
		<path class="st1" d="M2912.2,299c34.4,0,65.1,7.9,92,23.7c27.4,15.3,49,36.2,64.8,62.7c15.8,26,23.7,55.5,23.7,88.5
			c0,33-7.9,63-23.7,89.9c-15.8,26.5-37.4,47.6-64.8,63.4c-27,15.3-57.4,23-91.3,23c-33.9,0-64.6-7.7-92-23
			c-27-15.8-48.6-36.9-64.8-63.4c-15.8-27-23.7-56.9-23.7-89.9c0-33,7.9-62.5,23.7-88.5c15.8-26.5,37.4-47.4,64.8-62.7
			C2848.3,306.9,2878.7,299,2912.2,299 M2912.2,565.3c17.2,0,32.3-3.7,45.3-11.2c13.5-7.9,23.7-18.6,30.7-32.1
			c7.4-13.9,11.2-29.7,11.2-47.4c0-17.7-3.7-33.2-11.2-46.7c-7.4-13.5-17.7-23.9-30.7-31.4c-13-7.9-28.1-11.9-45.3-11.9
			c-16.7,0-31.6,3.9-44.6,11.9c-13,7.4-23.2,17.9-30.7,31.4s-11.2,29-11.2,46.7c0,17.7,3.7,33.5,11.2,47.4
			c7.4,13.5,17.7,24.2,30.7,32.1C2880.6,561.6,2895.5,565.3,2912.2,565.3 M2912.2,275c-37.5,0-72.2,9-103.2,26.8
			c-30.9,17.3-55.7,41.3-73.5,71.2c-18,29.7-27.1,63.6-27.1,100.9c0,37.2,9.1,71.5,27,102.1c0.1,0.1,0.2,0.3,0.3,0.4
			c18.3,29.8,42.9,53.8,73.1,71.6c0.1,0.1,0.3,0.2,0.4,0.2c30.9,17.3,65.8,26.1,103.7,26.1c38,0,72.7-8.8,103.2-26.1
			c0,0,0.1,0,0.1-0.1c30.9-17.8,55.6-42,73.5-71.9c0-0.1,0.1-0.1,0.1-0.2c17.9-30.6,27-64.9,27-102.1c0-37.3-9.1-71.2-27.1-100.9
			c-17.9-29.9-42.6-53.9-73.5-71.2C2985.6,284,2950.7,275,2912.2,275L2912.2,275z M2858,510.6c-5.6-10.5-8.2-22.2-8.2-36
			c0-13.7,2.7-25.2,8.2-35.1c5.3-9.6,12.4-16.9,21.6-22.1c0.2-0.1,0.4-0.2,0.5-0.3c9.3-5.6,19.8-8.4,32.2-8.4
			c12.8,0,23.6,2.7,32.9,8.4c0.2,0.1,0.4,0.2,0.5,0.3c9.2,5.3,16.2,12.5,21.6,22.1c5.5,10,8.2,21.4,8.2,35.1
			c0,13.8-2.7,25.6-8.3,36.1c0,0.1-0.1,0.2-0.1,0.3c-4.9,9.4-11.9,16.7-21.4,22.3c-9.4,5.3-20.3,7.9-33.3,7.9
			c-12.5,0-23.1-2.6-32.4-7.8C2870.5,527.7,2863.4,520.3,2858,510.6L2858,510.6z"/>
	</g>
	<g>
		<path class="st2" d="M3298.3,662.3c-36.3,0-69.5-8.3-98.6-24.5c-29.2-16.3-52.5-38.9-69.3-67.1c-16.9-28.2-25.4-60.3-25.4-95.4
			c0-35.5,8.5-67.8,25.4-96.1c16.8-28.2,40.1-50.8,69.3-67.1c29.5-16.7,62.7-25.2,98.6-25.2c28,0,54.3,5.3,78,15.6
			c23.8,10.4,44.6,25.5,62,44.8c4.2,4.7,4.1,11.9-0.4,16.4l-58.5,59.3c-2.3,2.3-5.3,3.6-8.5,3.6c-0.1,0-0.2,0-0.3,0
			c-3.3-0.1-6.4-1.5-8.6-3.9c-7.6-8.4-16.9-14.8-27.7-19.2c0,0-0.1,0-0.1-0.1c-10.5-4.5-22.6-6.7-35.8-6.7
			c-14.7,0-27.5,3.3-39.2,10.2c0,0-0.1,0-0.1,0.1c-11.2,6.4-20.1,15.2-26.9,27c-6.3,11.1-9.5,24.8-9.5,40.7
			c0,15.5,3.2,29.5,9.6,41.5c6.8,11.5,15.8,20.8,26.9,27.5c11.6,6.3,24.8,9.5,39.3,9.5c13.6,0,25.8-2.2,36.4-6.7
			c10.8-4.8,20.1-11.7,27.8-20.5c2.2-2.5,5.3-4,8.6-4.1c0.1,0,0.3,0,0.4,0c3.2,0,6.2,1.3,8.5,3.5l59.2,59.3
			c4.6,4.6,4.7,11.9,0.3,16.6c-18.2,19.7-39.5,35-63.2,45.4C3352.6,657.1,3326.3,662.3,3298.3,662.3z"/>
		<path class="st1" d="M3298.3,299c26.5,0,50.9,4.9,73.2,14.6c22.3,9.8,41.6,23.7,57.9,41.8l-58.6,59.3
			c-8.8-9.8-19.5-17.2-32.1-22.3c-12.1-5.1-25.6-7.7-40.4-7.7c-16.7,0-31.8,3.9-45.3,11.9c-13,7.4-23.5,17.9-31.4,31.4
			c-7.4,13-11.2,28.6-11.2,46.7c0,17.7,3.7,33.5,11.2,47.4c7.9,13.5,18.4,24.2,31.4,32.1c13.5,7.4,28.6,11.2,45.3,11.2
			c15.3,0,29-2.6,41.1-7.7c12.5-5.6,23.2-13.5,32.1-23.7l59.2,59.3c-17.2,18.6-36.9,32.8-59.2,42.5c-22.3,9.8-46.7,14.6-73.2,14.6
			c-34.4,0-65.3-7.7-92.7-23c-27.4-15.3-49-36.2-64.8-62.7c-15.8-26.5-23.7-56.2-23.7-89.2c0-33.5,7.9-63.4,23.7-89.9
			c15.8-26.5,37.4-47.4,64.8-62.7C3233.5,306.9,3264.4,299,3298.3,299 M3298.3,275c-37.9,0-73.1,9-104.5,26.8
			c-31,17.3-55.8,41.4-73.7,71.4c-18,30.1-27.1,64.5-27.1,102.2c0,37.2,9.1,71.4,27.1,101.5c17.9,30,42.7,54,73.7,71.4
			c30.9,17.3,66,26.1,104.4,26.1c29.7,0,57.6-5.6,82.8-16.7c25.2-11,47.9-27.3,67.2-48.2c8.8-9.5,8.5-24.2-0.6-33.3l-59.2-59.3
			c-4.5-4.5-10.6-7-17-7c-0.3,0-0.6,0-0.9,0c-6.7,0.2-12.9,3.2-17.3,8.3c-6.5,7.5-14.2,13.2-23.5,17.4c-9,3.8-19.6,5.7-31.6,5.7
			c-12.5,0-23.4-2.6-33.3-7.9c-9.3-5.8-16.7-13.3-22.4-23c-5.5-10.4-8.1-22.1-8.1-35.7c0-13.8,2.7-25.4,7.9-34.7
			c5.8-9.8,13.1-17.2,22.5-22.5c0.1,0,0.2-0.1,0.2-0.1c9.8-5.8,20.7-8.6,33.2-8.6c11.6,0,22,1.9,31.1,5.8c0.1,0,0.2,0.1,0.3,0.1
			c9.3,3.8,16.9,9.1,23.3,16.2c4.4,4.9,10.7,7.7,17.3,7.9c0.2,0,0.4,0,0.5,0c6.4,0,12.6-2.6,17.1-7.1l58.6-59.3
			c8.9-9,9.3-23.4,0.8-32.9c-18.5-20.6-40.7-36.7-66.1-47.8C3355.9,280.6,3328,275,3298.3,275L3298.3,275z"/>
	</g>
	<g id="XMLID_00000078756038835711413340000011457824149377364136_">
		<g>
			<path class="st2" d="M3451.6,253.9c-14.5,0-28.2-5.7-38.5-15.9c-10.1-10.1-15.9-24.1-15.9-38.4c0-14.5,5.7-28.2,15.9-38.4
				c10.3-10.3,24-15.9,38.5-15.9c14.3,0,28.4,5.8,38.5,15.9c10.3,10.3,15.9,23.9,15.9,38.4c0,14.3-5.8,28.3-15.9,38.4
				C3479.9,248.1,3465.9,253.9,3451.6,253.9z"/>
			<path class="st1" d="M3451.6,147.7c13.8,0,27,5.5,36.7,15.2c9.7,9.7,15.2,22.9,15.2,36.7c0,13.7-5.5,26.9-15.2,36.6
				c-9.7,9.7-23,15.2-36.7,15.2c-13.8,0-27-5.5-36.7-15.2c-9.7-9.7-15.2-22.9-15.2-36.6c0-13.8,5.5-26.9,15.2-36.7
				C3424.6,153.2,3437.8,147.7,3451.6,147.7 M3451.6,142.7c-15.2,0-29.5,5.9-40.3,16.6c-10.8,10.7-16.7,25-16.7,40.2
				c0,15,6.1,29.6,16.7,40.2c10.8,10.7,25.1,16.6,40.3,16.6c15,0,29.7-6.1,40.3-16.6c10.6-10.6,16.7-25.2,16.7-40.2
				c0-15.2-5.9-29.5-16.7-40.2C3481.2,148.8,3466.5,142.7,3451.6,142.7L3451.6,142.7z"/>
		</g>
		<g>
			<path class="st1" d="M3494.5,217c2.3-5.7,3.5-11.7,3.4-17.8l-0.5,0.3c0-12.2-4.8-23.8-13.4-32.4c-8.6-8.6-20.3-13.4-32.5-13.4
				c-12.2,0-23.9,4.8-32.5,13.4c-8.6,8.6-13.5,20.3-13.5,32.4c-0.1,6.1,1,12.1,3.2,17.7c2.3,5.6,5.6,10.8,9.9,15.1s9.4,7.7,15,10
				c5.6,2.3,11.7,3.4,17.8,3.4c6.1,0,12.2-1.1,17.8-3.5c5.7-2.3,10.8-5.8,15.1-10.1C3488.8,227.8,3492.2,222.7,3494.5,217z"/>
		</g>
		<g id="XMLID_00000183221073272814282690000003025097106430151101_">
			<g>
				<g>
					<path class="st2" d="M3465.7,206.2l13.3,18.9h-15.8l-11.4-17h-8.4v17h-13l-0.4-53.5h26.2c12.6,0,21.8,5.7,21.8,17.9
						c0.2,3.8-1,7.5-3.2,10.6C3472.6,203.1,3469.4,205.3,3465.7,206.2z M3454.5,197.7c6,0,9.3-2.9,9.3-7.4c0-4.4-3.6-7.5-9.3-7.5
						h-11.3v14.8H3454.5z"/>
				</g>
			</g>
		</g>
	</g>
</g>
</svg>
