<?xml version="1.0" encoding="utf-8"?>
<!-- Generator: Adobe Illustrator 26.5.3, SVG Export Plug-In . SVG Version: 6.00 Build 0)  -->
<svg version="1.1" id="레이어_1" xmlns="http://www.w3.org/2000/svg" xmlns:xlink="http://www.w3.org/1999/xlink" x="0px"
	 y="0px" viewBox="0 0 110.9 25.5" style="enable-background:new 0 0 110.9 25.5;" xml:space="preserve">
<style type="text/css">
	.st0{fill:#FFFFFF;}
</style>
<g>
	<g>
		<path class="st0" d="M11.8,19.6l-0.8-3H7.2l-0.9,3h-5L6.5,2.2H12l5.1,17.3H11.8z M9.8,12.2L9.1,9.7l-0.7,2.4H9.8z"/>
		<path d="M11.2,3.2l4.5,15.3h-3.2l-0.8-3H6.4l-0.9,3H2.7L7.2,3.2H11.2 M7.1,13.2h4l-2-7.1L7.1,13.2 M12.7,1.2h-1.5h-4H5.7L5.3,2.7
			L0.8,18L0,20.6h2.7h2.9H7l0.4-1.4l0.5-1.6h2.3l0.4,1.6l0.4,1.5h1.5h3.2h2.7L17.7,18L13.2,2.7L12.7,1.2L12.7,1.2z"/>
	</g>
	<g>
		<path class="st0" d="M22,19.8c-0.9,0-1.7,0-2.5-0.1c-0.7-0.1-1.5-0.2-2.1-0.4l-0.8-0.2v-4.9l1.4,0.6c0.7,0.3,1.3,0.5,2,0.6
			c0.7,0.1,1.3,0.2,1.9,0.2c0.8,0,1-0.1,1.1-0.2c0.1,0,0.1-0.1,0.1-0.1c0,0,0,0,0,0c0,0,0,0-0.1-0.1c-0.1-0.1-0.3-0.2-0.7-0.3
			c-0.4-0.1-0.9-0.3-1.5-0.5c-0.6-0.2-1.2-0.4-1.7-0.6c-0.5-0.3-1-0.6-1.4-0.9c-0.4-0.4-0.7-0.8-0.9-1.3c-0.2-0.5-0.3-1-0.3-1.7
			c0-0.6,0.1-1.3,0.4-1.8c0.3-0.6,0.7-1.1,1.3-1.5c0.5-0.4,1.2-0.7,1.9-0.9c0.7-0.2,1.6-0.3,2.6-0.3c0.8,0,1.5,0,2.1,0.1
			c0.6,0.1,1.1,0.2,1.6,0.3L27.4,6v4.5l-1.3-0.4c-0.6-0.2-1.2-0.3-1.8-0.4c-0.5-0.1-1.1-0.1-1.6-0.1c-0.5,0-0.8,0.1-0.9,0.2
			c0,0,0,0,0,0c-0.1,0,0,0,0,0.1c0.1,0.1,0.3,0.2,0.7,0.3c0.3,0.1,0.8,0.3,1.4,0.4c0.7,0.2,1.4,0.4,1.9,0.7c0.6,0.3,1,0.6,1.4,0.9
			c0.4,0.4,0.7,0.8,0.9,1.3c0.2,0.5,0.2,1,0.2,1.6c0,0.9-0.2,1.6-0.6,2.3c-0.4,0.6-0.9,1.1-1.5,1.5c-0.6,0.4-1.3,0.6-2,0.8
			C23.5,19.8,22.7,19.8,22,19.8z"/>
		<path d="M22.9,6.4c0.8,0,1.4,0,2,0.1s1.1,0.2,1.5,0.3v2.3c-0.7-0.2-1.3-0.4-1.9-0.5s-1.2-0.1-1.8-0.1s-1.1,0.1-1.4,0.3
			s-0.5,0.5-0.5,0.9c0,0.2,0,0.3,0.1,0.5s0.2,0.3,0.4,0.4s0.5,0.3,0.9,0.4s0.9,0.3,1.5,0.5c0.7,0.2,1.3,0.4,1.7,0.6s0.8,0.5,1.1,0.8
			s0.5,0.6,0.6,1s0.2,0.8,0.2,1.2c0,0.7-0.2,1.3-0.5,1.7s-0.7,0.9-1.2,1.2s-1.1,0.5-1.7,0.7s-1.3,0.2-1.9,0.2c-0.9,0-1.7,0-2.4-0.1
			s-1.4-0.2-2-0.4v-2.6c0.7,0.3,1.5,0.5,2.2,0.7s1.4,0.2,2.1,0.2c0.8,0,1.3-0.1,1.7-0.4s0.6-0.5,0.6-0.9c0-0.2,0-0.3-0.1-0.5
			s-0.2-0.3-0.4-0.4s-0.5-0.3-0.9-0.4s-0.9-0.3-1.5-0.5c-0.6-0.2-1.1-0.3-1.5-0.6s-0.8-0.5-1.1-0.7s-0.5-0.6-0.7-1s-0.2-0.8-0.2-1.3
			c0-0.5,0.1-0.9,0.3-1.4s0.5-0.8,1-1.1s1-0.6,1.6-0.8S22,6.4,22.9,6.4 M22.9,4.4c-1.1,0-2,0.1-2.8,0.4c-0.9,0.3-1.6,0.6-2.3,1.1
			c-0.7,0.5-1.2,1.1-1.6,1.8c-0.4,0.7-0.5,1.5-0.5,2.3c0,0.7,0.1,1.4,0.4,2c0.2,0.5,0.4,0.9,0.7,1.2l-1.1-0.4v3v2.6v1.6l1.5,0.4
			c0.7,0.2,1.5,0.3,2.2,0.4c0.8,0.1,1.7,0.1,2.6,0.1c0.8,0,1.6-0.1,2.4-0.3c0.8-0.2,1.6-0.5,2.3-0.9c0.8-0.5,1.4-1.1,1.9-1.8
			c0.5-0.8,0.8-1.7,0.8-2.8c0-0.7-0.1-1.3-0.3-1.9c-0.2-0.5-0.4-1-0.8-1.4l0.2,0.1V9.1V6.8V5.1l-1.6-0.3c-0.5-0.1-1.1-0.2-1.7-0.3
			C24.5,4.4,23.7,4.4,22.9,4.4L22.9,4.4z"/>
	</g>
	<g>
		<path class="st0" d="M35.2,19.8c-0.9,0-1.7,0-2.5-0.1c-0.7-0.1-1.5-0.2-2.1-0.4l-0.8-0.2v-4.9l1.4,0.6c0.7,0.3,1.3,0.5,2,0.6
			c0.7,0.1,1.3,0.2,1.9,0.2c0.8,0,1-0.1,1.1-0.2c0.1,0,0.1-0.1,0.1-0.1c0,0,0,0,0,0c0,0,0,0-0.1-0.1c-0.1-0.1-0.3-0.2-0.7-0.3
			c-0.4-0.1-0.9-0.3-1.5-0.5c-0.6-0.2-1.2-0.4-1.7-0.6c-0.5-0.3-1-0.6-1.4-0.9c-0.4-0.4-0.7-0.8-0.9-1.3c-0.2-0.5-0.3-1-0.3-1.7
			c0-0.6,0.1-1.3,0.4-1.8c0.3-0.6,0.7-1.1,1.3-1.5c0.5-0.4,1.2-0.7,1.9-0.9c0.7-0.2,1.6-0.3,2.6-0.3c0.8,0,1.5,0,2.1,0.1
			c0.6,0.1,1.1,0.2,1.6,0.3L40.6,6v4.5l-1.3-0.4c-0.6-0.2-1.2-0.3-1.8-0.4c-0.5-0.1-1.1-0.1-1.6-0.1c-0.5,0-0.8,0.1-0.9,0.2
			c0,0,0,0,0,0c-0.1,0,0,0,0,0.1c0.1,0.1,0.3,0.2,0.7,0.3c0.3,0.1,0.8,0.3,1.4,0.4c0.7,0.2,1.4,0.4,1.9,0.7c0.6,0.3,1,0.6,1.4,0.9
			c0.4,0.4,0.7,0.8,0.9,1.3c0.2,0.5,0.2,1,0.2,1.6c0,0.9-0.2,1.6-0.6,2.3c-0.4,0.6-0.9,1.1-1.5,1.5c-0.6,0.4-1.3,0.6-2,0.8
			C36.7,19.8,35.9,19.8,35.2,19.8z"/>
		<path d="M36.1,6.4c0.8,0,1.4,0,2,0.1s1.1,0.2,1.5,0.3v2.3c-0.7-0.2-1.3-0.4-1.9-0.5s-1.2-0.1-1.8-0.1s-1.1,0.1-1.4,0.3
			s-0.5,0.5-0.5,0.9c0,0.2,0,0.3,0.1,0.5s0.2,0.3,0.4,0.4s0.5,0.3,0.9,0.4s0.9,0.3,1.5,0.5c0.7,0.2,1.3,0.4,1.7,0.6s0.8,0.5,1.1,0.8
			s0.5,0.6,0.6,1s0.2,0.8,0.2,1.2c0,0.7-0.2,1.3-0.5,1.7s-0.7,0.9-1.2,1.2s-1.1,0.5-1.7,0.7s-1.3,0.2-1.9,0.2c-0.9,0-1.7,0-2.4-0.1
			s-1.4-0.2-2-0.4v-2.6c0.7,0.3,1.5,0.5,2.2,0.7s1.4,0.2,2.1,0.2c0.8,0,1.3-0.1,1.7-0.4s0.6-0.5,0.6-0.9c0-0.2,0-0.3-0.1-0.5
			s-0.2-0.3-0.4-0.4s-0.5-0.3-0.9-0.4s-0.9-0.3-1.5-0.5c-0.6-0.2-1.1-0.3-1.5-0.6s-0.8-0.5-1.1-0.7s-0.5-0.6-0.7-1s-0.2-0.8-0.2-1.3
			c0-0.5,0.1-0.9,0.3-1.4s0.5-0.8,1-1.1s1-0.6,1.6-0.8S35.2,6.4,36.1,6.4 M36.1,4.4c-1.1,0-2,0.1-2.8,0.4C32.3,5,31.6,5.4,31,5.8
			c-0.7,0.5-1.2,1.1-1.6,1.8c-0.4,0.7-0.5,1.5-0.5,2.3c0,0.7,0.1,1.4,0.4,2c0.2,0.5,0.4,0.9,0.7,1.2l-1.1-0.4v3v2.6v1.6l1.5,0.4
			c0.7,0.2,1.5,0.3,2.2,0.4c0.8,0.1,1.7,0.1,2.6,0.1c0.8,0,1.6-0.1,2.4-0.3c0.8-0.2,1.6-0.5,2.3-0.9c0.8-0.5,1.4-1.1,1.9-1.8
			c0.5-0.8,0.8-1.7,0.8-2.8c0-0.7-0.1-1.3-0.3-1.9c-0.2-0.5-0.4-1-0.8-1.4l0.2,0.1V9.1V6.8V5.1L40,4.8c-0.5-0.1-1.1-0.2-1.7-0.3
			C37.6,4.4,36.9,4.4,36.1,4.4L36.1,4.4z"/>
	</g>
	<g>
		<path class="st0" d="M49.2,19.8c-1,0-2-0.1-2.8-0.4c-0.9-0.3-1.6-0.8-2.2-1.4c-0.6-0.6-1.1-1.4-1.4-2.2c-0.3-0.8-0.5-1.8-0.5-2.9
			c0-1.1,0.2-2.1,0.5-3c0.3-0.9,0.7-1.7,1.3-2.4c0.6-0.7,1.3-1.2,2.1-1.6C47.1,5.6,48,5.4,49,5.4c1,0,1.8,0.2,2.6,0.5
			c0.8,0.3,1.4,0.8,2,1.3c0.5,0.6,0.9,1.3,1.2,2c0.3,0.8,0.4,1.6,0.4,2.5c0,0.2,0,0.5,0,0.8c0,0.3,0,0.6-0.1,0.9l-0.1,0.9h-7.6
			c0,0,0,0,0,0c0.1,0.3,0.2,0.5,0.4,0.6c0.2,0.2,0.4,0.3,0.7,0.4c0.3,0.1,0.7,0.2,1,0.2c0.5,0,1.1,0,1.7-0.1
			c0.6-0.1,1.3-0.2,1.9-0.4l1.3-0.4V19l-0.7,0.2c-0.3,0.1-0.7,0.2-1.1,0.3c-0.4,0.1-0.8,0.1-1.1,0.2c-0.4,0.1-0.8,0.1-1.2,0.1
			C50,19.8,49.6,19.8,49.2,19.8z M50.1,10.3c-0.1-0.2-0.2-0.3-0.2-0.4c-0.1-0.1-0.2-0.2-0.4-0.3c-0.2-0.1-0.4-0.1-0.6-0.1
			c-0.4,0-0.8,0.1-1,0.4c-0.1,0.1-0.2,0.2-0.2,0.3H50.1z"/>
		<path d="M49,6.4c0.8,0,1.6,0.1,2.2,0.4s1.2,0.6,1.6,1.1s0.8,1,1,1.7s0.3,1.4,0.3,2.1c0,0.2,0,0.4,0,0.8s0,0.6-0.1,0.9h-7.8
			c0,0.5,0.1,1,0.2,1.4s0.4,0.7,0.7,1s0.6,0.5,1.1,0.6s0.9,0.2,1.4,0.2c0.6,0,1.2,0,1.9-0.1s1.3-0.2,2.1-0.4v2.3
			c-0.3,0.1-0.6,0.2-1,0.2s-0.7,0.1-1.1,0.2s-0.8,0.1-1.1,0.1s-0.8,0-1.1,0c-0.9,0-1.7-0.1-2.4-0.4s-1.3-0.6-1.8-1.1
			s-0.9-1.1-1.1-1.9s-0.4-1.6-0.4-2.6c0-1,0.1-1.8,0.4-2.6s0.6-1.5,1.1-2s1.1-1,1.8-1.3S48.2,6.4,49,6.4 M46.4,11.3h4.9
			c0-0.5-0.1-0.9-0.2-1.2s-0.3-0.6-0.5-0.9s-0.5-0.4-0.8-0.5S49.3,8.5,49,8.5c-0.7,0-1.3,0.2-1.8,0.7S46.5,10.4,46.4,11.3 M49,4.4
			c-1.1,0-2.2,0.2-3.1,0.6c-1,0.4-1.8,1-2.5,1.8c-0.6,0.8-1.2,1.7-1.5,2.7c-0.3,1-0.5,2.1-0.5,3.3c0,1.2,0.2,2.3,0.5,3.3
			c0.4,1,0.9,1.9,1.6,2.6c0.7,0.7,1.6,1.3,2.6,1.6c0.9,0.3,2,0.5,3.1,0.5c0.4,0,0.8,0,1.3,0c0.4,0,0.9-0.1,1.3-0.1
			c0.4-0.1,0.8-0.1,1.2-0.2c0.4-0.1,0.8-0.2,1.2-0.3l1.5-0.4v-1.5V16v-0.6H56l0.2-1.8c0-0.3,0-0.6,0.1-1c0-0.3,0-0.6,0-0.8
			c0-1-0.2-1.9-0.5-2.8C55.4,8,55,7.2,54.3,6.5c-0.6-0.7-1.4-1.2-2.3-1.6C51.1,4.6,50.1,4.4,49,4.4L49,4.4z"/>
	</g>
	<g>
		<path class="st0" d="M64.4,19.6v-9c-0.1,0.1-0.1,0.3-0.2,0.5v8.5h-4.4v-9c-0.1,0.1-0.1,0.3-0.2,0.5v8.5h-4.5V5.7h4.1l0,0.1
			c0.1-0.1,0.3-0.1,0.5-0.2c0.3-0.1,0.7-0.2,1.1-0.2c0.9,0,1.7,0.3,2.2,0.8c0,0,0.1,0.1,0.1,0.1c0.1-0.1,0.2-0.2,0.3-0.3
			c0.3-0.2,0.6-0.4,1-0.5c0.3-0.1,0.7-0.1,1.1-0.1c1.5,0,2.3,0.7,2.7,1.3c0.5,0.8,0.8,1.8,0.8,3.3v9.5H64.4z"/>
		<path d="M65.4,6.4c0.9,0,1.5,0.3,1.9,0.9s0.6,1.5,0.6,2.7v8.5h-2.5v-8.1c0-0.3,0-0.6,0-0.8s0-0.4-0.1-0.6s-0.1-0.3-0.2-0.3
			s-0.2-0.1-0.4-0.1c-0.2,0-0.5,0.2-0.7,0.5s-0.5,0.9-0.8,1.7v7.7h-2.4v-8.1c0-0.3,0-0.6,0-0.8s0-0.4-0.1-0.6s-0.1-0.3-0.2-0.3
			s-0.2-0.1-0.4-0.1c-0.2,0-0.4,0.2-0.7,0.5s-0.5,0.9-0.8,1.7v7.7h-2.5V6.7h2.1l0,1.7c0.2-0.4,0.3-0.7,0.5-0.9s0.4-0.5,0.6-0.6
			s0.4-0.3,0.6-0.3s0.5-0.1,0.8-0.1c0.7,0,1.2,0.2,1.5,0.5s0.5,0.8,0.6,1.4C63,8,63.2,7.7,63.4,7.5S63.8,7,64,6.9s0.4-0.3,0.6-0.3
			S65.1,6.4,65.4,6.4 M65.4,4.4c-0.5,0-0.9,0.1-1.4,0.2c-0.3,0.1-0.7,0.3-1,0.4c-0.5-0.3-1.3-0.6-2.3-0.6c-0.5,0-0.9,0.1-1.4,0.2
			c0,0-0.1,0-0.1,0h-1h-2.1h-2v2v11.9v2h2h2.5h2h0.2h2.4h2h0.2h2.5h2v-2V10c0-1.6-0.3-2.9-1-3.8C68.2,5,66.9,4.4,65.4,4.4L65.4,4.4z
			"/>
	</g>
	<g>
		<path class="st0" d="M74.8,19.8c-0.9,0-1.8-0.1-2.6-0.2c-0.8-0.1-1.6-0.3-2.3-0.6l-0.7-0.2V1h4.9v4.9l0,0.1
			c0.7-0.4,1.5-0.6,2.5-0.6c0.9,0,1.6,0.2,2.3,0.5c0.7,0.4,1.3,0.9,1.7,1.5c0.4,0.6,0.8,1.4,1,2.2c0.2,0.8,0.3,1.7,0.3,2.7
			c0,1.2-0.2,2.3-0.5,3.2c-0.4,0.9-0.9,1.7-1.5,2.3c-0.7,0.6-1.4,1.1-2.3,1.4C76.7,19.6,75.8,19.8,74.8,19.8z M74.1,15.5
			c0.3,0,0.6,0.1,0.9,0.1c0.3,0,0.6-0.1,0.8-0.2c0.2-0.1,0.4-0.3,0.6-0.5c0.2-0.2,0.3-0.6,0.4-0.9c0.1-0.4,0.2-0.9,0.2-1.4
			c0-0.6,0-1.1-0.1-1.5c-0.1-0.3-0.2-0.6-0.3-0.8c-0.1-0.1-0.2-0.2-0.3-0.3c-0.1-0.1-0.2-0.1-0.4-0.1c-0.2,0-0.5,0.1-0.7,0.3
			c-0.3,0.3-0.7,0.7-1.1,1.2L74.1,15.5z"/>
		<path d="M73.1,2v3.9L73,8.2c0.4-0.6,0.9-1,1.5-1.3s1.3-0.5,2.1-0.5c0.7,0,1.3,0.1,1.9,0.4s1,0.7,1.4,1.2s0.7,1.1,0.8,1.9
			s0.3,1.6,0.3,2.5c0,1.1-0.2,2-0.5,2.8s-0.7,1.5-1.3,2s-1.2,0.9-2,1.2s-1.6,0.4-2.4,0.4c-0.9,0-1.7-0.1-2.4-0.2s-1.5-0.3-2.1-0.5V2
			H73.1 M74.9,16.5c0.5,0,0.9-0.1,1.2-0.3s0.7-0.5,0.9-0.8s0.5-0.8,0.6-1.3s0.2-1.1,0.2-1.7c0-0.7,0-1.2-0.1-1.7s-0.2-0.8-0.4-1.1
			S77,9.2,76.8,9s-0.5-0.2-0.9-0.2c-0.5,0-0.9,0.2-1.4,0.6s-0.9,0.9-1.4,1.6v5.2c0.2,0.1,0.5,0.2,0.8,0.2S74.6,16.5,74.9,16.5
			 M75.1,0h-2h-2.9h-2v2v16.1v1.5l1.4,0.4c0.8,0.2,1.6,0.4,2.4,0.6c0.9,0.1,1.8,0.2,2.8,0.2c1.1,0,2.1-0.2,3.1-0.5
			c1-0.3,1.9-0.9,2.7-1.6c0.8-0.7,1.4-1.6,1.8-2.7c0.4-1,0.6-2.2,0.6-3.6c0-1.1-0.1-2.1-0.4-3c-0.3-1-0.6-1.8-1.2-2.5
			c-0.6-0.8-1.3-1.4-2.1-1.8c-0.8-0.4-1.8-0.6-2.8-0.6c-0.5,0-1,0.1-1.5,0.2V2V0L75.1,0z M75.1,11.7c0.2-0.3,0.5-0.5,0.7-0.7
			c0,0.1,0,0.2,0.1,0.3c0.1,0.3,0.1,0.8,0.1,1.3c0,0.4,0,0.8-0.1,1.1c-0.1,0.3-0.2,0.5-0.3,0.6c-0.1,0.1-0.2,0.2-0.3,0.2
			c0,0-0.1,0-0.2,0.1V11.7L75.1,11.7z"/>
	</g>
	<g>
		<polygon class="st0" points="82.5,19.6 82.5,15.3 86.3,15.3 86.3,5.2 82.9,5.2 82.9,1 91.2,1 91.2,15.3 94.6,15.3 94.6,19.6 		"/>
		<path d="M90.2,2v14.3h3.4v2.2H83.5v-2.2h3.8V4.2h-3.4V2H90.2 M92.2,0h-2h-6.3h-2v2v2.2v2h2h1.4v8.1h-1.8h-2v2v2.2v2h2h10.1h2v-2
			v-2.2v-2h-2h-1.4V2V0L92.2,0z"/>
	</g>
	<g>
		<path class="st0" d="M97,24.5c-0.2,0-0.5,0-0.7,0c-0.3,0-0.5-0.1-0.8-0.1l-0.8-0.1v-4.5l1.5,0.2c0.1,0,0.2,0,0.3,0
			c0.1,0,0.2,0,0.4,0c0.1,0,0.2,0,0.3,0c0.2,0,0.4,0,0.5-0.1c0.2-0.1,0.3-0.2,0.5-0.3c0.2-0.2,0.3-0.4,0.5-0.6
			c0.1-0.2,0.2-0.3,0.3-0.5L93.8,5.7h5.4l2.5,6.9l2.5-6.9h5.2l-4.7,12c-0.4,1.1-0.9,2-1.4,2.8c-0.5,0.9-1.1,1.6-1.7,2.2
			c-0.6,0.6-1.3,1.1-2.1,1.4C98.8,24.3,97.9,24.5,97,24.5z"/>
		<path d="M108,6.7l-4.2,10.6c-0.4,1-0.8,1.9-1.3,2.7s-0.9,1.4-1.5,1.9s-1.1,0.9-1.8,1.2s-1.4,0.4-2.2,0.4c-0.2,0-0.4,0-0.6,0
			s-0.5,0-0.7-0.1v-2.4c0.1,0,0.2,0,0.3,0.1s0.2,0,0.4,0s0.3,0,0.4,0s0.3,0,0.4,0c0.3,0,0.6-0.1,0.9-0.2s0.5-0.3,0.8-0.5
			s0.5-0.5,0.7-0.8s0.4-0.6,0.5-1L95.3,6.7h3.2l2.5,6.8l0.7,2.2l0.7-2.1l2.5-6.8H108 M110.9,4.7H108h-3.1h-1.4L103,6l-1.3,3.7
			L100.3,6l-0.5-1.3h-1.4h-3.2h-2.9l1.1,2.7l4.4,11.1c0,0,0,0,0,0c-0.1,0.2-0.2,0.3-0.3,0.4c-0.1,0.1-0.1,0.1-0.2,0.2c0,0,0,0-0.1,0
			c-0.1,0-0.2,0-0.3,0c-0.1,0-0.2,0-0.3,0c-0.1,0-0.2,0-0.2,0L96,19l-2.3-0.4v2.4v2.4v1.7l1.7,0.3c0.3,0,0.6,0.1,0.9,0.1
			c0.3,0,0.6,0,0.8,0c1.1,0,2.1-0.2,3-0.5c0.9-0.4,1.7-0.9,2.4-1.6c0.7-0.6,1.3-1.4,1.8-2.4c0.5-0.9,1-1.9,1.4-3l4.2-10.6L110.9,4.7
			L110.9,4.7z"/>
	</g>
</g>
</svg>
