<?xml version="1.0" encoding="UTF-8"?><svg id="b" xmlns="http://www.w3.org/2000/svg" xmlns:xlink="http://www.w3.org/1999/xlink" viewBox="0 0 244.9 81.9"><defs><style>.y{fill:#b7b7b7;}.z{fill:url(#j);}.aa{fill:url(#p);}.ab{fill:url(#m);}.ac{fill:#fff;}.ad{fill:url(#r);}.ae{fill:url(#h);}.af{fill:url(#t);}.ag{fill:url(#i);}.ah{fill:url(#l);}.ai{fill:url(#s);}.aj{fill:url(#q);}.ak{fill:url(#f);}.al{fill:url(#g);}.am{fill:#3f5770;}.an{fill:url(#n);}.ao{fill:url(#e);}.ap{fill:url(#v);}.aq{fill:url(#o);}.ar{fill:url(#d);}.as{fill:url(#x);}.at{fill:url(#u);}.au{fill:url(#w);}.av{fill:#f3f3f3;}.aw{fill:url(#k);}</style><linearGradient id="d" x1="280.2" y1="406.9" x2="282.1" y2="419.3" gradientTransform="translate(-816 1641.2) scale(2.9 -3.9)" gradientUnits="userSpaceOnUse"><stop offset="0" stop-color="#cfd0d1"/><stop offset="1" stop-color="#dbdbdb"/></linearGradient><linearGradient id="e" x1="528.6" y1="408.9" x2="530.5" y2="421.2" gradientTransform="translate(2207.1 1607) rotate(-180) scale(4 3.8)" xlink:href="#d"/><linearGradient id="f" x1="-2693.7" y1="1291.6" x2="-2670.8" y2="1307.3" gradientTransform="translate(570.3 281.6) scale(.2 -.2)" gradientUnits="userSpaceOnUse"><stop offset="0" stop-color="#dbdbdb"/><stop offset="1" stop-color="#f3f3f3"/></linearGradient><linearGradient id="g" x1="1360.8" y1="1286.6" x2="1377.1" y2="1310.1" gradientTransform="translate(357.8 281.4) rotate(-180) scale(.2)" xlink:href="#f"/><linearGradient id="h" x1="1355.7" y1="-1486.5" x2="1378.6" y2="-1470.8" gradientTransform="translate(357.8 375.6) rotate(-180) scale(.2 -.2)" gradientUnits="userSpaceOnUse"><stop offset="0" stop-color="#cfd0d1"/><stop offset="1" stop-color="#b7b7b7"/></linearGradient><linearGradient id="i" x1="-2687.2" y1="-1482.9" x2="-2664.3" y2="-1467.2" gradientTransform="translate(570.3 375.4) scale(.2)" xlink:href="#h"/><linearGradient id="j" x1="528.6" y1="408.9" x2="530.5" y2="421.2" gradientTransform="translate(2287.1 1606.8) rotate(-180) scale(4 3.8)" xlink:href="#d"/><linearGradient id="k" x1="-2693.7" y1="1291.6" x2="-2670.8" y2="1307.3" gradientTransform="translate(650.2 281.6) scale(.2 -.2)" xlink:href="#f"/><linearGradient id="l" x1="1360" y1="1287.2" x2="1376.3" y2="1310.7" gradientTransform="translate(437.9 281.4) rotate(-180) scale(.2)" xlink:href="#f"/><linearGradient id="m" x1="528.6" y1="408.9" x2="530.5" y2="421.2" gradientTransform="translate(2367.1 1606.8) rotate(-180) scale(4 3.8)" xlink:href="#d"/><linearGradient id="n" x1="-2689.9" y1="1286.1" x2="-2667" y2="1301.8" gradientTransform="translate(730.2 281.6) scale(.2 -.2)" xlink:href="#f"/><linearGradient id="o" x1="1360" y1="1287.2" x2="1376.3" y2="1310.7" gradientTransform="translate(517.9 281.4) rotate(-180) scale(.2)" xlink:href="#f"/><linearGradient id="p" x1="1355.7" y1="-1486.5" x2="1378.6" y2="-1470.8" gradientTransform="translate(437.9 375.6) rotate(-180) scale(.2 -.2)" xlink:href="#h"/><linearGradient id="q" x1="-2684.9" y1="-1486.2" x2="-2662" y2="-1470.6" gradientTransform="translate(730.2 375.4) scale(.2)" xlink:href="#h"/><linearGradient id="r" x1="1355.7" y1="-1486.5" x2="1378.6" y2="-1470.8" gradientTransform="translate(517.9 375.6) rotate(-180) scale(.2 -.2)" xlink:href="#h"/><linearGradient id="s" x1="-2687.9" y1="-1481.8" x2="-2665" y2="-1466.2" gradientTransform="translate(650.2 375.4) scale(.2)" xlink:href="#h"/><linearGradient id="t" x1="300.1" y1="405.6" x2="301.9" y2="417.9" gradientTransform="translate(-935.5 1665.8) scale(3.4 -4)" xlink:href="#d"/><linearGradient id="u" x1="313.7" y1="414.7" x2="321.9" y2="414.7" gradientTransform="translate(-1098.5 1606.9) scale(3.8 -3.8)" gradientUnits="userSpaceOnUse"><stop offset="0" stop-color="#f4f5f7"/><stop offset="1" stop-color="#e9eaeb"/></linearGradient><linearGradient id="v" x1="303.4" y1="406.3" x2="305.3" y2="418.7" gradientTransform="translate(-895.3 1651.8) scale(3.5 -3.9)" xlink:href="#d"/><linearGradient id="w" x1="313.7" y1="414.7" x2="321.9" y2="414.7" gradientTransform="translate(-1017.3 1606.9) scale(3.8 -3.8)" xlink:href="#u"/><linearGradient id="x" x1="313.3" y1="414.7" x2="321.5" y2="414.7" gradientTransform="translate(-1174.5 1606.9) scale(3.8 -3.8)" xlink:href="#u"/></defs><g id="c"><g><g><rect x="3" y="3" width="78.9" height="75.9" rx="8.7" ry="8.7"/><path class="ac" d="M73.2,6c3.1,0,5.7,2.5,5.7,5.7v58.5c0,3.1-2.5,5.7-5.7,5.7H11.7c-3.1,0-5.7-2.5-5.7-5.7V11.7c0-3.1,2.5-5.7,5.7-5.7h61.5m0-6H11.7C5.2,0,0,5.2,0,11.7v58.5c0,6.4,5.2,11.7,11.7,11.7h61.5c6.4,0,11.7-5.2,11.7-11.7V11.7c0-6.4-5.2-11.7-11.7-11.7h0Z"/></g><g><rect x="82.9" y="3" width="79" height="75.9" rx="8.7" ry="8.7"/><path class="ac" d="M153.2,6c3.1,0,5.7,2.5,5.7,5.7v58.5c0,3.1-2.5,5.7-5.7,5.7h-61.6c-3.1,0-5.7-2.5-5.7-5.7V11.7c0-3.1,2.5-5.7,5.7-5.7h61.6m0-6h-61.6c-6.4,0-11.7,5.2-11.7,11.7v58.5c0,6.4,5.2,11.7,11.7,11.7h61.6c6.4,0,11.7-5.2,11.7-11.7V11.7c0-6.4-5.2-11.7-11.7-11.7h0Z"/></g><g><rect x="162.9" y="3" width="79" height="75.9" rx="8.7" ry="8.7"/><path class="ac" d="M233.2,6c3.1,0,5.7,2.5,5.7,5.7v58.5c0,3.1-2.5,5.7-5.7,5.7h-61.6c-3.1,0-5.7-2.5-5.7-5.7V11.7c0-3.1,2.5-5.7,5.7-5.7h61.6m0-6h-61.6c-6.4,0-11.7,5.2-11.7,11.7v58.5c0,6.4,5.2,11.7,11.7,11.7h61.6c6.4,0,11.7-5.2,11.7-11.7V11.7c0-6.4-5.2-11.7-11.7-11.7h0Z"/></g></g><g><rect class="ar" x="6" y="14.8" width="5.5" height="48.7"/><rect class="ao" x="71.3" y="15" width="7.6" height="46.8"/><rect class="av" x="12.4" y="6" width="56.6" height="3.9"/><path class="ak" d="M10.9,16.8l-4.9-1.6v-3.8c.2-3.5,3.2-5.4,5.5-5.4h1s1.8,7,1.8,7l-3.4,3.8Z"/><path class="al" d="M71.6,19.9l7.3-4.6v-4.1c-.2-1.9-1.7-5-5.5-5.2h-5.1s-1.7,8.5-1.7,8.5l5,5.4Z"/><path class="ae" d="M70.5,59.9l8.4,1.6v9.2c-.2,1.9-1.7,5-5.5,5.2h-4.5l-1.5-8.3,3.1-7.7Z"/><path class="ag" d="M14.4,61.7l-8.4-.4v9.2c.2,3.5,3.2,5.4,5.5,5.4h4.6l1.8-8.1-3.5-6.1Z"/><rect class="y" x="15.9" y="62.9" width="53.1" height="13"/><rect class="z" x="151.3" y="14.7" width="7.6" height="46.8"/><rect class="av" x="92.4" y="6" width="56.1" height="4.5"/><path class="aw" d="M90.9,16.8l-4.9-1.6v-3.8c.2-3.5,3.2-5.4,5.5-5.4h1s1.8,7,1.8,7l-3.4,3.8Z"/><path class="ah" d="M151.6,19.9l7.3-4.6v-4.1c-.2-1.9-1.7-5-5.5-5.2h-5.1s-.1,10.1-.1,10.1l3.4,3.8Z"/><rect class="ab" x="231.3" y="14.7" width="7.6" height="46.8"/><rect class="av" x="172.4" y="6" width="56.1" height="5.8"/><path class="an" d="M172.4,19l-6.5-3.9v-3.8c.2-3.5,3.2-5.4,5.5-5.4h1s1.8,7,1.8,7l-1.8,6Z"/><path class="aq" d="M231.6,19.9l7.3-4.6v-4.1c-.2-1.9-1.7-5-5.5-5.2h-5.1s-.1,10.1-.1,10.1l3.4,3.8Z"/><path class="aa" d="M150.5,59.9l8.4,1.6v9.2c-.2,1.9-1.7,5-5.5,5.2h-4.5l-1.8-12.2,3.4-3.8Z"/><path class="aj" d="M174.4,59.7l-8.4,1.6v9.2c.2,3.5,3.2,5.4,5.5,5.4h4.6l1.8-12.4-3.4-3.8Z"/><path class="ad" d="M230.5,59.9l8.4,1.6v9.2c-.2,1.9-1.7,5-5.5,5.2h-4.5l-1.8-12.2,3.4-3.8Z"/><path class="ai" d="M94.2,62.2l-8.2-.9v9.2c.2,3.5,3.2,5.4,5.5,5.4h4.6l3.8-9.5-5.7-4.1Z"/><rect class="y" x="96" y="62.9" width="53.8" height="13"/><rect class="af" x="85.9" y="14.5" width="6.4" height="49"/><rect class="at" x="91.4" y="9.4" width="62" height="60.5" rx="4.9" ry="4.9"/><rect class="y" x="175.2" y="62.9" width="54.8" height="13"/><rect class="ap" x="165.9" y="14.5" width="6.6" height="48.5"/><rect class="au" x="172.4" y="9.4" width="62" height="60.5" rx="4.9" ry="4.9"/><rect class="as" x="9.8" y="9.4" width="61.8" height="60.5" rx="4.9" ry="4.9"/></g><g><path d="M28.9,58l1.5,4.5h2.3l-5.5-15.3h-2.3l-5.8,15.3h2.1l1.6-4.5h6.1Zm-5.5-1.8l2.5-6.7h0l2.3,6.7h-4.8Z"/><path d="M112.4,53.6h-8v-6.3h-2.1v15.3h2.1v-7.1h8v7.1h2.1v-15.3h-2.1v6.3Z"/><path d="M184.5,57.1l2.4-2.3,5.4,7.7h2.7l-6.5-9.1,6.4-6.2h-2.9l-7.4,7.4v-7.4h-2.1v15.3h2.1v-5.4Z"/></g><g><path class="am" d="M30.2,33l3.1,9.2h4L27.4,13.1h-4.5l-9.9,29.1h3.9l3-9.2h10.3Zm-9.5-2.9l2.9-8.4c.6-1.8,1-3.5,1.5-5.3h0c.4,1.7,.9,3.4,1.5,5.3l2.9,8.4h-8.8Z"/><path class="am" d="M58.9,21.3h-3.8v12.8c0,.7-.1,1.4-.3,1.9-.7,1.7-2.5,3.5-5,3.5s-4.7-2.7-4.7-6.7v-11.6h-3.8v12.2c0,7.3,3.9,9.2,7.2,9.2s5.9-2.2,6.9-3.9h0l.2,3.4h3.4c-.1-1.6-.2-3.5-.2-5.7v-15.2Z"/><path class="am" d="M66.6,17.5v3.8h-3.2v2.9h3.2v11.4c0,2.5,.4,4.3,1.5,5.4,.9,1,2.3,1.6,4.1,1.6s2.6-.3,3.4-.6l-.2-2.9c-.6,.2-1.2,.3-2.2,.3-2.1,0-2.9-1.5-2.9-4.1v-11.3h5.4v-2.9h-5.4v-5l-3.7,1.2Z"/><path class="am" d="M89.1,20.8c-5.8,0-10.4,4.1-10.4,11.1s4.4,10.8,10,10.8,10.4-3.4,10.4-11.1-4.1-10.8-10.1-10.8h0Zm0,2.9c4.5,0,6.3,4.5,6.3,8s-2.7,8.1-6.4,8.1-6.4-3.5-6.4-8,1.9-8.1,6.4-8.1h0Z"/><path class="am" d="M104.5,13.1v29.1h3.8v-13.7h14.1v13.7h3.8V13.1h-3.8v12.2h-14.1V13.1h-3.8Z"/><path class="am" d="M141.9,20.8c-5.8,0-10.4,4.1-10.4,11.1s4.4,10.8,10,10.8,10.4-3.4,10.4-11.1-4.1-10.8-10.1-10.8h0Zm0,2.9c4.5,0,6.3,4.5,6.3,8s-2.7,8.1-6.4,8.1-6.4-3.5-6.4-8,1.9-8.1,6.4-8.1h0Z"/><path class="am" d="M158.2,17.5v3.8h-3.2v2.9h3.2v11.4c0,2.5,.4,4.3,1.5,5.4,.9,1,2.3,1.6,4.1,1.6s2.6-.3,3.4-.6l-.2-2.9c-.6,.2-1.2,.3-2.2,.3-2.1,0-2.9-1.5-2.9-4.1v-11.3h5.4v-2.9h-5.4v-5l-3.7,1.2Z"/><path class="am" d="M175.8,11.5h-3.8v30.7h3.8v-7.9l1.9-2.2,7.2,10h4.6l-9.2-12.3,8.1-8.6h-4.6l-6.1,7.2c-.6,.7-1.3,1.6-1.9,2.4h0V11.5Z"/><path class="am" d="M209.6,32.4c0-.4,.1-1,.1-1.8,0-3.8-1.8-9.8-8.6-9.8s-9.8,5-9.8,11.3,3.8,10.6,10.3,10.6,5.6-.7,7-1.3l-.6-2.7c-1.4,.6-3.1,1.1-5.8,1.1s-7.1-2.1-7.2-7.3h14.7Zm-14.6-2.7c.3-2.6,2-6.2,5.8-6.2s5.3,3.8,5.3,6.2h-11.1Z"/><path class="am" d="M212.2,21.3l7.7,19.3c.2,.5,.3,.8,.3,1s-.1,.5-.3,.9c-.9,1.9-2.2,3.4-3.2,4.2-1.1,1-2.4,1.6-3.3,1.9l1,3.2c1-.2,2.8-.8,4.7-2.5,2.6-2.2,4.4-5.9,7.2-13.1l5.7-14.9h-4l-4.1,12.3c-.5,1.5-1,3.1-1.3,4.4h0c-.3-1.3-.9-2.9-1.3-4.3l-4.6-12.4h-4.1Z"/></g></g></svg>