<?xml version="1.0" encoding="UTF-8"?><svg id="b" xmlns="http://www.w3.org/2000/svg" xmlns:xlink="http://www.w3.org/1999/xlink" viewBox="0 0 2010.8 408"><defs><style>.o{fill:url(#j);}.p{fill:url(#m);}.q{fill:#fff;}.r{fill:url(#h);}.s{fill:url(#i);}.t{fill:url(#l);}.u{fill:url(#f);}.v{fill:url(#g);}.w{fill:url(#n);}.x{fill:url(#d);}.y{fill:url(#k);}.z{fill:url(#e);stroke:#fff;}</style><linearGradient id="d" x1="51.6" y1="1483.3" x2="499" y2="1128.2" gradientTransform="translate(0 1525) scale(1 -1)" gradientUnits="userSpaceOnUse"><stop offset="0" stop-color="#9013fe"/><stop offset="1" stop-color="#6610f2"/></linearGradient><linearGradient id="e" x1="189.1" y1="1412.7" x2="289.2" y2="1243.5" gradientTransform="translate(0 1525) scale(1 -1)" gradientUnits="userSpaceOnUse"><stop offset="0" stop-color="#fff"/><stop offset="1" stop-color="#f1e5fc"/></linearGradient><linearGradient id="f" x1="506.6" y1="265.1" x2="719.4" y2="96.1" gradientTransform="matrix(1, 0, 0, 1, 0, 0)" xlink:href="#d"/><linearGradient id="g" x1="756.3" y1="272.8" x2="911.2" y2="149.9" gradientTransform="matrix(1, 0, 0, 1, 0, 0)" xlink:href="#d"/><linearGradient id="h" x1="950" y1="272.8" x2="1104.8" y2="149.9" gradientTransform="matrix(1, 0, 0, 1, 0, 0)" xlink:href="#d"/><linearGradient id="i" x1="1120.9" y1="248.7" x2="1264.6" y2="134.6" gradientTransform="matrix(1, 0, 0, 1, 0, 0)" xlink:href="#d"/><linearGradient id="j" x1="1238.7" y1="279.7" x2="1406.3" y2="146.7" gradientTransform="matrix(1, 0, 0, 1, 0, 0)" xlink:href="#d"/><linearGradient id="k" x1="1395.2" y1="248.7" x2="1539" y2="134.6" gradientTransform="matrix(1, 0, 0, 1, 0, 0)" xlink:href="#d"/><linearGradient id="l" x1="1502.9" y1="264.3" x2="1676.8" y2="126.3" gradientTransform="matrix(1, 0, 0, 1, 0, 0)" xlink:href="#d"/><linearGradient id="m" x1="1662.1" y1="285" x2="1821.9" y2="158.1" gradientTransform="matrix(1, 0, 0, 1, 0, 0)" xlink:href="#d"/><linearGradient id="n" x1="1776.6" y1="312.8" x2="1993.5" y2="140.7" gradientTransform="matrix(1, 0, 0, 1, 0, 0)" xlink:href="#d"/></defs><g id="c"><g><path class="x" d="M56.5,53.3C55.5,25.6,77.1,0,106.3,0H405.7c29.2,0,50.8,25.6,49.9,53.3-.9,26.6,.3,61.2,9,89.3,8.7,28.2,23.4,46.1,47.5,48.4v26c-24.1,2.3-38.8,20.1-47.5,48.4-8.7,28.1-9.9,62.7-9,89.3,1,27.7-20.6,53.3-49.9,53.3H106.3c-29.2,0-50.8-25.6-49.9-53.3,.9-26.6-.3-61.2-9-89.3-8.7-28.2-23.4-46.1-47.5-48.4v-26c24.1-2.3,38.8-20.1,47.5-48.4,8.7-28.1,9.9-62.7,9-89.3Z"/><path class="z" d="M267.1,312.5c47.3,0,75.8-23.2,75.8-61.4s-20.3-49.8-50.5-53.1v-1.2c22.2-3.6,39.6-24.2,39.6-47.2,0-32.8-25.9-54.1-65.3-54.1h-88.7v217h89.2Zm-54.7-189.5h45.9c25,0,39.1,11.1,39.1,31.3s-16.5,33.5-46.4,33.5h-38.7V123Zm0,162v-71.4h45.6c32.7,0,49.6,12,49.6,35.5s-16.5,35.9-47.6,35.9h-47.6Z"/></g><g><g><path class="q" d="M552,64.3h75.3c48.4,0,84,14.8,84,58s-12.1,43.8-32.7,51v1.4c26.1,5.9,45.2,24,45.2,55.9,0,47.1-38.6,69.1-90.4,69.1h-81.4V64.3Zm71.6,97.2c32.8,0,46.8-12.8,46.8-33.3s-15.4-31.4-45.9-31.4h-30.7v64.7h29.8Zm5.5,105.7c34.6,0,53.9-12.4,53.9-38.9s-18.7-35.6-53.9-35.6h-35.3v74.4h35.3Z"/><path class="u" d="M627.3,64.3c48.4,0,84,14.8,84,58s-12.1,43.8-32.7,51v1.4c26.1,5.9,45.2,24,45.2,55.9,0,47.1-38.6,69.1-90.4,69.1h-81.4V64.3h75.3m-33.6,97.2h29.8c32.8,0,46.8-12.8,46.8-33.3s-15.4-31.4-45.9-31.4h-30.7v64.7m0,105.7h35.3c34.6,0,53.9-12.4,53.9-38.9s-18.7-35.6-53.9-35.6h-35.3v74.4m33.6-212.9h-85.3v255.4h91.4c28.7,0,53.1-6.5,70.4-18.7,19.6-13.9,30-34.7,30-60.4s-5.1-32.6-15.3-44.2c-5-5.8-11.3-10.6-18.5-14.4,13.2-11.7,21.2-29.8,21.2-49.7s-2.5-23-7.5-32.1c-4.8-8.8-11.9-16.1-21.1-21.7-15.5-9.5-37.5-14.3-65.3-14.3h0Zm-23.6,52.5h20.7c33.2,0,35.9,10.6,35.9,21.4s0,23.3-36.8,23.3h-19.8v-44.7h0Zm0,95.9h25.3c15.8,0,27.5,2.3,34.7,6.9,6.3,4,9.1,9.8,9.1,18.6s0,28.9-43.9,28.9h-25.3v-54.4h0Z"/></g><g><path class="q" d="M749.7,211.4c0-58.9,40-92.9,84.1-92.9s84.1,34,84.1,92.9-40,92.6-84.1,92.6-84.1-34-84.1-92.6Zm125.6,0c0-35.4-15.6-59-41.5-59s-41.5,23.6-41.5,59,15.6,58.8,41.5,58.8,41.5-23.3,41.5-58.8Z"/><path class="v" d="M833.8,118.6c44.1,0,84.1,34,84.1,92.9s-40,92.6-84.1,92.6-84.1-34-84.1-92.6,40-92.9,84.1-92.9m0,151.6c25.9,0,41.5-23.3,41.5-58.8s-15.6-59-41.5-59-41.5,23.6-41.5,59,15.6,58.8,41.5,58.8m0-161.6c-25.1,0-48.5,9.7-65.7,27.4-18.6,19-28.4,45.1-28.4,75.5s9.8,56.3,28.4,75.3c17.3,17.6,40.6,27.3,65.7,27.3s48.4-9.7,65.7-27.3c18.6-18.9,28.4-45,28.4-75.3s-9.8-56.5-28.4-75.5c-17.3-17.6-40.6-27.4-65.7-27.4h0Zm0,151.6c-9.3,0-16.8-4-22.2-11.8-6-8.7-9.2-21.5-9.2-37,0-23.7,8.3-49,31.5-49s31.5,25.3,31.5,49-3.2,28.3-9.2,37c-5.4,7.8-12.9,11.8-22.2,11.8h0Z"/></g><g><path class="q" d="M943.3,211.4c0-58.9,40-92.9,84.1-92.9s84.1,34,84.1,92.9-40,92.6-84.1,92.6-84.1-34-84.1-92.6Zm125.6,0c0-35.4-15.6-59-41.5-59s-41.5,23.6-41.5,59,15.6,58.8,41.5,58.8,41.5-23.3,41.5-58.8Z"/><path class="r" d="M1027.4,118.6c44.1,0,84.1,34,84.1,92.9s-40,92.6-84.1,92.6-84.1-34-84.1-92.6,40-92.9,84.1-92.9m0,151.6c25.9,0,41.5-23.3,41.5-58.8s-15.6-59-41.5-59-41.5,23.6-41.5,59,15.6,58.8,41.5,58.8m0-161.6c-25.1,0-48.5,9.7-65.7,27.4-18.6,19-28.4,45.1-28.4,75.5s9.8,56.3,28.4,75.3c17.3,17.6,40.6,27.3,65.7,27.3s48.4-9.7,65.7-27.3c18.6-18.9,28.4-45,28.4-75.3s-9.8-56.5-28.4-75.5c-17.3-17.6-40.6-27.4-65.7-27.4h0Zm0,151.6c-9.3,0-16.8-4-22.2-11.8-6-8.7-9.2-21.5-9.2-37,0-23.7,8.3-49,31.5-49s31.5,25.3,31.5,49-3.2,28.3-9.2,37c-5.4,7.8-12.9,11.8-22.2,11.8h0Z"/></g><g><path class="q" d="M1150.9,240.1v-84.2h-25.2v-31.1l27.4-1.9,4.9-48.2h34.4v48.2h45.1v33h-45.1v84.2c0,20.8,8.1,31,25.1,31s13.2-2,18.4-4l7.1,30.5c-9.6,3.2-22,6.5-36.1,6.5-40.8,0-55.9-25.8-55.9-63.9Z"/><path class="s" d="M1192.4,74.6v48.2h45.1v33h-45.1v84.2c0,20.8,8.1,31,25.1,31s13.2-2,18.4-4l7.1,30.5c-9.6,3.2-22,6.5-36.1,6.5-40.8,0-55.9-25.8-55.9-63.9v-84.2h-25.2v-31.1l27.4-1.9,4.9-48.2h34.4m10-10h-53.5l-.9,9-4,39.8-18.9,1.3-9.3,.6v50.4h25.2v74.2c0,22.4,5,40.1,14.8,52.5,11.3,14.2,28.4,21.5,51.1,21.5s29.4-3.7,39.3-7l8.7-2.9-2.1-8.9-7.1-30.5-2.6-11.3-10.8,4.2c-5.3,2.1-11,3.4-14.8,3.4-7.6,0-15.1-1.6-15.1-21v-74.2h45.1v-53h-45.1v-48.2h0Z"/></g><g><path class="q" d="M1253.5,279.4l19.3-26.4c15.7,12.2,30.9,19.7,48.8,19.7s28.4-9.1,28.4-21.2-19.2-21.5-38-28.7c-23.2-8.7-49.7-22-49.7-51.6s24.8-52.8,64.4-52.8,44.4,10,58.8,21.2l-19,25.5c-12.4-9.1-24.8-15.4-38.7-15.4s-26.2,8.5-26.2,19.6,17.9,19.3,37,26.4c23.9,8.9,50.7,20.4,50.7,53.4s-24,54.9-68.7,54.9-49.7-10.4-67-24.6Z"/><path class="o" d="M1326.6,118.6c24.6,0,44.4,10,58.8,21.2l-19,25.5c-12.4-9.1-24.8-15.4-38.7-15.4s-26.2,8.5-26.2,19.6,17.9,19.3,37,26.4c23.9,8.9,50.7,20.4,50.7,53.4s-24,54.9-68.7,54.9-49.7-10.4-67-24.6l19.3-26.4c15.7,12.2,30.9,19.7,48.8,19.7s28.4-9.1,28.4-21.2-19.2-21.5-38-28.7c-23.2-8.7-49.7-22-49.7-51.6s24.8-52.8,64.4-52.8m0-10c-21.6,0-40,6-53.5,17.3-13.5,11.3-20.9,27.5-20.9,45.6s6.6,30.1,19.7,41.2c11.2,9.5,25.4,15.5,36.5,19.7l2.4,.9c13.7,5.2,29.2,11.1,29.2,18.4s-10,11.2-18.4,11.2c-14.1,0-26.8-5.3-42.7-17.6l-8.1-6.3-6.1,8.3-19.3,26.4-5.6,7.6,7.3,6c20.1,16.6,48.2,26.9,73.3,26.9s43.5-6.4,57.6-18.4c13.6-11.6,21.1-28.1,21.1-46.4,0-41.4-35.8-54.8-57.2-62.8-1.5-.6-3-1.1-4.5-1.6-8.1-3-15.8-5.8-20.9-9-5.1-3.2-5.1-5.4-5.1-6.4,0-7.9,8.8-9.6,16.2-9.6s20.1,4.2,32.8,13.5l8,5.9,5.9-7.9,19-25.5,5.9-7.9-7.8-6c-19.9-15.4-41.7-23.3-64.9-23.3h0Z"/></g><g><path class="q" d="M1425.2,240.1v-84.2h-25.2v-31.1l27.4-1.9,4.9-48.2h34.4v48.2h45.1v33h-45.1v84.2c0,20.8,8.1,31,25.1,31s13.2-2,18.4-4l7.1,30.5c-9.6,3.2-22,6.5-36.1,6.5-40.8,0-55.9-25.8-55.9-63.9Z"/><path class="y" d="M1466.7,74.6v48.2h45.1v33h-45.1v84.2c0,20.8,8.1,31,25.1,31s13.2-2,18.4-4l7.1,30.5c-9.6,3.2-22,6.5-36.1,6.5-40.8,0-55.9-25.8-55.9-63.9v-84.2h-25.2v-31.1l27.4-1.9,4.9-48.2h34.4m10-10h-53.5l-.9,9-4,39.8-18.9,1.3-9.3,.6v50.4h25.2v74.2c0,22.4,5,40.1,14.8,52.5,11.3,14.2,28.4,21.5,51.1,21.5s29.4-3.7,39.3-7l8.7-2.9-2.1-8.9-7.1-30.5-2.6-11.3-10.8,4.2c-5.3,2.1-11,3.4-14.8,3.4-7.6,0-15.1-1.6-15.1-21v-74.2h45.1v-53h-45.1v-48.2h0Z"/></g><g><path class="q" d="M1549,122.9h34l3.2,31.5h1.2c12.6-23,31.3-35.9,50.3-35.9s14.7,1.2,20,3.6l-7.2,36c-6.2-1.7-10.8-2.9-18.1-2.9-14.1,0-31.1,9.6-41.8,36.6v107.9h-41.5V122.9Z"/><path class="t" d="M1637.5,118.6c9,0,14.7,1.2,20,3.6l-7.2,36c-6.2-1.7-10.8-2.9-18.1-2.9-14.1,0-31.1,9.6-41.8,36.6v107.9h-41.5V122.9h34l3.2,31.5h1.2c12.6-23,31.3-35.9,50.3-35.9m0-10c-11.5,0-23,3.8-33.3,11.1-3.8,2.7-7.3,5.7-10.7,9.1l-.7-6.9-.9-9h-53v196.8h61.5v-115.9c7.5-17.9,19.3-28.5,31.8-28.5s9.9,1,15.5,2.5l10.4,2.9,2.1-10.6,7.2-36,1.5-7.7-7.2-3.3c-6.9-3.2-14.1-4.5-24.2-4.5h0Z"/></g><g><path class="q" d="M1664.4,252.2c0-37.9,31.4-57.6,104-65.4-.6-19-8.2-34.8-32.1-34.8s-34.1,7.9-49.7,17.4l-15.3-27.6c19.4-12.2,44.5-23.2,72.6-23.2,44.2,0,66,27.2,66,76.5v104.7h-34l-3.2-19.6h-1.2c-15.8,13.5-34,23.9-54.9,23.9-31,0-52.3-21-52.3-51.8Zm104,.1v-39.7c-48,6-63.9,18.6-63.9,36.4s10.7,22.5,25.5,22.5,25.3-7.1,38.4-19.2Z"/><path class="p" d="M1743.9,118.6c44.2,0,66,27.2,66,76.5v104.7h-34l-3.2-19.6h-1.2c-15.8,13.5-34,23.9-54.9,23.9-31,0-52.3-21-52.3-51.8s31.4-57.6,104-65.4c-.6-19-8.2-34.8-32.1-34.8s-34.1,7.9-49.7,17.4l-15.3-27.6c19.4-12.2,44.5-23.2,72.6-23.2m-14,152.9c14.4,0,25.3-7.1,38.4-19.2v-39.7c-48,6-63.9,18.6-63.9,36.4s10.7,22.5,25.5,22.5m14-162.9c-25.6,0-51.9,8.3-77.9,24.7l-8,5,4.6,8.3,15.3,27.6,5.1,9.1,8.9-5.4c12.2-7.4,28.2-16,44.5-16s18,2.1,21.1,16.1c-33,4.3-57.1,11.4-73.5,21.7-19.5,12.3-29.4,29.9-29.4,52.4s6.2,33.4,17.5,44.6c11.2,11.1,27.1,17.3,44.8,17.3s32.4-5.4,48.7-16.6l.6,3.8,1.4,8.4h52.5v-114.7c0-55.8-27-86.5-76-86.5h0Zm-14,152.9c-15.5,0-15.5-8.4-15.5-12.5s1.1-9.1,9.2-14.1c7.3-4.5,19-8.1,34.7-10.8v23.7c-11.4,10-19.1,13.6-28.4,13.6h0Z"/></g><g><path class="q" d="M1839.7,122.9h34l3.2,18.9h1.2c14.9-12.8,33.8-23.2,53.3-23.2,44.2,0,69.6,35.4,69.6,90s-36.1,95.5-75.5,95.5-31.1-7.1-45.5-19.4l1.3,29.4v55.7h-41.5V122.9Zm118.5,86.1c0-35.3-11.5-56.2-38.4-56.2s-24.9,6.5-38.6,19.9v82.4c12.7,10.8,25.2,14.7,35.4,14.7,23.6,0,41.6-20.7,41.6-60.8Z"/><path class="w" d="M1931.2,118.6c44.2,0,69.6,35.4,69.6,90s-36.1,95.5-75.5,95.5-31.1-7.1-45.5-19.4l1.3,29.4v55.7h-41.5V122.9h34l3.2,18.9h1.2c14.9-12.8,33.8-23.2,53.3-23.2m-14.7,151.2c23.6,0,41.6-20.7,41.6-60.8s-11.5-56.2-38.4-56.2-24.9,6.5-38.6,19.9v82.4c12.7,10.8,25.2,14.7,35.4,14.7m14.7-161.2c-18.1,0-34.4,7.4-47.2,16l-.6-3.3-1.4-8.3h-52.4V379.7h61.5v-66.2s-.4-9-.4-9c11.4,6.3,23,9.6,34.6,9.6,23,0,44.3-10.1,60.1-28.6,16.6-19.4,25.4-46,25.4-76.9s-7-54-20.2-71.5c-14.1-18.6-34.6-28.5-59.3-28.5h0Zm-40.1,68.4c10.7-9.8,19.6-14.2,28.6-14.2s28.4,0,28.4,46.2-3.5,30.5-10,39.5c-5.5,7.5-12.7,11.3-21.6,11.3s-15-1.7-25.4-9.5v-73.3h0Z"/></g></g></g></svg>