<?xml version="1.0" encoding="utf-8"?>
<!-- Generator: Adobe Illustrator 26.5.3, SVG Export Plug-In . SVG Version: 6.00 Build 0)  -->
<svg version="1.1" id="레이어_1" xmlns="http://www.w3.org/2000/svg" xmlns:xlink="http://www.w3.org/1999/xlink" x="0px"
	 y="0px" viewBox="0 0 477.3 540.5" style="enable-background:new 0 0 477.3 540.5;" xml:space="preserve">
<style type="text/css">
	.st0{fill:#006699;}
	.st1{fill:#FFFFFF;}
</style>
<g id="outer" transform="translate(0,512) scale(0.1,-0.1)">
	<path d="M2805.4,4964.4c-9-10-18-24-20-32s-18-41-35-74c-18-32-33-63-33-67c0-5-9-29-20-54c-11-26-19-47-19-49c0-1-18-40-40-86
		c-23-47-41-90-41-96c0-35-106-75-199-75c-47,0-50,2-117,75c-38,41-73,84-78,95s-14,20-21,20c-6,0-17,11-23,24c-6,14-27,42-46,63
		c-20,21-50,56-66,77c-64,83-117,103-176,67c-17-10-41-22-55-26c-13-4-51-20-84-35s-80-36-103-46c-24-11-76-35-115-54l-72-35l3-70
		c2-60,32-279,60-435c11-66,4-83-63-140c-77-65-77-65-104-80c-23-12-86-6-106,10c-5,4-33,12-60,18c-28,6-64,16-80,23
		c-17,7-36,13-44,15c-8,1-59,17-114,34c-54,18-108,33-120,35c-12,1-29,6-38,9c-21,9-109-76-109-104c0-5-8-18-18-28
		c-20-20-82-110-82-119c0-3-15-24-33-47c-19-23-37-48-40-56c-4-8-16-28-26-45c-23-35-26-68-8-87c7-7,27-31,44-54c18-22,49-58,70-80
		s67-72,103-113s72-81,81-90c51-50,52-115,7-241c-26-73-40-97-59-106c-40-19-156-54-178-54c-11,0-22-4-25-9c-4-5-30-12-59-16
		c-28-4-56-11-62-15c-5-4-30-11-55-15s-54-12-65-19c-11-6-36-15-55-21c-56-17-61-40-66-268c-4-264-2-285,43-304c19-8,60-19,91-24
		c32-6,62-15,68-20s27-11,47-13c21-3,52-11,70-19c17-8,66-22,107-32c123-29,137-37,150-87c6-24,15-51,21-61c13-24,30-100,36-162
		l4-50l-78-90c-97-111-143-163-209-234c-28-31-57-67-64-80c-13-26-6-83,13-103c7-7,23-33,36-58s37-61,53-81c15-20,28-42,28-47
		c0-6,10-23,23-39c13-15,34-46,46-69c31-55,69-77,118-68c21,4,47,13,58,20s41,16,68,19c26,4,47,11,47,15s19,10,43,14
		c23,4,65,15,92,26c128,48,192,59,213,38c7-7,12-10,12-7c0,6,106-89,172-154c39-38,47-52,42-72c-3-13-7-41-8-62c-2-21-8-56-14-78
		c-6-22-11-49-10-60c0-11-7-60-16-110c-20-109-29-226-19-240c4-5,24-18,43-28c19-11,46-25,60-32c50-26,145-69,145-65
		c0,2,27-10,60-27s82-38,108-47l48-15l46,47c47,48,151,169,234,271c67,82,115,122,142,116c12-2,47-7,77-10c59-5,148-19,192-30
		c19-5,32-19,47-55c12-27,25-52,31-55c5-3,17-33,26-65c9-33,21-60,25-60c5,0,9-7,9-15s4-23,10-33c5-9,21-44,35-77c15-33,31-69,37-80
		c7-11,18-33,26-49l15-29l136,6c129,6,249,22,340,47c33,9,44,18,57,48c8,20,17,55,19,77s10,87,18,145c22,144,31,223,29,233
		c-5,16,22,82,42,104c10,12,35,28,55,34c20,7,47,19,61,29c14,9,50,25,81,37c51,18,59,18,85,5c16-8,34-21,42-28c7-8,19-14,27-14
		c7,0,36-18,64-40s53-40,55-40c3,0,26-15,51-33c26-17,54-37,63-42c10-6,43-27,75-48c66-43,91-46,134-14c53,39,314,282,341,318
		c9,12,8,26-7,67c-28,77-45,112-53,112c-5,0-8,5-8,12c0,6-11,34-24,62c-72,153-96,206-96,212c0,4-7,15-15,24s-16,29-17,44
		c-2,22-36,52-213,184c-115,87-215,161-222,165c-7,5-21-1-33-13c-11-11-17-20-14-20c27,0-220-249-311-315c-31-22-64-47-74-55
		s-54-33-97-55c-44-22-81-42-84-46c-3-3-27-13-55-23c-27-11-55-22-60-27c-10-7-100-32-185-49c-25-6-54-14-65-19
		c-23-11-283-34-295-26c-7,4-128,15-185,17c-11,0-65,12-120,25c-55,14-107,26-115,28c-8,1-37,12-63,24c-27,11-53,21-58,21
		c-11,0-139,65-221,112c-75,44-194,136-241,187c-21,22-41,41-45,41c-5,0-21,18-38,40c-16,22-45,59-66,81c-20,22-42,53-48,70
		c-7,16-17,29-22,29s-23,29-39,65s-33,65-37,65s-16,24-27,53c-10,28-23,58-29,66s-17,35-24,60c-25,88-52,186-52,194c0,4,321,7,713,7
		h712l323,157c177,87,322,160,322,163s-145,76-322,163l-323,157h-709h-708l5,38c2,20,18,76,35,123c31,88,34,95,71,164
		c12,22,31,60,43,85s30,54,40,64c10,11,18,25,18,32s4,14,8,16c5,2,26,28,49,58c64,88,232,250,302,291c20,12,45,30,56,40
		c31,27,267,146,306,154c19,4,48,13,64,20c81,33,174,49,394,64c88,6,143,6,162-1c16-5,35-8,43-5c7,3,32,1,55-4s63-11,88-14
		s51-9,57-14c6-4,32-11,57-15c26-4,55-13,65-21c11-8,27-15,37-15c9,0,41-12,70-26c28-14,60-27,70-29c30-7,247-147,301-194
		c75-67,222-222,245-260c7-10,71,41,248,197c186,164,243,221,261,256c12,26,22,48,22,51s27,58,60,122c33,65,60,125,60,133
		c0,9,4,20,9,25c6,6,17,27,25,47l16,36l-43,45c-60,64-347,307-375,318c-13,5-29,9-36,9c-14,0-208-120-230-143c-7-7-32-21-55-31
		c-22-11-41-23-41-27c0-5-19-18-42-30c-24-12-53-30-65-42c-25-22-70-26-106-10c-12,6-37,16-54,23c-71,27-84,48-105,171
		c-10,63-25,170-33,239c-16,151-28,210-46,221c-14,8-121,30-179,35c-19,2-41,6-50,10c-23,9-135,24-235,30
		C2833.4,4982.4,2820.4,4981.4,2805.4,4964.4z M3108.4,4785.4c31-8,73-14,93-14c45,0,52-14,61-120c4-47,14-123,22-170s19-114,24-149
		s13-70,17-77c21-37,106-112,144-128c24-10,50-22,59-26c9-5,44-14,78-21c79-17,150-3,217,42c27,18,67,45,89,60c22,14,54,33,70,42
		c17,8,39,24,50,34s43,33,71,50l51,31l119-100c65-55,123-104,128-108c5-6-16-61-54-137c-34-70-70-143-79-161c-9-19-85-95-173-173
		l-158-140l-63,63c-86,85-112,108-177,153c-30,21-73,51-94,67c-21,15-43,28-48,28s-31,16-59,35s-58,35-66,35c-7,0-31,9-52,20
		c-82,41-275,97-411,119c-119,19-287,24-390,11c-52-6-132-15-178-20s-88-13-95-18s-33-13-59-16c-26-4-50-11-53-16c-3-4-28-13-55-20
		c-97-23-397-192-482-271c-198-184-308-317-393-474c-70-131-73-137-95-204c-10-31-28-83-40-116c-32-86-33-199-3-241
		c13-17,35-40,50-50c27-18,64-19,753-24l725-5l148-75c81-41,147-77,147-80s-66-39-147-80l-148-75l-730-5c-703-5-731-6-756-24
		c-86-66-89-166-13-394c14-42,29-81,33-87c4-5,16-32,26-60c10-27,23-57,30-65s23-35,35-60c42-83,186-266,283-358
		c58-56,240-202,251-202c3,0,29-14,58-32c64-38,154-82,188-93c14-4,48-18,75-31c63-29,285-80,385-88c41-4,104-9,140-12
		c72-6,381,19,402,32c7,5,36,14,63,21c111,25,143,35,210,63c60,25,140,64,244,119c14,8,53,35,86,60s75,56,93,68c18,13,77,68,131,123
		l98,100l127-96c70-52,129-103,132-112s10-24,15-32s16-31,25-50c8-19,23-53,33-75c68-143,81-173,81-179c0-5,9-20,19-35l20-27l-62-56
		c-141-126-161-143-169-140c-5,1-63,39-128,85c-117,80-151,101-235,149c-51,28-163,31-210,5c-16-9-36-17-44-17s-33-11-55-24
		c-23-13-58-29-79-36c-45-14-134-100-143-138c-4-15-11-32-16-38c-5-7-15-70-24-140c-19-167-43-317-52-326c-4-4-56-14-117-22
		c-60-9-120-19-132-22c-17-5-24-1-29,12c-4,11-14,37-24,59s-26,58-35,80c-10,22-26,58-36,81c-11,22-19,47-19,56c0,8-8,26-19,39
		c-10,13-27,44-38,69c-31,71-74,106-152,124c-161,38-326,53-389,37c-47-13-123-83-237-220c-38-46-88-105-110-130l-40-46l-45,22
		c-25,13-81,39-125,59s-81,38-83,39c-4,3,30,200,48,280c16,74,22,210,11,250c-11,43-71,109-200,225c-136,122-212,127-491,36
		c-197-64-195-65-252,19c-26,39-59,89-72,113l-25,44l47,56c26,31,66,77,89,102c98,106,164,186,180,219c25,53,20,174-12,281
		c-15,47-32,106-40,132c-33,117-67,135-467,244l-98,27v142c0,137,1,142,23,153c12,7,90,29,172,51c83,21,164,44,180,50
		c17,6,49,16,72,21c28,7,57,25,86,54c38,38,49,60,85,170c44,133,49,172,31,258c-14,64-28,92-69,138c-17,19-59,66-93,104
		c-34,39-81,90-104,114c-24,25-43,50-43,57s16,33,35,58s35,49,35,53c0,9,103,144,110,144c3,0,58-18,123-40s135-42,155-46
		s42-10,47-14c10-7,80-24,139-33c82-13,203,57,332,191c43,46,62,130,46,216c-6,33-18,111-27,171c-9,61-20,129-26,152
		c-13,61-13,63,29,79c37,15,80,35,177,79c81,37,90,38,108,12c8-13,28-37,44-53c15-16,55-63,88-104s92-107,131-146
		c66-66,76-72,131-82c102-18,280,13,342,59c39,29,75,75,86,109c4,14,25,62,47,108s48,104,57,130s27,66,40,90l22,43l67-6
		C3022.4,4802.4,3077.4,4793.4,3108.4,4785.4z"/>
</g>
<g id="inner" transform="translate(0,512) scale(0.1,-0.1)">
	<path class="st0" d="M2896.4,4769.4c-13-24-31-64-40-90s-35-84-57-130s-43-94-47-108c-11-34-47-80-86-109c-62-46-240-77-342-59
		c-55,10-65,16-131,82c-39,39-98,105-131,146s-73,88-88,104c-16,16-36,40-44,53c-18,26-27,25-108-12c-97-44-140-64-177-79
		c-42-16-42-18-29-79c6-23,17-91,26-152c9-60,21-138,27-171c16-86-3-170-46-216c-129-134-250-204-332-191c-59,9-129,26-139,33
		c-5,4-27,10-47,14s-90,24-155,46s-120,40-123,40c-7,0-110-135-110-144c0-4-16-28-35-53s-35-51-35-58s19-32,43-57
		c23-24,70-75,104-114c34-38,76-85,93-104c41-46,55-74,69-138c18-86,13-125-31-258c-36-110-47-132-85-170c-29-29-58-47-86-54
		c-23-5-55-15-72-21c-16-6-97-29-180-50c-82-22-160-44-172-51c-22-11-23-16-23-153v-142l98-27c400-109,434-127,467-244
		c8-26,25-85,40-132c32-107,37-228,12-281c-16-33-82-113-180-219c-23-25-63-71-89-102l-47-56l25-44c13-24,46-74,72-113
		c57-84,55-83,252-19c279,91,355,86,491-36c129-116,189-182,200-225c11-40,5-176-11-250c-18-80-52-277-48-280c2-1,39-19,83-39
		s100-46,125-59l45-22l40,46c22,25,72,84,110,130c114,137,190,207,237,220c63,16,228,1,389-37c78-18,121-53,152-124
		c11-25,28-56,38-69c11-13,19-31,19-39c0-9,8-34,19-56c10-23,26-59,36-81c9-22,25-58,35-80s20-48,24-59c5-13,12-17,29-12
		c12,3,72,13,132,22c61,8,113,18,117,22c9,9,33,159,52,326c9,70,19,133,24,140c5,6,12,23,16,38c9,38,98,124,143,138
		c21,7,56,23,79,36c22,13,47,24,55,24s28,8,44,17c47,26,159,23,210-5c84-48,118-69,235-149c65-46,123-84,128-85c8-3,28,14,169,140
		l62,56l-20,27c-10,15-19,30-19,35c0,6-13,36-81,179c-10,22-25,56-33,75c-9,19-20,42-25,50s-12,23-15,32s-62,60-132,112l-127,96
		l-98-100c-54-55-113-110-131-123c-18-12-60-43-93-68s-72-52-86-60c-104-55-184-94-244-119c-67-28-99-38-210-63c-27-7-56-16-63-21
		c-21-13-330-38-402-32c-36,3-99,8-140,12c-100,8-322,59-385,88c-27,13-61,27-75,31c-34,11-124,55-188,93c-29,18-55,32-58,32
		c-11,0-193,146-251,202c-97,92-241,275-283,358c-12,25-28,52-35,60s-20,38-30,65c-10,28-22,55-26,60c-4,6-19,45-33,87
		c-76,228-73,328,13,394c25,18,53,19,756,24l730,5l148,75c81,41,147,77,147,80s-66,39-147,80l-148,75l-725,5c-689,5-726,6-753,24
		c-15,10-37,33-50,50c-30,42-29,155,3,241c12,33,30,85,40,116c22,67,25,73,95,204c85,157,195,290,393,474c85,79,385,248,482,271
		c27,7,52,16,55,20c3,5,27,12,53,16c26,3,52,11,59,16s49,13,95,18s126,14,178,20c103,13,271,8,390-11c136-22,329-78,411-119
		c21-11,45-20,52-20c8,0,38-16,66-35s54-35,59-35s27-13,48-28c21-16,64-46,94-67c65-45,91-68,177-153l63-63l158,140
		c88,78,164,154,173,173c9,18,45,91,79,161c38,76,59,131,54,137c-5,4-63,53-128,108l-119,100l-51-31c-28-17-60-40-71-50
		s-33-26-50-34c-16-9-48-28-70-42c-22-15-62-42-89-60c-67-45-138-59-217-42c-34,7-69,16-78,21c-9,4-35,16-59,26
		c-38,16-123,91-144,128c-4,7-12,42-17,77s-16,102-24,149s-18,123-22,170c-9,106-16,120-61,120c-20,0-62,6-93,14s-86,17-123,21
		l-67,6L2896.4,4769.4z"/>
</g>
<g>
	<path class="st1" d="M285.4,14c1.4,0,3.3,0.1,5.9,0.3c10,0.6,21.2,2.1,23.5,3c0.9,0.4,3.1,0.8,5,1c5.8,0.5,16.5,2.7,17.9,3.5
		c1.8,1.1,3,7,4.6,22.1c0.8,6.9,2.3,17.6,3.3,23.9c2.1,12.3,3.4,14.4,10.5,17.1c1.7,0.7,4.2,1.7,5.4,2.3c1.5,0.7,3.1,1,4.7,1
		c2.3,0,4.5-0.7,5.9-2c1.2-1.2,4.1-3,6.5-4.2c2.3-1.2,4.2-2.5,4.2-3c0-0.4,1.9-1.6,4.1-2.7c2.3-1,4.8-2.4,5.5-3.1
		c2.2-2.3,21.6-14.3,23-14.3c0.7,0,2.3,0.4,3.6,0.9c2.8,1.1,31.5,25.4,37.5,31.8l4.3,4.5l-1.6,3.6c-0.8,2-1.9,4.1-2.5,4.7
		c-0.5,0.5-0.9,1.6-0.9,2.5c0,0.8-2.7,6.8-6,13.3c-3.3,6.4-6,11.9-6,12.2c0,0.3-1,2.5-2.2,5.1c-1.8,3.5-7.5,9.2-26.1,25.6
		c-16.3,14.4-23,19.8-24.5,19.8c-0.1,0-0.2,0-0.3-0.1c-2.3-3.8-17-19.3-24.5-26c-5.4-4.7-27.1-18.7-30.1-19.4c-1-0.2-4.2-1.5-7-2.9
		c-2.9-1.4-6.1-2.6-7-2.6c-1,0-2.6-0.7-3.7-1.5c-1-0.8-3.9-1.7-6.5-2.1c-2.5-0.4-5.1-1.1-5.7-1.5c-0.6-0.5-3.2-1.1-5.7-1.4
		c-2.5-0.3-6.5-0.9-8.8-1.4c-1.6-0.3-3.2-0.5-4.3-0.5c-0.5,0-0.9,0-1.2,0.1c-0.2,0.1-0.5,0.1-0.9,0.1c-0.9,0-2.3-0.3-3.4-0.6
		c-1-0.4-2.9-0.5-5.8-0.5c-2.7,0-6.1,0.1-10.4,0.4c-22,1.5-31.3,3.1-39.4,6.4c-1.6,0.7-4.5,1.6-6.4,2c-3.9,0.8-27.5,12.7-30.6,15.4
		c-1.1,1-3.6,2.8-5.6,4c-7,4.1-23.8,20.3-30.2,29.1c-2.3,3-4.4,5.6-4.9,5.8c-0.4,0.2-0.8,0.9-0.8,1.6c0,0.7-0.8,2.1-1.8,3.2
		c-1,1-2.8,3.9-4,6.4c-1.2,2.5-3.1,6.3-4.3,8.5c-3.7,6.9-4,7.6-7.1,16.4c-1.7,4.7-3.3,10.3-3.5,12.3l-0.5,3.8h70.8h70.9l32.3,15.7
		c17.7,8.7,32.2,16,32.2,16.3c0,0.3-14.5,7.6-32.2,16.3l-32.3,15.7H197c-39.2,0-71.3,0.3-71.3,0.7c0,0.8,2.7,10.6,5.2,19.4
		c0.7,2.5,1.8,5.2,2.4,6s1.9,3.8,2.9,6.6c1.1,2.9,2.3,5.3,2.7,5.3s2.1,2.9,3.7,6.5c1.6,3.6,3.4,6.5,3.9,6.5s1.5,1.3,2.2,2.9
		c0.6,1.7,2.8,4.8,4.8,7c2.1,2.2,5,5.9,6.6,8.1c1.7,2.2,3.3,4,3.8,4c0.4,0,2.4,1.9,4.5,4.1c4.7,5.1,16.6,14.3,24.1,18.7
		c8.2,4.7,21,11.2,22.1,11.2c0.5,0,3.1,1,5.8,2.1c2.6,1.2,5.5,2.3,6.3,2.4c0.8,0.2,6,1.4,11.5,2.8c5.5,1.3,10.9,2.5,12,2.5
		c5.7,0.2,17.8,1.3,18.5,1.7c0.2,0.1,0.9,0.2,1.9,0.2c6.3,0,25.6-1.8,27.6-2.8c1.1-0.5,4-1.3,6.5-1.9c8.5-1.7,17.5-4.2,18.5-4.9
		c0.5-0.5,3.3-1.6,6-2.7c2.8-1,5.2-2,5.5-2.3c0.3-0.4,4-2.4,8.4-4.6c4.3-2.2,8.7-4.7,9.7-5.5c1-0.8,4.3-3.3,7.4-5.5
		c9.1-6.6,33.8-31.5,31.1-31.5c-0.3,0,0.3-0.9,1.4-2c0.9-0.9,1.9-1.5,2.7-1.5c0.2,0,0.4,0.1,0.6,0.2c0.7,0.4,10.7,7.8,22.2,16.5
		c17.7,13.2,21.1,16.2,21.3,18.4c0.1,1.5,0.9,3.5,1.7,4.4s1.5,2,1.5,2.4c0,0.6,2.4,5.9,9.6,21.2c1.3,2.8,2.4,5.6,2.4,6.2
		c0,0.7,0.3,1.2,0.8,1.2c0.8,0,2.5,3.5,5.3,11.2c1.5,4.1,1.6,5.5,0.7,6.7c-2.7,3.6-28.8,27.9-34.1,31.8c-1.9,1.4-3.5,2.1-5.2,2.1
		c-2.2,0-4.6-1.2-8.2-3.5c-3.2-2.1-6.5-4.2-7.5-4.8c-0.9-0.5-3.7-2.5-6.3-4.2c-2.5-1.8-4.8-3.3-5.1-3.3c-0.2,0-2.7-1.8-5.5-4
		c-2.8-2.2-5.7-4-6.4-4c-0.8,0-2-0.6-2.7-1.4c-0.8-0.7-2.6-2-4.2-2.8c-1.2-0.6-2-0.9-3-0.9c-1.2,0-2.7,0.4-5.5,1.4
		c-3.1,1.2-6.7,2.8-8.1,3.7c-1.4,1-4.1,2.2-6.1,2.9c-2,0.6-4.5,2.2-5.5,3.4c-2,2.2-4.7,8.8-4.2,10.4c0.2,1-0.7,8.9-2.9,23.3
		c-0.8,5.8-1.6,12.3-1.8,14.5c-0.2,2.2-1.1,5.7-1.9,7.7c-1.3,3-2.4,3.9-5.7,4.8c-9.1,2.5-21.1,4.1-34,4.7l-13.6,0.6l-1.5-2.9
		c-0.8-1.6-1.9-3.8-2.6-4.9c-0.6-1.1-2.2-4.7-3.7-8c-1.4-3.3-3-6.8-3.5-7.7c-0.6-1-1-2.5-1-3.3c0-0.8-0.4-1.5-0.9-1.5
		c-0.4,0-1.6-2.7-2.5-6c-0.9-3.2-2.1-6.2-2.6-6.5c-0.6-0.3-1.9-2.8-3.1-5.5c-1.5-3.6-2.8-5-4.7-5.5c-4.4-1.1-13.3-2.5-19.2-3
		c-3-0.3-6.5-0.8-7.7-1c-0.2,0-0.4-0.1-0.6-0.1c-2.8,0-7.4,4-13.6,11.7c-8.3,10.2-18.7,22.3-23.4,27.1l-4.6,4.7l-4.8-1.5
		c-2.6-0.9-7.5-3-10.8-4.7c-3.1-1.6-5.6-2.7-6-2.7c0,0,0,0,0,0c0,0,0,0-0.1,0c-0.8,0-9.7-4-14.4-6.5c-1.4-0.7-4.1-2.1-6-3.2
		c-1.9-1-3.9-2.3-4.3-2.8c-1-1.4-0.1-13.1,1.9-24c0.9-5,1.6-9.9,1.6-11c-0.1-1.1,0.4-3.8,1-6c0.6-2.2,1.2-5.7,1.4-7.8
		c0.1-2.1,0.5-4.9,0.8-6.2c0.5-2-0.3-3.4-4.2-7.2c-6.4-6.3-16.6-15.4-17.2-15.4c0,0,0,0,0,0c0,0.1,0,0.1-0.1,0.1
		c-0.2,0-0.6-0.3-1.1-0.8c-0.7-0.7-1.8-1-3.4-1c-3.4,0-9.2,1.6-17.9,4.8c-2.7,1.1-6.9,2.2-9.2,2.6c-2.4,0.4-4.3,1-4.3,1.4
		s-2.1,1.1-4.7,1.5c-2.7,0.3-5.7,1.2-6.8,1.9c-1.1,0.7-3.7,1.6-5.8,2c-0.7,0.1-1.4,0.2-2.1,0.2c-3.9,0-7.1-2.3-9.7-7
		c-1.2-2.3-3.3-5.4-4.6-6.9c-1.3-1.6-2.3-3.3-2.3-3.9c0-0.5-1.3-2.7-2.8-4.7c-1.6-2-4-5.6-5.3-8.1c-1.3-2.5-2.9-5.1-3.6-5.8
		c-1.9-2-2.6-7.7-1.3-10.3c0.7-1.3,3.6-4.9,6.4-8c6.6-7.1,11.2-12.3,20.9-23.4l7.8-9l-0.4-5c-0.6-6.2-2.3-13.8-3.6-16.2
		c-0.6-1-1.5-3.7-2.1-6.1c-1.3-5-2.7-5.8-15-8.7c-4.1-1-9-2.4-10.7-3.2c-1.8-0.8-4.9-1.6-7-1.9c-2-0.2-4.1-0.8-4.7-1.3
		s-3.6-1.4-6.8-2c-3.1-0.5-7.2-1.6-9.1-2.4c-4.5-1.9-4.7-4-4.3-30.4c0.5-22.8,1-25.1,6.6-26.8c1.9-0.6,4.4-1.5,5.5-2.1
		c1.1-0.7,4-1.5,6.5-1.9s5-1.1,5.5-1.5c0.6-0.4,3.4-1.1,6.2-1.5c2.9-0.4,5.5-1.1,5.9-1.6c0.3-0.5,1.4-0.9,2.5-0.9
		c2.2,0,13.8-3.5,17.8-5.4c1.9-0.9,3.3-3.3,5.9-10.6c4.5-12.6,4.4-19.1-0.7-24.1c-0.9-0.9-4.5-4.9-8.1-9c-3.6-4.1-8.2-9.1-10.3-11.3
		s-5.2-5.8-7-8c-1.7-2.3-3.7-4.7-4.4-5.4c-1.8-1.9-1.5-5.2,0.8-8.7c1-1.7,2.2-3.7,2.6-4.5c0.3-0.8,2.1-3.3,4-5.6
		c1.8-2.3,3.3-4.4,3.3-4.7c0-0.9,6.2-9.9,8.2-11.9c1-1,1.8-2.3,1.8-2.8c0-2.7,7.9-10.5,10.5-10.5c0.1,0,0.3,0,0.4,0.1
		c0.9,0.3,2.6,0.8,3.8,0.9c1.2,0.2,6.6,1.7,12,3.5c5.5,1.7,10.6,3.3,11.4,3.4c0.8,0.2,2.7,0.8,4.4,1.5c1.6,0.7,5.2,1.7,8,2.3
		c2.7,0.6,5.5,1.4,6,1.8c1.3,1,4.3,1.6,6.9,1.6c1.5,0,2.8-0.2,3.7-0.6c2.7-1.5,2.7-1.5,10.4-8c6.7-5.7,7.4-7.4,6.3-14
		c-2.8-15.6-5.8-37.5-6-43.5l-0.3-7l7.2-3.5c3.9-1.9,9.1-4.3,11.5-5.4c2.3-1,7-3.1,10.3-4.6c3.3-1.5,7.1-3.1,8.4-3.5
		c1.4-0.4,3.8-1.6,5.5-2.6c1.9-1.1,3.7-1.7,5.5-1.7c3.9,0,7.8,2.7,12.1,8.4c1.6,2.1,4.6,5.6,6.6,7.7c1.9,2.1,4,4.9,4.6,6.3
		c0.6,1.3,1.7,2.4,2.3,2.4c0.7,0,1.6,0.9,2.1,2s4,5.4,7.8,9.5c6.7,7.3,7,7.5,11.7,7.5c9.3,0,19.9-4,19.9-7.5c0-0.6,1.8-4.9,4.1-9.6
		c2.2-4.6,4-8.5,4-8.6c0-0.2,0.8-2.3,1.9-4.9c1.1-2.5,2-4.9,2-5.4c0-0.4,1.5-3.5,3.3-6.7c1.7-3.3,3.3-6.6,3.5-7.4
		c0.2-0.8,1.1-2.2,2-3.2C281.5,14.4,282.5,14,285.4,14 M285.4,0L285.4,0c-4.5,0-10.4,0.7-15.3,6.3c-1.4,1.5-3.7,4.5-4.8,8.1
		c-0.3,0.7-1.2,2.5-2.5,5.2c-3,5.4-4.2,8.3-4.7,10.4c-0.2,0.6-0.6,1.5-1.1,2.7l0,0.1l0,0.1c-1,2.4-1.7,4.2-2.2,5.6
		c-0.5,1.2-1.8,3.9-3.4,7.3c-1.6,3.4-2.8,5.9-3.6,7.9c-1.7,0.5-4,1.1-6.5,1.2c-0.9-0.9-1.9-2-2.7-2.9l0,0l0,0
		c-2.8-3.1-5.1-5.8-5.8-6.8c-1.4-2.6-3.3-4.8-5.5-6.4c-1.9-3.1-4.4-5.9-5.3-6.9l-0.1-0.1l-0.1-0.1c-1.6-1.7-4.3-4.8-5.6-6.5l0,0l0,0
		c-2.6-3.4-10.7-13.9-23.2-13.9c-4.3,0-8.6,1.2-12.6,3.7c-1,0.6-2,1.1-2.4,1.2l0,0c-2.9,0.9-8.9,3.6-10.1,4.1
		c-3.3,1.5-7.9,3.6-10.1,4.5l-0.1,0.1l-0.1,0.1c-2.2,1-7.6,3.5-11.8,5.5l-7.2,3.5l-8.3,4l0.4,9.2l0.3,7c0.3,7.4,3.5,30.4,6.1,45
		c-0.4,0.3-0.9,0.8-1.5,1.3c-3.3,2.8-4.9,4.2-6,5c-1.8-0.9-4.4-1.8-8.9-2.8l-0.1,0l-0.1,0c-2.4-0.5-4.7-1.2-5.4-1.5l-0.1,0l-0.1-0.1
		c-2.4-1-4.9-1.8-6.3-2.1l-0.8-0.2l-0.1,0c-1.4-0.4-5-1.5-7.7-2.4l-1.9-0.6c-4.2-1.4-11.2-3.5-14-4l-0.6-0.1l-0.2,0
		c-0.2,0-0.5-0.1-0.7-0.2c-1.6-0.6-3.2-0.8-4.9-0.8c-3.3,0-8.6,0.9-16.1,8.3c-4.2,4.1-6.3,7.6-7.4,10.4c-1.8,2-3.7,4.8-5.2,7
		c-2,2.9-3.5,5.2-4.4,7.3c-0.3,0.5-0.9,1.2-1.6,2.1c-3.5,4.3-5,6.8-5.7,8.2c-0.3,0.6-1,1.7-1.4,2.5l-0.5,0.8c-5.7,9-5.4,19,0.9,25.7
		l0.1,0.1l0,0c0.4,0.5,1.8,2.1,3.1,3.9l0.2,0.3l0.2,0.3c2.1,2.5,5.4,6.4,7.7,8.8c1.9,2,6.4,6.9,9.9,10.9c0.3,0.3,6.5,7.4,8.6,9.5
		c0,1-0.3,3.6-2.4,9.6c-0.6,1.7-1.1,2.9-1.4,3.7c-3.3,1.2-8.2,2.6-10.2,3c-3,0.2-5.8,1-8.2,2.4c-0.3,0.1-0.7,0.1-1.1,0.2l0,0l0,0
		c-5.4,0.8-8.4,1.8-10.2,2.7c-0.4,0.1-1.1,0.2-1.7,0.4c-2.6,0.4-7.2,1.4-10.8,3.3c-0.5,0.2-1.7,0.7-3.1,1.1
		c-7.9,2.4-12.7,7.5-14.6,15.5c-1.2,5.1-1.5,11.6-1.8,24.3l0,0l0,0c-0.2,14.6-0.2,21.5,0.4,26.5c1.2,8.4,5.2,14,12.4,17
		c3.3,1.4,8.6,2.7,12.1,3.3c1.2,0.2,2.2,0.5,2.8,0.6c3.1,1.7,6.6,2.4,9.4,2.8c1.1,0.2,2.6,0.6,3.1,0.8c3.6,1.6,10.3,3.3,13.1,4
		l0.1,0l0.1,0c1.1,0.2,3.5,0.8,5.4,1.3c0.6,2,1.4,4.2,2.4,6.1c0.5,1.4,1.5,5.8,2.1,10.2l-3.9,4.5c-9.9,11.3-14.3,16.3-20.6,23.1
		l-0.1,0.1l-0.1,0.1c-1.9,2.1-6.5,7.4-8.3,10.7l-0.1,0.2l-0.1,0.2c-3.9,7.7-2.4,19.3,3.2,25.7c0.4,0.5,1.1,1.7,1.8,3.2
		c1.8,3.5,4.7,7.7,6.6,10.2c0.3,0.4,0.5,0.7,0.7,1c0.7,2.2,2.1,4.8,4.6,7.9l0.1,0.2l0.1,0.2c0.5,0.6,2,2.7,2.8,4.2l0.1,0.2l0.1,0.2
		c6.9,12.3,16.7,14.1,21.9,14.1c1.5,0,3-0.1,4.6-0.4l0,0l0,0c1-0.2,5.8-1.2,9.7-3.4c0.4-0.1,1.2-0.3,1.8-0.4l0.3,0l0.3,0
		c2-0.3,3.9-0.7,5.5-1.3c1.5-0.5,2.7-1,3.8-1.7c3.1-0.6,8.1-1.9,11.8-3.3c5.8-2.2,9.1-3.1,11-3.5c2.8,2.3,8.6,7.7,13.3,12.3
		c-0.1,1-0.2,1.9-0.2,2.8c-0.2,1.5-0.6,4-0.9,5.2c-0.7,2.6-1.5,6.2-1.5,9.4c-0.1,1.2-0.6,4.6-1.4,8.8c-1,5.6-1.8,11.8-2.3,16.9
		c-0.6,8.3-0.4,13.3,2.7,17.7l0.2,0.3l0.2,0.3c0.7,0.9,2.5,3.1,8.5,6.3c2.2,1.3,5,2.7,6.4,3.4c2.4,1.3,6,3,9.3,4.5
		c3.6,1.6,5.9,2.6,8,3.1c0.7,0.3,1.8,0.9,3.2,1.6c3.7,1.9,9.2,4.3,12.6,5.5l0.2,0.1l0.2,0.1l4.8,1.5l8.2,2.6l6-6.1l4.6-4.7
		c5.5-5.6,16.6-18.6,24.3-28.1c2.5-3,4.2-4.9,5.4-6c1.4,0.2,2.9,0.4,4.3,0.5l0.1,0l0.1,0c3.9,0.3,9.1,1.1,13,1.8
		c1.2,2.5,2.3,4.6,3.6,6.3c0.2,0.6,0.5,1.3,0.7,2.2c0.6,2.1,1.3,4.2,2,6c0.5,1.2,1.1,2.3,1.7,3.2c0.5,1.6,1.1,3.2,1.9,4.6
		c0.4,0.8,1.6,3.4,2.9,6.4l0.1,0.2l0.1,0.2l1,2.1c1.6,3.6,2.5,5.5,3.2,6.8l0.2,0.4l0.3,0.4c0.4,0.6,1.4,2.7,1.9,3.6l0,0.1l0,0.1
		l1.5,2.9l4.1,7.9l8.9-0.4l13.6-0.6c14.4-0.7,27.2-2.5,37.1-5.2c7.4-2,11.8-5.8,14.8-12.7l0.1-0.2l0.1-0.2c1.1-2.8,2.5-7.6,2.8-11.6
		c0.2-1.8,0.9-7.9,1.7-13.8c2.4-15.4,3-21.6,3.1-24.8c0.2-0.4,0.3-0.8,0.5-1.2c1.5-0.5,5.6-2.1,8.8-4.2c0.6-0.3,2.4-1.2,4.7-2.1
		c2,1.6,4.3,2.9,6.7,3.6c0.6,0.4,1.4,1,2.3,1.7c3.3,2.6,5.7,4.5,8.2,5.6c0.6,0.4,1.6,1,2.9,2l0.3,0.2l0.3,0.2c1,0.7,2.2,1.5,3.2,2.1
		c1.7,1.2,2.8,1.9,3.7,2.4c0.8,0.5,3.7,2.3,6.9,4.4c4.4,2.8,9.5,5.8,15.9,5.8c6.2,0,10.7-2.8,13.5-4.9c5.8-4.3,32.9-29.2,36.9-34.6
		c5.7-7.6,2.7-15.9,1.2-19.9c-1.5-4.2-2.8-7.4-3.9-9.7c-0.8-1.7-1.5-3-2.3-4.1c-0.2-0.2-0.3-0.5-0.5-0.7c-0.5-1.4-1.3-3.1-2.2-5.2
		l0,0l0,0c-2.1-4.5-7.5-16-8.8-19c-0.6-2.1-1.6-4.1-3-6.1c-1.3-6.3-6-10.4-8.6-12.6c-3.2-2.8-8.1-6.6-18-13.9
		c-8.5-6.4-18.7-14.1-22.5-16.7l0,0c-2.6-1.8-5.6-2.8-8.8-2.8c-4.5,0-9,2-12.6,5.6c-2.4,2.4-3.9,4.8-4.7,7c-5,5.8-19.9,20.5-26,25
		c-3,2.1-6.2,4.5-7.6,5.7c-0.9,0.6-4,2.4-7.6,4.2c-4.7,2.4-7.5,3.9-9.4,5.1c-0.6,0.3-1.6,0.6-2.9,1.1l-0.3,0.1l-0.3,0.1l-0.9,0.3
		c-2.6,1.1-4.6,1.9-6.3,2.8c-2.3,0.7-8.4,2.4-14.8,3.7l-0.3,0.1l-0.3,0.1c-3.2,0.8-5.8,1.5-7.7,2.2c-3.8,0.7-17.4,2-22.7,2.1
		c-1.9-0.4-4.5-0.7-8.5-1c-3.3-0.3-8-0.7-11.4-0.8c-0.7-0.1-3.1-0.6-9.7-2.1c-4.2-1.1-8.1-2-10.3-2.5c-0.6-0.1-1-0.2-1.2-0.3
		l-0.3-0.1c-0.6-0.2-2-0.8-3.5-1.5l-0.3-0.1l-0.3-0.1c-3.5-1.4-5.6-2.2-7.4-2.7c-2.9-1.3-11.9-5.8-18.7-9.8
		c-6.8-4-17.5-12.4-20.8-16.1l-0.1-0.1l-0.1-0.1c-2.1-2.2-4.1-4.3-6.5-5.9c-0.2-0.2-0.5-0.6-0.8-1c-1.6-2.2-4.8-6.3-7.5-9.2
		c-0.9-1-1.8-2.2-2.1-2.8l-0.1-0.3c-1.3-3-3.1-5.5-5.1-7.4c-0.3-0.6-0.7-1.3-1-2.1c-1.3-2.9-3-6.7-5.5-9.6c-0.2-0.4-0.3-0.8-0.5-1.3
		c-1.4-4-2.8-7-4.1-9.1c-0.2-0.5-0.6-1.5-0.9-2.4l0,0l0,0c-0.2-0.7-0.4-1.4-0.6-2c12.4-0.1,31-0.2,53.2-0.2h71.2h3.2l2.9-1.4
		l32.3-15.7l0,0l0,0c8.9-4.4,17.1-8.4,22.9-11.4c3.1-1.5,5.5-2.8,7.1-3.7c1-0.5,1.7-0.9,2.3-1.2c6.7-3.8,7.7-9.5,7.7-12.6
		c0-3.1-1-8.8-7.7-12.6c-0.6-0.3-1.3-0.7-2.3-1.2c-1.7-0.9-4.1-2.1-7.1-3.7c-5.8-2.9-13.9-7-22.9-11.4l0,0l0,0l-32.3-15.7l-2.9-1.4
		h-3.2h-70.9h-52.7c2-5.7,2.4-6.4,5.3-11.9c1.3-2.4,3.3-6.4,4.6-9.1c0.6-1.2,1.4-2.5,1.8-3.1c1.2-1.3,2.9-3.5,4.1-6.3
		c1.2-1.4,2.5-3.1,4.2-5.2l0.1-0.1l0.1-0.1c5.5-7.6,21-22.4,26-25.3l0.1,0l0.1,0c2.1-1.3,5.1-3.3,7.3-5.2
		c3.7-2.5,20.9-11.2,25.1-12.6c2.7-0.6,6.1-1.7,8.4-2.7c5.7-2.3,13.1-3.9,34.9-5.3c3.9-0.3,7.1-0.4,9.4-0.4c1.1,0,1.8,0,2.2,0.1
		c1.8,0.5,4.4,1.1,7.1,1.1c0.9,0,1.7-0.1,2.6-0.2c0.2,0,0.5,0.1,0.8,0.1c3.1,0.7,7.7,1.3,10.1,1.6c0.6,0.1,1.2,0.2,1.5,0.2
		c1.7,0.8,4.6,1.8,9.3,2.6l0,0l0,0c0.6,0.1,1.1,0.2,1.5,0.3c1.8,1.2,4.9,2.8,8.6,3.3c0.7,0.3,1.9,0.7,3.1,1.3
		c1.4,0.7,5.4,2.6,8.7,3.6c5,2.5,21.8,13.6,25.3,16.6c7.1,6.4,19.7,19.9,21.9,22.9l0.2,0.3l0.3,0.4c2.7,3.8,7.1,6.1,11.7,6.1
		c5.7,0,9.8-3,15.5-7.6c4-3.2,9.6-8,18.3-15.7c20.6-18.2,26.4-24,29.3-29.7l0.1-0.3l0.1-0.3c1.3-2.8,2.2-4.7,2.7-6.3
		c0.6-1.4,2.5-5.1,5.2-10.4l0,0l0,0c4.4-8.7,6.2-13.1,7-15.7c1-1.6,1.9-3.5,2.8-5.7l1.5-3.4l3.8-8.6l-6.5-6.8l-4.3-4.5
		c-4.7-5-17.3-15.8-21.1-18.9c-17.2-14.6-19.5-15.5-21.5-16.3l0,0l0,0c-1.8-0.7-5.3-1.8-8.6-1.8c-4,0-6.6,1-18.6,8.4
		c-8.5,5.2-11.8,7.7-13.4,9.1c-0.5,0.3-1.3,0.7-2.1,1.1l-0.3,0.1l-0.3,0.2c-2.1,1.1-5.5,2.7-8.1,5.6c-0.1,0.1-0.2,0.1-0.4,0.2
		c-1.2,0.6-4.1,2.1-6.8,4.1c-0.9-0.4-1.9-0.8-3.1-1.3l-0.9-0.4l-0.2-0.1l-0.2-0.1c-0.2-0.1-0.3-0.1-0.4-0.2
		c-0.3-1.1-0.7-2.9-1.2-6.1c-0.9-5.8-2.4-16.2-3.2-23.2c-2-18.5-3.3-27.7-11.2-32.5l-0.2-0.1l-0.2-0.1c-5.4-3.1-21.2-5-23.4-5.3l0,0
		c-0.8-0.1-1.4-0.2-1.8-0.3c-7.2-2.6-27.2-3.8-27.4-3.8C289.3,0.1,287.2,0,285.4,0L285.4,0z"/>
</g>
</svg>
