<?xml version="1.0" encoding="utf-8"?>
<!-- Generator: Adobe Illustrator 26.5.3, SVG Export Plug-In . SVG Version: 6.00 Build 0)  -->
<svg version="1.1" id="레이어_1" xmlns="http://www.w3.org/2000/svg" xmlns:xlink="http://www.w3.org/1999/xlink" x="0px"
	 y="0px" viewBox="0 0 483.7 63.8" style="enable-background:new 0 0 483.7 63.8;" xml:space="preserve">
<style type="text/css">
	.st0{fill:#FFFFFF;}
	.st1{fill:url(#SVGID_1_);}
	.st2{fill:url(#SVGID_00000047760829397290258950000010896066552701341070_);}
</style>
<g id="Layer_2">
	<g id="Blue">
		<path class="st0" d="M107.9,60c-3.6,2.4-9.3,3.4-15.3,3.4c-19,0-29.7-11.4-29.7-29.7c0-17.6,10.7-29.9,29.6-29.9
			c5.6,0,11.3,1.1,15.4,4v7.7c-4.1-2.6-8.7-4-15.4-4c-13.6,0-21.7,9-21.7,22.3s8.4,22.1,22.1,22.1c5.2,0,10.4-1.2,15-3.5L107.9,60z"
			/>
		<path class="st0" d="M113.4,40.5c0-13.2,7.7-22.8,20.9-22.8s20.8,9.6,20.8,22.8s-7.7,23-20.8,23S113.4,53.7,113.4,40.5z
			 M120.8,40.5c0,8.4,4.1,15.9,13.6,15.9s13.4-7.6,13.4-15.9s-4-15.8-13.4-15.8S120.8,32.1,120.8,40.5L120.8,40.5z"/>
		<path class="st0" d="M201.4,62.6h-7.6V36c0-7.9-3.2-11.4-10.4-11.4c-7,0-11.9,4.7-11.9,13.5v24.5H164v-44h7.6v7.2
			c2.7-5.1,8.1-8.2,13.9-8.1c10.1,0,15.9,7,15.9,19.1L201.4,62.6z"/>
		<path class="st0" d="M222.4,18.6h11.4v7h-11.4v37H215v-37h-7.1v-7h7.1v-4.8C215,5.6,219.6,0,229,0c1.7,0,3.4,0.2,5.1,0.7v7
			c-1.6-0.3-3.2-0.4-4.8-0.4c-4.7,0-7,2.7-7,6.7L222.4,18.6z"/>
		<path class="st0" d="M253.7,62.8c-7.2,0-11.8-3.4-11.8-11.5V0.2h7.6v50.2c0,4,2.6,5.4,5.9,5.4c0.7,0,1.5,0,2.2-0.1v6.8
			C256.3,62.8,255,62.9,253.7,62.8z"/>
		<path class="st0" d="M264,18.6h7.6v26.6c0,7.9,3.2,11.4,10.4,11.4c7,0,11.9-4.7,11.9-13.5V18.6h7.6v44h-7.6v-7.2
			c-2.7,5.1-8.1,8.2-13.9,8.1c-10.1,0-15.9-7-15.9-19.1L264,18.6z"/>
		<path class="st0" d="M333.9,63.5c-16.5,0-23.7-9.5-23.7-23c0-13.3,7.4-22.8,20.8-22.8c13.5,0,19,9.4,19,22.8v3.4h-32.1
			c1.1,7.5,5.9,12.3,16.3,12.3c4.6,0,9.1-0.8,13.4-2.4v7C343.9,62.7,338.4,63.5,333.9,63.5z M317.8,37.5h24.5
			c-0.4-8.2-4.1-12.9-11.7-12.9C322.6,24.6,318.6,29.7,317.8,37.5L317.8,37.5z"/>
		<path class="st0" d="M396.4,62.6h-7.6V36c0-7.9-3.2-11.4-10.4-11.4c-7,0-11.9,4.7-11.9,13.5v24.5H359v-44h7.6v7.2
			c2.7-5.1,8.1-8.2,13.9-8.1c10.1,0,15.9,7,15.9,19.1L396.4,62.6z"/>
		<path class="st0" d="M438,61.4c-2.6,1.4-6.7,2-10.7,2c-15.7,0-23-9.5-23-23c0-13.3,7.3-22.8,23-22.8c3.6-0.1,7.2,0.6,10.5,2.1v7
			c-3.1-1.5-6.5-2.2-9.9-2.1c-11.4,0-16.1,7.2-16.1,15.8s4.8,15.9,16.3,15.9c3.4,0.1,6.8-0.4,10-1.6L438,61.4z"/>
		<path class="st0" d="M467.6,63.5c-16.5,0-23.7-9.5-23.7-23c0-13.3,7.4-22.8,20.8-22.8c13.5,0,19,9.4,19,22.8v3.4h-32.1
			c1.1,7.5,5.9,12.3,16.3,12.3c4.6,0,9.1-0.8,13.4-2.4v7C477.7,62.7,472.1,63.5,467.6,63.5z M451.5,37.5h24.5
			c-0.4-8.2-4.1-12.9-11.7-12.9C456.4,24.6,452.3,29.7,451.5,37.5L451.5,37.5z"/>
		
			<linearGradient id="SVGID_1_" gradientUnits="userSpaceOnUse" x1="59.7224" y1="498.3386" x2="20.3924" y2="520.9386" gradientTransform="matrix(1 0 0 -1 0 566.0005)">
			<stop  offset="0.18" style="stop-color:#0052CC"/>
			<stop  offset="1" style="stop-color:#2684FF"/>
		</linearGradient>
		<path class="st1" d="M2.3,49.5c-0.6,1.1-1.4,2.3-2,3.3c-0.6,0.9-0.3,2.1,0.7,2.7l13,8c0.9,0.6,2.2,0.3,2.8-0.7c0,0,0,0,0,0
			c0.5-0.9,1.2-2,1.9-3.2c5.1-8.5,10.3-7.5,19.7-3l12.9,6.1c1,0.5,2.2,0.1,2.7-0.9c0,0,0,0,0-0.1l6.2-14c0.4-1,0-2.2-1-2.6
			c-2.7-1.3-8.1-3.8-13-6.2C28.6,30.5,13.7,31,2.3,49.5z"/>
		
			<linearGradient id="SVGID_00000080185052658930607520000011165681774581003186_" gradientUnits="userSpaceOnUse" x1="-177.7874" y1="2640.3447" x2="-217.1274" y2="2662.9548" gradientTransform="matrix(-1 0 0 1 -174.671 -2640.71)">
			<stop  offset="0.18" style="stop-color:#0052CC"/>
			<stop  offset="1" style="stop-color:#2684FF"/>
		</linearGradient>
		<path style="fill:url(#SVGID_00000080185052658930607520000011165681774581003186_);" d="M60.6,17.8c0.7-1.1,1.4-2.3,2-3.3
			c0.6-0.9,0.3-2.1-0.7-2.7l-13-8c-0.9-0.6-2.2-0.4-2.8,0.5c0,0-0.1,0.1-0.1,0.1c-0.5,0.9-1.2,2-1.9,3.2c-5.2,8.5-10.3,7.5-19.7,3
			L11.6,4.5c-1-0.5-2.2-0.1-2.7,0.9c0,0,0,0,0,0.1l-6.2,14c-0.4,1,0,2.2,1,2.6c2.7,1.3,8.1,3.8,13,6.2
			C34.3,36.8,49.2,36.3,60.6,17.8z"/>
	</g>
</g>
</svg>
