<?xml version="1.0" encoding="utf-8"?>
<!-- Generator: Adobe Illustrator 26.5.3, SVG Export Plug-In . SVG Version: 6.00 Build 0)  -->
<svg version="1.1"
	 id="svg8" xmlns:svg="http://www.w3.org/2000/svg" xmlns:inkscape="http://www.inkscape.org/namespaces/inkscape" xmlns:sodipodi="http://sodipodi.sourceforge.net/DTD/sodipodi-0.dtd" xmlns:rdf="http://www.w3.org/1999/02/22-rdf-syntax-ns#" xmlns:dc="http://purl.org/dc/elements/1.1/" xmlns:cc="http://creativecommons.org/ns#" inkscape:version="0.92.5 (2060ec1f9f, 2020-04-08)" sodipodi:docname="discord logo.svg"
	 xmlns="http://www.w3.org/2000/svg" xmlns:xlink="http://www.w3.org/1999/xlink" x="0px" y="0px" viewBox="0 0 501.8 103.5"
	 style="enable-background:new 0 0 501.8 103.5;" xml:space="preserve">
<style type="text/css">
	.st0{fill:#5865F2;}
</style>
<sodipodi:namedview  bordercolor="#666666" borderopacity="1.0" fit-margin-bottom="0" fit-margin-left="0" fit-margin-right="0" fit-margin-top="0" id="base" inkscape:current-layer="layer1" inkscape:cx="223.89268" inkscape:cy="159.75115" inkscape:document-units="mm" inkscape:pageopacity="0.0" inkscape:pageshadow="2" inkscape:window-height="1017" inkscape:window-maximized="1" inkscape:window-width="1920" inkscape:window-x="1912" inkscape:window-y="70" inkscape:zoom="0.84107037" pagecolor="#ffffff" showgrid="false">
	</sodipodi:namedview>
<g id="layer1" transform="translate(-5.830756,-135.19888)" inkscape:groupmode="layer" inkscape:label="Layer 1">
	<g id="g866" transform="matrix(0.65270126,0,0,0.64657539,5.830756,127.59218)">
		<g>
			<g id="g835">
				<g>
					<g id="g833">
						<path id="path815" inkscape:connector-curvature="0" class="st0" d="M175.2,25.2c-13.4-6.3-27.7-10.8-42.7-13.4
							c-1.8,3.3-4,7.8-5.5,11.3c-15.9-2.4-31.7-2.4-47.3,0c-1.5-3.6-3.7-8-5.5-11.3c-15,2.6-29.3,7.2-42.7,13.4
							C4.5,66-2.8,105.8,0.9,145c17.9,13.4,35.3,21.5,52.3,26.8c4.2-5.8,8-12,11.2-18.5c-6.2-2.3-12.1-5.2-17.6-8.6
							c1.5-1.1,2.9-2.2,4.3-3.4c34,15.9,71,15.9,104.6,0c1.4,1.2,2.9,2.3,4.3,3.4c-5.6,3.4-11.5,6.3-17.7,8.6
							c3.2,6.5,7,12.7,11.2,18.5c17.1-5.3,34.4-13.4,52.4-26.8C210.2,99.5,198.6,60.1,175.2,25.2z M69,120.9
							c-10.2,0-18.6-9.5-18.6-21.1S58.6,78.6,69,78.6c10.4,0,18.8,9.5,18.6,21.2C87.6,111.4,79.4,120.9,69,120.9z M137.7,120.9
							c-10.2,0-18.6-9.5-18.6-21.1s8.2-21.2,18.6-21.2c10.4,0,18.8,9.5,18.6,21.2C156.3,111.4,148.1,120.9,137.7,120.9z"/>
						<path id="path817" inkscape:connector-curvature="0" class="st0" d="M219.4,52.6h44.4c10.7,0,19.7,1.7,27.2,5.1
							c7.4,3.4,12.9,8.2,16.6,14.2c3.7,6.1,5.5,13,5.5,20.9c0,7.7-1.9,14.6-5.8,20.9c-3.8,6.2-9.7,11.2-17.5,14.8
							c-7.9,3.6-17.6,5.5-29.2,5.5h-41.2V52.6z M260.1,113.3c7.2,0,12.8-1.8,16.6-5.5c3.9-3.7,5.8-8.7,5.8-15.1
							c0-5.9-1.7-10.6-5.2-14.1c-3.4-3.5-8.7-5.3-15.6-5.3h-13.9v40H260.1z"/>
						<path id="path819" inkscape:connector-curvature="0" class="st0" d="M379.6,133.9c-6.1-1.6-11.7-4-16.6-7.1v-19.3
							c3.7,2.9,8.7,5.4,15,7.3c6.3,1.9,12.3,2.8,18.2,2.8c2.7,0,4.8-0.4,6.2-1.1c1.4-0.7,2.1-1.6,2.1-2.6c0-1.2-0.4-2.1-1.1-2.9
							c-0.8-0.8-2.2-1.4-4.4-2l-13.7-3.1c-7.8-1.9-13.4-4.4-16.7-7.7c-3.3-3.3-4.9-7.6-4.9-13c0-4.5,1.4-8.4,4.3-11.7
							c2.9-3.3,7-5.9,12.3-7.7c5.3-1.8,11.5-2.7,18.7-2.7c6.4,0,12.2,0.7,17.5,2.1c5.3,1.4,9.7,3.2,13.2,5.3v18.3
							c-3.6-2.2-7.7-3.9-12.4-5.2c-4.7-1.3-9.5-1.9-14.4-1.9c-7.1,0-10.7,1.2-10.7,3.7c0,1.2,0.6,2,1.7,2.6c1.1,0.6,3.1,1.2,6.1,1.8
							l11.4,2.1c7.4,1.3,13,3.6,16.6,6.9c3.6,3.3,5.5,8.2,5.5,14.6c0,7.1-3,12.7-9,16.8c-6,4.2-14.6,6.2-25.7,6.2
							C392,136.3,385.7,135.5,379.6,133.9L379.6,133.9z"/>
						<path id="path821" inkscape:connector-curvature="0" class="st0" d="M460.2,131.4c-6.5-3.3-11.4-7.7-14.7-13.3
							c-3.3-5.6-4.9-11.9-4.9-18.8c0-7,1.7-13.2,5.1-18.7c3.4-5.5,8.4-9.8,15-13c6.6-3.1,14.5-4.7,23.7-4.7
							c11.4,0,20.8,2.4,28.3,7.3v21.3c-2.7-1.9-5.7-3.4-9.3-4.5c-3.5-1.2-7.3-1.7-11.3-1.7c-7.1,0-12.6,1.3-16.6,4
							c-4,2.6-6,6.1-6,10.3c0,4.2,1.9,7.6,5.8,10.3c3.9,2.7,9.5,4,16.8,4c3.8,0,7.5-0.6,11.2-1.7c3.7-1.1,6.8-2.5,9.5-4.1v20.6
							c-8.3,5.1-18,7.7-29,7.7C474.6,136.3,466.7,134.7,460.2,131.4L460.2,131.4z"/>
						<path id="path823" inkscape:connector-curvature="0" class="st0" d="M541.1,131.4c-6.6-3.3-11.6-7.7-15-13.4
							c-3.4-5.7-5.2-12-5.2-19c0-7,1.7-13.2,5.2-18.7c3.5-5.5,8.4-9.8,15-12.9c6.5-3.1,14.3-4.7,23.3-4.7c9,0,16.8,1.5,23.3,4.7
							c6.5,3.1,11.5,7.4,14.9,12.8c3.4,5.4,5.1,11.7,5.1,18.7c0,7-1.7,13.3-5.1,19c-3.4,5.7-8.4,10.1-15,13.4
							c-6.6,3.3-14.3,4.9-23.3,4.9C555.4,136.3,547.6,134.7,541.1,131.4L541.1,131.4z M575.7,110.8c2.8-2.8,4.2-6.6,4.2-11.2
							s-1.4-8.4-4.2-11.1c-2.8-2.8-6.5-4.1-11.3-4.1c-4.9,0-8.7,1.4-11.5,4.1c-2.8,2.8-4.1,6.4-4.1,11.1s1.4,8.4,4.1,11.2
							c2.8,2.8,6.6,4.3,11.5,4.3C569.1,115,572.9,113.6,575.7,110.8z"/>
						<path id="path825" inkscape:connector-curvature="0" class="st0" d="M676.1,67.3v25.1c-2.9-1.9-6.6-2.9-11.3-2.9
							c-6.1,0-10.8,1.9-14,5.6c-3.3,3.8-4.9,9.6-4.9,17.5V134h-27.9V66h27.3v21.6c1.5-7.9,4-13.7,7.4-17.5c3.4-3.8,7.7-5.6,13-5.6
							C669.8,64.5,673.2,65.4,676.1,67.3z"/>
						<path id="path827" inkscape:connector-curvature="0" class="st0" d="M768.8,50.3V134h-27.9v-15.2c-2.4,5.7-5.9,10.1-10.7,13.1
							c-4.8,3-10.8,4.5-17.8,4.5c-6.3,0-11.8-1.6-16.5-4.7c-4.7-3.1-8.3-7.4-10.9-12.9c-2.5-5.5-3.8-11.6-3.8-18.6
							c-0.1-7.1,1.3-13.5,4.1-19.2c2.8-5.7,6.7-10.1,11.7-13.3c5-3.2,10.8-4.8,17.3-4.8c13.3,0,22.2,5.9,26.8,17.7V50.3H768.8z
							 M736.8,110.3c2.8-2.8,4.3-6.5,4.3-11c0-4.3-1.4-7.9-4.1-10.6c-2.8-2.7-6.6-4.1-11.3-4.1c-4.7,0-8.5,1.4-11.3,4.1
							c-2.8,2.8-4.2,6.3-4.2,10.7s1.4,8,4.2,10.8c2.8,2.8,6.5,4.2,11.2,4.2C730.1,114.6,733.9,113.2,736.8,110.3L736.8,110.3z"/>
						<path id="path829" inkscape:connector-curvature="0" class="st0" d="M336.6,73.2c7.7,0,13.9-5.7,13.9-12.8
							s-6.2-12.8-13.9-12.8c-7.7,0-13.9,5.7-13.9,12.8S328.9,73.2,336.6,73.2z"/>
						<path id="path831" inkscape:connector-curvature="0" class="st0" d="M322.7,82c8.5,3.8,19.1,3.9,27.8,0v52.4h-27.8V82z"/>
					</g>
				</g>
			</g>
		</g>
	</g>
</g>
</svg>
