<?xml version="1.0" encoding="UTF-8"?><svg id="b" xmlns="http://www.w3.org/2000/svg" viewBox="0 0 415.2 86.5"><defs><style>.d{fill:#fff;}.e{fill:#2496ed;}</style></defs><g id="c"><g><path class="e" d="M346,80.5c-7.5,0-14.6-3.2-19.5-8.9-4.5-5.2-6.7-11.9-6.2-18.7,.5-6.9,3.6-13.1,8.8-17.6,4.7-4,10.7-6.3,16.8-6.3,10.4,0,19.8,6.3,23.9,15.8,1.3,3.2,1.9,6.5,1.9,9.9,0,1.5-.6,3-1.7,4-1,1-2.4,1.6-3.9,1.6h-33.7c.4,1,1,2,1.6,2.9,.9,1.2,2,2.3,3.2,3.2,1.2,.9,2.6,1.6,4.1,2.1,1.5,.5,3,.7,4.6,.7h.2c1.7,0,3.3-.3,4.8-.8,1.5-.6,2.9-1.4,4.2-2.5,1-.9,2.2-1.4,3.5-1.5,0,0,0,0,0,0,0,0,.2,0,.2,0,3,0,5.4,2.3,5.5,5.3,0,.1,0,.2,0,.3,0,1.4-.6,2.9-1.6,4-4.7,4.1-10.7,6.3-16.9,6.3Zm13.4-31.4c-.4-1-1-2-1.6-2.9-1.8-2.5-4.4-4.3-7.3-5.3-1.5-.5-3-.7-4.5-.7h0c-1.6,0-3.1,.2-4.6,.7-1.5,.5-2.9,1.2-4.1,2.1-1.2,.9-2.3,2-3.2,3.2-.6,.9-1.2,1.9-1.6,2.9h27Zm-109.1,31.4c-7.5,0-14.6-3.3-19.5-8.9-4.5-5.2-6.7-11.9-6.2-18.7,.5-6.9,3.7-13.1,8.9-17.6,4.7-4,10.7-6.3,16.8-6.3s12.2,2.2,16.8,6.3c1.3,1.1,2,2.6,1.9,4.3,0,1.5-.5,2.9-1.6,4-1,1-2.4,1.6-3.9,1.6,0,0-.1,0-.1,0-1.3,0-2.6-.5-3.6-1.3-1.3-1.2-2.8-2.1-4.5-2.7-1.6-.6-3.2-.9-4.9-.9h-.1c-2,0-3.9,.4-5.6,1.1-1.7,.7-3.3,1.8-4.6,3.1-1.3,1.3-2.4,2.9-3.1,4.6-1.5,3.6-1.5,7.7,0,11.3,.7,1.7,1.8,3.3,3.1,4.6,1.3,1.3,2.9,2.4,4.6,3.1,1.8,.8,3.6,1.1,5.6,1.1h.2c1.7,0,3.3-.3,4.9-.9,1.6-.6,3.1-1.5,4.4-2.7,1.1-.8,2.3-1.2,3.6-1.2h0c3.1,0,5.5,2.4,5.6,5.4,0,0,0,.2,0,.3,0,1.6-.7,3.1-1.8,4.1-4.7,4.1-10.7,6.3-16.8,6.3Zm-109.4,0c-6.9,0-13.4-2.7-18.2-7.6-10-10.1-10-26.4,0-36.4,4.9-4.9,11.3-7.5,18.2-7.5h.4c5.1,0,10,1.5,14.2,4.4V13.3c0-3,2.3-5.5,5.4-5.6h.4c1.5,0,2.8,.6,3.9,1.6,1.1,1,1.7,2.5,1.6,4V54.7c.1,6.8-2.6,13.5-7.6,18.2-4.9,4.8-11.3,7.5-18.2,7.5Zm0-40.3c-2,0-3.9,.4-5.7,1.2-3.5,1.5-6.2,4.2-7.7,7.7-1.5,3.6-1.5,7.7,0,11.2,1.5,3.5,4.2,6.2,7.7,7.7,1.8,.8,3.7,1.2,5.7,1.2s3.9-.4,5.7-1.2c1.7-.7,3.3-1.8,4.6-3.1,1.3-1.3,2.4-2.9,3.1-4.6,.8-1.8,1.1-3.6,1.1-5.5,0-1.9-.4-3.8-1.1-5.6-.7-1.7-1.8-3.3-3.1-4.6-1.3-1.3-2.9-2.4-4.6-3.1-1.8-.8-3.7-1.2-5.7-1.2Zm170.5,40.3c-1.4,0-2.7-.5-3.7-1.5l-19.9-22.4-4.2,2.8v15.4c0,1.5-.6,2.9-1.7,4-1,1-2.4,1.7-3.9,1.7h-.1c-1.5,0-2.9-.6-3.9-1.7-1-1-1.5-2.3-1.6-3.6,0-.1,0-.2,0-.3V13.3c0-3.1,2.5-5.6,5.5-5.6h.1c1.5,0,2.9,.6,4,1.7,1.1,1,1.7,2.5,1.6,4V46l24.9-16.2c.9-.6,1.9-.9,3-.9,.8,0,1.6,.1,2.3,.4,.7,.3,1.3,.7,1.8,1.2,.5,.5,.9,1.1,1.2,1.8,.3,.7,.5,1.4,.5,2.2,.1,1.7-.7,3.5-2.2,4.5l-17.6,11.4,18.2,20.5c1,1,1.5,2.4,1.5,3.9,0,.8-.2,1.5-.5,2.2-.3,.7-.7,1.3-1.2,1.8-.5,.5-1.2,1-1.9,1.2-.7,.3-1.4,.4-2.2,.4h-.1Zm69,0c-1.5,0-2.9-.6-3.9-1.7-1-1-1.6-2.5-1.6-4V34.5c0-1.5,.6-2.9,1.6-4,1-1,2.4-1.6,3.9-1.6s0,0,.1,0c2.7,0,5,1.9,5.5,4.5,1.8-1.3,3.8-2.3,5.9-3,2.7-1,5.6-1.5,8.5-1.5h.2c1.4,0,2.9,.1,4.3,.3,1.5,.2,2.9,.5,4.3,1,1.3,.4,2.5,1.1,3.5,2.1,1,1,1.6,2.4,1.6,3.9,0,.7-.1,1.5-.5,2.2-.3,.7-.7,1.3-1.2,1.8-.5,.5-1.2,1-1.9,1.2-.7,.3-1.4,.4-2.2,.4-.9,0-1.7-.2-2.4-.6-1.7-.7-3.6-1-5.5-1h-.1c-1.9,0-3.8,.4-5.6,1.1-3.5,1.5-6.2,4.2-7.7,7.7-.8,1.8-1.1,3.7-1.1,5.6v20.2c0,3.1-2.5,5.6-5.6,5.6v-1c0,0,0,1,0,1Zm-184.5-.1c-6.9,0-13.4-2.7-18.2-7.6-9.9-10-9.8-26.3,.3-36.2,4.8-4.8,11.2-7.4,18-7.4s13.4,2.7,18.2,7.6c2.3,2.3,4.1,5.1,5.4,8.1,1.3,3.1,2,6.5,2,9.9,0,.1,0,.2,0,.3,0,6.7-2.7,13.2-7.6,17.9-4.8,4.7-11.2,7.4-18,7.4Zm-.4-40.1c-1.9,0-3.8,.4-5.6,1.2-3.5,1.5-6.2,4.2-7.7,7.7-1.5,3.6-1.5,7.7,0,11.2,1.5,3.5,4.2,6.2,7.7,7.7,1.8,.8,3.7,1.2,5.7,1.2s3.9-.4,5.7-1.2c1.7-.7,3.3-1.8,4.6-3.1,1.3-1.3,2.4-2.9,3.1-4.6,1.5-3.6,1.5-7.7,0-11.2-.7-1.7-1.8-3.3-3.1-4.6-1.3-1.3-2.9-2.4-4.6-3.1-1.7-.7-3.6-1.1-5.5-1.1h-.3Z"/><path class="d" d="M278,8.6c1.2,0,2.4,.5,3.2,1.4,.9,.9,1.4,2.1,1.4,3.3V47.8l26.4-17.2c.7-.5,1.6-.7,2.4-.7s0,0,0,0c0,0,0,0,0,0,.6,0,1.2,.1,1.8,.4,.6,.2,1.1,.6,1.5,1,.4,.4,.8,.9,1,1.5,.2,.6,.4,1.2,.4,1.8,0,1.5-.6,2.8-1.8,3.7l-18.5,12,19,21.4c.8,.9,1.3,2,1.3,3.2,0,.6-.1,1.2-.4,1.8-.2,.6-.6,1.1-1,1.5-.4,.4-.9,.8-1.5,1-.6,.2-1.2,.4-1.8,.4s0,0,0,0c0,0,0,0-.1,0-1.1,0-2.2-.4-3-1.2l-20.4-22.9-5.4,3.5v16c0,1.2-.5,2.4-1.4,3.3-.8,.9-2,1.4-3.2,1.4s0,0,0,0c0,0,0,0,0,0-1.2,0-2.4-.5-3.2-1.4-.9-.9-1.3-2-1.3-3.3h0V13.3c0-2.5,2-4.6,4.6-4.7,0,0,0,0,0,0s0,0,0,0c0,0,0,0,0,0m-116.8,0c1.2,0,2.3,.5,3.2,1.3,.9,.9,1.4,2.1,1.3,3.3V54.7c.1,6.6-2.5,12.9-7.3,17.5-4.8,4.8-11.2,7.2-17.5,7.2s-12.7-2.4-17.5-7.3c-9.7-9.7-9.7-25.4,0-35,4.6-4.6,10.9-7.2,17.5-7.2,0,0,0,0,0,0h0s0,0,0,0c.1,0,.2,0,.4,0,5.5,0,10.9,1.9,15.2,5.4V13.3c0-2.5,1.9-4.5,4.4-4.6,0,0,0,0,.1,0s0,0,.1,0c0,0,0,0,.1,0m-20.3,61.5c2.1,0,4.1-.4,6.1-1.2,1.8-.8,3.5-1.9,4.9-3.4,1.4-1.4,2.5-3.1,3.3-4.9,.8-1.9,1.2-3.9,1.2-5.9,0-2.1-.4-4.1-1.2-6-.8-1.8-1.9-3.5-3.3-4.9-1.4-1.4-3.1-2.6-4.9-3.4-1.9-.8-4-1.2-6.1-1.2s-4.1,.4-6.1,1.2c-3.7,1.6-6.6,4.5-8.2,8.3-1.6,3.8-1.6,8.2,0,12,1.6,3.7,4.5,6.7,8.2,8.3,1.9,.8,4,1.2,6.1,1.2M380.4,29.9s0,0,0,0c2.5,0,4.6,2.1,4.6,4.6h0v.9c2.2-1.7,4.6-3.1,7.2-4.1,2.6-.9,5.4-1.4,8.1-1.4s.1,0,.2,0c1.4,0,2.8,0,4.2,.3,1.4,.2,2.8,.5,4.1,.9,1.2,.4,2.2,1,3.1,1.9,.8,.8,1.3,1.9,1.2,3.1,0,.6-.1,1.2-.4,1.8-.2,.6-.6,1.1-1,1.5-.4,.4-.9,.8-1.5,1-.6,.2-1.2,.4-1.8,.4s0,0,0,0c-.7,0-1.3-.2-2-.5-1.9-.7-3.9-1.1-5.9-1.1,0,0,0,0,0,0,0,0,0,0,0,0-2,0-4.1,.4-6,1.2-3.7,1.6-6.7,4.5-8.3,8.2-.8,1.9-1.2,3.9-1.2,6v20.2c0,2.5-2.1,4.6-4.6,4.6,0,0,0,0,0,0-1.2,0-2.4-.5-3.2-1.4-.9-.9-1.4-2-1.4-3.3V34.5c0-1.2,.5-2.4,1.4-3.3,.8-.9,2-1.4,3.2-1.4m-130.1,0c5.8,0,11.5,2,16.2,6,1,.9,1.6,2.2,1.6,3.5,0,1.2-.4,2.4-1.3,3.3-.8,.8-2,1.3-3.2,1.3s0,0-.1,0c0,0,0,0,0,0-1.1,0-2.1-.4-3-1.1-1.4-1.2-3-2.2-4.7-2.9-1.7-.6-3.5-1-5.3-1,0,0,0,0-.1,0,0,0,0,0,0,0-2,0-4.1,.4-6,1.2-1.8,.8-3.5,1.9-4.9,3.3-1.4,1.4-2.6,3.1-3.3,4.9-1.6,3.9-1.6,8.2,0,12.1,.8,1.8,1.9,3.5,3.3,4.9,1.4,1.4,3.1,2.5,4.9,3.3,1.9,.8,3.9,1.2,6,1.2s0,0,0,0c0,0,.1,0,.2,0,1.8,0,3.6-.3,5.2-.9,1.7-.7,3.3-1.6,4.7-2.9,.9-.6,1.9-1,3-1h0s0,0,0,0h0s0,0,0,0c0,0,0,0,0,0,2.4,0,4.4,1.9,4.5,4.4,0,0,0,.1,0,.2,0,1.3-.5,2.5-1.5,3.4-4.7,4-10.4,6-16.2,6s-13.9-2.9-18.8-8.6c-8.9-10.4-7.8-26,2.6-34.9,4.6-4,10.4-6,16.2-6m95.7,0h0c10,0,19,6,22.9,15.2,1.2,3,1.8,6.3,1.8,9.5,0,1.2-.5,2.4-1.4,3.3-.8,.8-2,1.3-3.2,1.3s0,0-.1,0h-35c.5,1.6,1.2,3.1,2.2,4.5,1,1.3,2.1,2.5,3.4,3.4,1.3,1,2.8,1.7,4.3,2.2,1.6,.5,3.2,.8,4.9,.8s0,0,0,0c0,0,.1,0,.2,0,1.8,0,3.5-.3,5.2-.9,1.6-.6,3.2-1.5,4.5-2.7,.8-.8,1.9-1.2,3-1.2h0c0,0,.1,0,.2,0,2.4,0,4.4,1.9,4.5,4.3,0,0,0,.2,0,.3,0,1.2-.5,2.4-1.3,3.3-4.7,4-10.4,6-16.2,6s-13.8-2.9-18.7-8.6c-8.9-10.3-7.8-26,2.5-34.9,4.5-3.9,10.2-6,16.2-6m0,9.2s0,0,0,0c-1.7,0-3.3,.3-4.9,.8-1.6,.5-3,1.3-4.4,2.2-1.3,1-2.5,2.1-3.4,3.4-1,1.4-1.7,2.9-2.2,4.5h29.8c-.5-1.6-1.2-3.1-2.2-4.5-1.9-2.7-4.7-4.6-7.8-5.7-1.6-.5-3.2-.8-4.9-.8s0,0,0,0m-150-9c6.3,0,12.7,2.4,17.5,7.3,2.2,2.2,4,4.9,5.2,7.8,1.2,3,1.9,6.2,1.9,9.5h0c.1,6.6-2.5,12.9-7.3,17.5-4.8,4.7-11,7.1-17.3,7.1s-12.7-2.4-17.5-7.3c-9.5-9.7-9.4-25.2,.2-34.8,4.8-4.7,11-7.1,17.3-7.1m-.2,9s0,0-.1,0c-2.1,0-4.1,.4-6,1.2-3.7,1.6-6.6,4.5-8.2,8.3-1.6,3.8-1.6,8.2,0,12,1.6,3.7,4.5,6.7,8.2,8.3,1.9,.8,4,1.2,6.1,1.2s4.1-.4,6.1-1.2c1.8-.8,3.5-1.9,4.9-3.4,1.4-1.4,2.5-3.1,3.3-4.9,1.6-3.8,1.6-8.2,0-12-.8-1.8-1.9-3.5-3.3-4.9-1.4-1.4-3.1-2.6-4.9-3.4-1.8-.8-3.8-1.2-5.8-1.2s-.1,0-.2,0h0M278,6.6s0,0,0,0v2s0-2,0-2c-3.6,0-6.6,3-6.5,6.7v61.5c0,.2,0,.4,0,.5,.1,1.5,.8,3,1.9,4.1,1.2,1.2,2.9,2,4.6,2h0s0,0,0,0c1.7,0,3.4-.7,4.6-2,1.2-1.2,1.9-2.9,1.9-4.7v-14.9s3.1-2,3.1-2l19.3,21.7s0,0,.1,.1c1.2,1.1,2.7,1.8,4.4,1.8h.1c.9,0,1.8-.2,2.6-.5,.8-.3,1.5-.8,2.1-1.4,.6-.6,1.1-1.3,1.4-2.1,.4-.8,.5-1.7,.5-2.6,0-1.7-.6-3.3-1.8-4.6l-17.5-19.6,16.6-10.7s0,0,0,0c1.7-1.2,2.8-3.3,2.6-5.4,0-.9-.2-1.7-.5-2.5-.3-.7-.8-1.4-1.4-2.1-.7-.7-1.4-1.1-2.2-1.5-.8-.3-1.6-.5-2.5-.5h0c-1.2,0-2.4,.4-3.5,1l-23.4,15.2V13.3c0-1.7-.7-3.5-2-4.7-1.2-1.2-2.9-1.9-4.6-1.9h0Zm-116.8,0s0,0-.1,0h0s-.2,0-.2,0c-3.6,0-6.4,3.1-6.3,6.7V31.5c-4-2.3-8.5-3.6-13.2-3.6s-.3,0-.4,0c-7.1,0-13.8,2.8-18.9,7.8-10.4,10.4-10.4,27.4,0,37.9,5.1,5.1,11.8,7.8,18.9,7.8s13.9-2.8,18.9-7.8c5.1-4.9,8-11.8,7.8-19V13.3c0-1.8-.7-3.5-2-4.8-1.2-1.2-2.8-1.9-4.6-1.9h0Zm-20.3,61.5c-1.8,0-3.6-.4-5.3-1.1-3.2-1.4-5.8-3.9-7.1-7.2-1.4-3.3-1.4-7.1,0-10.5,1.4-3.3,3.9-5.8,7.1-7.2,1.7-.7,3.5-1.1,5.3-1.1s3.6,.4,5.3,1.1c1.6,.7,3.1,1.7,4.3,2.9,1.2,1.2,2.2,2.7,2.9,4.3,.7,1.7,1.1,3.4,1.1,5.2,0,1.8-.3,3.5-1.1,5.2-.7,1.6-1.7,3.1-2.9,4.3-1.2,1.2-2.7,2.2-4.3,2.9-1.7,.7-3.5,1.1-5.3,1.1h0ZM380.4,27.9h0c-1.7,0-3.4,.7-4.6,2-1.2,1.2-1.9,2.9-1.9,4.7v40.3c0,1.7,.7,3.5,2,4.7,1.2,1.2,2.9,1.9,4.6,1.9h.1c3.6,0,6.6-3,6.6-6.6v-20.2c0-1.8,.3-3.6,1.1-5.2,1.4-3.3,3.9-5.8,7.2-7.2,1.7-.7,3.4-1.1,5.2-1.1,0,0,0,0,0,0s0,0,0,0h0c1.8,0,3.5,.3,5.1,.9,.8,.4,1.7,.6,2.7,.6,0,0,0,0,0,0,.9,0,1.8-.2,2.6-.5,.8-.3,1.5-.8,2.1-1.4,.6-.6,1.1-1.3,1.4-2.1,.4-.8,.5-1.7,.5-2.6,0-1.7-.6-3.4-1.9-4.6-1.1-1.1-2.4-1.8-3.9-2.3-1.5-.5-3-.9-4.5-1-1.4-.2-2.9-.3-4.4-.3h-.2c-3,0-6,.5-8.8,1.5-1.8,.6-3.4,1.4-5,2.4-1-2.3-3.4-4-6.1-4h0Zm-130.1,0c-6.4,0-12.6,2.3-17.5,6.5-5.4,4.7-8.7,11.2-9.2,18.3-.5,7.1,1.8,14,6.4,19.5,5.1,5.9,12.5,9.3,20.3,9.3s12.6-2.3,17.5-6.5c0,0,0,0,0,0,1.4-1.2,2.1-3,2.1-4.9,0,0,0-.2,0-.3,0-3.5-3-6.3-6.5-6.3h0c-1.5,0-3,.5-4.1,1.4,0,0,0,0-.1,.1-1.2,1.1-2.6,1.9-4.1,2.5-1.4,.5-3,.8-4.5,.8h-.1s0,0,0,0h0c-1.8,0-3.5-.4-5.2-1.1-1.6-.7-3.1-1.7-4.3-2.9-1.2-1.2-2.2-2.7-2.9-4.3-1.4-3.4-1.4-7.2,0-10.6,.7-1.6,1.7-3.1,2.9-4.3,1.2-1.2,2.7-2.2,4.3-2.9,1.6-.7,3.4-1.1,5.2-1.1h.2c1.6,0,3.1,.3,4.5,.8,1.5,.6,2.9,1.5,4.1,2.5,1.2,1,2.7,1.5,4.3,1.5h.1c1.7,0,3.4-.7,4.6-1.9,1.2-1.3,1.9-3,1.9-4.7,0-1.9-.8-3.8-2.3-5-4.8-4.2-11.1-6.5-17.5-6.5h0Zm95.7,0h0c-6.4,0-12.6,2.3-17.5,6.5-11.2,9.7-12.4,26.6-2.7,37.8,5.1,5.9,12.5,9.3,20.3,9.3s12.6-2.3,17.5-6.5c0,0,0,0,.1-.1,1.2-1.2,1.9-3,1.9-4.7,0-.1,0-.2,0-.3-.1-3.5-3-6.3-6.5-6.3s-.1,0-.2,0c0,0-.1,0-.2,0-1.5,.1-3,.7-4.1,1.7-1.1,1-2.4,1.7-3.9,2.3-1.4,.5-2.9,.8-4.5,.8h-.2s0,0,0,0c-1.4,0-2.9-.2-4.2-.7-1.4-.5-2.6-1.1-3.8-2-1.2-.8-2.2-1.9-3-3-.3-.4-.6-.9-.8-1.3h32c0,0,.1,0,.2,0,1.7,0,3.4-.7,4.6-1.9,1.3-1.2,2-2.9,1.9-4.7,0-3.5-.6-7-2-10.3-4.3-10-14-16.4-24.8-16.5,0,0,0,0,0,0h0Zm-12,20.1c.2-.5,.5-.9,.8-1.3,.8-1.2,1.8-2.2,3-3,1.2-.8,2.5-1.5,3.8-2,1.4-.5,2.8-.7,4.3-.7h0c1.4,0,2.9,.2,4.2,.7,2.8,.9,5.1,2.6,6.8,5,.3,.4,.6,.9,.8,1.3h-23.9ZM195.9,28.1h0c-7,0-13.7,2.7-18.7,7.7-5.1,5-7.9,11.6-7.9,18.7s2.7,13.8,7.7,18.9c5,5.1,11.8,7.9,18.9,7.9s13.7-2.7,18.7-7.7c5-4.8,7.9-11.5,7.9-18.5,0-.2,0-.3,0-.5,0-3.5-.7-7-2.1-10.2-1.3-3.2-3.2-6-5.6-8.4-5-5.1-11.8-7.9-18.9-7.9h0Zm-.2,13h.2c1.7,0,3.5,.3,5.1,1,1.6,.7,3.1,1.7,4.3,2.9,1.2,1.2,2.2,2.7,2.9,4.3,1.4,3.3,1.4,7.1,0,10.4-.7,1.6-1.7,3.1-2.9,4.3-1.2,1.2-2.7,2.2-4.3,2.9-1.7,.7-3.5,1.1-5.3,1.1s-3.6-.4-5.3-1.1c-3.2-1.4-5.8-3.9-7.1-7.2-1.4-3.3-1.4-7.1,0-10.5,1.4-3.3,3.9-5.8,7.1-7.2,1.7-.7,3.4-1.1,5.2-1.1h.1s0,0,0,0h0Z"/></g><g><path class="e" d="M39.8,85.5c-13.2,0-23.4-4.3-30.3-12.6C.5,61.8,.5,47.5,1.3,42.9l.2-1c.1-.5,.5-.8,1-.8H80c.2,0,.5,0,.5,0,2.3,0,4.7-.5,6.8-1.4-1-1.9-1.7-4.1-1.8-6.3-.4-4.6,.7-9.1,3-13.1l1.7-2.6c.2-.2,.4-.4,.7-.4,0,0,.1,0,.2,0,.2,0,.4,0,.6,.2l2.5,1.8c4.2,3.4,6.7,7.3,7.5,11.5,1.1-.2,2.3-.2,3.5-.2,3.8,0,7.4,.8,9.3,2.1,0,0,0,0,0,0l2.2,1.3c.4,.3,.6,.8,.4,1.3l-.4,.9c-.8,1.7-1,2.1-1.1,2.4-3,5.9-8.4,8.9-16,8.9s-.3,0-.5,0c-10,24.5-31.1,37.9-59.3,37.9Zm26.8-44.5c-.6,0-1-.4-1-1v-11.2c0-.6,.4-1,1-1h11.8c.6,0,1,.4,1,1v11.2c0,.6-.4,1-1,1h-11.8Zm-13.9,0c-.6,0-1-.4-1-1v-11.2c0-.6,.4-1,1-1h11.8c.6,0,1,.4,1,1v11.2c0,.6-.4,1-1,1h-11.8Zm-13.9,0c-.6,0-1-.4-1-1v-11.2c0-.6,.4-1,1-1h11.8c.6,0,1,.4,1,1v11.2c0,.6-.4,1-1,1h-11.8Zm-13.9,0c-.6,0-1-.4-1-1v-11.2c0-.6,.4-1,1-1h11.8c.6,0,1,.4,1,1v11.2c0,.6-.4,1-1,1h-11.8Zm-13.9,0c-.6,0-1-.4-1-1v-11.2c0-.6,.4-1,1-1h11.8c.6,0,1,.4,1,1v11.2c0,.6-.4,1-1,1H10.9Zm41.8-13.4c-.6,0-1-.4-1-1V15.4c0-.6,.4-1,1-1h11.8c.6,0,1,.4,1,1v11.2c0,.6-.4,1-1,1h-11.8Zm-13.9,0c-.6,0-1-.4-1-1V15.4c0-.6,.4-1,1-1h11.8c.6,0,1,.4,1,1v11.2c0,.6-.4,1-1,1h-11.8Zm-13.9,0c-.6,0-1-.4-1-1V15.4c0-.6,.4-1,1-1h11.8c.6,0,1,.4,1,1v11.2c0,.6-.4,1-1,1h-11.8Zm27.9-13.4c-.6,0-1-.4-1-1V2c0-.6,.4-1,1-1h11.8c.6,0,1,.4,1,1V13.2c0,.6-.4,1-1,1h-11.8Z"/><path class="d" d="M64.5,2V13.2h-11.8V2h11.8m0,13.4v11.2h-11.8V15.4h11.8m-13.9,0v11.2h-11.8V15.4h11.8m-13.9,0v11.2h-11.8V15.4h11.8m54.5,2.9l2.5,1.8c4.3,3.5,6.8,7.4,7.3,11.8,1.4-.3,2.9-.4,4.4-.4,3.5,0,6.9,.7,8.7,2h0s2.4,1.4,2.4,1.4l-.4,.9c-.8,1.7-1,2.1-1.1,2.3-3.8,7.6-10.9,8.4-15.1,8.4s-.8,0-1.2,0c-9.8,24.4-30.5,37.9-58.6,37.9s-22.8-4.1-29.5-12.3C1.5,61.5,1.5,47.5,2.3,43.1l.2-.9H80c.2,0,.3,0,.5,0,2.9,0,5.7-.7,8.2-2-1.3-2.1-2.1-4.4-2.2-6.8-.4-4.4,.7-8.7,2.9-12.5l1.7-2.6m-12.6,10.5v11.2h-11.8v-11.2h11.8m-13.9,0v11.2h-11.8v-11.2h11.8m-13.9,0v11.2h-11.8v-11.2h11.8m-13.9,0v11.2h-11.8v-11.2h11.8m-13.9,0v11.2H10.9v-11.2h11.8M64.5,0h-11.8c-1.1,0-2,.9-2,2V13.2c0,0,0,.2,0,.2,0,0-.1,0-.2,0h-11.8c-.4,0-.8,.1-1.1,.3-.3-.2-.7-.3-1.1-.3h-11.8c-1.1,0-2,.9-2,2v11.2c0,0,0,.2,0,.2,0,0-.1,0-.2,0h0s-11.8,0-11.8,0c-1.1,0-2,.9-2,2v11.2c0,0,0,.2,0,.2H2.5c-.9,0-1.7,.6-1.9,1.5l-.2,.9s0,0,0,.1c-.8,4.7-.8,19.4,8.4,30.7,7,8.6,17.5,13,31,13,28.4,0,49.7-13.5,60-37.9,8,0,13.6-3.2,16.8-9.5,.1-.3,.4-.7,1.1-2.4l.4-.9c.4-.9,.1-2-.8-2.6l-2.1-1.3s0,0,0,0c-2.1-1.4-5.8-2.3-9.9-2.3-.9,0-1.9,0-2.7,.1-1-4.1-3.6-7.8-7.7-11.1,0,0,0,0,0,0l-2.5-1.8c-.3-.2-.8-.4-1.2-.4s-.2,0-.4,0c-.5,0-1,.4-1.3,.9l-1.7,2.6s0,0,0,0c-2.5,4.1-3.6,8.9-3.2,13.7,.1,2,.6,3.9,1.5,5.7-1.7,.6-3.6,1-5.4,1s0,0,0,0c0,0,0-.2,0-.2v-11.2c0-.5-.2-1-.6-1.4-.4-.4-.9-.6-1.4-.6h-11.8c0,0-.1,0-.2,0,0,0,0-.2,0-.2V15.4c0-.4-.1-.8-.3-1.1,.2-.3,.3-.7,.3-1.1V2c0-1.1-.9-2-2-2h0Z"/></g></g></svg>