<?xml version="1.0" encoding="utf-8"?>
<!-- Generator: Adobe Illustrator 26.5.3, SVG Export Plug-In . SVG Version: 6.00 Build 0)  -->
<svg version="1.1" id="Layer_1" xmlns="http://www.w3.org/2000/svg" xmlns:xlink="http://www.w3.org/1999/xlink" x="0px" y="0px"
	 viewBox="0 0 109.3 102.2" style="enable-background:new 0 0 109.3 102.2;" xml:space="preserve">
<style type="text/css">
	.st0{fill:#2C2255;}
	.st1{fill:#F7941E;}
	.st2{fill:url(#SVGID_1_);}
	.st3{fill:url(#SVGID_00000071532546311288130530000016698463023836283264_);}
	.st4{fill:url(#SVGID_00000144304163977612403880000017858308298884639880_);}
	.st5{fill:#FFFFFF;}
</style>
<path class="st0" d="M30.1,65.2H13.3c2.2,7.6,6.3,14.4,12.4,20.4c9.6,9.6,21.1,14.4,34.7,14.4c2.7,0,5.3-0.2,7.9-0.6
	c10.2-1.5,19.1-6.1,26.7-13.8c6.1-6,10.2-12.8,12.4-20.4h-6.8h-9.9H30.1z"/>
<g>
	<path class="st0" d="M20.8,42.4h-8.7c-0.3,1.9-0.5,3.9-0.6,5.9h10.4H27h75.3h6.9c-0.1-2-0.3-4-0.6-5.9"/>
	<path class="st0" d="M11.4,53.8c0.1,2,0.3,4,0.6,5.9h9.1H28h73.6h6.8c0.3-1.9,0.5-3.9,0.6-5.9"/>
</g>
<path class="st0" d="M107.3,37c-2.2-7.6-6.4-14.5-12.4-20.5C87.3,8.8,78.4,4.2,68.2,2.7c-2.6-0.4-5.2-0.6-7.9-0.6
	c-13.5,0-25,4.8-34.7,14.3c-6,6.1-10.1,12.9-12.4,20.5"/>
<g>
	<path class="st1" d="M8.5,51.1C8.5,25.3,27.9,3.8,53.1,0c-0.6,0-1.3,0-1.9,0C23,0,0,22.8,0,51.1c0,28.2,23,51.1,51.3,51.1
		c0.6,0,1.3,0,1.9,0C27.9,98.3,8.5,76.9,8.5,51.1z"/>
</g>
<g>
	
		<linearGradient id="SVGID_1_" gradientUnits="userSpaceOnUse" x1="431.35" y1="135.3871" x2="431.35" y2="61.7522" gradientTransform="matrix(1 0 0 1 -371 -28.7258)">
		<stop  offset="0.3033" style="stop-color:#473788"/>
		<stop  offset="0.872" style="stop-color:#2C2255"/>
	</linearGradient>
	<path class="st2" d="M93.6,48.3c-0.2-2-0.5-4-1-5.9H28.1c-0.5,1.9-0.8,3.9-1,5.9H93.6z"/>
	
		<linearGradient id="SVGID_00000048494610185134951410000003715665983822437031_" gradientUnits="userSpaceOnUse" x1="431.3" y1="135.3881" x2="431.3" y2="61.7531" gradientTransform="matrix(1 0 0 1 -371 -28.7258)">
		<stop  offset="0.3033" style="stop-color:#473788"/>
		<stop  offset="0.872" style="stop-color:#2C2255"/>
	</linearGradient>
	<path style="fill:url(#SVGID_00000048494610185134951410000003715665983822437031_);" d="M93.6,53.8H27c0.2,2,0.5,4,1,5.9h64.5
		C93.1,57.8,93.4,55.8,93.6,53.8z"/>
	
		<linearGradient id="SVGID_00000160908150824491154150000006694376044813008565_" gradientUnits="userSpaceOnUse" x1="431.35" y1="135.3852" x2="431.35" y2="61.7557" gradientTransform="matrix(1 0 0 1 -371 -28.7258)">
		<stop  offset="0.3033" style="stop-color:#473788"/>
		<stop  offset="0.8631" style="stop-color:#2C2255"/>
	</linearGradient>
	<path style="fill:url(#SVGID_00000160908150824491154150000006694376044813008565_);" d="M60.3,84.5c13.4,0,24.9-7.9,30.3-19.3
		H30.1C35.4,76.6,46.9,84.5,60.3,84.5z"/>
</g>
<g>
	<path class="st5" d="M22.1,53.8H27h66.7h8.8h6.7c0-0.9,0.1-1.7,0.1-2.6c0-1,0-1.9-0.1-2.8h-6.6h-8.8H27h-5.2H11.4
		c-0.1,0.9-0.1,1.9-0.1,2.8c0,0.9,0,1.8,0.1,2.6H22.1z"/>
	<path class="st5" d="M29.9,37H13.3c-0.5,1.8-0.9,3.6-1.2,5.5h8.5h7.3h64.7h9.2h6.5c-0.3-1.9-0.8-3.7-1.3-5.5"/>
	<path class="st5" d="M102,59.7h-9.2H28.1h-6.9h-9.1c0.3,1.9,0.7,3.7,1.2,5.5h16.8h60.7h10h6.5c0.5-1.8,1-3.6,1.3-5.5
		C108.6,59.7,102,59.7,102,59.7z"/>
</g>
</svg>
