<?xml version="1.0" encoding="utf-8"?>
<!-- Generator: Adobe Illustrator 26.5.3, SVG Export Plug-In . SVG Version: 6.00 Build 0)  -->
<svg version="1.1" id="레이어_1" xmlns="http://www.w3.org/2000/svg" xmlns:xlink="http://www.w3.org/1999/xlink" x="0px"
	 y="0px" viewBox="0 0 157.8 50" style="enable-background:new 0 0 157.8 50;" xml:space="preserve">
<style type="text/css">
	.st0{fill:#0ACF83;}
	.st1{fill:#A259FF;}
	.st2{fill:#F24E1E;}
	.st3{fill:#FF7262;}
	.st4{fill:#1ABCFE;}
</style>
<path d="M125.2,13.1c-1.5,0-2.8,0.3-4,1c-1.2,0.6-2,1.5-2.4,2.7c-0.4-1.2-1.2-2.2-2.4-2.8c-1.2-0.6-2.6-0.9-4.1-0.9
	c-1.5,0-2.8,0.3-4,1c-1.1,0.7-1.9,1.5-2.2,2.4v-2.7h-4.4v24.4h4.5v-15c0-2,0.4-3.4,1.2-4.4c0.8-1,2-1.6,3.5-1.6
	c1.4,0,2.4,0.4,3.1,1.3c0.7,0.8,1.1,2,1.1,3.7v16.1h4.5v-15c0-2,0.4-3.4,1.2-4.4c0.8-1,2-1.6,3.5-1.6c1.4,0,2.4,0.4,3.1,1.3
	c0.7,0.8,1.1,2,1.1,3.7v16.1h4.5V21.5c0-2.7-0.7-4.8-2-6.2C129.7,13.8,127.7,13.1,125.2,13.1z"/>
<path d="M155.5,15.3c-1.6-1.5-3.8-2.2-6.8-2.2c-2.1,0-3.9,0.3-5.4,1c-1.5,0.7-2.7,1.7-3.6,2.9c-0.9,1.2-1.4,2.7-1.6,4.4l4.4,0.6
	c0.2-1.7,0.8-2.9,1.8-3.9c1-0.9,2.5-1.4,4.3-1.4c1.5,0,2.6,0.3,3.5,1c0.9,0.7,1.3,1.6,1.3,2.7c0,0.9-0.2,1.7-0.7,2.1
	c-0.4,0.5-1.2,0.8-2.4,1.1l-5.9,1.2c-2.3,0.4-4,1.2-5.2,2.3c-1.2,1.1-1.8,2.6-1.8,4.4c0,1.4,0.4,2.6,1.1,3.7c0.8,1,1.8,1.9,3.1,2.5
	c1.3,0.6,2.8,0.9,4.4,0.9c1.9,0,3.5-0.4,4.8-1.1c1.3-0.8,2.2-1.7,2.7-2.8v3.2h4.4V20.9C157.8,18.6,157,16.7,155.5,15.3z M152.4,32.4
	c-0.6,0.9-1.4,1.6-2.4,2.1c-1,0.5-2.1,0.8-3.3,0.8c-1.5,0-2.7-0.3-3.5-1c-0.8-0.7-1.3-1.5-1.3-2.6c0-1,0.3-1.9,0.9-2.4
	c0.6-0.6,1.5-1,2.7-1.2l7.9-1.6v2.7C153.4,30.3,153.1,31.4,152.4,32.4z"/>
<polygon points="38.8,3.8 37.8,3.8 37.8,38.2 42.6,38.2 42.6,23.6 58.1,23.6 58.1,19.5 42.6,19.5 42.6,8 60,8 60,3.8 42.6,3.8 "/>
<path d="M91.3,16.9c-0.5-1.1-1.5-2-2.9-2.7c-1.4-0.7-2.9-1.1-4.6-1.1c-2.3,0-4.2,0.5-5.9,1.5c-1.6,1-2.9,2.4-3.9,4.1
	c-0.9,1.8-1.4,3.9-1.4,6.2c0,2.3,0.5,4.4,1.4,6.2c0.9,1.8,2.3,3.2,3.9,4.2c1.7,1,3.6,1.5,5.8,1.5c1.7,0,3.2-0.4,4.5-1.1
	c1.4-0.8,2.3-1.7,2.8-2.9v3.9c0,2.1-0.6,3.8-1.7,4.8c-1.1,1.1-2.8,1.7-5,1.7c-1.8,0-3.4-0.5-4.6-1.4c-1.2-0.9-2-2.1-2.4-3.7L73.2,39
	c0.5,2.5,1.8,4.5,3.7,5.9c1.9,1.4,4.5,2.1,7.6,2.1v0c2.4,0,4.4-0.4,6-1.2c1.7-0.8,3-2,3.8-3.6c0.9-1.5,1.3-3.4,1.3-5.5V13.8h-4.4
	V16.9z M89.5,30.8c-1.3,1.5-3,2.2-5.1,2.2h0c-2.1,0-3.8-0.7-5.1-2.2c-1.3-1.5-2-3.4-2-5.8c0-2.4,0.6-4.4,1.9-5.9
	c1.3-1.5,3-2.2,5.2-2.2c2.1,0,3.8,0.7,5.1,2.2s2,3.4,2,5.9C91.5,27.4,90.8,29.3,89.5,30.8z"/>
<rect x="63.6" y="13.8" width="4.5" height="24.4"/>
<rect x="63.5" y="3.8" width="4.6" height="6.9"/>
<path id="path0_fill" class="st0" d="M8.3,50c4.6,0,8.3-3.7,8.3-8.3v-8.3H8.3c-4.6,0-8.3,3.7-8.3,8.3S3.7,50,8.3,50z"/>
<path id="path1_fill" class="st1" d="M0,25c0-4.6,3.7-8.3,8.3-8.3h8.3v16.7H8.3C3.7,33.3,0,29.6,0,25z"/>
<path id="path1_fill_1_" class="st2" d="M0,8.3C0,3.7,3.7,0,8.3,0h8.3v16.7H8.3C3.7,16.7,0,12.9,0,8.3z"/>
<path id="path2_fill" class="st3" d="M16.7,0H25c4.6,0,8.3,3.7,8.3,8.3s-3.7,8.3-8.3,8.3h-8.3V0z"/>
<path id="path3_fill" class="st4" d="M33.3,25c0,4.6-3.7,8.3-8.3,8.3s-8.3-3.7-8.3-8.3s3.7-8.3,8.3-8.3S33.3,20.4,33.3,25z"/>
</svg>
