<?xml version="1.0" encoding="UTF-8"?><svg id="b" xmlns="http://www.w3.org/2000/svg" viewBox="0 0 259 118"><defs><style>.d{fill:#fff;}.e{fill:#f05133;}.f{fill:#413000;}</style></defs><g id="c"><g><path class="f" d="M147.1,113.5c-19,0-28.2-4.8-28.2-14.6s2.1-7.8,5.3-10.8c-2.7-1.6-4.1-4.1-4.1-7.4s1.1-4.9,3.4-7.3c1.6-1.7,3.3-3.4,5.8-5.6-5.4-3.3-8.7-9.3-8.7-16.5,0-13.8,9.7-22.1,25.9-22.1s7.2,.3,10.1,1.1h21.1c.6,0,1,.4,1,1v9.2c0,.5-.4,1-.9,1l-8.2,.6c1.6,2.3,3.2,5.6,3.2,10.1,0,12.2-9.5,20.1-24.2,20.1s-5.9-.3-8.1-.8l-2.3,3.7,9.6,.6c18.2,1.2,30.2,1.9,30.2,17.2s-11.3,20.6-30.9,20.6Zm-11.1-21.7c-1.3,1.6-2.3,3.1-2.3,4.7,0,3.1,4,4.7,12.2,4.7s13.9-.6,13.9-5.3-2.5-2.7-8.2-3l-15.6-1.1Zm11.5-50c-4.3,0-9.4,1.6-9.4,9s3.1,8,9.1,8,9.2-3.2,9.2-8.2-3.1-8.8-8.9-8.8Z"/><path class="d" d="M146.6,30c4.7,0,7.5,.4,10,1.1h21.2v9.2l-10,.8c2,2.5,4,6,4,11,0,12.1-9.5,19.1-23.2,19.1s-6.6-.4-8.6-1l-3.6,5.8,10.7,.7c18.8,1.2,29.9,1.7,29.9,16.2s-11,19.6-29.9,19.6-27.2-5-27.2-13.6,2.2-7.5,6-11.1c-3.6-1.5-4.8-4.2-4.8-7.2s1.2-4.6,3.2-6.6c2-2.1,4.1-4.1,6.7-6.5-5.3-2.6-9.4-8.3-9.4-16.3,0-12.5,8.3-21.1,24.9-21.1m.7,29.8c6.1,0,10.2-3.6,10.2-9.2s-3.7-9.8-9.9-9.8h0c-6,0-10.4,2.9-10.4,10s2.9,9,10.1,9m-11.6,30.9c-1.4,1.7-2.8,3.6-2.8,5.8,0,4.3,5.5,5.7,13.2,5.7s14.9-.4,14.9-6.3-4.1-3.7-9.4-4l-15.9-1.1h0s0,0,0,0h0m11-62.7c-16.9,0-26.9,8.6-26.9,23.1s3,13.1,8,16.7c-2,1.9-3.5,3.4-4.9,4.8-2.5,2.6-3.7,5.3-3.7,8s1.2,5.8,3.5,7.6c-2.8,2.9-4.7,5.9-4.7,10.7,0,10.5,9.6,15.6,29.2,15.6s17.6-1.8,23.1-5.4c5.7-3.7,8.8-9.3,8.8-16.2s-2.8-12.3-9-14.9c-5.3-2.2-12.8-2.7-22.2-3.3h-.6s-7.3-.5-7.3-.5l1.1-1.7c2.2,.4,5,.7,7.7,.7,15.3,0,25.2-8.3,25.2-21.1s-1.1-6.9-2.4-9.3l6.6-.5c1,0,1.8-.9,1.8-2v-9.2c0-1.1-.9-2-2-2h-21c-3-.8-6.1-1.1-10.3-1.1h0Zm.7,29.8c-5.5,0-8.1-2.3-8.1-7s2.8-8,8.4-8c5.2,0,7.9,2.6,7.9,7.8s-3.2,7.2-8.2,7.2h0Zm-1.3,42.3c-5.1,0-11.2-.6-11.2-3.7s.7-2.4,1.7-3.7l14.8,1h.2c5.4,.3,7.3,.7,7.3,2,0,3-4,4.3-12.9,4.3h0Z"/></g><g><path class="f" d="M197,22.4c-6.8,0-10.8-4-10.8-10.8s3.9-10.6,10.8-10.6,10.9,3.9,10.9,10.6-4.1,10.8-10.9,10.8Z"/><path class="d" d="M197,2c6.3,0,9.9,3.4,9.9,9.6s-3.6,9.8-9.9,9.8-9.8-3.6-9.8-9.8,3.6-9.6,9.8-9.6m0-2c-7.4,0-11.8,4.3-11.8,11.6s4.5,11.8,11.8,11.8,11.9-4.5,11.9-11.8-4.4-11.6-11.9-11.6h0Z"/></g><g><path class="f" d="M182.9,87.7c-.3,0-.5-.1-.7-.3s-.3-.4-.3-.7v-8.6c0-.5,.4-.9,.9-1l5.6-.8c.6,0,.8-.2,.8-.2,0,0,0-.2,0-1v-32c0-1-.3-1.2-.7-1.3l-5.9-2.1c-.4-.2-.7-.6-.7-1.1l1.2-8.8c0-.5,.5-.9,1-.9h22.5c.6,0,1,.4,1,1v45.1c0,.3,0,.9,0,1.1,0,0,0,0,0,0,0,0,.3,0,.8,.1l5.6,.8c.5,0,.9,.5,.9,1v8.6c0,.6-.4,1-1,1h-31Z"/><path class="d" d="M206.7,30.1v45.1c0,1.7,.1,2,1.7,2.2l5.5,.8v8.6h-31v-8.6l5.6-.8c1.5-.2,1.7-.5,1.7-2.2v-32c0-1.2-.3-2-1.4-2.3l-5.9-2.1,1.2-8.8h22.5m0-2h-22.5c-1,0-1.8,.7-2,1.7l-1.2,8.8c-.1,.9,.4,1.8,1.3,2.2l5.9,2.1s0,0,0,0c0,0,0,.2,0,.4v32c0,0,0,.1,0,.2,0,0,0,0,0,0l-5.5,.8c-1,.1-1.7,1-1.7,2v8.6c0,.3,0,.5,.2,.8,.3,.7,1,1.2,1.8,1.2h31c1.1,0,2-.9,2-2v-8.6c0-1-.7-1.8-1.7-2l-5.5-.8s0,0,0,0c0,0,0-.1,0-.2V30.1c0-1.1-.9-2-2-2h0Z"/></g><g><path class="f" d="M239.2,87.9c-13.2,0-18.8-5.5-18.8-18.5v-28.6h-7.5c-.6,0-1-.4-1-1v-9.7c0-.5,.4-.9,.9-1,9-1,12.5-5.4,13.7-16.8,0-.5,.5-.9,1-.9h10.3c.6,0,1,.4,1,1,0,0,0,15.5,0,15.5h15.2c.6,0,1,.4,1,1v10.9c0,.6-.4,1-1,1h-15.2v25c0,6.2,1.4,7.9,6.4,7.9s5.6-.6,8.5-1.7c.1,0,.2,0,.4,0s.3,0,.4,.1c.2,.1,.4,.3,.5,.6l2.9,9.6c.1,.5,0,1-.5,1.2-4.4,2.2-11.5,4.5-18.2,4.5Z"/><path class="d" d="M237.8,12.4v15.5c0,.8,0,1.1,.9,1.1h15.3v10.9h-16.2v26c0,6.4,1.5,8.9,7.4,8.9s6.2-.8,8.8-1.7l2.9,9.6h0c-4.7,2.3-11.5,4.3-17.7,4.3-12.9,0-17.8-5.2-17.8-17.5v-28.5c0-.7,0-1.1-.9-1.1h-7.6v-9.7c9.6-1.1,13.4-5.9,14.6-17.7h10.3m0-2h-10.3c-1,0-1.9,.8-2,1.8-1.1,11-4.3,15-12.8,15.9-1,.1-1.8,1-1.8,2v9.7c0,1.1,.9,2,2,2h6.5v27.6c0,13.7,5.9,19.5,19.8,19.5s14.1-2.4,18.6-4.6c.9-.4,1.3-1.4,1-2.4l-2.9-9.6c-.2-.5-.5-1-1-1.2-.3-.1-.6-.2-.9-.2s-.5,0-.7,.1c-2.8,1-5.6,1.6-8.1,1.6-4.2,0-5.4-.9-5.4-6.9v-24h14.2c1.1,0,2-.9,2-2v-10.9c0-1.1-.9-2-2-2h-14.2V12.4c0-1.1-.9-2-2-2h0Z"/></g><g><path class="e" d="M59.1,117c-2.2,0-4.3-.9-5.9-2.4L3.4,64.8c-3.3-3.2-3.3-8.5,0-11.8L37.5,18.9c.2-.2,.4-.3,.7-.3h0c.3,0,.5,.1,.7,.3l12.9,12.9c.3,.3,.4,.7,.2,1.1-1.2,2.9-.6,6.2,1.7,8.5,.7,.7,1.6,1.3,2.5,1.7,.4,.2,.6,.5,.6,.9v31.3c0,.4-.2,.8-.6,.9-.9,.4-1.8,1-2.5,1.7-3,3-3,7.9,0,10.9,1.5,1.5,3.4,2.3,5.5,2.3s4-.8,5.5-2.3c3-3,3-7.9,0-10.9-.6-.6-1.3-1.1-2-1.5-.3-.2-.6-.5-.6-.9v-31c0-.4,.2-.8,.6-.9,.1,0,.3,0,.4,0,.3,0,.5,.1,.7,.3l11.8,11.8c.3,.3,.4,.7,.2,1.1-1.2,2.9-.5,6.2,1.7,8.4,1.5,1.5,3.4,2.3,5.5,2.3s4-.8,5.5-2.3c1.5-1.5,2.3-3.4,2.3-5.5s-.8-4-2.3-5.5c-1.5-1.5-3.4-2.3-5.4-2.3s-1.7,.1-2.5,.4c-.1,0-.2,0-.3,0-.3,0-.5-.1-.7-.3l-12.6-12.6c-.3-.3-.4-.7-.2-1,1-2.8,.3-5.9-1.8-8-1.5-1.5-3.4-2.3-5.4-2.3s-1.7,.1-2.5,.4c-.1,0-.2,0-.3,0-.3,0-.5-.1-.7-.3l-13.1-13.1c-.4-.4-.4-1,0-1.4L52.9,3.5c1.6-1.6,3.7-2.4,5.9-2.4s4.3,.9,5.9,2.4l49.7,49.7s0,0,0,0c3.2,3.3,3.2,8.5,0,11.7l-49.5,49.5c-1.6,1.6-3.7,2.4-5.9,2.4Z"/><path class="d" d="M58.8,2.1c1.9,0,3.8,.7,5.2,2.1l49.7,49.7h0c2.9,2.9,2.9,7.5,0,10.4l-49.5,49.5c-1.4,1.4-3.3,2.1-5.2,2.1s-3.8-.7-5.2-2.1L4.1,64.1c-2.9-2.9-2.9-7.5,0-10.4L38.3,19.6l12.9,12.9c-1.3,3.2-.7,7,1.9,9.5,.8,.8,1.8,1.5,2.9,1.9v31.3c-1,.4-2,1.1-2.9,1.9-3.4,3.4-3.4,8.9,0,12.3,1.7,1.7,3.9,2.6,6.2,2.6s4.5-.9,6.2-2.6c3.4-3.4,3.4-8.9,0-12.3-.7-.7-1.5-1.2-2.3-1.7v-31s11.8,11.8,11.8,11.8c-1.3,3.2-.7,6.9,1.9,9.5,1.7,1.7,3.9,2.6,6.2,2.6s4.5-.9,6.2-2.6c3.4-3.4,3.4-8.9,0-12.3-1.7-1.7-3.9-2.6-6.2-2.6s-1.9,.2-2.9,.5l-12.6-12.6c1.1-3.1,.4-6.6-2.1-9-1.7-1.7-3.9-2.5-6.2-2.5s-1.9,.2-2.8,.5l-13.1-13.1,10.3-10.3c1.4-1.4,3.3-2.1,5.2-2.1m0-2c-2.5,0-4.8,1-6.6,2.7l-10.3,10.3c-.8,.8-.8,2,0,2.8l13.1,13.1c.4,.4,.9,.6,1.4,.6s.4,0,.6-.1c.7-.2,1.4-.4,2.2-.4,1.8,0,3.5,.7,4.7,2,1.8,1.8,2.4,4.5,1.6,7-.2,.7,0,1.5,.5,2.1l12.6,12.6c.4,.4,.9,.6,1.4,.6s.4,0,.7-.1c.7-.2,1.5-.4,2.2-.4,1.8,0,3.5,.7,4.7,2,1.3,1.3,2,3,2,4.8s-.7,3.5-2,4.8c-1.3,1.3-3,2-4.8,2s-3.5-.7-4.8-2c-1.9-1.9-2.5-4.8-1.5-7.3,.3-.7,.1-1.6-.4-2.2l-11.8-11.8c-.4-.4-.9-.6-1.4-.6s-.5,0-.8,.2c-.7,.3-1.2,1-1.2,1.8v31c0,.8,.4,1.5,1.1,1.8,.7,.3,1.3,.8,1.8,1.3,2.6,2.6,2.6,6.9,0,9.5-1.3,1.3-3,2-4.8,2s-3.5-.7-4.8-2c-2.6-2.6-2.6-6.9,0-9.5,.6-.6,1.4-1.1,2.2-1.5,.8-.3,1.2-1,1.2-1.9v-31.3c0-.8-.5-1.5-1.2-1.9-.8-.3-1.6-.8-2.2-1.5-1.9-1.9-2.5-4.8-1.5-7.4,.3-.7,.1-1.6-.4-2.2l-12.9-12.9c-.4-.4-.9-.6-1.4-.6s-1,.2-1.4,.6L2.7,52.3c-3.6,3.6-3.6,9.6,0,13.2l49.7,49.7c1.8,1.8,4.1,2.7,6.6,2.7s4.8-1,6.6-2.7l49.5-49.5c3.6-3.6,3.6-9.5,0-13.1,0,0,0,0,0,0L65.4,2.8c-1.8-1.8-4.1-2.7-6.6-2.7h0Z"/></g></g></svg>