<?xml version="1.0" encoding="utf-8"?>
<!-- Generator: Adobe Illustrator 26.5.3, SVG Export Plug-In . SVG Version: 6.00 Build 0)  -->
<svg version="1.1" id="레이어_1" xmlns="http://www.w3.org/2000/svg" xmlns:xlink="http://www.w3.org/1999/xlink" x="0px"
	 y="0px" viewBox="0 0 115.4 30" style="enable-background:new 0 0 115.4 30;" xml:space="preserve">
<g>
	<path d="M15.4,0C6.9,0,0,6.9,0,15.4C0,22.2,4.4,28,10.5,30c0.8,0.1,1.1-0.3,1.1-0.7c0-0.4,0-1.6,0-2.9c-3.9,0.7-4.9-0.9-5.2-1.8
		c-0.2-0.4-0.9-1.8-1.6-2.2c-0.5-0.3-1.3-1,0-1c1.2,0,2.1,1.1,2.4,1.6c1.4,2.3,3.6,1.7,4.5,1.3c0.1-1,0.5-1.7,1-2.1
		c-3.4-0.4-7-1.7-7-7.6c0-1.7,0.6-3.1,1.6-4.1c-0.2-0.4-0.7-2,0.2-4.1c0,0,1.3-0.4,4.2,1.6c1.2-0.3,2.5-0.5,3.8-0.5s2.6,0.2,3.8,0.5
		c2.9-2,4.2-1.6,4.2-1.6c0.8,2.1,0.3,3.7,0.2,4.1c1,1.1,1.6,2.4,1.6,4.1c0,5.9-3.6,7.2-7,7.6c0.6,0.5,1,1.4,1,2.8c0,2.1,0,3.7,0,4.2
		c0,0.4,0.3,0.9,1.1,0.7c6.1-2,10.5-7.8,10.5-14.6C30.8,6.9,23.9,0,15.4,0z"/>
	<path d="M66.8,22.4L66.8,22.4L66.8,22.4z M66.8,22.4c-0.2,0-0.6,0.1-1.1,0.1c-1.5,0-2-0.7-2-1.5v-5.8h3c0.2,0,0.3-0.1,0.3-0.4v-3.2
		c0-0.2-0.1-0.3-0.3-0.3h-3V7.4c0-0.1-0.1-0.2-0.3-0.2h-4c-0.2,0-0.3,0.1-0.3,0.2v4c0,0-2,0.5-2.2,0.5s-0.2,0.2-0.2,0.3v2.5
		c0,0.2,0.1,0.4,0.3,0.4h2.1v6.1c0,4.5,3.2,5,5.3,5c1,0,2.2-0.3,2.4-0.4c0.1,0,0.2-0.2,0.2-0.3v-2.8C67.1,22.5,67,22.4,66.8,22.4z
		 M110.9,18.3c0-3.4-1.4-3.8-2.8-3.7c-1.1,0.1-2,0.6-2,0.6v6.5c0,0,0.9,0.6,2.3,0.7C110.3,22.5,110.9,21.8,110.9,18.3z M115.4,18
		c0,6.4-2.1,8.2-5.7,8.2c-3,0-4.7-1.5-4.7-1.5s-0.1,0.9-0.2,1c-0.1,0.1-0.1,0.1-0.3,0.1h-2.8c-0.2,0-0.4-0.1-0.4-0.3V4.8
		c0-0.2,0.1-0.3,0.3-0.3h4c0.2,0,0.3,0.1,0.3,0.3v7c0,0,1.5-1,3.8-1l0,0C112.1,10.8,115.4,11.6,115.4,18z M99.2,11.3h-3.9
		c-0.2,0-0.3,0.1-0.3,0.4v10.1c0,0-1,0.7-2.4,0.7s-1.8-0.6-1.8-2v-8.8c0-0.2-0.1-0.3-0.3-0.3h-4c-0.2,0-0.3,0.1-0.3,0.3v9.5
		c0,4.1,2.3,5.1,5.4,5.1c2.6,0,4.7-1.4,4.7-1.4s0.1,0.7,0.1,0.8c0,0.1,0.2,0.2,0.3,0.2h2.5c0.2,0,0.3-0.1,0.3-0.3V11.7
		C99.5,11.4,99.4,11.3,99.2,11.3z M55.1,11.3h-4c-0.2,0-0.3,0.2-0.3,0.4v13.6c0,0.4,0.2,0.5,0.6,0.5H55c0.4,0,0.5-0.2,0.5-0.5V11.6
		C55.4,11.4,55.3,11.3,55.1,11.3z M53.2,5c-1.4,0-2.6,1.1-2.6,2.6s1.1,2.6,2.6,2.6c1.4,0,2.5-1.1,2.5-2.6S54.6,5,53.2,5z M83.8,4.5
		h-3.9c-0.2,0-0.3,0.1-0.3,0.3v7.6h-6.2V4.8c0-0.2-0.1-0.3-0.3-0.3h-4c-0.2,0-0.3,0.1-0.3,0.3v20.7c0,0.2,0.2,0.3,0.3,0.3h4
		c0.2,0,0.3-0.1,0.3-0.3v-8.9h6.2v8.8c0,0.2,0.1,0.3,0.3,0.3h4c0.2,0,0.3-0.1,0.3-0.3V4.8C84.1,4.7,84,4.5,83.8,4.5z M48.7,13.7
		v10.7c0,0.1,0,0.2-0.1,0.2c0,0-2.3,1.7-6.2,1.7c-4.6,0-10.1-1.5-10.1-11c0-9.6,4.8-11.5,9.5-11.5c4.1,0,5.7,0.9,5.9,1.1
		c0.1,0.1,0.1,0.2,0.1,0.3L47,8.5c0,0.2-0.2,0.4-0.4,0.3c-0.7-0.2-1.7-0.6-4-0.6c-2.7,0-5.7,0.8-5.7,6.9s2.8,6.9,4.8,6.9
		c1.7,0,2.3-0.2,2.3-0.2v-4.3h-2.7c-0.2,0-0.4-0.1-0.4-0.3v-3.4c0-0.2,0.1-0.3,0.4-0.3h7C48.6,13.3,48.7,13.5,48.7,13.7L48.7,13.7z"
		/>
</g>
</svg>
