<?xml version="1.0" encoding="UTF-8"?><svg id="b" xmlns="http://www.w3.org/2000/svg" viewBox="0 0 664.1 150"><defs><style>.e{fill:#171321;}.f{fill:#e24329;}.g{fill:#fca326;}.h{fill:#fc6d26;}</style></defs><g id="c"><g id="d"><path class="e" d="M250.4,56.5h22.8c-3.8-24.2-24.8-41.1-52.1-41.1s-56.5,23.7-56.5,63.5,23.1,63.3,57.2,63.3,52.4-19.6,52.4-51.5v-14.8h-50.1v17.5h28.4c-.4,17.6-12.1,28.7-30.7,28.7s-34.8-15.5-34.8-43.4,14.4-43.2,34.3-43.2c14.9,0,25.1,7.9,29,21Z"/><path class="e" d="M289.3,140.5h21.8V48h-21.8v92.5Zm11-107.2c6.9,0,12.6-5.3,12.6-11.8s-5.7-11.9-12.6-11.9-12.6,5.3-12.6,11.9,5.6,11.8,12.6,11.8h0Z"/><path class="e" d="M376.4,48h-18.3V25.8h-21.8v22.2h-13.1v16.9h13.1v51.5c-.1,17.4,12.5,26,28.9,25.5,4.4,0,8.7-.8,12.8-2.2l-3.7-17.1c-2.1,.5-4.2,.8-6.4,.9-5.5,0-9.9-1.9-9.9-10.7v-47.9h18.3v-16.8Z"/><path class="e" d="M393.3,140.5h76.7v-18.7h-54.3V17.1h-22.4v123.4Z"/><path class="e" d="M511.8,142.4c14.5,0,23.2-6.8,27.2-14.6h.7v12.7h21v-61.9c0-24.5-19.9-31.8-37.6-31.8s-34.4,8.7-39.2,25.5l20.4,2.9c2.2-6.3,8.3-11.8,19-11.8s15.7,5.2,15.7,14.3v.4c0,6.3-6.6,6.6-22.9,8.3-18,1.9-35.1,7.3-35.1,28.1,0,18.2,13.3,27.8,30.9,27.8Zm7.2-16c-9.1,0-15.6-4.2-15.6-12.2s7.3-11.9,17-13.3c5.7-.8,17.2-2.2,20-4.5v10.9c0,10.3-8.3,19-21.4,19h0Z"/><path class="e" d="M576.7,140.5h21.5v-14.6h1.3c3.4,6.8,10.6,16.2,26.5,16.2s38.1-17.3,38.1-47.8-16.8-47.6-38.2-47.6-23.1,9.8-26.5,16.5h-.9V17.1h-21.8v123.4Zm21.4-46.3c0-18,7.7-29.6,21.8-29.6s22,12.4,22,29.6-7.6,30-22,30-21.8-12.1-21.8-30h0Z"/><path class="f" d="M153.2,59.4l-.2-.6L131.8,3.5c-.4-1.1-1.2-2-2.2-2.6-2.6-1.7-6.1-.9-7.7,1.7-.3,.5-.5,1-.7,1.5l-14.3,43.8H48.9L34.6,4.1c-.8-3-3.9-4.7-6.9-3.9-.5,.1-1,.4-1.5,.7-1,.6-1.8,1.5-2.2,2.6L2.8,58.8l-.2,.6c-6.3,16.4-.9,34.9,13.1,45.5h0c0,0,.2,.2,.2,.2l32.2,24.2,16,12.1,9.7,7.4c2.3,1.8,5.6,1.8,7.9,0l9.7-7.4,16-12.1,32.5-24.3h0c14-10.6,19.3-29.2,13.1-45.6Z"/><path class="h" d="M153.2,59.4l-.2-.6c-10.3,2.1-20.1,6.5-28.5,12.8l-46.6,35.2,29.6,22.4,32.5-24.3h0c14-10.6,19.3-29.2,13-45.6Z"/><path class="g" d="M48.2,129.2l16,12.1,9.7,7.4c2.3,1.8,5.6,1.8,7.9,0l9.7-7.4,16-12.1-29.6-22.4-29.7,22.4Z"/><path class="h" d="M31.3,71.6c-8.4-6.3-18.2-10.7-28.5-12.8l-.2,.6c-6.3,16.4-.9,34.9,13.1,45.5h0c0,0,.2,.2,.2,.2l32.3,24.2,29.7-22.4L31.3,71.6Z"/></g></g></svg>