<?xml version="1.0" encoding="UTF-8"?><svg id="b" xmlns="http://www.w3.org/2000/svg" viewBox="0 0 291.3 63.6"><defs><style>.d{fill:#1ba8cb;}</style></defs><g id="c"><g><path class="d" d="M72.4,0h0c-3.6,0-7,1.3-9.6,3.7-.3,.2-.4,.6-.4,.9,0,.4,.1,.7,.4,1l1.7,1.8c.5,.5,1.2,.5,1.7,.1,1.4-1,3-1.6,4.7-1.6,4.3,0,7.9,3.5,7.9,7.8,0,2.1-.8,4.1-2.3,5.6C65.6,30.2,51-.3,18,15.4c-2.2,1.1-3.2,3.7-2.2,6,0,.1,.1,.2,.2,.3l5.7,9.8c1.2,2.1,3.9,2.9,6.1,1.7h.1c0,0-.1,0-.1,0l2.5-1.4c2.8-1.7,5.4-3.7,7.9-5.9,.5-.4,1.3-.4,1.8,0,.3,.2,.5,.6,.5,1,0,.4-.1,.7-.4,1-2.6,2.3-5.4,4.4-8.3,6.2h0l-2.5,1.4c-1.1,.6-2.3,.9-3.5,.9-2.6,0-4.9-1.4-6.2-3.6l-5.3-9.2C3.8,30.8-2.4,44.8,.9,62.5c.1,.6,.7,1.1,1.3,1.1h6.1c.7,0,1.2-.5,1.3-1.1,.6-4.9,5.1-8.4,10-7.7,4,.5,7.2,3.7,7.7,7.7,0,.7,.6,1.1,1.3,1.1h5.9c.7,0,1.2-.5,1.3-1.1,.6-4.9,5.1-8.3,10-7.7,4,.5,7.2,3.7,7.7,7.7,0,.7,.6,1.1,1.3,1.1h5.9c.7,0,1.3-.6,1.3-1.3,.1-8.3,2.4-17.8,8.7-22.5,22-16.5,16.2-30.6,11.1-35.7C79.4,1.5,76,0,72.4,0Zm-12.2,28c-.2,.4-.5,.7-.8,.9h0s-4.2-2.1-4.2-2.1c0-1.5,1.2-2.6,2.6-2.6,.4,0,.8,0,1.2,.3h0c1.3,.7,1.8,2.2,1.2,3.5Z"/><path class="d" d="M224.6,4.6V23.9c-1.1-1.1-2.4-2-3.9-2.6-1.7-.7-3.4-1-5.2-1-2.2,0-4.5,.5-6.5,1.5-1.9,1-3.6,2.3-4.9,4-1.4,1.8-2.5,3.8-3.2,6-.7,2.4-1.1,5-1.1,7.5,0,2.7,.3,5.4,1,8,.5,2.1,1.5,4.1,2.8,5.9,2.3,3.1,5.9,4.9,9.8,4.9,2.3,0,4.6-.4,6.7-1.5,1.9-1.1,3.6-2.4,5.1-4.1l.8,3.5c.2,1,1.2,1.7,2.2,1.6h5.4V4.6h-8.8Zm-3.6,45.3c-1.4,.8-3,1.2-4.7,1.1-1.1,0-2.1-.2-3.1-.6-1-.4-1.8-1.1-2.3-2-.7-1.1-1.2-2.3-1.5-3.6-.4-1.8-.5-3.6-.5-5.4,0-1.9,.2-3.7,.6-5.5,.3-1.4,.9-2.7,1.8-3.9,.7-1,1.6-1.7,2.7-2.2,1.1-.5,2.4-.8,3.6-.8h0c1.3,0,2.6,.2,3.8,.7,1.3,.6,2.4,1.5,3.3,2.6v16.4c-1,1.3-2.2,2.4-3.6,3.2Z"/><rect class="d" x="242.2" y="4.6" width="8.8" height="52.9"/><path class="d" d="M114.9,37.1c0,.5,.2,.9,.5,1.3,.4,.4,.9,.6,1.5,.5h6.5v9.3c-1.4,.7-2.9,1.2-4.4,1.6-1.7,.4-3.4,.6-5.1,.6-2.5,0-4.9-.4-7.2-1.3-2.1-.8-4-2-5.5-3.7-1.6-1.7-2.8-3.7-3.6-5.9-.9-2.5-1.3-5.2-1.3-7.9,0-2.5,.4-5.1,1.2-7.5,.7-2.1,1.9-4.1,3.3-5.7,1.5-1.6,3.3-2.8,5.2-3.7,2.2-.9,4.5-1.3,6.9-1.3,1.4,0,2.8,0,4.1,.3,1.1,.2,2.2,.5,3.2,.8,.9,.3,1.8,.7,2.6,1.2l2.4,1.4c.6,.5,1.5,.6,2.2,.5,.7-.2,1.3-.6,1.7-1.3l2.7-4.3c-1.1-1-2.3-1.9-3.5-2.7-1.3-.9-2.8-1.6-4.3-2.1-1.6-.6-3.3-1.1-5.1-1.4-1.9-.3-3.9-.5-5.9-.5h0c-3.8,0-7.6,.6-11.1,1.9-3.2,1.2-6,3-8.4,5.4-2.3,2.4-4.2,5.2-5.4,8.3-1.3,3.4-1.9,7-1.9,10.6,0,3.6,.6,7.2,1.9,10.6,1.2,3.1,3.2,6,5.6,8.3,2.5,2.4,5.5,4.2,8.7,5.4,3.6,1.3,7.5,2,11.4,2,3.2,0,6.4-.4,9.5-1.3,3-.9,5.8-2.3,8.4-4.2V31.7h-17.2v5.4Z"/><path class="d" d="M157.4,20.3c-2,0-4,.6-5.6,1.8-1.7,1.4-3.1,3.2-4.1,5.2l-.5-4.1c0-1.2-.8-2.2-2-2.3-.2,0-.4,0-.6,0h-5.2V57.5h8.8v-22.5c.4-.9,.8-1.8,1.3-2.6,.4-.7,1-1.4,1.6-2,.6-.5,1.3-.9,2.1-1.2,.8-.3,1.7-.4,2.6-.4,.7,0,1.4,0,2,.2,.5,.1,1.1,.2,1.6,.2,.3,0,.6,0,.9-.3,.3-.2,.4-.6,.5-.9l.6-6.6c-1.2-.8-2.6-1.2-4.1-1.1h0Z"/><path class="d" d="M189.9,24.3c-1.2-1.3-2.7-2.3-4.3-2.9-1.8-.7-3.8-1.1-5.7-1h0c-5.6-.1-11,2-15.2,5.8l1.7,2.8c.3,.4,.6,.8,1,1.1,.4,.3,1,.5,1.5,.5,.7,0,1.4-.2,1.9-.5l1.9-1.1c.8-.4,1.6-.8,2.5-1.1,1.1-.4,2.3-.5,3.5-.5,1.7,0,3.3,.5,4.5,1.8,1.1,1.6,1.7,3.5,1.5,5.4v2.2c-2.5,0-5,.2-7.4,.6-1.9,.3-3.8,.7-5.7,1.3-1.4,.4-2.8,1.1-4.1,1.9-1,.7-1.9,1.4-2.7,2.4-.7,.8-1.2,1.7-1.5,2.6-.3,.9-.5,1.8-.5,2.8,0,1.5,.2,2.9,.8,4.3,.5,1.2,1.3,2.2,2.2,3.1,1,.9,2.1,1.5,3.4,1.9,1.4,.4,2.8,.6,4.3,.6,1.2,0,2.4,0,3.6-.3,1-.2,2-.5,3-1,1-.4,1.9-1,2.7-1.6,.9-.7,1.8-1.4,2.7-2.2l.8,2.6c.2,.6,.5,1.1,1.1,1.5,.6,.3,1.3,.4,1.9,.4h4v-23.1c0-1.9-.3-3.9-.9-5.7-.6-1.7-1.5-3.2-2.7-4.5Zm-5,23.8c-1.1,1.2-2.4,2.2-3.9,3-1.5,.7-3.1,1-4.7,1-1.3,0-2.5-.3-3.6-1-1-.8-1.5-2-1.4-3.3,0-.8,.2-1.5,.7-2.2,.6-.8,1.4-1.4,2.2-1.8,1.3-.6,2.7-1,4.2-1.2,2.1-.4,4.3-.6,6.4-.7h0v6.1Z"/><path class="d" d="M290.9,39.7c.4-.8,.5-1.8,.4-2.7,0-2.4-.4-4.8-1.2-7-.7-1.9-1.9-3.7-3.3-5.2-1.4-1.4-3.1-2.5-5-3.2-2.2-.8-4.5-1.1-6.9-1.1h0c-2.3,0-4.7,.5-6.8,1.4-2.1,.9-4,2.2-5.5,3.9-1.5,1.7-2.7,3.6-3.5,5.7-.8,2.3-1.2,4.6-1.2,7,0,2.9,.4,5.8,1.4,8.5,.8,2.3,2.1,4.4,3.8,6.1,1.6,1.6,3.6,2.9,5.7,3.7,2.3,.9,4.7,1.3,7.1,1.3,1.3,0,2.6-.1,3.9-.3,1.4-.2,2.7-.5,4-1,1.3-.5,2.6-1.1,3.8-1.9,1.2-.8,2.3-1.8,3.3-2.9l-2.6-3.2c-.4-.6-1-.9-1.6-.8-.6,0-1.2,.2-1.7,.5-.5,.3-1.3,.7-2,1.1-.9,.4-1.8,.8-2.7,1.1-1.2,.4-2.4,.5-3.7,.5-1.3,0-2.6-.2-3.9-.7-1.1-.4-2.2-1.1-3-2-.9-1-1.6-2.1-2.1-3.4-.6-1.6-.9-3.2-1-4.9h22.6c.6,0,1.3-.2,1.6-.7Zm-24.2-4.6c.2-2.3,1.2-4.5,2.8-6.1,1.7-1.4,3.9-2.2,6.2-2.2h0c1.1,0,2.2,.2,3.3,.7,.9,.4,1.8,1,2.4,1.8,.7,.8,1.2,1.7,1.5,2.6,.3,1,.5,2.1,.5,3.2h-16.7Z"/></g></g></svg>