<?xml version="1.0" encoding="UTF-8"?><svg id="b" xmlns="http://www.w3.org/2000/svg" viewBox="0 0 1310 469.2"><defs><style>.d{fill:#fff;}.e{fill:#f59020;}.f{fill:#087a9a;}.g{fill:#057899;}.h{fill:#037798;}.i{fill:#027698;}.j{fill:#017698;}.k{fill:#07799a;}.l{fill:#0c7c9c;}.m{fill:#047799;}.n{fill:#047798;}</style></defs><g id="c"><g><g><path class="n" d="M1068.1,372.6c-.6,0-1.1,0-1.6-.1-.6,0-1.3-.1-2.1-.1s-1.4,0-2.2,0c-.8,0-1.7,0-2.5,0s-1.7,0-2.5-.1c-1.2-.1-2.4-.2-3.7-.4-9.3-.9-18.9-1.9-28.1-5.3-21.6-8.1-32.4-19-39.7-40.4-1.9-5.5-4.2-12.4-3.6-19.8,.2-2.2,.2-3.3-.5-4.4-1.7-2.7-1.5-6.7-.3-9.1,.8-1.7,.8-3.6,.8-5.8,0-1.5,0-3,.2-4.6,1-7.8,2.6-13.9,4.9-19.4,5.5-12.6,11.7-21.5,19.7-28.1,9.5-7.8,19.9-14,31.8-18.9,4.2-1.7,8.5-2.8,12.6-3.9,4.4-1.1,8.5-2.2,12.4-3.9,.5-.2,1.1-.3,1.6-.3s.7,0,1,.1c.2,0,.5,0,.7,0,.9,0,1.9-.3,3.1-.7,1.6-.5,3.4-1,5.5-1s.5,0,.8,0c0,0,.1,0,.2,0,.7,0,1.7-.3,2.7-.5,1.5-.4,3.1-.8,5-.8s.7,0,1,0h.7c.9,.1,1.8,.2,2.6,.2,1.4,0,2.3-.2,3.1-.8,1-.6,2.1-.9,3.5-.9s1.2,0,1.8,.1c.3,0,.7,0,.9,0h33.7c0-1.3,0-2.6,0-3.8,0-1.9,0-3.7,0-5.6v-2.4c0-1,0-1.9,.1-2.8,.1-1.5,.2-3,0-3.8-.9-2.4-1-4.7-1.1-6.7,0-1.2-.1-2.4-.3-3.4l-.2-.7c-1.4-6.2-2.8-12-7.1-16.1-.8-.8-1.5-1.5-2.3-2.3-3-3.1-5.8-5.9-9.6-7.4-.6-.2-1.2-.5-1.7-.7-1.2-.5-2.2-1-3-1s-.3,0-.4,0c-.2,0-.5,0-.7,0-1.2,0-2.4-.6-3.2-1.6-.2,0-.5,0-.7,0-1.4,0-3.4,0-5.4-1.4,0,0-.2,0-.4,0-.6,0-1.3,0-2,.2-.9,0-1.9,.2-2.9,.2s-.4,0-.6,0c0,0-.2,0-.3,0-.4,0-.7,0-1.1,0-.5,0-1,0-1.6,0-.8,0-2.8,0-4.9-1.2-2.2,1.1-4.3,1.2-5.9,1.2s-1.6,0-2.3,0c-.6,0-1.2,0-1.9,0s-.5,0-.7,0c-.5,0-1,0-1.5,0-.8,0-1.6,0-2.3,0-.6,0-1.3,0-1.9,0-1,0-1.7,0-2.1,.3-1.3,.6-2.8,.9-4.5,.9s-1.4,0-2,0c-.5,0-.9,0-1.3,0s-.3,0-.4,0c-2,1.4-4,1.6-5.6,1.6h0c-.3,0-.5,0-.8,0-.2,0-.4,0-.6,0s-.4,0-.5,0c-.7,.9-1.7,1.5-2.8,1.6-9,.7-17.4,3.7-26.2,6.7-2,.7-4.1,1.4-6.2,2.1-1.5,.5-2.9,.5-4.2,.6-.5,0-1,0-1.5,0-.1,0-.3,0-.4,0-1.9,0-3.6-1.4-3.9-3.3-.8-4.3-2-8.7-3.1-12.9-1.8-6.6-3.7-13.3-4.2-20.5-.1-1.6,.7-3.1,2.1-3.8,9.4-5,19.2-8.1,28.8-11.1l2.4-.7c7.6-2.4,15.6-4.4,23.8-5.8,1.6-.3,3.1-.4,4.6-.4,1.8,0,3.6-.2,4.7-.7,2.2-1,4.3-1.1,6.1-1.1s1.5,0,1.8,0c.7,0,1.5,0,2.1-.2,4.1-1.4,8.1-1.6,11.1-1.6s3,0,4.5,.1c1.4,0,2.8,0,4.2,0s1.2,0,1.7,0c1,0,2.1,0,3.1-.1,2.9-.1,5.9-.2,8.9-.2s6.3,.2,8.9,.5h.4c11.7,1.5,23.9,3,35.2,8.3,7.4,3.4,16,7.9,22.9,15.1,8.4,8.6,14.1,18.6,17.1,29.5,1.3,4.9,1.9,9.9,2.5,14.7,.2,1.4,.3,2.8,.5,4.2,1.5,10.8,1.3,21.7,1.1,32.1,0,4.9-.1,10,0,15,.2,11,.2,22.1,.1,32.9,0,4.8,0,9.6,0,14.4v100.4c0,2.2-1.8,4-4,4h-42.7c-1.8,0-3.4-1.3-3.9-3-.2-.8-.4-1.6-.7-2.4-.7-2.6-1.6-5.5-1.4-8.8,0-.9-.2-2.1-.6-3.4-.4-1.7-.9-3.7-.8-6-6.5,5.1-12.6,9.5-19.4,13.1-7.4,4.1-15.6,8.2-24.9,10.8-1.2,.3-2.4,.7-3.6,1.1-4.7,1.4-9.5,2.9-14.8,2.9s-1,0-1.5,0h-.1c-.7,0-1.5,.3-2.5,.6-1.4,.4-3.1,1-5,1Zm39.4-125.6c-7,0-12.3,.3-17.2,1.1-5,.8-10.3,1.9-16.4,3.5-4.1,1.1-8.1,3-12.8,5.5-4.1,2.2-7.7,5.4-11.5,10.2-3.2,4-5,8.2-5.1,11.8,0,1.7-.1,3.4-.2,5.2-.3,6.3-.5,12.2,1.1,18,2.2,7.9,6.1,13.2,12.2,16.8,5.4,3.2,11.1,4.8,17.1,4.8h.2c5.3,0,10-.3,14.5-1,5.1-.7,9.1-1.8,12.3-3.2,10.8-4.9,21.8-10.7,30.5-19.7v-53c-2.3,.1-4.8,.2-7.6,.2s-5.7,0-8.5-.1c-2.8,0-5.6-.1-8.4-.1Z"/><path class="d" d="M1105.2,99.8c2.8,0,5.6,.1,8.4,.5,11.7,1.5,23.5,2.9,34.4,8,7.9,3.7,15.6,7.9,21.7,14.2,7.7,7.9,13.2,17.1,16.1,27.7,1.6,6,2.1,12.2,2.9,18.4,2.1,15.6,.8,31.1,1.1,46.7,.3,15.7,0,31.5,0,47.2v100.4h-42.7c-.8-3.3-2.1-6.4-2-10,.2-3.4-1.9-6.6-1.3-10.2,.4-2.4-2.2-4.1-1.4-6.7-7.9,6.4-15.5,12.3-24,16.9-7.7,4.2-15.5,8.1-24,10.4-5.7,1.6-11.3,3.8-17.4,3.8s-.9,0-1.3,0c-.1,0-.2,0-.3,0-2.6,0-4.9,1.5-7.5,1.5s-.7,0-1,0c-.9-.1-1.8-.2-2.7-.2-1.5,0-3.1,.1-4.7,.1s-1.4,0-2,0c-10.4-1.1-21-1.8-30.8-5.4-19-7.1-30-16.6-37.3-37.9-2-5.7-3.9-11.8-3.4-18.2,.2-2.3,.4-4.6-1.1-6.9-.8-1.3-.7-3.8,0-5.2,1.8-3.8,.8-7.8,1.3-11.6,.8-6.3,2.1-12.5,4.6-18.3,4.4-10.1,10.1-19.6,18.6-26.6,9.3-7.6,19.5-13.7,30.8-18.3,8.2-3.4,17.1-4.2,25.1-7.8,.6,.1,1.2,.2,1.7,.2,2.9,0,5.6-1.7,8.7-1.7s.3,0,.5,0c.2,0,.3,0,.5,0,2.5,0,5-1.4,7.8-1.4s.4,0,.7,0c1.2,.1,2.4,.2,3.6,.2,1.8,0,3.6-.3,5.3-1.4,.4-.2,.8-.3,1.3-.3,.8,0,1.8,.2,2.7,.2h37.6c0-2.6,.1-5.2,.2-7.8,0-2.7,0-5.4,0-8.1s.7-5.6-.2-8c-1.2-3.2-.6-6.5-1.3-9.6-1.6-6.7-3-13.6-8.3-18.8-4.1-3.9-7.6-8.4-13.2-10.5-2.1-.8-3.9-2-6.2-2-.4,0-.8,0-1.1,.1-1.6-2.7-4.8-.7-7.2-2.4-.7-.5-1.5-.6-2.5-.6-1.5,0-3.4,.4-5,.4s-.3,0-.4,0c-.1,0-.3,0-.4,0-.9,0-1.8,0-2.7,0-1.3,0-2.7-.2-3.8-1.4-.2-.2-.5-.2-.9-.2-.4,0-.8,0-1,.2-1.6,1.1-3.3,1.4-5,1.4s-2.8-.2-4.2-.2c-.3,0-.7,0-1,0-.4,0-.8,0-1.2,0-1.4,0-2.9-.1-4.3-.1-1.3,0-2.6,.1-3.7,.6-1,.4-1.9,.5-2.9,.5s-2.3-.2-3.4-.2c-1,0-1.9,.1-2.6,.7-1,.8-2.2,.9-3.4,.9s-.9,0-1.4,0c-1.4,0-2.7,.2-3.7,1.6-11.7,1-22.4,5.4-33.3,9.1-1.4,.5-3,.3-4.8,.5-2.1-11.2-6.4-21.6-7.3-33,9.8-5.2,20.2-8.3,30.5-11.5,7.6-2.4,15.4-4.3,23.3-5.7,3.5-.6,7.2,0,10.2-1.4,1.5-.7,3-.8,4.5-.8s1.2,0,1.8,0c1.2,0,2.3,0,3.4-.4,3.3-1.1,6.6-1.4,9.9-1.4s5.8,.2,8.6,.2,1.3,0,1.9,0c3.9-.1,7.9-.4,11.8-.4m-30.6,228.2c0,0,.1,0,.2,0,5,0,10-.3,15-1,4.7-.7,9.4-1.7,13.4-3.6,12-5.5,23.7-11.7,32.8-21.7v-58.6c-1,0-1.8,0-2.5,0s-.8,0-1.2,0c-2.6,.1-5.3,.2-7.9,.2-5.6,0-11.3-.2-16.9-.2-5.9,0-11.9,.2-17.8,1.1-5.7,.9-11.3,2.1-16.8,3.6-4.7,1.2-9.3,3.5-13.7,5.9-5.2,2.8-9.3,6.9-12.7,11.2-3.2,4-5.9,9.1-6,14.2-.2,8.1-1.3,16.3,1.1,24.4,2.4,8.2,6.6,14.8,14,19.2,5.9,3.5,12.3,5.4,19.1,5.4m30.6-236.2h0c-3.1,0-6.1,.1-9,.3-1,0-2,0-3.1,.1-.5,0-1,0-1.6,0-1.3,0-2.6,0-4,0-1.5,0-3-.1-4.6-.1-3.3,0-7.7,.2-12.4,1.8,0,0-.3,0-.9,0s-.5,0-.8,0c-.3,0-.7,0-1,0-2.1,0-4.8,.2-7.7,1.4-.5,.2-2.2,.3-3.3,.3-1.5,0-3.3,.2-5.1,.5-8.3,1.5-16.5,3.5-24.3,6l-2.4,.7c-9.7,3-19.8,6.2-29.5,11.4-2.8,1.5-4.5,4.5-4.2,7.7,.6,7.5,2.5,14.5,4.3,21.2,1.2,4.3,2.3,8.4,3.1,12.5,.7,3.8,4,6.5,7.9,6.5s.5,0,.8,0c.4,0,.8,0,1.2,0,1.5,0,3.3-.1,5.3-.8,2.1-.7,4.2-1.4,6.2-2.1,8.6-3,16.8-5.8,25.3-6.5,1.5-.1,2.9-.7,4.1-1.5,.1,0,.2,0,.3,0,1.8,0,4.2-.2,6.8-1.6,0,0,.2,0,.3,0,.6,0,1.5,.1,2.3,.1,2.2,0,4.1-.4,5.9-1.1,.1,0,.3,0,.7,0s1.1,0,1.7,0c.8,0,1.6,0,2.5,0s1.3,0,1.8,0c.1,0,.3,0,.4,0,.5,0,1,0,1.6,0,.8,0,1.6,0,2.6,0s3.2,0,5.8-.9c1.5,.6,3.2,.9,5,.9s1.3,0,1.8,0c.3,0,.7,0,.9,0h0c.2,0,.5,0,.8,0,1.2,0,2.3-.1,3.3-.2,.3,0,.7,0,1,0,2.1,1.1,4,1.3,5.5,1.4,1.4,1.1,3.1,1.7,4.9,1.7s.7,0,1.1,0c.3,.1,.9,.4,1.4,.6,.6,.3,1.2,.5,1.9,.8,2.9,1.2,5.4,3.6,8.2,6.5,.8,.8,1.5,1.6,2.4,2.4,3.4,3.3,4.6,8.3,6,14.2l.2,.7c.1,.6,.2,1.6,.2,2.6,.1,2.1,.2,4.8,1.3,7.7,0,.5,0,1.6,0,2.3,0,.9-.2,2-.2,3.2s0,1.7,0,2.5c0,1.8,0,3.6,0,5.4h-29.7c-.2,0-.3,0-.5,0-.6,0-1.4-.2-2.2-.2-2.1,0-4,.5-5.7,1.6-.2,.1-.8,.1-1,.1-.6,0-1.4,0-2.3-.1h-.7c-.4,0-.9-.1-1.3-.1-2.4,0-4.5,.6-6.1,1-.6,.2-1.4,.4-1.7,.4-.3,0-.7,0-1,0-2.7,0-4.9,.7-6.7,1.2-.6,.2-1.5,.5-1.9,.5-.6-.1-1.2-.2-1.8-.2-1.1,0-2.2,.2-3.3,.7-3.6,1.6-7.5,2.6-11.7,3.7-4.3,1.1-8.7,2.2-13.2,4-12.3,5.1-23.1,11.5-32.9,19.5-8.5,7-15.1,16.4-20.9,29.6-2.5,5.8-4.2,12.3-5.2,20.5-.2,1.9-.2,3.6-.2,5.1,0,1.7,0,3.3-.4,4.1-1.6,3.4-2.1,8.9,.5,13,0,.4,0,1.4,0,2-.7,8.3,1.9,15.9,3.8,21.5,7.7,22.4,19.4,34.4,42.1,42.8,9.6,3.6,19.5,4.6,29.1,5.5,1.2,.1,2.4,.2,3.7,.4,.9,0,1.8,.1,2.9,.1s1.8,0,2.7,0c.7,0,1.4,0,2,0s1.1,0,1.5,0c.7,.1,1.5,.2,2.3,.2,2.6,0,4.7-.7,6.2-1.2,.5-.1,1.1-.3,1.3-.4,.5,0,1.1,0,1.6,0,5.9,0,11.2-1.6,15.9-3,1.2-.4,2.4-.7,3.6-1.1,9.7-2.7,18.4-7.1,25.7-11.1,5-2.8,9.7-5.8,14.5-9.3,.2,.7,.4,1.6,.4,1.9-.2,4,.8,7.4,1.6,10.1,.2,.8,.4,1.5,.6,2.2,.9,3.6,4.1,6.1,7.8,6.1h42.7c4.4,0,8-3.6,8-8v-100.4c0-4.8,0-9.6,0-14.3,0-10.8,.1-22-.1-33,0-4.9,0-9.9,0-14.8,.2-10.6,.3-21.6-1.2-32.7-.2-1.4-.4-2.8-.5-4.1-.6-5-1.2-10.1-2.6-15.3-3.1-11.6-9.2-22.1-18-31.2-7.4-7.7-16.4-12.4-24.1-15.9-11.9-5.5-24.4-7.1-36.4-8.6h-.4c-2.8-.4-5.9-.6-9.4-.6h0Zm-30.6,228.2c-5.2,0-10.2-1.4-15-4.3-5.1-3.1-8.4-7.7-10.4-14.5-1.5-5.2-1.2-10.8-1-16.7,0-1.7,.2-3.5,.2-5.3,0-2.7,1.6-6.1,4.2-9.4,3.5-4.3,6.7-7.2,10.3-9.2,4.5-2.4,8.2-4.2,11.9-5.2,6-1.5,11.2-2.7,16-3.4,4.7-.7,9.8-1,16.6-1s5.6,0,8.3,.1c2.8,0,5.7,.1,8.6,.1s2.5,0,3.6,0v47.3c-8,7.8-18.2,13.1-28.1,17.7-2.8,1.3-6.5,2.2-11.2,2.9-4.2,.6-8.8,.9-13.9,.9h-.2Z"/></g><g><path class="i" d="M585.2,372.4c-1.5,0-3,0-4.5,0-2.2,0-4.3-.4-6.3-.8-1.8-.4-3.4-.7-5-.7s-.8,0-1.1,0c-.5,0-1,0-1.6,0-3,0-5.6-.9-7.9-1.7-1.2-.4-2.4-.8-3.5-1.1-4.2-.9-8.5-2.3-12.6-4.2-9.7-4.4-17.9-10.8-24.3-19.2-5.6-7.3-9.2-16-10.7-25.2,0-.4-.3-.9-.5-1.5-.6-1.4-1.4-3.4-1.1-5.9v-.3c.2-1,.5-3,.2-3.5-1.3-3-1.4-6-1.4-8.5,0-1.2,0-2.4-.2-3.4-.4-2.9,.2-5.4,.8-7.6,.4-1.6,.8-2.9,.6-4.1-.5-3.7,.5-7,1.3-9.9,.3-1,.5-1.9,.7-2.8,.9-4,2.5-7.8,4-11.3l.5-1.2c1.4-3.3,2.9-6.7,5.3-9.7,.6-.7,1.1-1.4,1.7-2.1,4.5-5.7,9.1-11.5,15.4-16.3,7.2-5.5,14.7-9.4,21.9-12.9,6.5-3.2,13.6-5.6,23.2-8,1.7-.4,3.5-.8,5.2-1.1,3.2-.6,6.2-1.2,9-2.3,1.2-.5,2.5-.7,4.1-.7s1.8,0,2.7,.2c0,0,.1,0,.2-.1,.8-.5,2.2-1.3,4.1-1.3s.8,0,1.2,.1c.8,.1,1.6,.2,2.5,.2,2,0,4.1-.4,6.4-.7,2.5-.4,5-.9,7.8-.9h.4c2.3,0,4.7,0,7,0s3.7,0,5.5,0c1.9,0,3.7,0,5.6,0h12.9c0-.3,0-.7,0-1.1,0-3.5,0-7.1,0-10.5,0-4.5,0-9.1,0-13.7,0-4-.9-8.2-3-13.2-2.2-5.3-6.2-9.9-11.4-13.4-7.4-4.9-15.5-7.4-24.8-7.5h0c-.4,0-.9,0-1.5,.1-.7,0-1.5,.2-2.4,.2-1.9,0-3.5-.5-4.9-1.4-2,1-4.3,1.4-6.9,1.4s-2.9-.1-4.3-.3c-.7,0-1.4-.1-2.1-.2-.3,0-.5,0-.8,0-1.8,0-3.6,.4-5.5,.8-2,.4-4,.8-6.2,.9-3.9,.2-7.3,.9-10.3,2.1-.9,.4-1.9,.6-3.1,.6s-1,0-1.5,0c-.3,0-.6,0-.8,0s0,0,0,0c-1.7,1.4-3.7,1.4-4.4,1.4s-.6,0-.9,0c0,0,0,0-.1,0-.7,.8-1.7,1.3-2.9,1.3-3.9,.1-7.6,1.6-11.6,3.1-2.6,1-5.2,2-8,2.7-1.2,.3-2.4,.4-3.4,.6-.7,0-1.4,.2-2.1,.3-.2,0-.5,0-.7,0-1.6,0-3.2-1-3.8-2.6-.9-2.4-1.4-4.6-1.9-6.7-.4-1.7-.8-3.3-1.3-4.7-.8-2.2-1.1-4.3-1.5-6.4-.2-1.5-.5-2.9-.9-4.3-.2-.6-.4-1.1-.6-1.7-1.1-3.4-2.5-7.6-.6-12.3,.4-.8,1-1.6,1.8-2,9.5-5.2,19.9-8.3,29.9-11.4l3.4-1.1c7.4-2.3,14.3-3.9,21-4.9,2.5-.4,5-.7,7.5-1,4.2-.5,8.6-1.1,12.8-1.8,5-.9,9.8-.9,14.4-.9,2.3,0,4.4,0,6.5,0,1,0,2,0,2.9-.1,3-.2,6.2-.3,9.3-.3s6.6,.2,9.4,.6c1.7,.3,3.5,.5,5.2,.7,6.9,1,14.1,1.9,21,4.6,9.6,3.6,17.6,7.2,24.9,12.9,10,7.7,17,18,22.1,32.3,.8,2.3,1.3,4.6,1.8,6.8,.3,1.1,.5,2.2,.8,3.3,1.8,6.7,1.6,13.2,1.4,19.6,0,1.9-.1,3.9-.1,5.9,0,45.6,0,92,0,137v43.3c0,2.2-1.8,4-4,4h-41.7c-1.8,0-3.4-1.2-3.8-2.9-1.3-4.5-1.9-9.2-2.4-13.7-.3-2.3-.5-4.5-.9-6.6-9.8,7.7-20.3,14.1-31.2,19l-1.9,.9c-6.8,3.1-13.8,6.2-22,6.4-1.9,1-3.9,1.2-5.6,1.2-.3,0-.6,0-1,0-.3,0-.5,0-.8,0-.4,0-1,0-1.4,.1-3.4,1.2-6.6,1.4-9.5,1.4-1.7,0-3.4,0-5.1,0Zm30.8-125.4c-3.5,1.3-7.1,1.9-10.6,2.5-2.3,.4-4.4,.8-6.5,1.3-5.5,1.4-11.1,3.9-16.4,7.3-.4,.3-.8,.5-1.3,.8-2.6,1.7-5.1,3.2-6.6,5.4-.4,.6-.8,1.2-1.2,1.8-1.6,2.4-3.1,4.7-3.9,7.1-.2,.6-.4,1.2-.6,1.7-.9,2.6-1.8,5.2-2,7.5-.9,11.1,.8,20.4,5.1,28.4,2.5,4.7,6.6,8,13,10.6,5.3,2.2,11.1,2.3,17.2,2.5h1.1c.5,0,1,0,1.5,0h0c8,0,16.1-2.1,25.4-6.6,10.5-5.1,18.9-10.8,25.5-17.4v-54.5c-.1,0-.2,0-.3,0-.2,0-.5,0-.7,0-1.5-.1-3.1-.2-4.8-.2-4.7,0-9.6,.4-14.3,.8-4.9,.4-9.9,.8-15,.8s-3,0-4.4-.1c0,0-.2,0-.3,0Z"/><path class="d" d="M629.7,99.7c3,0,5.9,.1,8.8,.6,8.5,1.3,17.2,2,25.5,5.1,8.5,3.2,16.6,6.7,23.9,12.4,10.4,8,16.5,18.5,20.8,30.5,1.1,3.2,1.7,6.5,2.5,9.8,2.2,8.1,1.1,16.3,1.2,24.4,.1,60,0,119.9,0,180.3h-41.7c-2.4-8.5-2.2-17.6-4.6-26.5-10.7,9.2-22.5,16.9-35.4,22.6-7.3,3.2-14.7,6.9-23,6.9s-.3,0-.4,0c-1.4,1-2.9,1.2-4.4,1.2s-1.2,0-1.7,0c-.9,0-1.8,0-2.7,.4-2.8,1-5.5,1.2-8.3,1.2-1.7,0-3.3,0-5,0s-2.9,0-4.4,0c-3.8,0-7.5-1.5-11.3-1.5-.5,0-1.1,0-1.6,0-.4,0-.7,0-1.1,0-3.6,0-7-1.9-10.6-2.7-4.1-.9-8-2.2-11.8-3.9-9.1-4.1-16.8-10.2-22.8-18-5.2-6.7-8.6-14.9-9.9-23.4-.3-2.2-1.9-3.8-1.6-6.2,.3-2,.7-4.3,0-6-1.6-3.6-.8-7.3-1.3-10.9-.6-4.1,1.9-7.7,1.4-11.6-.5-4,1.1-7.6,1.9-11.4,.8-3.6,2.3-7.1,3.8-10.6,1.5-3.4,2.9-7.1,5.2-9.9,5-6.3,9.7-12.7,16.3-17.7,6.6-5.1,13.8-8.9,21.2-12.5,7.2-3.5,14.7-5.8,22.4-7.7,4.9-1.2,9.9-1.8,14.7-3.6,.8-.3,1.7-.4,2.6-.4s1.8,0,2.7,.2c.1,0,.2,0,.3,0,1.6,0,2.5-1.5,4.1-1.5s.3,0,.5,0c1.1,.2,2.1,.3,3.2,.3,4.7,0,9.4-1.6,14.1-1.6s.2,0,.3,0c2.4,0,4.7,0,7.1,0,3.7,0,7.4,0,11.1,0h16.3c1.3-1.5,.6-3.4,.6-5.1,0-8.1,0-16.2,0-24.3,.1-5.3-1.4-10.2-3.3-14.8-2.6-6.2-7.2-11.4-12.9-15.2-8.1-5.4-17.2-8.1-27-8.2,0,0,0,0,0,0-1.2,0-2.5,.3-3.8,.3s-2.6-.3-3.7-1.5c-.1-.2-.5-.2-.9-.2-.4,0-.8,0-1.1,.2-2,1.3-4,1.6-6.1,1.6s-4.1-.3-6.1-.5c-.4,0-.7,0-1.1,0-4.1,0-7.9,1.5-11.9,1.6-4,.2-8,.8-11.8,2.5-.5,.2-1,.3-1.5,.3-.8,0-1.5-.1-2.3-.1-.9,0-1.7,.2-2.5,.8-.5,.5-1.2,.6-1.9,.6s-1,0-1.5,0c-1,0-1.9,.2-2.6,1.3-7.3,.2-13.6,4.2-20.5,6-1.7,.4-3.4,.5-5.3,.8-1.5-4.1-2-7.9-3.3-11.4-1.2-3.4-1.3-7-2.3-10.5-1-3.5-2.9-7.4-1.3-11.4,10.2-5.6,21.5-8.7,32.6-12.2,6.6-2,13.4-3.7,20.4-4.7,6.8-1,13.7-1.6,20.4-2.9,6.9-1.2,13.6-.6,20.4-.9,4-.2,8-.5,12.1-.5m-9.1,143.4c-1.4,0-2.8,0-4.2-.1-.3,0-.6,0-.8,0s-.3,0-.5,0c-5.6,2.1-11.5,2.4-17.2,3.9-6.4,1.6-12.2,4.4-17.6,7.8-3.2,2-6.9,4.1-9.1,7.4-2,3.2-4.4,6.3-5.6,9.8-1.1,3.3-2.5,6.8-2.8,10.2-.8,10.6,.4,21,5.6,30.6,3.3,6.2,8.7,9.9,15,12.4,6.3,2.6,13,2.6,19.7,2.9,.6,0,1.1,0,1.7,0,9.7,0,18.6-2.9,27.2-7,10.4-5,20-11.3,27.8-19.3v-58.1c-1.2-2.1-2.9-2-4.8-2.1-1.7-.1-3.4-.2-5.1-.2-9.8,0-19.5,1.7-29.3,1.7m9.1-151.4c-3.2,0-6.4,.2-9.5,.3-1,0-2,0-2.9,.1-2.1,0-4.2,0-6.4,0-4.8,0-9.8,0-15.1,1-4.1,.7-8.2,1.3-12.6,1.8-2.5,.3-5,.6-7.5,1-6.9,1-13.9,2.6-21.6,5-1.1,.4-2.3,.7-3.4,1.1-10.2,3.1-20.7,6.4-30.6,11.7-1.6,.9-2.9,2.3-3.6,4-2.5,6-.7,11.5,.5,15.1,.2,.5,.4,1.1,.5,1.6,.3,1.1,.5,2.4,.8,3.8,.3,2.1,.7,4.5,1.6,7.1,.5,1.3,.8,2.8,1.2,4.4,.5,2.1,1.1,4.5,2.1,7.1,1.2,3.2,4.2,5.2,7.5,5.2s1,0,1.5-.1c.6-.1,1.2-.2,1.9-.3,1.2-.1,2.5-.3,3.9-.7,3.1-.8,5.8-1.8,8.5-2.9,3.8-1.5,7.1-2.7,10.3-2.8,1.5,0,2.9-.5,4.1-1.3,1.9,0,3.6-.5,5.1-1.3,.4,0,.8,0,1.3,0,1.7,0,3.2-.3,4.7-.9,2.6-1.1,5.5-1.7,8.9-1.8,2.5,0,4.8-.6,6.8-1,1.8-.4,3.4-.7,4.7-.7s.4,0,.5,0c.6,0,1.3,.1,2,.2,1.4,.1,3,.3,4.7,.3,2.4,0,4.6-.3,6.7-1,1.4,.6,3.1,1,5.1,1s2.1-.1,2.8-.2c.3,0,.8,0,1,0,8.5,.1,15.9,2.3,22.6,6.8,4.6,3.1,8,7.1,10,11.6,1.9,4.5,2.7,8.1,2.7,11.5,0,4.6,0,9.3,0,13.8,0,2.5,0,5.1,0,7.6h-8.9c-1.9,0-3.7,0-5.6,0-1.8,0-3.7,0-5.5,0-2.7,0-4.9,0-7,0-.2,0-.3,0-.5,0-3.1,0-5.9,.5-8.4,.9-2.1,.3-4,.7-5.7,.7s-1.2,0-1.8-.1c-.6-.1-1.3-.2-1.9-.2-2.3,0-4.1,.7-5.3,1.4-.6,0-1.2,0-1.8,0-2,0-3.8,.3-5.5,.9-2.5,1-5.4,1.5-8.4,2.1-1.7,.3-3.5,.7-5.4,1.2-9.9,2.5-17.3,5-24,8.3-7.3,3.6-15.1,7.6-22.5,13.3-6.7,5.1-11.5,11.1-16.1,17-.5,.7-1.1,1.4-1.6,2.1-2.7,3.4-4.4,7.2-5.8,10.6-.2,.4-.3,.8-.5,1.1-1.6,3.7-3.3,7.7-4.2,12.1-.2,.8-.4,1.7-.7,2.6-.9,3.1-2,7-1.4,11.5,0,.4-.3,1.7-.5,2.6-.6,2.3-1.4,5.5-.9,9.2,.1,.8,.1,1.8,.1,2.9,0,2.7,0,5.9,1.5,9.5,0,.5-.2,1.4-.2,1.9v.3c-.6,3.6,.6,6.4,1.3,8,0,.2,.2,.5,.3,.7,1.5,9.8,5.5,19.1,11.4,26.9,6.8,8.9,15.5,15.8,25.8,20.4,4.4,2,8.9,3.5,13.4,4.5,.9,.2,1.9,.6,3,.9,2.5,.9,5.6,2,9.3,2s1.4,0,2-.1c.2,0,.4,0,.7,0,1.2,0,2.6,.3,4.2,.6,2.1,.4,4.4,.9,7,.9,1.5,0,3,0,4.5,0s3.4,0,5.1,0c3,0,6.7-.2,10.5-1.5,0,0,.2,0,.4,0,.2,0,.5,0,.7,0,.3,0,.7,0,1,0,1.2,0,3.7,0,6.5-1.2,8.6-.4,16-3.8,22.6-6.7,.6-.3,1.3-.6,1.9-.9,9.2-4.1,18.1-9.2,26.6-15.3,.6,4.6,1.2,9.3,2.5,14.1,1,3.4,4.1,5.8,7.7,5.8h41.7c4.4,0,8-3.6,8-8,0-14.5,0-28.9,0-43.3,0-44.9,0-91.4,0-137,0-1.9,0-3.8,.1-5.7,.2-6.6,.4-13.5-1.5-20.7-.3-1-.5-2.1-.8-3.2-.5-2.3-1.1-4.7-2-7.2-5.4-15.1-12.8-25.9-23.4-34.1-7.8-6-16-9.7-26-13.5-7.4-2.8-14.8-3.8-21.9-4.8-1.8-.2-3.5-.5-5.2-.7-3-.5-6.3-.7-10-.7h0Zm-9.1,159.4c5.2,0,10.4-.4,15.3-.9,4.8-.4,9.4-.8,14-.8s1.2,0,1.8,0v49c-6.1,5.8-13.8,10.9-23.2,15.5-8.7,4.2-16.3,6.2-23.7,6.2s-.9,0-1.4,0h-1.2c-5.8-.2-11.2-.4-15.8-2.3-5.4-2.2-8.9-5-11-8.8-3.9-7.3-5.5-15.8-4.7-26.1,.1-1.8,.9-4.1,1.8-6.5,.2-.6,.4-1.2,.6-1.8,.6-1.8,2-3.9,3.5-6.1,.4-.6,.8-1.3,1.2-1.9,1-1.5,3.1-2.8,5.3-4.2,.4-.3,.9-.5,1.3-.8,5.1-3.3,10.1-5.5,15.3-6.8,1.9-.5,4-.9,6.2-1.2,3.4-.6,6.9-1.2,10.4-2.4,1.3,0,2.7,0,4.1,0h0Z"/></g><g><path class="m" d="M825,366.9c-1.7,0-3.2-1-3.8-2.6-1.9-5.1-3.5-10.4-5-15.5-1-3.5-2.1-7.2-3.3-10.7-.5-1.4-1-2.9-1.5-4.3-1.5-4.5-3.1-9.1-4.3-13.8-.7-2.7-1.5-5.3-2.5-8-1-3-2.1-6.2-2.8-9.4-.6-2.8-1.6-5.5-2.6-8.4-1-2.9-2-5.9-2.7-9-.7-2.9-1.6-5.6-2.6-8.6-1-2.8-1.9-5.7-2.7-8.7-1.4-5.7-3.2-11.3-5-16.8-.8-2.5-1.6-5-2.4-7.5l-1-3.3c-2.5-8.1-5-16.5-7.7-24.7-1.7-5.2-3.2-10.5-4.7-15.6-.9-3-1.8-6-2.7-9-.9-3-1.9-6-2.9-8.9-1.6-4.9-3.3-10-4.6-15.1-1.1-4.6-2.6-9.3-4.1-13.7-1.1-3.5-2.3-7.1-3.3-10.7-1.4-4.9-3-9.8-4.6-14.6-1.4-4.4-2.9-8.9-4.2-13.4-.2-.6-.4-1.2-.6-1.8-.8-2.3-1.8-5.2-1.4-8.6,.2-2,1.9-3.6,4-3.6h57.4c.9,0,1.8,.3,2.6,.9,1.7,1.4,2.8,3.2,3.3,5.6,1,4.4,2.4,9.2,4.3,14.5,.9,2.6,1.6,5.2,2.3,7.7,.5,2,1,3.8,1.6,5.7,.4,1.3,.9,2.6,1.3,3.9,1,2.9,2,5.8,2.8,9,.7,3.1,1.7,6.1,2.9,9.3,.8,2.3,1.7,4.7,2.4,7.1,.4,1.4,.8,2.7,1.1,4.1,.9,3.3,1.8,6.4,2.9,9.5,1.7,4.8,3.1,9.2,4.2,13.4,.5,1.9,1.2,3.7,1.9,5.7,.9,2.4,1.8,4.8,2.4,7.4,.9,3.9,2.2,7.6,3.6,11.5,1.6,4.6,3.2,9.4,4.3,14.4,.5,2.4,1.4,4.8,2.3,7.4,.6,1.7,1.3,3.5,1.8,5.3,.8,2.8,1.8,5.6,2.7,8.3,1.8,5.3,3.6,10.8,4.9,16.4,.4,1.8,.8,3.7,1.1,5.6,.3,1.7,.6,3.4,1,5.1,.4,1.6,.6,3.2,.9,4.7,.4,2,.7,3.9,1.2,5.8,.4,1.7,.8,3.3,1.3,5,2.2-6.7,4.3-13,6.5-19.5,2.7-7.9,5.2-16,7.6-23.9,.9-2.9,1.8-5.8,2.7-8.8,3.5-11.3,6.5-23,9.1-33,1.7-6.6,3.2-13.4,4.6-20,1-4.5,2-9.2,3.1-13.8,2.5-10.6,4.7-22,6.7-33.9,.5-2.9,1-5.9,1.5-8.7,1.6-8.5,3.2-17.3,3.1-26,0-1.1,.4-2.2,1.2-2.9l1.8-1.8c.7-.7,1.7-1.1,2.8-1.1h55.9c1.9,0,3.5,1.3,3.9,3.2,.8,3.6,0,6.6-.8,9.4-.3,1.2-.6,2.4-.7,3.4-.4,4-1.4,8-2.5,11.7-1.1,4.1-2,8.5-2.8,12.7-.3,1.4-.5,2.8-.8,4.3-1.2,6.2-2.6,12.4-4,18.5l-.5,2.1c-1.7,7.6-3.8,15.9-6.4,25.2-1.3,4.8-2.7,10.2-4.2,16.9-.7,3.1-1.6,6.2-2.5,9.1-.6,2-1.2,4.1-1.8,6.2-2.2,8.3-4.4,16.2-6.8,23.7-.6,2-1.2,3.9-1.8,5.9-2.8,9.1-5.8,18.5-9.3,27.5-1.6,4.1-3.2,8.4-4.7,12.6-2.9,8-5.9,16.3-9.6,24.3l-.4,.9c-1.9,4-3.9,8.1-5.1,12.3-.8,3-2.1,5.7-3.3,8.2-.8,1.8-1.6,3.5-2.3,5.3-1.2,3.2-2.7,6.1-4.1,9-1.8,3.4-3.4,6.7-4.4,10.1-.5,1.6-1.6,2.5-2.2,3,0,0-.2,.1-.2,.2-.8,.8-1.8,1.2-2.8,1.2h-66.2Z"/><path class="d" d="M971.3,104.3c.9,4.1-1.2,7.7-1.6,11.5-.4,3.7-1.4,7.5-2.4,11.1-1.6,5.7-2.5,11.6-3.7,17.3-1.4,6.9-2.9,13.7-4.4,20.5-1.9,8.4-4,16.7-6.3,25-1.6,5.6-2.9,11.4-4.2,17.1-1.2,5.1-2.9,10.1-4.2,15.1-2.1,7.9-4.3,15.7-6.7,23.5-3.5,11.1-6.8,22.4-11,33.2-4.8,12.2-8.5,24.7-14.2,36.6-2.1,4.4-4.3,9-5.7,13.8-1.3,4.6-3.9,8.7-5.5,13.2-2.4,6.6-6.6,12.5-8.6,19.4-.2,.6-.9,1-1.4,1.5h-66.2c-3.1-8.5-5.3-17.4-8.2-26-2-5.9-4.2-11.8-5.7-17.8-1.5-5.9-4-11.5-5.3-17.4-1.4-6-4-11.5-5.3-17.4-1.4-6-3.9-11.5-5.3-17.4-2-8.4-4.9-16.4-7.4-24.6-2.9-9.4-5.7-18.7-8.7-28-2.6-8.1-4.9-16.4-7.4-24.6-2.4-8-5.5-15.8-7.5-23.8-2.1-8.3-5.1-16.3-7.4-24.6-2.6-9.4-6.1-18.6-8.8-28-.8-2.8-2.2-5.5-1.9-8.9h57.4c.8,.7,1.6,1.6,2,3.4,1.1,5.1,2.7,10.1,4.4,15,1.6,4.4,2.4,8.9,3.8,13.3,1.3,4.2,3,8.2,4,12.5,1.2,5.6,3.7,11,5.3,16.6,1.3,4.6,2.5,9.3,4.1,13.8,1.5,4.3,2.9,8.7,4.1,13.1,1.2,4.3,3.2,8.6,4.3,13,2.1,8.8,6,16.9,7.8,25.8,.9,4.4,2.9,8.7,4.2,13,2.5,8.2,5.6,16.2,7.5,24.5,.8,3.5,1.3,7.1,2.1,10.6,.8,3.5,1.3,7.1,2.1,10.5,1.5,5.9,3,11.8,4.6,18.5,3.7-11.3,7.1-22,10.8-32.6,3.8-10.8,6.9-21.9,10.3-32.8,3.4-11,6.3-22.1,9.2-33.2,2.9-11.2,5.1-22.6,7.8-33.9,2.7-11.3,4.9-22.8,6.7-34.2,1.9-11.7,4.8-23.3,4.7-35.4,.5-.5,1.2-1.1,1.8-1.8h55.9m0-8h-55.9c-2.1,0-4,.8-5.5,2.2l-1.8,1.8c-1.6,1.5-2.5,3.6-2.5,5.8,0,8.3-1.4,16.5-3,25.2-.5,2.9-1.1,5.8-1.5,8.8-1.9,11.8-4.1,23.2-6.6,33.6-1.1,4.6-2.1,9.3-3.1,13.9-1.4,6.6-2.9,13.3-4.6,19.9-2.6,10-5.6,21.7-9.1,32.9-.9,2.9-1.8,5.8-2.7,8.8-2.4,7.9-4.8,16-7.5,23.8-.7,1.9-1.3,3.8-1.9,5.7,0-.4-.2-.8-.3-1.2-.4-1.6-.7-3.2-1-4.9-.3-1.9-.7-3.8-1.1-5.7-1.3-5.8-3.2-11.4-5-16.8-.9-2.7-1.8-5.5-2.7-8.3-.6-1.9-1.2-3.7-1.9-5.5-.9-2.4-1.7-4.8-2.2-6.9-1.1-5.3-2.8-10.1-4.4-14.9-1.3-3.9-2.6-7.5-3.5-11.2-.7-2.8-1.6-5.3-2.5-7.8-.7-1.9-1.4-3.7-1.8-5.4-1.2-4.3-2.6-8.8-4.3-13.8-1-2.9-1.9-6-2.8-9.2-.4-1.4-.8-2.7-1.1-4.1-.7-2.6-1.6-5-2.4-7.3-1.1-3.1-2.1-6-2.7-8.8-.8-3.4-1.8-6.5-2.9-9.5-.5-1.3-.9-2.5-1.3-3.8-.6-1.7-1-3.5-1.5-5.5-.7-2.6-1.4-5.3-2.4-8-1.9-5.2-3.2-9.8-4.2-14.1-.7-3.2-2.3-5.8-4.7-7.8-1.4-1.2-3.3-1.9-5.1-1.9h-57.4c-4.1,0-7.5,3.1-8,7.1-.5,4.3,.7,7.8,1.6,10.4,.2,.6,.4,1.1,.5,1.6,1.3,4.6,2.8,9.1,4.3,13.5,1.6,4.7,3.2,9.6,4.5,14.4,1,3.7,2.2,7.4,3.4,10.9,1.5,4.6,2.9,9,4,13.5,1.3,5.3,3,10.5,4.7,15.4,1,3,2,5.9,2.9,8.8,.9,3,1.8,6,2.7,9,1.5,5.2,3.1,10.5,4.8,15.7,2.6,8.1,5.2,16.5,7.7,24.5l1,3.4c.8,2.6,1.6,5.1,2.4,7.6,1.8,5.7,3.6,11,4.9,16.5,.8,3.2,1.8,6.2,2.8,9.1,1,2.8,1.9,5.5,2.5,8.2,.8,3.3,1.8,6.4,2.9,9.4,1,2.8,1.9,5.4,2.4,7.9,.8,3.5,1.9,6.7,3,9.8,.9,2.7,1.8,5.2,2.4,7.7,1.2,4.9,2.8,9.6,4.4,14.1,.5,1.4,1,2.9,1.5,4.3,1.2,3.5,2.2,7.1,3.3,10.6,1.5,5.2,3.1,10.5,5,15.7,1.2,3.1,4.2,5.2,7.5,5.2h66.2c2,0,4-.8,5.5-2.2h0c.8-.7,2.7-2.3,3.5-5.1,.9-3.1,2.5-6.2,4.1-9.4,1.5-3,3.1-6,4.3-9.4,.6-1.6,1.3-3.2,2.1-4.9,1.2-2.6,2.6-5.6,3.5-8.8,1.1-3.8,3-7.8,4.8-11.7l.4-.9c3.9-8.1,6.9-16.5,9.8-24.6,1.5-4.1,3-8.4,4.6-12.5,3.6-9.2,6.5-18.6,9.4-27.8,.6-2,1.2-3.9,1.8-5.9,2.4-7.5,4.7-15.5,6.8-23.9,.5-2,1.1-4,1.7-6,.9-3,1.8-6.1,2.6-9.3,1.5-6.7,2.8-12,4.1-16.7,2.6-9.4,4.7-17.6,6.4-25.4l.5-2.1c1.4-6.1,2.8-12.4,4-18.6,.3-1.4,.6-2.9,.8-4.3,.8-4.3,1.6-8.4,2.7-12.4,1.1-3.9,2.1-8.1,2.6-12.4,0-.7,.3-1.7,.6-2.8,.8-2.8,1.8-6.7,.8-11.2-.8-3.7-4.1-6.3-7.8-6.3h0Z"/></g><g><path class="j" d="M403,456c-1.1,0-2.1-.4-2.8-1.2-3.5-3.4-7.3-6.6-11.3-9.9-4.8-4-9.8-8-14.3-12.8-1.3-1.4-1.5-3.5-.4-5.1l2.3-3.2c1.6-2.3,3.2-4.6,4.8-6.8,6.4-9,10.1-19.2,13.9-30,.5-1.4,1-2.8,1.5-4.2,0-.1,0-.7,0-1.1,0-1.4-.3-3.7,1.1-5.8,0-1.9,.6-3.5,1-4.9,.4-1.3,.7-2.4,.6-3.3-.4-3.5,.2-6.8,.8-9.7,.5-2.4,.9-4.6,.7-6.8v-1.1c-.5-5.3-.9-10.8,.2-16.1,1-4.7,1-9.4,1-14.4,0-1.5,0-3.1,0-4.6,0-4.5,0-9.1,0-13.5,0-2,0-4,0-6V13.9c0-2.2,1.8-4,4-4h55.3c2.2,0,4,1.8,4,4V59.1c0,95.2,0,190.4,0,285.6,0,3.2-.5,6.2-1.5,9.4,0,.3,0,1.1,0,1.7,.1,1.6,.3,4.1-1.2,6.5,.1,4.1-1,7.9-2,11.3-.3,1.2-.7,2.3-.9,3.5-1.9,7.8-4.7,15.4-7.2,21.8-2.2,5.8-5.3,11-8.3,16.1-1.3,2.1-2.6,4.3-3.8,6.5-1.1,2.1-2.6,3.8-3.9,5.4-.5,.6-1,1.2-1.4,1.8-6,7.8-13.4,16.6-23,23.3-.4,.3-.9,.9-1.3,1.4-.3,.4-.6,.8-.9,1.1-.8,.9-1.8,1.3-3,1.3h-4.2Z"/><path class="d" d="M461.5,13.9v6c0,108.3,0,216.6,0,324.9,0,2.9-.4,5.5-1.3,8.2-.8,2.6,1,5.8-1.4,8.2,.6,5.3-1.5,10.1-2.7,15.1-1.8,7.3-4.3,14.4-7,21.4-3,7.8-7.8,14.7-11.8,22.1-1.4,2.5-3.3,4.5-5,6.6-6.4,8.4-13.4,16.4-22.2,22.5-1.2,.9-2.1,2.3-2.9,3.2h-4.2c-7.9-7.8-17.5-14.2-25.5-22.6,2.4-3.4,4.7-6.7,7.1-10,7.6-10.7,11.5-23,15.9-35.2,.8-2.2-.9-4.9,1.4-6.8-.5-3.5,1.9-6.7,1.5-10.1-.7-5.6,1.9-10.7,1.5-16.3-.4-5.4-.9-11,.1-16.1,1.4-6.6,1-13.1,1.1-19.7,.1-6.5,0-13,0-19.5V13.9h55.3m0-8h-55.3c-4.4,0-8,3.6-8,8V295.5c0,2,0,4,0,6,0,4.4,0,9,0,13.4,0,1.6,0,3.2,0,4.7,0,4.8,0,9.3-.9,13.6-1.2,5.9-.8,11.9-.3,17.2v1.1c.2,1.6-.2,3.5-.6,5.7-.6,3.2-1.3,6.8-.8,10.9,0,.4-.3,1.2-.5,1.8-.4,1.3-.9,3-1.1,4.9-1.5,3-1.3,5.9-1.2,7.3,0,0,0,.1,0,.2-.4,1.2-.8,2.3-1.3,3.5-3.8,10.5-7.3,20.5-13.4,29-1.6,2.3-3.2,4.5-4.8,6.8l-2.3,3.2c-2.2,3.1-1.9,7.3,.7,10.1,4.7,5,9.7,9.1,14.6,13.2,3.9,3.3,7.7,6.3,11,9.6,1.5,1.5,3.5,2.3,5.6,2.3h4.2c2.3,0,4.5-1,6-2.7,.4-.5,.8-.9,1.1-1.3,.2-.2,.4-.6,.6-.7,10-7,17.6-16.1,23.7-24,.4-.5,.9-1.1,1.4-1.7,1.4-1.7,3-3.6,4.3-6,1.2-2.1,2.4-4.2,3.7-6.4,3.1-5.2,6.3-10.6,8.6-16.6,2.5-6.5,5.4-14.3,7.3-22.3,.3-1.1,.6-2.1,.9-3.3,1-3.4,2.1-7.2,2.1-11.4,1.5-3.1,1.3-6.1,1.2-7.8,0-.2,0-.5,0-.7,1-3.4,1.5-6.8,1.5-10.2,0-95.6,0-192.8,0-286.7V19.9s0-6,0-6c0-4.4-3.6-8-8-8h0Z"/></g><g><path class="e" d="M164.8,260.8c-1.2,0-2.4-.4-3.3-1.2-2.8-2.2-5.8-4.1-8.9-6.1-2.7-1.8-5.6-3.6-8.3-5.6-8.6-6.4-16-13.7-21.4-19.4-4-4.1-6.9-8.7-10.1-13.9-3.2-5.1-5.2-10.5-7-15.6-.4-1-.4-1.9-.5-2.6,0,0,0-.1,0-.2-.5-.6-.8-1.3-.9-2-.2-1.2-.4-2.4-.5-3.6-.7-4.3-1.4-8.8-1-13.5,.5-5.9,1.8-11.6,4-17.2,1.7-4.4,4-8.2,6.3-12l.7-1.2c.9-1.5,1.9-2.7,2.9-3.8l.3-.3c.5-.6,1-1.3,1.6-2,1.3-1.7,2.7-3.6,4.7-5.2,.5-.4,1-1.1,1.6-1.9,.6-.8,1.2-1.7,2.1-2.5,2.4-2.4,4.9-4.6,7.3-6.8,1.6-1.5,3.3-3,5-4.6,2.7-2.6,5.7-5,8.5-7.3l1.6-1.3c.9-.7,1.7-1.5,2.6-2.2,2.5-2.1,5-4.2,7.8-6.1,.9-.6,1.7-1.4,2.6-2.3,.5-.5,1.1-1,1.6-1.5,1.3-1.1,2.6-2.2,3.9-3.3,1.1-.9,2.1-1.7,3.1-2.6,1.5-1.3,2.9-2.7,4.4-4.1,1.8-1.7,3.7-3.5,5.7-5.2,1.8-1.5,4.1-3.4,6.1-5.6,5.9-6.3,11.9-13.1,16.3-20.8,3.1-5.5,6.3-11.4,7.3-17.9,.2-1.1,.4-2.1,.6-3.1,.4-1.9,.8-3.7,.8-5.3v-.3c0-1.1,0-2.9,1-4.8-1.3-2.3-1.1-4.5-1-5.9,0-.4,0-.8,0-1.1,0-2.5-.5-5.2-1.4-8.6-.2-1-.1-1.8,0-2.3,0,0,0-.2,0-.3,.1-2.1,1.9-3.7,4-3.7h1.8c1.5,0,2.9,.9,3.6,2.2,.5,1,1.1,1.9,1.8,2.9,.9,1.3,1.8,2.7,2.6,4.4,2.4,5.1,3.7,9.3,4.5,13.7,1.1,2,1.1,4,1.1,5.4,0,.6,0,1.3,.1,1.6,.8,2.1,.7,4.2,.5,5.9,0,.8-.1,1.6,0,2.2,.2,1.8-.3,3.2-.6,4.2,0,.3-.2,.7-.2,.8,0,.1,0,.4,0,.7,.1,1.1,.4,3.2-.8,5.2-.2,3.8-1.4,7.2-2.5,10.3-.5,1.4-.9,2.7-1.3,4-.4,1.4-1,2.4-1.5,3.4-.4,.7-.7,1.4-.8,1.9-.5,2.1-1.5,3.7-2.4,5.2-.2,.4-.5,.8-.7,1.1-.3,.5-.6,1-.9,1.5-1.2,2.2-2.5,4.5-4.2,6.7-.9,1.2-1.7,2.4-2.6,3.7-1,1.5-2.1,3-3.3,4.5-5.1,6.5-11.1,12.9-19.1,20.4-.9,.8-1.8,1.7-2.7,2.6-2.3,2.2-4.7,4.5-7.3,6.6-1,.8-1.9,1.7-2.9,2.7-1.2,1.2-2.5,2.4-4,3.5-1.4,1.1-2.7,2.3-4.1,3.7-1.4,1.4-2.9,2.9-4.6,4.2-3.8,2.9-7.1,6.4-10.2,9.8-5.1,5.5-9,10.2-12.1,14.9-2.3,3.5-6,11.4-6.5,14.5-.6,3.6-1.1,7.9-.9,12,1,2,.9,4,.8,5.2,0,.3,0,.6,0,.9,0,.6,.2,1.5,.4,2.3,.2,.6,.3,1.3,.4,1.9,.5,3,1.5,6.1,2.6,9.3v.2c.7,1.8,1.5,3.6,2.4,5.4,.5,1.1,1.1,2.3,1.6,3.5,1.3,3.1,3.2,6,5.2,9,1.1,1.7,2.3,3.4,3.3,5.2,.4,.6,1.1,1.4,1.8,2.1,.5,.5,.9,1,1.3,1.5,2.4,2.9,4.5,5.3,6.4,7.5,1.9,2.2,3.9,4.3,6,6.5,.7,.8,1.4,1.5,2.2,2.3,1.2,1.3,1.4,3.3,.5,4.8-1.1,1.8-2.9,2.9-4.8,2.9Z"/><path class="d" d="M216.6,8c1.2,2.5,3.1,4.6,4.3,7.2,2.1,4.5,3.6,8.7,4.3,13.6,1.6,2,.4,4.6,1.3,6.9,.8,2.1,0,4.7,.2,7,.2,1.7-.9,3-.9,4.6,0,1.5,.7,3.2-.7,4.6,.1,5.2-2.3,9.7-3.7,14.6-.6,2-1.9,3.5-2.3,5.4-.5,2-1.7,3.5-2.7,5.3-1.5,2.6-2.9,5.3-4.8,7.8-2,2.6-3.8,5.4-5.9,8.1-5.7,7.2-12,13.7-18.7,19.9-3.2,3-6.3,6.2-9.8,9-2.4,1.9-4.4,4.3-6.8,6.1-3.2,2.4-5.6,5.5-8.7,7.9-4,3-7.3,6.6-10.7,10.2-4.5,4.8-8.8,9.9-12.5,15.4-2.4,3.6-6.4,12-7.1,16.2-.7,4.6-1.2,9.2-.8,13.9,1.2,1.5,.7,3.3,.7,4.9,0,1.7,.6,3.3,.9,4.9,.6,3.4,1.7,6.7,2.8,10,1.1,3.2,2.7,6.1,4,9.2,2.3,5.3,5.9,9.8,8.8,14.7,.9,1.5,2.3,2.8,3.5,4.2,2.1,2.5,4.3,5,6.4,7.5,2.6,3,5.5,5.9,8.2,8.9-.4,.7-.9,1-1.4,1s-.6-.1-.9-.3c-5.5-4.3-11.7-7.6-17.3-11.8-7.6-5.7-14.4-12.2-20.9-18.9-3.8-3.9-6.7-8.6-9.6-13.2-2.9-4.7-4.8-9.7-6.7-14.8-.5-1.3,0-2.9-1.2-4-.7-5.4-2-10.7-1.5-16.2,.5-5.5,1.7-10.9,3.7-16.1,1.7-4.5,4.3-8.5,6.7-12.6,.8-1.3,1.8-2.5,2.8-3.7,1.9-2.2,3.4-4.8,5.7-6.7,1.6-1.3,2.6-3.2,4-4.7,3.9-3.9,8.2-7.5,12.2-11.3,3.1-3,6.6-5.7,10-8.5,3.3-2.7,6.5-5.6,10.1-8.1,1.7-1.1,3.1-2.7,4.6-4,2.3-2,4.7-3.9,7-5.9,3.5-3,6.5-6.4,10-9.2,2.3-1.9,4.5-3.8,6.5-5.9,6.3-6.7,12.3-13.6,16.8-21.5,3.4-6,6.7-12.2,7.8-19.2,.5-3,1.5-6,1.4-9.1,0-1-.1-2,.6-3.1,.6-.9,.6-2.7,0-3.6-1.1-1.8-.5-3.6-.6-5.4-.1-3.2-.7-6.4-1.5-9.5,0-.3,0-.7,0-1.3h1.8m0-8h-1.8c-4.2,0-7.7,3.2-8,7.4h0c0,.8-.3,2.2,.2,3.9,.8,3.1,1.2,5.5,1.3,7.8,0,.1,0,.4,0,.7,0,1.4-.2,3.6,.7,6.2-.7,2.1-.7,3.9-.7,4.9v.2c0,1.2-.3,2.7-.7,4.4-.2,1-.5,2.1-.6,3.3-.9,5.8-3.9,11.4-6.9,16.6-4.2,7.3-10,13.9-15.7,20-1.5,1.6-3.2,3.1-5.7,5.2-2.1,1.8-4.1,3.6-5.9,5.4-1.5,1.4-2.8,2.7-4.3,4-1,.9-2,1.7-3.1,2.6-1.3,1.1-2.6,2.2-4,3.4-.6,.5-1.2,1.1-1.7,1.6-.8,.7-1.5,1.5-2.1,1.9-3,2-5.6,4.2-8.2,6.4-.9,.7-1.7,1.4-2.6,2.1-.5,.4-1.1,.9-1.6,1.3-2.9,2.4-5.9,4.8-8.8,7.5-1.6,1.5-3.2,3-4.9,4.5-2.5,2.2-5,4.5-7.4,7-1,1-1.8,2.1-2.5,3-.3,.4-.7,1-.9,1.2-2.4,1.9-4.1,4.1-5.4,6-.5,.7-1,1.3-1.4,1.8l-.3,.3c-1,1.2-2.2,2.6-3.2,4.3l-.7,1.2c-2.4,3.9-4.8,7.9-6.6,12.6-2.3,5.9-3.7,12-4.2,18.3-.4,5.2,.3,10.1,1,14.5,.2,1.2,.4,2.4,.5,3.5,.1,1,.5,2,1,2.9,0,.8,.2,1.7,.6,2.8,1.8,5,4,10.9,7.4,16.3,3.3,5.4,6.4,10.2,10.6,14.6,5.6,5.8,13.1,13.3,21.9,19.8,2.8,2.1,5.7,4,8.5,5.8,3.1,2,6,3.8,8.6,5.9,1.7,1.3,3.7,2,5.8,2,3.4,0,6.5-1.8,8.3-4.9,1.8-3.1,1.4-7-1-9.6-.7-.8-1.5-1.5-2.2-2.3-2.1-2.2-4-4.2-5.9-6.4-1.9-2.2-3.9-4.5-6.3-7.4-.5-.6-1-1.1-1.5-1.6-.5-.5-1.1-1.2-1.2-1.4-1.1-1.9-2.3-3.7-3.4-5.4-1.9-2.9-3.7-5.6-4.9-8.4-.5-1.3-1.1-2.5-1.7-3.6-.8-1.7-1.6-3.4-2.1-4.9v-.2c-1.1-3.1-2-6-2.5-8.7-.1-.8-.3-1.6-.5-2.2-.1-.5-.3-1.2-.3-1.4,0,0,0-.4,0-.6,0-1.4,.2-3.8-.9-6.4,0-3.6,.4-7.3,.9-10.5,.4-2.4,3.6-9.6,5.8-12.9,3-4.5,6.7-9,11.7-14.3,3.1-3.3,6.2-6.6,9.8-9.3,1.9-1.5,3.6-3.1,5-4.5,1.3-1.3,2.5-2.4,3.7-3.3,1.7-1.3,3.1-2.6,4.3-3.9,.9-.9,1.8-1.7,2.6-2.4,2.7-2.2,5.2-4.6,7.6-6.9,.9-.8,1.8-1.7,2.6-2.5,8.1-7.6,14.3-14.2,19.5-20.8,1.2-1.6,2.3-3.1,3.4-4.6,.9-1.2,1.7-2.4,2.5-3.5,1.8-2.4,3.2-4.8,4.5-7.1,.3-.5,.6-1,.9-1.5,.2-.3,.4-.7,.6-1,.9-1.5,2.2-3.6,2.9-6.2,0-.2,.3-.7,.5-1,.5-1,1.3-2.4,1.8-4.2,.3-1.2,.8-2.4,1.2-3.7,1.1-3.1,2.3-6.6,2.7-10.6,1.2-2.7,1-5.4,.8-6.6,.4-1.2,1.1-3.2,.8-5.9,0-.2,0-1,0-1.5,.1-1.9,.3-4.4-.6-7.2,0-.2,0-.4,0-.6,0-1.5,0-4-1.3-6.7-.8-4.5-2.3-8.9-4.7-14.1-.9-1.9-1.9-3.5-2.9-4.9-.6-.9-1.2-1.8-1.5-2.5-1.4-2.7-4.1-4.4-7.2-4.4h0Z"/></g><g><path class="m" d="M165.3,442c-.3,0-.7,0-1,0-1.7,0-3.5,0-5.6,0s-3.2,0-4.8,0c-1.2,0-2.4,0-3.7,0-2,0-3.7-.2-5.4-.5-1.5-.2-2.9-.4-4.3-.4s-.6,0-1,0c-2.1,.2-4.2,.3-6.4,.3s-3.9-.2-5.5-.5c-1.5-.3-3.1-.3-4.9-.3-1.9,0-4,0-6.1-.4-1.4-.3-3-.3-4.6-.3-1.8,0-3.6,0-5.5-.4-.9-.2-1.9-.2-3-.3-1.4,0-3.1-.1-4.7-.5-.8-.2-1.7-.2-2.7-.3-1.3,0-2.7-.1-4.2-.5-.8-.2-1.7-.2-2.7-.3-1.2,0-2.7-.1-4.1-.5-.5-.1-1.1-.2-1.8-.2-1.1,0-2.4-.2-3.7-.6-.5-.2-1.2-.2-2-.2-.9,0-1.9-.1-3-.4-1.5-.4-3.1-.6-4.8-.8-1.5-.2-3-.4-4.6-.7-1.7-.3-3.5-.7-5.3-.9-2.4-.4-4.9-.8-7.4-1.4-.9-.2-1.8-.4-2.7-.5-2.3-.4-4.7-.9-7.1-1.8-1.7-.7-3.6-1.2-5.5-1.6-1-.3-2.1-.5-3.1-.8-1.4-.4-2.8-.9-4-1.4-1.5-.6-2.9-1.1-4.4-1.4-2.4-.6-4.6-1.7-6.4-2.7-.7-.4-1.5-.8-2.2-1.1-4.1-1.9-7.8-5-10.7-9-2.5-3.5-3.1-7.1-1.8-10.8,1.5-4.3,4.2-7.9,8.2-10.9,2.8-2.1,5.9-3.9,9.1-5.4,1.9-.9,3.9-1.6,5.7-2.4,2.5-1,4.9-1.9,7.1-3.1,.6-.3,1.2-.5,1.9-.5,.9,0,1.9-.4,3.1-.9,1.1-.4,2.4-.9,3.9-1.2,2.5-.5,5.1-1.1,7.2-1.7,.9-.2,1.8-.4,2.6-.6,1.5-.3,2.9-.6,4-1.2,.9-.4,1.8-.6,2.9-.6s.6,0,1,0c0,0,.1,0,.2,0,.6-.4,1.4-.7,2.2-.7,.9,0,1.9-.2,3-.4,1.3-.2,2.8-.5,4.4-.5s2.4,.2,3.5,.5c.7,.2,1.3,.5,1.7,1l.8,.8c1.2,1.2,1.5,3,.8,4.5h0c0,.3-.2,.5-.3,.7-1.2,2.2-3.2,2.7-4.2,2.8-.6,.5-1.4,.8-2.3,.8-2.1,0-4.2,1-6.4,1.9-.9,.4-1.9,.8-2.9,1.2-4.6,1.7-8,3.5-10.9,5.7-1.9,1.5-3.4,2.8-4.6,4.5-.6,.9-.9,1.7-.8,2.7,.8,1.3,2.1,2.4,4,3.5,3.9,2.3,8.1,3.8,11.7,4.9,3.2,1.1,6.6,2.2,9.9,2.8,1.1,.2,2.1,.5,3,.8,1.2,.4,2.2,.7,3.1,.7,.8,0,1.5,.2,2.1,.7,.3,0,.5,0,.7,0,1.3,0,2.3,.5,2.9,.8,0,0,.1,0,.2,0,1.3,0,2.5,.3,3.4,.6,.4,.1,1,.3,1.2,.3,.3,0,.7-.1,1-.1,.8,0,1.6,.3,2.3,.8h0c.2,0,.4,0,.6,0,.6,0,1.9,0,3.3,.7,.3,0,.6,0,.9,0,1.6,0,3,.4,4.1,.7,.2,0,.5,.1,.8,.2,.2,0,.6,0,1.1,0,1,0,2.5,0,4,.7,0,0,.6,0,1,0,1,0,2.4,0,3.8,.5,.3,0,.6,0,.8,0,1.7,0,3.2,.3,4.6,.5,1.1,.2,2.2,.4,3.1,.4s.5,0,.8,0c.4,0,.7,0,1.1,0,1.4,0,2.6,.4,3.4,.7,.3,.1,.8,.3,.9,.3,1.1-.2,2.4-.3,3.7-.3s2.6,.2,3.7,.6c.8,.3,1.7,.4,2.9,.4s1.2,0,1.8,0h.2c.5,0,1.1,0,1.6,0,2.6,0,5.1,.2,7.5,.5,2.3,.2,4.6,.4,6.8,.4s.9,0,1.4,0c2.1,0,4.4-.1,7.1-.1s3.6,0,5.5,0c1.8,0,3.5,0,5.3,0,1.2,0,2.6-.2,3.9-.4,1.6-.2,3.3-.5,5.1-.5s1,0,1.5,0h.5c1.6,.2,3.3,.3,4.9,.3s2.6-.1,3.6-.3c2.9-.6,5.7-.6,8.3-.6,1,0,2,0,2.9,0,.4,0,.9-.2,1.6-.3,1-.3,2.2-.6,3.7-.6s.7,0,1.1,0h.5c.5,.1,1.1,.2,1.5,.2s.4,0,.5,0c.5-.4,1.4-.9,2.7-.9s.8,0,1,0c.4,0,.7,0,1.1,0,1.1,0,2.3-.2,3.6-.4,1.5-.3,3.1-.5,4.9-.5s.8,0,1.3,0c0,0,.1,0,.2,0,.7-.3,1.8-.7,3.2-.7s.8,0,1.2,.1c.2,0,.9-.2,1.3-.4h.2c1.6-.6,3.3-.7,4.7-.8,.6,0,1.1,0,1.7-.1,3.1-.4,6.5-1,10.3-1.7,6-1.2,10.5-2.2,14.7-3.4,1.2-.3,2.3-.7,3.5-1,1.7-.5,3.5-1.1,5.4-1.5,2.6-.6,5.2-1.6,7.6-2.7l.7-.3c3.7-1.8,7.1-3.5,10.2-5.9,2.1-1.6,3.7-3.7,5.4-6.9,.7-1.3,2.1-2.2,3.6-2.2h1.6c1.2,0,2.4,.6,3.1,1.5,.3,.3,.7,.7,1.1,1.1,.8,.8,1.7,1.7,2.5,2.9,4.5,7,.8,13.4-.4,15.5-3,5.3-8,8.1-12,10.3-6.1,3.5-12.9,6.2-20.8,8.3-3.5,1-7.2,1.9-11,2.8-1.3,.3-2.5,.5-3.7,.7-2.4,.4-4.7,.8-6.6,1.8-.6,.3-1.2,.4-1.8,.4s-.4,0-.7,0c0,0-.2,0-.3,0-.5,0-1.3,.2-2,.3-.6,.1-1.4,.3-2.1,.4-1.1,.2-2.2,.4-3.3,.6-2.3,.5-4.7,1-7.3,1-1.2,.5-2.5,.6-3.4,.6s-1.1,0-1.1,0c-.1,0-.2,0-.3,0-1.9,.8-3.7,.8-5.1,.8-.4,0-.9,0-1.3,0-.2,0-.6,.1-1,.3-.9,.3-2,.6-3.4,.6s-.7,0-1,0h-.5c-.3,0-.6-.1-.8-.1-.8,.6-1.7,.9-2.7,.9s-.6,0-.9,0c-.5,0-1.1,0-1.7,0-2,0-4,.3-6.2,.5-1.5,.2-3.1,.4-4.7,.5-1.5,.1-3,.1-4.5,.1-2.5,0-4.9,0-7,.5-2.4,.5-4.9,.7-8,.7s-3.1,0-4.5-.1h-.5c-.3,0-.5,0-.8,0-1.8,0-3.7,.2-5.7,.4-2.1,.2-4.3,.5-6.5,.5Z"/><path class="d" d="M71.2,374.9c.8,0,1.6,0,2.4,.3,.2,.2,.5,.5,.8,.8,0,.2-.2,.3-.2,.5-.7,1.3-2.4,.3-3.1,1.5-3.8,.1-7.1,2.1-10.6,3.3-4.3,1.6-8.3,3.5-12,6.4-2,1.6-3.9,3.2-5.4,5.4-1.3,1.9-1.8,3.9-1.4,6.2,1.3,2.5,3.3,4.3,5.9,5.8,4,2.3,8.1,3.9,12.4,5.3,3.4,1.1,6.9,2.2,10.4,2.9,2.3,.4,4.4,1.5,6.8,1.6,.4,.6,.9,.8,1.5,.8s.8,0,1.2-.1c0,0,.1,0,.2,0,.9,0,1.4,.9,2.3,.9s.1,0,.2,0c.2,0,.4,0,.6,0,1.5,0,3,.9,4.5,.9s.6,0,1-.1c.5,.7,1.3,.8,2,.8s.7,0,1,0c.7,0,1.4,0,2,.7,0,.1,.3,.1,.5,.1,.3,0,.7,0,1-.1,.2,0,.5,0,.7,0,1.3,0,2.6,.4,3.8,.8,1.5,.4,3,0,4.6,.6,1.7,.7,3.8-.1,5.6,.9,.5,0,1-.1,1.5-.1,2.6,0,5.1,.9,7.7,.9s.9,0,1.4,0c.2,0,.4,0,.5,0,1.5,0,2.8,.9,4.3,.9s.3,0,.5,0c1-.1,2.1-.3,3.2-.3s1.6,0,2.4,.4c1.4,.5,2.9,.7,4.3,.7s1.5,0,2.2,0c.5,0,1,0,1.4,0,4.8,0,9.5,.9,14.3,.9s1,0,1.5,0c2.3-.1,4.6-.1,6.9-.1,3.6,0,7.1,0,10.7,0,0,0,0,0,0,0,3,0,6-.8,9-.8s.8,0,1.1,0c1.9,.1,3.8,.3,5.7,.3s3-.1,4.4-.4c3.6-.7,7.1-.4,10.6-.6,1.7,0,3.3-.9,5.1-.9s.4,0,.6,0c.8,0,1.6,.2,2.4,.2s2-.2,2.9-.9c0,0,.2,0,.3,0,.2,0,.3,0,.5,0,.5,0,1,.1,1.6,.1,2.9,0,5.6-.9,8.5-.9s.8,0,1.2,0c0,0,.1,0,.2,0,1.1,0,2-.9,3.2-.9s.3,0,.4,0c.2,0,.4,0,.7,0,.9,0,1.8-.3,2.8-.6,1.8-.6,3.8-.5,5.7-.7,3.6-.4,7.1-1.1,10.6-1.7,5-1,10-2.1,15-3.4,2.9-.8,5.8-1.8,8.7-2.5,2.9-.7,5.8-1.8,8.5-3.1,3.9-2,7.9-3.9,11.5-6.6,3-2.3,4.9-5,6.5-8.2h1.6c1,1.3,2.4,2.3,3.4,3.8,2.5,3.9,1.6,7.7-.5,11.3-2.4,4.2-6.5,6.6-10.5,8.8-6.3,3.5-13,6.1-19.9,8-3.6,1-7.3,1.9-10.9,2.8-3.7,.9-7.7,1.1-11.2,2.8-.3,0-.7,0-1,0-1.6,0-3.1,.6-4.7,.8-3.4,.5-6.7,1.5-10.2,1.5s-.5,0-.8,0c-.8,.5-1.6,.6-2.5,.6s-.7,0-1.1,0c-.6,0-1.2,0-1.7,.3-1.8,.8-3.6,.5-5.4,.6-1.4,.1-2.6,.8-4.1,.8s-.3,0-.5,0c-.6,0-1.2-.2-1.9-.2-.8,0-1.6,.2-2.3,.9,0,0-.1,0-.2,0-.2,0-.3,0-.5,0-.7,0-1.4,0-2,0-3.7,0-7.4,.8-11.1,1-4,.3-8.1,0-12,.7-2.4,.5-4.8,.6-7.2,.6s-3.2,0-4.8-.1c-.3,0-.6,0-.9,0-4.1,0-8.1,.9-12.2,.9s-.6,0-.9,0c-1.9,0-3.8,0-5.8,0-2.8,0-5.6,0-8.5,0,0,0,0,0,0,0-3.2,0-6.4-.9-9.6-.9-.4,0-.8,0-1.3,0-2,.2-4,.3-6,.3s-3.2-.1-4.8-.4c-3.7-.7-7.4,0-10.9-.7-3.4-.6-6.9-.2-10.2-.8-2.5-.5-5.1-.2-7.6-.7-2.3-.5-4.6-.2-6.8-.7-2.3-.6-4.6-.2-6.8-.8-1.8-.5-3.7-.2-5.3-.7-1.8-.6-3.6-.3-5.3-.7-3.1-.8-6.4-.9-9.5-1.5-4.2-.8-8.4-1.4-12.5-2.3-3.1-.7-6.3-1-9.2-2.2-2.9-1.2-6-1.7-9-2.6-2.9-.8-5.6-2.1-8.6-2.8-2.8-.7-5.3-2.3-7.9-3.5-3.7-1.7-6.8-4.4-9.1-7.7-1.3-1.9-2.3-4.2-1.3-7.2,1.3-3.9,3.7-6.7,6.8-9,2.6-1.9,5.4-3.6,8.4-5,4.3-2,8.9-3.3,13.1-5.5,2.8,0,5.1-1.7,7.7-2.1,2.6-.5,5.1-1.1,7.6-1.8,2.4-.7,5-.9,7.4-2,.4-.2,.7-.2,1.1-.2s1,0,1.5,0,1.3-.1,1.9-.7c2.5,0,4.9-.9,7.3-.9m0-8h0c-1.9,0-3.7,.3-5.1,.5-.9,.2-1.8,.3-2.3,.3-1,0-2.1,.2-3,.6,0,0-.2,0-.3,0-1.7,0-3.2,.3-4.6,1-.7,.3-1.9,.6-3.1,.8-.9,.2-1.8,.4-2.9,.7-2.1,.6-4.5,1.2-6.9,1.6-1.8,.3-3.3,.9-4.6,1.4-.6,.2-1.4,.6-1.8,.6-1.3,0-2.6,.3-3.7,.9-2,1.1-4.3,1.9-6.7,2.9-1.9,.7-3.9,1.5-6,2.5-3.5,1.6-6.8,3.6-9.8,5.9-4.7,3.5-7.8,7.7-9.6,12.8-1.2,3.4-1.7,8.7,2.3,14.4,3.2,4.5,7.5,8.1,12.3,10.3,.6,.3,1.3,.6,2,1,2.1,1.1,4.4,2.3,7.4,3,1.2,.3,2.5,.8,3.9,1.3,1.4,.5,2.8,1,4.3,1.5,1.1,.3,2.2,.6,3.3,.9,1.8,.5,3.5,.9,5,1.5,2.7,1.1,5.4,1.6,7.8,2.1,.9,.2,1.8,.3,2.6,.5,2.6,.6,5.1,1,7.6,1.4,1.8,.3,3.5,.6,5.1,.9,1.7,.3,3.3,.5,4.9,.7,1.6,.2,3.1,.4,4.4,.7,1.5,.3,2.8,.4,3.7,.5,.4,0,.8,0,1,0,1.8,.6,3.4,.7,4.6,.8,.4,0,.9,0,1.1,0,1.9,.5,3.6,.6,5,.6,.7,0,1.5,0,1.8,.1,1.9,.5,3.7,.6,5.1,.6,.8,0,1.5,0,1.9,.2,2,.5,3.8,.5,5.5,.6,.9,0,1.8,0,2.5,.2,2.2,.4,4.3,.4,6.2,.5,1.5,0,2.8,0,4,.3,2.5,.5,4.8,.5,6.8,.5,1.6,0,3,0,4.1,.2,1.9,.4,4,.5,6.3,.5s4.5-.2,6.6-.3c.3,0,.5,0,.7,0,1.1,0,2.4,.2,3.7,.4,1.7,.2,3.7,.5,5.9,.5h.1c1.2,0,2.4,0,3.7,0,1.6,0,3.2,0,4.8,0s3.9,0,5.5,0c.4,0,.8,0,1.1,0,2.5,0,4.8-.3,7-.5,1.9-.2,3.6-.4,5.2-.4,.2,0,.4,0,.6,0h.5c1.5,0,3.1,.1,4.7,.1,3.4,0,6.2-.2,8.8-.8,1.8-.4,4-.4,6.3-.4,1.5,0,3.1,0,4.7-.2,1.7-.1,3.3-.3,4.9-.5,2-.3,3.9-.5,5.7-.5,.4,0,.9,0,1.2,0,.3,0,.7,0,1.3,0,1.3,0,2.5-.3,3.6-.8,.5,0,.9,0,1.4,0,2,0,3.5-.5,4.5-.8,.1,0,.3,0,.4-.1,.2,0,.5,0,.8,0,1.4,0,3.4,0,5.7-.8,.2,0,.5,0,.7,0,.7,0,2.3,0,4.2-.6,2.7,0,5.2-.6,7.4-1,1.1-.2,2.1-.4,3.1-.6,.9-.1,1.8-.3,2.5-.5,.3,0,.8-.2,1.1-.2,.3,0,.7,0,1,0,1.2,0,2.5-.3,3.6-.8,1.4-.7,3.3-1,5.5-1.4,1.3-.2,2.6-.5,3.9-.8,3.9-.9,7.6-1.9,11.1-2.8,8.2-2.2,15.3-5.1,21.7-8.7,4.2-2.4,9.9-5.6,13.5-11.8,4-7,4.2-13.6,.3-19.6-1-1.6-2.2-2.8-3.1-3.6-.3-.3-.6-.6-.7-.8-1.5-1.9-3.8-3.1-6.3-3.1h-1.6c-3,0-5.7,1.7-7.1,4.3-1.4,2.7-2.6,4.3-4.2,5.5-2.8,2.1-6.1,3.8-9.6,5.5l-.7,.3c-2.1,1.1-4.5,1.9-6.7,2.4-2,.5-3.9,1.1-5.7,1.6-1.2,.4-2.3,.7-3.3,1-4.1,1.1-8.6,2.1-14.5,3.3-3.7,.7-7,1.3-10,1.7-.4,0-.9,0-1.5,.1-1.6,.1-3.5,.3-5.6,.9h-.2c-.1,.1-.2,.1-.4,.2-.3,0-.6,0-.9,0-1.7,0-3.1,.4-4.1,.8-.2,0-.4,0-.6,0-2.1,0-3.9,.3-5.5,.6-1.1,.2-2.2,.4-3,.4s-.3,0-.5,0c-.3,0-.8-.1-1.6-.1-1.3,0-2.6,.3-3.8,.9-.1,0-.2,0-.4,0h-.5c-.5-.1-1-.1-1.5-.1-1.9,0-3.5,.4-4.7,.7-.3,0-.6,.2-.8,.2-.9,0-1.8,0-2.7,0-2.7,0-5.8,0-9.1,.7-.8,.2-1.7,.2-2.8,.2s-2.9-.1-4.6-.2h-.5c-.6,0-1.2-.1-1.8-.1-2.1,0-4,.3-5.7,.5-1.2,.2-2.4,.3-3.4,.3-1.7,0-3.5,0-5.2,0-1.8,0-3.7,0-5.5,0-2.8,0-5.1,0-7.3,.1-.4,0-.8,0-1.2,0-2,0-4.1-.2-6.4-.4-2.5-.2-5.1-.5-7.9-.5s-1.2,0-1.8,0h-.2c-.6,0-1.2,0-1.7,0-.7,0-1.2,0-1.6-.2-1.5-.6-3.2-.8-5.1-.8s-2.4,.1-3.4,.2c-1-.3-2.6-.8-4.6-.8s-1.1,0-1.7,.1c0,0,0,0-.2,0-.6,0-1.5-.2-2.4-.3-1.5-.3-3.3-.6-5.3-.6s-.2,0-.3,0c-1.8-.5-3.3-.5-4.3-.5,0,0-.2,0-.2,0-1.9-.6-3.6-.7-4.6-.7-.1,0-.3,0-.4,0-.2,0-.3,0-.5-.1-1.3-.4-3-.8-5.1-.8s-.1,0-.2,0c-1-.4-2.3-.7-3.7-.7-1.1-.5-2.2-.7-3.4-.7-.3,0-.6,0-.9,0,0,0,0,0-.1,0-.9-.3-2.1-.6-3.7-.7-.9-.4-2.2-.8-3.8-.8-.9-.4-1.9-.6-2.9-.6-.3,0-1.3-.3-2-.5-1-.3-2.1-.7-3.4-.9-3.1-.6-6.2-1.6-9.4-2.7-3.4-1.1-7.3-2.5-10.9-4.6-.6-.4-1.1-.7-1.5-1,.8-1,2-2,3.4-3.1,2.5-2,5.7-3.6,9.8-5.1,1.1-.4,2.1-.8,3.1-1.3,2-.8,3.7-1.6,5-1.6,1.3,0,2.6-.4,3.7-1,3.5-.8,5.3-2.9,6.3-4.7,.1-.3,.3-.5,.4-.8h0c1.4-3.1,.8-6.8-1.6-9.2l-.8-.8c-1-1-2.2-1.7-3.5-2-1.5-.4-3-.6-4.6-.6h0Z"/></g><g><path class="e" d="M190.4,274.2c-.9,0-1.9-.2-2.8-.6-1-.5-1.8-1.4-2.1-2.4-1-3.2,.7-5.7,1.6-7l.2-.2c2.3-3.4,4.1-6.3,5-9.6,.1-.4,.2-.7,.3-1.1,.5-1.6,.9-3,.8-4.2,0-1.4,0-3.1,0-4.9,.2-3.1-1-6.2-2.2-9.4l-.2-.6c-1.6-4.2-3.9-8-6.4-12.1-.5-.8-.9-1.5-1.4-2.3-1-1.6-2-3.3-3-4.8-1.5-2.3-3-4.7-4.4-7.1-2.7-4.8-4.9-9.8-6.5-15.1l-.2-.8c-.6-1.7-1.2-3.7-1.2-6,0-.4,0-.9,0-1.3,0-.4,0-1,0-1.2-.6-.8-1.2-2.1-.7-4.1,.5-1.9,.7-3.9,1-6.1,.4-3.1,.8-6.3,1.9-9.6,2-5.9,4.9-11.6,8.8-17.4,4.3-6.3,9.7-11.6,14-15.4,4-3.6,8.7-7.2,13.8-10.6,1.6-1,3.2-2,4.8-3,.6-.4,1.3-.8,1.9-1.2,6.2-3.8,12.7-7,20.5-10.6l.6-.3c6.1-2.8,12.3-5.7,19.1-7.4,.6-.5,1.6-1.1,3-1.1s2.4,.5,3.5,1.4c.7,.6,1.2,1.5,1.3,2.4,.2,1.2,.2,4.3-3.7,6-5.7,2.6-11.1,6.2-15.9,9.5-3.4,2.3-7.3,5-10.9,8-1,.8-2,1.7-3,2.5-3.1,2.6-6.1,5.1-8.7,7.9-7,7.6-11.7,14.4-14.6,21.6-1.5,3.8-2.7,6.9-2.5,10.2,.1,2.5,0,4.9,0,6.8-.1,3.8,1.3,7.4,2.9,11.2,1,2.4,2.2,4.6,3.4,7,.5,1,1,1.9,1.5,2.9,.8,1.5,1.7,3.1,3,5,3.6,5.4,6.5,11.3,9,16.3,1.8,3.6,2.7,7.8,2.8,12.4,0,6.6-1.6,12.7-5,18.9-2.1,3.8-4.6,7.4-7.4,10.5-2.3,2.6-4.4,4.7-6.5,6.5-3.4,2.9-7,5.7-10.7,8.4h-.1c-.8,.7-2.4,1.8-4.6,1.8Z"/><path class="d" d="M256.5,100.9c.2,0,.5,.1,.9,.4,.1,1-.6,1.4-1.4,1.8-5.9,2.6-11.2,6.2-16.5,9.8-3.8,2.6-7.6,5.3-11.2,8.3-4.1,3.5-8.4,6.7-12,10.7-6.3,6.8-11.8,14.2-15.3,22.8-1.5,3.8-3,7.7-2.8,12,.1,2.1,0,4.2,0,6.4-.2,4.6,1.5,8.8,3.2,12.9,1.4,3.5,3.3,6.9,5.1,10.3,.9,1.9,2.1,3.7,3.2,5.4,3.3,5.1,6.1,10.5,8.7,15.9,1.6,3.3,2.3,6.9,2.4,10.6,0,6.1-1.6,11.6-4.5,16.9-2,3.5-4.3,6.8-6.9,9.8-1.9,2.2-3.9,4.2-6.1,6.1-3.4,2.9-6.9,5.6-10.5,8.2-.6,.4-1.4,1.1-2.4,1.1s-.7,0-1.1-.2c-.5-1.5,.4-2.6,1.2-3.8,2.3-3.4,4.4-6.8,5.6-10.8,.6-2.2,1.4-4.3,1.3-6.6,0-1.5,0-3,0-4.5,.2-4.1-1.3-7.9-2.7-11.6-2-5.4-5.1-10.1-8.1-15-2.4-4-5-7.8-7.4-11.9-2.6-4.6-4.7-9.3-6.2-14.3-.6-1.8-1.2-3.6-1.2-5.5,0-1.7,.5-3.4-.7-4.9-.1-.2,0-.5,0-.7,1.2-5,1.1-10.3,2.8-15.3,2-5.9,4.8-11.3,8.3-16.4,3.7-5.5,8.4-10.2,13.3-14.7,4.2-3.8,8.7-7.2,13.3-10.3,2.1-1.4,4.3-2.7,6.5-4.1,6.4-4,13.2-7.2,20.1-10.4,6.4-2.9,12.8-5.9,19.7-7.6,.5-.1,.7-.8,1.3-.8m0-8h0c-1.7,0-3.2,.5-4.7,1.4-6.9,1.8-13.1,4.7-19.1,7.4l-.6,.3c-7.9,3.6-14.5,6.9-20.9,10.8-.6,.4-1.2,.8-1.9,1.1-1.6,1-3.3,2-4.9,3.1-5.3,3.5-10.1,7.2-14.2,11-4.4,4-10.1,9.4-14.6,16.1-4.1,6-7.1,12-9.2,18.3-1.3,3.7-1.7,7.2-2.1,10.4-.2,2-.5,3.9-.9,5.6-.6,2.6-.1,4.6,.5,6,0,.4,0,.9,0,1.5,0,2.9,.8,5.4,1.4,7.2,0,.2,.2,.5,.2,.7,1.7,5.6,4,10.8,6.9,15.9,1.5,2.5,3,5,4.5,7.3,1,1.6,2,3.2,3,4.7,.5,.8,.9,1.5,1.4,2.3,2.4,3.9,4.6,7.6,6.1,11.4l.2,.6c1.1,3,2.1,5.6,2,7.8-.1,1.9,0,3.7,0,5.2,0,.6-.3,1.8-.7,2.9-.1,.4-.2,.8-.3,1.1-.8,2.8-2.4,5.4-4.5,8.5v.2c-1.2,1.5-3.9,5.4-2.3,10.5,.7,2.1,2.2,3.9,4.2,4.9,1.4,.7,2.9,1,4.5,1,3.5,0,5.9-1.7,6.9-2.5h.1c3.8-2.8,7.5-5.7,11-8.7,2.3-1.9,4.5-4.2,6.9-6.9,3-3.4,5.6-7.2,7.9-11.2,3.8-6.8,5.6-13.6,5.5-20.9,0-5.2-1.1-9.9-3.2-14.1-2.5-5.1-5.5-11.1-9.2-16.7-1.2-1.8-2.1-3.3-2.7-4.6-.5-1-1-2-1.5-3-1.2-2.3-2.4-4.5-3.3-6.7-1.4-3.4-2.7-6.7-2.6-9.6,0-1.9,.1-4.5,0-7.1-.1-2.5,.9-5.2,2.2-8.5,2.7-6.7,7.1-13.2,13.8-20.4,2.4-2.6,5.3-5,8.3-7.5,1-.8,2-1.7,3-2.5,3.4-2.9,7.2-5.6,10.5-7.8,4.9-3.3,9.9-6.7,15.3-9.1,5.2-2.3,6.5-6.8,6-10.2-.3-1.9-1.2-3.6-2.6-4.9-2.3-2-4.6-2.4-6.2-2.4h0Z"/></g><g><path class="m" d="M140.8,304.2c-1.5,0-2.9-.3-4.1-.5-.9-.2-1.8-.3-2.5-.3-.7,0-1.4,0-2,0-.9,0-1.8,.1-2.7,.1-1.5,0-2.7-.1-3.9-.4-.7-.2-1.5-.2-2.5-.2h-1.1c-1.5,0-3.2,0-4.9-.6-.7-.2-1.6-.2-2.6-.2-1.6,0-3.6,0-5.6-.8-.2,0-.4,0-.6,0-1.5,0-2.9-.3-4.1-.5-.9-.2-1.8-.4-2.4-.4s-.3,0-.4,0c-.2,0-.5,0-.7,0-1.4,0-2.5-.5-3.2-.8,0,0,0,0,0,0-.2,0-.5,0-.7,0-1.3,0-2.7-.3-4.1-.9-.4-.2-1.3-.2-2.1-.3-.7,0-1.4,0-2.2-.2-1.4-.2-2.7-.6-3.9-.9-1.4-.4-2.7-.8-3.8-.8-.8,0-1.6-.3-2.3-.7-.2,0-.4,0-.6,0-1.2,0-2.2-.3-3.2-.8-.5-.3-1.6-.5-2.6-.8h-.3c-2.9-.7-5.8-1.7-8.6-2.9-.6-.2-1.2-.5-1.9-.7-1-.3-2.1-.7-3.1-1.2-3.7-1.8-7.8-4.2-10.9-8.6-.5-.7-.7-1.5-.7-2.3v-2.8c0-.8,.2-1.5,.6-2.2,3.1-4.9,7.5-8.3,13.4-10.3,1.1-.4,2.3-.8,3.4-1.2,1.7-.6,3.4-1.2,5-1.8,1.6-.6,3.1-.9,4.6-1.3,1.2-.3,2.2-.5,3.3-.9,1.6-.5,3.1-.8,4.6-1.1,1.5-.3,2.9-.5,4-1,1.2-.5,2.3-.5,3.3-.5h.5c.3,0,.4,0,.5,0,.6-.4,1.4-.6,2.1-.6s.6,0,.9,0c.1,0,.3,0,.4,0,.6,0,1.4-.2,2.3-.4,.8-.2,1.7-.4,2.7-.6,1-.1,1.9-.2,2.8-.2,1.2,0,2.2-.1,3.1-.4,1.5-.4,2.9-.5,4.1-.5,.7,0,1.5,0,1.8-.2,2.3-.8,4.5-.9,6.2-.9s1.4,0,2.1,0c.6,0,1.3,0,1.9,0s1.4,0,1.9,0c.2,0,.3,0,.5,0,1.9,0,3.6,1.3,3.9,3.2,.4,2.2-.3,3.7-.9,4.6-1.4,1.9-3.6,2.1-4.4,2.2h0c-1.2,.3-2.7,.7-4.1,.8-1.8,.2-3.7,.6-6.1,1.2-.8,.2-1.6,.3-2.4,.5-1.2,.2-2.1,.3-2.7,.7-.6,.4-1.2,.6-1.9,.7-2.8,.2-5.5,1.2-8.4,2.2-1.2,.4-2.5,.9-3.8,1.3-1.4,.4-2.7,1.1-4.2,1.8-.6,.3-1.3,.6-2,1,.5,.3,1.2,.6,2,1,1,.4,2.2,.8,3.4,1.1,.9,.3,1.8,.5,2.6,.8,1.5,.5,3.3,1,5.4,1.3,.8,.1,1.6,.4,2.3,.6,.8,.2,1.5,.4,2,.4s.1,0,.2,0c.4,0,.9-.1,1.3-.1,1.4,0,2.5,.5,3.2,.9,.4,0,.9-.1,1.5-.1,1.2,0,2.2,.3,3,.8,.2,0,.4,0,.5,0,1.6,0,3,.3,4.3,.5,1,.2,1.9,.4,2.7,.4s.4,0,.5,0c.3,0,.7,0,1.1,0,1.4,0,2.5,.3,3.4,.6,.4,.1,.9,.3,1.1,.3h.6c.6-.1,1.4-.2,2.2-.2,1.5,0,2.8,.3,4,.9,.5,0,1.1,0,1.6,0,2.7,0,5.3,.2,7.8,.5,2.5,.2,4.8,.4,7.1,.4s1.2,0,1.7,0c.6,0,1.1,0,1.7,0,2.4,0,4.7,.2,6.9,.5,2.1,.2,4.1,.4,6,.4s2.1,0,3.1-.2c3.3-.5,6.4-.6,9.1-.6s1.9,0,2.8,0c.9,0,1.8,0,2.7,0,1.7,0,4,0,6.2-.3,1.7-.2,3.4-.2,5-.3,2,0,3.9-.1,5.6-.4,3.1-.6,6-.6,8.8-.7h.6c.1,0,.5-.1,.8-.2,.8-.3,1.9-.6,3.3-.6s.7,0,1,0c.5,0,1,.1,1.3,.1s.3,0,.3,0c.5-.4,1.4-.9,2.6-.9s.4,0,.5,0c.4,0,.8,0,1.2,0,1.1,0,1.9,0,2.6-.3,1.2-.5,2.3-.5,3.2-.5h.9c.3,0,.4,0,.5,0,.6-.4,1.4-.6,2.1-.6s.6,0,.9,0c.2,0,.5,0,.8,0,.9,0,2-.3,3.1-.5,.7-.2,1.4-.3,2.1-.5,.9-.2,1.8-.3,2.7-.5,2.5-.4,4.8-.8,7.1-1.4,1.2-.3,2.4-.6,3.7-.9,2-.5,4.1-.9,6.1-1.5,.7-.2,1.4-.3,2.1-.3,2.3,0,4.3,1,6,2,1,.6,1.9,1.2,2.8,1.7,2.3,1.5,4.5,2.8,6.9,3.8,1.9,.8,2.9,2.9,2.3,4.8-1.1,3.9-4.5,4.9-6,5.3h-.1c-1.7,.5-3.3,1.1-5.1,1.7-1.6,.5-3.2,1.1-4.8,1.6-2.4,.7-5,1.4-7.9,2.1-.8,.2-1.5,.4-2.2,.6-1.4,.4-2.9,.8-4.5,1.1-1.3,.2-2.7,.5-4.2,.8-.6,.1-1.2,.3-1.8,.4-1.6,.3-3.3,.6-4.9,.8h-1c-1.1,.3-2.2,.5-3.3,.7-2.6,.5-5.2,.9-8,1-1.3,.6-2.6,.7-3.5,.7s-.7,0-1.1,0c-.2,0-.5,0-.7,0s-.2,0-.3,0c-1.8,.7-3.4,.7-4.6,.7-.6,0-1.1,0-1.4,0-2.1,.6-4,.6-5.8,.6-1.3,0-2.4,0-3.4,.3-2.3,.6-4.4,.6-6.2,.6-1,0-1.8,0-2.7,.1-.9,0-1.7,.2-2.6,.3-2.8,.3-5.7,.6-8.7,.6s-1.1,0-1.6,0c-1.5,0-3.1,0-5,0s-2.6,0-3.9,0c-1.3,0-2.7,0-4,0h-12.7c-1.3,0-2.5,0-3.8,0-1.2,0-2.5,0-3.7,0-1.9,0-3.5,0-4.9,.1-.3,0-.5,0-.8,0Z"/><path class="d" d="M122.4,255.9c.4,2.2-1.5,2-2.3,2.2-1.2,.3-2.5,.6-3.8,.8-2.3,.3-4.4,.7-6.6,1.3-2.1,.5-4.5,.5-6.4,1.8-4.6,.4-8.7,2.3-13.1,3.7-2.6,.8-4.8,2.2-7.3,3.3-1.3,.6-1.8,2.2-2.5,3.5,.9,2.5,3.1,3.5,5.3,4.5,2,.9,4.2,1.3,6.3,2.1,2,.7,4.1,1.2,6.1,1.5,1.6,.3,3.3,1,4.9,1s.7,0,1.1-.1c.2,0,.3,0,.4,0,1.1,0,1.8,.9,2.9,.9s.1,0,.2,0c.5,0,1.1-.2,1.6-.2s1.1,.1,1.5,.7c.1,.1,.3,.2,.5,.2s0,0,.1,0c.5,0,.9-.1,1.3-.1,2.4,0,4.7,.9,7,.9s.7,0,1.1,0c.2,0,.3,0,.5,0,1.5,0,2.9,.9,4.4,.9s.2,0,.4,0c.8,0,1.6-.2,2.4-.2s2,.2,2.9,.9c0,0,.1,0,.2,0,.2,0,.3,0,.5,0,.7,0,1.3,0,2,0,5,0,9.9,.9,14.9,.9s1.3,0,2,0c.5,0,1,0,1.5,0,4.3,0,8.6,.9,12.9,.9s2.5,0,3.7-.3c2.8-.4,5.7-.5,8.5-.5s3.7,0,5.5,0,4.5,0,6.7-.3c3.7-.4,7.4,0,10.9-.8,2.9-.5,5.8-.5,8.7-.6,1.4,0,2.6-.9,4.1-.9s.3,0,.5,0c.6,0,1.2,.2,1.8,.2,.9,0,1.9-.2,2.7-.8,0,0,.1,0,.2,0,.1,0,.3,0,.5,0s0,0,0,0c1.8-.1,3.5,0,5.4-.6,.6-.2,1.2-.2,1.8-.2s.6,0,.9,0c.9,0,1.8,0,2.6-.6,.5,.1,1.1,.2,1.6,.2,2,0,4-.7,5.9-1.1,3.3-.6,6.7-1.1,10-1.9,3.3-.8,6.6-1.5,9.9-2.4,.4,0,.7-.1,1.1-.1,1.4,0,2.7,.7,4,1.4,3.4,2,6.6,4.3,10.2,5.8-.5,1.8-2,2.2-3.3,2.5-3.4,.9-6.6,2.2-9.9,3.2-2.6,.7-5.2,1.4-7.8,2-2.2,.5-4.2,1.3-6.5,1.6-2.1,.3-4.1,.8-6.2,1.3-1.8,.4-3.8,.6-5.7,.9-3.8,.5-7.6,1.5-11.4,1.5s-.2,0-.3,0c-.8,.5-1.7,.6-2.5,.6s-1.2,0-1.8,0c-.6,0-1.2,0-1.7,.3-2,.8-3.9,.2-5.7,.7-3,.8-6.2,.1-9,.8-2.8,.7-5.6,.4-8.3,.6-3.6,.3-7.3,.8-10.9,.8s-1,0-1.5,0c-1.7,0-3.4,0-5.1,0-2.7,0-5.3,0-8,0h-12.7c-2.5,0-5,0-7.5,0-1.7,0-3.5,0-5.2,.1-.2,0-.4,0-.5,0-2.2,0-4.3-.8-6.5-.8,0,0,0,0-.1,0-1.5,0-3.1,.2-4.6,.2s-2,0-2.9-.3c-1.2-.3-2.4-.3-3.5-.3s-.7,0-1.1,0c-1.3,0-2.5,0-3.7-.4-2.9-1-6.1,.3-8.8-1.4-.4,0-.9,.1-1.3,.1-2.2,0-4.3-.9-6.5-.9-.3,0-.6,0-.8,0,0,0-.2,0-.2,0-1.1,0-1.8-.9-2.9-.9,0,0-.2,0-.3,0-.2,0-.5,0-.7,0-.8,0-1.6-.2-2.4-.6-1.5-.7-3.5-.5-5.3-.8-2.8-.4-5.4-1.7-8.3-1.7-.5-.6-1-.8-1.6-.8-.4,0-.8,0-1.3,0s-.8,0-1.2-.3c-1.1-.6-2.6-.9-4-1.3-2.7-.6-5.4-1.5-7.9-2.6-1.6-.7-3.3-1.1-4.9-1.8-3.6-1.8-7-3.8-9.4-7.3v-2.8c2.7-4.3,6.5-7,11.3-8.7,2.8-1,5.7-1.9,8.5-3,2.5-.9,5.2-1.3,7.7-2.1,2.9-1,6-1,8.8-2.2,.6-.2,1.2-.2,1.8-.2s.3,0,.5,0c.9,0,1.8,0,2.6-.6,.4,0,.9,.1,1.3,.1,1.9,0,3.7-.8,5.5-1,2.2-.3,4.4-.1,6.4-.7,2.1-.6,4.2,0,6.1-.7,1.6-.5,3.3-.7,4.9-.7s2.7,0,4,0,1.6,0,2.4-.1m0-8c-.3,0-.6,0-.9,0-.4,0-.9,0-1.5,0s-1.2,0-1.8,0c-.7,0-1.5,0-2.3,0-1.9,0-4.4,.1-7.2,1-.2,0-.6,0-.9,0-1.3,0-3.1,0-5.1,.7-.4,.1-1.4,.2-2.2,.2-.9,0-2,.1-3.1,.3-1.2,.2-2.3,.4-3.1,.7-.4,.1-.9,.2-1.2,.3-.5,0-.9-.1-1.4-.1-1,0-2.1,.2-3,.6h0c-1.4,0-3,0-4.8,.8-.8,.3-2,.5-3.3,.8-1.5,.3-3.3,.6-5.1,1.2-.8,.3-1.8,.5-2.9,.8-1.5,.4-3.2,.8-5,1.4-1.6,.6-3.2,1.2-5,1.7-1.2,.4-2.3,.8-3.5,1.2-6.7,2.4-11.8,6.3-15.4,11.9-.8,1.3-1.3,2.8-1.3,4.3v2.8c0,1.6,.5,3.3,1.5,4.6,3.6,5.2,8.6,8,12.4,9.9,1.3,.6,2.6,1.1,3.6,1.4,.6,.2,1.1,.4,1.5,.6,3.1,1.3,6.2,2.4,9.3,3.1h.3c.5,.2,1.3,.4,1.6,.5,1.4,.8,3,1.2,4.7,1.2,1,.4,2.1,.7,3.2,.7,.6,0,1.7,.3,2.8,.6,1.3,.4,2.7,.8,4.4,1,.9,.1,1.8,.2,2.5,.2,.3,0,.8,0,1,0,1.7,.7,3.5,1.1,5.3,1.1,.9,.4,2.3,.8,4,.8s.7,0,1.1,0c.3,0,1,.2,1.6,.3,1.3,.3,2.9,.6,4.8,.6,2.4,.8,4.6,.8,6.2,.8,.5,0,1.2,0,1.4,0,2.2,.7,4.2,.8,6.1,.8h.6s.5,0,.5,0c.3,0,1.2,0,1.5,0,1.5,.4,3.1,.6,4.9,.6s2.1,0,3-.1c.6,0,1.2,0,1.8,0h0c.3,0,1.1,.1,1.7,.3,1.3,.3,2.9,.6,4.8,.6s.7,0,1,0c1.4,0,2.9-.1,4.7-.1,1.2,0,2.4,0,3.7,0,1.3,0,2.6,0,3.9,0h12.7c1.4,0,2.7,0,4.1,0,1.3,0,2.6,0,3.9,0,1.9,0,3.4,0,4.8,0,.6,0,1.2,0,1.8,0,3.2,0,6.2-.3,9.1-.6,.8,0,1.7-.2,2.5-.2,.7,0,1.5,0,2.4,0,2,0,4.5,0,7.2-.7,.5-.1,1.5-.1,2.4-.1,1.8,0,4.1,0,6.6-.7,.2,0,.4,0,.6,0,1.3,0,3.2,0,5.3-.7,0,0,0,0,.1,0,.4,0,.8,0,1.2,0,.7,0,2.4,0,4.3-.7,2.9-.1,5.5-.6,7.9-1,1.1-.2,2.1-.4,3.2-.5h1c1.7-.4,3.4-.6,5.2-1,.6-.1,1.2-.3,1.8-.4,1.4-.3,2.7-.6,3.9-.8,1.9-.3,3.6-.8,5-1.2,.7-.2,1.4-.4,2.1-.6,3-.7,5.7-1.4,8.1-2.1,1.7-.5,3.4-1.1,5-1.6,1.7-.6,3.3-1.1,4.8-1.5h.1c1.7-.5,7-1.9,8.8-8,1.1-3.9-.9-8.1-4.6-9.6-2-.8-4.1-2.1-6.3-3.5-.9-.6-1.9-1.2-2.9-1.8-2.1-1.3-4.8-2.6-8.1-2.6s-2.1,.1-3.1,.4c-1.9,.5-3.9,1-6,1.4-1.2,.3-2.5,.6-3.7,.9-2.2,.5-4.5,.9-6.9,1.3-.9,.2-1.8,.3-2.7,.5-.8,.2-1.6,.3-2.3,.5-.8,.2-1.7,.4-2.2,.4-.5-.1-1.1-.2-1.6-.2-1.1,0-2.1,.2-3.1,.6-.1,0-.3,0-.4,0-1.2,0-2.8,0-4.6,.8-.2,0-.9,0-1.3,0-.3,0-.7,0-1.1,0-.2,0-.4,0-.6,0-1.3,0-2.5,.3-3.6,.8,0,0,0,0-.1,0-.5,0-1,0-1.5,0-2,0-3.6,.5-4.5,.8,0,0-.1,0-.2,0h0c-2.8,0-6.1,0-9.5,.7-1.4,.3-3.2,.3-5,.4-1.7,0-3.4,0-5.3,.3-2,.2-4.1,.3-5.8,.3s-1.8,0-2.7,0c-.9,0-1.9,0-2.8,0-2.8,0-6.2,0-9.7,.6-.7,.1-1.5,.2-2.4,.2-1.7,0-3.6-.2-5.6-.4-2.3-.2-4.7-.5-7.3-.5s-1.3,0-1.9,0c-.5,0-1,0-1.5,0-2.1,0-4.4-.2-6.7-.4-2.6-.2-5.3-.5-8.2-.5s-.6,0-.9,0c-1.5-.6-3-.8-4.7-.8s-1.8,0-2.5,.2c0,0-.1,0-.2,0-1-.3-2.6-.8-4.5-.8s-1.1,0-1.6,.1c-.4,0-1.2-.2-1.9-.3-1.3-.3-2.9-.6-4.7-.6-1.2-.5-2.5-.8-3.9-.8s-.6,0-.8,0c-.9-.4-2.2-.7-3.8-.7s-1,0-1.5,.1c-.2,0-.6-.2-.8-.2-.7-.2-1.7-.5-2.7-.6-1.1-.2-2-.4-2.9-.6,0,0,0,0,.1,0,2.7-1,5.1-1.8,7.3-2,1.3-.1,2.6-.5,3.7-1.2,.3,0,.9-.2,1.3-.2,.8-.1,1.7-.3,2.7-.5,2.2-.6,4-.9,5.6-1.1,1.6-.2,3.1-.6,4.4-.9,1.3-.2,4.6-.7,7-3.8,1.6-2.1,2.1-4.9,1.6-7.7-.7-3.8-4.1-6.5-7.8-6.5h0Z"/></g><g><path class="n" d="M163.7,351.4c-.6,0-1.2,0-1.8-.2-2.8-.6-5.8-.6-8.3-.6s-1.9,0-2.8,0c-1,0-1.9,0-2.9,0-2.5,0-4.4,0-6.2-.3-1.1-.1-2.2-.2-3.4-.2-2.1,0-4.2-.2-6.4-.6-.7-.1-1.6-.2-2.5-.2-1.3,0-2.7-.2-4.2-.5-.7-.2-1.5-.2-2.4-.3-1.1,0-2.4-.1-3.7-.5-.4-.1-1.1-.1-1.8-.2-1.3,0-3-.1-4.6-.9-.2,0-.8,0-1.2,0-1.1,0-2.7,0-4.4-.8-1.2,0-2.2-.3-3.1-.6-.4-.1-1-.3-1.2-.3-.2,0-.5,0-.7,0-.6,0-1.2-.1-1.7-.4-1.3-.6-2.9-.9-4.5-1.2-1.4-.3-2.9-.5-4.4-1-1-.3-2-.6-3.1-.9-2.2-.6-4.4-1.2-6.6-2.2-3.8-1.7-8.2-3.8-12.1-6.9-1.1-.9-1.6-2-1.9-2.6,0,0,0,0,0,0-1.1-.7-1.7-2-1.7-3.3v-4.8c0-1.1,.5-2.2,1.3-2.9,.3-.3,.6-.5,.9-.8,.6-.5,1.2-1,1.6-1.5,1.6-1.9,3.6-3.3,6.4-4.3,4.5-1.7,9-3.3,13.8-4.4,.8-.2,1.6-.3,2.3-.5,1.9-.4,3.6-.7,5.2-1.3,1-.4,2-.6,3.2-.6s1.3,0,1.9,0c.6,0,1.2,0,1.8,0,1.6,0,3,.9,3.6,2.4,.6,1.4,.4,3.1-.6,4.3-1,1.2-2.1,2.1-3,2.9-.4,.3-.9,.8-1.3,1.2,.4,.2,.7,.5,1,.9,.2,0,.4,.2,.6,.3,3.3,2.1,7.2,3,11.2,3.9,.8,.2,1.5,.4,2.3,.6,1.8,.5,3.5,.9,5.1,.9s.4,0,.5,0c0,0,.2,0,.3,0,.8,0,1.6,.2,2.2,.7,0,0,0,0,0,0,.2,0,.4,0,.7,0,.4,0,.7,0,1,0,.8,0,2.1,0,3.4,.8,0,0,0,0,.5,0s.4,0,.7,0c.3,0,.6,0,1,0,.6,0,1.5,0,2.6,.3,1.1,.3,2.3,.4,3.9,.4h1.6c1.5,0,3,0,4.7,.4,2.4,.5,5,.6,7.1,.6s1.7,0,2.6,0c.9,0,1.8,0,2.7,0s1.4,0,2,0c2,0,4.2,0,6.7,0s5.1,0,7.6,0h.9c1.9,0,3.7-.2,5.7-.4,2.2-.2,4.5-.4,6.8-.4s1.3,0,1.9,0c1.8-.6,3.5-.7,4.8-.7s1.1,0,1.6,0c.4,0,.9,0,1.3,0h0c.1,0,.4-.1,.6-.2,.8-.3,1.9-.7,3.3-.7s.7,0,1,0h.4c.4,.1,.8,.2,1.1,.2h0c1.1-.6,2.2-.9,3.6-.9s.8,0,1.2,0c.2,0,.4,0,.6,0,0,0,0,0,0,0,2.4-.6,4.8-1,7.1-1.3,2-.3,4-.6,5.8-1,1.1-.3,2.2-.5,3.3-.7,2.5-.5,4.8-1,7-1.9,.9-.4,1.8-.5,2.7-.5,2.4,0,4.2,1.2,5.3,1.9,4.3,2.8,8.9,5.4,13.4,7.8l.4,.2c1.3,.7,2.1,2,2.1,3.5v1.6c0,1.7-1,3.2-2.6,3.7l-1.2,.4c-6,2.3-12.2,4.6-18.9,6.1-5,1.1-9.6,2.1-14.2,3-.9,.2-1.8,.2-2.5,.3-.4,0-1.1,0-1.3,.1-1.5,.8-2.9,.9-3.9,.9-.2,0-.4,0-.7,0-.1,0-.5,0-.5,0-1.6,.6-3.1,.7-4.5,.7h-.9c-.8,0-1.1,0-1.2,0-1.6,.7-3.1,.7-4.1,.7s-.8,0-1.2,0c-.3,0-.6,0-.9,0-.4,0-.6,0-.6,0-2.2,.7-4.3,.7-6,.7h-.3c-1.1,0-2.1,0-2.8,.2-3.5,.7-6.8,.8-9.3,.8s-2.6,0-3.9,0c-1.2,0-2.5,0-3.7,0s-1.7,0-2.5,0c-.5,0-1.1,.2-1.8,.3-1.1,.3-2.3,.6-3.7,.6Z"/><path class="d" d="M100.7,309.7c1,0,2.3,.2,3.6,.2-2.3,2.6-5.1,4-5.7,6.3-.1,1.2-.1,1.7,.4,2,.4,.3,.3,.6,.3,1,.3,.8,1.4,.2,1.8,1.1,.2,.5,1,.6,1.4,.9,3.8,2.4,8.1,3.5,12.4,4.4,2.8,.6,5.5,1.6,8.3,1.6s.5,0,.8,0c.7,.5,1.5,.7,2.3,.7s1.2,0,1.7,0,1.1,0,1.6,.3c.8,.4,1.5,.5,2.3,.5s1.1,0,1.6,0,1,0,1.4,.2c1.6,.5,3.3,.5,5,.5s1.1,0,1.6,0c1.3,0,2.6,0,3.9,.3,2.6,.5,5.3,.6,7.9,.6s3.5,0,5.2,0,1.3,0,1.9,0c2.3,0,4.5,0,6.8,0s5.7,0,8.6,0c4.2,0,8.3-.8,12.5-.8s1.7,0,2.5,.1c1.3-.7,2.7-.8,4.1-.8s2,0,3,0,0,0,.1,0c1.3,0,2.4-.9,3.8-.9s.3,0,.4,0c.7,0,1.4,.2,2.1,.2s1.3-.1,1.9-.5c.6-.3,1.1-.4,1.7-.4s1.1,0,1.7,0,.6,0,.9,0c4.3-1.1,8.7-1.3,12.9-2.3,3.6-.9,7.3-1.3,10.8-2.8,.4-.2,.8-.2,1.2-.2,1.1,0,2.2,.6,3.1,1.3,4.6,3,9.4,5.6,14.2,8.2v1.6c-6.4,2.4-12.7,4.9-19.5,6.3-4.7,1-9.4,2-14.1,3-1.7,.3-3.6,0-4.9,.8-.7,.4-1.4,.4-2.1,.4s-.7,0-1.1,0c-.5,0-1,0-1.5,.2-1,.4-2.1,.5-3.1,.5s-.6,0-.9,0c-1,0-1.9,0-2.7,.4-.9,.4-1.7,.4-2.5,.4s-1.4,0-2.1,0c-.6,0-1.3,0-1.9,.2-1.6,.5-3.2,.5-4.8,.5s-.2,0-.3,0c-1.2,0-2.4,0-3.6,.2-2.8,.6-5.7,.7-8.5,.7s-5.1-.1-7.6-.1c-.9,0-1.8,0-2.7,0-1.8,0-3.5,.9-5.4,.9s-.7,0-1.1-.1c-3-.6-6.1-.7-9.1-.7s-3.8,0-5.7,0-3.9,0-5.8-.2c-3.2-.3-6.4-.1-9.4-.7-2.2-.4-4.4-.2-6.4-.7-2-.5-4.1-.3-6.1-.7-1.9-.5-4.1,0-5.6-.8-2.1-1-4.4,.2-6.2-1.4-.2,0-.5,0-.7,0-1.6,0-3-.9-4.6-.9-.2,0-.5,0-.7,0-3-1.5-6.4-1.4-9.5-2.4-3.1-1-6.3-1.6-9.3-2.9-3.9-1.7-7.8-3.6-11.2-6.4-.9-.8-.9-2.3-2.2-2.8v-4.8c.9-.8,2-1.6,2.8-2.7,1.3-1.5,3-2.5,4.7-3.1,4.3-1.6,8.7-3.2,13.2-4.3,2.7-.6,5.5-1,8.1-2,.5-.2,1.1-.3,1.7-.3m0-8h0c-1.8,0-3.3,.3-4.7,.9-1.2,.5-2.8,.8-4.4,1.1-.8,.2-1.6,.3-2.4,.5-5.1,1.1-9.7,2.8-14.3,4.6-3.4,1.3-6,3.1-8,5.5-.2,.2-.7,.7-1.1,1-.4,.3-.7,.6-1,.9-1.6,1.5-2.5,3.6-2.5,5.9v4.8c0,2.3,.9,4.4,2.5,5.8,.5,.9,1.3,2.1,2.6,3.2,4.3,3.4,8.9,5.7,13,7.5,2.5,1.1,5,1.8,7.2,2.4,1,.3,2,.5,2.9,.8,1.8,.6,3.4,.9,4.9,1.1,1.4,.2,2.7,.5,3.5,.9,1.1,.5,2.3,.8,3.5,.8s.4,0,.5,0c0,0,.2,0,.3,0,.8,.2,1.9,.5,3.2,.7,2.2,.9,4.2,.9,5.3,.9,0,0,.2,0,.2,0,2.1,.8,4,.9,5.4,.9,.3,0,.8,0,1,0,1.7,.4,3.2,.5,4.4,.6,.6,0,1.3,0,1.6,.2,1.8,.5,3.6,.6,4.9,.6,.8,0,1.5,0,1.9,.2,2.5,.5,4.9,.6,7,.7,1.1,0,2.2,0,3.2,.2,2.5,.2,4.8,.3,6.6,.3s2,0,2.9,0c.9,0,1.8,0,2.8,0,2.3,0,5.1,0,7.6,.6,.9,.2,1.7,.3,2.6,.3,1.9,0,3.5-.4,4.7-.7,.4,0,.9-.2,1-.2,.7,0,1.4,0,2.3,0s2.4,0,3.6,0c1.3,0,2.6,0,4,0,2.7,0,6.3,0,10.1-.9,.4,0,1.4,0,2,0h.2s.2,0,.2,0c1.7,0,4.1,0,6.8-.8,.2,0,.4,0,.6,0,.5,0,.9,0,1.4,0,1.8,0,3.5-.3,5-.8,0,0,.1,0,.2,0h.4s.5,0,.5,0c1.5,0,3.3,0,5.2-.7,.2,0,.3,0,.5,0,.7,0,2.8,0,5-1,.1,0,.3,0,.4,0,.8,0,1.9-.1,3.1-.4,4.6-.9,9.2-1.9,14.2-3,6.9-1.5,13.3-3.9,19.4-6.2l1.2-.4c3.1-1.2,5.2-4.2,5.2-7.5v-1.6c0-2.9-1.6-5.6-4.2-7l-.4-.2c-4.6-2.5-9-4.9-13.2-7.6-1.3-.8-3.9-2.6-7.5-2.6s-2.9,.3-4.2,.8c-1.8,.7-3.9,1.2-6.2,1.6-1.1,.2-2.2,.4-3.4,.7-1.7,.4-3.5,.7-5.5,1-2.2,.3-4.5,.7-6.9,1.2-.4,0-.8,0-1.4,0-1.5,0-3,.3-4.3,.8h-.3c-.5-.1-1-.1-1.6-.1-2,0-3.5,.5-4.5,.9-.2,0-.4,0-.6,0-.6,0-1.2,0-1.8,0-1.4,0-3.3,0-5.3,.7-.4,0-.9,0-1.3,0-2.5,0-4.9,.2-7.2,.5-1.9,.2-3.7,.4-5.4,.4h-.9c-2.5,0-5.1,0-7.6,0s-4.6,0-6.6,0c-.7,0-1.4,0-2.1,0s-1.8,0-2.7,0c-.8,0-1.7,0-2.5,0-1.9,0-4.2,0-6.3-.5-2-.4-3.8-.4-5.4-.4s-.6,0-.9,0h-.8c-1,0-2.1,0-2.7-.2-1.1-.3-2.4-.5-3.7-.5s-.8,0-1.1,0c0,0,0,0,0,0-1.3-.5-2.7-.8-4.3-.8s-.6,0-.9,0c-1-.4-2-.6-3.1-.6-.2,0-.3,0-.5,0,0,0-.2,0-.3,0-1.1,0-2.6-.4-4.2-.8-.8-.2-1.6-.4-2.4-.6-2.4-.5-4.8-1.1-6.9-1.9,.2-.2,.4-.4,.6-.7,2.1-2.4,2.6-5.7,1.3-8.6s-4.1-4.7-7.3-4.7-.9,0-1.5,0c-.6,0-1.4-.1-2.2-.1h0Z"/></g><g><path class="h" d="M168.8,400.1c-1.7,0-3.4,0-5.2,0-1.7,0-3.3,0-5,0s-2.3,0-3.3,0c-.3,0-.7,0-1,0-2.1,0-4.1-.2-6-.5-1.8-.2-3.5-.4-5.1-.4s-.8,0-1.3,0c-.2,0-.3,0-.5,0-1.1,0-2.1-.3-2.8-.5-.3,0-.6-.2-.7-.2,0,0-.3,0-.4,0-.4,0-.9,0-1.3,0-1.3,0-2.4-.3-3.5-.8,0,0-.1,0-.2,0-.4,0-.9,0-1.3,0-.7,0-1.4,0-2-.3-1.2-.4-2.5-.6-3.9-.8-1.1-.2-2.3-.3-3.5-.6-.8-.2-1.7-.3-2.6-.5-1.7-.3-3.5-.6-5.4-1.2-1.5-.5-3.1-1-4.7-1.5-4-1.2-8.2-2.5-12.2-4.6-1.3-.7-2.3-1.5-3.2-2.2-.9-.7-1.7-1.4-2.5-1.7-1.2-.5-2.1-1.5-2.4-2.8,0-.1-.2-.3-.3-.4-.5-.6-1.2-1.5-1.7-2.8-.5-1.6-.5-3-.4-4,0-.2,0-.4,0-.5,0-.7,0-1.3,.3-2,2.6-6.2,7.9-8.6,12.1-10.5l1-.4c1-.5,2.1-.8,3.1-1.1,.7-.2,1.4-.4,2-.6,1.3-.5,2.5-.8,3.6-1,.5-.1,1-.2,1.5-.4,.9-.3,1.8-.4,2.6-.5,.7-.1,1.5-.2,1.9-.4,.5-.2,1.1-.3,1.6-.3,1.3,0,2.5,.6,3.3,1.7,1.5,2.2,1.5,4.4,.1,6.8,.8,.6,2,1,3.3,1.5h.3c4,1.6,8.3,2.6,12.8,3.1,.7,0,1.4,.1,2.1,.2,1.4,.1,2.9,.2,4.4,.6,1.6,.4,3.4,.4,4.9,.4h1.9c1.7,0,3.7,0,5.8,.4,2,.4,4.1,.4,6.1,.4h1.9c1.5,0,3.2,0,4.9,.2,.1,0,.2,0,.3,0,.7,0,1.5-.2,2.4-.4,1.2-.2,2.6-.5,4.1-.5s.7,0,1,0c1.5,.1,2.9,.2,4.2,.2,1.1,0,2,0,2.9-.3,1.5-.3,2.9-.4,4.1-.4,1,0,1.9,0,2.7-.3,2.3-.5,4.5-.8,6.7-1.1,1.8-.3,3.5-.5,5.2-.8,1-.2,2-.4,3-.7,2.4-.6,4.9-1.2,7.6-1.2s1.1,0,1.6,0c.6,0,1.1,.2,1.6,.5l3.8,2.2c4.9,2.8,9.7,5.6,14.5,8.4,2.7,1.6,3.1,3.9,3,5.2,0,.5-.2,1.1-.4,1.6-1.5,3.1-4.5,4-6.3,4.6h-.4c-1.4,.6-2.7,1.1-4.1,1.6-2.6,.9-5.2,1.9-8,2.6-.6,.2-1.2,.3-1.9,.4-1.4,.3-2.8,.7-4.1,1-1.8,.5-3.7,1-6.1,1.5-.9,.2-1.8,.3-2.6,.3-.7,0-1.4,.1-1.7,.2-1.5,.6-2.9,.6-4,.7-.4,0-.9,0-1.1,0-1.8,.6-3.4,.6-4.7,.7-.8,0-1.5,0-2,.2-2.3,.6-4.4,.6-6.3,.6-1.3,0-2.4,0-3.5,.2-3.1,.6-6.5,.8-10.8,.8Z"/><path class="d" d="M116,360.6c1.7,2.5-2.3,3.4-.9,5.6,1.4,2.5,4.2,3.4,6.6,4.2,4.4,1.6,9,2.6,13.7,3.2,2,.3,4.1,.3,6.1,.7,1.9,.4,3.8,.5,5.8,.5s1.3,0,1.9,0c1.7,0,3.4,0,5.1,.4,2.3,.4,4.5,.5,6.8,.5s1.3,0,1.9,0c1.5,0,3,0,4.5,.2,.2,0,.5,0,.7,0,2.2,0,4.3-.9,6.5-.9s.5,0,.7,0c1.5,.1,3,.3,4.5,.3s2.5,0,3.7-.3c2.3-.5,4.6-.2,6.8-.7,3.9-.8,7.9-1.2,11.9-1.9,3.3-.6,6.6-1.8,9.9-1.8,.4,0,.8,0,1.2,0,6.2,3.6,12.2,7.1,18.2,10.6,.5,.3,1.1,.7,1,1.6-.8,1.7-2.8,2.2-4.3,2.7-4,1.3-7.8,3-11.9,4-2,.5-4.1,.9-6.1,1.5-1.9,.6-3.8,1-5.8,1.4-1.7,.4-3.4,.2-4.9,.8-1.7,.7-3.4,.2-5,.7-2.2,.7-4.4,.2-6.4,.8-3.2,.9-6.4,.2-9.4,.7-3.4,.6-6.7,.7-10.1,.7s-6.8-.2-10.1-.2c-1.1,0-2.3,0-3.4,0-.3,0-.6,0-.9,0-3.7,0-7.4-.9-11.1-.9s-1,0-1.6,0c0,0-.1,0-.2,0-1.1,0-2.2-.7-3.5-.7,0,0,0,0-.1,0-.6,0-1.1,.1-1.7,.1s-1.2-.1-1.9-.5c-.4-.3-.8-.3-1.3-.3-.6,0-1.2,.1-1.8,.1s-.6,0-.9-.1c-2.5-.8-5.1-.9-7.6-1.4-2.5-.6-5.2-.7-7.6-1.6-5.5-1.9-11.1-3.1-16.3-5.9-2.2-1.2-3.8-3.2-6.2-4.1-.3-1.5-1.7-2.3-2.1-3.6-.5-1.3,0-2.7-.2-3.6,2.2-5.2,6.8-6.9,11.1-8.8,1.5-.7,3.3-1,4.9-1.7,1.5-.6,3.2-.8,4.7-1.3,1.6-.5,3.5-.5,5-1.1m0-8c-1,0-2.1,.2-3.1,.6-.2,0-.7,.1-1.1,.2-.9,.1-2,.3-3.2,.7-.3,0-.8,.2-1.3,.3-1.2,.3-2.6,.6-4.2,1.3-.4,.2-.9,.3-1.6,.5-1.1,.3-2.3,.7-3.6,1.3-.3,.1-.6,.3-.9,.4-4.6,2.1-11,4.9-14.2,12.6-.5,1.2-.7,2.4-.6,3.7,0,0,0,.1,0,.2,0,1.1-.2,3.2,.6,5.5,.6,1.8,1.6,3,2.2,3.8,.8,2.1,2.4,3.7,4.5,4.6,.3,.1,1,.7,1.6,1.1,1,.8,2.2,1.7,3.8,2.6,4.4,2.4,8.7,3.7,13,5,1.6,.5,3.1,.9,4.6,1.4,2.1,.7,4.2,1.1,6,1.4,.9,.1,1.7,.3,2.4,.4,1.3,.3,2.6,.5,3.8,.7,1.3,.2,2.4,.4,3.3,.6,1,.3,2.1,.5,3.2,.5s.6,0,.8,0c1.3,.5,2.7,.8,4.2,.8s1,0,1.4,0c.9,.3,2.2,.7,3.9,.7s.5,0,.8,0c.3,0,.6,0,1,0,1.4,0,3,.2,4.6,.4,2,.2,4.2,.5,6.5,.5s.8,0,1.2,0c1,0,2,0,3.1,0s3.2,0,4.9,0c1.7,0,3.5,0,5.2,0,4.6,0,8.1-.3,11.5-.9,.7-.1,1.7-.1,2.8-.1,2,0,4.5,0,7.3-.7,.2,0,.7,0,1.1,0,1.4,0,3.4,0,5.5-.8,.1,0,.3,0,.4,0,1.1,0,3-.1,5-.8,.2,0,.6,0,.9,0,.9,0,1.9-.2,3.1-.4,2.4-.5,4.5-1,6.3-1.6,1.2-.4,2.5-.7,3.9-1,.6-.2,1.3-.3,1.9-.5,3-.7,5.8-1.8,8.5-2.8,1.4-.5,2.7-1,4-1.4h.3c2.1-.8,6.4-2.2,8.6-6.8,.5-1,.8-2.1,.8-3.2,0-1.7-.3-6-5-8.8-4.8-2.8-9.6-5.6-14.6-8.5l-3.7-2.2c-1-.6-2.1-.9-3.3-1-.6,0-1.3,0-2,0-3.2,0-6,.7-8.6,1.3-1,.2-1.9,.5-2.8,.6-1.6,.3-3.3,.5-5.1,.8-2.3,.3-4.6,.7-7,1.2-.5,0-1.3,.1-2.1,.2-1.3,0-3,.1-4.8,.5-.5,.1-1.2,.2-2,.2s-2.4-.1-3.8-.2c-.5,0-.9,0-1.4,0-1.9,0-3.6,.3-4.9,.6-.6,.1-1.3,.3-1.6,.3-1.8-.2-3.6-.2-5.2-.2h-1s-.9,0-.9,0c-1.8,0-3.7,0-5.3-.3-2.3-.4-4.5-.5-6.5-.5h-1s-.9,0-.9,0c-1.6,0-3,0-4-.3-1.8-.4-3.4-.5-4.9-.6-.7,0-1.3-.1-1.9-.2-4.2-.5-8.2-1.5-12-2.8,.4-3.2-1-5.7-1.8-6.9-1.5-2.2-4-3.4-6.6-3.4h0Z"/></g><g><path class="k" d="M152.9,465.2c-1.6,0-3-.3-4.3-.5-1-.2-2-.4-2.8-.4s-.3,0-.5,0c-1.5,.1-3.3,.3-5.2,.3s-3.3-.2-4.7-.5c-1.8-.4-3.6-.5-5.7-.5,0,0-1.8,0-2.1,0-1.4,0-2.5-.3-3.4-.6-.5-.2-1.1-.3-1.4-.3-.3,0-.5,0-.7,0-.6,0-1.4,.2-2.2,.2-1.3,0-2.6-.3-3.7-.8-.4,0-.7,0-1.1,0-1.7,0-3.2-.3-4.6-.6-1.1-.2-2.1-.4-3-.4-1.2,0-2.3-.2-3.3-.4-.8-.1-1.5-.3-2.1-.3s-.2,0-.3,0c-.1,0-.2,0-.3,0-.8,0-1.7-.3-2.3-.8-.1,0-.2,0-.4,0-.3,0-.6,0-.9,0h0c-.6,0-1.9,0-3.3-.7-1.6,0-3-.3-4.2-.6-.4,0-.7-.2-1.1-.2-5.1-1-10.5-2.2-15.9-3.4-1-.2-1.9-.5-2.8-.8-1.5-.5-3-.9-4.3-.9-2,0-3.2-1.2-3.8-1.7,0,0-.2-.2-.3-.2-1.1-.9-1.7-2.3-1.5-3.7,.2-1.3,1-2.4,2.1-3,0-.2,.2-.5,.4-.7,.8-1.1,2-1.8,3.3-1.8s.4,0,.7,0c.7,.1,1.3,.2,2,.3,1.8,.3,3.7,.5,5.7,1.1,.4,.1,.6,.2,.7,.2,.4,0,.9-.1,1.3-.1,1.4,0,2.5,.4,3.4,.7,.3,0,.6,.2,.8,.2,.2,0,.4,0,.7,0,.4,0,1-.1,1.6-.1,1.2,0,2.4,.3,3.4,.8,.2,0,.4,0,.6,0,1.7,0,3.3,.3,4.6,.5,1.2,.2,2.3,.4,3.3,.4s.6,0,.9,0c.3,0,.6,0,1,0,1.3,0,2.4,.4,3.2,.7,.2,0,.4,.1,.5,.2,.8-.1,1.9-.3,3-.3s2.3,.2,3.3,.5c.7,.2,1.4,.3,2.6,.3s1,0,1.4,0c.6,0,1.1,0,1.7,0,.9,0,2.2,0,3.6,.3,1.7,.4,3.5,.4,5,.4s1.2,0,1.8,0c.6,0,1.2,0,1.8,0,1.6,0,3.5,0,5.5,.4,3,.5,6,.5,9.1,.5,1,0,2.1,0,3.1,0,1.7,0,3.4,0,5,0s2.6,0,4,0c1.3,0,2.7,0,4,0h5.9c1.3,0,2.6,0,3.9,0h.2c.8,0,1.5,0,2.3,0,.6,0,1.3,0,1.9,0,1,0,1.7,0,2.3-.2,1.8-.5,3.4-.6,4.6-.6s.9,0,1.4,0c.4,0,.8,0,1.2,0s.7,0,1,0c.5,0,.9,0,1.4,0,.8,0,1.5,0,2.3,0,.6,0,1.2,0,1.9,0s1.3,0,1.7-.1c2.5-.6,4.9-.6,7-.6,1.6,0,3.1,0,4.5-.2,1.6-.3,3.1-.3,4.6-.4,1.4,0,2.7-.1,3.9-.3,1.6-.3,3.2-.4,4.5-.5,1,0,2,0,2.8-.2,2.4-.4,4.7-.6,7-.9,1.9-.2,3.7-.4,5.5-.6,1.2-.2,2.4-.3,3.6-.5,2.2-.3,4.3-.6,6.4-1,1.5-.3,2.9-.6,4.4-.8,1.9-.3,3.7-.7,5.5-1.1,3.2-.8,6.4-1.3,9.6-1.8h.1c4.2-.7,7.9-1.6,11.3-2.7,2.1-.7,4.2-1.2,6.2-1.8,1.6-.4,3.1-.8,4.6-1.3,5.7-1.7,11.1-3.7,16.2-5.9,3.9-1.7,7.3-3.2,10.6-5,4.7-2.6,8.5-4.9,11.8-8,0,0,.1-.1,.2-.2,.4-.4,1.1-1.1,2.1-1.6,0-.2,.2-.3,.2-.5,.7-1.4,2.1-2.2,3.6-2.2h1.8c2,0,3.6,1.4,3.9,3.3,.8,4.7-1,8.4-3,11.6-3.1,5-7.7,9.2-14.4,13-.8,.5-1.6,1-2.4,1.4-2.1,1.3-4.3,2.6-6.7,3.7-6,2.7-10.9,4.6-15.5,6.1-2.2,.7-4.5,1.4-6.7,2-1.3,.4-2.7,.8-4,1.2-1.7,.5-3.3,.9-4.9,1.3-1.9,.4-3.7,.8-5.4,1.4l-.5,.2c-1.2,.4-2.7,1-4.6,1s-.9,0-1.3,0c-.1,0-.8,.2-1.2,.3-.5,.2-1,.3-1.4,.4-1.3,.3-2.5,.5-3.7,.7-1.7,.3-3.3,.6-4.7,1.1-1.1,.4-2.2,.5-2.9,.5s-.5,0-.7,0c-.2,0-.3,0-.5,0s0,0,0,0c-.7,.4-1.4,.7-2.2,.7s-.6,0-.9,0c0,0-.2,0-.3,0-.5,0-1.2,.2-1.9,.3-1.1,.3-2.3,.5-3.7,.5s-.8,0-1.1,0c0,0-.4,.1-.6,.2-.8,.3-1.9,.7-3.3,.7s-.4,0-.6,0c-.2,0-.5,0-.7,0-.2,0-.5,0-.7,0-.7,.6-1.6,.9-2.6,.9s-.5,0-.8,0c-.3,0-.7,0-1.1,0-1.1,0-2.4,.2-3.7,.4-1.5,.2-3,.5-4.7,.5-1.5,0-3,.2-4.6,.3-1.9,.2-3.9,.4-5.9,.4s-.5,0-.8,0c-1.4,.6-2.9,.9-4.6,.9s-1.9,0-2.7-.2c-.3,0-.7,0-1,0-.4,0-.9,0-1.3,0-1.8,0-3.5,.2-5.4,.4-2,.2-4.2,.5-6.4,.5s-.7,0-1.1,0c-1.6,0-3.3,0-5.4,0s-2.9,0-4.3,0c-1.5,0-2.9,0-4.4,0s-2.9,0-4.4,0c-1.4,0-2.9,0-4.3,0-2.3,0-4.1,0-5.8,0-.2,0-.3,0-.5,0Z"/><path class="d" d="M325.5,414c.6,3.5-.9,6.3-2.5,8.9-3.2,5.1-7.9,8.7-13,11.6-2.9,1.7-5.8,3.6-8.8,4.9-4.9,2.2-10,4.3-15.1,6-3.5,1.2-7.1,2.1-10.7,3.2-3.4,1-7,1.6-10.5,2.7-1.1,.4-2.4,1-3.8,1s-.5,0-.7,0c-.2,0-.3,0-.5,0-1.2,0-2.5,.6-3.6,.9-2.9,.7-6,.9-8.9,2-.4,.2-.9,.2-1.4,.2s-.8,0-1.2,0c-.8,0-1.6,0-2.3,.7-.4,0-.8-.1-1.2-.1-1.9,0-3.8,.9-5.7,.9s-.5,0-.7,0c-.1,0-.3,0-.4,0-1.4,0-2.5,.9-3.9,.9s-.2,0-.3,0c-.6,0-1.3-.2-1.9-.2-.8,0-1.6,.2-2.3,.9,0,0,0,0-.1,0,0,0-.2,0-.2,0-.5,0-1.1-.1-1.6-.1-2.9,0-5.7,.9-8.5,1-3.5,0-6.9,.7-10.4,.7s-1.1,0-1.6,0c-1.2,.7-2.5,.9-3.8,.9s-2.3-.2-3.4-.2c-.5,0-1,0-1.6,0-4,0-7.9,.9-11.8,.9s-.6,0-.9,0c-1.8,0-3.7,0-5.5,0-2.9,0-5.8,0-8.7,0s-5.8,0-8.6,0c-2,0-4,0-6,.1-.1,0-.2,0-.4,0-2.4,0-4.7-.9-7.1-.9-.3,0-.6,0-.9,0-1.6,.2-3.2,.3-4.8,.3s-2.6-.1-3.8-.4c-2.2-.5-4.4-.6-6.6-.6s-.7,0-1.1,0-.7,0-1,0c-1.7,0-3.1-.9-4.8-.9-.2,0-.3,0-.5,0-.8,0-1.6,.2-2.4,.2s-1.8-.2-2.6-.9c0,0-.2,0-.3,0-.2,0-.3,0-.5,0-.5,0-1,.1-1.4,.1-2.6,0-5-1-7.6-1-1.8,0-3.6-.6-5.5-.6-.2,0-.4,0-.6,0-.6-.6-1.4-.8-2.2-.8-.5,0-.9,0-1.4,0-.8,0-1.6-.1-2.2-.8-.3,0-.6,0-1,0-1.6,0-3.1-.5-4.7-.8-5.3-1.1-10.5-2.2-15.8-3.4-2.6-.6-5.2-1.7-7.9-1.8-.8,0-1-.6-1.8-1.2,.8-.3,1.6-.7,2.4-1-.2-.3-.4-.6-.6-1,2.4,.4,4.9,.6,7.2,1.3,.6,.2,1.3,.3,1.8,.3s.4,0,.6,0c.2,0,.4,0,.7,0,1.4,0,2.5,.8,3.9,.9,0,0,.2,0,.2,0,.7,0,1.5-.2,2.3-.2s1.4,.2,2.1,.8c0,0,.2,0,.3,0s.3,0,.4,0c.4,0,.8,0,1.2,0,2.7,0,5.3,.9,7.9,.9s1,0,1.4,0c.1,0,.3,0,.4,0,1.3,0,2.4,.9,3.7,.9s.3,0,.5,0c.8-.1,1.7-.3,2.5-.3s1.3,0,1.9,.3c1.3,.5,2.6,.6,4,.6s2.1,0,3.1,0,1.8,0,2.7,.2c2,.4,3.9,.5,5.9,.5s2.4,0,3.6,0,3.2,0,4.8,.3c4.3,.7,8.5,.5,12.8,.6,1.7,0,3.4,0,5.1,0,2.7,0,5.3,0,8,0s3.9,0,5.9,0,2.6,0,3.9,0c0,0,.1,0,.2,0,1.4,0,2.8,.1,4.2,.1s2.3,0,3.4-.4c1.2-.3,2.4-.4,3.5-.4s1.7,0,2.5,0,.8,0,1.3,0c.4,0,.7,0,1.1,0,1.4,0,2.8,.1,4.1,.1s1.8,0,2.6-.2c3.8-.9,7.6-.1,11.3-.8,2.9-.5,5.9-.2,8.7-.8,2.4-.5,4.8-.3,7.2-.7,4.1-.7,8.4-.9,12.5-1.5,3.4-.5,6.9-.9,10.2-1.6,3.3-.7,6.7-1.1,10-1.9,3.1-.7,6.3-1.3,9.4-1.8,4-.7,8-1.6,11.9-2.9,3.5-1.2,7.2-2,10.7-3,5.6-1.7,11.2-3.7,16.6-6.1,3.7-1.6,7.4-3.2,10.9-5.2,4.4-2.4,8.8-5.1,12.6-8.5,.5-.5,.9-1.1,1.8-1.2,1-.2,1.2-1.4,1.6-2.2h1.8m0-8h-1.8c-2.8,0-5.4,1.5-6.8,3.8-1,.6-1.6,1.3-2,1.7h0c-3,2.8-6.5,5-11,7.4-3.1,1.7-6.5,3.2-10.3,4.9-4.9,2.1-10.2,4.1-15.7,5.8-1.4,.4-2.9,.8-4.5,1.3-2.1,.6-4.2,1.1-6.4,1.8-3.2,1.1-6.7,1.9-10.7,2.6h-.1c-3.2,.6-6.6,1.1-9.8,1.9-1.7,.4-3.4,.7-5.3,1-1.5,.3-3,.5-4.5,.8-1.9,.4-3.9,.7-6.1,1-1.2,.2-2.5,.3-3.7,.5-1.7,.3-3.5,.4-5.3,.6-2.4,.2-4.8,.5-7.3,.9-.6,.1-1.4,.1-2.3,.2-1.4,0-3.2,.1-5.2,.6-.8,.2-2,.2-3.2,.3-1.5,0-3.3,.1-5.1,.4-1,.2-2.4,.2-3.8,.2-2.3,0-5,0-7.9,.7,0,0-.3,0-.8,0s-1.1,0-1.7,0c-.7,0-1.6,0-2.5,0s-1.1,0-1.7,0c-.2,0-.4,0-.7,0s-.7,0-1.1,0c-.5,0-1,0-1.4,0-1.5,0-3.5,0-5.8,.7,0,0-.3,0-1.1,0s-1.1,0-1.8,0c-.8,0-1.6,0-2.4,0h-.2c-1.3,0-2.5,0-3.8,0h-2.9s-2.9,0-2.9,0c-1.3,0-2.7,0-4,0-1.3,0-2.6,0-4,0-1.9,0-3.5,0-5,0-1.1,0-2.1,0-3.2,0-3,0-5.9,0-8.5-.5-2.3-.4-4.5-.4-6.1-.4s-1.3,0-1.9,0c-.6,0-1.1,0-1.7,0-1.3,0-2.9,0-4.2-.3-1.8-.4-3.4-.4-4.4-.4s-1.2,0-1.8,0c-.4,0-.9,0-1.3,0-.9,0-1.2,0-1.3-.1-1.4-.5-3-.8-4.6-.8s-1.8,0-2.6,.2c-1-.3-2.4-.8-4.1-.8s-1,0-1.5,.1c0,0-.2,0-.3,0-.6,0-1.6-.2-2.6-.3-1.4-.2-3.2-.6-5.1-.6-1.2-.5-2.6-.8-4.2-.8s-1.4,0-1.9,.1c-1-.3-2.6-.9-4.6-.9s-.8,0-1.2,0c-2.1-.6-4.2-.9-6-1.1-.6,0-1.3-.2-1.9-.3-.4,0-.9-.1-1.3-.1-2.6,0-5.1,1.3-6.6,3.5,0,0,0,0,0,.1-1.6,1.3-2.7,3.2-3,5.3-.4,2.8,.8,5.6,3,7.3h0c.8,.8,2.8,2.7,6.3,2.9,.8,0,2,.4,3.3,.8,.9,.3,2,.6,3.1,.8,5.4,1.3,10.8,2.4,16,3.5,.3,0,.7,.1,1,.2,1.2,.3,2.6,.6,4.2,.7,1.2,.5,2.6,.8,4.2,.8s.2,0,.2,0c1,.5,2.2,.7,3.3,.7s.4,0,.6,0c.2,0,.9,.1,1.4,.2,1.1,.2,2.4,.4,4,.4,.5,0,1.4,.2,2.3,.4,1.5,.3,3.3,.6,5.4,.6s.2,0,.4,0c1.2,.5,2.7,.8,4.4,.8s2-.1,2.7-.2c0,0,0,0,0,0,.1,0,.3,0,.4,.1,1,.3,2.6,.7,4.5,.7,.4,0,.7,0,1.1,0h.6s.5,0,.5,0c1.8,0,3.4,0,4.8,.4,1.7,.4,3.6,.6,5.6,.6s4-.2,5.6-.4c0,0,0,0,0,0,.4,0,1.2,.2,2,.3,1.4,.3,3.1,.6,5.1,.6s.4,0,.7,0c1.6,0,3.4,0,5.6,0s2.8,0,4.3,0c1.5,0,2.9,0,4.4,0s2.9,0,4.4,0c1.4,0,2.8,0,4.3,0,2,0,3.7,0,5.2,0,.4,0,.8,0,1.2,0,2.5,0,4.8-.3,6.8-.5,1.8-.2,3.5-.4,5-.4,.4,0,.7,0,1,0,.3,0,.6,0,.9,0,.9,0,1.9,.2,3,.2,1.9,0,3.7-.3,5.4-.9,0,0,0,0,0,0,2.2,0,4.3-.2,6.3-.4,1.5-.1,3-.3,4.3-.3,2,0,3.8-.3,5.3-.6,1.2-.2,2.3-.4,3.1-.4s.3,0,.5,0c.3,0,.8,.1,1.4,.1,1.2,0,2.4-.3,3.5-.8,0,0,0,0,.1,0,.3,0,.7,0,1,0,1.9,0,3.4-.5,4.4-.8,.2,0,.4,0,.6,0,1.9,0,3.5-.4,4.6-.7,.3,0,.7-.2,.9-.2,.4,0,.8,0,1.3,0,1.1,0,2.2-.2,3.2-.7,0,0,.2,0,.3,0,1.6,0,3-.2,4.3-.8,1-.4,2.4-.6,3.9-.9,1.2-.2,2.6-.4,4-.8,.7-.2,1.3-.4,1.7-.5,0,0,.2,0,.3,0,.3,0,.6,0,.9,0,2.6,0,4.6-.7,6-1.2,.2,0,.3-.1,.5-.2,1.5-.5,3.2-.9,5-1.3,1.7-.4,3.4-.8,5.2-1.3,1.3-.4,2.6-.8,4-1.2,2.2-.6,4.6-1.3,6.9-2.1,4.7-1.5,9.7-3.5,15.9-6.3,2.6-1.2,4.9-2.5,7.2-3.9,.8-.5,1.6-.9,2.4-1.4,7.3-4.2,12.3-8.7,15.9-14.3,1.5-2.5,4.7-7.6,3.6-14.4-.7-3.8-4-6.7-7.9-6.7h0Z"/></g><g><path class="g" d="M267.6,345.5c-1.2,0-2.3-.5-3.1-1.5l-1.9-2.3c-.7-.9-1.1-2.1-.8-3.2s.9-2.2,1.9-2.7l2.1-1.2c1.5-.9,3-1.8,4.5-2.7,4.7-2.9,10.9-6.7,16.7-11.1,4.2-3.1,8.3-6.8,12.6-11.3,3.7-3.9,6.6-8.1,8.4-12.5,1.7-4.1,3.4-8.4,3-12.8,0-1,.1-1.7,.3-2.3-.5-1.4-.4-2.8-.3-3.7,0-.2,0-.5,0-.6-.4-2.3-1.5-4.5-3.1-7.1-2.6-4.3-6.8-7.2-13.1-9.2-1.3-.4-2.3-.6-3.3-.6s-.2,0-.3,0c-1,0-2.1,0-3.1,0s-1.5,0-2.3,0c-.7,0-1.5,0-2.2,0-1.1,0-2.1-.4-2.8-1.2-.8-.8-1.2-1.8-1.2-2.8,0-3.2,.4-5.7,4.7-6.8,2.4-.7,5.1-1.2,8.4-1.7,2.8-.4,5.1-.7,7.2-.7s1.3,0,2,0c5.3,.3,13.2,1.3,20.3,5.5,3.7,2.2,7.6,4.7,10.7,8.8,3,4,5,7.7,6.3,11.6l.2,.5c.7,2.1,1.4,4.4,1.3,7.2,0,1.3,0,2.6,0,4,.3,4.9-1.4,9.2-2.8,12.6-2.3,5.8-5.8,11-10.8,15.7-.6,.6-1.3,1.3-1.9,1.9-.9,1-1.9,2-3,2.9-3.8,3.3-8,6.5-12.6,9.3-3.8,2.3-8.9,5.3-14.5,7.8-7.3,3.3-13.4,5.7-19.2,7.5-1.6,.5-3.2,1-4.9,1.6-.8,.3-1.6,.5-2.4,.8-.4,.1-.8,.2-1.3,.2Z"/><path class="d" d="M300.1,251.4c.6,0,1.1,0,1.7,0,6.5,.4,12.9,1.6,18.5,4.9,3.5,2.1,6.9,4.3,9.6,7.7,2.5,3.3,4.4,6.6,5.7,10.4,.7,2,1.4,4,1.3,6.2,0,1.5,0,3,0,4.5,.2,3.9-1.1,7.4-2.5,11-2.2,5.5-5.5,10.2-9.8,14.3-1.6,1.6-3.1,3.3-4.8,4.7-3.7,3.3-7.8,6.2-12.1,8.8-4.6,2.8-9.2,5.4-14.1,7.6-6.1,2.8-12.3,5.4-18.7,7.3-2.4,.8-4.8,1.6-7.3,2.4-.6-.8-1.2-1.4-1.9-2.3,2.2-1.3,4.5-2.6,6.7-3.9,5.8-3.5,11.6-7.2,17.1-11.3,4.7-3.6,9-7.5,13.1-11.8,3.9-4,7.1-8.6,9.2-13.8,2-4.7,3.7-9.5,3.3-14.7,0-1.1,1-1.9,.2-3.2-.6-.9,0-2.5-.1-3.7-.5-3.1-2-5.9-3.7-8.6-3.5-5.8-9-8.9-15.3-10.9-1.5-.5-2.9-.8-4.5-.8s-.3,0-.4,0c-1,0-2,0-3,0-1.5,0-3,0-4.4,0,0-2.5,0-2.5,1.7-3,2.6-.7,5.3-1.2,8-1.7,2.2-.4,4.4-.6,6.6-.6m0-8c-2.4,0-4.9,.2-7.9,.7-3.4,.5-6.2,1.1-8.8,1.8-7.6,2-7.6,8-7.6,10.6h0c0,2.2,.8,4.3,2.3,5.8,1.5,1.5,3.5,2.4,5.7,2.4s1.4,0,2.1,0c.8,0,1.5,0,2.3,0,1.3,0,2.3,0,3.3,0,0,0,0,0,.1,0,.6,0,1.2,.1,2.1,.4,5.4,1.7,8.7,4,10.9,7.5,1.2,2,2.1,3.7,2.5,5.2,0,.9-.2,2.4,.1,4.1-.1,.7-.2,1.6-.1,2.5,.3,3.5-1.2,7.4-2.7,11-1.7,4-4.2,7.8-7.6,11.3-4.1,4.3-8.1,7.9-12.1,10.9-5.7,4.3-11.7,8-16.4,10.8-1.4,.9-2.9,1.7-4.4,2.6-.7,.4-1.4,.8-2.1,1.2-2,1.2-3.4,3.2-3.8,5.5s.2,4.7,1.7,6.5l.7,.8,1.2,1.5c1.5,1.9,3.8,2.9,6.2,2.9s1.7-.1,2.5-.4c.8-.3,1.6-.5,2.4-.8,1.7-.6,3.2-1.1,4.8-1.6,6-1.9,12.3-4.3,19.7-7.7,5.7-2.6,11-5.7,14.9-8.1,4.8-2.9,9.3-6.2,13.2-9.7,1.2-1.1,2.2-2.1,3.2-3.2,.6-.6,1.2-1.2,1.8-1.8,5.3-5.1,9.3-10.9,11.7-17.2,1.4-3.6,3.3-8.5,3-14.3,0-1.3,0-2.5,0-3.6,.2-3.5-.8-6.5-1.5-8.7l-.2-.5c-1.4-4.3-3.6-8.4-6.9-12.8-3.5-4.7-8-7.6-11.9-9.8-7.9-4.6-16.4-5.6-22.1-6-.7,0-1.5,0-2.2,0h0Z"/></g><g><path class="f" d="M1276.9,150.5c-.8,0-1.6-.5-1.9-1.3l-7.3-19.6c-.1,3.6-.2,7.3-.2,11.1,0,2.6,0,5.2,0,7.8,0,1.1-.9,2-2,2h-9.1c-1.1,0-2-.9-2-2v-42.7c0-1.1,.9-2,2-2h13.8c.8,0,1.6,.5,1.9,1.3l8.8,22.2,8.1-22c.3-.8,1-1.3,1.9-1.3h14.2c.1,0,.3,0,.4,0,.9,0,1.5,.6,1.9,1.1,.3,.4,.6,1,.6,1.7,0,12.7,0,25.5,0,38.4v3.5c0,1.1-.9,2-2,2h-10.6c-1.1,0-2-.9-2-2v-17.5l-7,18.3c-.3,.8-1,1.3-1.9,1.3h-7.6Z"/><path class="d" d="M1270.2,105.6c3.5,8.9,7,17.7,10.7,27,3.4-9.3,6.7-18.1,9.9-26.9h14.6s0,0,0,0c0,0,.1,.1,.2,.2,.1,.2,.2,.4,.2,.6,0,13.9,0,27.8,0,41.9h-10.6v-26.4c-.2,0-.5,0-.7,0-3.4,8.9-6.8,17.8-10.1,26.6h-7.6c-3.5-9.5-7-18.9-10.5-28.2-1.1,9.3-.7,18.6-.9,28.1h-9.1v-42.7h13.8m0-4h-13.8c-2.2,0-4,1.8-4,4v42.7c0,2.2,1.8,4,4,4h9.1c2.2,0,4-1.7,4-3.9,0-2.6,0-5.2,0-7.8,0-.2,0-.3,0-.5l3.6,9.7c.6,1.6,2.1,2.6,3.7,2.6h7.6c1.7,0,3.1-1,3.7-2.6l3.1-8.1v6.6c0,2.2,1.8,4,4,4h10.6c2.2,0,4-1.8,4-4v-3c0-13.1,0-26,0-38.9,0-1-.3-2-1-2.9-.5-.7-1.6-1.9-3.5-1.9s-.4,0-.5,0h-14.1c-1.7,0-3.2,1-3.8,2.6l-6.3,17.2-6.9-17.3c-.6-1.5-2.1-2.5-3.7-2.5h0Z"/></g><g><path class="l" d="M1225.3,150.5c-1.1,0-2-.9-2-2v-32.9c-.9,0-1.7-.1-2.4-.1s-1.3,0-1.9,0c-.7,0-1.3,0-2,0-1.6,0-2.9,0-4.1-.3-1-.2-1.7-1-1.7-2v-7.5c0-1.1,.9-2,2-2h34.6c1.1,0,2,.9,2,2v7.5c0,1.1-.9,2-2,2h-9.7v33.2c0,1.1-.9,2-2,2h-10.8Z"/><path class="d" d="M1247.7,105.8v7.5h-11.7v35.2h-10.8v-34.6c-1.5-.3-3-.4-4.4-.4s-2.6,0-3.9,0-2.5,0-3.8-.3v-7.5h34.6m0-4h-34.6c-2.2,0-4,1.8-4,4v7.5c0,2,1.4,3.6,3.3,3.9,1.3,.2,2.7,.3,4.4,.3s1.4,0,2.1,0c.6,0,1.3,0,1.9,0s.3,0,.4,0v31c0,2.2,1.8,4,4,4h10.8c2.2,0,4-1.8,4-4v-31.2h7.7c2.2,0,4-1.8,4-4v-7.5c0-2.2-1.8-4-4-4h0Z"/></g></g></g></svg>