<?xml version="1.0" encoding="UTF-8"?><svg id="b" xmlns="http://www.w3.org/2000/svg" viewBox="0 0 3423.6 630"><defs><style>.h{fill:#f7df1e;}</style></defs><g id="c"><g id="d"><rect id="e" class="h" width="630" height="630"/><path id="f" d="M165.6,526.5l48.2-29.2c9.3,16.5,17.8,30.4,38.1,30.4s31.7-7.6,31.7-37.2v-201.3h59.2v202.1c0,61.3-35.9,89.2-88.4,89.2s-74.9-24.5-88.8-54.1"/><path id="g" d="M375,520.1l48.2-27.9c12.7,20.7,29.2,35.9,58.4,35.9s40.2-12.3,40.2-29.2-16.1-27.5-43.1-39.3l-14.8-6.3c-42.7-18.2-71-41-71-89.2s33.8-78.2,86.7-78.2,64.7,13.1,84.2,47.4l-46.1,29.6c-10.1-18.2-21.1-25.4-38.1-25.4s-28.3,11-28.3,25.4,11,25,36.4,35.9l14.8,6.3c50.3,21.6,78.7,43.6,78.7,93s-41.9,82.5-98.1,82.5-90.5-26.2-107.8-60.5"/></g><g><g><path d="M805.1,515.9c-60.8,0-102.6-23.4-131.4-73.8l-4.4-7.7,74.8-55.7,5.5,10.2c11.4,21.1,27,32.7,44.2,32.7s21.7-3.2,27.3-10.3c6.8-8.7,10-23.7,10-46.1V108.8h105.9V372.4c0,40.6-11,75.3-31.8,100.5-23.2,28.1-57.8,42.9-100.2,42.9Z"/><path class="h" d="M927.1,118.8v253.6c0,73.1-37.9,133.5-121.9,133.5s-96.3-22.7-122.7-68.8l58.4-43.4c14.1,26.1,33.5,38,53,38,30.7,0,47.3-15.7,47.3-66.4V118.8h85.9m20-20h-125.9V365.3c0,24.6-4.3,35.3-7.9,39.9-2.5,3.2-6.7,6.5-19.4,6.5s-25.8-9.8-35.3-27.5l-11-20.4-18.6,13.8-58.4,43.4-14.2,10.6,8.8,15.4c15.3,26.7,33.9,46,56.9,59.1,23.3,13.3,50.5,19.7,83.1,19.7s82.8-16.1,107.9-46.6c22.3-27,34-64,34-106.9V98.8h0Z"/></g><g><path d="M1080.6,515.9c-27.8,0-52.7-10.1-70.2-28.4-16.8-17.7-26.1-42.1-26.1-68.8s14.1-60.7,43.1-79.7c26-17.1,64.9-28.6,118.6-35.1-3.7-16-14.5-23-34.4-23s-40.5,7.2-71.6,24.8l-8.9,5-39.9-73.6,8.1-4.9c42.9-26.2,86.3-39.5,128.8-39.5s71.4,12,92.6,35.5c21.4,23.8,32.3,59.3,32.3,105.4v175.4h-88.1l-4.8-22.9c-26.2,20.1-52.3,29.9-79.6,29.9Zm66.7-140c-60.9,10.3-60.9,29.4-60.9,35.9s0,17.8,23.2,17.8,24.9-6.6,37.7-19v-34.7Z"/><path class="h" d="M1128.1,202.6c74,0,114.9,42.3,114.9,130.9v165.4h-69.9l-6.2-29.6h-2.1c-24.4,21.4-51.7,36.6-84.2,36.6-52.8,0-86.2-38.5-86.2-87.2s48.5-94,162.9-106c-1.7-25.3-14.3-41.8-45.8-41.8s-48.5,10.2-76.6,26.1l-30.5-56.3c36.7-22.4,78.1-38.1,123.6-38.1m-18.4,237c19.4,0,32.4-9.6,47.7-24.8v-50.5c-61,8.2-80.9,25.7-80.9,47.5s12.8,27.8,33.2,27.8m18.4-257c-23.6,0-47.6,3.9-71.3,11.6-20.8,6.8-41.9,16.7-62.7,29.4l-16.2,9.9,9,16.7,30.5,56.3,9.7,17.9,17.7-10.1c29.1-16.5,49-23.5,66.7-23.5s15.4,1.7,19.2,5c-48.1,7-83.9,18.4-108.9,34.8-31.6,20.8-47.6,50.4-47.6,88.1s10.2,56.2,28.9,75.7c9.6,10,21,17.9,34,23.3,13.3,5.5,27.9,8.3,43.4,8.3,25.1,0,49.1-7.5,72.9-22.9h0s3.3,15.9,3.3,15.9h106.2v-185.4c0-48.7-11.7-86.4-34.9-112.1-23.2-25.8-56.9-38.8-100.1-38.8h0Zm-18.4,237c-6.3,0-10.2-1.3-11.7-2.5-.4-.3-1.5-1.2-1.5-5.3,0-12,21.4-19.4,40.9-23.7v18.2c-10.9,9.9-18.2,13.3-27.7,13.3h0Z"/></g><g><path d="M1374.6,508.9l-104.2-309.3h107.7l39.7,144.1c5.3,20.4,9.8,38.2,13.9,54.6,4.1-16.4,8.6-34.1,13.9-54.6l39.7-144.1h103.5l-100.9,309.3h-113.3Z"/><path class="h" d="M1575,209.6l-94.4,289.3h-98.8l-97.5-289.3h86.1l37.7,136.6c7.4,28.7,15,58.7,22.4,88.9h2.3c7.4-30.3,15-60.2,22.4-88.9l37.7-136.6h82.1m27.6-20h-124.9l-4,14.7-37.7,136.6v.2s0,.2,0,.2c-1.5,5.7-2.9,11.2-4.2,16.5-1.4-5.3-2.8-10.8-4.2-16.5v-.2s0-.2,0-.2l-37.7-136.6-4-14.7h-129.2l8.9,26.4,97.5,289.3,4.6,13.6h127.7l4.5-13.8,94.4-289.3,8.5-26.2h0Z"/></g><g><path d="M1681.3,515.9c-27.8,0-52.7-10.1-70.2-28.4-16.8-17.7-26.1-42.1-26.1-68.8s14.1-60.7,43.1-79.7c26-17.1,64.9-28.6,118.6-35.1-3.7-16-14.5-23-34.4-23s-40.5,7.2-71.6,24.8l-8.9,5-39.8-73.6,8.1-4.9c42.9-26.2,86.3-39.5,128.8-39.5s71.4,12,92.6,35.5c21.4,23.8,32.3,59.3,32.3,105.4v175.4h-88.1l-4.8-22.9c-26.2,20.1-52.3,29.9-79.6,29.9Zm66.7-140c-60.9,10.3-60.9,29.4-60.9,35.9s0,17.8,23.2,17.8,24.9-6.6,37.7-19v-34.7Z"/><path class="h" d="M1728.8,202.6c74,0,114.9,42.3,114.9,130.9v165.4h-69.9l-6.2-29.6h-2.1c-24.4,21.4-51.7,36.6-84.2,36.6-52.8,0-86.2-38.5-86.2-87.2s48.5-94,162.9-106c-1.7-25.3-14.3-41.8-45.8-41.8s-48.5,10.2-76.6,26.1l-30.5-56.3c36.7-22.4,78.1-38.1,123.6-38.1m-18.4,237c19.4,0,32.4-9.6,47.7-24.8v-50.5c-61,8.2-80.9,25.7-80.9,47.5s12.8,27.8,33.2,27.8m18.4-257c-23.6,0-47.6,3.9-71.3,11.6-20.8,6.8-41.9,16.7-62.7,29.4l-16.2,9.9,9,16.7,30.5,56.3,9.7,17.9,17.7-10.1c29.1-16.5,49-23.5,66.7-23.5s15.4,1.7,19.2,5c-48.1,7-83.9,18.4-108.9,34.8-31.6,20.8-47.6,50.4-47.6,88.1s10.2,56.2,28.9,75.7c9.6,10,21,17.9,34,23.3,13.3,5.5,27.9,8.3,43.4,8.3,25.1,0,49.1-7.5,72.9-22.9h0s3.3,15.9,3.3,15.9h106.2v-185.4c0-48.7-11.7-86.4-34.9-112.1-23.2-25.8-56.9-38.8-100.1-38.8h0Zm-18.4,237c-6.3,0-10.2-1.3-11.7-2.5-.4-.3-1.5-1.2-1.5-5.3,0-12,21.4-19.4,40.9-23.7v18.2c-10.9,9.9-18.2,13.3-27.7,13.3h0Z"/></g><g><path d="M2039.1,515.9c-54.6,0-108.4-21-147.6-57.6l-6.9-6.5,62-74,7.7,6.7c26.8,23.3,59.3,37.3,86.8,37.3s43.4-4.6,43.4-26.7-11.4-20.8-44-34.1l-4.7-1.9-49.3-21c-23.3-9.5-43-23.3-56.9-39.9-17.2-20.5-25.9-45-25.9-72.9,0-70.3,62.5-123.3,145.4-123.3s96.1,19.7,129.3,52.7l6.4,6.3-55.1,68.8-7.8-6c-25.3-19.4-47.1-27.7-72.8-27.7s-38.5,2.3-38.5,24.1,15.9,21.5,46.3,33.5c1.8,.7,3.6,1.4,5.5,2.2l48.5,19.6c54.9,22.2,81.6,59.1,81.6,112.7s-14.6,66.8-41,90.1c-28,24.7-66.8,37.7-112.2,37.7Z"/><path class="h" d="M2048.9,111.8c43.8,0,89.5,17.3,122.3,49.8l-43.4,54.2c-25-19.2-48.8-29.8-78.9-29.8s-48.5,12.3-48.5,34.1,24.9,31.8,58,45l48.4,19.6c46.4,18.8,75.4,49.7,75.4,103.4s-52.6,117.8-143.2,117.8-102-18.7-140.8-55l49.4-59c27,23.5,62.1,39.7,93.4,39.7s53.4-14.1,53.4-36.7-21.6-31.6-54.8-45.3l-49.4-21.1c-39.4-16-76.7-48.4-76.7-103.6s56.3-113.3,135.4-113.3m0-20c-42.6,0-81.8,13.4-110.3,37.8-29,24.8-45,58.7-45,95.5s9.5,57,28.3,79.4c15,17.8,36,32.6,60.8,42.7l49.2,21h.1c0,0,.1,.1,.1,.1,1.6,.6,3.1,1.3,4.6,1.9,30.2,12.4,37.8,16.6,37.8,24.9s-2.4,8.7-4.9,10.5c-3.2,2.3-11.2,6.1-28.5,6.1-24.8,0-55.6-13.3-80.2-34.8l-15.4-13.4-13.1,15.6-49.4,59-12.2,14.5,13.8,12.9c20.8,19.4,45.3,34.6,72.9,45.1,26.1,9.9,54.3,15.2,81.5,15.2,47.8,0,88.9-13.9,118.8-40.2,28.6-25.2,44.4-59.9,44.4-97.6s-8.2-56.2-24.5-77.1c-14.7-18.9-35.4-33.5-63.4-44.9l-48.4-19.6h0s0,0,0,0c-1.9-.7-3.7-1.5-5.5-2.2-14.1-5.6-26.2-10.4-33.7-15.5-6.3-4.3-6.3-6.7-6.3-8.7,0-12.3,17.8-14.1,28.5-14.1,23.6,0,43,7.4,66.7,25.6l15.5,11.9,12.2-15.3,43.4-54.2,11.2-14-12.7-12.7c-17.9-17.8-39.4-31.8-63.7-41.5-23.1-9.2-48.3-14.1-72.7-14.1h0Z"/></g><g><path d="M2366.2,515.9c-42.9,0-81.6-15.2-108.9-42.7-28.9-29.1-44.1-70.2-44.1-118.8s16.8-89.5,48.6-119.3c29.3-27.4,69.1-42.5,112.2-42.5s65,11.3,91,33.6l7,6-52.3,71.2-8.2-6.9c-12.3-10.4-21.8-14.7-32.8-14.7-35.6,0-57.7,27.8-57.7,72.6s22,72.4,54.8,72.4,35-10.4,46-19.2l8.9-7.1,43.7,73-6.2,5.5c-36.4,32.1-79.5,36.9-102,36.9Z"/><path class="h" d="M2373.9,202.6c35.6,0,63,12.7,84.5,31.1l-40.5,55.1c-13.9-11.7-25.4-17.1-39.2-17.1-41.2,0-67.7,32.5-67.7,82.6s27.6,82.4,64.8,82.4,37.2-9.4,52.2-21.3l33.6,56.1c-28.1,24.8-64,34.4-95.4,34.4-80.8,0-143.1-55.6-143.1-151.6s70.8-151.8,150.8-151.8m0-20c-45.6,0-87.9,16.1-119,45.2-16.3,15.3-29.1,33.6-37.9,54.5-9.2,21.9-13.9,46.1-13.9,72.1,0,51.3,16.3,94.8,47,125.9,14.7,14.9,32.3,26.4,52.3,34.2,19.6,7.7,41.1,11.6,63.7,11.6s37.8-3.1,55.3-8.9c20.1-6.8,38.1-17,53.4-30.5l12.5-11-8.5-14.3-33.6-56.1-11.7-19.6-17.9,14.2c-9.8,7.8-24.6,17-39.8,17-26.8,0-44.8-25.1-44.8-62.4s4.8-36.3,13.9-47.4c8.2-10.1,19.6-15.2,33.8-15.2s14.2,2.1,26.3,12.3l16.4,13.8,12.7-17.3,40.5-55.1,11-15-14.1-12.1c-27.9-23.9-60.7-36-97.5-36h0Z"/></g><g><path d="M2502.3,508.9V199.6h88.8l4.3,35c20.9-26.7,48.6-42,77.4-42s28,2,38.6,6.7l7.3,3.2-17.8,92.1-10.5-2.6c-9.8-2.4-17.5-4.3-28.5-4.3-22.1,0-42.1,16.9-53.7,45.4v175.7h-105.7Z"/><path class="h" d="M2672.8,202.6c16.5,0,26.1,2.1,34.5,5.8l-14.3,74c-10.3-2.5-18.8-4.7-31.2-4.7-21.8,0-48.3,14.1-63.7,53.5v167.7h-85.7V209.6h69.9l6.2,50.6h2.1c21.1-38.6,52.7-57.6,82.2-57.6m0-20c-25.2,0-49.7,10.5-70.1,29.3l-.6-4.8-2.1-17.6h-107.6v329.3h125.7v-183.7c10.1-23.5,26.3-37.4,43.7-37.4s16.7,1.7,26.1,4h.3c0,0,20.4,5.1,20.4,5.1l4-20.7,14.3-74,3-15.6-14.6-6.4c-11.9-5.3-24.7-7.5-42.6-7.5h0Z"/></g><g><path d="M2734.4,508.9V199.6h105.7V508.9h-105.7Zm53-331.7c-16.4,0-31.4-5.4-42.3-15.2-11.2-10.1-17.3-24.1-17.3-39.6,0-31.8,25.1-54.8,59.6-54.8s59.6,23.1,59.6,54.8-6.2,29.5-17.3,39.6c-10.9,9.8-25.9,15.2-42.3,15.2Z"/><path class="h" d="M2787.4,77.6c28.8,0,49.6,18.5,49.6,44.8s-20.9,44.8-49.6,44.8-49.6-18.7-49.6-44.8,20.9-44.8,49.6-44.8m42.8,132V498.9h-85.7V209.6h85.7m-42.8-152c-18.9,0-36.3,6.3-49,17.7-13.3,12-20.7,28.7-20.7,47.1s7.3,35,20.6,47c12.7,11.5,30.1,17.8,49,17.8s36.3-6.3,49-17.8c13.3-12,20.6-28.7,20.6-47s-7.3-35.2-20.7-47.1c-12.7-11.4-30.1-17.7-49-17.7h0Zm62.8,132h-125.7v329.3h125.7V189.6h0Z"/></g><g><path d="M2895.4,616.3V199.6h88l4.7,21.8c24.7-18.7,51.9-28.8,77.9-28.8,37.4,0,68.8,15.2,90.7,44.1,21.1,27.7,32.2,66.8,32.2,113.1s-13.7,91.2-39.7,121.8c-24.3,28.6-57,44.4-92,44.4s-39.4-6.2-57.6-18.4l1.5,23.6v95.1h-105.7Zm105.7-203.5c11.1,8.6,23.3,13,36.2,13,27.9,0,43.8-27.4,43.8-75.1s-3.6-41.9-10.7-53.1c-6.5-10.1-15.9-14.9-29.5-14.9s-25.9,6-39.7,20v110.1Z"/><path class="h" d="M3066,202.6c70,0,112.9,57.9,112.9,147.1s-59.1,156.2-121.7,156.2-48.3-10.9-69-30.2l2.9,45.8v84.8h-85.7V209.6h69.9l6.2,28.5h2.1c22.7-20.2,52.2-35.5,82.4-35.5m-28.8,233.2c29.9,0,53.8-25.2,53.8-85.1s-16.1-77.9-50.3-77.9-32.8,7.9-49.7,25.9v118.8c15.6,13.6,31.7,18.3,46.2,18.3m28.8-253.2c-23.7,0-48.3,7.7-71.3,22.1l-3.3-15.1h-106.1v436.7h125.7v-106.1s-.4-5-.4-5c15,7.1,30.7,10.7,46.5,10.7s36.9-4.2,54.1-12.4c17.2-8.3,32.5-20.2,45.5-35.5,13.3-15.7,23.7-34.4,30.9-55.6,7.5-22.1,11.3-46.6,11.3-72.7,0-48.4-11.9-89.6-34.3-119.1-11.7-15.4-26.1-27.4-42.6-35.5-16.9-8.3-35.7-12.5-56-12.5h0Zm-54.9,124.3c13.1-12.3,22-14.2,29.7-14.2s30.3,0,30.3,57.9-6.6,45.7-12.1,53.5c-5.5,7.8-12.6,11.6-21.8,11.6s-17.9-2.7-26.2-8.2v-100.7h0Z"/></g><g><path d="M3335.9,515.9c-37.3,0-65.8-11.7-84.5-34.6-16.9-20.7-25.4-50.1-25.4-87.6v-106.9h-39.5v-83.3l45.5-3.4,10.1-77.5h89.7v76.8h69.4v87.3h-69.4v105.8c0,31.9,14.7,36,27.5,36s19-3.1,24.1-4.9l10.7-3.9,17.9,82.3-8.7,2.8c-17.1,5.4-38.5,11-67.3,11Z"/><path class="h" d="M3321.7,132.7v76.8h69.4v67.3h-69.4v115.8c0,32.8,14.9,46,37.5,46s19.9-2.7,27.5-5.5l13.5,62.3c-15.4,4.9-36.2,10.5-64.3,10.5-71.5,0-99.9-45.2-99.9-112.2v-116.9h-39.5v-64l44.3-3.3,10-76.8h70.9m20-20h-108.5l-2.3,17.4-7.9,60.7-28.1,2.1-18.5,1.4v102.5h39.5v96.9c0,39.8,9.3,71.4,27.6,93.9,20.7,25.4,51.8,38.3,92.3,38.3s53.5-6.1,70.3-11.4l17.4-5.5-3.9-17.8-13.5-62.3-4.8-22.3-21.5,7.7c-7.6,2.7-15.1,4.3-20.7,4.3-8.7,0-11.4-3-12.2-3.9-3.4-3.8-5.2-11.6-5.2-22v-95.8h69.4v-107.3h-69.4V112.7h0Z"/></g></g></g></svg>