<?xml version="1.0" encoding="UTF-8"?><svg id="b" xmlns="http://www.w3.org/2000/svg" viewBox="0 0 1505.8 311.9"><defs><style>.bk,.bl{fill:#fff;}.bm,.bl,.bn,.bo,.bp,.bq,.br,.bs,.bt,.bu,.bv,.bw{fill-rule:evenodd;}.bm,.bx{fill:#ef3d3a;}.by,.bu{fill:#f7e4cd;}.bz{isolation:isolate;}.bn{fill:#dcd9d8;}.bo{fill:#335061;}.bp{fill:#49728b;}.bq{fill:#d33833;}.br,.ca{fill:#231f20;}.cb{fill:#f0f0f4;}.cc{fill:none;stroke:#d33833;stroke-miterlimit:5;stroke-width:2.5px;}.bs{fill:#1d1919;}.bt{fill:#81b0c4;}.bv{fill:#f0d6b7;}.bw{fill:#6d6b6d;}</style></defs><g id="c"><g><g id="d"><path id="e" class="bq" d="M222.1,150.3c0,61.8-49,111.9-109.4,111.9S3.4,212.1,3.4,150.3,52.4,38.4,112.8,38.4s109.4,50.1,109.4,111.9"/><path id="f" class="bx" d="M7.9,178S0,61.3,107.4,58l-7.5-12.5-58.3,19.6-16.7,19.2-14.6,27.9L2,144.7l2.5,21.7"/><path id="g" class="ca" d="M37.9,74C18.7,93.6,6.8,120.7,6.8,150.7h0c0,30,11.9,57.1,31.1,76.7h0c19.2,19.6,45.7,31.7,74.9,31.7h0c29.3,0,55.7-12.1,74.9-31.7h0c19.2-19.6,31.1-46.7,31.1-76.7h0c0-30-11.9-57.1-31.1-76.7h0c-19.2-19.6-45.7-31.7-74.9-31.7h0c-29.3,0-55.7,12.1-74.9,31.7h0Zm-4.9,158.2C12.6,211.3,0,182.5,0,150.7H0c0-31.8,12.6-60.6,33-81.5h0c20.4-20.9,48.6-33.8,79.8-33.8h0c31.2,0,59.4,12.9,79.8,33.8h0c20.4,20.9,33,49.7,33,81.5h0c0,31.8-12.6,60.6-33,81.5h0c-20.4,20.9-48.6,33.8-79.8,33.8h0c-31.2,0-59.4-12.9-79.8-33.8h0"/><path id="h" class="bv" d="M158.8,150.9l-16.7,2.5-22.5,2.5-14.6,.4-14.2-.4-10.8-3.3-9.6-10.4-7.5-21.2-1.7-4.6-10-3.3-5.8-9.6-4.2-13.8,4.6-12.1,10.8-3.8,8.8,4.2,4.2,9.2,5-.8,1.7-2.1-1.7-9.6-.4-12.1,2.5-16.7v-9.5c0,0,7.5-12.1,7.5-12.1l13.3-9.6,23.3-10,25.8,3.8,22.5,16.2,10.4,16.7,6.7,12.1,1.7,30-5,25.8-9.2,22.9-8.8,12.1"/><path id="i" class="bo" d="M144.6,223l-59.6,2.5v10l5,35-2.5,2.9-41.7-14.2-2.9-5-4.2-47.1-9.6-28.3-2.1-6.7,33.3-22.9,10.4-4.2,9.2,11.2,7.9,7.1,9.2,2.9,4.2,1.2,5,21.7,3.8,4.6,9.6-3.3-6.7,12.9,36.3,17.1-4.6,2.5"/><path id="j" class="bw" d="M45.9,77.6l10.8-3.8,8.8,4.2,4.2,9.2,5-.8,1.2-5-2.5-9.6,2.5-22.9-2.1-12.5,7.5-8.8,16.2-12.9-4.6-6.2-22.9,11.2-9.6,7.5-5.4,11.7-8.3,11.2-2.5,13.3,1.7,14.2"/><path id="k" class="bn" d="M63,38.4s6.2-15.4,31.2-22.9c25-7.5,1.2-5.4,1.2-5.4l-27.1,10.4-10.4,10.4-4.6,8.3,9.6-.8"/><path id="l" class="bn" d="M50.5,74.6s-8.8-29.2,24.6-33.3l-1.2-5-22.9,5.4-6.7,21.7,1.7,14.2,4.6-2.9"/><path id="m" class="bu" d="M63.8,113.4l5.5-5.3s2.5,.3,2.9,3.2c.4,2.9,1.7,29.2,19.6,43.3,1.6,1.3-13.3-2.1-13.3-2.1l-13.3-20.8"/><path id="n" class="bu" d="M140.5,105.5s1-12.6,4.4-11.7c3.4,1,3.4,4.4,3.4,4.4,0,0-8.3,5.3-7.8,7.3"/><path id="o" class="by" d="M175.1,59.2s-6.9,1.5-7.5,7.5c-.6,6.1,7.5,1.2,8.8,.8"/><path id="p" class="by" d="M124.6,59.6s-9.2,1.2-9.2,7.1,10.4,5.4,13.3,2.9"/><path id="q" class="bu" d="M68,86.7s-15.8-9.6-17.5-.4c-1.7,9.2-5.4,15.8,2.5,25.4l-5.4-1.7-5-12.9-1.7-12.5,9.6-10,10.8,.8,6.2,5,.4,6.2"/><path id="r" class="bu" d="M75.5,60.5s7.1-36.7,42.9-43.8c29.5-5.8,45,1.2,50.8,7.9,0,0-26.2-31.2-51.3-21.7-25,9.6-43.3,27.1-42.9,38.3,.7,19.2,.4,19.2,.4,19.2"/><path id="s" class="bu" d="M172.1,28.8s-12.1-.4-12.5,10.4c0,0,0,1.7,.8,3.3,0,0,9.6-10.8,15.4-5"/><path id="t" class="bu" d="M119.2,43.7s-2.1-16.6-16.3-7c-9.2,6.2-8.3,15-6.7,16.7,1.7,1.7,1.2,5,2.5,2.7,1.3-2.3,.9-9.8,5.4-11.9,4.6-2.1,12.1-4.4,15-.5"/><path id="u" class="bp" d="M80.1,156.3l-39.2,17.5s16.2,64.6,7.9,84.6l-5.8-2.1-.4-24.6-10.8-46.7-4.6-12.9,40.8-27.5,12.1,11.7"/><path id="v" class="bp" d="M84.1,192l5.6,6.8v25h-6.7s-.8-17.5-.8-19.6,.8-9.6,.8-9.6"/><path id="w" class="bp" d="M84.2,227.6l-18.8,.8,5.4,3.8,13.3,2.1"/><path id="x" class="bo" d="M148.4,223.4l15.4-.4,3.8,38.3-15.8,2.1-3.3-40"/><path id="y" class="bo" d="M152.6,223.4l23.3-1.2s9.6-24.2,9.6-25.4,8.3-35,8.3-35l-18.8-19.6-3.8-3.3-10,10v38.8l-8.8,35.8"/><path id="z" class="bp" d="M163,220.5l-14.6,2.9,2.1,11.7c5.4,2.5,14.6-4.2,14.6-4.2"/><path id="aa" class="bp" d="M163.4,147.6l29.2,21.7,.8-10-22.1-20.4-7.9,8.8"/><path id="ab" class="bl" d="M98.7,305.5l-8.6-35-4.3-25.8-.7-19.2,39-2.1h24.3s-2.2,43.8-2.2,43.8l3.8,33.7-.4,6.2-31.7,2.5-19.2-4.2"/><path id="ac" class="bn" d="M143,223s-2.1,43.3,4.2,74.2c0,0-12.5,7.9-30.8,10l35-1.2,4.2-2.5-5-68.3-1.2-14.6"/><path id="ad" class="bl" d="M168.3,258l16.2-4.6,30.8-1.7,4.6-14.2-8.3-24.6-9.6-1.2-13.3,4.2-12.8,6.2-6.8-1.2-5.3,2.1"/><path id="ae" class="bn" d="M168,249.6s10.8-5,12.5-4.6l-4.6-22.9,5.4-2.1s3.8,21.7,3.8,24.2c0,0,23.3,1.2,25.4,1.2,0,0,5-9.6,3.8-19.6l4.6,13.3,.4,7.5-6.7,10-7.5,1.7-12.5-.4-4.2-5.4-14.6,2.1-4.6,1.7"/><path id="af" class="bk" d="M151.6,220.1l-9.2-23.3-9.6-13.8s2.1-5.8,5-5.8h9.6l9.2,3.3-.8,15.4-4.2,24.2"/><path id="ag" class="bn" d="M153.4,212.1s-11.7-22.5-11.7-25.8c0,0,2.1-5,5-3.8s9.2,4.6,9.2,4.6v-7.9l-14.2-2.9-9.6,1.2,16.2,38.3,3.3,.4"/><path id="ah" class="bk" d="M102.4,157.2l-11.5-1.3-10.8-3.3v3.8l5.3,5.8,16.7,7.5"/><path id="ai" class="bn" d="M83.8,158.4s12.9,5.4,17.1,4.2l.4,5-11.7-2.5-7.1-5,1.2-1.7"/><path id="aj" class="bq" d="M168.2,178.6c-7.1-.2-13.5-1-19-2.6,.4-2.3-.3-4.5,.2-6.2,1.6-1.1,4.2-1.1,6.5-1.4-2-1-4.9-1.4-7.3-.8,0-1.6-.8-2.6-1.2-3.8,4-1.4,13.4-10.7,18.6-7.6,2.5,1.5,3.6,9.8,3.8,13.9,.2,3.4-.3,6.8-1.7,8.6"/><path id="ak" class="cc" d="M168.2,178.6c-7.1-.2-13.5-1-19-2.6,.4-2.3-.3-4.5,.2-6.2,1.6-1.1,4.2-1.1,6.5-1.4-2-1-4.9-1.4-7.3-.8,0-1.6-.8-2.6-1.2-3.8,4-1.4,13.4-10.7,18.6-7.6,2.5,1.5,3.6,9.8,3.8,13.9,.2,3.4-.3,6.8-1.7,8.6Z"/><path id="al" class="bq" d="M134.4,167c0,.5,0,1.1,0,1.6-2.2,1.5-5.8,1.4-8.2,2.7,3.6,.2,6.4,1,8.8,2.2,0,1.3-.1,2.7-.2,4-4,2.8-7.7,6.9-12.5,9.5-2.3,1.2-10.2,4.4-12.6,3.8-1.4-.3-1.5-2-2-3.6-1.2-3.4-3.8-8.8-4-13.9-.3-6.5-.9-17.3,6-16,5.6,1.1,12.1,3.7,16.5,6,2.7,1.5,4.2,3.2,8.2,3.6"/><path id="am" class="cc" d="M134.4,167c0,.5,0,1.1,0,1.6-2.2,1.5-5.8,1.4-8.2,2.7,3.6,.2,6.4,1,8.8,2.2,0,1.3-.1,2.7-.2,4-4,2.8-7.7,6.9-12.5,9.5-2.3,1.2-10.2,4.4-12.6,3.8-1.4-.3-1.5-2-2-3.6-1.2-3.4-3.8-8.8-4-13.9-.3-6.5-.9-17.3,6-16,5.6,1.1,12.1,3.7,16.5,6,2.7,1.5,4.2,3.2,8.2,3.6Z"/><path id="an" class="bq" d="M138.4,174.7c-.6-3.5-1.3-4.5-1.1-7.6,9.4-6.3,11.1,10.7,1.1,7.6"/><path id="ao" class="cc" d="M138.4,174.7c-.6-3.5-1.3-4.5-1.1-7.6,9.4-6.3,11.1,10.7,1.1,7.6Z"/><path id="ap" class="bm" d="M152,177.6s-2.9-4.2-.8-5.4,4.2,0,5.4-2.1,0-3.3,.4-5.8,2.5-2.9,4.6-3.3,7.9-1.2,8.8,.8l-2.5-7.5-5-1.7-15.8,9.2-.8,4.6v9.2"/><path id="aq" class="bm" d="M108.3,191.3c-.5-6.5-1-13-1.6-19.5-.9-9.7,2.3-8,10.7-8s7.9,1.5,8.4,2.5c2.3,4.6-3.8,3.6,2.6,7.1,5.4,3,15-1.8,12.8-8.4-1.2-1.5-6.4-.5-8.2-1.4-3.3-1.7-6.5-3.4-9.8-5.1-4.1-2.1-13.7-5.3-18.1-2.3-11.2,7.6,.7,26.6,4.7,34.6"/><path id="ar" class="br" d="M119.2,43.7c-11.4-2.6-17,4.8-20.4,12.4-3.1-.7-1.9-4.9-1.1-7.1,2-5.6,10.2-13,16.9-12,2.9,.4,6.8,3.1,4.6,6.7"/><path id="as" class="br" d="M174.6,56.6c.2,0,.4,0,.5,0,2.6,5.3,4.8,11,8,15.7-2.2,5.1-16.4,9.5-16.2,.5,3.1-1.3,8.4-.3,11.1-2-1.6-4.3-3.9-8-3.5-14.2"/><path id="at" class="br" d="M125.1,56.8c2.4,4.5,3.2,9.2,6.7,12.5,1.6,1.5,4.6,3.4,3.1,7.6-.4,1-2.9,3.2-4.4,3.7-5.4,1.6-18,.3-13.8-6.4,4.5,.2,10.5,2.9,13.8-.3-2.6-4.1-7.1-12.2-5.5-17"/><path id="au" class="br" d="M172.5,102.1c-8.1,5.2-17.2,10.9-30.6,9.6-2.9-2.5-3.9-8-1.2-11.6,1.4,2.5,.5,7,4.6,7.7,7.6,1.3,16.4-4.6,21.8-6.7,3.4-5.7-.3-7.8-3.3-11.5-6.2-7.5-14.6-16.8-14.3-28.1,2.5-1.8,2.7,2.8,3.1,3.6,3.3,7.6,11.4,17.4,17.4,23.9,1.5,1.6,3.9,3.1,4.2,4.2,.8,3.1-2,6.8-1.7,8.8"/><path id="av" class="br" d="M65.1,96.6c-2.6-1.5-3.2-7.9-6.2-8.1-4.3-.3-3.5,8.3-3.5,13.4-2.9-2.7-3.5-10.9-1.3-15.2-2.5-1.2-3.6,1.3-4.9,2.2,1.8-12.8,18.7-5.9,15.9,7.6"/><path id="aw" class="br" d="M177.7,107.5c-3.8,7.2-9.2,15.2-20.3,15.4-.2-2.3-.4-5.9,0-7.3,8.5-.8,13.8-5.1,20.3-8.1"/><path id="ax" class="br" d="M124.4,112.1c7.1,3.7,20.1,4.1,29.8,3.9,.5,2.1,.5,4.7,.5,7.3-12.4,.6-27.1-2.5-30.3-11.2"/><path id="ay" class="br" d="M123.1,119.1c4.9,12.3,21.8,10.9,36,10.6-.6,1.6-2,3.5-3.7,4.2-4.6,1.9-17.1,3.3-23.5,0-4-2.1-6.6-7-8.8-9.8-1.1-1.4-6.4-4.9,0-4.9"/><path id="az" class="bt" d="M171.9,187.1c-5.8,9.9-11.3,20-18.1,28.7,2.9-8.4,4.1-22.5,4.5-33.3,6-2.8,11.1,.6,13.6,4.6"/><path id="ba" class="br" d="M202.9,222.5c-6.4,1.3-11,7.6-17.3,7.2,3.5-4.9,9.5-6.9,17.3-7.2"/><path id="bb" class="br" d="M205.8,232.6c-5.3,.6-11.4,1.4-16.8,1,2.5-3.9,12.2-2.5,16.8-1"/><path id="bc" class="br" d="M207.6,241.3c-5.9,.1-13.3,0-18.9-.5,3.3-3.6,15-1.3,18.9,.5"/><path id="bd" class="bn" d="M160.8,265.1c.8,7.4,3.8,14.9,3.4,23.1-3.3,1.1-5.1,2.1-9.5,2.1-.3-6.9-1.2-17.5-1-24,2.2,.1,5.3-1.5,7.1-1.1"/><path id="be" class="bv" d="M151.3,155.8c-3,1.9-5.5,4.4-8.3,6.4-6.3,.3-9.8-.4-14.4-4.1,0-.3,.5-.2,.6-.5,6.8,3,15.4-1.2,22.2-1.8"/><path id="bf" class="bt" d="M115.8,201.9c1.9-8.1,9.1-12.2,15.7-16.7,6.8,8.7,11,19.8,15.5,30.5-10.8-3.3-21.8-8.5-31.3-13.9"/><path id="bg" class="br" d="M153.8,266.2c-.3,6.6,.6,17.1,1,24,4.4,0,6.3-1,9.5-2.1,.4-8.1-2.6-15.6-3.4-23.1-1.7-.5-4.9,1.2-7.1,1.1Zm-68.1-37.4c2.9,26.5,7.1,48.8,14.7,72.3,17,5.2,37.5,5.6,52.6,1-2.8-13.3-1.6-29.4-3.2-43.5-1.2-10.6-.6-21.3-2.3-32.2-18.2-3.8-44-.9-61.9,2.5Zm66.2-2.3c-.2,11.4,.5,22.6,1.4,34,4.4-.7,7.3-1.1,11.4-2-1.3-11-1.2-23.3-3.8-33.1-3.1,0-5.8,0-8.9,1Zm22.2-1.8c-2.1-.5-4.5,0-6.5,0,.9,9.3,3.2,19.5,4,29.3,3.1,0,4.8-1.4,7.4-1.9,.1-8.6-.7-20.3-4.9-27.4h0Zm33.6,30.7c6.5-1.6,10.6-9.5,8.8-17.7-1.2-5.5-3.4-15.9-5.7-19.4-1.7-2.6-6.4-6-10.1-3.6-6.1,3.9-16.7,5-21.1,9.7,2.2,7.4,2.9,17.5,3.8,26.8,7.6,.5,16.9-2.1,23.2,.6-4.4,1.4-10.1,1.4-13.9,3.5,3.1,1.5,10.4,1.2,15.1,0h0Zm-60.5-39.6c-4.6-10.7-8.7-21.9-15.5-30.5-6.6,4.4-13.9,8.6-15.7,16.7,9.5,5.4,20.5,10.6,31.3,13.9Zm11.3-33.3c-.4,10.7-1.7,24.8-4.5,33.3,6.8-8.7,12.3-18.8,18.1-28.7-2.5-3.9-7.6-7.4-13.6-4.6Zm-12.8-4.5c-2.6-.3-4.8,3-8.2,1.6-.8,.9-1.5,1.8-2.3,2.6,7.4,9,10.8,21.7,16.6,32.2,3.1-10.1,2.7-21.2,3.4-32.2-4.2,.3-6.6-3.8-9.5-4.1Zm-8.2-10.8c-.3,3.1,.4,4.1,1.1,7.6,10.1,3.2,8.3-13.8-1.1-7.6Zm-11.2-3.7c-4.3-2.4-10.9-5-16.5-6-7-1.3-6.3,9.5-6,16,.2,5.1,2.9,10.5,4,13.9,.5,1.6,.7,3.3,2,3.6,2.4,.6,10.3-2.6,12.6-3.8,4.8-2.6,8.5-6.7,12.5-9.5,0-1.3,.1-2.7,.2-4-2.4-1.2-5.2-2.1-8.8-2.2,2.4-1.2,6-1.2,8.2-2.7,0-.5,0-1.1,0-1.6-4-.3-5.6-2.1-8.2-3.6Zm-41.5-7.5c-3.6,3.7,10.1,8.7,14.5,8.9,0-2.3,1.3-4.5,1-6.2-5.2-.9-12-.3-15.5-2.8Zm44.4,1.7c0,.4-.5,.2-.6,.5,4.6,3.6,8.1,4.4,14.4,4.1,2.8-2.1,5.4-4.5,8.3-6.4-6.8,.6-15.4,4.9-22.2,1.8Zm40.8,12.4c-.2-4.1-1.3-12.4-3.8-13.9-5.3-3.1-14.7,6.2-18.6,7.6,.4,1.2,1.1,2.2,1.2,3.8,2.4-.6,5.2-.2,7.3,.8-2.4,.3-5,.2-6.5,1.4-.6,1.7,.1,3.9-.2,6.2,5.6,1.6,12,2.4,19,2.6,1.4-1.8,1.8-5.2,1.7-8.6Zm-91.3-10.5c-1.1-.8-8.8-10.8-9.8-10.4-13.9,5.5-26.8,14.9-38.4,23.9,11,23.7,15.5,52.7,16.3,80.7,12.7,5.9,23.8,14.5,40.9,15.3-2-14.1-3.8-26.6-4.9-39.8-4.3-1.8-10.5,0-14.5-.6,0-4.9,6.2-2.1,6.7-5.4,.4-2.5-3.4-2.7-2.2-6.6,3.2,1.1,4.8,3.7,8.2,4.6,3.1-6.7,0-18.6,.4-24.3,0-1.1,.5-5.9,2.9-5,2.1,.7-.1,12.8,.1,18.1,.2,4.9-.6,9.7,1.4,12.7,16.6-2.3,33.5-3.7,51.4-4.2-4-1.7-8.6-3.3-13.8-6.2-2.8-1.6-11.6-4.8-12.4-7.5-1.3-4.2,3.4-6.5,4.2-10.1-8.4,4.6-10-4.4-12-10.7-1.8-5.7-2.8-10-3.3-13.3-7.2-3.4-14.9-6.9-21.1-11.3h0Zm84-9.2c11.6-5.6,13.6,20.9,9.1,29.5,.7,2.6,3.1,3.5,4.1,5.8-6.4,11.5-13.6,22.3-20.2,33.7,4.9-3,11.9-.5,17.6-2.8,2.1-.8,3.6-5.7,5.2-9.5,4.4-10.6,9-24,11-34.1,.5-2.3,1.7-7.3,1.4-9.4-.5-3.7-5.5-6.4-8-8.7-4.7-4.2-7.6-7.9-12.5-11.8-2,2.9-6.2,4.9-7.8,7.3h0ZM52.2,47.8c-5.5,6.1-4.4,17.4-3.7,25.5,10-6.3,23.2,.5,23,11.1,4.8-.1,1.8-5.9,.9-9.7-2.8-12.2,4.7-25.5,.3-36.7-8.5,.6-15.5,4.1-20.6,9.7h0ZM91.6,12.7c-12.5,3.5-28.4,12.6-33.6,23.8,4-.6,6.7-2.6,10.6-2.8,1.5,0,3.4,.6,5.1,.2,3.4-.8,6.2-8.4,8.8-11.3,2.5-2.8,5.5-3.9,7.5-6.5,1.3-.6,3.3-.6,3.3-2.6-.6-.6-1.2-1.1-1.9-.9Zm64.9,3.3c-12.9-7.3-34.8-12.8-48.6-5.9-11.1,5.5-26.1,14.7-31.2,26.3,4.8,11.2-1.4,21.5-1.8,32.8-.2,6.1,2.8,11.3,3.1,17.9-1.6,2.7-6.6,3-10.1,2.8-1.2-5.8-3.2-12.4-9.2-13-8.5-.9-14.7,6.1-15.1,13.4-.5,8.6,6.6,23,16.7,22,3.9-.4,4.8-4.3,9.1-4.2,2.3,4.6-3.5,6-4.1,9.3-.2,.8,.5,4.1,.9,5.7,1.8,7.5,5.9,17.3,9.9,23,5.1,7.3,15.1,8.4,25.8,9.1,1.9-4.1,9-3.8,13.6-2.7-5.5-2.2-10.7-7.5-14.9-12.2-4.9-5.4-9.8-11.2-10.1-18.2,9.2,12.8,16.9,24,33.6,29.6,12.7,4.3,27.5-2,37.3-8.8,4.1-2.8,6.5-7.4,9.3-11.5,10.8-15.5,15.8-37.6,14.7-59-.5-8.8-.4-17.6-3.4-23.6-3.1-6.2-13.6-11.8-19.7-6.2-1.1-6,5.1-9.8,12.4-7.6-5.2-6.7-10.7-14.9-18.1-19h0Zm24.1,199.5c10.1-5,29-13.5,35.3,0,2.3,5,5.1,13.4,6.3,18.6,1.7,7.3-1.9,22.6-9.3,25-6.6,2.2-14.3,2-22.3,.4-.9-.8-2-2.1-2.7-3.6-5.7-.2-11,.3-15.5,2.6,.4,4.2-2.4,4.9-5.1,5.7-2,7.8,3.9,18,2.5,25.2-1,5.1-7.3,5.9-11.9,6.8-.2,2.8,.2,5.2,.5,7.6-1.1,3.9-5.8,6.1-10.2,6.6-14.7,1.8-37,2.6-51.2-2.5-3.9-9.7-7.1-21.4-10.3-32.5-13.8,1.5-24.9-5.9-35.5-10.8-3.6-1.7-8.7-2.6-10-5.5-1.3-2.8-.8-8.2-1.1-13.3-.8-13-1.5-25.5-5-38.8-1.5-6-4.2-11.2-6.1-17-1.7-5.3-4.7-11.9-5.5-17.2-1.2-7.9,6.2-8.3,11-11.7,7.3-5.3,13.1-8.2,21-12.9,2.3-1.4,9.4-5,10.2-6.6,1.6-3.3-2.7-7.8-3.9-10.4-1.8-4-2.8-7.5-3.1-11.4-6.7-1.1-11.7-5-14.7-9.5-5-7.4-8.5-21.1-4.2-31.5,.3-.8,2-2.4,2.3-3.7,.5-2.5-.9-5.8-1-8.4-.5-13.5,2.3-25.2,11.4-29.2,3.7-14.7,16.9-19.6,29.4-26.9,4.7-2.7,9.8-4.5,15.1-6.4,19-7,48.2-5.7,64,6.3,6.7,5.1,17.4,15.7,21.2,23.5,10.1,20.4,9.4,54.5,2.3,79.4-.9,3.3-2.3,8.2-4.3,12.2-1.3,2.8-5.5,8.4-5,10.9,.5,2.6,9.5,9.4,11.4,11.2,3.5,3.3,10.1,7.8,10.6,12,.6,4.5-2,10.6-3.3,15-4.3,14.5-8.5,27.8-13.4,40.7"/><path id="bh" class="bu" d="M113.1,115.3c.5-.7,3.6-1.8,7.8,.2,0,0-5,.8-4.6,9.2l-2.1-.4s-2.2-7.6-1.1-8.9"/><path id="bi" class="bs" d="M149.6,186.9c0,1.3-1,2.3-2.3,2.3s-2.3-1-2.3-2.3,1-2.3,2.3-2.3,2.3,1,2.3,2.3"/><path id="bj" class="bs" d="M151.9,197.6c0,1.3-1,2.3-2.3,2.3s-2.3-1-2.3-2.3,1-2.3,2.3-2.3,2.3,1,2.3,2.3"/></g><g class="bz"><path class="cb" d="M410,61.8c-4.2,.5-7.8,1.1-10.8,1.6-3,.5-6.3,1.3-10,2.2-4.3,1.2-7.1,3.2-8.3,6.2-1.2,3-1.8,6.3-1.8,10.1v123.8c0,11.4-2.3,21.8-6.9,31.3s-10.9,17.5-18.9,23.9c-8.1,6.3-17.2,11.1-27.2,14.3-10,3.2-20.7,4.8-32.1,4.8-19.7,0-35.6-4.7-47.7-14.2-12.1-9.5-18.1-22.5-18.1-39.1s2.8-17.9,8.3-24.4c5.5-6.4,13.2-9.7,22.9-9.7s16.5,2.7,21.9,8.1c5.4,5.4,8.1,12,8.1,19.9s-2.3,13-7,18.7c-4.7,5.7-10,11-16.1,15.9v2.1c1,2.1,3,3.9,6.2,5.4,3.2,1.5,6.4,2.2,9.7,2.2,12.7,0,22.7-4.5,29.9-13.6,7.2-9.1,10.9-22.8,10.9-41.2V83.5c0-3.8-.6-7-1.8-9.5-1.2-2.5-4-4.7-8.4-6.6-3.2-1.4-7-2.5-11.5-3.5-4.5-.9-8.2-1.6-11.2-2.1v-12.3h119.9v12.3Z"/><path class="cb" d="M577.6,236.2c-3.7,6-8.1,11.7-13.4,17-5.2,5.3-11.2,9.9-17.8,13.7-7.1,4-14.2,7-21.4,9.1-7.2,2.1-15.5,3.1-24.9,3.1-15.6,0-29.1-2.2-40.4-6.6-11.3-4.4-20.7-10.4-28.1-17.9-7.4-7.5-12.9-16.3-16.5-26.5-3.6-10.2-5.5-21.2-5.5-33.1s2-21.1,5.9-30.9c4-9.9,9.6-18.6,16.8-26.3,7.2-7.5,16.2-13.6,27.1-18.2,10.9-4.6,23.1-7,36.6-7s26.9,1.8,36.4,5.4c9.5,3.6,17.3,8.5,23.6,14.9,6,6,10.4,13.1,13.1,21.3,2.7,8.2,4.1,16.7,4.1,25.7v10.3h-106.9c0,21.6,4.2,38.1,12.5,49.4,8.3,11.3,21.6,16.9,39.7,16.9s18.8-2.7,26.7-8.1c7.9-5.4,14.7-12.3,20.2-20.6l12,8.7Zm-60.4-60.1c0-6.3-.3-12.8-.9-19.5s-1.7-12.1-3.3-16.3c-1.8-5-4.2-8.7-7.4-11.2-3.1-2.5-7-3.8-11.8-3.8-8.1,0-14.6,4.1-19.5,12.3-4.9,8.2-7.5,21.3-7.9,39.1l50.8-.6Z"/><path class="cb" d="M801.7,274h-95.1v-11.5c2-.2,4.4-.5,7.3-.8s5-.8,6.5-1.6c2.2-1.2,3.8-2.8,4.7-5.1s1.4-5.5,1.4-9.8v-74c0-10.8-2-18.9-5.9-24.3-4-5.4-9.8-8.1-17.5-8.1s-8.2,.6-11.8,1.9-7.2,3.1-10.7,5.5c-3.1,2.1-5.5,4.3-7.4,6.5-1.9,2.2-3.4,4.2-4.7,5.9v85c0,3.7,.5,6.8,1.6,9.3,1.1,2.5,2.8,4.4,5.2,5.6,1.7,.9,3.8,1.8,6.3,2.5,2.5,.7,5,1.3,7.4,1.6v11.5h-96.2v-11.5c2.6-.2,5.3-.5,8-.9,2.7-.4,5-.9,6.9-1.5,3.4-1.2,5.7-3,7-5.4,1.3-2.4,1.9-5.6,1.9-9.5v-92.1c0-3.3-.8-6.5-2.5-9.7-1.7-3.2-3.9-5.7-6.6-7.8-1.9-1.3-4.3-2.3-7.2-3.2-2.9-.8-6.1-1.4-9.6-1.7v-11.5l75.5-4.1,2.4,2.4v22.9h.6c3-2.6,6.5-5.8,10.8-9.5,4.2-3.7,8.1-6.7,11.7-9,3.9-2.5,9-4.7,15.3-6.5,6.3-1.8,13.1-2.7,20.2-2.7,17.2,0,30.1,4.9,38.7,14.6,8.6,9.8,12.9,22.7,12.9,38.8v77.5c0,3.9,.6,7,1.7,9.3,1.2,2.3,3.3,4.2,6.5,5.5,1.7,.7,3.8,1.5,6.2,2.2,2.5,.7,5.3,1.3,8.5,1.6v11.5Z"/><path class="cb" d="M1019.3,274h-74.6c-9.2-16.1-17.5-29.7-25.1-40.9-7.6-11.2-14.8-21.6-21.5-31.2l-9.3,7.9v34.5c0,3.8,.6,6.9,1.7,9.3,1.1,2.4,3.2,4.2,6.4,5.4,1.9,.8,4.1,1.6,6.6,2.2s5.1,1.1,7.6,1.3v11.5h-98.2v-11.5c2.7-.2,5.3-.5,8-.9,2.7-.4,5-.9,7-1.5,3.4-1.2,5.7-3,6.9-5.4,1.2-2.4,1.8-5.6,1.8-9.5V68.8c0-3.5-.8-7.1-2.3-10.8-1.5-3.7-3.8-6.6-6.7-8.5-2-1.3-5-2.3-9-3.2-4-.8-7.6-1.4-10.9-1.6v-11.5l78.8-4.1,2.4,2.5V194.9c7.8-7,16.6-15,26.3-24.2,9.7-9.2,17.6-16.8,23.5-22.8,3.5-3.6,5.4-6.3,5.8-8.1,.4-1.8,.6-3,.6-3.4,0-1.9-1.7-3.5-5-4.7-3.3-1.3-8.3-2.4-15-3.3v-11.2h80.4v10.9c-10.5,3-18.6,5.7-24.1,8.3-5.5,2.6-11.6,6-18.1,10.4-4.3,2.8-8.5,5.8-12.5,9-4,3.1-8.7,7-14,11.7,10.3,15,19.8,28.8,28.6,41.6,8.7,12.8,17.9,26.2,27.5,40.5,3.3,5,7.3,8.3,12.2,10,4.8,1.7,9.7,2.7,14.5,3.2v11.5Z"/><path class="cb" d="M1121.1,274h-100v-11.5c2.7-.2,5.4-.5,8.1-.8,2.6-.3,4.9-.8,6.8-1.6,3.4-1.3,5.7-3.1,7.1-5.5,1.4-2.4,2.1-5.5,2.1-9.4v-92.1c0-3.7-.8-6.9-2.5-9.7-1.7-2.8-3.8-5-6.3-6.7-1.9-1.3-4.8-2.5-8.6-3.6-3.9-1.2-7.4-1.9-10.5-2.2v-11.5l77.5-4.1,2.4,2.4v125.6c0,3.7,.8,6.8,2.4,9.4,1.6,2.6,3.8,4.5,6.8,5.8,2.1,.9,4.4,1.8,7,2.5,2.5,.7,5.2,1.3,7.9,1.6v11.5Zm-23.1-215.8c0,8-3.1,14.8-9.3,20.5-6.2,5.6-13.5,8.5-21.9,8.5s-15.9-2.8-22.1-8.5c-6.2-5.6-9.3-12.5-9.3-20.5s3.1-14.9,9.3-20.6,13.5-8.5,22.1-8.5,15.9,2.8,22,8.5c6.1,5.7,9.2,12.6,9.2,20.6Z"/><path class="cb" d="M1344.4,274h-95.1v-11.5c2-.2,4.4-.5,7.3-.8s5-.8,6.5-1.6c2.2-1.2,3.8-2.8,4.7-5.1s1.4-5.5,1.4-9.8v-74c0-10.8-2-18.9-6-24.3-4-5.4-9.8-8.1-17.5-8.1s-8.2,.6-11.8,1.9-7.2,3.1-10.7,5.5c-3.1,2.1-5.5,4.3-7.4,6.5-1.9,2.2-3.4,4.2-4.7,5.9v85c0,3.7,.5,6.8,1.6,9.3,1.1,2.5,2.8,4.4,5.2,5.6,1.7,.9,3.8,1.8,6.3,2.5,2.5,.7,5,1.3,7.4,1.6v11.5h-96.2v-11.5c2.6-.2,5.3-.5,8-.9,2.7-.4,5-.9,6.9-1.5,3.4-1.2,5.7-3,7-5.4,1.3-2.4,1.9-5.6,1.9-9.5v-92.1c0-3.3-.8-6.5-2.5-9.7-1.7-3.2-3.9-5.7-6.6-7.8-1.9-1.3-4.3-2.3-7.2-3.2-2.9-.8-6.1-1.4-9.6-1.7v-11.5l75.5-4.1,2.4,2.4v22.9h.6c3-2.6,6.5-5.8,10.8-9.5,4.2-3.7,8.1-6.7,11.7-9,3.9-2.5,9-4.7,15.3-6.5,6.3-1.8,13.1-2.7,20.2-2.7,17.2,0,30.1,4.9,38.7,14.6,8.6,9.8,12.9,22.7,12.9,38.8v77.5c0,3.9,.6,7,1.7,9.3,1.2,2.3,3.3,4.2,6.5,5.5,1.7,.7,3.8,1.5,6.2,2.2,2.5,.7,5.3,1.3,8.5,1.6v11.5Z"/><path class="cb" d="M1432.4,279.3c-10.2,0-20.2-1.5-30-4.5-9.8-3-17.3-6.2-22.7-9.6l-4.7,10.8h-12.3l-2.1-59h11.5c1.6,4.7,4.2,10.1,7.9,16.1,3.7,6,7.9,11.3,12.7,16.1,5,4.7,10.6,8.8,17,12,6.4,3.3,13.2,4.9,20.5,4.9s16.7-1.9,21.4-5.6c4.7-3.7,7-9.5,7-17.3s-1.1-7.7-3.2-10.4c-2.1-2.7-5-5.1-8.7-7.1-4.1-2.1-8.6-3.9-13.5-5.4-4.9-1.5-10.9-3.3-18.1-5.4-7.2-2.1-13.3-4.2-18.4-6.4-5.1-2.2-10.4-5.6-15.9-10.2-4.7-4.1-8.5-9.1-11.4-14.9-2.8-5.8-4.3-12.7-4.3-20.7,0-14.9,6.2-26.9,18.7-36.1s28.9-13.8,49.1-13.8,18.4,1,26.5,2.9c8.1,2,14.8,4.1,20.3,6.4l3.3-9.3h12l2.5,53.9h-11.1c-3.7-11-10-20.4-19-28.4-9-8-18.6-11.9-29-11.9s-14.5,1.7-19.1,5.1c-4.6,3.4-7,8.1-7,14.1s3.4,13.8,10.2,17.4c6.8,3.6,16.3,7,28.5,10.1,18.8,4.9,32.6,11.5,41.4,19.9,8.7,8.4,13.1,19.1,13.1,32s-6.8,30.7-20.3,40.2c-13.6,9.5-31.2,14.2-53.1,14.2Z"/></g></g></g></svg>