<?xml version="1.0" encoding="utf-8"?>
<!-- Generator: Adobe Illustrator 26.5.3, SVG Export Plug-In . SVG Version: 6.00 Build 0)  -->
<svg version="1.1" id="레이어_1" xmlns="http://www.w3.org/2000/svg" xmlns:xlink="http://www.w3.org/1999/xlink" x="0px"
	 y="0px" viewBox="0 0 64 64" style="enable-background:new 0 0 64 64;" xml:space="preserve">
<style type="text/css">
	.st0{fill:url(#SVGID_1_);}
	.st1{fill:#FFFFFF;}
</style>
<linearGradient id="SVGID_1_" gradientUnits="userSpaceOnUse" x1="0.8482" y1="3.2819" x2="62.6182" y2="64.1919" gradientTransform="matrix(1 0 0 -1 0 66)">
	<stop  offset="0" style="stop-color:#FF9419"/>
	<stop  offset="0.43" style="stop-color:#FF021D"/>
	<stop  offset="0.99" style="stop-color:#E600FF"/>
</linearGradient>
<path class="st0" d="M20.3,3.7L3.7,20.3C1.3,22.7,0,25.9,0,29.2V59c0,2.8,2.2,5,5,5h29.8c3.3,0,6.5-1.3,8.8-3.7l16.7-16.7
	c2.3-2.3,3.7-5.5,3.7-8.8V5c0-2.8-2.2-5-5-5H29.2C25.9,0,22.7,1.3,20.3,3.7z"/>
<path d="M48,16H8v40h40V16z"/>
<path class="st1" d="M30,47H13v4h17V47z"/>
</svg>
