<?xml version="1.0" encoding="utf-8"?>
<!-- Generator: Adobe Illustrator 26.5.3, SVG Export Plug-In . SVG Version: 6.00 Build 0)  -->
<svg version="1.1" id="레이어_1" xmlns="http://www.w3.org/2000/svg" xmlns:xlink="http://www.w3.org/1999/xlink" x="0px"
	 y="0px" viewBox="0 0 69 25" style="enable-background:new 0 0 69 25;" xml:space="preserve">
<style type="text/css">
	.st0{fill:#FFFFFF;}
	.st1{fill:#2684FF;}
	.st2{fill:url(#Vector_2_00000014611366089618338410000001671487929018685324_);}
	.st3{fill:url(#Vector_3_00000112600163713895795650000014960218069038802366_);}
</style>
<g id="logo-gradient-blue-jira">
	<g id="Jira">
		<path class="st0" d="M31.9,3.1h2.8v14c0,3.7-1.7,6.3-5.6,6.3c-1.5,0-2.6-0.2-3.4-0.5v-2.7c0.9,0.3,1.9,0.5,2.9,0.5
			c2.4,0,3.2-1.4,3.2-3.4V3.1z"/>
		<path class="st0" d="M39.9,2.1c1.1,0,1.9,0.7,1.9,1.8c0,1.1-0.8,1.8-1.9,1.8c-1.1,0-1.9-0.7-1.9-1.8C38,2.8,38.8,2.1,39.9,2.1z
			 M38.5,7.9h2.7v15.3h-2.7V7.9z"/>
		<path class="st0" d="M48,23.3h-2.7V7.9H48v2.7c0.9-1.8,2.5-3.1,5.6-2.9v2.6c-3.5-0.3-5.6,0.7-5.6,3.9V23.3z"/>
		<path class="st0" d="M66.3,20.5c-1,2-2.9,3.1-5.3,3.1c-4.2,0-6.3-3.4-6.3-8c0-4.3,2.2-8,6.6-8c2.3,0,4.1,1,5,3V7.9H69v15.3h-2.7
			V20.5z M61.7,21.1c2.4,0,4.6-1.5,4.6-4.9V15c0-3.4-2-4.9-4.3-4.9c-3,0-4.6,1.9-4.6,5.5C57.4,19.3,58.9,21.1,61.7,21.1z"/>
	</g>
	<g id="Icon">
		<path id="Vector" class="st1" d="M24.7,0H12.3c0,3,2.5,5.4,5.6,5.4h2.3v2.1c0,3,2.5,5.4,5.6,5.4V1C25.7,0.5,25.3,0,24.7,0z"/>
		
			<linearGradient id="Vector_2_00000043457165336202352990000001445085269251925436_" gradientUnits="userSpaceOnUse" x1="19.1486" y1="150.6828" x2="14.0333" y2="145.2516" gradientTransform="matrix(1 0 0 -1 0 156.5161)">
			<stop  offset="0.176" style="stop-color:#0052CC"/>
			<stop  offset="1" style="stop-color:#2684FF"/>
		</linearGradient>
		<path id="Vector_2" style="fill:url(#Vector_2_00000043457165336202352990000001445085269251925436_);" d="M18.5,6H6.1
			c0,3,2.5,5.4,5.6,5.4H14v2.2c0,3,2.5,5.4,5.6,5.4V7C19.6,6.5,19.1,6,18.5,6z"/>
		
			<linearGradient id="Vector_3_00000021102809530511407890000009352541700176213685_" gradientUnits="userSpaceOnUse" x1="13.3707" y1="144.6527" x2="7.4462" y2="138.7178" gradientTransform="matrix(1 0 0 -1 0 156.5161)">
			<stop  offset="0.176" style="stop-color:#0052CC"/>
			<stop  offset="1" style="stop-color:#2684FF"/>
		</linearGradient>
		<path id="Vector_3" style="fill:url(#Vector_3_00000021102809530511407890000009352541700176213685_);" d="M12.4,12H0
			c0,3,2.5,5.4,5.6,5.4h2.3v2.1c0,3,2.5,5.4,5.6,5.4V13.1C13.5,12.5,13,12,12.4,12z"/>
	</g>
</g>
</svg>
