<?xml version="1.0" encoding="UTF-8"?><svg id="b" xmlns="http://www.w3.org/2000/svg" viewBox="0 0 508 218.9"><defs><style>.j{fill:#6db33f;}.k{fill:#fff;}.l{fill:#59666c;}.m{fill:#bcae79;}</style></defs><g id="c"><g><g><path class="l" d="M36.1,216.9c-.7,0-1.4-.4-1.7-1,0,0-16.1-27.8-16.1-27.8L2.3,160.3c-.4-.6-.4-1.4,0-2l16-27.8c0-.1,.1-.2,.2-.3l.7-.5c.2-.1,.5-.2,.8-.2H52.2c.7,0,1.4,.4,1.7,1,0,0,16.1,27.8,16.1,27.8l16,27.8c.4,.6,.4,1.4,0,2l-16,27.8c-.4,.6-1,1-1.7,1H36.1Zm14.9-31.8l13.8-23.8h-27.5l-13.8,23.8h27.5Z"/><path class="k" d="M52.2,131.4l16.1,27.8H36.1l-16.1-27.8H52.2m-32.1,0l16.1,27.8-16.1,27.8L4,159.3l16-27.8m48.3,27.8l16,27.8-16,27.8-16.1-27.8,16.1-27.8m-16.1,27.8l16,27.8H36.1l-16.1-27.8H52.2M20,127.4h0c-1.4,0-2.7,.8-3.5,2L.5,157.3c-.7,1.2-.7,2.8,0,4l16,27.8s0,0,0,0l16.1,27.8c.7,1.2,2,2,3.5,2h32s0,0,0,0c0,0,0,0,0,0h0c1.4,0,2.7-.8,3.5-2l16-27.8c.7-1.2,.7-2.8,0-4l-16-27.8s0,0,0,0l-16.1-27.8c-.7-1.2-2-2-3.5-2H20Zm18.4,35.8h22.9l-11.5,19.8H27l11.5-19.8h0Z"/></g><path id="d" class="l" d="M36.1,159.7l-16.1,27.8-16-27.8,16-27.8,16.1,27.8Z"/><path id="e" class="m" d="M52.2,131.9H20l16.1,27.8h32.1l-16.1-27.8Z"/><path id="f" class="l" d="M52.2,187.6l16.1-27.8,16,27.8-16,27.8-16.1-27.8Z"/><path id="g" class="m" d="M36.1,215.4h32l-16-27.8H20l16.1,27.8Z"/></g><g id="h"><path class="l" d="M199.6,216.5c-1.9,0-4.5,0-7.5-.1-2.3,0-4.9-.1-7.6-.1h-2v-58.9h4.6c4.1-.2,9.1-.3,14.6-.3,12.8,0,20.1,5.6,20.1,15.4s-2.5,9.4-6.5,12.3c4.8,2.5,7.7,7.2,7.7,13,0,8.7-6.2,18.8-23.5,18.8Zm-4.1-11.4c1.1,0,2.6,.2,4.4,.2,3.7,0,9.9-1,9.9-7.4s-.9-3.8-2.8-4.9c-1.9-1.1-4.8-1.7-8.6-1.7s-2.2,0-2.9,0v13.8Zm0-24.4c.8,0,1.7,0,2.8,0,4.8,0,10.5-1.2,10.5-6.9s-1-5.7-8.3-5.7-3.4,0-5,.1v12.5Zm106.9,35.6l-14.5-20.1v20.1h-12.9v-58.8h1.9c3.9-.4,8.2-.5,14.9-.5,17.5,0,21.2,9.2,21.2,16.9s-5.3,14.6-13.9,16.7c.9,1.1,1.8,2.2,2.6,3.3l16.9,22.3h-16.2Zm-14.4-34.4c.7,0,1.4,0,2.3,0,5.9,0,9.4-2.7,9.4-7.2s-1.1-6.6-9.1-6.6-1.7,0-2.7,0v13.6Zm-55.7,34.4v-58.9h33v11.3h-20.1v11.7h19.1v11.2h-19.1v13.1h20.1v11.6h-33Zm-75.1,0v-58.9h12.9v58.9h-12.9Zm-25.4,0v-24.7h-22v24.7h-12.9v-58.9h12.9v22.7h22v-22.7h12.8v58.9h-12.8Z"/><path class="k" d="M291.7,159c11.4,0,19.2,4,19.2,14.9s-6.6,14.4-15.6,15.4c1.6,1.9,3.3,4,4.7,5.9l14.5,19.1h-11.2l-17.1-23.8h-.4v23.8h-8.9v-54.9c4-.3,8.5-.4,14.7-.4m-1.5,25c7.1,0,11.4-3.7,11.4-9.2s-3.8-8.6-11.1-8.6-3.4,0-4.7,.2v17.4c.8,0,2.4,.2,4.3,.2m-88.4-25c11.9,0,18.1,4.9,18.1,13.4s-3.8,10.6-9.3,12.5v.2c7.2,1.4,10.5,6.9,10.5,12.5h0c0,7.1-4.8,16.8-21.5,16.8s-8.9-.2-15-.3v-54.9c4.3,0,10.5-.3,17.2-.3m-3.7,23.7c8.2,0,12.5-3.4,12.5-8.9s-2.5-7.7-10.3-7.7-4.9,0-7,.2v16.3c1.5,0,2.9,0,4.8,0m1.7,24.5c8.1,0,11.9-3.9,11.9-9.4s-5.7-8.5-13.4-8.5-3.8,0-4.9,0v17.5c1.4,.2,3.6,.4,6.4,.4m63.4-47.9v7.3h-20.1v15.7h19.1v7.2h-19.1v17.1h20.1v7.6h-29v-54.9h29m-95.2,0v54.9h-8.9v-54.9h8.9m-25.5,0v54.9h-8.8v-24.7h-26v24.7h-8.9v-54.9h8.9v22.7h26v-22.7h8.8m149.1-4.4c-6.8,0-11.1,.1-15,.4l-3.7,.3v62.7h16.9v-15.9l10.2,14.2,1.2,1.7h21.3l-4.8-6.4-14.5-19.1c-.3-.3-.5-.7-.8-1,7.8-3,12.5-9.5,12.5-17.8s-3-18.9-23.2-18.9h0Zm-1.8,15.2c.2,0,.4,0,.7,0,7.1,0,7.1,2.6,7.1,4.6,0,4.7-5.2,5.2-7.4,5.2s-.2,0-.3,0v-9.8h0Zm-88.1-15.2c-5.4,0-10.5,.1-14.6,.2-1,0-1.9,0-2.7,0h-3.9v62.9h3.9c2.7,0,5.2,.2,7.5,.2,3,0,5.6,.1,7.5,.1,18.8,0,25.5-11.2,25.5-20.8,0-5.5-2.3-10.2-6.3-13.2,3.2-3.2,5.1-7.5,5.1-12,0-10.9-8.3-17.4-22.1-17.4h0Zm-4.4,15.2c1,0,2,0,3,0,6.3,0,6.3,2.1,6.3,3.7,0,3.2-2.9,4.9-8.5,4.9s-.5,0-.8,0v-8.5h0Zm0,23.1c.3,0,.6,0,.9,0,9.4,0,9.4,3.4,9.4,4.5,0,3.6-2.7,5.4-7.9,5.4s-1.7,0-2.4,0v-9.9h0Zm69.8-37.9h-37v62.9h37v-15.6h-20.1v-9.1h19.1v-15.2h-19.1v-7.7h20.1v-15.3h0Zm-95.2,0h-16.9v62.9h16.9v-62.9h0Zm-25.5,0h-16.8v22.7h-18v-22.7h-16.9v62.9h16.9v-24.7h18v24.7h16.8v-62.9h0Z"/></g><g id="i"><path class="m" d="M473,216.3v-58.9h33v11.3h-20.1v11.7h19.1v11.2h-19.1v13.1h20.1v11.6h-33Zm-33.1,0v-47.5h-15.1v-11.4h43.1v11.4h-15.1v47.5h-12.9Zm-22.5,0l-4.2-12.1h-19.4l-4.2,12.1h-13.2l21.1-58.9h12.7l21.4,58.9h-14.2Zm-8-23.2l-5.2-14.6c-.2-.6-.5-1.3-.7-1.9-.2,.8-.5,1.5-.8,2.2l-5.2,14.3h11.9Zm-85.9,23.2v-58.9h14.8l18.7,30.9c.9,1.5,1.8,3.1,2.7,4.7-.1-5.7-.3-12.2-.3-17.3v-18.3h12.6v58.8h-14.6l-19.4-32.2c-.8-1.2-1.5-2.4-2.1-3.6,.1,5.2,.2,11,.2,15.4v20.5h-12.6Z"/><path class="k" d="M465.8,159.4v7.4h-15.1v47.5h-8.9v-47.5h-15.1v-7.4h39.1m-57.1,0l20,54.9h-9.9l-4.2-12.1h-22.2l-4.2,12.1h-9l19.7-54.9h9.9m-14.1,35.7h17.6l-6.1-17.3c-1.1-2.8-1.8-5.4-2.5-8.4h-.2c-.6,2.7-1.5,5.8-2.6,8.7l-6.2,17m-24.6-35.7v54.8h-11.4l-18.8-31.2c-2.5-3.9-4.4-7.9-6.1-11.5,.3,5.4,.5,16.6,.5,24.4v18.5h-8.6v-54.9h11.6l18.1,29.9c2.5,4,4.7,8.4,6.7,12.5-.3-6.2-.5-18-.5-26.1v-16.3h8.6m134,0v7.3h-20.1v15.7h19.1v7.2h-19.1v17.1h20.1v7.6h-29v-54.9h29m-134,54.8h0c0,0,0,0,0,0m99.9-58.8h-47.1v15.4h15.1v47.5h16.9v-47.5h15.1v-15.4h0Zm-58.3,0h-15.5l-.9,2.7-19.7,54.9-1.4,3.9v-2.5h0v-58.9h-16.6v20.3c0,2.9,0,6.3,0,9.6l-16.9-28-1.2-1.9h-17.9v62.9h16.6v-22.5c0-2.3,0-5.1,0-7.9l17.1,28.4,1.2,1.9h17.2c0,0,5.7,0,5.7,0h11.8l.9-2.7,3.3-9.4h16.6l3.3,9.4,.9,2.7h18.4l-1.9-5.4-20-54.9-1-2.6h0Zm-11.2,35.7l3.1-8.6,3.1,8.6h-6.2Zm107.7-35.7h-37v62.9h37v-15.6h-20.1v-9.1h19.1v-15.2h-19.1v-7.7h20.1v-15.3h0Z"/></g><g><g><path class="j" d="M130,146.1c-28.5,0-40.5-2.4-55.7-6.1l-.8-.2c-.9-.2-1.5-1-1.5-1.9v-42.2c0-.6,.3-1.2,.8-1.6,.4-.3,.8-.4,1.2-.4s.3,0,.5,0c16.1,3.7,27.9,6,55.5,6s39.7-2.3,55.7-6.1c.2,0,.3,0,.5,0,.4,0,.9,.1,1.2,.4,.5,.4,.8,1,.8,1.6v42.2c0,.9-.6,1.7-1.5,1.9l-.8,.2c-15.3,3.7-27.5,6.2-55.9,6.2Z"/><path class="k" d="M186.3,95.6v42.2l-.8,.2c-15.7,3.8-27.8,6.1-55.4,6.1s-39.5-2.2-55.2-6.1l-.8-.2v-42.2c16.3,3.8,28.4,6.1,56,6.1s39.9-2.3,56.2-6.1m0-4c-.3,0-.6,0-.9,.1-15.9,3.7-27.6,6-55.3,6s-39.1-2.3-55.1-6c-.3,0-.6-.1-.9-.1-.9,0-1.8,.3-2.5,.9-1,.8-1.5,1.9-1.5,3.1v42.2c0,1.8,1.2,3.4,3,3.9l.8,.2c15.3,3.7,27.5,6.2,56.2,6.2s40.9-2.5,56.4-6.2l.8-.2c1.8-.4,3-2,3-3.9v-42.2c0-1.2-.6-2.4-1.5-3.1-.7-.6-1.6-.9-2.5-.9h0Z"/></g><g><path class="j" d="M186.3,56.9c-.2,0-.3,0-.5,0-15.6-3.7-27.9-6.1-55.7-6.1s-39.6,2.3-55.5,6c-.2,0-.3,0-.5,0-.4,0-.9-.1-1.2-.4-.5-.4-.8-1-.8-1.6V10.3c0-.9,.6-1.7,1.5-1.9l.8-.2c15.3-3.7,27.5-6.1,55.7-6.1s40.6,2.4,55.9,6.2l.8,.2c.9,.2,1.5,1,1.5,1.9V54.9c0,.6-.3,1.2-.8,1.6-.4,.3-.8,.4-1.2,.4Z"/><path class="k" d="M130,4c27.7,0,39.7,2.3,55.4,6.1l.8,.2V54.9c-16.3-3.8-28.6-6.1-56.2-6.1s-39.7,2.2-56,6.1V10.3l.8-.2c15.7-3.8,27.6-6.1,55.2-6.1m0-4c-28.4,0-40.7,2.4-56.2,6.2l-.8,.2c-1.8,.4-3,2-3,3.9V54.9c0,1.2,.6,2.4,1.5,3.1,.7,.6,1.6,.9,2.5,.9s.6,0,.9-.1c15.8-3.7,27.4-6,55.1-6s39.9,2.4,55.3,6c.3,0,.6,.1,.9,.1,.9,0,1.8-.3,2.5-.9,1-.8,1.5-1.9,1.5-3.1V10.3c0-1.8-1.3-3.4-3-3.9l-.8-.2c-15.5-3.8-27.7-6.2-56.4-6.2h0Z"/></g><g><path class="j" d="M130,101.5c-28.4,0-40.5-2.4-55.7-6.1l-.8-.2c-.9-.2-1.5-1-1.5-1.9V57.3c0-.9,.6-1.7,1.5-1.9l.8-.2c15.4-3.7,27.5-6.1,55.7-6.1s40.6,2.4,55.9,6.2l.8,.2c.9,.2,1.5,1,1.5,1.9v35.8c0,.9-.6,1.7-1.5,1.9l-.8,.2c-15.3,3.7-27.5,6.2-55.9,6.2Z"/><path class="k" d="M130,51c27.7,0,39.7,2.3,55.4,6.1l.8,.2v35.8l-.8,.2c-15.7,3.8-27.8,6.1-55.4,6.1s-39.5-2.2-55.2-6.1l-.8-.2V57.3l.8-.2c15.7-3.8,27.5-6.1,55.2-6.1m0-4c-28.4,0-40.7,2.4-56.2,6.2l-.8,.2c-1.8,.4-3,2-3,3.9v35.9c0,1.9,1.3,3.5,3.1,3.9l.8,.2c15.3,3.7,27.5,6.2,56.2,6.2s40.9-2.5,56.4-6.2l.8-.2c1.8-.4,3-2,3-3.9V57.4c0-1.8-1.3-3.4-3-3.9l-.8-.2c-15.5-3.8-27.8-6.2-56.4-6.2h0Z"/></g></g><g><g><path class="j" d="M236.3,130.1c-4.4,0-8.8-.5-12.9-1.6-4.1-1-7.8-2.4-10.9-4l-1.6-.8v-26.9l4.9,4.1c1.1,1,2.5,1.9,4.1,2.7,1.6,.9,3.3,1.6,5.2,2.3,1.8,.6,3.7,1.2,5.6,1.5,1.9,.4,3.8,.5,5.6,.5s2.9-.3,4.4-.8c1.4-.5,2.7-1.3,3.8-2.4,1.2-1.2,2.1-2.8,2.9-4.7,.8-2,1.2-4.6,1.2-7.7V42.3h-37V20.4h62.5V95c0,5.1-.8,9.9-2.5,14.2-1.7,4.4-4.1,8.1-7.4,11.2-3.2,3.1-7.2,5.5-11.9,7.2-4.6,1.6-10,2.5-16.1,2.5Z"/><path class="k" d="M271.2,23.4V95c0,4.8-.8,9.2-2.3,13.1-1.5,4-3.7,7.3-6.6,10.2-2.9,2.8-6.5,5-10.9,6.5-4.3,1.5-9.3,2.3-15.1,2.3s-8.3-.5-12.2-1.5c-3.9-1-7.3-2.2-10.2-3.8v-18.6c1.3,1.1,2.8,2.1,4.6,3,1.7,.9,3.6,1.8,5.6,2.5,2,.7,4,1.2,6.1,1.6,2.1,.4,4.1,.6,6.2,.6s3.5-.3,5.4-.9c1.8-.6,3.5-1.7,5-3.1,1.5-1.5,2.7-3.4,3.6-5.7,.9-2.4,1.4-5.3,1.4-8.8V39.3h-37v-15.9h56.5m6-6h-68.5v27.9h37v47.1c0,2.7-.3,4.9-1,6.6-.6,1.6-1.4,2.8-2.3,3.7-.8,.8-1.7,1.4-2.6,1.7-1.2,.4-2.4,.6-3.4,.6-1.7,0-3.4-.2-5.1-.5-1.8-.3-3.5-.8-5.2-1.4-1.7-.6-3.3-1.3-4.8-2.1-1.4-.7-2.6-1.5-3.5-2.4l-9.9-8.3v35.1l3.2,1.7c3.3,1.7,7.2,3.1,11.5,4.2,4.4,1.1,9,1.7,13.7,1.7s12.1-.9,17.1-2.7c5.1-1.8,9.5-4.5,13-7.9,3.5-3.4,6.3-7.6,8.1-12.3,1.8-4.6,2.7-9.8,2.7-15.3V17.4h0Z"/></g><g><path class="j" d="M296,128.5V20.4h32.9c6.9,0,13,.8,18.4,2.3,5.4,1.5,10.1,3.8,13.9,6.8,3.8,3.1,6.8,6.9,8.8,11.3,2,4.4,3,9.5,3,15.1s-1,11-2.9,15.8c-1.9,4.9-4.8,9.2-8.6,12.8-3.8,3.6-8.5,6.3-14.1,8.3-5.5,1.9-11.9,2.9-19.1,2.9h-6.8v32.8h-25.4Zm33.1-54.8c3,0,5.6-.4,7.8-1.2,2.1-.8,3.9-1.9,5.3-3.3,1.4-1.4,2.5-3.1,3.3-5.1,.8-2,1.2-4.4,1.2-7s-.4-4.4-1.1-6.3c-.7-1.8-1.7-3.3-3.1-4.5-1.4-1.3-3.3-2.3-5.5-3-2.4-.7-5.2-1.1-8.6-1.1h-7.1v31.4h7.7Z"/><path class="k" d="M328.9,23.4c6.6,0,12.5,.7,17.5,2.1,5.1,1.4,9.3,3.5,12.8,6.3,3.5,2.8,6.1,6.2,7.9,10.2,1.8,4,2.7,8.7,2.7,13.9s-.9,10.2-2.7,14.7c-1.8,4.5-4.4,8.4-7.9,11.7-3.5,3.3-7.8,5.8-13,7.7-5.2,1.8-11.2,2.7-18.1,2.7h-9.8v32.8h-19.4V23.4h29.9m-10.5,53.4h10.7c3.3,0,6.3-.5,8.8-1.4,2.6-.9,4.7-2.2,6.4-3.9,1.7-1.7,3.1-3.8,4-6.2,.9-2.4,1.4-5.1,1.4-8s-.4-5.2-1.3-7.4c-.9-2.2-2.2-4.1-3.9-5.7-1.7-1.6-3.9-2.8-6.6-3.6-2.7-.8-5.8-1.2-9.5-1.2h-10.1v37.4m10.5-59.4h-35.9v114.1h31.4v-32.8h3.8c7.5,0,14.3-1,20.1-3.1,6-2.1,11.1-5.1,15.2-8.9,4.1-3.9,7.3-8.5,9.4-13.9,2-5.2,3.1-10.9,3.1-16.9s-1.1-11.5-3.2-16.3c-2.2-4.9-5.4-9.1-9.6-12.4-4.1-3.2-9.1-5.7-14.9-7.4-5.6-1.6-12-2.4-19.2-2.4h0Zm-4.5,27.9h4.1c3,0,5.6,.3,7.7,1,1.8,.6,3.3,1.4,4.4,2.3,1,.9,1.8,2,2.3,3.4,.6,1.5,.9,3.3,.9,5.2s-.3,4.2-1,5.9c-.6,1.6-1.5,2.9-2.6,4-1.1,1.1-2.5,1.9-4.3,2.6-1.9,.7-4.2,1-6.8,1h-4.7v-25.4h0Z"/></g><g><path class="j" d="M440.5,128.5l-5.6-20.2h-31.1l-5.8,20.2h-25.3l32-108.1h31.4l32,108.1h-27.5Zm-11.6-41.9l-9.3-33.4-9.5,33.4h18.8Z"/><path class="k" d="M433.8,23.4l30.2,102.1h-21.2l-5.6-20.2h-35.6l-5.8,20.2h-19.1l30.2-102.1h26.9m-27.7,66.2h26.7l-13.3-47.5-13.4,47.5m32.1-72.2h-35.8l-1.3,4.3-30.2,102.1-2.3,7.7h31.6l1.2-4.3,4.5-15.8h26.5l4.4,15.8,1.2,4.4h33.8l-2.3-7.7-30.2-102.1-1.3-4.3h0Zm-24.2,66.2l5.5-19.3,5.4,19.3h-10.9Z"/></g></g></g></svg>