<?xml version="1.0" encoding="UTF-8"?><svg id="b" xmlns="http://www.w3.org/2000/svg" viewBox="0 0 505.6 118.3"><defs><style>.e{fill:#fff;}.f{fill:#21ace2;}.g{fill:#131b28;}</style></defs><g id="c"><g id="d"><path class="e" d="M205.9,46.2h0l-3.4,11.9,3.4-11.9h0Z"/><path class="e" d="M224.1,88.2l3.9-14.7-3.9,14.7h0Z"/><path class="e" d="M305.6,20.5l-7.2,33.8,7.2-33.8Z"/><path class="e" d="M287.1,20.5l-5.5,25.2,5.5-25.2h0Z"/><path class="e" d="M304.4,19h-15.4c-.9,0-1.7,.7-1.9,1.5l-5.5,25.2-5.5,25.2c-.2,.8-1,1.5-1.9,1.5h-10.9c-10.8,0-9.5-7.4-7.3-17.6v-.3l.2-1.3v-.2l.5-2.6,.5-2.8c.2-.8,.4-2.1,.6-2.9l2.5-12.1,2.5-12.1c.2-.8-.4-1.5-1.2-1.5h-15.8c-.9,0-1.7,.7-1.9,1.5l-3.4,16.1-3.4,16.1h0l-.3,1.5c-3.9,17.8-2.9,34.8,18.3,35.3h33.9c.9,0,1.7-.7,1.9-1.5l7.2-33.8,7.2-33.8c.2-.8-.4-1.5-1.2-1.5h.3Z"/><path class="e" d="M365.6,72.6c.9,0,1.4,.7,1.2,1.5l-1.5,7.3"/><path class="e" d="M363.9,88.7l1.5-7.3-1.5,7.3h0Z"/><path class="g" d="M362,90.3h0c-4.5,0-18.1,0-28.3,0,12.4,0,28.3,0,28.3,0h0Z"/><path class="e" d="M324.6,63.2c0-.8,.9-2.2,1.7-2.2h-1.9c-.9,8.7,.2,2.2,.2,2.2h0Z"/><path class="e" d="M365.6,72.6c.9,0,1.4,.7,1.2,1.5l-1.5,7.3-.2,1.2"/><path class="g" d="M362,90.2h0c-3.3,0-11.5,0-19.6,0,8.2,0,16.3,0,19.6,0Z"/><path class="g" d="M363.9,88.7l1.2-6.1-1.2,6.1h0Z"/><path class="e" d="M111.4,63.4l2.4-10.6-2.7,12.1-2.6,12.3,2.3-10.8c.2-.8,.5-2.2,.7-3h0Z"/><path class="e" d="M139.9,18.8h-16.9c-.9,0-1.7,.7-1.9,1.5l-1.6,7.1-1.6,7.1c-.2,.8,.4,1.5,1.2,1.5h17c.9,0,1.7-.7,1.9-1.5l1.5-7.1,1.5-7.1h0c.2-.8-.4-1.5-1.2-1.5h.1Z"/><path class="e" d="M136.2,42.3h0l-4.9,22.9s4.9-22.9,4.9-22.9Z"/><path class="g" d="M87.2,118.1s8.5,0,13.9,0c-4.1,0-10.9,0-13.9,0h0Z"/><path class="e" d="M116.1,42.3l-2.4,10.6s2.4-10.6,2.4-10.6Z"/><path class="e" d="M135,40.8h-17c-.9,0-1.7,.7-1.9,1.5l-2.4,10.6-2.4,10.6c-.2,.8-.5,2.2-.7,3l-2.3,10.8-2.3,10.8c-.2,.8-.5,2.2-.8,3,0,0-3.2,9.4-8.5,9.3h-5.3c-.9,0-1.7,.7-1.9,1.5l-1.8,7.4-1.8,7.4c-.2,.8,.3,1.5,1.2,1.5,3,0,9.8,0,13.9,0,13.3,0,20.4-7.4,24.9-28.6l5.3-24.4,4.9-22.9c.2-.8-.4-1.5-1.2-1.5h0Z"/><path class="e" d="M376.5,89.5c-.9,0-1.4-.7-1.2-1.5l12.8-59.9"/><path class="e" d="M394.2,88l5.2-25.6-5.2,25.6Z"/><path class="e" d="M375.4,88.8c-.1-.4,0-1.4,.1-2.3l6.1-28.4-6.4,29.9c-.2,.8,.4,1.5,1.2,1.5h1.6c-.9,0-2.5-.3-2.6-.8h0Z"/><path class="g" d="M393.2,89.2c-.5,.2-1.5,.3-2.4,.3h1.6c.9,0,1.7-.7,1.9-1.5l.3-1.5c-.2,.8-.9,2.5-1.3,2.7h-.1Z"/><path class="e" d="M396.8,75.2l2.3-11.3h0l-2.3,11.3h0Z"/><path class="e" d="M447.3,32.1l.7,2.9c.2,.8-.3,1.5-1.2,1.5"/><path class="e" d="M394.5,86.5l2.3-11.3-2.3,11.3Z"/><path class="e" d="M446.6,29.1l.7,3s-.7-3-.7-3Z"/><path class="e" d="M399.1,63.9c.2-.8,.5-2.2,.6-3l2.4-11.4-2.8,12.9-.3,1.5h0Z"/><path class="e" d="M388.2,27.1c-.2,.8-.4,1.8-.5,2.5l-6.1,28.4,6.4-29.9,.2-1h0Z"/><path class="e" d="M448,35l-.7-2.9-.7-3-.4-1.5c-1.4-5.4-5.4-8.5-14.2-8.5h-40.5c-.9,0-1.7,.7-1.9,1.5h0l-.6,3-.7,3.5-.2,1-6.4,29.9-6.1,28.4c-.2,.8-.2,1.9-.1,2.3s1.7,.8,2.6,.8h12.8c.9,0,1.9-.2,2.4-.3,.5-.2,1.2-1.9,1.3-2.7l2.3-11.3,2.3-11.3h0l.3-1.5,2.8-12.9,2.4-11.4c.2-.8,1-1.5,1.9-1.5h40.3c.9,0,1.4-.7,1.2-1.5h0Z"/><path class="e" d="M499.9,8.7h-16c-.9,0-1.9,.6-2.4,1.3l-28.5,41.8c-.5,.7-1,.6-1.2-.2l-2.1-9.2c-.2-.8-1-1.5-1.9-1.5h-18.3c-.9,0-1.4,.7-1.1,1.5l8.2,28.8c.2,.8,.3,2.2,0,3l-3.6,13.9c-.2,.8,.3,1.5,1.2,1.5h18.1c.9,0,1.7-.7,1.9-1.5l3.6-13.9c.2-.8,.8-2.1,1.3-2.7l46.3-61.5c.5-.7,.2-1.2-.6-1.2h-4.9Z"/><path class="e" d="M354.2,44.8h0c-.1,.9-1,1.6-1.8,1.6h-23.2c-.8,0-1.2-.5-1.1-1.2h0s0-.2,.1-.4c2.2-5.9,6.7-9.8,15.2-9.8s11.4,4.7,10.8,9.9h0Zm-6.8-26.9c-29.8,0-36.9,18.1-40.9,36.4-4,18.6-3.6,36.1,27.3,36.1h8.6c8.2,0,16.3,0,19.6,0,.8,0,1.7-.7,1.9-1.5l1.2-6.1,.2-1.2,1.5-7.3c.2-.8-.4-1.5-1.2-1.5h-27.8c-11,0-14.3-2.9-13.1-11.6h44.4c.7,0,1.4-.5,1.6-1.1,0,0,0-.3,.1-.4h0c6.6-24.8,4.7-41.6-23.5-41.6h0Z"/><path class="e" d="M206.3,44.7l-.4,1.5h0l-3.4,11.9-3.3,11.9c-.2,.8-1.1,1.5-2,1.5h-17.7c-13.5,0-16.7-10.5-13.5-26,3.3-15.9,9.7-25.7,22.9-26.7,18.1-1.4,21.7,11.4,17.3,26.1h0v-.2Zm12.3,25.8s8.4-20.3,10.3-32c2.6-15.7-5.3-38.5-35.6-38.5s-43.3,21.7-48.3,45.4c-5,23.8,1.6,44.7,31.6,44.5h23.7l22.1-.2c.9,0,1.7-.7,1.9-1.5l3.9-14.7c.2-.8-.3-1.5-1.2-1.5h-7.4c-.7,0-1.1-.5-1.1-1.1v-.3h0Z"/><path class="e" d="M367.9,56.9c0,.6-.5,1-1,1s-1-.5-1-1,.5-1,1-1,1,.5,1,1Z"/><path class="f" d="M6,30.5c-8.3,12-7.3,27.6-.9,40.3,.2,.3,.3,.6,.5,.9,0,.2,.2,.4,.3,.6,0,0,0,.2,.2,.3,0,.2,.2,.4,.3,.6,.2,.3,.4,.7,.6,1,0,.2,.2,.4,.3,.6,.2,.4,.5,.7,.7,1.1,.1,.2,.2,.3,.3,.5,.3,.5,.7,1,1,1.5h0s.1,.2,.2,.2c.3,.4,.6,.8,.9,1.2,.1,0,.2,.3,.4,.4,.3,.4,.6,.7,.9,1.1,.1,0,.2,.3,.3,.4,.4,.5,.8,.9,1.2,1.4h0c.4,.4,.8,.9,1.2,1.3,.1,0,.3,.3,.4,.4,.3,.3,.6,.6,1,1,.1,0,.3,.3,.4,.4,.4,.4,.9,.8,1.3,1.2h0s.2,0,.2,.2c.4,.3,.8,.7,1.2,1,.2,0,.3,.3,.5,.4,.3,.3,.7,.5,1,.8,.2,0,.4,.3,.5,.4,.4,.3,.8,.5,1.1,.8,.1,0,.3,.2,.4,.3h.1c.4,.2,.7,.5,1.1,.7,.2,0,.3,.2,.5,.3,.6,.4,1.1,.7,1.7,1.1,.2,0,.3,.2,.5,.3,.4,.2,.9,.5,1.3,.7,.2,0,.5,.2,.7,.4,.3,.2,.6,.3,.9,.5,0,0,.1,0,.2,0,.1,0,.3,0,.4,.2,.5,.2,1,.5,1.5,.7,.1,0,.2,0,.3,0,.6,.2,1.1,.5,1.7,.7,0,0,.3,0,.4,.2,.5,.2,1.1,.4,1.6,.6h.2c.6,.2,1.2,.4,1.8,.6,0,0,.3,0,.4,0,.6,.2,1.2,.4,1.9,.5,40.3,7.4,52-24.2,52-24.2-9.8,12.8-27.3,16.2-43.8,12.4-.6,0-1.2-.3-1.8-.5-.2,0-.3,0-.5,0-.6-.2-1.2-.4-1.8-.6h-.2c-.5-.2-1-.4-1.6-.6,0,0-.3,0-.4-.2-.6-.2-1.1-.5-1.7-.7,0,0-.2,0-.3,0-.5-.2-1-.4-1.4-.7,0,0-.3,0-.4-.2-.4-.2-.7-.4-1.1-.6-.2,0-.5-.3-.7-.4-.4-.2-.9-.5-1.3-.7,0,0-.3-.2-.4-.2-.6-.3-1.2-.7-1.7-1.1-.2,0-.3-.2-.5-.3-.4-.3-.8-.5-1.2-.8-.1,0-.3-.2-.4-.3-.4-.3-.8-.6-1.2-.8-.2,0-.3-.3-.5-.4-.4-.3-.7-.5-1-.8-.2,0-.3-.2-.5-.4-.4-.4-.9-.7-1.3-1.1h-.1c-.5-.5-.9-.9-1.4-1.3-.1,0-.3-.2-.4-.4-.3-.3-.7-.6-1-1-.1,0-.3-.3-.4-.4-.4-.4-.8-.8-1.2-1.3h0c-.4-.5-.8-.9-1.2-1.4-.1,0-.2-.3-.3-.4-.3-.4-.6-.7-.9-1.1-.1,0-.2-.3-.3-.4-.3-.4-.7-.9-1-1.4-9.2-12.5-12.5-29.8-5.1-44"/><path class="f" d="M31.9,20.4c-6,8.7-5.7,20.3-1,29.5,.8,1.5,1.7,3,2.7,4.5,.9,1.3,1.9,2.8,3.1,3.9,.4,.5,.9,.9,1.4,1.4l.4,.4c.5,.4,.9,.9,1.4,1.3h0c.5,.5,1.1,.9,1.6,1.3,0,0,.2,.2,.4,.3,.6,.4,1.1,.8,1.7,1.2h0c.3,.2,.5,.3,.8,.5,0,0,.2,.2,.4,.2,.4,.3,.8,.5,1.3,.8,0,0,0,0,.2,0,.4,.2,.7,.4,1.1,.6,0,0,.3,0,.4,.2,.3,0,.5,.3,.8,.4h0c.5,.3,1.1,.5,1.6,.8,0,0,.2,0,.4,0,.4,.2,.9,.4,1.3,.5,.2,0,.4,0,.6,.2,.4,0,.8,.3,1.2,.4,.2,0,.4,0,.5,.2,.6,.2,1.2,.4,1.8,.5,31.1,5.2,38.3-18.8,38.3-18.8-6.5,9.3-19,13.8-32.4,10.3-.6-.2-1.2-.3-1.8-.5-.2,0-.4,0-.5-.2-.4,0-.8-.3-1.2-.4-.2,0-.4,0-.6-.2-.4-.2-.9-.3-1.3-.5,0,0-.2,0-.4-.2-.5-.2-1.1-.5-1.6-.8-.3,0-.5-.3-.8-.4-.2,0-.3-.2-.5-.2-.3-.2-.7-.4-1-.6,0,0-.2,0-.2,0-.4-.2-.8-.5-1.2-.8,0,0-.2-.2-.4-.3-.3-.2-.5-.4-.8-.5-.6-.4-1.1-.8-1.7-1.2,0,0-.3-.2-.4-.3-5.9-4.6-10.5-10.9-12.7-18.1-2.3-7.4-1.8-15.8,2.2-22.6"/><path class="f" d="M53.6,12.9c-3.6,5.2-3.9,11.7-1.4,17.5,2.6,6.1,7.9,10.9,14.1,13.2,.3,0,.5,.2,.8,.3,0,0,.2,0,.3,0,.4,0,.7,.2,1.1,.3,17.2,3.3,21.8-8.8,23.1-10.6-4.1,5.9-10.9,7.3-19.4,5.2-.7-.2-1.4-.4-2-.6-.8-.3-1.6-.6-2.4-1-1.5-.7-2.9-1.6-4.2-2.6-7.5-5.7-12.2-16.6-7.3-25.5"/><path class="f" d="M229.2,102.7l-5,11.3h-5.5l.4-10.3-4,10.3h-5.3v-11.3c-.1,0,.4-2.8,.4-2.8h3.8l-.7,11.1,4.2-11.1h5.2l-.4,11.3,4.1-11.3h3.3l-.6,2.8h.1Z"/><path class="f" d="M237.8,106.1c.5-2.2,.3-2.6-.8-2.6h-1.7l-1.1,5.2-1.7,5.4h-3.2l2.6-12.2,.4-1.8h2.9l.4,.8s1.7-1,3.3-1c3.5,0,3.2,2.6,2.5,6.3h-3.6Z"/><path class="f" d="M248.2,98.2c-1.4,0-2.3-.4-2-2.1,.4-1.7,1.5-2.1,2.9-2.1s2.3,.4,1.9,2.1c-.3,1.7-1.4,2.1-2.8,2.1h0Zm-1.5,15.8h-3.2l.6-5.5,1.1-5.1-2.2-.5,.6-3h6l-3,14.1h.1Z"/><path class="f" d="M260.4,102.9l-4,.5-1.1,5.4c-.3,1.5-.3,1.9,1,1.9h2.6l-.6,2.8s-2.4,.7-3.4,.7c-4.1,0-4-2.2-3.3-5.6l1.1-5.3-2.2-.5,.7-3h2.3l1.3-3.5h3.1l-.8,3.5h3.9l-.7,3h.1Z"/><path class="f" d="M268.6,103.1c-1.9,0-2.8,1-3.2,2.7l5.3-.4c.2-1.2,0-2.2-2.1-2.2h0Zm-3.7,5.1c-.2,1.7,.4,2.3,2.6,2.3h5.5l-.5,2.6s-3.3,.9-5.8,.9c-6.2,0-6.2-3.5-5.4-7.2,.8-3.6,2.2-7.3,8.2-7.3s6,3.5,4.6,8.6h-9.2Z"/><path class="f" d="M286.6,114h-3.2l.6-5.5,2.2-10.5-2.2-.5,.7-3h6l-4.2,19.5h.1Z"/><path class="f" d="M298.1,103.1c-1.9,0-2.8,1-3.2,2.7l5.3-.4c.2-1.2,0-2.2-2.1-2.2h0Zm-3.7,5.1c-.2,1.7,.4,2.3,2.6,2.3h5.5l-.6,2.6s-3.3,.9-5.8,.9c-6.2,0-6.2-3.5-5.4-7.2,.8-3.6,2.2-7.3,8.2-7.3s6,3.5,4.6,8.6h-9.1Z"/><path class="f" d="M318,103.3h-5.1c-2.3,0-2.6,.7-2.8,1.5v.7c-.1,0,7.3,.6,7.3,.6,0,0,0,2.4-.3,3.7-.4,2.2-2.8,4.5-6.9,4.5s-5.4-.8-5.4-.8l.6-2.7h5.1c2.3,0,2.6-.6,2.7-1.2l.2-.9-7.3-.6s-.3-1.8,.1-3.6c.6-2.5,2.8-4.6,7-4.6s5.4,.8,5.4,.8l-.6,2.7h0Z"/><path class="f" d="M331.8,103.3h-5.1c-2.3,0-2.6,.7-2.8,1.5v.7c-.1,0,7.3,.6,7.3,.6,0,0,0,2.4-.3,3.7-.4,2.2-2.8,4.5-6.9,4.5s-5.4-.8-5.4-.8l.6-2.7h5.1c2.3,0,2.6-.6,2.7-1.2l.2-.9-7.3-.6s-.3-1.8,.1-3.6c.6-2.5,2.8-4.6,7-4.6s5.4,.8,5.4,.8l-.6,2.7h0Z"/><path class="f" d="M336.1,116.2h-2.8v-2.1c-.9,0-1.4-.8-1.2-2,.4-1.7,1.4-2.1,2.9-2.1s2.3,.4,1.9,2.1l-.9,4.1h.1Z"/><path class="f" d="M354.5,103.4c-2.1,0-2.8,1.2-3.3,3.5s-.3,3.6,1.7,3.6h2.9l1.6-7.1h-2.9Zm4.7,8.8l-.4,1.8h-2.9l-.4-.9s-2.5,1.1-4.3,1.1c-4.4,0-4.6-3.6-3.8-7.3,.8-3.7,2.5-7.2,6.9-7.2s3.7,.8,3.7,.8l1.8-5.9h3.2l-3.8,17.6h0Z"/><path class="f" d="M370.6,103.3c-2.7,0-3.5,1.5-4,3.7-.4,2.2-.2,3.8,2.4,3.8s3.6-1.5,4.1-3.8c.5-2.1,.3-3.7-2.4-3.7h-.1Zm-2.3,10.9c-5.7,0-6.1-3.5-5.4-7.2,.8-3.7,2.8-7.2,8.5-7.2s6.2,3.5,5.4,7.2c-.8,3.8-2.8,7.2-8.5,7.2Z"/><path class="f" d="M400.5,114l.6-5.4,.3-1.5c.4-2.1,.7-3.6-1.4-3.6h-1.7c0,1.1-.1,2.3-.4,3.5l-1.5,7h-3.2l.6-5.4,.3-1.5c.4-2.1,.7-3.6-1.4-3.6h-1.4l-2.3,10.6h-3.7l3-14.1h2.9l.4,.9s2-1,3.5-1,2.1,.6,2.4,1.2c.7-.4,2.6-1.2,4.1-1.2,4.4,0,4.3,3.6,3.5,7.2l-1.5,7h-3.1Z"/><path class="f" d="M415.1,103.3c-2.7,0-3.5,1.5-4,3.7-.4,2.2-.2,3.8,2.4,3.8s3.6-1.5,4.1-3.8c.5-2.1,.3-3.7-2.4-3.7h-.1Zm-2.3,10.9c-5.7,0-6.1-3.5-5.4-7.2,.8-3.7,2.8-7.2,8.5-7.2s6.2,3.5,5.4,7.2c-.8,3.8-2.8,7.2-8.5,7.2Z"/><path class="f" d="M430.8,106.1c.5-2.2,.3-2.6-.8-2.6h-1.7l-1.1,5.2-1.7,5.4h-3.2l2.6-12.2,.4-1.8h2.9l.4,.8s1.7-1,3.3-1c3.5,0,3.2,2.6,2.5,6.3h-3.6Z"/><path class="f" d="M443.1,103.1c-1.9,0-2.8,1-3.2,2.7l5.3-.4c.2-1.2,0-2.2-2.1-2.2h0Zm-3.7,5.1c-.2,1.7,.4,2.3,2.6,2.3h5.5l-.5,2.6s-3.3,.9-5.8,.9c-6.2,0-6.2-3.5-5.4-7.2,.8-3.6,2.2-7.3,8.2-7.3s6,3.5,4.6,8.6h-9.2Z"/><path class="f" d="M451.6,114.2c-1.4,0-2.3-.4-2-2.1s1.4-2.1,2.9-2.1,2.3,.4,1.9,2.1-1.5,2.1-2.8,2.1Z"/></g></g></svg>