<?xml version="1.0" encoding="UTF-8"?><svg id="b" xmlns="http://www.w3.org/2000/svg" viewBox="0 0 1859.5 800"><defs><style>.d{fill:#fff;}.e{fill:#f6901e;}.f{fill:#007497;}</style></defs><g id="c"><g><path class="d" d="M504.2,631.3c0,17.5-5.8,32.4-16.5,42.5-13.8,13-34.2,18.8-58.1,18.8s-10.1-.3-13.8-.8v64h-40.1v-176.5c12.4-2.1,30-3.7,54.7-3.7s42.7,4.8,54.7,14.3c11.4,9,19.1,23.9,19.1,41.4Zm-40.1,1.1c0-16.5-11.4-26.3-31.6-26.3s-13.8,.8-16.7,1.6v52.8c3.4,.8,7.7,1.1,13.5,1.1,21.5,0,34.8-10.9,34.8-29.2Z"/><path class="d" d="M341.2,583l-9,32.6c-7.2-3.4-19.9-8.5-37.4-8.5s-26,8-26,17.2,10.1,16.5,33.2,25.2c31.6,11.7,46.4,28.1,46.4,53.4,0,30-23.1,55.5-72.2,55.5s-40.6-5.3-50.7-10.9l8.2-33.4c10.9,5.6,27.6,11.1,44.8,11.1s28.4-7.7,28.4-19.4-8.5-17.5-30-25.2c-29.7-10.3-49.1-26.8-49.1-52.8s25.5-53.9,67.7-53.9,35,4.2,45.6,9Z"/><path class="d" d="M198.8,576.9v113.1c0,50.9-24.4,68.7-63.7,68.7s-21.5-1.6-29.5-4.2l4.5-32.6c5.6,1.8,12.7,3.2,20.7,3.2,17,0,27.6-7.7,27.6-35.5v-112.5h40.3Z"/><path class="e" d="M580.4,193.5V768.6c0,17.3-14.1,31.4-31.4,31.4H31.4c-17.3,0-31.4-14.1-31.4-31.4V31.4C0,14.1,14.1,0,31.4,0H410.5c1.2,0,2.4,.2,3.6,.4,.3,0,.5,.2,.8,.3,1.1,.3,2.1,.8,3.1,1.3,.4,.2,.7,.4,1,.6,1.1,.7,2.2,1.6,3.1,2.6,0,0,.1,0,.1,.1l154.3,176.2c2.5,2.9,3.7,6.5,3.7,10.2,0,.6,.2,1.2,.2,1.8Zm-31.4,339.2V207.6h-138.6c-8.7,0-15.7-7-15.7-15.7V31.4H31.4v501.3H549Zm-61.3,141.1c10.6-10.1,16.5-25,16.5-42.5s-7.7-32.4-19.1-41.4c-11.9-9.6-29.7-14.3-54.7-14.3s-42.2,1.6-54.7,3.7v176.5h40.1v-64c3.7,.5,8.5,.8,13.8,.8,23.9,0,44.3-5.8,58.1-18.8Zm-155.5-58.1l9-32.6c-10.6-4.8-25.5-9-45.6-9-42.2,0-67.7,23.4-67.7,53.9s19.4,42.5,49.1,52.8c21.5,7.7,30,14.1,30,25.2s-9.8,19.4-28.4,19.4-34-5.6-44.8-11.1l-8.2,33.4c10.1,5.6,30.2,10.9,50.7,10.9,49.1,0,72.2-25.5,72.2-55.5,0-25.2-14.9-41.7-46.4-53.4-23.1-8.7-33.2-13.8-33.2-25.2s8.5-17.2,26-17.2,30.2,5.1,37.4,8.5Zm-133.5,74.3v-113.1h-40.3v112.5c0,27.9-10.6,35.5-27.6,35.5s-15.1-1.3-20.7-3.2l-4.5,32.6c8,2.6,20.2,4.2,29.5,4.2,39.3,0,63.7-17.8,63.7-68.7Z"/><path class="e" d="M432.5,606.1c20.2,0,31.6,9.8,31.6,26.3,0,18.3-13.3,29.2-34.8,29.2s-10.1-.3-13.5-1.1v-52.8c2.9-.8,8.5-1.6,16.7-1.6Z"/><path class="d" d="M392.7,322.7c3.1,19.5-40.6,48.4-40.6,48.4,0,0,68.8-13.9,62.4-49.1-7.8-42.9-57-18.8-57-18.8,0,0,32,0,35.1,19.5Zm2.1-130.8c0,8.7,7,15.7,15.7,15.7h138.5v325.1s-517.6,0-517.6,0V31.4H394.8V191.9Zm-7.3,223.8c.2,.2,3,3.8-1,7.8-4.2,4.2-42.2,14.6-103.1,17.7-60.9,3.2-127-5.7-129.1-13.5-2-7.8,33.9-14,33.9-14-4.1,.5-54.1,1.6-55.7,15.1-1.5,13.5,21.9,24.4,115.6,24.4s134.8-17.2,141.6-24.4c6.6-7.1-1.7-12.8-2.1-13Zm-200.3,46.8s81.2,19.2,173.8,3.1c44.3-7.7,46.9-29.2,46.9-29.2,0,0-13.6,14.6-54.7,22.9-41.1,8.3-166,3.1-166,3.1Zm83.8-230.3c0,31.2,19.5,41.4,22.6,51.5,3.1,10.2-5.4,27.3-5.4,27.3,0,0,28.1-19.5,23.4-42.2-4.7-22.7-26.6-29.7-14.1-52.3,8.2-14.9,44.1-42.1,45.3-42.9-1.6,.6-71.8,27.7-71.8,58.5Zm-7.1,64.8s-21.1-40.6-20.3-70.3c.6-21.2,48.4-42.2,67.2-72.6,18.7-30.4-2.4-60.1-2.4-60.1,0,0,4.7,21.9-7.8,44.5-12.5,22.6-58.6,35.9-76.5,74.9-17.9,39,39.8,83.6,39.8,83.6Zm-100.7,18.7c-4.7,14.1,26.6,24.9,92.9,22.5,74.1-2.6,82.8-16.6,90.5-23.3-42.9,11.7-156.9,10.9-157.7,2.3-.8-8.6,35.1-15.6,35.1-15.6,0,0-56.2,0-60.9,14.1Zm74.9,59.3c39.2,2.7,83.1-11.7,83.1-11.7l13.5-10.9s-30.9,4.3-55.2,7c-32.5,3.7-71.8,.8-74.9-4.7-3-5.3,5.1-8.4,5.5-8.6-39,9.4-17.7,25.7,28.1,28.9Zm78.1,22.4l12.7-9.6c-34.1,4.4-36.7,5.6-56,6.2-19.4,.6-53.4,1.8-55-1.8-1.6-3.7,1.6-5.7,1.6-5.7,0,0-17.7,.5-18.7,9.9-1,9.3,5.5,14.1,49.3,13,52.1-1.2,60.8-7.4,66.2-12Z"/><path class="f" d="M407.8,436.4s-2.6,21.4-46.9,29.2c-92.6,16.1-173.8-3.1-173.8-3.1,0,0,124.9,5.2,166-3.1,41.1-8.3,54.7-22.9,54.7-22.9Z"/><path class="f" d="M132.4,428.7c1.6-13.5,51.6-14.6,55.7-15.1,0,0-35.9,6.2-33.9,14,2.1,7.8,68.2,16.7,129.1,13.5,60.9-3.1,98.9-13.5,103.1-17.7,4-4,1.2-7.6,1-7.8,.4,.2,8.7,5.9,2.1,13-6.7,7.2-47.9,24.4-141.6,24.4s-117.1-10.9-115.6-24.4Z"/><path class="f" d="M357.6,303.2s49.2-24.2,57,18.8c6.4,35.3-62.4,49.1-62.4,49.1,0,0,43.7-28.9,40.6-48.4-3.1-19.5-35.1-19.5-35.1-19.5Z"/><path class="f" d="M224.1,301.6s-35.9,7-35.1,15.6c.8,8.6,114.8,9.4,157.7-2.3-7.7,6.7-16.4,20.7-90.5,23.3-66.3,2.3-97.6-8.5-92.9-22.5,4.7-14.1,60.9-14.1,60.9-14.1Z"/><path class="f" d="M328.9,387.9l-12.7,9.6c-5.4,4.5-14.1,10.7-66.2,12-43.8,1-50.3-3.7-49.3-13,1-9.4,18.7-9.9,18.7-9.9,0,0-3.1,2.1-1.6,5.7,1.6,3.6,35.6,2.4,55,1.8,19.3-.6,21.9-1.8,56-6.2Z"/><path class="e" d="M311.5,268.9c4.7,22.7-23.4,42.2-23.4,42.2,0,0,8.6-17.2,5.4-27.3-3.1-10.1-22.6-20.3-22.6-51.5s70.2-57.9,71.8-58.5c-1.1,.8-37,28-45.3,42.9-12.5,22.6,9.4,29.6,14.1,52.3Z"/><path class="e" d="M243.6,226.7c-.8,29.7,20.3,70.3,20.3,70.3,0,0-57.8-44.5-39.8-83.6,17.9-39,64.1-52.3,76.5-74.9,12.5-22.6,7.8-44.5,7.8-44.5,0,0,21.1,29.7,2.4,60.1-18.8,30.4-66.6,51.4-67.2,72.6Z"/><path class="f" d="M210,346.2c-.4,.2-8.5,3.2-5.5,8.6,3.1,5.5,42.4,8.4,74.9,4.7,24.3-2.7,55.2-7,55.2-7l-13.5,10.9s-43.8,14.4-83.1,11.7c-45.8-3.2-67.1-19.5-28.1-28.9Z"/></g><g><path class="f" d="M1444.2,664.8V116.9l8.3-1.4c43.9-7.5,99.7-11.3,165.7-11.3s132.3,14.8,170.3,45.2c38.8,30.6,61.1,78.7,61.1,132s-18.6,102.5-52.5,134.7c-21.3,20.1-48.1,35.3-79.7,45.2-29.7,9.3-63.9,14.1-101.5,14.1s-22.2-.4-31.4-1.2v190.7h-140.2Zm140.2-304.1c7.7,1.1,17.4,1.5,30.6,1.5,59.1,0,94.3-29,94.3-77.5,0-44.4-30.1-68.8-84.7-68.8s-32.6,1.5-40.2,2.8v142Z"/><path class="d" d="M1618.2,114.2c74.9,0,128.2,14.3,164,43,34.3,27,57.3,71.6,57.3,124.2s-17.5,97.2-49.4,127.4c-41.5,39-102.7,56.5-174.4,56.5s-30.3-.8-41.4-2.4v191.8h-120.2V125.3c37.4-6.4,90-11.1,164-11.1m-3.2,257.9c64.5,0,104.3-32.7,104.3-87.5,0-49.3-34.3-78.8-94.7-78.8s-41.4,2.4-50.2,4.8v158.4c10.3,2.4,23,3.2,40.6,3.2m3.2-277.9c-66.6,0-122.9,3.8-167.3,11.4l-16.6,2.8V674.8h160.2v-190c6.6,.3,13.8,.5,21.4,.5,38.6,0,73.8-4.9,104.5-14.5,33.1-10.4,61.2-26.3,83.6-47.4h0s0,0,0,0c18-17.1,32-38.2,41.5-62.6,9.3-24.1,14.1-50.7,14.1-79.3s-6-55.5-17.7-80.2c-11.2-23.5-27.5-44.1-47.1-59.6-39.8-31.8-97.5-47.3-176.5-47.3h0Zm-23.8,133.1c7.2-.8,17.1-1.5,30.2-1.5,34.1,0,74.7,10.2,74.7,58.9,0,21-7,37.5-20.8,49-14.6,12.1-36.5,18.6-63.5,18.6s-14.9-.2-20.6-.6v-124.3h0Z"/></g><g><path class="f" d="M1155.6,672.8c-65.7,0-127.3-17.6-156.9-33.9l-6.7-3.7,29.5-120,11.2,5.8c14.8,7.6,67.9,32.3,130,32.3s75.2-17.6,75.2-48.2-13.3-41.1-83.3-66.2c-48.1-16.7-85.4-38.3-110.8-64-28.6-28.9-43.1-63.9-43.1-103.9s20.5-92,57.7-122.8c38.5-31.9,92.2-48.8,155.4-48.8s99.8,9.4,141,27.9l7.8,3.5-32.5,117.7-10.8-5.2c-34.3-16.5-69.6-24.5-107.9-24.5s-68,16.4-68,41.7,23.2,39.9,93,66.3c49.6,18.4,85.3,40.5,109.1,67.6,24.7,28.1,36.6,61.4,36.6,101.9,0,49.3-20.1,93.6-56.6,124.5-39.9,33.9-98.7,51.8-170,51.8Z"/><path class="d" d="M1213.8,109.4c60.5,0,105,12.7,136.9,27.1l-27.1,97.9c-21.5-10.3-59.7-25.5-112.3-25.5s-78,23.9-78,51.7,30.2,49.4,99.5,75.6c94.7,35,139.3,84.4,139.3,160.1,0,89.9-69.3,166.4-216.6,166.4s-121.8-15.9-152-32.7l24.7-100.3c32.6,16.7,82.8,33.4,134.5,33.4s85.2-23.1,85.2-58.2-25.5-52.5-89.9-75.6c-89.2-31-147.3-80.4-147.3-158.4s76.4-161.6,203-161.6m0-20c-65.5,0-121.4,17.7-161.8,51.1-39.5,32.8-61.3,79.1-61.3,130.5s15.5,80,46,110.9c26.5,26.8,65.1,49.1,114.7,66.4,31.4,11.2,51.4,21,63.1,30.5,11.2,9.2,13.5,17.1,13.5,26.2s-4.3,19.6-13.3,25.9c-11.3,8-29.3,12.3-51.9,12.3-59.8,0-111.1-23.9-125.4-31.2l-22.5-11.5-6,24.5-24.7,100.3-3.7,14.9,13.4,7.4c17.3,9.6,42,18.3,69.6,24.6,30.2,6.9,62.1,10.6,92.1,10.6s72-4.8,102-14.3c29-9.1,54-22.6,74.5-39.9,19.8-16.8,35-37,45.3-60.1,9.9-22.2,14.9-46.4,14.9-72,0-21.1-3.2-40.9-9.6-58.7-6.5-18.1-16.4-34.8-29.5-49.7-24.9-28.4-61.9-51.4-113.2-70.4-33.5-12.7-57.1-22.5-71.3-32.5-12.7-8.9-15.2-15.9-15.2-24.4,0-19.3,22.8-31.7,58-31.7s70.6,7.7,103.6,23.5l21.6,10.3,6.4-23,27.1-97.9,4.6-16.5-15.6-7c-42.5-19.1-91.3-28.8-145.1-28.8h0Z"/></g><g><path class="f" d="M732.2,673.6c-30.4,0-68.1-5.5-91.5-13.3l-7.9-2.6,16.3-118,11.4,3.8c12.5,4.1,32.8,9,59,9,43.7,0,72.8-16.4,72.8-96.6V108.2h141V457.4c0,76.8-17.8,131.6-54.4,167.6-33.3,32.7-81.3,48.7-146.7,48.7Z"/><path class="d" d="M923.3,118.2V457.4c0,152.9-73.3,206.2-191.1,206.2s-64.5-4.8-88.4-12.8l13.6-97.9c16.7,5.5,38.2,9.5,62.1,9.5,50.9,0,82.8-23.1,82.8-106.6V118.2h121m20-20h-161V455.8c0,34.4-5.8,58.4-17.3,71.4-9.2,10.4-23.6,15.2-45.5,15.2s-44.1-4.6-55.8-8.5l-22.8-7.5-3.3,23.8-13.6,97.9-2.3,16.5,15.8,5.2c24.8,8.2,62.8,13.8,94.7,13.8s60.7-3.8,85.6-11.7c26.9-8.5,49.9-21.9,68.2-39.9,19.1-18.7,33.6-42.9,43.1-71.7,9.5-28.8,14.3-63.5,14.3-103V98.2h0Z"/></g></g></svg>