<?xml version="1.0" encoding="utf-8"?>
<!-- Generator: Adobe Illustrator 26.5.3, SVG Export Plug-In . SVG Version: 6.00 Build 0)  -->
<svg version="1.1" id="레이어_1" xmlns="http://www.w3.org/2000/svg" xmlns:xlink="http://www.w3.org/1999/xlink" x="0px"
	 y="0px" viewBox="0 0 2201.8 684.9" style="enable-background:new 0 0 2201.8 684.9;" xml:space="preserve">
<style type="text/css">
	.st0{fill:#FFFFFF;}
	.st1{fill:#00F2E6;}
	.st2{fill:#00B9F1;}
	.st3{fill:#D63AFF;}
	.st4{fill:#FB015B;}
	.st5{fill-rule:evenodd;clip-rule:evenodd;fill:#FFFFFF;}
</style>
<g>
	<path d="M426.6,198l0,9.8l-5.8,7.9L374,280.2l-24.2,33.3l-24.2-33.3l-46.9-64.4l-5.7-7.8l0-9.7l-0.6-168.1L272.1,0h30.1H396h29.9
		l0.1,29.9L426.6,198z M396.6,198.1L396,30h-93.8l0.6,168.1l46.9,64.4L396.6,198.1z"/>
	<path d="M426.6,654.9v30h-30h-93.8h-30v-30V486.2v-9.8l5.8-7.9l46.9-64.4l24.2-33.3l24.2,33.3l46.9,64.4l5.8,7.9v9.8V654.9z
		 M396.6,654.9V486.2l-46.9-64.4l-46.9,64.4v168.7H396.6z"/>
	<path d="M595.3,549.9l17.6,24.2l-24.2,17.6l-75.6,55l-24.3,17.7l-17.6-24.3l-98.8-136.3l-5.7-7.9v-9.7v-79.4v-41.2l39.2,12.7
		l75.6,24.4l9.3,3l5.8,7.9L595.3,549.9z M571,567.5l-98.8-136.3l-75.6-24.4v79.4l98.8,136.3L571,567.5z"/>
	<path d="M332.8,277.4v41.1L293.6,306l-76.2-24.4l-9.4-3l-5.8-8l-98.8-136.2l-17.6-24.2l24.2-17.6l75.6-55L210,19.9l17.7,24.2
		L327,180.4l5.8,7.9v9.8V277.4z M302.8,277.4v-79.3L203.4,61.8l-75.6,55L226.6,253L302.8,277.4z"/>
	<path d="M698.8,375.1l-9.3,28.5l-28.8,88.7l-9.3,28.5l-28.5-9.2l-160-51.9l-9.3-3l-5.7-7.9L401,384.5l-24.4-33.5l39.5-12.7
		l75.7-24.3l9.2-2.9l9.2,3l160,51.9L698.8,375.1z M632.2,483.1l28.8-88.7l-160-51.9l-75.7,24.3l46.9,64.4L632.2,483.1z"/>
	<path d="M297.7,299.8l24.2,33.2l-39,12.9l-75.6,25l-9.4,3.1l-9.4-3.1l-160-52.5L0,309.1l9.2-28.4l28.8-88.7l9.3-28.5l28.5,9.2
		l160,51.9l9.3,3l5.7,7.9L297.7,299.8z M273.4,317.4l-46.8-64.3l-160-51.9l-28.8,88.7l160,52.5L273.4,317.4z"/>
	<path d="M689.4,280.7l9.2,28.4l-28.4,9.3l-160,52.5l-9.4,3.1l-9.4-3.1l-75.7-24.9l-39.1-12.9l24.2-33.3l46.9-64.4l5.7-7.9l9.3-3
		l160-51.9l28.5-9.2l9.3,28.5L689.4,280.7z M660.9,290l-28.8-88.7l-160,51.9l-46.9,64.4l75.7,24.9L660.9,290z"/>
	<path d="M322.2,350.9l-24.4,33.5l-46.9,64.4l-5.7,7.9l-9.3,3l-160,51.9l-28.5,9.2l-9.3-28.5L9.3,403.7L0,375.1l28.5-9.3l160-51.9
		l9.2-3l9.2,2.9l75.7,24.3L322.2,350.9z M226.6,431.2l46.9-64.4l-75.7-24.3l-160,51.9l28.8,88.7L226.6,431.2z"/>
	<path d="M612.9,110.2l-17.6,24.2l-98.8,136.3l-5.8,8l-9.4,3L405.8,306l-39.2,12.6v-41.1V198v-9.7l5.7-7.9l98.8-136.2l17.6-24.3
		L513,37.5l75.6,55L612.9,110.2z M472.2,253.1L571,116.8l-75.6-55L396.6,198v79.4L472.2,253.1z"/>
	<path d="M332.8,486.2v9.8l-5.8,7.9l-99.4,136.3L210,664.4l-24.2-17.6l-75.6-55l-24.2-17.6l17.6-24.2l98.8-136.3l5.8-8l9.4-3
		l76.2-24.4l39.1-12.5v41.1V486.2z M302.8,486.2v-79.4l-76.2,24.4l-98.8,136.3l75.6,55L302.8,486.2z"/>
	<g>
		<g id="XMLID_00000011721253577118176810000003179959028689387699_">
			<g>
				<polygon class="st0" points="396.6,486.2 396.6,654.9 302.8,654.9 302.8,486.2 349.7,421.8 				"/>
				<polygon class="st0" points="396,30 396.6,198.1 349.7,262.5 302.8,198.1 302.2,30 				"/>
			</g>
		</g>
	</g>
	<g>
		<g id="XMLID_00000174578048535723677700000000212904089781471876_">
			<g>
				<polygon class="st1" points="472.2,431.2 571,567.5 495.4,622.5 396.6,486.2 396.6,406.8 				"/>
				<polygon class="st1" points="302.8,198.1 302.8,277.4 226.6,253 127.8,116.8 203.4,61.8 				"/>
			</g>
		</g>
	</g>
	<g>
		<g id="XMLID_00000160164255585025920060000015520004531505379500_">
			<g>
				<polygon class="st2" points="661,394.4 632.2,483.1 472.2,431.2 425.3,366.8 501,342.5 				"/>
				<polygon class="st2" points="226.6,253.1 273.4,317.4 197.8,342.4 37.8,289.9 66.6,201.2 				"/>
			</g>
		</g>
	</g>
	<g>
		<g id="XMLID_00000078755319921558068510000001104984818869330611_">
			<g>
				<polygon class="st3" points="632.1,201.3 660.9,290 500.9,342.5 425.2,317.6 472.1,253.2 				"/>
				<polygon class="st3" points="273.5,366.8 226.6,431.2 66.6,483.1 37.8,394.4 197.8,342.5 				"/>
			</g>
		</g>
	</g>
	<g>
		<g id="XMLID_00000163057285939855830660000014267648276555134619_">
			<g>
				<polygon class="st4" points="571,116.8 472.2,253.1 396.6,277.4 396.6,198 495.4,61.8 				"/>
				<polygon class="st4" points="302.8,406.8 302.8,486.2 203.4,622.5 127.8,567.5 226.6,431.2 				"/>
			</g>
		</g>
	</g>
	<g>
		<path class="st5" d="M1920.6,594.7V200.9h-147.1V90.4h405.9v110.5h-148v393.8H1920.6z M1532.2,594.7c-84.8,0-153.8-69-153.8-153.7
			V244c0-24.2-19-43.2-43.2-43.2c-24.2,0-43.2,19-43.2,43.2v196.8c0,84.8-69,153.7-153.8,153.7s-153.8-69-153.8-153.7V90.2h110.7
			v350.7c0,24.2,19,43.2,43.2,43.2c24.2,0,43.2-19,43.2-43.2V244c0-84.8,69-153.8,153.8-153.8s153.8,69,153.8,153.8v196.8
			c0,24.2,19,43.2,43.2,43.2s43.2-19,43.2-43.2V90.2H1686v350.7C1686,525.7,1617,594.7,1532.2,594.7z M716.8,594.5V483.8h22.5
			c24.2,0,43.2-19,43.2-43.2V90.2h110.6v350.6c0,84.8-69,153.7-153.8,153.7H716.8z"/>
		<path d="M1663.5,112.7v328.2c0,72.1-59.1,131.2-131.2,131.2c-72.2,0-131.2-59.1-131.2-131.2V244c0-36.6-29.1-65.7-65.7-65.7
			c-36.6,0-65.7,29.1-65.7,65.7v196.8c0,72.1-59.1,131.2-131.2,131.2c-72.1,0-131.2-59.1-131.2-131.2V112.7h65.7v328.2
			c0,36.6,29.1,65.7,65.7,65.7c36.6,0,65.7-29.1,65.7-65.7V244c0-72.1,59.1-131.2,131.2-131.2c72.2,0,131.2,59.1,131.2,131.2v196.8
			c0,36.6,29.1,65.7,65.7,65.7c36.6,0,65.7-29.1,65.7-65.7V112.7H1663.5 M870.6,112.7v328.1c0,72.1-59.1,131.2-131.2,131.2v-65.7
			c36.6,0,65.7-29.1,65.7-65.7V112.7H870.6 M2156.8,112.9v65.5h-148v393.8h-65.7V178.4h-147.1v-65.5H2156.8 M1708.5,67.7h-45h-65.4
			h-45v45v328.1c0,11.8-8.9,20.7-20.7,20.7s-20.7-8.9-20.7-20.7V244c0-46.9-18.4-91.1-51.7-124.5c-33.4-33.4-77.6-51.7-124.5-51.7
			s-91.1,18.4-124.5,51.7c-33.4,33.4-51.7,77.6-51.7,124.5v197c0,11.8-8.9,20.7-20.7,20.7c-11.8,0-20.7-8.9-20.7-20.7V112.7v-45h-45
			h-65.7h-45v45v328.1c0,46.9,18.4,91.1,51.7,124.5c33.4,33.4,77.6,51.7,124.5,51.7s91.1-18.4,124.5-51.7
			c33.4-33.4,51.7-77.6,51.7-124.5V244c0-11.8,8.9-20.7,20.7-20.7c11.8,0,20.7,8.9,20.7,20.7v197c0,46.9,18.4,91.1,51.7,124.5
			c33.4,33.4,77.6,51.7,124.5,51.7c46.9,0,91.1-18.4,124.5-51.7c33.4-33.4,51.7-77.6,51.7-124.5V112.7V67.7L1708.5,67.7z
			 M915.6,67.7h-45H805h-45v45v327.9c0,11.8-8.9,20.7-20.7,20.7h-45v45V572v45h45c46.9,0,91.1-18.4,124.5-51.7
			c33.4-33.4,51.7-77.6,51.7-124.5V112.7V67.7L915.6,67.7z M2201.8,67.9h-45h-360.9h-45v45v65.5v45h45h102.1v348.8v45h45h65.7h45
			v-45V223.4h103h45v-45v-65.5V67.9L2201.8,67.9z"/>
	</g>
</g>
</svg>
