<?xml version="1.0" encoding="UTF-8"?><svg id="b" xmlns="http://www.w3.org/2000/svg" xmlns:xlink="http://www.w3.org/1999/xlink" viewBox="0 0 93 21.7"><defs><style>.e{fill:#fff;}.f{fill:url(#d);}</style><radialGradient id="d" cx="12.9" cy="-78.1" fx="12.9" fy="-78.1" r="21.7" gradientTransform="translate(5.9 -83.1) scale(1.1 -1.1)" gradientUnits="userSpaceOnUse"><stop offset="0" stop-color="#e44857"/><stop offset=".5" stop-color="#c711e1"/><stop offset="1" stop-color="#7f52ff"/></radialGradient></defs><g id="c"><path class="e" d="M87.5,6c-1.2,0-2.2,.3-3.1,.9-.7,.5-1.3,1.1-1.7,1.8v-2.3h-3.1v15h3.2V13c0-.8,.2-1.5,.5-2.2,.3-.6,.7-1.1,1.3-1.5,.6-.3,1.2-.5,2-.5s1.3,.1,1.7,.4c.5,.3,.8,.7,1.1,1.2,.2,.5,.4,1.2,.4,1.9v9h3.2V11.9c0-1.2-.2-2.2-.7-3.1-.4-.9-1.1-1.6-1.9-2.1-.8-.5-1.8-.8-2.9-.8h0Z"/><path class="e" d="M72.7,0V3.3h3.3V0h-3.3Zm0,6.3v15h3.2V6.3h-3.2Z"/><path class="e" d="M65.8,0V21.4h3.2V0h-3.2Z"/><path class="e" d="M56.7,2.6v2.6c0,.4,0,.7-.3,.9s-.5,.3-.9,.3h-1.6v2.7h2.7v8.1c0,.8,.2,1.6,.5,2.2,.3,.6,.8,1.1,1.5,1.5,.6,.3,1.4,.5,2.2,.5h2.4v-2.8h-1.8c-.5,0-.8-.2-1.2-.5-.3-.3-.4-.8-.4-1.3v-7.7h3.5v-2.7h-3.5V2.6h-3.2Z"/><path class="e" d="M45.5,6c-1.5,0-2.8,.3-4,1-1.2,.7-2.1,1.6-2.8,2.8-.7,1.2-1,2.6-1,4.1s.3,2.9,1,4.1c.6,1.2,1.6,2.1,2.7,2.8,1.2,.7,2.5,1,4,1s2.8-.3,4-1c1.2-.7,2.1-1.6,2.7-2.8,.7-1.2,1-2.6,1-4.1s-.3-2.9-1-4.1c-.7-1.2-1.6-2.1-2.7-2.8-1.2-.7-2.5-1-4-1Zm0,2.9c.8,0,1.6,.2,2.2,.6,.7,.4,1.2,1,1.5,1.7,.4,.7,.5,1.6,.5,2.6,0,1-.2,1.8-.5,2.6-.4,.7-.9,1.3-1.5,1.7-.7,.4-1.4,.6-2.3,.6s-1.6-.2-2.3-.6c-.7-.4-1.2-1-1.6-1.7-.4-.7-.6-1.6-.6-2.6s.2-1.8,.6-2.6c.4-.7,.9-1.3,1.6-1.7,.7-.4,1.4-.6,2.3-.6h0Z"/><path class="e" d="M34.2,.8l-8.9,9.5V.8h-3.3V21.4h3.3V11.4l8.9,10h4.2l-9.5-10.6L38.3,.8h-4.1Z"/><path class="f" d="M20.6,21.4H0V.8H20.6L10.1,10.9l10.5,10.4Z"/></g></svg>