<?xml version="1.0" encoding="utf-8"?>
<!-- Generator: Adobe Illustrator 26.5.3, SVG Export Plug-In . SVG Version: 6.00 Build 0)  -->
<svg version="1.1" id="Ebene_1" xmlns="http://www.w3.org/2000/svg" xmlns:xlink="http://www.w3.org/1999/xlink" x="0px" y="0px"
	 viewBox="0 0 967.2 967.2" style="enable-background:new 0 0 967.2 967.2;" xml:space="preserve">
<style type="text/css">
	.st0{fill:#000080;}
	.st1{fill:#FFFFFF;}
	.st2{fill:#808080;}
</style>
<g>
	<g>
		<path class="st0" d="M483.6,850.7c-49.5,0-97.6-9.7-142.8-28.9c-43.7-18.5-82.9-45-116.7-78.7c-33.7-33.7-60.2-73-78.7-116.7
			c-19.2-45.2-28.9-93.3-28.9-142.8s9.7-97.6,28.9-142.8c18.5-43.7,45-82.9,78.7-116.7c33.7-33.7,73-60.2,116.7-78.7
			c45.2-19.2,93.3-28.9,142.8-28.9s97.6,9.7,142.8,28.9c43.7,18.5,82.9,45,116.7,78.7c33.7,33.7,60.2,73,78.7,116.7
			c19.2,45.2,28.9,93.3,28.9,142.8s-9.7,97.6-28.9,142.8c-18.5,43.7-45,82.9-78.7,116.7c-33.7,33.7-73,60.2-116.7,78.7
			C581.1,841,533.1,850.7,483.6,850.7z"/>
		<path class="st1" d="M483.6,121.7c199.8,0,362,162.2,362,362s-162.2,362-362,362s-362-162.2-362-362S283.8,121.7,483.6,121.7
			 M483.6,111.7c-50.2,0-98.9,9.8-144.8,29.3c-44.3,18.7-84.1,45.6-118.2,79.7c-34.2,34.2-61,74-79.7,118.2
			c-19.4,45.9-29.3,94.6-29.3,144.8c0,50.2,9.8,98.9,29.3,144.8c18.7,44.3,45.6,84.1,79.7,118.2c34.2,34.2,74,61,118.2,79.7
			c45.9,19.4,94.6,29.3,144.8,29.3s98.9-9.8,144.8-29.3c44.3-18.7,84.1-45.6,118.2-79.7c34.2-34.2,61-74,79.7-118.2
			c19.4-45.9,29.3-94.6,29.3-144.8c0-50.2-9.8-98.9-29.3-144.8c-18.7-44.3-45.6-84.1-79.7-118.2c-34.2-34.2-74-61-118.2-79.7
			C582.5,121.5,533.8,111.7,483.6,111.7L483.6,111.7z"/>
	</g>
	<g>
		<path class="st1" d="M739.6,333.7c0-58.5-47.5-106-106-106s-106,47.5-106,106s47.5,106,106,106S739.6,392.2,739.6,333.7"/>
	</g>
	<g>
		<circle class="st0" cx="845.6" cy="121.6" r="111"/>
		<path class="st1" d="M845.6,15.6c58.5,0,106,47.5,106,106c0,58.6-47.5,106-106,106s-106-47.5-106-106S787.1,15.6,845.6,15.6
			 M845.6,5.6c-64,0-116,52-116,116s52,116,116,116c31,0,60.1-12.1,82-34c21.9-21.9,34-51,34-82C961.6,57.6,909.5,5.6,845.6,5.6
			L845.6,5.6z"/>
	</g>
	<g>
		<g>
			<path class="st1" d="M268.2,637.9h117.3v26.7H237.9V427.1h30.3V637.9z"/>
		</g>
		<g>
			<path class="st1" d="M525.6,664.6v-23.8c-16,22.5-31.9,31.3-57,31.3c-33.2,0-54.4-18.2-54.4-46.6V493.9h27v120.9
				c0,20.5,13.7,33.6,35.2,33.6c28.3,0,46.6-22.8,46.6-57.7v-96.8h27v170.7H525.6z"/>
		</g>
		<g>
			<path class="st1" d="M748.5,669.2c-8.8,2.3-13,2.9-18.6,2.9c-17.6,0-26.1-7.8-28-25.1c-19.2,17.6-36.5,25.1-58,25.1
				c-34.5,0-56-19.5-56-50.5c0-22.2,10.1-37.5,30-45.6c10.4-4.2,16.3-5.5,54.7-10.4c21.5-2.6,28.3-7.5,28.3-18.9v-7.2
				c0-16.3-13.7-25.4-38.1-25.4c-25.4,0-37.8,9.4-40.1,30.3h-27.4c0.7-16.9,3.9-26.7,11.7-35.5c11.4-12.7,31.9-19.9,56.7-19.9
				c42,0,64.2,16.3,64.2,46.6V636c0,8.5,5.2,13.4,14.7,13.4c1.6,0,2.9,0,5.9-0.7L748.5,669.2L748.5,669.2z M700.9,580.2
				c-9.1,4.2-15,5.5-43.7,9.4c-29,4.2-41.1,13.4-41.1,31.3c0,17.3,12.4,27.4,33.6,27.4c16,0,29.3-5.2,40.4-15.3
				c8.1-7.5,10.8-13,10.8-22.2V580.2z"/>
		</g>
	</g>
	<g>
		<g>
			<path class="st2" d="M494.8,941.1l5-0.2c13.3-0.5,26.7-1.5,39.8-3.1l5-0.6l2.5,20.7l-5,0.6c-13.7,1.7-27.7,2.8-41.6,3.3l-5,0.2
				L494.8,941.1z M458.8,961.5c-13.9-0.7-27.8-2-41.5-3.9l-5-0.7l2.9-20.7l5,0.7c13.1,1.8,26.5,3.1,39.7,3.8l5,0.3l-1.1,20.8
				L458.8,961.5z M574.1,932.3l4.9-1c13-2.8,26-6.1,38.6-10l4.8-1.5l6.1,19.9l-4.8,1.5c-13.2,4.1-26.8,7.6-40.4,10.5l-4.9,1
				L574.1,932.3z M376.2,950c-13.5-3.1-27-6.8-40.2-11.1l-4.8-1.5l6.4-19.8l4.8,1.5c12.6,4.1,25.5,7.7,38.5,10.6l4.9,1.1l-4.7,20.3
				L376.2,950z M650.6,909.8l4.6-1.9c12.3-5,24.5-10.6,36.3-16.6l4.5-2.3l9.5,18.6l-4.5,2.3c-12.3,6.3-25.1,12.1-37.9,17.3l-4.6,1.9
				L650.6,909.8z M296.9,924.3c-12.8-5.4-25.4-11.5-37.7-18l-4.4-2.3l9.8-18.4l4.4,2.3c11.7,6.2,23.8,12,36,17.2l4.6,2l-8.2,19.2
				L296.9,924.3z M722,874.3l4.2-2.7c11.2-7,22.3-14.6,32.9-22.6l4-3l12.6,16.6l-4,3c-11.1,8.4-22.6,16.3-34.4,23.7L733,892
				L722,874.3z M223.2,885.1c-11.6-7.6-23.1-15.7-34-24.2l-3.9-3.1l12.8-16.4l3.9,3.1c10.5,8.2,21.4,16,32.5,23.2l4.2,2.7
				l-11.4,17.5L223.2,885.1z M786.1,826.9l3.7-3.3c9.9-8.9,19.4-18.3,28.5-28l3.4-3.7l15.3,14.2l-3.4,3.7
				c-9.4,10.1-19.5,20-29.8,29.3l-3.7,3.3L786.1,826.9z M157.5,833.7c-10.1-9.4-20-19.4-29.3-29.7l-3.3-3.7l15.5-14l3.4,3.7
				c8.9,9.8,18.3,19.4,28,28.5l3.7,3.4l-14.2,15.3L157.5,833.7z M841.2,769.2l3.1-3.9c8.2-10.5,16-21.4,23.2-32.5l2.7-4.2l17.5,11.4
				l-2.7,4.2c-7.6,11.6-15.7,23-24.3,34l-3.1,3.9L841.2,769.2z M101.7,771.8c-8.4-11.1-16.3-22.6-23.7-34.3l-2.7-4.2L93,722.2
				l2.7,4.2c7,11.2,14.7,22.3,22.7,32.9l3,4l-16.6,12.6L101.7,771.8z M885.4,702.8l2.4-4.4c6.2-11.7,12-23.8,17.2-36l2-4.6l19.2,8.2
				l-2,4.6c-5.4,12.8-11.5,25.4-18,37.7l-2.4,4.4L885.4,702.8z M57.3,701.2C51,688.9,45.2,676.1,40,663.3l-1.9-4.6l19.3-7.8l1.9,4.6
				c5,12.3,10.6,24.5,16.6,36.3l2.3,4.5l-18.6,9.5L57.3,701.2z M917.4,629.7l1.5-4.8c4.1-12.6,7.7-25.5,10.6-38.5l1.1-4.9l20.3,4.7
				l-1.1,4.9c-3.1,13.5-6.9,27-11.1,40.2l-1.5,4.8L917.4,629.7z M26,624c-4.1-13.3-7.6-26.8-10.5-40.4l-1-4.9l20.4-4.3l1,4.9
				c2.8,13,6.1,26,10,38.6l1.5,4.8l-19.9,6.1L26,624z M936.2,552.2l0.7-5c1.8-13.1,3.1-26.5,3.8-39.7l0.3-5l20.8,1.1l-0.3,5
				c-0.7,13.9-2,27.8-4,41.5l-0.7,5L936.2,552.2z M8.6,542.4c-1.7-13.7-2.8-27.7-3.3-41.6l-0.2-5l20.8-0.7l0.2,5
				c0.5,13.3,1.5,26.7,3.1,39.8l0.6,5l-20.7,2.5L8.6,542.4z M941,467.6c-0.5-13.3-1.5-26.6-3.1-39.8l-0.6-5l20.7-2.5l0.6,5
				c1.7,13.8,2.8,27.8,3.3,41.6l0.2,5l-20.8,0.7L941,467.6z M5.4,464.1l0.3-5c0.7-13.9,2-27.8,3.9-41.5l0.7-5l20.7,2.9l-0.7,5
				c-1.8,13.1-3.1,26.5-3.7,39.7l-0.3,5L5.4,464.1z M931.2,388.4c-2.8-13-6.1-26-10-38.7l-1.5-4.8l20-6.1l1.5,4.8
				c4.1,13.3,7.6,26.9,10.4,40.4l1,4.9l-20.4,4.3L931.2,388.4z M16,381.4l1.1-4.9c3.1-13.5,6.8-27.1,11.1-40.2l1.5-4.8l19.8,6.4
				l-1.5,4.8c-4.1,12.6-7.6,25.5-10.6,38.5l-1.1,4.9L16,381.4z M907.9,312.1c-5-12.3-10.5-24.5-16.5-36.3l-2.3-4.5l18.6-9.5l2.3,4.5
				c6.3,12.4,12.1,25.1,17.3,38l1.9,4.6l-19.3,7.8L907.9,312.1z M40.8,301.7l2-4.6c5.4-12.8,11.4-25.4,18-37.7l2.3-4.4l18.4,9.8
				l-2.3,4.4c-6.2,11.7-12,23.8-17.2,36l-2,4.6L40.8,301.7z M79.2,227.7l2.7-4.2c7.5-11.6,15.7-23.1,24.2-34l3.1-3.9l16.4,12.8
				l-3.1,3.9c-8.2,10.5-16,21.4-23.2,32.5l-2.7,4.2L79.2,227.7z M129.8,161.4l3.4-3.7c9.4-10.1,19.4-20,29.7-29.3l3.7-3.4l14,15.5
				l-3.7,3.4c-9.8,8.9-19.4,18.3-28.4,28l-3.4,3.7L129.8,161.4z M191.1,104.8l4-3c11.1-8.4,22.6-16.3,34.3-23.7l4.2-2.7l11.1,17.7
				l-4.2,2.7c-11.2,7.1-22.3,14.7-32.8,22.7l-4,3L191.1,104.8z M697.8,79.1c-11.7-6.2-23.9-12-36.1-17.1l-4.6-1.9l8.1-19.2l4.6,1.9
				c12.8,5.4,25.5,11.4,37.7,17.9l4.4,2.3l-9.8,18.4L697.8,79.1z M261.2,59.7l4.4-2.3c12.3-6.3,25.1-12.2,37.9-17.4l4.6-1.9
				l7.9,19.3l-4.6,1.9C299.2,64.4,287,70,275.2,76l-4.4,2.3L261.2,59.7z M624.3,48c-12.6-4.1-25.6-7.6-38.5-10.6l-4.9-1.1l4.7-20.3
				l4.9,1.1c13.5,3.1,27.1,6.8,40.2,11.1l4.8,1.5L629,49.6L624.3,48z M338.2,27.5l4.8-1.5c13.2-4.1,26.8-7.6,40.4-10.5l4.9-1
				l4.4,20.4l-4.9,1c-13,2.8-26,6.1-38.6,10l-4.8,1.5L338.2,27.5z M546.5,30.2c-13.1-1.8-26.5-3.1-39.7-3.8l-5-0.3l1.1-20.8l5,0.3
				c13.8,0.7,27.8,2,41.6,3.9l5,0.7l-2.9,20.7L546.5,30.2z M419.5,9.3l5-0.6c13.7-1.7,27.7-2.8,41.6-3.3l5-0.2l0.8,20.8l-5,0.2
				c-13.3,0.5-26.7,1.5-39.8,3.2l-5,0.6L419.5,9.3z"/>
			<path class="st1" d="M466.3,10.4l0.4,10.9c-13.4,0.5-26.9,1.6-40.2,3.2l-1.3-10.8C438.7,11.9,452.5,10.8,466.3,10.4 M507.6,10.6
				c13.7,0.7,27.5,2,41.1,3.9l-1.5,10.8c-13.3-1.8-26.8-3.1-40.2-3.8L507.6,10.6 M384.4,20.5l2.3,10.6c-13.1,2.8-26.2,6.2-39,10.1
				l-3.2-10.4C357.5,26.8,371,23.3,384.4,20.5 M589.3,22c13.4,3.1,26.8,6.7,39.8,11l-3.3,10.3c-12.8-4.1-25.8-7.7-38.9-10.7
				L589.3,22 M305.5,44.7l4.1,10.1c-12.4,5-24.7,10.7-36.7,16.8l-5-9.7C280.2,55.7,292.8,49.9,305.5,44.7 M667.9,47.3
				c12.6,5.3,25.2,11.3,37.3,17.7l-5.1,9.6c-11.8-6.3-24.1-12.1-36.5-17.3L667.9,47.3 M232.1,82.3l5.8,9.2
				c-11.3,7.1-22.5,14.8-33.2,22.9l-6.6-8.7C209,97.5,220.5,89.6,232.1,82.3 M166.3,132.1l7.3,8.1c-9.9,9-19.6,18.5-28.7,28.3
				l-8-7.4C146.2,151.1,156.1,141.3,166.3,132.1 M110.1,192.6l8.6,6.7c-8.3,10.6-16.1,21.6-23.4,32.9l-9.1-5.9
				C93.6,214.7,101.6,203.4,110.1,192.6 M65.1,261.8l9.6,5.1c-6.3,11.8-12.1,24.1-17.4,36.4l-10-4.2
				C52.7,286.5,58.7,273.9,65.1,261.8 M905.5,268.6c6.2,12.2,12,24.9,17.1,37.6l-10.1,4.1c-5-12.4-10.6-24.8-16.7-36.7L905.5,268.6
				 M32.9,337.8l10.3,3.3c-4.1,12.7-7.7,25.8-10.7,38.9L22,377.6C25,364.2,28.7,350.8,32.9,337.8 M936.4,345.1
				c4,13.1,7.5,26.6,10.3,40l-10.6,2.3c-2.8-13.1-6.2-26.3-10.1-39.1L936.4,345.1 M14.5,418.2l10.8,1.5c-1.8,13.2-3.1,26.8-3.8,40.2
				l-10.8-0.5C11.3,445.6,12.7,431.8,14.5,418.2 M953.6,425.9c1.7,13.6,2.8,27.5,3.2,41.2l-10.9,0.4c-0.5-13.4-1.5-26.9-3.2-40.2
				L953.6,425.9 M21.2,500.2c0.5,13.4,1.5,26.9,3.2,40.2l-10.8,1.3c-1.7-13.6-2.8-27.4-3.2-41.2L21.2,500.2 M945.6,507.8l10.8,0.6
				c-0.7,13.7-2,27.5-3.9,41.1l-10.8-1.5C943.6,534.7,944.9,521.2,945.6,507.8 M31,580.3c2.8,13.1,6.2,26.2,10.1,39.1l-10.4,3.2
				c-4-13.1-7.5-26.6-10.4-40L31,580.3 M934.5,587.6l10.6,2.4c-3.1,13.4-6.8,26.8-11,39.8l-10.3-3.4
				C927.9,613.8,931.5,600.7,934.5,587.6 M54.7,657.3c5,12.4,10.7,24.7,16.8,36.7l-9.7,4.9c-6.3-12.2-12-24.8-17.2-37.5L54.7,657.3
				 M909.6,664.3l10,4.2c-5.4,12.6-11.4,25.2-17.8,37.3l-9.6-5.1C898.5,688.9,904.3,676.6,909.6,664.3 M91.4,729.1
				c7.1,11.3,14.8,22.5,22.9,33.2l-8.7,6.6c-8.3-10.9-16.2-22.4-23.5-34L91.4,729.1 M871.7,735.5l9.1,5.9
				c-7.5,11.5-15.6,22.8-24,33.6l-8.6-6.7C856.5,757.8,864.3,746.7,871.7,735.5 M140,793.4c9,10,18.5,19.6,28.3,28.8l-7.4,7.9
				c-10-9.3-19.8-19.3-29-29.4L140,793.4 M822,799l7.9,7.4c-9.4,10-19.3,19.8-29.4,29l-7.3-8.1C803.1,818.3,812.8,808.8,822,799
				 M199,848.3c10.6,8.3,21.6,16.1,32.9,23.4l-5.9,9.1c-11.5-7.5-22.8-15.5-33.6-24L199,848.3 M762.1,853l6.5,8.7
				c-11,8.3-22.4,16.2-34,23.4l-5.8-9.2C740.2,868.8,751.4,861.1,762.1,853 M266.7,892.3c11.8,6.3,24.1,12.2,36.4,17.4l-4.2,10
				c-12.6-5.4-25.2-11.3-37.3-17.8L266.7,892.3 M693.8,895.8l4.9,9.7c-12.2,6.2-24.8,12-37.5,17.2l-4.1-10.1
				C669.5,907.5,681.8,901.9,693.8,895.8 M340.9,923.8c12.7,4.1,25.8,7.7,38.9,10.7l-2.4,10.6c-13.4-3.1-26.8-6.8-39.8-11
				L340.9,923.8 M619.1,926.1l3.2,10.4c-13.1,4-26.6,7.5-40,10.3l-2.3-10.6C593.1,933.4,606.2,930,619.1,926.1 M419.5,941.8
				c13.2,1.8,26.8,3.1,40.2,3.8l-0.6,10.8c-13.7-0.7-27.6-2-41.1-3.9L419.5,941.8 M540.2,942.8l1.3,10.8
				c-13.6,1.7-27.4,2.7-41.2,3.2L500,946C513.4,945.5,526.9,944.4,540.2,942.8 M475.9,0l-10,0.4c-14,0.5-28.2,1.6-42,3.3l-9.9,1.2
				l1.2,9.9l1.3,10.8l1.2,9.9l9.9-1.2c13-1.6,26.2-2.7,39.4-3.1l10-0.4l-0.4-10L476.2,10L475.9,0L475.9,0z M498.1,0.2l-0.5,10
				L497,21l-0.5,10l10,0.5c13.1,0.7,26.3,1.9,39.3,3.7l9.9,1.4l1.4-9.9l1.5-10.8L560,6l-9.9-1.4c-13.9-1.9-28-3.3-42-4L498.1,0.2
				L498.1,0.2z M392.1,8.6l-9.8,2.1c-13.7,2.9-27.4,6.5-40.8,10.6l-9.6,2.9l2.9,9.6l3.2,10.4l2.9,9.6l9.6-2.9
				c12.5-3.9,25.4-7.2,38.2-9.9l9.8-2.1l-2.1-9.8l-2.3-10.6L392.1,8.6L392.1,8.6z M581.8,10l-2.2,9.7l-2.4,10.6l-2.2,9.7l9.7,2.2
				c12.8,2.9,25.6,6.5,38.1,10.5l9.5,3.1l3.1-9.5l3.3-10.3l3.1-9.5l-9.5-3.1c-13.3-4.3-27-8.1-40.7-11.2L581.8,10L581.8,10z
				 M311,31.7l-9.3,3.8c-13,5.3-25.9,11.2-38.3,17.6l-8.9,4.6l4.6,8.9l5,9.7l4.6,8.9l8.9-4.6c11.7-6,23.7-11.5,35.9-16.4l9.3-3.8
				l-3.8-9.3l-4.1-10.1L311,31.7L311,31.7z M662.5,34.2l-3.9,9.2l-4.2,10l-3.9,9.2l9.2,3.9c12.1,5.1,24.1,10.8,35.7,16.9l8.8,4.7
				l4.7-8.8l5.1-9.6l4.7-8.8l-8.8-4.7c-12.4-6.5-25.2-12.6-38.1-18.1L662.5,34.2L662.5,34.2z M235.2,68.5l-8.5,5.3
				c-11.9,7.4-23.5,15.5-34.7,24l-8,6l6,8l6.6,8.7l6,8l8-6c10.5-7.9,21.4-15.5,32.5-22.4l8.5-5.3l-5.3-8.5l-5.8-9.2L235.2,68.5
				L235.2,68.5z M167,118l-7.4,6.7c-10.4,9.4-20.5,19.3-30,29.6l-6.8,7.3l7.3,6.8l8,7.4l7.3,6.8l6.8-7.3
				c8.9-9.6,18.4-18.9,28.1-27.7l7.4-6.7l-6.7-7.4l-7.3-8.1L167,118L167,118z M108.3,178.5l-6.2,7.9c-8.6,11-16.9,22.6-24.5,34.3
				l-5.4,8.4l8.4,5.4l9.1,5.9l8.4,5.4l5.4-8.4c7.1-11,14.8-21.8,22.9-32.2l6.2-7.9l-7.9-6.2l-8.6-6.7L108.3,178.5L108.3,178.5z
				 M61,248.3l-4.7,8.8c-6.6,12.4-12.7,25.2-18.1,38.1l-3.9,9.2l9.2,3.9l10,4.2l9.2,3.9l3.9-9.2c5.1-12.1,10.8-24.1,17-35.6l4.7-8.8
				l-8.8-4.7l-9.6-5.1L61,248.3L61,248.3z M909.9,255.2l-8.9,4.5l-9.7,4.9l-8.9,4.5l4.5,8.9c6,11.7,11.5,23.8,16.4,35.9l3.7,9.3
				l9.3-3.7l10.1-4.1l9.3-3.7l-3.7-9.3c-5.2-13-11.1-25.9-17.5-38.4L909.9,255.2L909.9,255.2z M26.5,325.2l-3.1,9.5
				c-4.3,13.3-8.1,27-11.2,40.7l-2.2,9.7l9.7,2.2l10.6,2.4l9.7,2.2l2.2-9.7c2.9-12.8,6.5-25.6,10.5-38l3.1-9.5l-9.5-3.1L36,328.3
				L26.5,325.2L26.5,325.2z M943.1,332.7l-9.6,2.9l-10.4,3.2l-9.6,2.9l2.9,9.6c3.8,12.5,7.2,25.4,9.9,38.2l2.1,9.8l9.8-2.1l10.6-2.3
				l9.8-2.1l-2.1-9.8c-2.9-13.7-6.5-27.4-10.6-40.8L943.1,332.7L943.1,332.7z M6,407l-1.4,9.9c-1.9,13.8-3.2,28-3.9,42l-0.5,10
				l10,0.5l10.8,0.5l10,0.5l0.5-10c0.7-13.1,1.9-26.3,3.7-39.3l1.4-9.9l-9.9-1.4l-10.8-1.5L6,407L6,407z M962.3,414.7l-9.9,1.2
				l-10.8,1.3l-9.9,1.2l1.2,9.9c1.6,13,2.6,26.3,3.1,39.4l0.3,10l10-0.3l10.9-0.4l10-0.3l-0.3-10c-0.5-14-1.6-28.1-3.3-42.1
				L962.3,414.7L962.3,414.7z M30.8,489.9l-10,0.4L10,490.6L0,491l0.4,10c0.5,14,1.6,28.2,3.3,42l1.2,9.9l9.9-1.2l10.8-1.3l9.9-1.2
				l-1.2-9.9c-1.6-13-2.6-26.2-3.1-39.4L30.8,489.9L30.8,489.9z M936.2,497.3l-0.5,10c-0.7,13.1-1.9,26.3-3.7,39.3l-1.4,9.9l9.9,1.4
				l10.8,1.5l9.9,1.4l1.4-9.9c1.9-13.8,3.3-28,4-42l0.5-10l-10-0.5l-10.8-0.6L936.2,497.3L936.2,497.3z M38.7,568.4l-9.8,2.1
				l-10.6,2.3l-9.8,2.1l2.1,9.8c2.9,13.7,6.5,27.4,10.6,40.8l2.9,9.6l9.6-2.9l10.4-3.2l9.6-2.9l-2.9-9.6
				c-3.8-12.5-7.2-25.4-9.9-38.2L38.7,568.4L38.7,568.4z M927,575.6l-2.2,9.7c-2.9,12.8-6.5,25.6-10.5,38l-3.1,9.5l9.5,3.1l10.3,3.4
				l9.5,3.1l3.1-9.5c4.3-13.3,8.1-27,11.3-40.6l2.2-9.7l-9.7-2.2l-10.6-2.4L927,575.6L927,575.6z M60.2,644.3l-9.3,3.8l-10.1,4.1
				l-9.3,3.8l3.8,9.3c5.3,13,11.2,25.9,17.6,38.3l4.6,8.9l8.9-4.6l9.7-4.9l8.9-4.6l-4.6-8.9c-6-11.7-11.5-23.7-16.4-35.9L60.2,644.3
				L60.2,644.3z M904.3,651.2l-3.9,9.2c-5.1,12.1-10.9,24.1-17,35.6l-4.7,8.8l8.8,4.7l9.6,5.1l8.8,4.7l4.7-8.8
				c6.6-12.4,12.7-25.2,18.2-38.1l3.9-9.2l-9.2-3.9l-10-4.2L904.3,651.2L904.3,651.2z M94.6,715.3l-8.5,5.3l-9.2,5.8l-8.5,5.3
				l5.3,8.5c7.4,11.9,15.5,23.5,23.9,34.7l6,8l8-6l8.7-6.6l8-6l-6-8c-7.9-10.5-15.5-21.4-22.4-32.5L94.6,715.3L94.6,715.3z
				 M868.7,721.6l-5.5,8.4c-7.1,11-14.9,21.8-23,32.1l-6.2,7.9l7.9,6.2l8.6,6.7l7.9,6.2l6.2-7.9c8.6-11,16.9-22.6,24.5-34.3l5.5-8.4
				l-8.4-5.5l-9.1-5.9L868.7,721.6L868.7,721.6z M140.7,779.3l-7.4,6.7l-8.1,7.3l-7.4,6.7l6.7,7.4c9.4,10.4,19.3,20.5,29.6,30
				l7.3,6.8l6.8-7.3l7.4-7.9l6.8-7.3l-7.3-6.8c-9.6-8.9-18.9-18.4-27.7-28.1L140.7,779.3L140.7,779.3z M821.5,784.9l-6.8,7.3
				c-8.9,9.6-18.4,18.9-28.2,27.7l-7.4,6.7l6.7,7.4l7.3,8.1l6.7,7.4l7.4-6.7c10.4-9.4,20.5-19.3,30.1-29.6l6.8-7.3l-7.3-6.8
				l-7.9-7.4L821.5,784.9L821.5,784.9z M197.3,834.3l-6.2,7.9l-6.7,8.6l-6.2,7.9l7.9,6.2c11,8.6,22.6,16.9,34.3,24.5l8.4,5.4
				l5.4-8.4l5.9-9.1l5.4-8.4l-8.4-5.4c-11-7.1-21.8-14.9-32.1-22.9L197.3,834.3L197.3,834.3z M764,839l-8,6
				c-10.5,7.9-21.4,15.5-32.5,22.4l-8.5,5.3l5.3,8.5l5.8,9.2l5.3,8.5l8.5-5.3c11.9-7.4,23.5-15.5,34.7-23.9l8-6l-6-8L770,847
				L764,839L764,839z M262.5,878.8l-4.7,8.8l-5.1,9.6L248,906l8.8,4.7c12.4,6.6,25.2,12.7,38.1,18.2l9.2,3.9l3.9-9.2l4.2-10l3.9-9.2
				l-9.2-3.9c-12.1-5.1-24-10.8-35.6-17L262.5,878.8L262.5,878.8z M698.1,882.3l-8.9,4.6c-11.7,6-23.7,11.5-35.9,16.4l-9.3,3.8
				l3.8,9.3l4.1,10.1l3.8,9.3l9.3-3.8c13-5.3,25.9-11.2,38.3-17.5l8.9-4.6l-4.6-8.9l-4.9-9.7L698.1,882.3L698.1,882.3z M334.5,911.2
				l-3.1,9.5L328,931l-3.1,9.5l9.5,3.1c13.3,4.3,27,8.1,40.7,11.2l9.7,2.2l2.2-9.7l2.4-10.6l2.2-9.7l-9.7-2.2
				c-12.8-2.9-25.6-6.5-38-10.5L334.5,911.2L334.5,911.2z M625.7,913.6l-9.6,2.9c-12.5,3.8-25.4,7.2-38.2,9.9l-9.8,2.1l2.1,9.8
				l2.3,10.6l2.1,9.8l9.8-2.1c13.7-2.9,27.4-6.5,40.8-10.6l9.6-2.9l-2.9-9.6l-3.2-10.4L625.7,913.6L625.7,913.6z M410.9,930.6
				l-1.4,9.9l-1.5,10.8l-1.4,9.9l9.9,1.4c13.8,1.9,28,3.3,42,4l10,0.5l0.5-10l0.6-10.8l0.5-10l-10-0.5c-13.1-0.7-26.3-1.9-39.3-3.7
				L410.9,930.6L410.9,930.6z M548.9,931.7l-9.9,1.2c-13,1.6-26.2,2.6-39.4,3.1l-10,0.3l0.3,10l0.4,10.9l0.3,10l10-0.3
				c14-0.5,28.2-1.6,42-3.3l9.9-1.2l-1.2-9.9l-1.3-10.8L548.9,931.7L548.9,931.7z"/>
		</g>
	</g>
</g>
</svg>
