<?xml version="1.0" encoding="UTF-8"?><svg id="b" xmlns="http://www.w3.org/2000/svg" viewBox="0 0 313.2 72.9"><g id="c"><path id="d" d="M65.2,71.7h9.7v-25.4c0-5,3.3-8.6,8-8.6s7.3,2.9,7.3,7.5v26.5h9.5v-25.6c0-5,3.2-8.4,7.9-8.4s7.4,2.9,7.4,8v26h9.7v-28.4c0-8.3-5.4-13.8-13.5-13.8s-10.9,3.2-12.9,8.3h-.2c-1.5-5.3-5.7-8.3-11.6-8.3s-10,3.2-11.8,8h-.2v-7.2h-9.3v41.4h0Zm80.8-6.7c-4.2,0-7-2.1-7-5.5s2.7-5.4,7.4-5.7l9.6-.6v3.2c0,5-4.4,8.7-9.9,8.7h0Zm-2.9,7.3c5.3,0,10.5-2.8,12.9-7.3h.2v6.6h9.4v-28.5c0-8.3-6.7-13.8-17-13.8s-17.1,5.5-17.6,13.3h9c.6-3.4,3.6-5.7,8.2-5.7s7.7,2.5,7.7,6.8v3l-10.9,.6c-10.1,.6-15.7,5-15.7,12.4s5.8,12.5,13.8,12.5h0Zm65.2-27.3c-.7-8.7-7.4-15.6-18.4-15.6s-19.8,8.3-19.8,21.6,7.8,21.5,19.9,21.5,17.5-6.1,18.3-15.4h-9.2c-.9,4.7-4.1,7.5-9,7.5s-10.2-5-10.2-13.7,3.9-13.7,10.1-13.7,8.3,3.3,9.1,7.7h9.2Zm30-30.7c-16.4,0-26.8,11.2-26.8,29.1s10.3,29.1,26.8,29.1,26.7-11.2,26.7-29.1-10.3-29.1-26.7-29.1Zm0,8.6c10,0,16.4,8,16.4,20.5s-6.4,20.5-16.4,20.5-16.4-8-16.4-20.5,6.4-20.5,16.4-20.5Zm30.8,32.9c.4,10.4,8.9,16.8,21.9,16.8s22.2-6.7,22.2-17.4-4.8-13.1-16.3-15.7l-6.5-1.5c-6.9-1.6-9.8-3.8-9.8-7.6s4.3-7.8,10.7-7.8,10.9,3.2,11.3,8.4h9.6c-.2-9.9-8.4-16.6-20.9-16.6s-21,6.8-21,16.8,4.9,13,15.3,15.4l7.3,1.7c7.1,1.7,10,4,10,8.1s-4.7,8-11.5,8-12.1-3.4-12.7-8.6h-9.8Z"/><path d="M57.5,24.9c-.4,.3-7.9,4.5-7.9,13.9s9.5,14.6,9.8,14.7c0,.2-1.5,5.2-5,10.3-3.1,4.5-6.4,9-11.3,9s-6.2-2.9-12-2.9-7.6,3-12.1,3-7.7-4.2-11.3-9.3C3.4,57.6,0,48.3,0,39.5c0-14.2,9.2-21.7,18.3-21.7s8.8,3.2,11.9,3.2,7.4-3.4,12.9-3.4,9.5,.2,14.5,7.2h0Zm-17.1-13.2c2.3-2.7,3.9-6.4,3.9-10.2s0-1-.1-1.5c-3.7,.1-8.1,2.5-10.7,5.5-2.1,2.4-4,6.1-4,9.9s0,1.1,.1,1.3c.2,0,.6,0,1,0,3.3,0,7.5-2.2,9.9-5.2h0Z"/></g></svg>