<?xml version="1.0" encoding="UTF-8"?><svg id="b" xmlns="http://www.w3.org/2000/svg" viewBox="0 0 1033.4 203.6"><defs><style>.d{fill:#fff;}.e{fill:#003545;}</style></defs><g id="c"><g><path class="e" d="M419.7,164.3c-.9,0-1.7-.6-1.9-1.5l-17.1-71.6-32.4,71.9c-.3,.7-1,1.2-1.8,1.2h-17.7c-.8,0-1.5-.5-1.8-1.2l-32.2-71.5-17.6,71.2c-.2,.9-1,1.5-1.9,1.5h-20.5c-.6,0-1.2-.3-1.6-.8-.4-.5-.5-1.1-.4-1.7l27.5-107.2c.2-.9,1-1.5,1.9-1.5h18.1c.8,0,1.5,.5,1.8,1.2l35.6,79,35.5-79c.3-.7,1-1.2,1.8-1.2h18c.9,0,1.7,.6,1.9,1.5l27.8,107.2c.2,.6,0,1.2-.4,1.7s-1,.8-1.6,.8h-21Z"/><path class="d" d="M412.9,55l27.8,107.2h-21l-18.5-77.2-34.8,77.2h-17.7l-34.6-76.8-19,76.8h-20.5l27.5-107.2h18.1l37.4,83,37.3-83h18m0-4h-18c-1.6,0-3,.9-3.6,2.4l-33.6,74.9-33.8-74.9c-.6-1.4-2.1-2.4-3.6-2.4h-18.1c-1.8,0-3.4,1.2-3.9,3l-27.5,107.2c-.3,1.2,0,2.5,.7,3.4,.8,1,1.9,1.5,3.2,1.5h20.5c1.8,0,3.4-1.3,3.9-3l16.2-65.6,29.9,66.3c.6,1.4,2.1,2.4,3.6,2.4h17.7c1.6,0,3-.9,3.6-2.4l29.9-66.6,15.8,65.9c.4,1.8,2,3.1,3.9,3.1h21c1.2,0,2.4-.6,3.2-1.6s1-2.3,.7-3.5l-27.8-107.2c-.5-1.8-2-3-3.9-3h0Z"/></g><g><path class="e" d="M490,165.9c-26.8,0-45.5-18.2-45.5-44.3s17.5-41.4,42.5-41.4,23.9,3.8,30.7,10.6v-6.8c0-1.1,.9-2,2-2h20.2c1.1,0,2,.9,2,2v78.3c0,1.1-.9,2-2,2h-20.2c-1.1,0-2-.9-2-2v-6.7c-6.3,6.6-16.3,10.4-27.7,10.4Zm3.7-67.3c-16.4,0-23.7,12.1-23.7,24s6.4,24.7,24.6,24.7,24.1-12.2,24.1-24.3-7.7-24.4-25-24.4Z"/><path class="d" d="M487,82.2c14.7,0,26.9,5.1,32.7,14.3v-12.5h20.2v78.3h-20.2v-12.6c-5.3,9-16.3,14.3-29.7,14.3-27.9,0-43.5-19.6-43.5-42.3s14.8-39.4,40.5-39.4m7.6,67.1c16.9,0,26.1-12,26.1-26.3s-9.5-26.4-27-26.4-25.7,12.2-25.7,26,9,26.7,26.6,26.7m-7.6-71.1c-13.3,0-24.6,4.4-32.7,12.7-7.6,7.8-11.8,18.7-11.8,30.7s4.4,24.1,12.4,32.5c8.7,9.1,20.8,13.9,35.1,13.9s19.1-2.9,25.7-7.9v2.3c0,2.2,1.8,4,4,4h20.2c2.2,0,4-1.8,4-4V84c0-2.2-1.8-4-4-4h-20.2c-2.2,0-4,1.8-4,4v2.4c-7.1-5.3-17.1-8.2-28.7-8.2h0Zm7.6,67.1c-16.7,0-22.6-12.2-22.6-22.7s5.7-22,21.7-22,23,12.1,23,22.4-5.8,22.3-22.1,22.3h0Z"/></g><g><path class="e" d="M565.3,164.3c-1.1,0-2-.9-2-2V84c0-1.1,.9-2,2-2h20.2c1.1,0,2,.9,2,2v10c6.2-8.7,15.8-13.8,26.2-13.8h.5c4.4,0,8.7,.7,12.8,2.2,1,.4,1.5,1.4,1.3,2.4l-4.3,14.9c-.3,.9-1.1,1.4-1.9,1.4s-.3,0-.5,0c-3.3-.9-6.8-1.4-10.2-1.4-13.8,0-23.8,10.6-23.8,25.2v37.5c0,1.1-.9,2-2,2h-20.2Z"/><path class="d" d="M614.2,82.2c4.1,0,8.2,.7,12.1,2.1l-4.3,14.9c-3.5-.9-7.1-1.4-10.7-1.5-14.6,0-25.8,11-25.8,27.2v37.5s-20.2,0-20.2,0V84h20.2v17.5c5.3-12,16.2-19.3,28.2-19.3,.2,0,.3,0,.5,0m0-4c-.2,0-.3,0-.5,0-9.2,0-17.8,3.8-24.2,10.3v-4.5c0-2.2-1.8-4-4-4h-20.2c-2.2,0-4,1.8-4,4v78.3c0,2.2,1.8,4,4,4h20.2c1.1,0,2.1-.4,2.8-1.2,.8-.8,1.2-1.8,1.2-2.8v-37.5c0-13.6,9-23.2,21.8-23.2,3.3,0,6.5,.5,9.7,1.4,.3,0,.7,.1,1,.1,1.7,0,3.3-1.1,3.8-2.9l4.3-14.9c.6-2-.5-4.2-2.5-4.9-4.3-1.5-8.9-2.3-13.5-2.3h0Z"/></g><g><path class="e" d="M654.8,165.9c-8.4,0-19.5-2.5-19.5-23.7v-58.2c0-1.1,.9-2,2-2h20.2c1.1,0,2,.9,2,2v57.2c0,4.1,1,4.1,1.7,4.1,1.1,0,2.3-.2,3.4-.4,.1,0,.3,0,.4,0,.9,0,1.8,.6,2,1.6l3.1,14.7c.2,1-.3,1.9-1.2,2.3-4.3,1.7-8.9,2.5-13.5,2.5h-.6Zm-8-89.8c-6.6,0-12.1-5.2-12.4-11.9,0-.3,0-.6,0-.9-.1-6.8,5.3-12.4,12-12.5h.3c.2,0,.4,0,.6,0,.1,0,.2,0,.3,0,6.9,0,12.4,5.4,12.6,12.2,0,.2,0,.4,0,.7,0,5.9-4.1,12.4-13,12.4,0,0-.3,0-.5,0Z"/><path class="d" d="M646.7,52.8c.2,0,.4,0,.6,0,.1,0,.2,0,.4,0,5.7,0,10.5,4.5,10.6,10.3,0,.2,0,.4,0,.5,0,5.2-3.6,10.4-11,10.4-.2,0-.3,0-.5,0-5.5,0-10.1-4.4-10.4-9.9,0-.3,0-.5,0-.8-.1-5.7,4.4-10.4,10.1-10.5,0,0,.1,0,.2,0m10.8,31.2v57.2c0,3.6,.8,6.1,3.7,6.1,1.3,0,2.6-.2,3.9-.5l3.1,14.7c-4.1,1.6-8.4,2.4-12.8,2.4s-.4,0-.5,0c-8.5,0-17.5-2.5-17.5-21.7v-58.2h20.2m-10.8-35.2c-.1,0-.2,0-.3,0-3.8,0-7.4,1.6-10,4.4-2.6,2.7-4,6.3-4,10.1,0,.3,0,.7,0,1,.3,7.7,6.7,13.8,14.4,13.8s.4,0,.5,0c9.8,0,14.9-7.2,14.9-14.4,0-.2,0-.5,0-.7-.3-7.9-6.7-14.2-14.6-14.2s-.2,0-.3,0c-.2,0-.4,0-.6,0h0Zm10.8,31.2h-20.2c-2.2,0-4,1.8-4,4v58.2c0,9.9,2.3,16.8,6.9,21,4.6,4.2,10.5,4.7,14.6,4.7,.2,0,.4,0,.6,0,4.9,0,9.7-.9,14.3-2.7,1.8-.7,2.9-2.6,2.5-4.6l-3.1-14.7c-.4-1.9-2.1-3.2-3.9-3.2-.3,0-.5,0-.8,0-.9,.2-1.7,.3-2.6,.3,0-.4-.2-1-.2-2.1v-57.2c0-2.2-1.8-4-4-4h0Z"/></g><g><path class="e" d="M718.1,165.9c-26.8,0-45.5-18.2-45.5-44.3s17.5-41.4,42.5-41.4,23.9,3.8,30.7,10.6v-6.8c0-1.1,.9-2,2-2h20.2c1.1,0,2,.9,2,2v78.3c0,1.1-.9,2-2,2h-20.2c-1.1,0-2-.9-2-2v-6.8c-6.4,6.6-16.3,10.4-27.7,10.4Zm3.8-67.3c-16.4,0-23.7,12.1-23.7,24s6.4,24.7,24.6,24.7,24.1-12.2,24.1-24.3-7.7-24.4-25-24.4Z"/><path class="d" d="M715.1,82.2c14.7,0,26.9,5.1,32.7,14.3v-12.5h20.2v78.3h-20.2v-12.6c-5.4,9-16.4,14.3-29.7,14.3-27.9,0-43.5-19.6-43.5-42.3s14.9-39.4,40.5-39.4m7.6,67.1c16.9,0,26.1-12,26.1-26.3s-9.5-26.4-27-26.4-25.7,12.2-25.7,26,9,26.7,26.6,26.7m-7.6-71.1c-13.3,0-24.6,4.4-32.7,12.7-7.6,7.8-11.8,18.7-11.8,30.7s4.4,24.1,12.4,32.5c8.7,9.1,20.8,13.9,35.1,13.9s19.1-2.9,25.7-7.9v2.3c0,2.2,1.8,4,4,4h20.2c2.2,0,4-1.8,4-4V84c0-2.2-1.8-4-4-4h-20.2c-2.2,0-4,1.8-4,4v2.5c-7.1-5.3-17.1-8.2-28.7-8.2h0Zm7.6,67.1c-16.7,0-22.6-12.2-22.6-22.7s5.7-22,21.7-22,23,12.1,23,22.4-5.8,22.3-22.1,22.3h0Z"/></g><g><path class="e" d="M799,164.3c-1.1,0-2-.9-2-2V55c0-1.1,.9-2,2-2h48.4c20.7,0,37.4,5.8,48.4,16.9,9.6,9.6,14.5,23.1,14.4,38.8,.1,15.8-4.9,29.3-14.7,39.2-10.6,10.7-26,16.4-44.5,16.4h-52Zm50.2-13.4c39.6,0,42.7-32.6,42.7-42.6,0-26.2-16-41.8-42.7-41.8h-34.9v84.4h34.9Z"/><path class="d" d="M847.5,55c40.7,0,61.1,22.4,60.8,53.6,.3,32.4-22.1,53.6-57.2,53.6h-52V55h48.4m-35.1,97.9h36.9c32.4,0,44.7-21.8,44.7-44.6s-15.5-43.8-44.7-43.8h-36.9v88.4m35.1-101.9h-48.4c-2.2,0-4,1.8-4,4v107.2c0,2.2,1.8,4,4,4h52c19,0,34.9-5.9,45.9-17,10.2-10.3,15.5-24.3,15.3-40.6,.1-16.2-5-30.1-15-40.2-11.3-11.4-28.5-17.5-49.8-17.5h0Zm-31.1,17.5h32.9c25.5,0,40.7,14.9,40.7,39.8s-2.9,40.6-40.7,40.6h-32.9V68.5h0Z"/></g><g><path class="e" d="M929.3,164.3c-1.1,0-2-.9-2-2V55c0-1.1,.9-2,2-2h55.4c12.2,0,27.4,1.1,36.2,10,4.7,4.8,7.1,11.5,7,19.8,0,13.9-6.9,20-14.5,22.9,11.5,4,18.1,13.8,18.1,27.5,0,8.6-2.5,15.6-7.6,20.7-6.8,6.8-17.9,10.3-33,10.3h-61.5Zm59.5-13.1c11.4,0,24.9-3.3,24.9-18.8,0-13.5-8.3-19.5-26.9-19.5s-.3,0-.5,0h-42.2v38.3h44.7Zm-2.6-51.3c21.1,0,24-8,24-16.6,0-12.7-6.3-17.2-24-17.2h-42.1v33.7h42.1Z"/><path class="d" d="M984.7,55c21.2,0,41.4,4,41.1,27.8,0,16.8-10.4,21.4-21.4,23.2,15.6,1.3,25,11.3,25,27.3,.1,24.1-21,29-38.6,29h-61.5V55h55.4m-42.6,46.8h44.1c21.2,0,26-8.2,26-18.6,0-15.6-9.5-19.2-26-19.2h-44.1v37.7m0,51.3h46.7c13.1,0,26.9-4.3,26.9-20.8,0-18.9-16-21.5-28.9-21.5h0c0,0-44.7,0-44.7,0v42.3m42.6-102.1h-55.4c-2.2,0-4,1.8-4,4v107.3c0,2.2,1.8,4,4,4h61.5c15.7,0,27.3-3.7,34.4-10.9,5.5-5.5,8.2-13,8.2-22.1,0-8.8-2.7-16.4-7.7-21.9-2.1-2.3-4.7-4.2-7.6-5.7,6.1-3.6,11.7-10.2,11.7-22.9,.1-8.9-2.4-16-7.6-21.2-9.2-9.4-24.9-10.6-37.6-10.6h0Zm-38.6,17.1h40.1c16.7,0,22,3.7,22,15.2s-1.7,14.6-22,14.6h-40.1v-29.7h0Zm0,46.7h40c.2,0,.5,0,.7,0,17.4,0,24.9,5.2,24.9,17.5,0,11.1-7.7,16.8-22.9,16.8h-42.7v-34.3h0Z"/></g><g><path class="e" d="M15.1,201.6c-1.3,0-2.6-.3-3.8-.9-.3-.1-.5-.3-.7-.6-2.9-3.9,.9-9.2,7.4-17.7l.3-.4c.5-.6,.9-1.2,1.3-1.8,0,0-.1,0-.2,0,0,0-.1,0-.2,0-2.8-1.5-5.4-3.4-7.8-5.5-2-1.8-4.2-3.4-6.6-4.7l-1.6-.7c-.5-.2-.9-.7-1.1-1.2-.2-.5-.1-1.1,.2-1.6,1.9-3.5,6.2-6,6.4-6.1,2.7-1.6,6.2-2.3,10.8-2.3s10.8,.9,17.2,2c5.6,.9,10.8,1.8,14.9,1.8s5.3-.5,6.2-1.4c4.2-4.1,8.1-8.7,11.3-13.7,4.1-5.7,8.9-10.7,14.3-15.1,1.9-1.5,4.6-3.5,7.1-5.2,6.9-4.7,11.5-6.3,18-8.4,.9-.3,1.8-.6,2.8-1,1.6-.5,3.3-1.1,5.3-1.8,6.8-2.5,14.2-4.9,22.5-7.5,8.2-2.6,17.4-5.5,25.9-8.7,8.5-3.3,19.4-7.8,27.9-14.2,1.9-1.4,3.7-2.9,5.4-4.6,8.2-8,14.3-18.5,20.2-28.6v-.2c11.4-19.4,23-39.5,49.7-42.3,4.3-.5,7.7-.7,11.6-.8,3.5-.2,6.8-1,10-2.6,0,0,0,0,.1,0,.1,0,.4-.2,.6-.3l.5-.3c2.2-1.1,5.9-3,9.1-3h.1c1.5,0,2.9,.5,4.1,1.5,1.8,1.6,2.8,4.3,1.5,12.4h0c0,.2,0,.3,0,.4-1.6,11.3-9,17.4-16.4,22.6l-2.3,1.6c-5.5,3.8-11,7.6-14.6,13.2-2.3,3.5-4.4,13.4-6.7,24h0c-2,9.5-4.4,20.2-7.5,30.9-7.7,26.2-18,43.1-31.4,51.6,0,0,0,0-.1,0l-5.4,2.9c-.3,.2-.6,.2-.9,.2s-.8-.1-1.1-.3c-.6-.4-.9-1.1-.9-1.9,0,0,.3-2.9,.6-5.7-1.1,2.5-2.3,5-3.5,7.4-9.8,18.8-23.4,30.6-41.3,36-5.1,1.9-13.4,1.9-13.8,1.9-.8,0-1.5-.5-1.8-1.2-.3-.7-.2-1.6,.4-2.2l5.9-6.3c7.3-10.1,14.5-21.3,17.3-37.2-2.1,5.9-4.3,11.9-9.2,14.9-.1,0-.3,.1-.4,.2l-.7,.2c-.1,0-.3,0-.4,0-2.9,.3-5.8,.5-8.7,.5h-.3c-2.3,0-4.6,0-7-.2-6.3-.4-12.7-1.2-18.9-2h-.1c-8.2-1.1-16.7-2.2-24.9-2.2-.4,0-.7,0-1.1,0-6.1,0-12.2,.9-18.1,2.7-7.6,2.5-15.8,7.7-23,12.4-5.6,3.6-11.4,7.4-16.8,9.7-2.9,1.3-5.5,2.5-8,3.7,0,0-.1,0-.1,0-9,4.3-16.1,7.8-29.4,7.8h-.1Z"/><path class="d" d="M300.4,4c1,0,2,.4,2.8,1,1.1,.9,2,3,.8,10.7v.2c-1.5,10.6-8.5,16.3-15.5,21.2l-2.3,1.6c-5.6,3.9-11.3,7.8-15.1,13.7-2.4,3.8-4.6,13.5-7,24.7-2,9.4-4.3,20-7.5,30.8-7.6,25.7-17.6,42.2-30.6,50.5l-5.4,2.9s.8-6.6,1-9.6c0-.4,0-.9,0-1.3,0-.7,.1-1.4,.1-2,0-1.1-.3-1.4-.7-1.4s-.8,.3-.8,.5c-1.9,4.9-4,9.7-6.3,14.4-9.6,18.3-22.7,29.8-40.2,35-4.8,1.8-13.2,1.8-13.2,1.8l6-6.4c9-12.4,17.8-26.4,18.9-48.5h0c0-.2-.2-.3-.3-.3s-.1,0-.2,0c-.1,0-.2,.2-.3,.3-1.7,2.1-2.8,5.4-4.1,9-2,5.6-4.1,11.5-8.5,14.2l-.7,.2c-2.8,.3-5.7,.5-8.5,.5s-.2,0-.3,0c-2.2,0-4.5,0-6.9-.2-6.3-.4-12.7-1.2-18.9-2-8.3-1.1-16.9-2.2-25.1-2.2-.4,0-.7,0-1.1,0-6.3,0-12.6,.9-18.7,2.8-7.8,2.5-15.8,7.6-23.5,12.6-5.8,3.8-11.4,7.3-16.5,9.5-3,1.3-5.6,2.6-8.2,3.8-8.8,4.2-15.7,7.6-28.6,7.6,0,0,0,0-.1,0-1,0-2-.2-2.9-.7-2-2.7,1.5-7.6,7.4-15.3,1.1-1.4,2.1-2.8,2.8-3.8-.6-.7-1.4-1.2-2.3-1.5-2.7-1.4-5.1-3.2-7.4-5.2-2.1-2-4.5-3.7-7.1-5.1l-1.7-.8c1.7-3,5.7-5.4,5.7-5.4,2.4-1.4,5.6-2.1,9.7-2.1s11.1,1,16.9,2c5.6,1,10.9,1.9,15.3,1.9s6.2-.6,7.6-2c4.3-4.2,8.2-8.9,11.6-14,3.9-5.5,8.6-10.4,13.9-14.6,1.8-1.5,4.4-3.4,7-5.1,6.6-4.5,11.2-6.1,17.5-8.2,2.3-.8,5-1.7,8.1-2.8,6.9-2.6,14.4-4.9,22.4-7.5,8.7-2.7,17.7-5.6,26-8.7,8.6-3.3,19.7-7.9,28.4-14.5,2-1.5,3.8-3,5.6-4.7,8.5-8.3,14.7-19,20.7-29.3,11-19,22.4-38.6,48.1-41.3,4.3-.5,7.6-.7,11.5-.8,3.8-.2,7.4-1.1,10.8-2.8,.2,0,.5-.2,.8-.4,2-1,5.8-3,8.7-3,0,0,0,0,.1,0m0-4c0,0-.1,0-.2,0-3.6,0-7.6,2-9.9,3.2l-.5,.2s0,0-.1,0c-.2,.1-.4,.2-.5,.2,0,0-.1,0-.2,0-2.9,1.4-6,2.2-9.2,2.4-4,.1-7.4,.4-11.8,.8-27.7,2.9-40.2,24.3-51.1,43.2v.2c-6,10-12,20.4-20,28.2-1.6,1.6-3.4,3-5.2,4.4-8.4,6.3-19.1,10.7-27.5,14-8.4,3.2-17.6,6.1-25.8,8.7-8.3,2.6-15.8,5-22.6,7.5-1.9,.7-3.6,1.3-5.2,1.8-1,.3-1.9,.7-2.8,1-6.4,2.1-11.4,3.8-18.5,8.7-2.6,1.8-5.3,3.7-7.2,5.3-5.6,4.4-10.5,9.6-14.6,15.4,0,0,0,0,0,.1-3.2,4.8-6.9,9.3-11.1,13.4,0,0-1,.9-4.8,.9s-9.1-.9-14.6-1.8h0c-6.5-1.1-12.3-2.1-17.5-2.1s-8.7,.9-11.8,2.6c-.5,.3-5,3-7.2,6.9-.5,1-.7,2.1-.3,3.2,.4,1.1,1.1,1.9,2.2,2.4l1.5,.7c2.2,1.2,4.3,2.7,6.2,4.4,2,1.9,4.2,3.5,6.6,4.9l-.2,.3c-6.3,8.3-11.3,14.8-7.4,20.1,.4,.5,.8,.9,1.3,1.1,1.5,.8,3.1,1.2,4.7,1.2s.1,0,.2,0c13.8,0,21.4-3.7,30.2-8h0s0,0,0,0c2.5-1.2,5-2.4,7.9-3.7,5.5-2.4,11.4-6.2,17.1-9.8,7.1-4.6,15.1-9.8,22.5-12.1,5.7-1.7,11.5-2.6,17.5-2.6s.7,0,1,0c0,0,0,0,0,0,8,0,16.5,1.1,24.6,2.1h.2c6.2,.8,12.7,1.6,19,2,2.5,.2,4.8,.2,7.2,.2h.3c3,0,6-.2,9-.5,.3,0,.6,0,.9-.2l.7-.2c.3,0,.5-.2,.8-.4,.5-.3,1-.6,1.4-1-3.3,7.7-7.7,14.2-12.1,20.3l-5.8,6.2c-1.1,1.2-1.4,2.9-.7,4.3,.6,1.5,2.1,2.4,3.7,2.4s9.1,0,14.4-2c18.4-5.6,32.3-17.6,42.4-36.9,.2,.3,.5,.6,.9,.8,.7,.5,1.5,.7,2.2,.7s1.3-.2,1.9-.5l5.4-2.9c0,0,.2,0,.2-.1,13.9-8.8,24.4-26,32.3-52.7,3.2-10.8,5.5-21.5,7.6-30.9h0c2.2-10.1,4.4-20.3,6.4-23.5,3.4-5.2,8.8-9,14-12.6h0s2.3-1.6,2.3-1.6c7.4-5.2,15.5-11.8,17.2-23.9,0-.2,0-.3,0-.5,1.2-7.7,.5-11.6-2.2-14,0,0,0,0,0,0-1.5-1.2-3.4-1.9-5.3-1.9h0Z"/></g></g></svg>