<?xml version="1.0" encoding="UTF-8"?><svg id="b" xmlns="http://www.w3.org/2000/svg" xmlns:xlink="http://www.w3.org/1999/xlink" viewBox="0 0 340.7 94"><defs><style>.bs{fill:url(#ba);}.bt{fill:url(#ay);}.bu{fill:url(#aa);}.bv{fill:url(#am);}.bw{fill:#fff;}.bx{fill:url(#l);}.by{fill:url(#be);}.bz{fill:url(#ap);}.ca{isolation:isolate;opacity:.3;}.ca,.cb{fill:#be202e;}.cc{fill:url(#bq);}.cd{fill:url(#bi);}.ce{fill:url(#bc);}.cf{fill:url(#ai);}.cg{fill:url(#y);}.ch{fill:url(#bm);}.ci{fill:url(#bg);}.cj{fill:none;}.ck{fill:url(#u);}.cl{fill:url(#ae);}.cm{fill:url(#w);}.cn{fill:url(#ac);}</style><linearGradient id="l" x1="-4716.3" y1="3046.3" x2="-4640.6" y2="2957.8" gradientTransform="translate(403.2 -591.5) rotate(-101.3) scale(.1 -.1)" gradientUnits="userSpaceOnUse"><stop offset="0" stop-color="#f69923"/><stop offset=".3" stop-color="#f79a23"/><stop offset=".8" stop-color="#e97826"/></linearGradient><linearGradient id="u" x1="-5276.1" y1="3056.3" x2="-4736.4" y2="3056.3" gradientTransform="translate(403.2 -591.5) rotate(-101.3) scale(.1 -.1)" gradientUnits="userSpaceOnUse"><stop offset=".3" stop-color="#9e2064"/><stop offset=".6" stop-color="#c92037"/><stop offset=".8" stop-color="#cd2335"/><stop offset="1" stop-color="#e97826"/></linearGradient><linearGradient id="w" x1="-5210.9" y1="3002" x2="-4889.3" y2="3002" gradientTransform="translate(403.2 -591.5) rotate(-101.3) scale(.1 -.1)" gradientUnits="userSpaceOnUse"><stop offset="0" stop-color="#282662"/><stop offset="0" stop-color="#662e8d"/><stop offset=".8" stop-color="#9f2064"/><stop offset=".9" stop-color="#cd2032"/></linearGradient><linearGradient id="y" x1="-5245.8" y1="3061.2" x2="-4706.1" y2="3061.2" xlink:href="#u"/><linearGradient id="aa" x1="-5206.4" y1="3053.9" x2="-4922.8" y2="3053.9" xlink:href="#w"/><linearGradient id="ac" x1="-5245.8" y1="3005.4" x2="-4706.1" y2="3005.4" xlink:href="#u"/><linearGradient id="ae" x1="-5279.3" y1="3008.1" x2="-4739.6" y2="3008.1" xlink:href="#u"/><linearGradient id="ai" x1="-5245.8" y1="2988.7" x2="-4706.1" y2="2988.7" xlink:href="#u"/><linearGradient id="am" x1="-5245.8" y1="2990.6" x2="-4706.1" y2="2990.6" xlink:href="#u"/><linearGradient id="ap" x1="-6904.5" y1="4022.8" x2="-6828.8" y2="3934.3" gradientTransform="translate(1159 -449.2) rotate(-56.7) scale(.1 -.1)" xlink:href="#l"/><linearGradient id="ay" x1="-7464.3" y1="4032.8" x2="-6924.6" y2="4032.8" gradientTransform="translate(1159 -449.2) rotate(-56.7) scale(.1 -.1)" xlink:href="#u"/><linearGradient id="ba" x1="-7399.1" y1="3978.6" x2="-7077.6" y2="3978.6" gradientTransform="translate(1159 -449.2) rotate(-56.7) scale(.1 -.1)" xlink:href="#w"/><linearGradient id="bc" x1="-7434" y1="4037.8" x2="-6894.3" y2="4037.8" gradientTransform="translate(1159 -449.2) rotate(-56.7) scale(.1 -.1)" xlink:href="#u"/><linearGradient id="be" x1="-7394.6" y1="4030.4" x2="-7111" y2="4030.4" gradientTransform="translate(1159 -449.2) rotate(-56.7) scale(.1 -.1)" xlink:href="#w"/><linearGradient id="bg" x1="-7434" y1="3981.9" x2="-6894.3" y2="3981.9" gradientTransform="translate(1159 -449.2) rotate(-56.7) scale(.1 -.1)" xlink:href="#u"/><linearGradient id="bi" x1="-7467.5" y1="3984.6" x2="-6927.8" y2="3984.6" gradientTransform="translate(1159 -449.2) rotate(-56.7) scale(.1 -.1)" xlink:href="#u"/><linearGradient id="bm" x1="-7434" y1="3965.2" x2="-6894.3" y2="3965.2" gradientTransform="translate(1159 -449.2) rotate(-56.7) scale(.1 -.1)" xlink:href="#u"/><linearGradient id="bq" x1="-7434" y1="3967.2" x2="-6894.3" y2="3967.2" gradientTransform="translate(1159 -449.2) rotate(-56.7) scale(.1 -.1)" xlink:href="#u"/></defs><g id="c"><g><g id="d"><g id="e"><path d="M40.5,78.8c-.7,0-1.4,0-2-.1-1-.1-1.8-.4-2.4-.9-.8-.6-1.4-1.4-1.7-2.2,0-.1,0-.3-.1-.4,0-.3-.1-.7-.3-1.2,0-.1,0-.3,0-.4-.1-.9-.3-1.7-.3-2.6,0-.7-.2-1.4-.3-2.1,0-.1,0-.2,0-.3v-.7c-.3-.9-.4-1.8-.5-2.7,0-.8-.2-1.5-.3-2.2,0-.2,0-.4,0-.6v-.4c-.2-.7-.4-1.5-.5-2.4,0-.6-.1-1.2-.3-1.8,0-.2,0-.3,0-.5v-.3c0,0,0-.1,0-.2-.1-.7-.3-1.5-.3-2.2s0-.2,0-.2c0-.4,0-.8-.2-1.3,0,0,0-.1,0-.2-.3-1.4-.5-2.8-.7-4.4,0,0,0,0,0-.1-.1-1.4-.3-2.7-.6-4.1-.2-1.5-.4-2.9-.6-4.4-.1,.5-.2,1.1-.4,1.6l-5.3,26.5s-1,5-1,5l-.4,1.5c-.1,.9-.5,1.8-1.1,2.4-.5,.7-1.4,1.4-3.1,1.7-.6,.2-1.3,.3-2.1,.3s-.2,0-.3,0c-.4,0-.9,0-1.3,0H6.8c0,0-.2,0-.3,0-1.2-.1-2.1-.6-2.9-1.3-.6-.6-1.3-1.7-1.1-3.5,0,0,0-.1,0-.2l.4-2.2,1.7-8.8L12.2,25.4l2.8-14c0-.3,.1-.7,.2-1.2,0,0,0-.2,0-.2,.1-.6,.3-1.2,.4-1.8,.1-.6,.3-1.1,.4-1.6,0,0,0-.1,0-.2,.2-.6,.4-1.1,.6-1.4,0-.2,.2-.4,.3-.5,.7-.8,1.7-1.4,3-1.8,.3,0,.6-.1,.9-.1s0,0,.1,0c.2,0,.3,0,.5,0h16.3c1.8,0,3.1,.5,4.1,1.4,.6,.5,1.3,1.5,1.5,3.1,0,.5,.1,1,.3,1.5,0,0,0,.2,0,.2,.1,1,.3,2.1,.4,3.2,.2,1.1,.4,2.2,.5,3.3,.7,4.2,1.3,8.6,1.8,12.9,.5,4.2,1.2,8.5,1.9,12.7,.3,1.3,.5,2.8,.6,4.3,0,.4,0,.8,.1,1.2,.6-1.2,1.2-2.4,1.8-3.6,.7-1.5,1.6-3.1,2.5-4.7l6.4-12.1c2.2-4.1,4.4-8.3,6.5-12.4,.5-1.1,1.1-2.1,1.6-3.1,.6-1.1,1.2-2.1,1.7-3.1,.3-.6,.6-1.2,1-1.8,.5-.9,1.3-1.6,2.2-2.1,.9-.6,1.9-.9,2.9-.9h17.2c1.2,0,2.2,.3,2.9,.9,.8,.6,2.2,2,1.5,4.8-.2,1-.4,2.1-.6,3.2l-3,15.1-7.5,37.2-1.7,8.7c-.1,.8-.3,1.6-.5,2.4-.4,1.3-1,2.2-2,2.9-.8,.6-1.8,.9-2.8,1,0,0-.2,0-.3,0h-9.5c-.2,0-.5,0-.7,0-.4-.1-.7-.2-1-.2-1.1-.2-2-.9-2.6-2-.5-.8-.6-1.7-.5-2.8,0,0,0-.2,0-.3,.1-.5,.3-1.1,.4-1.6l1-5,5.2-25.6c0-.3,0-.7,.1-1,0,.1-.1,.2-.2,.3l-.5,1c-.2,.5-.5,1.1-.8,1.6-.4,.7-.9,1.5-1.3,2.3-.4,.9-.9,1.9-1.5,2.8,0,0,0,0,0,0s0,.1,0,.2c-.1,.4-.3,.8-.6,1.2-.3,.5-.6,1-.9,1.5-.3,.8-.8,1.6-1.3,2.4-.3,.4-.6,1-.9,1.5-.3,.8-.7,1.5-1.1,2.3-1.2,1.9-2.2,3.8-3.2,5.7-1,2-2.1,3.9-3.1,5.9,0,.1-.2,.2-.2,.4-.1,.4-.3,.8-.6,1.1-.4,.6-.7,1.2-1.1,1.9-.3,.7-.8,1.6-1.3,2.4-.3,.5-.6,1-.9,1.4-.4,.6-.9,1.1-1.4,1.6,0,0-.1,0-.2,.1-.7,.5-1.3,.7-2,.9-.2,0-.3,0-.5,0s-.2,0-.7,.1c-.2,0-.4,0-.6,0h-2.3c-.4,0-.9,0-1.5,0,0,0-.2,0-.2,0h-1.9Z"/><path class="bw" d="M92.9,5c.7,0,1.1,.1,1.4,.4,.7,.4,.9,1.2,.6,2.3-.2,1.1-.4,2.2-.6,3.3l-3,15-7.5,37.2-1.7,8.7c-.1,.7-.3,1.5-.5,2.2-.2,.7-.5,1.2-1,1.5-.5,.3-1,.5-1.6,.6h-9.5c-.5-.1-.9-.2-1.3-.3-.3,0-.6-.3-.8-.7-.2-.3-.3-.8-.2-1.3,.1-.5,.3-1.1,.4-1.7l1-5.1,5.2-25.7c.1-.9,.3-1.8,.4-2.6,.2-.9,.4-1.7,.5-2.6,.1-.5,.3-1.1,.4-1.6,.1-.6,.2-1.2,.2-1.7,0-.5,0-1,0-1.5,.1-.5,0-.9-.3-1,0,0-.1,0-.2,0-.1,0-.2,0-.3,.1-.1,.1-.2,.2-.3,.3-.3,.3-.6,.6-.9,1-.2,.3-.4,.7-.6,1-.6,1-1.2,2-1.8,3.1-.5,1.1-1.1,2.1-1.8,3.2-.2,.4-.4,.8-.6,1.2-.1,.4-.3,.8-.6,1.2-.5,.9-1,1.7-1.5,2.6-.4,.9-.9,1.7-1.4,2.6-.1,.2-.2,.4-.3,.7,0,.2-.2,.4-.3,.6-.4,.6-.8,1.2-1.1,1.9-.3,.7-.6,1.3-1.1,2-.4,.6-.8,1.2-1.1,1.9-.3,.7-.6,1.3-1,2-1.2,1.9-2.3,3.9-3.3,5.9-1,1.9-2,3.9-3.1,5.8-.2,.2-.3,.4-.4,.6,0,.2,0,.4-.3,.6-.5,.7-.9,1.5-1.3,2.3-.3,.7-.7,1.5-1.2,2.2-.3,.5-.5,.9-.8,1.3-.3,.4-.6,.7-.9,1-.4,.3-.8,.4-1.1,.5-.3,0-.8,0-1.3,.2h-2.3c-.5,0-1,0-1.7,.1h-1.9c-.6,0-1.2,0-1.7-.1-.5,0-.9-.2-1.1-.4-.5-.3-.8-.7-.9-1.1,0-.5-.2-1-.4-1.6-.1-.8-.2-1.6-.3-2.4,0-.9-.2-1.7-.4-2.5v-.9c-.3-.8-.4-1.6-.5-2.5,0-.9-.2-1.8-.4-2.6v-.5c0-.2,0-.4,0-.6-.2-.6-.3-1.2-.4-1.9,0-.7-.2-1.3-.3-2v-.5c0-.2,0-.4,0-.5-.1-.7-.2-1.3-.3-2,0-.7-.1-1.3-.3-2-.3-1.3-.5-2.7-.7-4.2-.1-1.5-.3-2.9-.6-4.3-.3-1.7-.5-3.4-.7-5.1-.1-1.7-.4-3.4-.9-5-.1-.9-.3-1.7-.6-2.3-.1-.1-.3-.2-.4-.3,0,0,0-.1-.2-.1s-.1,0-.2,.1c-.4,.2-.7,.5-.8,1,0,.5-.2,.9-.4,1.4-.3,.5-.4,1-.5,1.5,0,.5-.1,1-.2,1.5-.1,.7-.3,1.5-.5,2.2-.1,.7-.3,1.5-.5,2.2l-5.3,26.6-1,4.9c-.1,.5-.3,1.1-.4,1.6,0,.5-.3,1-.6,1.3-.3,.5-.9,.8-1.7,.9-.5,.1-1,.2-1.5,.2-.5,0-1.1-.1-1.6-.1H6.8c-.6,0-1.1-.3-1.4-.6-.3-.3-.5-.8-.4-1.5,.1-.7,.3-1.5,.4-2.2l1.7-8.8L14.6,25.9l2.8-14c0-.4,.1-.9,.2-1.4,.1-.6,.3-1.2,.4-1.7,.1-.5,.3-1,.4-1.5,.2-.5,.4-.9,.5-1.2,.4-.5,1-.8,1.8-1,0,0,.2,0,.2,0s.1,0,.2,0c.1,0,.3,0,.5,0h0s13.1,0,13.1,0h3.2c1.1,0,1.9,.2,2.4,.7,.4,.3,.6,.8,.7,1.5,0,.6,.2,1.2,.3,1.8,.1,1.1,.3,2.2,.4,3.3,.2,1.1,.4,2.2,.5,3.3,.7,4.2,1.3,8.5,1.8,12.8,.5,4.3,1.2,8.6,1.9,12.9,.3,1.3,.5,2.7,.6,4.1,.1,1.4,.3,2.8,.6,4.1,0,.3,.1,.7,.2,1s.2,.6,.5,.8c.1,0,.2,.1,.3,.2,0,0,0,0,.1,0,.1,0,.2,0,.4-.1,.5-.1,1-.5,1.3-1.2,.3-.7,.7-1.3,1-1.8,.8-1.5,1.6-3,2.3-4.5,.7-1.5,1.5-3.1,2.4-4.6,2.1-4.1,4.3-8.1,6.4-12.2,2.2-4.1,4.4-8.3,6.5-12.4,.5-1.1,1.1-2.1,1.6-3.1,.6-1.1,1.2-2.1,1.7-3.2,.3-.5,.6-1.1,.9-1.6,.3-.5,.8-1,1.4-1.3,.5-.3,1-.5,1.6-.5h17.2m0-5h-17.2c-1.5,0-3,.4-4.3,1.3-1.2,.7-2.2,1.7-3,2.9-.4,.7-.8,1.3-1.1,2-.5,1-1,2-1.6,3,0,0,0,0,0,0-.5,1-1.1,2.1-1.6,3.2-2.1,4.1-4.3,8.2-6.5,12.3l-6.4,12.2c-.3,.4-.5,.9-.7,1.4-.6-3.5-1.1-7-1.5-10.4-.5-4.4-1.1-8.7-1.8-13-.1-1.1-.3-2.2-.5-3.3-.1-1.1-.3-2.1-.4-3.2,0-.2,0-.3,0-.5,0-.4-.2-.8-.2-1.2-.2-2.3-1.3-3.8-2.3-4.7-1.4-1.3-3.4-2-5.8-2H21.6c-.2,0-.5,0-.7,0-.5,0-1,0-1.5,.2-1.8,.5-3.2,1.3-4.2,2.6-.3,.3-.5,.7-.7,1-.2,.4-.4,1-.7,1.7,0,.1,0,.3-.1,.4-.1,.5-.3,1.1-.4,1.7-.1,.6-.3,1.2-.4,1.8,0,.2,0,.3,0,.5,0,.4-.1,.8-.2,1.1l-2.8,13.9L2.2,62.1l-1.7,8.8s0,0,0,0v.7c-.1,0-.4,1.5-.4,1.5,0,.1,0,.3,0,.4-.2,2.2,.4,4.1,1.8,5.5,1.1,1.1,2.7,1.8,4.4,2,.2,0,.4,0,.6,0h7.2c.3,0,.7,0,1,0,.2,0,.4,0,.6,0,.9,0,1.8-.1,2.6-.3,2.2-.4,3.6-1.6,4.4-2.5,.9-1,1.5-2.2,1.7-3.6v-.6c.1,0,.3-.8,.3-.8,0,0,0-.1,0-.2l1-4.9,2.9-14.5c0,0,0,.2,0,.3,0,.2,0,.3,0,.5,0,.8,.2,1.7,.4,2.5,0,0,0,0,0,0h0c0,.3,0,.7,0,1,.1,.5,.2,1,.2,1.5,0,.9,.2,1.7,.5,2.5h0c0,.4,0,.8,.1,1.2,.1,.5,.2,1.1,.3,1.7,0,1,.2,2,.5,3v.6c0,.2,.1,.4,.2,.7,.1,.5,.2,1.1,.3,1.7,0,1,.2,1.9,.4,2.8,0,.3,.1,.5,.2,.8,.1,.4,.2,.7,.2,.7,0,.3,.1,.6,.2,.9,.3,.9,1,2.3,2.5,3.4,1,.8,2.2,1.3,3.6,1.5,.7,0,1.5,.1,2.3,.1h1.9c.2,0,.3,0,.5,0,.6,0,1,0,1.2,0h2.3c.4,0,.8,0,1.2-.1,.1,0,.2,0,.2,0,.3,0,.6,0,.8,0,1-.2,1.9-.6,2.9-1.2,.1,0,.2-.2,.3-.3,.7-.6,1.4-1.3,1.9-2.1,.3-.5,.6-1,.9-1.5,.5-.9,1-1.7,1.4-2.6,.3-.5,.5-1,.8-1.5,.3-.4,.6-.9,.8-1.4,0-.1,.1-.2,.2-.4,1.1-2,2.1-4,3.2-5.9,0,0,0,0,0,0,.9-1.9,2-3.7,3.1-5.5,0,0,0,0,0,0,.5-.8,.9-1.7,1.3-2.5,0-.1,.1-.2,.2-.4l-2.1,10.6-1,5.1c-.1,.5-.2,1-.4,1.5,0,.2,0,.4-.1,.6-.2,1.9,.3,3.4,.8,4.3,.9,1.7,2.4,2.9,4.2,3.2,0,0,.1,0,.2,0,.2,0,.5,0,.7,.2,.4,.1,.9,.2,1.4,.2h9.5c.2,0,.4,0,.6,0,1.5-.2,2.8-.7,4-1.5,1.4-1,2.4-2.4,2.9-4.1,0,0,0,0,0-.1,.2-.9,.4-1.7,.6-2.6l1.7-8.7,7.5-37.2,3-15s0,0,0-.1c.2-1.1,.4-2.1,.6-3.2,.7-3-.3-5.7-2.5-7.3-.9-.7-2.3-1.4-4.4-1.4h0Z"/></g><g id="f"><path d="M108.7,80.1c-.4,0-.8,0-1.2-.1h-.7c-.2,0-.5,0-.7,0-.2,0-.4,0-.6-.1-.2,0-.4,0-.5,0-.5,0-1,0-1.4-.2l-1.6-.4c-.8-.1-1.6-.3-2.3-.7-2-.8-3.8-2-5.1-3.3-1.5-1.6-2.5-3.5-3-5.9-.2-.6-.3-1.2-.4-1.8,0-.1,0-.2,0-.3,0-.4,0-.9,0-1.3-.1-.6,0-1.2,0-1.9,0-.1,0-.3,.1-.4,0-.3,0-.6,.1-1.5,0,0,0-.1,0-.2,.2-.8,.3-1.4,.6-1.9,.2-.6,.3-.9,.3-1.1,0-.2,.1-.5,.2-.7l1-2.2c.5-1,1-1.9,1.6-2.6,1.6-2.2,3.5-3.8,5.4-5,1.8-1.1,4.1-2,6.7-2.8,1.1-.4,2.2-.6,3.2-.8,.9-.1,1.8-.3,2.7-.5,.7-.2,1.4-.2,2.1-.3,.5,0,1-.1,1.4-.2,.5-.1,1-.2,1.5-.2s.4,0,.6,0c.2,0,.5,0,.9-.1,.7-.2,1.3-.3,2-.3s.6,0,.9-.1c1.5-.4,2.9-.6,4.1-.8,.8-.2,1.6-.6,2.4-1.2,.3-.3,.6-.6,.9-1,0-.4,.2-.7,.3-1.1,0,0,0,0,0-.1,0-.2,0-.3,.1-.4v-.9c-.2-1-.7-1.5-1.8-1.9-.2,0-.6-.2-1.4-.3,0,0-.1,0-.2,0-.4,0-.8,0-1.2,0s-.4,0-.7,0c0,0-.1,0-.2,0-.7,0-1.5,0-2.2,.2-.6,.1-1.2,.2-1.7,.4,0,0,0,0-.1,0-.2,0-.4,.2-.6,.3,0,0-.2,.1-.3,.2-.3,.2-.6,.3-.9,.5-.2,.1-.5,.4-.9,.8-.4,.4-.5,.6-.5,.7,0,.1-.1,.2-.2,.3-.4,.6-.8,1.2-1.1,1.7-.5,.8-1.4,1.9-3.3,2.4-.7,.2-1.5,.3-2.3,.3h-5.6c-.2,0-.4,0-.7,0-.1,0-.3,0-.4,0-.4,0-.8,0-1.1,0h-.6c-.2,0-.5,0-.7-.1-.6,0-1.1-.2-1.5-.5-.8-.4-1.9-1.3-2-3.3,0,0,0-.2,0-.2,0-.7,.1-1.3,.4-1.9,.2-.4,.3-.8,.5-1.1,.3-.7,.7-1.4,1.1-2.1,.5-.8,.9-1.5,1.4-2.1l1.6-2s0-.1,.1-.1c.8-.9,1.7-1.7,2.8-2.5,.1,0,.2-.2,.4-.2,.1-.1,.3-.2,.4-.3,.4-.2,.7-.4,.9-.6,0,0,.1,0,.2-.1,.4-.2,.8-.4,1.2-.7,1.4-.8,2.9-1.4,4.4-1.9,1.4-.5,2.8-.9,4.2-1.3,0,0,0,0,.1,0,1-.2,2-.4,3-.5,.8,0,1.5-.2,2.4-.4,.3,0,.6-.1,1-.1s.6,0,1,0c0,0,0,0,0,0,.2,0,.5-.1,.7-.1,.6,0,1.1,0,1.7,0,2.2,0,4.4,.1,6.4,.3,2.7,.3,5.1,.8,7.1,1.7,2.2,.8,4.1,2,5.6,3.6,1.6,1.5,2.7,3.6,3.2,6,.3,1.5,.3,3,0,4.7-.2,1.5-.5,3.1-.8,4.7l-4.5,22.2c-.2,1.3-.4,2.6-.7,3.9-.2,1.1-.3,2-.3,2.9,0,0,0,.1,0,.2,0,.3,0,.6-.1,1v.3c0,.9,0,1.8-.2,2.6-.3,1.6-1.3,2.8-2.8,3.4-.8,.3-1.6,.5-2.4,.5h-8.8c-.1,0-.2,0-.3,0-1-.1-1.8-.5-2.5-1-.6-.5-1.1-1.1-1.4-1.8-.2,.1-.4,.2-.6,.3-.4,.3-.9,.5-1.4,.7-.4,.2-.9,.4-1.4,.6-1,.4-2.1,.8-3.2,1.1,0,0-.1,0-.2,0-.9,.2-1.9,.4-2.8,.7-.7,.2-1.3,.3-1.9,.3-.4,0-.8,.1-1.2,.2-.1,0-.2,0-.4,0h-.3c-.3,0-.6,.1-.9,.1h-.9c-.4,0-.9,.1-1.3,.1Zm3-15c.7,.3,1.4,.5,2.2,.7,.6,.1,1.3,.2,2.1,.2h0c.2,0,.5,0,.7,0,1.1-.1,2.1-.3,3.1-.6,1.5-.4,2.7-1.1,3.6-1.9,1-1,1.9-2.2,2.6-3.6,.1-.3,.3-.7,.4-1,.1-.5,.3-1.1,.6-1.7v-.6c.2-.1,.2-.3,.3-.4,0-.2,.1-.4,.2-.6,0-.1,0-.2,0-.4-.6,.2-1.1,.3-1.8,.3-.4,0-.9,.1-1.4,.2-.4,.1-.8,.2-1.3,.2-1,.2-1.9,.3-2.8,.4-.7,0-1.4,.2-2.1,.4,0,0-1.7,.4-1.7,.4,0,0-.2,0-.3,0-.2,0-.5,.1-.8,.2-1.3,.5-2.4,1.2-3.3,2.2-.8,.8-1.2,1.9-1.4,3.5,0,.3,0,.9,.2,1.2,0,.2,.2,.3,.2,.5,0,.1,.2,.3,.5,.4Z"/><path class="bw" d="M127.8,23.4c2.1,0,4.2,.1,6.1,.3,2.5,.3,4.6,.8,6.5,1.5,1.9,.7,3.5,1.7,4.7,3,1.3,1.2,2.1,2.8,2.5,4.7,.2,1.1,.2,2.4,0,3.9s-.5,3-.8,4.5l-4.5,22.3c-.2,1.3-.4,2.6-.7,3.9-.3,1.3-.4,2.4-.3,3.5,0,.2,0,.4-.1,.7v.6h0c0,.7,0,1.5-.2,2.2-.1,.7-.6,1.2-1.3,1.5-.5,.2-1,.3-1.5,.3h-8.8c-.5,0-.9-.2-1.2-.5-.4-.3-.7-.6-.8-1.1-.1-.5-.4-1-.7-1.3-.1-.1-.3-.2-.5-.3,0,0-.2-.1-.4-.1s-.2,0-.3,0c-.4,.1-.8,.3-1.1,.5-.3,.2-.7,.4-1,.5-.4,.3-.8,.5-1.3,.7-.4,.2-.8,.4-1.3,.6-.9,.4-1.9,.7-2.9,1-1,.2-2,.4-3,.7-.5,.1-1,.2-1.5,.2-.4,0-.8,.1-1.3,.2h-.6c-.2,0-.4,0-.6,0h-1.1c-.4,0-.7,.1-1,.1s-.7,0-1-.1h-.9c-.5-.1-.9-.2-1.4-.2-.1,0-.3,0-.4,0-.3,0-.5,0-.8-.1-.6-.1-1.2-.3-1.8-.4-.6,0-1.1-.2-1.6-.5-1.8-.7-3.3-1.7-4.4-2.8-1.1-1.2-1.9-2.8-2.3-4.7-.1-.5-.2-1-.3-1.5,0-.5,0-1.1,0-1.7,0-.3,0-.7,0-1,.1-.3,.2-.7,.2-1s0-.6,.1-1.2c.1-.7,.3-1.1,.4-1.4,.3-.7,.4-1.2,.5-1.7,.3-.7,.7-1.5,1-2.2,.4-.8,.8-1.5,1.3-2.1,1.5-1.9,3-3.4,4.7-4.4s3.7-1.9,6.2-2.6c.9-.3,1.9-.6,2.8-.7,.9-.1,1.9-.3,2.9-.5,.5-.1,1.1-.2,1.7-.2,.7,0,1.3-.2,1.9-.3,.3,0,.6-.1,.9-.1s.3,0,.5,0c.5,0,1,0,1.6-.2,.5-.1,.9-.2,1.4-.2s1,0,1.5-.2c1.5-.3,2.8-.6,4-.8,1.3-.3,2.5-.9,3.6-1.8,.7-.6,1.2-1.3,1.6-2,0-.2,.1-.4,.1-.5s0-.3,0-.4c.1-.1,.2-.3,.2-.6,0-.3,.1-.5,.2-.6v-1.5c-.3-2-1.4-3.4-3.4-4.1-.5-.2-1.2-.3-2.1-.4-.5,0-1.1-.1-1.6-.1s-.6,0-.9,0c-.9,0-1.7,0-2.6,.2-.8,.1-1.5,.3-2.1,.5-.5,.1-.9,.3-1.3,.6-.4,.2-.8,.4-1.2,.7s-.8,.6-1.3,1.1c-.5,.5-.8,.9-1,1.3-.5,.7-.9,1.3-1.2,1.9s-.9,1-1.7,1.2c-.5,.1-1.1,.2-1.7,.2h-5.6c-.3,0-.7,0-1.1,0-.3,0-.6,0-.8,0h-.9c-.1,0-.3-.1-.5-.1s-.4,0-.5-.2c-.5-.1-.7-.6-.8-1.3,0-.3,0-.7,.2-1,.1-.3,.3-.6,.4-.9,.3-.7,.7-1.4,1-2,.4-.7,.8-1.3,1.2-1.8,.3-.3,.5-.7,.8-1,.3-.3,.5-.7,.8-1,.7-.7,1.5-1.4,2.4-2.1,.2,0,.4-.2,.7-.5,.4-.3,.7-.5,1-.7,.3-.2,.7-.4,1.1-.6,1.3-.7,2.6-1.3,3.9-1.7,1.4-.5,2.8-.9,4.2-1.3,.9-.2,1.7-.3,2.6-.4,.9,0,1.8-.2,2.7-.4,.1,0,.3,0,.5,0s.4,0,.7,0c.2,0,.3,0,.5,0,.3,0,.5,0,.6-.1,.5,0,1.1,0,1.6,0m-11.8,45c.3,0,.6,0,.9,0,1.3-.1,2.5-.4,3.6-.7,1.9-.5,3.4-1.4,4.6-2.5,1.3-1.2,2.3-2.7,3.2-4.4,.2-.5,.4-.9,.5-1.4,.1-.5,.3-1.1,.6-1.6l.2-.9h0c.1-.3,.2-.7,.3-1.1,0-.5,.1-.9,.1-1.2s0-.8,.1-1.1c0-.3,0-.6-.3-.8-.3-.3-.7-.4-1.4-.4-.3,0-.5,.1-.7,.2-.2,0-.5,0-.8,.1-.5,.1-1,.2-1.5,.3-.5,0-1.1,.2-1.7,.3-.2,0-.5,0-.9,0-.9,.2-1.8,.3-2.7,.4-.9,0-1.7,.2-2.6,.5-.5,.1-1.1,.3-1.6,.4-.5,0-.9,.2-1.4,.4-1.5,.6-2.9,1.5-4.1,2.7-1.2,1.2-1.9,2.9-2.1,5,0,1.1,.1,2.1,.6,2.8,.3,.7,.8,1.3,1.7,1.8,.9,.4,1.8,.7,2.9,.9,.8,.1,1.6,.2,2.5,.2m11.8-50c-.6,0-1.2,0-1.7,0-.3,0-.5,0-.8,0-.3,0-.6,0-.9,0-.6,0-1.1,0-1.6,.2-.7,.1-1.4,.2-2,.3-1.1,0-2.2,.3-3.3,.5,0,0-.2,0-.2,0-1.4,.4-2.9,.9-4.3,1.3-1.6,.5-3.2,1.2-4.8,2.1-.5,.2-.9,.5-1.3,.7-.1,0-.3,.2-.4,.3-.1,0-.4,.3-.8,.5-.2,.1-.3,.2-.5,.4-.1,0-.2,.2-.4,.2-1.2,.9-2.3,1.8-3.2,2.8,0,0-.1,.2-.2,.2l-.4,.6-.4,.4-.8,1s0,0,0,.1c-.5,.7-1,1.4-1.5,2.2,0,0,0,0,0,.1-.4,.7-.8,1.5-1.1,2.3-.2,.4-.4,.8-.5,1.2-.4,.9-.6,1.9-.6,2.9s0,.3,0,.5c.2,2.7,1.7,4.3,3.2,5.2,.6,.4,1.4,.7,2.1,.8-.6,.3-1.3,.6-1.8,1-2.2,1.3-4.3,3.2-6.1,5.6-.7,.9-1.3,1.8-1.8,2.9,0,0,0,.1,0,.2l-1,2.2c-.2,.4-.3,.9-.4,1.4,0,0,0,0,0,0,0,0,0,.1-.1,.4-.3,.6-.5,1.4-.7,2.4,0,.1,0,.3,0,.4,0,.6,0,1-.1,1.3,0,.2,0,.3-.1,.5-.2,.9-.2,1.8,0,2.7,0,.4,0,.7,0,1s0,.4,0,.6c0,.7,.2,1.4,.4,2.1,.6,2.8,1.8,5.1,3.5,6.9,0,0,0,0,0,.1,1.5,1.5,3.5,2.8,5.8,3.8,.9,.5,1.9,.8,2.9,.9l.7,.2,.7,.2c.7,.2,1.4,.3,2.1,.3s.3,0,.5,0c.4,.1,.9,.2,1.3,.2h.5c.5,0,.9,.1,1.4,.1s1,0,1.4-.1h.7c.4,0,.8,0,1.2,0h0c.2,0,.5,0,.7,0,.4,0,.7-.1,1.1-.2,.7,0,1.5-.1,2.2-.3,0,0,0,0,0,0,.9-.2,1.8-.4,2.7-.6,.1,0,.2,0,.3,0,1.2-.3,2.4-.7,3.6-1.2,.5-.2,1-.4,1.4-.7,0,0,.1,0,.2,0,.2,.2,.4,.4,.7,.6,.8,.6,2,1.3,3.7,1.6,.2,0,.4,0,.6,0h8.8c1.2,0,2.3-.2,3.3-.7,2.3-.9,3.9-2.8,4.4-5.3,.2-1,.3-2.1,.3-3.1h0c0-.5,.1-.9,.1-1.3s0-.2,0-.3c0-.6,0-1.3,.2-2.2,0,0,0,0,0,0,.3-1.4,.5-2.7,.7-4l4.5-22.2c.4-1.6,.6-3.3,.9-4.8,.3-2,.3-3.8,0-5.4,0,0,0,0,0-.1-.6-2.9-1.9-5.3-3.9-7.2-1.7-1.8-3.9-3.1-6.4-4.1-2.3-.9-4.9-1.5-7.8-1.8-2.1-.2-4.3-.3-6.6-.3h0Zm-4.4,19.6c.6,0,1.2-.1,1.8-.1s.3,0,.4,0c.2,0,.3,0,.5,0,.3,0,.6,0,.8,0,.1,0,.3,0,.4,0,.5,0,.8,.1,.8,.1,0,0,0,0,.1,0h0c0,0,0,.1,0,.2-.1,.3-.2,.6-.3,.9,0,0,0,.1-.1,.2-.4,.4-.9,.6-1.3,.7-1.3,.2-2.6,.5-4.2,.8,0,0,0,0-.1,0-.2,0-.3,0-.3,0-.9,0-1.7,.1-2.6,.3-.1,0-.2,0-.2,0,.2-.4,.5-.7,.7-1.1,.1-.2,.2-.3,.3-.5,0,0,0,0,.1-.2,.3-.3,.5-.5,.5-.5,.2-.2,.4-.3,.7-.4,.2,0,.3-.2,.5-.3,0,0,.1,0,.2,0,.2,0,.7-.2,1.3-.3h0Zm0,20.3c.2,0,.4,0,.5,0,0,.2-.1,.3-.2,.5-.6,1.1-1.3,2.1-2.1,2.9-.6,.6-1.5,1-2.5,1.3-.8,.2-1.7,.4-2.6,.5-.2,0-.3,0-.5,0-.6,0-1.1,0-1.6-.1-.4,0-.8-.2-1.1-.3,0-.6,.2-1.4,.6-1.8,.7-.7,1.5-1.2,2.4-1.6,0,0,0,0,.1,0,0,0,.1,0,.1,0,.2,0,.3,0,.5,0l.9-.2,.7-.2c0,0,.2,0,.3,0,.5-.2,1-.3,1.5-.3,.9,0,1.9-.2,2.9-.4h0Z"/></g><g id="g"><path d="M227,80c-.2,0-.4,0-.6,0-.5,0-.9,0-1.3-.1-.1,0-.3,0-.4,0s-.2,0-.2,0c-.3,0-.5,0-.8,0-.5,0-1,0-1.6-.2,0,0-.2,0-.2,0,0,0,0,0-.2,0-.6,0-1.2,0-1.7-.3-.7-.1-1.4-.3-2.1-.5-.8-.2-1.6-.5-2.3-.9-.6-.2-1.1-.4-1.6-.6,0,0-.2,0-.2,0-.7-.3-1.4-.7-2-1.1-2.1-1.5-3.9-3.2-5.3-5.1,0,0,0,0,0,0-1.4-2-2.5-4.4-3.2-7-.2-.8-.4-1.7-.5-2.6,0,0,0-.2,0-.2,0-.6,0-1.2-.2-1.8,0-.2,0-.4,0-.6v-.7c0-.2,0-.4,0-.6,0,0,0,0,0-.1,0-.9,0-1.8,0-2.8,0,0,0-.1,0-.2l.4-2.8s0,0,0-.1c0-.2,0-.4,0-.6s0-.3,0-.4c0-.5,.2-1,.4-1.4l.3-1.1c0,0,0-.1,0-.2l.8-2.4c0,0,0-.1,0-.2,.5-1.1,.9-2.2,1.3-3.2,.5-1.2,1-2.4,1.7-3.5,4.5-7.3,10.9-12.6,18.8-15.7,1.1-.5,2.3-.8,3.5-.9,1-.2,2-.4,3-.7,0,0,.2,0,.3,0,.6,0,1.2-.1,1.8-.1s.8,0,1.2,0c0,0,.2,0,.3,0,.3,0,.5,0,.8,0,3.4,0,6.3,.5,8.7,1.4,2.5,.9,4.7,2.1,6.6,3.6,.6,.4,1.2,1,1.7,1.6,.7,.6,1.2,1.2,1.6,1.9,0,0,0,0,0,.1,.3,.2,.5,.5,.7,.8,.4,.8,.8,1.7,1.1,2.6,.3,.7,.6,1.4,1,2.1,0,.1,0,.2,.1,.3,.2,.7,.4,1.5,.5,2.3,.1,.6,.3,1.2,.4,2,.2,1,.2,2,.2,3.1l.2,2.7c0,0,0,.1,0,.2,0,.7-.1,1.6-.4,2.4,0,.3,0,.5,0,.8,0,.3,0,.5,0,.8l-.2,.9c0,.8-.2,1.6-.6,2.5-.5,1.1-1.1,2-2,2.5-.6,.4-1.4,.8-2.4,.9,0,0-.2,0-.2,0-.7,0-1.4,.1-2.2,.2,0,0-.1,0-.2,0h-2.3c0,0-.2,0-.2,0-.7,0-1.2,0-1.8,0h-25.8c-.1,0-.2,0-.2,0-.1,0-.2,.1-.3,.1,0,0,0,0-.1,.1,0,0,0,0-.1,.2,0,.4,0,.8,0,1.2,0,.2,0,.3,0,.5,0,0,0,0,0,.1,.2,1.3,.4,2.3,.8,3.1,.4,.7,1,1.3,1.8,1.9,.2,.1,.4,.2,.5,.3,.7,0,1.3,.2,1.9,.5,.3,0,.8,.1,1.6,.2,.2,0,.5,0,.7,0,.4,0,.8,0,1.2,0,.1,0,.3,0,.4,0h.7c.5-.1,1-.2,1.5-.3l1.5-.5c.6-.3,1.4-.7,2.2-1.1,.9-.5,1.3-.9,1.6-1.1,.4-.5,.9-1,1.4-1.4,.7-.7,1.4-1.2,2.2-1.5,.9-.4,1.9-.6,3.1-.6s.4,0,.6,0h3.9c.2,0,.4,0,.6,0,.4,0,.8,0,1.1,.1h.6c.2,0,.4,0,.5,0,1,.2,1.7,.5,2.2,.9,.5,.4,1.4,1.3,1.2,3.1,0,.9-.2,1.6-.7,2.3-.6,1-1.2,1.9-1.9,2.7-.6,.8-1.2,1.6-1.9,2.4-2,2.3-4.2,4.3-6.5,5.7-2.3,1.4-5.1,2.7-8.3,3.7-.9,.3-1.9,.5-2.8,.6-.6,0-1.3,.2-2.1,.3-.3,0-.6,.1-1,.1s-.4,0-.6,0c0,0,0,0,0,0-.2,0-.4,0-.6,0h-.8c-.4,0-.8,.1-1.1,.1Zm13.9-37.5c.2,0,.4,0,.4,0,0,0,0,0,0,0,0,0,0,0,0-.2,0,0,0-.1,0-.2-.1-.8-.2-1.5-.3-1.9-.4-1.2-1-2.1-1.9-2.6-.6-.5-1.8-1-4.2-1.1-.3,0-.6,.1-.9,.1s-.4,0-.5,0c-.4,.1-.8,.2-1.2,.3-.1,0-.3,0-.4,0s-.2,0-.2,0c0,0-.1,0-.2,0-2.6,.8-4.7,2.3-6.3,4.5-.1,.2-.3,.4-.6,.9,0,0-.1,.2-.2,.3h16.4Z"/><path class="bw" d="M237.2,23.3c3.1,0,5.7,.4,7.8,1.2,2.3,.8,4.2,1.9,5.9,3.2,.5,.4,1,.9,1.5,1.4,.5,.5,1,1,1.3,1.5,.1,.3,.4,.6,.7,.8,.4,.7,.7,1.5,1,2.3,.3,.7,.7,1.5,1.1,2.3,.2,.6,.3,1.2,.4,1.9,.1,.6,.3,1.3,.4,2,.1,.9,.2,1.8,.2,2.7,0,.9,.1,1.9,.2,2.8,0,.5,0,1.1-.3,1.8-.1,.6-.2,1.2,0,1.7l-.2,1.1h0c0,.5-.1,1.1-.4,1.8-.3,.7-.6,1.1-1,1.3-.3,.3-.8,.5-1.5,.6-.7,0-1.4,.1-2.2,.2h-2.3c-.7,0-1.4,0-2,0h-25.8c-.4,0-.8,0-1.1,.2-.6,.3-1,.5-1.2,.8-.1,.1-.3,.4-.6,.8-.2,.3-.3,.7-.3,1,0,.4,0,.8,0,1.2,0,.3,0,.7,.1,1.1,.2,1.6,.6,2.9,1.1,4,.6,1,1.5,1.9,2.6,2.7,.5,.3,1,.6,1.5,.7,.6,0,1.2,.2,1.7,.4,.5,.1,1.2,.2,2.1,.3,.3,0,.6,0,.9,0,.6,0,1.1,0,1.6-.1h.9c.7-.1,1.3-.3,1.9-.4,.6-.2,1.2-.4,1.8-.6,.7-.3,1.6-.8,2.5-1.3s1.7-1.1,2.2-1.6c.4-.5,.8-.9,1.3-1.3,.5-.5,1-.8,1.5-1,.6-.3,1.3-.4,2.1-.4s.3,0,.5,0h4.1c.2,0,.3,0,.4,0,.3,0,.5,0,.8,.1h1c.6,.1,1,.3,1.3,.5,.2,.1,.3,.4,.2,.9,0,.5-.1,.9-.3,1.2-.5,.9-1.1,1.8-1.7,2.5-.5,.7-1.1,1.5-1.8,2.2-1.9,2.2-3.9,4-6,5.3-2.1,1.3-4.7,2.5-7.7,3.4-.8,.3-1.6,.4-2.3,.5-.7,0-1.5,.2-2.4,.4-.1,0-.3,0-.4,0s-.3,0-.5,0c-.3,0-.5,0-.8,.1h-1.1c-.3,0-.5,.1-.8,.1s-.3,0-.4,0c-.4,0-.8,0-1.1-.1-.3,0-.5,0-.8,0s-.4,0-.6,0c-.1,0-.3,0-.4,0-.3,0-.6,0-.9-.1-.3-.1-.7-.2-1.1-.2s-.7,0-1-.2c-.7-.1-1.5-.3-2.2-.5-.7-.1-1.3-.4-1.8-.7-.7-.3-1.3-.5-1.9-.7-.6-.3-1.1-.6-1.6-.9-1.9-1.3-3.5-2.9-4.8-4.6-1.3-1.8-2.2-3.9-2.8-6.2-.2-.7-.3-1.5-.4-2.2,0-.8,0-1.6-.3-2.4v-.7c0-.3,.1-.5,.1-.8,0-.8,0-1.7,0-2.6,.1-.9,.3-1.9,.4-2.8,0-.3,.1-.7,.1-1.1,0-.4,.2-.8,.3-1.1l.3-1.2,.8-2.4c.5-1.1,.9-2.2,1.3-3.3,.4-1.1,.9-2.1,1.5-3,4.3-6.9,10.1-11.8,17.6-14.7,1-.4,2-.7,3-.8,1-.2,2.1-.4,3.2-.7,.5,0,1-.1,1.5-.1s1,0,1.5-.1c.2,0,.5,0,.7,0m-3.2,10.6c0,0-.2,0-.3,0-.1,0-.3,0-.4,0s-.2,0-.3,0c-.4,.1-.8,.2-1.2,.3-.4,0-.8,0-1.1,.2-3.1,.9-5.7,2.8-7.6,5.5-.2,.3-.4,.6-.7,1.1-.3,.4-.5,.8-.6,1.3-.1,.4-.2,.8-.2,1.2s.2,.7,.5,1c.5,.3,1.2,.5,2.1,.5h16.7c1.1,0,1.8-.4,2.2-.9,.6-.7,.8-1.5,.6-2.4-.1-1-.2-1.7-.3-2.2-.6-1.8-1.6-3.2-2.9-4.1-1.3-1-3.4-1.5-6.1-1.6-.1,0-.3,.1-.4,.1m3.2-15.6c-.3,0-.5,0-.8,0-.2,0-.3,0-.5,0-.3,0-.6,0-.9,0-.7,0-1.4,0-2.1,.1-.2,0-.4,0-.5,0-1,.2-2,.5-2.9,.6-1.3,.2-2.7,.6-4,1.1-8.5,3.3-15.2,8.9-20,16.7-.8,1.2-1.4,2.5-1.9,3.9-.4,1-.8,2.1-1.2,3.2,0,.1,0,.2-.1,.3l-.8,2.4c0,.1,0,.2-.1,.4l-.2,.9c-.2,.6-.3,1.1-.4,1.8,0,.3,0,.5,0,.8s0,.1,0,.1c0,0,0,.2,0,.3l-.3,2.2v.6c0,.1-.1,.2-.1,.4,0,1,0,2,0,2.9,0,.3,0,.6,0,.9v.7c0,.4,0,.8,.1,1.2,.1,.4,.2,.8,.2,1.2s0,.3,0,.5c0,1,.3,2,.5,3,.7,2.9,1.9,5.5,3.5,7.8,0,0,0,.1,.1,.2,1.6,2.1,3.6,4,5.9,5.6,.7,.5,1.6,1,2.5,1.4,.1,0,.3,.1,.4,.2,.4,.1,.8,.3,1.3,.5,.9,.5,1.8,.8,2.8,1.1,.7,.2,1.3,.3,2,.5,.6,.2,1.3,.3,2.1,.4,0,0,0,0,0,0,.8,.2,1.5,.3,2.3,.3s.7,0,1.1,0c.5,0,1,.1,1.5,.1,.3,0,.5,0,.8,0,.5,0,.9,0,1.4-.1h.5c.3,0,.5,0,.8,0,.2,0,.3,0,.5,0,.5,0,1.1,0,1.6-.2,.6-.1,1.2-.2,1.7-.3,1.1,0,2.2-.3,3.4-.7,3.4-1.1,6.3-2.4,8.8-3.9,2.5-1.6,4.9-3.7,7.1-6.2,.7-.8,1.4-1.6,2-2.4,.7-.9,1.4-1.9,2.1-3,.6-1,.9-2.2,1-3.4,.1-1.5-.2-2.9-1-4,.6-.2,1.1-.5,1.6-.8,1.3-.8,2.3-2,2.9-3.6,.4-1.1,.7-2.1,.7-3.1v-.8c.2-.5,.2-1,.2-1.4,.3-1,.4-2,.4-3s0-.2,0-.4v-1.4c-.1,0-.2-1.2-.2-1.2,0-1.1,0-2.2-.3-3.3,0,0,0,0,0-.1-.1-.7-.3-1.3-.4-1.9-.1-.9-.3-1.8-.6-2.7,0-.2-.2-.4-.3-.7-.3-.7-.6-1.3-.9-1.9-.3-1-.8-1.9-1.3-2.8-.3-.5-.6-.9-1-1.3-.5-.8-1.1-1.5-1.9-2.2-.6-.7-1.3-1.3-2-1.8-2.1-1.6-4.5-3-7.2-3.9-2.7-1-5.9-1.5-9.5-1.5h0Zm-3.2,20.6c.4,0,.7,0,1.1,0,1.9,.1,2.4,.5,2.5,.6,0,0,0,0,.1,0,0,0,.3,.2,.5,.5h-7.9c.6-.3,1.2-.6,1.9-.8,0,0,0,0,0,0,.2,0,.3,0,.5,0,.3,0,.7-.1,1-.2,.1,0,.2,0,.3,0h0Zm-10.2,19.9h12.8c-.2,.2-.5,.5-.7,.7-.1,.1-.5,.4-1.1,.7-.7,.4-1.3,.7-1.9,1h0s-1.3,.4-1.3,.4c-.3,0-.7,.2-1.1,.2h-.4c-.3,0-.6,0-.9,0-.1,0-.4,0-.7,0s-.4,0-.5,0c-.5,0-.9,0-1.1-.1-.6-.2-1.2-.3-1.8-.5-.4-.3-.8-.6-1-1-.1-.3-.3-.9-.5-1.7h0Z"/></g><g id="h"><path d="M298.7,78.8c-.9,0-1.7,0-2.4-.1,0,0-.2,0-.3,0-1.3-.3-2.3-1-2.9-2.1,0,0,0,0,0-.1-.4-.8-.6-1.8-.4-2.9,0,0,0-.1,0-.2,.1-.7,.3-1.3,.4-2.1l1.4-7,3-14.9c.4-2.4,.8-4.6,1-6.5,.2-1.7,0-3-.4-4-.2-.5-.7-1.1-2-1.5,0,0-.1,0-.2,0,0,0,0,0-.2,0-.5,0-1.1,0-1.6-.2-.2,0-.3,0-.4,0-.1,0-.2,0-.3,0-.4,0-.5,0-.5,0,0,0,0,0-.1,0-.5,0-.8,.1-1.2,.1,0,0,0,0,0,0-1.3,.3-2.4,.8-3.3,1.3-2,1.2-3.3,3-4.2,5.4-.9,2.8-1.7,6-2.4,9.6l-2.5,12.5-1.2,6.1-.4,1.9c-.2,.9-.5,1.7-1,2.3-.8,1.3-2.1,2.1-3.6,2.4-.9,.2-1.9,.2-3.1,.2h-5c-.8,0-1.6,0-2.4-.1-2-.2-2.9-1.2-3.3-1.9-.7-1.2-.9-2.7-.5-4.4,.3-1.1,.5-2.1,.7-3.1l2.7-13.6,4.4-22,1.1-5.1c.1-.7,.3-1.4,.4-2,.2-1,.8-2,1.5-2.7,.4-.4,.9-.9,1.8-1.1,.4-.2,.8-.3,1.2-.4,.2,0,.3,0,.5,0h.3c.4,0,.8-.1,1.2-.1h5.3c.6,0,1.1,0,1.7,.1,.7,0,1.4,.1,2,.3,.1,0,.2,0,.3,.1,1.1,.5,1.8,1.4,2,2.5,0,.1,0,.3,.1,.4,.2-.2,.5-.3,.7-.4,2.2-1.4,4.6-2.6,7.1-3.4,.9-.3,1.7-.4,2.4-.5,.6,0,1.2-.1,1.9-.3,.3,0,.6-.1,.9-.1s.4,0,.7,0c.2,0,.4,0,.6,0,.4,0,.8,0,1.2,0,3.9,0,7.1,.7,9.6,2,3,1.5,5.1,3.8,6.3,6.8,.4,1,.7,2,.8,3.1,.1,.8,.2,1.7,.3,2.6,0,.7,0,1.4,0,2.1,0,.2,0,.5,0,.7,0,.4,0,.7,0,1.1,0,0,0,.2,0,.3,0,1-.2,2.1-.4,3.2-.2,1-.4,2-.6,2.9l-1.7,8.8-3.3,16.2c-.3,1.3-.5,2.5-.8,3.7-.5,2-1.7,3.4-3.6,4-.6,.2-1.4,.3-2.2,.3h-7Z"/><path class="bw" d="M301.4,23.4c3.5,0,6.3,.6,8.5,1.7,2.5,1.3,4.2,3.1,5.2,5.6,.3,.7,.5,1.5,.6,2.4,.1,.8,.2,1.6,.3,2.5,0,.5,0,1,0,1.5s0,.9,0,1.4c-.1,.4-.2,.7,0,.8,0,.9-.2,1.9-.4,2.9s-.4,2-.6,2.9l-1.7,8.9-3.3,16.2c-.3,1.3-.5,2.5-.8,3.7-.3,1.1-.9,1.9-1.9,2.2-.4,.1-.9,.2-1.4,.2h-7c-.8,0-1.5,0-2.1-.1-.6-.1-1-.4-1.3-.9-.2-.4-.3-.9-.2-1.5,.1-.7,.3-1.4,.4-2.1l1.4-7,3-14.9c.5-2.5,.8-4.7,1-6.8,.3-2.1,0-3.9-.7-5.4s-1.8-2.3-3.5-2.8c-.3-.1-.7-.2-1.1-.2s-.7,0-1-.2c-.2,0-.4,0-.6,0s-.5,0-.7,0c-.5,0-.8,0-1.1,.1-.3,0-.6,.1-.8,.1s-.4,0-.6,0c-1.6,.4-2.9,.9-4,1.6-2.5,1.5-4.2,3.8-5.2,6.7-.9,2.9-1.8,6.2-2.5,9.9l-2.5,12.5-1.2,6.1c-.1,.6-.3,1.2-.4,1.8s-.3,1.1-.6,1.5c-.5,.7-1.1,1.2-1.9,1.3-.7,.1-1.6,.2-2.7,.2h-5c-.7,0-1.5,0-2.2-.1-.7,0-1.2-.3-1.4-.7-.4-.6-.5-1.5-.2-2.6,.3-1.1,.5-2.2,.7-3.2l2.7-13.6,4.4-22,1.1-5.1c.1-.7,.3-1.4,.4-2,.1-.6,.4-1.1,.9-1.5,.1-.2,.4-.3,.7-.4,.3-.1,.7-.2,1-.3h.5c.3,0,.7-.1,1-.1h5.3c.5,0,1,0,1.5,.1,.5,0,1,0,1.4,.2,.4,.2,.6,.5,.7,.9,.1,.4,.2,.9,.2,1.4s0,.5-.1,.7c0,.2,0,.4,0,.6,0,.3,.1,.5,.2,.6,.1,0,.3,.2,.5,.3,0,0,.1,0,.2,0,.6,0,1.1-.2,1.7-.7,.6-.6,1.2-1.1,1.8-1.4,2.1-1.3,4.3-2.4,6.6-3.2,.7-.2,1.3-.3,1.9-.4,.7,0,1.4-.2,2.2-.3,.1,0,.2,0,.4,0s.3,0,.5,0c.4,0,.7,0,.8-.1,.4,0,.8,0,1.1,0m0-5c-.4,0-.9,0-1.3,0-.2,0-.4,0-.7,0-.2,0-.3,0-.5,0-.5,0-.9,0-1.4,.1-.6,0-1.2,.2-1.7,.2,0,0,0,0,0,0-.9,0-1.8,.3-2.8,.6,0,0-.1,0-.2,0-2,.7-4,1.6-5.9,2.7-.5-.7-1.2-1.2-2-1.6-.2-.1-.4-.2-.7-.3-.8-.3-1.7-.4-2.6-.5-.6,0-1.2-.1-1.9-.1h-5.3c-.5,0-.9,0-1.4,.1h0c-.3,0-.7,0-1,0-.5,.1-1,.2-1.5,.4-1.1,.3-2.1,.9-2.8,1.7-1.1,1.1-1.8,2.4-2.2,3.9-.1,.6-.3,1.3-.4,2.1l-1.1,5s0,0,0,0l-4.4,22-2.7,13.6c-.2,.9-.4,2-.7,3-.7,3,0,5.1,.8,6.3,.6,1,2.1,2.8,5.2,3.1,.9,0,1.8,.1,2.7,.1h5c1.4,0,2.5,0,3.6-.3,2.2-.4,4-1.6,5.2-3.5,.6-.9,1-2,1.3-3.1v-.2c0,0,.4-1.6,.4-1.6,0,0,0,0,0-.1l1.2-6.1,2.5-12.5c.7-3.4,1.5-6.6,2.3-9.3,.6-1.8,1.6-3.1,3.1-4,.4-.3,1.2-.6,2.4-1,.4,0,.8,0,1.3-.2,0,0,0,0,0,0,0,0,0,0,.1,0,.2,0,.3,0,.5,0,.5,.1,1,.2,1.5,.2,.3,.1,.4,.2,.5,.2,.3,.6,.4,1.4,.2,2.6,0,0,0,0,0,.1-.2,1.9-.5,4-.9,6.3l-3,14.9-1.4,7s0,0,0,0c-.1,.7-.3,1.4-.4,2,0,.1,0,.3,0,.4-.2,1.6,0,3,.7,4.3,0,0,0,.2,.1,.2,1,1.7,2.6,2.9,4.6,3.3,.2,0,.4,0,.5,0,.8,0,1.7,.1,2.7,.1h7c1.1,0,2.1-.2,3-.5,2.6-.9,4.5-3,5.2-5.8,0,0,0,0,0,0,.3-1.2,.5-2.5,.8-3.8l3.3-16.2s0,0,0,0l1.7-8.8c.2-.9,.4-1.9,.6-2.9,.2-1.2,.4-2.4,.5-3.5,0,0,0,0,0-.1,.1-.6,.1-1.1,0-1.7,.1-.9,.1-1.8,0-2.7,0-.9-.2-1.8-.3-2.6-.1-1.3-.5-2.6-1-3.7-1.5-3.5-4-6.3-7.5-8.1-2.9-1.5-6.5-2.3-10.8-2.3h0Z"/></g></g><g id="i"><g id="j"><path d="M332.8,33.9c-.4,0-.8,0-1.1-.2-.2,0-.3-.1-.4-.2-.4,.2-.8,.3-1.2,.4-.1,0-.2,0-.3,0h-.6c-.3,0-.6,0-.9-.2-.2,0-.3-.1-.4-.2,0,0-.1,0-.2,0-.1,0-.3,.2-.5,.2-.2,0-.5,.2-.7,.2-.1,0-.2,0-.4,0h-.8c-1,0-1.6-.4-2-.7,0,0-.2-.2-.3-.2-.3,.3-.7,.6-1.2,.8-.3,.1-.7,.2-1.1,.2h-.9c-1.4,0-2.1-.7-2.5-1.2,0-.1-.2-.2-.2-.4-.3-.5-.4-1.1-.3-1.7,0-.1,0-.2,0-.3,0,0,0-.1,0-.2l.6-3.1c0,0-.1,0-.2,0-1-.5-1.7-1.6-1.6-2.8,0-.2,0-.5,.1-.8v-.2c0-.2,.1-.3,.2-.5,0-.2,.2-.4,.3-.6,.3-.5,.7-.8,1.1-1.1,.1,0,.3-.1,.4-.2,0,0,.1,0,.2,0,.2,0,.5-.1,.7-.1,0,0,.2,0,.3,0h5.3c.2,0,.4,0,.5,0,.3,0,.5,0,.8,.2,.1,0,.3,0,.5-.1,.1,0,.3,0,.4,0,0,0,.2,0,.3,0h1.7c.7,0,1.4,.2,1.9,.7,.2,.2,.4,.3,.5,.5,.4-.5,.8-.8,1.4-1,0,0,.2,0,.2,0,.3,0,.6-.1,1-.1h1.3c0,0,.2,0,.2,0s.2,0,.3,0c.3,0,.6,0,.9,.2,.7,.2,1.3,.7,1.6,1.4,.3,.5,.4,1.2,.3,1.8,0,.1,0,.3,0,.5l-1.3,6.5c0,.2,0,.4-.2,.6-.1,.4-.3,.8-.6,1.2-.6,.7-1.4,1.1-2.4,1.1h-.5c-.1,0-.2,0-.3,0Z"/><path class="bw" d="M335.2,23.2s0,0,.1,0h.1c0,0,.1,0,.2,0,0,0,.1,0,.1,0h0c0,0,0,.2,0,.3,0,.1,0,.3,0,.4l-1.3,6.5c0,.1,0,.3-.1,.4,0,.1,0,.2-.1,.3,0,.1-.2,.2-.4,.2h-.6c0,0-.2,0-.3,0,0,0-.1,0-.2,0-.1,0-.2-.1-.2-.2,0,0,0-.2,0-.3v-.3c0,0,0,0,0-.1,0,0,0-.1,0-.2l.5-2.5c0-.2,0-.3,0-.5,0-.2,0-.3,0-.4,0,0,0-.1,0-.2s0,0,0-.1c0,0,0,0,0,0,0,0,0,0-.1,0-.1,.2-.3,.3-.4,.5-.1,.2-.2,.4-.3,.6-.2,.4-.5,.8-.7,1.3-.2,.4-.5,.8-.7,1.2-.1,.2-.2,.4-.3,.6-.1,.2-.3,.4-.4,.5,0,0-.2,0-.3,.1h-.6c0,0-.1,0-.2,0,0,0,0,0-.1-.1,0,0,0,0,0-.2,0,0,0-.1,0-.2,0-.1,0-.2,0-.4,0-.1,0-.3,0-.4,0-.4-.1-.8-.2-1.2,0-.4-.1-.8-.2-1.2,0-.2,0-.5-.1-.7,0-.2-.1-.4-.2-.6,0,0,0,0,0,0h0c0,0-.1,.1-.1,.2,0,0,0,.1,0,.2,0,0,0,.1,0,.2v.3c0,0-.1,.1-.1,.2,0,0,0,.1,0,.1l-.5,2.3c0,.2,0,.4-.1,.6,0,.2-.1,.4-.2,.5,0,0,0,0-.1,0,0,0,0,0-.1,0,0,0-.1,0-.2,0h-.8c-.2,0-.3,0-.4-.1,0,0-.1-.1-.1-.3,0-.1,0-.3,0-.4l1.3-6.6c0-.1,0-.2,0-.3,0-.1,0-.2,.1-.3,0,0,.2-.2,.3-.2,0,0,0,0,0,0s0,0,0,0c0,0,0,0,.1,0h1.7c.1,0,.2,0,.3,.1,.1,0,.2,.2,.2,.4,0,.2,0,.3,.1,.5,0,.4,.1,.8,.2,1.1,0,.4,.1,.8,.2,1.1,0,.2,0,.4,.1,.6,0,.2,0,.4,.1,.6,0,0,0,.2,0,.3,0,0,0,.1,.2,.2,0,0,0,0,0,0,0,0,0,0,.1,0,0,0,.1,0,.1-.1,.1-.1,.2-.3,.3-.5,0-.2,.2-.3,.3-.5,.3-.4,.5-.9,.8-1.3,.3-.5,.5-.9,.8-1.4,.1-.2,.2-.4,.3-.6,.1-.2,.3-.4,.5-.4,0,0,.2,0,.3,0h1.4s0,0,.1,0m-10.8,0c.1,0,.2,0,.3,0,.1,0,.2,0,.3,0h0c0,0,.1,.2,.1,.3s0,.3-.1,.5v.2c0,.1-.1,.2-.2,.3,0,0-.1,.1-.3,.2-.1,0-.3,0-.5,0-.2,0-.4,0-.5,0h-.3s0,0-.1,0,0,0,0,0,0,0,0,0c0,0,0,0-.1,0-.1,0-.3,.2-.4,.4,0,0,0,.1,0,.2,0,0,0,.2,0,.3l-1,4.7c0,0,0,.1,0,.2s0,.1,0,.2v.2c0,0,0,0,0,.1,0,0,0,0,0,.1,0,.1-.1,.2-.3,.2,0,0-.1,0-.2,0h-.9c-.2,0-.4,0-.5-.2,0,0,0-.2,0-.3,0-.1,0-.2,0-.4l.9-4.7c0,0,0-.1,0-.2,0,0,0-.1,0-.2v-.3c0-.2,0-.3-.2-.4-.1,0-.2,0-.4,0s0,0-.1,0c-.2,0-.4,0-.6,0s-.1,0-.2,0c0,0-.1,0-.1,0,0,0,0,0,0,0s0,0,0,0c0,0,0,0-.1,0-.1,0-.2-.2-.2-.3s0-.3,0-.5c0,0,0-.2,0-.2,0,0,0-.1,.1-.2,0,0,0-.1,.2-.1,0,0,.1,0,.2-.1,0,0,0,0,0,0s0,0,0,0c0,0,0,0,.1,0h5.3m10.8-5c-.1,0-.2,0-.3,0h-1.2c-.6,0-1.1,0-1.7,.2-.2,0-.3,.1-.5,.2-.1,0-.3,.1-.4,.2-.8-.4-1.6-.6-2.5-.6h-1.7c-.1,0-.3,0-.4,0-.2,0-.5,0-.7,0-.2,0-.4,0-.6,0-.2,0-.5,0-.7,0h-5.3c-.1,0-.3,0-.4,0-.4,0-.9,.1-1.3,.3,0,0-.2,0-.3,.1-.2,0-.4,.2-.7,.3-.9,.5-1.6,1.1-2.1,2-.2,.3-.3,.6-.5,.9-.1,.3-.2,.6-.3,.9,0,0,0,.2,0,.3,0,.3-.1,.7-.1,1-.1,1.6,.4,3.1,1.5,4.2l-.3,1.5s0,0,0,.1c0,.2,0,.4-.1,.6-.1,1.1,0,2.2,.5,3.1,.1,.3,.3,.5,.5,.8,1,1.4,2.7,2.2,4.5,2.2h.9c.7,0,1.3-.1,2-.3,.1,0,.2,0,.3-.1,.7,.3,1.5,.5,2.3,.5h.8c.2,0,.5,0,.7,0,.3,0,.6-.1,.8-.2,.5,.2,1,.2,1.5,.2h.6c.2,0,.4,0,.6,0,.3,0,.6,0,.9-.2,.5,.2,1,.2,1.6,.2s.3,0,.4,0h.4c1.7,0,3.1-.7,4.2-1.9,0,0,0,0,0,0,.5-.6,.9-1.3,1.1-2.1,0-.3,.2-.6,.2-.9l1.3-6.5s0,0,0,0c0-.2,0-.4,0-.6,.2-1.2,0-2.3-.5-3.3-.6-1.2-1.7-2.1-2.9-2.5-.5-.2-1.1-.3-1.6-.3-.1,0-.3,0-.4,0h0Z"/></g></g><g><g><g><path class="bw" d="M160.2,32.5c-.4,0-.7,0-1.1-.2l-3.5-1.7c-.9-.4-1.5-1.4-1.4-2.4,.1-2.4,.4-5.6,1.2-7.3,.8-1.8,2.4-2.8,4.5-2.8s2.3,.4,2.7,.5c.8,.3,3.3,1.4,5.3,5.4,.5,.9,.3,2.1-.4,2.8-1.5,1.6-3.7,3.7-5.4,5.1-.3,.2-.6,.4-.9,.5-.3,.1-.6,.2-1,.2Z"/><path class="bw" d="M159.9,20.5c1,0,1.8,.4,1.8,.4,0,0,2.2,.6,3.9,4.2-1.6,1.7-3.7,3.7-5.2,4.9-.2-3.1,0-5,0-5.8-.2,1.8-.3,3.8-.2,5.9l-3.5-1.7c.2-3.1,.5-5.4,1-6.5,.4-1,1.3-1.3,2.2-1.3m.6,3.2s0,0,0,0c0,0,0,0,0,0,0,0,0,0,0-.1,0,0,0,0,0,.1m-.6-8.2c-3.1,0-5.6,1.6-6.8,4.4-.3,.6-1.1,2.5-1.4,8.2-.1,2,1,3.9,2.8,4.8l3.5,1.7c.7,.3,1.4,.5,2.2,.5s1.2-.1,1.8-.3c.6-.2,1.1-.5,1.6-.9,1.8-1.4,4.1-3.7,5.6-5.3,1.5-1.5,1.8-3.8,.9-5.7-2.3-4.7-5.4-6.2-6.7-6.7-.6-.2-1.9-.6-3.5-.6h0Z"/></g><g><path class="bw" d="M204.8,34.1c-2.3,0-4.4,0-5.9-.2-.3,0-.7-.1-.9-.3-.7-.3-1.2-.8-1.4-1.5l-1.5-4.1c-.3-.9,0-2,.7-2.7,2-1.8,4.7-4.1,6.7-4.9,.6-.3,1.2-.4,1.9-.4,3.3,0,5,3.4,5.3,4.1,.4,.7,1.5,3.7,0,8.3-.3,1-1.3,1.7-2.3,1.7-.8,0-1.6,0-2.5,0Z"/><path class="bw" d="M204.3,22.5c1.9,0,3.1,2.6,3.1,2.6,0,0,1.2,2.2-.2,6.5-.8,0-1.6,0-2.4,0-2.1,0-4.1,0-5.6-.2,2.3-2.6,3.9-4.1,4.6-4.7-1.6,1.3-3.2,2.8-4.9,4.6l-1.5-4.1c2.6-2.4,4.7-4,5.9-4.5,.3-.1,.6-.2,.9-.2m-.2,3.9s0,0,0,0c0,0,0,0,0,0,0,0,0,0,.1-.1,0,0,0,0-.1,.1m.2-8.9s0,0,0,0c-1,0-1.9,.2-2.8,.6-1.8,.8-4.3,2.6-7.4,5.4-1.5,1.4-2,3.5-1.3,5.4l1.5,4.1c.5,1.3,1.5,2.4,2.7,2.9,.5,.3,1.1,.4,1.8,.5,2.1,.2,4.7,.2,6.1,.2s1.7,0,2.5,0c2.1,0,3.9-1.4,4.6-3.4,1.8-5.3,.6-8.9,0-10.1-1.1-2.6-3.8-5.5-7.6-5.5h0Z"/></g><g><path class="bw" d="M162.7,91.5c-.8,0-1.5-.4-2-1-.5-.7-.6-1.7-.2-2.5,1.5-3.1,2.8-6,4.2-8.7,0,0-.2,0-.2,0-1.1-.5-1.7-1.8-1.4-3,0-.1,0-.2,0-.3-.8-.4-1.3-1.1-1.4-2,0-.7,.2-1.3,.6-1.8-.6-.3-1.2-.5-1.9-.8-1.1-.4-1.8-1.4-1.7-2.5,0-1.3,.9-1.9,1.8-2.2,0-.1-.3-.6-.3-.6-.6-1.2-1.1-2.5-1.5-3.7v-.3c-.3-.4-.4-.9-.6-1.3-.2-.7-.4-1.3-.6-2-.3-1.2-.6-2.3-.9-3.5-.2-1-.5-2.1-.7-3.4v-.6c-.3-1-.4-1.9-.6-2.8-.2-1.1-.3-2.3-.4-3.4-.1-1-.2-1.9-.3-2.9v-.4c0-.1,0-.2,0-.4,0,0,0,0,0-.1,0-.9-.1-1.9-.2-2.9,0-1.2-.1-2.3-.1-3.4,0-1.2,0-2.3,0-3.4,0-1,0-1.9,0-2.7v-.6c0-.8,.5-1.6,1.2-2.1,.4-.2,.8-.4,1.3-.4s.7,0,1.1,.2l2.1,1c1.1-1,2.6-2.4,3.9-3.8,.5-.5,1.1-.8,1.8-.8s.3,0,.4,0c.8,.1,1.5,.6,1.9,1.4,.2,.4,.4,.8,.6,1.3,.2,.6,.4,1.2,.6,1.9,.3,1,.5,2.1,.7,3.4,.2,1.2,.4,2.5,.4,3.8,0,.2,0,.5,0,.7,.2,.2,.3,.4,.5,.6,.1,.2,.2,.5,.4,.8,0,.1,.1,.3,.2,.5v.2c0,0,.1,.1,.1,.2,0,0,0,0,0,0,0,.2,.1,.5,.2,.8,.2,.6,.3,1.2,.4,1.9,0,0,0,.2,0,.3h0c0,.3,0,.5,0,.6,0,0,0,.2,0,.2,.3,.3,.5,.8,.6,1.2,.2,1.1,.2,2.1,.2,3.1,.1,.2,.2,.4,.3,.6,.4,1.3,.8,2.5,1.1,3.8,.1,.5,.2,.9,.3,1.4,.5-.9,1-1.8,1.5-2.6,.6-1,1.3-2.1,2.1-3.3l.4-.6c.6-.9,1.3-1.8,1.9-2.6,.8-1,1.5-2.1,2.3-3,.7-.9,1.4-1.7,2-2.5l.3-.3c0-.1,.1-.2,.2-.3h0c.7-.9,1.4-1.7,2.1-2.6,.9-1,1.7-1.9,2.6-2.8,.9-1,1.8-1.9,2.7-2.7,.8-.8,1.5-1.5,2.2-2.1l.5-.5c.5-.4,1.1-.7,1.7-.7s.4,0,.6,0c.8,.2,1.5,.8,1.8,1.6l1,2.7c1.2,0,2.7,.1,4.3,.1s1.4,0,2.1,0c0,0,0,0,0,0,.8,0,1.5,.4,2,1,.5,.7,.6,1.5,.3,2.3-.2,.5-.3,.9-.5,1.4-.3,.6-.6,1.3-1,2-.6,1-1.3,2.1-2.1,3.3-.8,1.1-1.7,2.3-2.6,3.3-.2,.2-.4,.5-.6,.7,0,.3,0,.6-.1,.9,0,.2-.2,.6-.4,.9,0,.2-.2,.3-.3,.5v.2c-.1,0-.2,.2-.2,.3-.2,.3-.3,.6-.5,.8-.3,.6-.7,1.2-1.2,1.8,0,0-.1,.2-.2,.3h0c-.1,.3-.2,.4-.3,.5,0,0-.2,.2-.2,.3,0,.5-.2,1-.4,1.4-.7,1-1.5,1.9-2.3,2.6,0,.2-.1,.5-.2,.7-.7,1.3-1.4,2.7-2.1,3.9-.9,1.5-1.7,2.7-2.5,3.7-1,1.3-2.1,2.5-3.3,3.5,.1,.7,0,1.4-.4,1.9-.4,.5-.8,1-1.2,1.5-.5,.6-1,1.1-1.5,1.5,0,.3-.2,.7-.4,1-.2,.3-.4,.6-.7,.9-1.9,2.3-4.6,3.5-7.9,3.6,0,.2,0,.4,0,.5,0,1.2-1,2.1-2.2,2.3-.1,0-.2,0-.3,0s-.3,0-.4,0c1.5,4.8,2.6,7.7,2.6,7.8,0,0,0,.1,0,.2,.4,1.3,.1,2.5-.6,3.5-.5,.6-1.2,1-2,1s-.3,0-.4,0c-.9-.1-1.7-.8-2-1.6-.7-2.1-1.4-4.1-2.1-6-1.7,3.5-2.7,5.5-2.7,5.6,0,0,0,.1,0,.2-.7,1.2-1.8,2-3.1,2.2-.1,0-.2,0-.3,0Z"/><path class="bw" d="M165.6,25c.2,.3,.3,.7,.5,1.1,.2,.5,.3,1,.5,1.6,.3,.9,.5,2,.7,3.1,.2,1.2,.3,2.4,.4,3.5,0,.4,0,.7,0,1.1,0,1.3-.2,2.3-1.1,4,0,0,0,0,.1-.1,0,0,0,0,0,0,.6-.7,1.3-1.6,1.6-2.3,0,0,0-.2,.1-.3,0,.1,.2,.3,.3,.6,0,.2,.1,.4,.2,.6,0,0,0,.2,0,.2,0,.2,.1,.4,.2,.7,.1,.5,.3,1.1,.4,1.7,0,.1,0,.3,0,.4,0,.1,0,.2,0,.3,0,.3,0,.7,0,1,0,.1,0,.3,0,.4,0,.2,0,.4-.1,.6,0,.1,0,.3-.1,.4-.2,.7-.5,1.3-.9,2,0,0,0,0,0,0,.1-.1,.2-.2,.3-.3,.7-.8,1.2-1.8,1.4-2.4,.4,2.1,.2,4.2-1,6.1,0,0,.2-.2,.3-.3,0,0,.2-.2,.2-.3,.5-.5,.8-1,1.1-1.6,.4,1.3,.8,2.4,1,3.6,.3,1.3,.6,2.5,.7,3.6,.2,1.5,.2,2.9,0,4.2-.3,2.2-1.2,4.6-2.3,6.3,.1,.1,.2,.3,.4,.4,.5-.4,1-.8,1.4-1.3,.3-.9,.5-1.7,.8-2.6,0,0,0-.1,0-.2h0c.5-1.4,1-2.7,1.6-4,.3-.6,.5-1.1,.8-1.7,.3-.7,.7-1.3,1.1-2,.6-1.1,1.2-2.2,1.9-3.4,.6-1,1.3-2.1,2.1-3.2,.1-.2,.2-.4,.4-.5,.6-.9,1.2-1.7,1.9-2.6,.7-1,1.5-2,2.3-3,.8-1,1.5-1.9,2.3-2.8,0,0,.1-.1,.2-.2h0c0,0,0,0,0-.1,.7-.9,1.4-1.7,2.2-2.5,.8-.9,1.7-1.9,2.5-2.7,.9-.9,1.8-1.8,2.6-2.7,.7-.7,1.5-1.4,2.2-2.1,.2-.2,.4-.3,.5-.5l1.5,4.1c-.8,.9-1.6,1.8-2.4,2.7,0,0,0,.1-.1,.2-.8,1-1.7,2-2.5,3-.8,1-1.6,2-2.4,3.1-.7,1-1.5,2-2.2,3l-1.3-3.7,1.2,3.7s0,0,0,.1c-.5,.7-.9,1.3-1.4,2-.3,.4-.5,.8-.8,1.2-.7,1.1-1.4,2.2-2.2,3.3-.7,1.1-1.4,2.2-2.1,3.4-.7,1.1-1.4,2.2-2,3.3-.7,1.1-1.3,2.2-1.9,3.3-.7,1.2-1.3,2.3-2,3.4-.1,.3-.3,.5-.4,.8-.5,.9-1,1.8-1.5,2.7h0s0,0,0,0c-.1,.2-.2,.4-.4,.7-.5,1-1.1,1.9-1.6,2.9,0,0,0,.1-.1,.2-.1,.3-.3,.5-.4,.8-.3,.6-.7,1.2-1,1.9,.2,.1,.5,.3,.7,.5,.7-1.3,.9-1.8,1.3-2.5,0-.1,.1-.3,.2-.4,0,0,0,0,0,0,.5-1,1-1.9,1.5-2.8,0-.2,.2-.3,.3-.5h-.2s-.2-.7-.2-.7c.5-.9,1-1.8,1.5-2.7,.1-.3,.3-.5,.4-.8,.6-1.1,1.3-2.3,2-3.4,.6-1.1,1.3-2.2,1.9-3.3,.7-1.1,1.3-2.2,2-3.3,.7-1.1,1.4-2.2,2.1-3.4,.7-1.1,1.4-2.2,2.2-3.3,.3-.4,.5-.8,.8-1.2,.5-.7,.9-1.3,1.4-2,0,0,0,0,0-.1v.4c.1,0,.4,0,.4,0,0,0,0,0,0,0h0c.8-1.1,1.5-2.1,2.2-3.1,.8-1.1,1.6-2.2,2.3-3.2,.9-1.1,1.7-2.2,2.4-3.1,0,0,0-.1,.1-.2,.9-1.1,1.7-2,2.4-2.8,1.6,.1,3.7,.2,5.9,.2s1.5,0,2.2,0c-.1,.4-.3,.8-.5,1.3-.2,.5-.5,1.1-.9,1.7-.5,1-1.2,2-2,3.1-.8,1.1-1.6,2.2-2.5,3.1-.3,.3-.6,.6-.8,.9-1,1-2,1.7-4.1,2.3,0,0,.1,0,.2,0h0s0,0,0,0,0,0,0,0c1,0,2.3-.3,3.1-.6,.1,0,.2,0,.3-.1,0,.2-.1,.4-.3,.7,0,.2-.2,.4-.3,.6,0,0,0,.2-.1,.3-.1,.2-.2,.4-.4,.7-.3,.5-.6,1.1-1.1,1.7,0,.1-.2,.3-.3,.4,0,0-.1,.2-.2,.3-.2,.3-.5,.6-.8,.8-.1,.1-.2,.2-.4,.3-.2,.1-.4,.3-.6,.4-.1,0-.3,.2-.4,.3-.7,.4-1.4,.7-2.3,.9,0,0,0,0,0,0s0,0,0,0c0,0,0,0,0,0,.2,0,.4,0,.5,0,1.3,0,2.4-.5,3.1-.8-1.4,2-3.2,3.6-5.7,4.1,0,0,.1,0,.2,0h0c0,0,.1,0,.2,0,.1,0,.3,0,.4,0,.8,0,1.5-.2,2.1-.4-.7,1.3-1.3,2.6-2,3.7-.8,1.3-1.5,2.4-2.3,3.5-1.1,1.4-2.2,2.5-3.3,3.5-2.5,2-6.1,3.4-8.7,3.4s-.1,0-.2,0c0,0,0,0,.1,0,1,.3,2,.5,3,.5,1.8,0,3.6-.6,5.3-1.9-.4,.5-.7,1-1.1,1.4-1.5,1.7-3,2.7-5.8,3.5,.5,.1,1,.2,1.4,.2,1,0,1.7-.3,2.4-.9-.2,.3-.4,.5-.5,.7-1.5,1.9-3.8,2.6-6.3,2.6s-2-.1-3-.3c.7,.9,1,2,.9,3.1-.4-1-.8-1.9-1.4-2.4-.4-.2-.8-.3-1.1-.4-.5,.9-.9,1.8-1.4,2.7,1.9,6.2,3.5,10.5,3.7,11.3,.1,.5,0,.9-.2,1.3-1.4-4.1-2.8-8-4-11.7-3.1,6-5.1,10.3-5.4,11.1-.3,.5-.6,.8-1.2,.9,2.2-4.6,4.3-8.9,6.3-13-.2-.8-.5-1.5-.7-2.2-1,.4-2,1.5-2.9,3.1,.4-1.5,.9-2.8,1.8-3.5-.3,.1-.9,.3-2,.3s-.6,0-1,0c1.2-.4,2.2-.8,2.7-1.4-1.3-1.5-3.4-2.5-5.8-3.4,0,0,.5,0,1.2,0,.7,0,1.7,0,2.4,.3,0,0,0,0,0-.1-.8-1.3-1.5-2.6-2.2-4,0,0,0,0,0-.1h0c-.5-1.1-1-2.3-1.5-3.5-.2-.5-.4-1-.6-1.6-.2-.6-.4-1.3-.6-1.9-.3-1-.6-2.1-.9-3.3-.2-1-.5-2.2-.7-3.3,0-.2,0-.4-.1-.6-.2-.9-.3-1.9-.4-2.8-.2-1.1-.3-2.2-.4-3.3-.1-1.1-.2-2.1-.3-3.2,0,0,0-.1,0-.2h0c0,0,0,0,0-.1,0-1-.1-2-.2-2.9,0-1.1-.1-2.2-.1-3.3,0-1.1,0-2.2,0-3.3,0-.9,0-1.8,0-2.7,0-.2,0-.4,0-.7l3.5,1.7c0,1.1,0,2.1,.2,3.2,0,0,0,.1,0,.2,0,1.1,.2,2.3,.3,3.4,.1,1.1,.3,2.3,.4,3.4,.2,1.1,.3,2.2,.5,3.3l-3.1-1.6,3.1,1.6s0,0,0,.1c.1,.7,.2,1.4,.4,2.1,0,.4,.1,.8,.2,1.2,.2,1.1,.4,2.3,.7,3.4,.2,1.1,.5,2.3,.8,3.4,.3,1.1,.5,2.2,.8,3.3,.3,1.1,.5,2.2,.8,3.3,.3,1.1,.6,2.3,.9,3.4,0,.3,.1,.5,.2,.8,.3,.9,.5,1.8,.7,2.6h0s0,0,0,0c0,.2,.1,.4,.2,.6,.2,.6,.4,1.2,.5,1.9,.3,.1,.6,.3,.8,.4-.2-.8-.5-1.5-.7-2.3,0-.2,0-.3-.1-.5h-.2c0,.1-.6-.1-.6-.1-.2-.9-.5-1.7-.7-2.6,0-.2-.1-.5-.2-.7-.3-1.1-.6-2.2-.9-3.4-.3-1.1-.6-2.2-.8-3.3-.3-1.1-.5-2.2-.8-3.3-.3-1.1-.5-2.3-.8-3.4-.2-1.1-.5-2.3-.7-3.4,0-.4-.2-.8-.2-1.2-.1-.7-.3-1.4-.4-2.1,0,0,0,0,0-.1l.3,.2h.1c0-.1,0-.1,0-.1h0c-.2-1.2-.4-2.3-.6-3.3-.2-1.2-.4-2.4-.5-3.4-.2-1.2-.3-2.4-.4-3.4,0,0,0-.1,0-.2-.1-1.2-.2-2.3-.3-3.3,1.4-1.2,3.5-3.2,5.2-4.9m3.6,41.1s0,0,.1,0c.2,0,.3-.2,.5-.3,0,0,0-.2,0-.2-.2,.2-.3,.4-.5,.6m-.7,5.8c.2,0,.5-.1,.7-.1,0-.2-.1-.4-.2-.6-.3-.2-.6-.5-1-.9,0,.2,0,.3,.1,.5,0,0,0,.1,0,.2,0,.2,.1,.5,.2,.7,0,0,0,.2,0,.3m1,3.2c.3-.6,.6-1.2,.9-1.8-.1,0-.2,0-.3,0s-.2,0-.4,0c0-.2-.1-.5-.2-.7-.2,0-.4,0-.6,0s0,0-.1,0c.3,.8,.5,1.7,.7,2.5m-3.9-55.1c-1.3,0-2.6,.5-3.6,1.5-.9,.9-1.7,1.8-2.6,2.5l-.6-.3c-.7-.3-1.4-.5-2.2-.5-.9,0-1.8,.2-2.6,.7-1.4,.9-2.4,2.4-2.4,4.1,0,0,0,.2,0,.2,0,.1,0,.2,0,.4,0,1,0,1.9,0,2.8,0,1,0,2.1,0,3.4,0,1.1,0,2.2,.1,3.4,0,1,.1,2,.2,3,0,0,0,0,0,.1,0,.2,0,.3,0,.4v.2c.1,1,.2,2,.3,3,.1,1.2,.3,2.3,.4,3.4,.1,1,.3,1.9,.5,2.9v.4c0,0,.1,.2,.1,.2,0,0,0,0,0,0,.2,1.3,.5,2.5,.7,3.6,.3,1.2,.6,2.3,.9,3.6,.2,.8,.4,1.4,.7,2.1,.2,.5,.3,1,.5,1.4v.3c.4,.9,.8,1.8,1.2,2.6-.8,.9-1.1,2-1.1,2.8-.2,2.1,1.1,4.1,3,5,0,.2,0,.4,0,.6,0,1.1,.5,2,1.1,2.8,0,1.2,.4,2.3,1.1,3.2-1.1,2.2-2.2,4.5-3.3,6.9-.8,1.7-.6,3.6,.5,5.1,.9,1.3,2.5,2,4,2s.4,0,.7,0c2.1-.3,3.9-1.5,5-3.5,0,0,.1-.2,.2-.3,0,0,0,0,0,0,0,.1,0,.2,.1,.3,.6,1.7,2.1,3,3.9,3.3,.3,0,.5,0,.8,0,1.5,0,3-.7,4-1.9,1.3-1.6,1.7-3.7,1.1-5.8,0-.1,0-.2-.1-.3-.3-.7-.9-2.6-1.8-5.2,.8-.5,1.4-1.3,1.8-2.2,3.9-.6,6.3-2.6,7.7-4.3,0,0,0,0,0,0,.3-.4,.6-.7,.8-1.1,.2-.3,.4-.6,.5-1,.4-.4,.8-.8,1.2-1.3,.5-.5,.9-1.1,1.3-1.7,.5-.7,.8-1.5,.9-2.3,1-.9,1.9-1.9,2.7-3.1,.9-1.1,1.8-2.4,2.7-4,.8-1.3,1.5-2.6,2.2-4.1,0-.2,.1-.3,.2-.5,.8-.7,1.5-1.6,2.2-2.6,.4-.5,.6-1.1,.8-1.8,0,0,.2-.2,.2-.3h0c0-.2,.2-.4,.3-.5,.5-.7,.9-1.3,1.3-2,.2-.3,.3-.6,.5-.9,0,0,0,0,0,0,0-.1,.1-.2,.2-.3v-.2c.2-.2,.3-.5,.4-.7,.2-.4,.3-.8,.4-1.2,0-.2,.1-.4,.1-.6,0,0,0,0,.1-.1,.9-1.1,1.9-2.3,2.8-3.5,.9-1.2,1.6-2.4,2.2-3.5,.4-.7,.8-1.4,1.1-2.1,0,0,0,0,0,0,.2-.5,.4-1,.6-1.6,.5-1.5,.3-3.3-.7-4.6-.9-1.3-2.4-2.1-4-2.1,0,0,0,0-.1,0-.7,0-1.4,0-2.1,0s-1.7,0-2.5,0l-.4-1.1c-.6-1.6-1.9-2.8-3.5-3.2-.4,0-.8-.1-1.2-.1-1.3,0-2.5,.5-3.4,1.4,0,0-.1,.1-.2,.2-.1,0-.2,.2-.3,.3-.8,.8-1.6,1.5-2.3,2.2-.8,.8-1.6,1.7-2.7,2.8-.8,.9-1.7,1.8-2.6,2.9-.8,.9-1.5,1.7-2.2,2.6,0,0,0,0,0,.1-.1,.1-.2,.3-.3,.4l-.2,.2c-.7,.8-1.4,1.7-2.1,2.6-.8,1.1-1.6,2.1-2.4,3.1-.6,.9-1.3,1.8-1.9,2.7,0,.1-.2,.2-.2,.3v.2c-.2,0-.2,0-.2,0-.3,.4-.5,.8-.8,1.1,0,0,0,0,0,0,0-.9,0-1.9-.2-2.9-.1-.6-.3-1.2-.6-1.7,0,0,0-.2,0-.3h0c0-.2,0-.4,0-.5-.1-.7-.3-1.4-.4-2.1,0-.3-.2-.6-.2-.9,0,0,0,0,0,0,0-.1,0-.2-.1-.4h0c0-.4-.2-.6-.2-.8-.2-.4-.3-.8-.5-1.1,0-.1-.1-.3-.2-.4,0,0,0,0,0,0,0-1.3-.2-2.7-.5-4-.2-1.3-.5-2.6-.8-3.7-.2-.7-.4-1.4-.7-2.1,0,0,0,0,0,0-.2-.5-.4-.9-.6-1.4-.7-1.5-2.1-2.5-3.7-2.8-.3,0-.5,0-.8,0h0Z"/></g></g><g><g id="k"><path id="m" class="bx" d="M157.7,21.8c-.5,1.1-.8,3.4-1,6.5l3.5,1.7c0-2.2,0-4.3,.2-6.2,0-.1,0-.2,0-.2,0,0,0,.1,0,.2,0,.6-.2,2.6,0,6.1,1.4-1.2,3.5-3.2,5.2-4.9-1.7-3.6-3.9-4.2-3.9-4.2,0,0-3.1-1.2-4,1Z"/><path id="n" class="cj" d="M166.8,39.4s0,0,0,0l-.2,.2s0,0,0,0c0,0,.1-.1,.2-.2Z"/><path id="o" class="cj" d="M168.9,45.4c0,.1-.2,.2-.3,.3,.1-.1,.2-.2,.3-.3Z"/><path id="p" class="cj" d="M166.9,64c0,0,0-.1,0-.2-.3-1.1-.6-2.1-.9-3.2-.3-1.2-.6-2.3-.9-3.4-.3-1.2-.6-2.3-.8-3.4-.3-1.2-.5-2.3-.8-3.3-.2-.9-.4-1.7-.5-2.6,0-.3-.1-.6-.2-.8-.1-.5-.2-1.1-.3-1.6,0-.5-.2-.9-.3-1.4,0-.2,0-.3,0-.5,0,0,0,0,0,0l-.2,.2-.3-.2s0,0,0,.1c.1,.7,.2,1.4,.4,2.1,0,.4,.2,.8,.2,1.2,.2,1.1,.4,2.3,.7,3.4,.2,1.1,.5,2.3,.8,3.4,.3,1.1,.5,2.2,.8,3.3,.3,1.1,.5,2.2,.8,3.3,.3,1.1,.6,2.3,.9,3.4,0,.2,.1,.5,.2,.7,.2,.9,.5,1.8,.7,2.6l.6,.3,.2-.2s0,0,0,0c-.4-1.1-.7-2.2-1-3.3Z"/><path id="q" class="cb" d="M169.8,48.6c-.2,.2-.3,.3-.5,.5h0c0,0,.2-.2,.3-.3,0,0,.2-.2,.2-.3Z"/><path id="r" class="ca" d="M169.8,48.6c-.2,.2-.3,.3-.5,.5h0c0,0,.2-.2,.3-.3,0,0,.2-.2,.2-.3Z"/><path id="s" class="cb" d="M168.5,45.8h0s0,0,0,0c0,0,0,0,0,0,.1-.1,.2-.2,.3-.3-.1,.1-.3,.3-.4,.4h0Z"/><path id="t" class="ca" d="M168.5,45.8h0s0,0,0,0c0,0,0,0,0,0,.1-.1,.2-.2,.3-.3-.1,.1-.3,.3-.4,.4h0Z"/><path id="v" class="ck" d="M161.2,40.3c-.2-1.2-.3-2.3-.4-3.4-.1-1.2-.2-2.3-.3-3.4,0,0,0-.1,0-.2,0-1.1-.1-2.2-.2-3.2l-3.5-1.7c0,.2,0,.4,0,.7,0,.8,0,1.7,0,2.7,0,1.1,0,2.1,0,3.3,0,1.1,0,2.2,.1,3.3,0,1,.1,1.9,.2,2.9,0,0,0,0,0,.1l4.7,2.4c-.2-1.1-.3-2.2-.5-3.3Z"/><path id="x" class="cm" d="M168,67.8c.3,.9,.5,1.8,.8,2.7,0,0,0,0,0,0,0,.1,0,.3,.1,.4,.2,.6,.4,1.2,.8,2.4,.8-.2,1.7,.2,2.7,.6-.6-.8-1.5-1.3-2.5-1.4,2.9-1.9,4.7-4.4,4.5-7.3,0-.3,0-.5-.1-.8,0,1.1-.5,1.9-1.9,2.8h0s0,0,0,0c1.3-2.3,1.6-3.8,1.5-5.8,0-.5,0-1-.2-1.5-.4,3-2,4.9-4.3,6l-1.4,1.3c0,.2,0,.3,.1,.5Z"/><path id="z" class="cg" d="M166.2,63.9c-.3-1.1-.6-2.2-.9-3.4-.3-1.1-.6-2.2-.8-3.3s-.5-2.2-.8-3.3c-.3-1.1-.5-2.3-.8-3.4-.2-1.1-.5-2.3-.7-3.4,0-.4-.2-.8-.2-1.2-.1-.7-.3-1.4-.4-2.1,0,0,0,0,0-.1l-4.6-2.4c0,0,0,.1,0,.2,0,1,.2,2.1,.3,3.2,.1,1.1,.3,2.2,.4,3.3,.1,.9,.3,1.9,.4,2.8,0,.2,0,.4,.1,.6,.2,1.2,.4,2.3,.7,3.3,.3,1.2,.6,2.3,.9,3.3,.2,.7,.4,1.3,.6,1.9,.2,.5,.4,1,.6,1.6,.4,1.2,.9,2.4,1.5,3.5l4.7,2.4c-.2-.9-.5-1.7-.7-2.6,0-.2-.1-.5-.2-.8Z"/><path id="ab" class="bu" d="M162.5,65c.6,1.4,1.4,2.7,2.2,4,0,0,0,0,0,.1-1.3-.5-3.6-.3-3.6-.3,2.4,.8,4.4,1.8,5.8,3.4-.5,.6-1.5,1-2.7,1.4,1.7,.2,2.6-.1,3-.3-.9,.7-1.4,2.1-1.8,3.5,1-1.6,2-2.7,2.9-3.1,1.4,4.7,3.1,9.7,5,15,.3-.4,.4-.9,.2-1.3-.3-1-2.6-7.3-5.1-15.8,0-.2-.1-.5-.2-.7,0,0,0-.1,0-.2-.3-.9-.5-1.8-.8-2.8,0-.2-.1-.4-.2-.6h0s-4.7-2.4-4.7-2.4c0,0,0,.1,0,.2Z"/><path id="ad" class="cn" d="M162.2,43.7c0,.2,0,.3,0,.5,0,.5,.2,.9,.3,1.4,0,.5,.2,1,.3,1.6,0,.3,.1,.5,.2,.8,.2,.8,.4,1.7,.5,2.6,.2,1.1,.5,2.2,.8,3.3,.3,1.1,.5,2.2,.8,3.4,.3,1.1,.6,2.2,.9,3.4,.3,1,.6,2.1,.9,3.2,0,0,0,.1,0,.2,.3,1.1,.6,2.2,.9,3.3,0,0,0,0,0,0l1.4-1.3s0,0-.1,0c1.7-1.6,3.1-4.8,3.4-7.6,.2-1.3,.1-2.7,0-4.2-.1-1.1-.4-2.3-.7-3.6-.3-1.1-.6-2.3-1-3.6-.3,.5-.6,1-1.1,1.6,0,0-.2,.2-.2,.3s-.2,.2-.3,.3h0c1.2-1.9,1.4-4,1-6.1-.2,.6-.7,1.6-1.4,2.4,0,.1-.2,.2-.3,.3,0,0,0,0,0,0h0c.4-.7,.7-1.3,.9-2,0-.1,0-.3,.1-.4,0-.2,0-.4,.1-.6,0-.1,0-.3,0-.4,0-.3,0-.7,0-1,0-.1,0-.2,0-.3,0-.2,0-.3,0-.4-.1-.7-.2-1.2-.4-1.7,0-.2-.1-.5-.2-.7,0,0,0-.2,0-.2,0-.2-.1-.4-.2-.6,0-.3-.2-.5-.3-.6h0c0,0,0,.2-.1,.3-.3,.7-1,1.6-1.6,2.3l1.3-1.2-1.3,1.2s0,0,0,0c0,0-.1,.1-.2,.2,0,0,0,0,0,0l-4.5,4.1s0,0,0,0Z"/><path id="af" class="cl" d="M160.5,29.9c0,1,.1,2.1,.3,3.3,0,0,0,.1,0,.2,.1,1.1,.2,2.2,.4,3.4,.1,1.1,.3,2.2,.5,3.4,.2,1.1,.4,2.2,.6,3.3l4.5-4.1c.9-1.7,1.1-2.7,1.1-4,0-.3,0-.7,0-1.1,0-1.1-.2-2.3-.4-3.5-.2-1.1-.4-2.2-.7-3.1-.2-.6-.3-1.1-.5-1.6-.2-.4-.3-.8-.5-1.1-1.6,1.7-3.7,3.7-5.2,4.9Z"/><path id="ag" class="cb" d="M169.6,48.9c0,0-.2,.2-.3,.3h0c0,0,.2-.2,.3-.3Z"/><path id="ah" class="ca" d="M169.6,48.9c0,0-.2,.2-.3,.3h0c0,0,.2-.2,.3-.3Z"/><path id="aj" class="cf" d="M169.6,48.9c0,0-.2,.2-.3,.3h0c0,0,.2-.2,.3-.3Z"/><path id="ak" class="cb" d="M168.5,45.8s0,0,0,0c0,0,0,0,0,0h0Z"/><path id="al" class="ca" d="M168.5,45.8s0,0,0,0c0,0,0,0,0,0h0Z"/><path id="an" class="bv" d="M168.5,45.8s0,0,0,0c0,0,0,0,0,0h0Z"/></g><g id="ao"><path id="aq" class="bz" d="M203.3,22.7c-1.2,.5-3.3,2.1-5.9,4.5l1.5,4.1c1.7-1.8,3.4-3.5,5.1-4.8,.1-.1,.2-.2,.2-.2,0,0-.1,.1-.2,.2-.6,.4-2.2,1.9-4.9,4.9,2.1,.2,5.4,.2,8,.2,1.4-4.2,.2-6.5,.2-6.5,0,0-1.5-3.5-4-2.4Z"/><path id="ar" class="cj" d="M196.7,44s0,0,0,0h-.3s0,0,0,0c.1,0,.2,0,.3,0Z"/><path id="as" class="cj" d="M193.6,50.6c-.2,0-.3,0-.5,0,.2,0,.4,0,.5,0Z"/><path id="at" class="cj" d="M177.2,63.9s0-.1,0-.2c.6-1.1,1.2-2.2,1.8-3.3,.7-1.2,1.3-2.3,2-3.4,.7-1.2,1.4-2.3,2-3.4,.7-1.1,1.4-2.2,2-3.3,.5-.9,1.1-1.7,1.6-2.5,.2-.3,.3-.5,.5-.8,.3-.5,.7-1,1-1.5,.3-.5,.6-.9,.9-1.3,.1-.1,.2-.3,.3-.4,0,0,0,0,0,0h-.3s-.1-.4-.1-.4c0,0,0,0,0,.1-.5,.7-.9,1.3-1.4,2-.3,.4-.5,.8-.8,1.2-.7,1.1-1.4,2.2-2.2,3.3-.7,1.1-1.4,2.2-2.1,3.4-.7,1.1-1.4,2.2-2,3.3-.7,1.1-1.3,2.2-1.9,3.3-.7,1.1-1.3,2.3-2,3.4-.1,.2-.3,.5-.4,.8-.5,.9-1,1.8-1.5,2.7l.2,.7h.3s0,0,0,0c.6-1.2,1.2-2.3,1.8-3.4Z"/><path id="au" class="cb" d="M191.8,53.9c-.3,0-.5,0-.8,0h0c.1,0,.3,0,.4,0,.1,0,.3,0,.4,0Z"/><path id="av" class="ca" d="M191.8,53.9c-.3,0-.5,0-.8,0h0c.1,0,.3,0,.4,0,.1,0,.3,0,.4,0Z"/><path id="aw" class="cb" d="M193,50.6h0s0,0,0,0c0,0,0,0,.1,0,.2,0,.4,0,.5,0-.2,0-.4,0-.6,0h0Z"/><path id="ax" class="ca" d="M193,50.6h0s0,0,0,0c0,0,0,0,.1,0,.2,0,.4,0,.5,0-.2,0-.4,0-.6,0h0Z"/><path id="az" class="bt" d="M191.4,40.3c.8-1.1,1.6-2.1,2.4-3.1,.8-1,1.6-2.1,2.5-3,0,0,0-.1,.1-.2,.8-1,1.6-1.9,2.4-2.7l-1.5-4.1c-.2,.2-.4,.3-.5,.5-.7,.6-1.4,1.3-2.2,2.1-.8,.8-1.7,1.7-2.6,2.7-.8,.9-1.7,1.8-2.5,2.7-.7,.8-1.4,1.6-2.2,2.5,0,0,0,0,0,0l1.9,5.6c.7-1,1.5-2,2.2-3Z"/><path id="bb" class="bs" d="M175.1,67.9c-.5,.9-1,1.8-1.5,2.8,0,0,0,0,0,0,0,.1-.1,.3-.2,.4-.3,.6-.6,1.2-1.3,2.5,.7,.5,1.2,1.5,1.6,2.6,0-1.1-.2-2.2-.9-3.1,3.8,.7,7.3,.3,9.4-2.3,.2-.2,.4-.5,.5-.7-.9,.9-1.9,1.2-3.7,.8h0s0,0,0,0c2.8-.8,4.4-1.8,5.8-3.5,.3-.4,.7-.9,1.1-1.4-2.7,2.1-5.5,2.3-8.3,1.4h-2.2c0,.1-.2,.3-.3,.4Z"/><path id="bd" class="ce" d="M176.8,63.3c.6-1.1,1.3-2.3,2-3.4,.6-1.1,1.3-2.2,1.9-3.3s1.3-2.2,2-3.3c.7-1.1,1.4-2.2,2.1-3.4,.7-1.1,1.4-2.2,2.2-3.3,.3-.4,.5-.8,.8-1.2,.5-.7,.9-1.3,1.4-2,0,0,0,0,0-.1l-1.9-5.6c0,0-.1,.1-.2,.2-.8,.9-1.5,1.8-2.3,2.8-.8,1-1.5,2-2.3,3-.6,.9-1.2,1.7-1.9,2.6-.1,.2-.2,.4-.4,.5-.7,1.1-1.4,2.2-2.1,3.2-.7,1.2-1.4,2.3-1.9,3.4-.4,.7-.7,1.4-1.1,2-.3,.6-.5,1.1-.8,1.7-.6,1.3-1.1,2.7-1.6,4l1.9,5.6c.5-.9,1-1.8,1.5-2.7,.1-.2,.3-.5,.4-.8Z"/><path id="bf" class="by" d="M172.9,61.3c-.6,1.6-1.1,3.3-1.4,4.9,0,0,0,.1,0,.2-.6-1.4-2.7-3.1-2.7-3.1,1.3,2.5,2.1,5,2,7.3-.9,0-2-.4-3.3-1.1,1.2,1.5,2.2,2,2.6,2.2-1.3-.1-2.8,.6-4.3,1.4,2.1-.5,3.7-.6,4.9-.2-2.6,4.9-5.2,10.3-7.9,16,.6,0,1-.4,1.2-.9,.5-1,3.7-7.9,8.4-16.8,.1-.3,.3-.5,.4-.8,0,0,0-.1,.1-.2,.5-.9,1-1.9,1.6-2.9,.1-.2,.2-.4,.4-.7h0s-1.9-5.6-1.9-5.6c0,0,0,.1,0,.2Z"/><path id="bh" class="ci" d="M189.6,43.8c-.1,.1-.2,.3-.3,.4-.3,.4-.6,.9-.9,1.3-.3,.5-.7,1-1,1.5-.2,.3-.3,.5-.5,.8-.5,.8-1.1,1.6-1.6,2.5-.7,1.1-1.3,2.1-2,3.3-.7,1.1-1.3,2.2-2,3.4-.7,1.1-1.3,2.2-2,3.4-.6,1.1-1.2,2.1-1.8,3.3,0,0,0,.1,0,.2-.6,1.1-1.2,2.2-1.9,3.4,0,0,0,0,0,0h2.2c0,0,0,0-.1,0,2.6,0,6.3-1.4,8.8-3.4,1.2-.9,2.3-2.1,3.3-3.5,.8-1,1.6-2.2,2.3-3.5,.7-1.1,1.3-2.4,2-3.7-.6,.2-1.3,.3-2.1,.4-.1,0-.3,0-.4,0s-.3,0-.4,0h0c2.5-.6,4.3-2.1,5.7-4.1-.7,.3-1.8,.7-3.1,.8-.2,0-.3,0-.5,0,0,0,0,0-.1,0h0c.9-.2,1.6-.5,2.3-.9,.1,0,.3-.2,.4-.3,.2-.1,.4-.3,.6-.4,.1-.1,.2-.2,.4-.3,.3-.2,.6-.5,.8-.8,0,0,.2-.2,.2-.3,.1-.1,.2-.3,.3-.4,.4-.6,.8-1.2,1.1-1.7,.1-.2,.3-.5,.4-.7,0,0,0-.2,.1-.3,.1-.2,.2-.5,.3-.6,.1-.3,.2-.5,.3-.7h0c0,0-.2,.1-.3,.1-.8,.3-2.1,.5-3.1,.6h2c0,0-2,0-2,0,0,0,0,0,0,0,0,0-.2,0-.3,0,0,0,0,0,0,0l-6.8-.3c0,0,0,0,0,0Z"/><path id="bj" class="cd" d="M199.1,31.4c-.7,.8-1.5,1.8-2.4,2.8,0,0,0,.1-.1,.2-.8,.9-1.6,2-2.4,3.1-.7,1-1.5,2-2.3,3.2-.7,1-1.4,2-2.2,3.1l6.8,.3c2.1-.6,3.1-1.3,4.1-2.4,.3-.3,.5-.6,.8-.9,.8-1,1.7-2.1,2.5-3.1,.8-1.1,1.4-2.1,2-3.1,.3-.6,.6-1.2,.9-1.7,.2-.4,.3-.9,.5-1.3-2.7,0-5.9,0-8-.2Z"/><path id="bk" class="cb" d="M191.4,53.9c-.1,0-.3,0-.4,0h0c.1,0,.3,0,.4,0Z"/><path id="bl" class="ca" d="M191.4,53.9c-.1,0-.3,0-.4,0h0c.1,0,.3,0,.4,0Z"/><path id="bn" class="ch" d="M191.4,53.9c-.1,0-.3,0-.4,0h0c.1,0,.3,0,.4,0Z"/><path id="bo" class="cb" d="M193,50.6s0,0,.1,0c0,0,0,0-.1,0h0Z"/><path id="bp" class="ca" d="M193,50.6s0,0,.1,0c0,0,0,0-.1,0h0Z"/><path id="br" class="cc" d="M193,50.6s0,0,.1,0c0,0,0,0-.1,0h0Z"/></g></g></g></g></g></svg>