<?xml version="1.0" encoding="UTF-8"?><svg id="b" xmlns="http://www.w3.org/2000/svg" xmlns:xlink="http://www.w3.org/1999/xlink" viewBox="0 0 1595.4 380.1"><defs><style>.y{fill:#fff;}.z{fill:#231f1f;}.aa{fill:url(#s);}.ab{fill:url(#q);}.ac{fill:url(#u);}</style><linearGradient id="q" x1="-3520.1" y1="3426" x2="-3129.4" y2="3656.9" gradientTransform="translate(1400.2 1647.7) scale(.4 -.4)" gradientUnits="userSpaceOnUse"><stop offset="0" stop-color="#909ca9"/><stop offset="1" stop-color="#ededee"/></linearGradient><linearGradient id="s" x1="-3519.8" y1="4222.6" x2="-3202.6" y2="4222.6" gradientTransform="translate(1400.2 1647.7) scale(.4 -.4)" gradientUnits="userSpaceOnUse"><stop offset="0" stop-color="#939fab"/><stop offset="1" stop-color="#dcdee1"/></linearGradient><radialGradient id="u" cx="5238" cy="354.2" fx="5238" fy="354.2" r="417.2" gradientTransform="translate(2129.4 169.2) rotate(-171.4) scale(.4 -.7)" gradientUnits="userSpaceOnUse"><stop offset="0" stop-color="#ee352c"/><stop offset="1" stop-color="#a91d22"/></radialGradient></defs><g id="c"><g id="d"><g id="e"><g><g id="f"><g id="g"><path d="M620.5,358.2c-1.2,0-2.3-.5-3-1.4l-18.3-21.5c-14.8-17.4-19.3-20.6-25.3-21.6-37.6-6.1-60.7-22.4-74.7-52.7,0,0,0-.1,0-.2-12.7-32.4-12.8-72.2-.2-101.3,15.8-34.3,42.8-51.9,82.5-54.1,2-.1,4-.2,5.9-.2h1.1c27.1,0,49.9,9,66.1,26.1,18.8,19.8,27.7,49.1,25.9,84.9-1.2,22.6-2.7,28.7-11.7,46.9-11.4,23-27.8,38.3-47.5,44.2-2.3,.7-4.2,1.4-5.6,1.9,3.4,3.8,10,10.9,19.1,19.9l22.2,22.3c1.1,1.1,1.5,2.9,.9,4.4s-2.1,2.5-3.7,2.5h-33.3Zm-35.1-224.4c-25.8,0-43.2,11.5-56.6,37.2-8.3,16.1-9.3,52.2-2,71.7,6.6,17.6,21.1,33.2,35.9,38.6,5.6,2,12.5,3.1,20.1,3.1,11.4,0,23.1-2.5,31.9-6.7,23.4-11.4,35.6-39.1,33.3-76.2-2.8-44.3-24.4-67.7-62.5-67.7Zm322.4,180.5c-6.3,0-12.8-.6-19.2-1.9-16.4-3.3-27.2-7.7-27.7-7.9-1.5-.6-2.4-2-2.5-3.6,0-.8-.6-19.6,.7-27.9,.3-1.9,2-3.4,4-3.4s0,0,0,0c1,0,1.6,0,15.4,7,10.9,5.5,22.1,8.5,32.4,8.5,15,0,31-6.6,31-25.3s-10.4-23.5-33.8-37.1c-45.8-26.8-59.1-52-44.3-84.5,9.9-21.8,30.9-32.8,62.4-32.8s1.3,0,2,0c20.7,.3,35.2,6.5,35.8,6.7,1.5,.6,2.4,2.1,2.4,3.7v25.2c0,1.4-.8,2.7-2.1,3.4-.6,.4-1.3,.5-2,.5s-1.3-.2-1.9-.5c-11.2-6.2-25.8-10.1-37.9-10.1s-29.7,4.4-31.9,25.1c-1.2,11,8.5,21.3,34.5,37,40.5,24.3,51.8,40.9,48.4,71-3.1,27.1-30.7,46.8-65.7,46.8Zm-495.6-.3c-6.3,0-12.8-.6-19.2-1.9-16.4-3.3-27.3-7.8-27.7-7.9-1.5-.6-2.4-2-2.5-3.6,0-.8-.6-19.6,.7-27.9,.3-1.9,2-3.4,4-3.4s0,0,0,0c1,0,1.5,0,15.4,7,10.9,5.6,22.2,8.5,32.4,8.5,15,0,31-6.6,31-25.3s-10.4-23.5-33.8-37.2c-45.8-26.7-59-52-44.3-84.5,9.9-21.8,30.9-32.8,62.3-32.8s1.3,0,2,0c20.7,.3,35.3,6.4,35.9,6.7,1.5,.6,2.4,2.1,2.4,3.7v25.2c0,1.4-.8,2.7-2.1,3.4-.6,.4-1.3,.5-2,.5s-1.3-.2-1.9-.5c-11.2-6.2-25.8-10.1-37.9-10.1s-29.7,4.4-31.9,25.1c-1.2,11,8.5,21.4,34.5,37,40.5,24.3,51.8,40.9,48.4,71-3.1,27.1-30.7,46.8-65.7,46.8Zm638.7-.2c-17.7,0-33.5-6.3-49.9-19.8-.1-.1-.3-.2-.4-.4-14.1-15.3-19.1-30.1-19.2-56.6-1.3-35.8,20.2-66.7,52.4-75.1,0,0,.1,0,.2,0,5.3-1.1,10.5-1.8,15.6-1.8,.4,0,.8,0,1.1,0,35.2,0,58.9,26.1,58.9,65v18.6c0,2.2-1.8,4-4,4h-92.8c2.5,12.7,7.1,21.9,14.5,29.5,7.4,6.2,15.7,9.2,25.4,9.2,9,0,19.4-2.6,31.6-7.8l11.4-5.9c.6-.3,1.2-.5,1.9-.5s1.4,.2,2.1,.6c1.2,.7,1.9,2,1.9,3.4v21.6c0,1.6-.9,3-2.3,3.6,0,0-6,2.8-11.6,5.1,0,0-.2,0-.2,0-13.8,4.9-25.7,7.3-36.5,7.3Zm27.5-93.4c-1.2-6.7-4.4-19.5-12.2-25.4-5.2-4-11.4-6.1-18-6.2h-.1c-6.5,0-13,2.1-18.6,6-8.4,5.9-12.6,18.7-14.3,25.6h63.2Zm328.5,93.1c-17.7,0-33.5-6.3-49.9-19.8-.1-.1-.3-.2-.4-.4-14.1-15.3-19.1-30.1-19.1-56.5-1.3-35.8,20.2-66.8,52.3-75.2,0,0,.1,0,.2,0,5.3-1.1,10.6-1.8,15.6-1.8,.4,0,.8,0,1.1,0,35.2,0,58.8,26.1,58.8,65v18.6c0,2.2-1.8,4-4,4h-92.7c2.5,12.6,7.1,21.8,14.5,29.5,7.4,6.2,15.7,9.2,25.4,9.2,9,0,19.4-2.6,31.6-7.8l11.3-5.9c.6-.3,1.2-.5,1.9-.5s1.4,.2,2.1,.6c1.2,.7,1.9,2,1.9,3.4v21.6c0,1.6-.9,3-2.3,3.7,0,0-6,2.7-11.5,5.1,0,0-.2,0-.2,0-13.8,4.9-25.7,7.3-36.5,7.3Zm27.5-93.3c-1.2-6.7-4.4-19.5-12.2-25.4-5.2-4-11.4-6.1-18-6.2h-.1c-6.6,0-13,2.1-18.6,6-8.4,5.9-12.6,18.7-14.4,25.6h63.3Zm-159.4,89.5c-5.2,0-9.2,0-12.9,0-1.6,0-3.1-1-3.7-2.5-18.3-46.7-35.7-93-51.6-137.8,0-.2-.1-.5-.2-.7v20.8c0,1.3-.6,2.4-1.6,3.2-.7,.5-1.5,.8-2.4,.8s-.7,0-1.1-.2l-8.6-2.5c-1.8-.5-3.6-.8-5.4-.8-9.3,0-18.2,6.6-23.7,17.7-5,9.9-5.6,13.6-5.6,54.1v43.9c0,2.2-1.8,4-4,4h-24.3c-2.2,0-4-1.8-4-4V168.1c0-2.2,1.8-4,4-4h24.3c2.2,0,4,1.8,4,4v9.5c7.9-10.8,19.2-16.2,33.6-16.2h10.9c2.2,0,4,1.8,4,4v1.8c0-.6,.3-1.2,.7-1.7,.7-1.1,2-1.7,3.3-1.7h25c1.7,0,3.2,1.1,3.8,2.7l19.6,58.2,15.6,42.5,16.2-42.2c10.9-30.5,21.5-58.3,21.6-58.5,.6-1.5,2.1-2.6,3.7-2.6h23.9c1.3,0,2.6,.7,3.3,1.8s.9,2.5,.4,3.7l-27.6,69.6-27.2,68.1c-.6,1.5-2.1,2.5-3.7,2.5h-10.3Zm-568.4,0c-2.2,0-4-1.8-4-4V111.5c0-2.2,1.8-4,4-4h24.3c2.2,0,4,1.8,4,4v167.2h74.2c2.2,0,4,1.8,4,4v23c0,2.2-1.8,4-4,4h-102.4Zm779.3-.3c-2.2,0-4-1.8-4-4V167.8c0-2.2,1.8-4,4-4h24.3c2.2,0,4,1.8,4,4v9.5c7.9-10.7,19.2-16.2,33.6-16.2h10.9c2.2,0,4,1.8,4,4v23.9c0,1.3-.6,2.4-1.6,3.2-.7,.5-1.5,.8-2.4,.8s-.7,0-1.1-.2l-8.6-2.5c-1.8-.5-3.6-.8-5.4-.8-9.3,0-18.2,6.6-23.7,17.7-5,9.9-5.6,13.6-5.6,54.1v43.9c0,2.2-1.8,4-4,4h-24.3Z"/><path class="y" d="M430.6,109c.6,0,1.3,0,1.9,0,20.2,.3,34.4,6.4,34.4,6.4v25.2c-11.2-6.1-26.2-10.6-39.9-10.6s-33.6,7.5-35.9,28.7c-1.5,13.6,10.1,25.1,36.4,40.9,39.2,23.6,49.7,38.7,46.5,67.2-2.9,25.8-29.4,43.3-61.8,43.3s-12.2-.6-18.4-1.8c-16.2-3.2-27-7.7-27-7.7,0,0-.6-19.2,.7-27.1,.4,0,6.5,3,13.6,6.6,12,6.1,23.8,8.9,34.2,8.9,20.2,0,35-10.7,35-29.3s-11-26.1-35.8-40.6c-44.1-25.8-56.5-48.9-42.6-79.4,9.2-20.3,28.7-30.5,58.7-30.5m157.6,.1c57.1,0,91.4,41.1,88,106.7-1.2,22.1-2.5,27.6-11.3,45.3-10.9,22.1-26.4,36.6-45.1,42.2-5.7,1.7-10.4,3.8-10.4,4.6s10,11.6,22.2,23.8l22.2,22.3h-33.3l-18.3-21.5c-14.9-17.4-20.1-21.7-27.7-23-36.4-5.9-58.2-21.3-71.7-50.4-11.7-29.7-13.1-68.5-.2-98.2,15.2-32.8,40.9-49.6,79-51.7,1.9-.1,3.8-.2,5.7-.2,.4,0,.7,0,1.1,0m-5.5,179.2c11.7,0,24-2.5,33.7-7.1,24.9-12.1,37.9-41.3,35.5-80-2.9-46.6-26-71.4-66.5-71.4s-46.1,12.3-60.1,39.3c-8.8,16.9-9.9,54.6-2.2,75,7,18.7,22.4,35.1,38.2,40.9,6.2,2.3,13.7,3.4,21.5,3.4M926.3,109.4c.6,0,1.3,0,1.9,0,20.2,.3,34.3,6.4,34.3,6.4v25.2c-11.2-6.1-26.2-10.6-39.9-10.6s-33.6,7.5-35.9,28.7c-1.5,13.6,10.1,25,36.4,40.8,39.2,23.6,49.7,38.7,46.5,67.2-2.9,25.8-29.4,43.3-61.8,43.3s-12.2-.6-18.4-1.8c-16.2-3.2-26.9-7.7-26.9-7.7,0,0-.6-19.2,.6-27.1,.4,0,6.5,3,13.7,6.6,12,6.1,23.8,8.9,34.2,8.9,20.2,0,35-10.7,35-29.3s-10.9-26.1-35.7-40.6c-44.1-25.8-56.6-48.9-42.7-79.4,9.2-20.3,28.8-30.5,58.7-30.5m-195.5,2.1v171.2h78.2v23h-102.4V111.5h24.3m675.9,52.3c32.6,0,54.8,23.7,54.8,61v18.6h-97.5c2.1,14,6.5,26.1,16.5,36.4,8.2,7,17.4,10.3,28.1,10.3s20.8-2.8,33.3-8.2l11.4-6v21.6s-5.9,2.7-11.4,5.1c-12.8,4.6-24.3,7.1-35.1,7.1-16.5,0-31.5-5.8-47.4-18.9-12.8-13.9-18-27.2-18.1-53.9-1.2-31.9,17-62.8,49.3-71.2,5.1-1.1,10.1-1.7,14.8-1.7,.4,0,.7,0,1.1,0m-40.5,60.4h72.8s-2.1-23.2-14.3-32.6c-6-4.6-13.2-7-20.4-7,0,0,0,0-.1,0-7.2,0-14.5,2.2-20.9,6.7-13.3,9.3-17,32.9-17,32.9m-315.5-60.1c32.6,0,54.9,23.7,54.9,61v18.6h-97.5c2.1,14,6.5,26.1,16.5,36.4,8.2,7,17.4,10.3,28.1,10.3s20.8-2.8,33.3-8.2l11.5-6v21.6s-5.9,2.7-11.5,5.1c-12.8,4.6-24.3,7.1-35.1,7.1-16.5,0-31.5-5.8-47.3-18.9-12.8-13.9-18.1-27.2-18.1-53.9-1.2-31.9,17.1-62.7,49.4-71.2,5.1-1.1,10.1-1.7,14.8-1.7,.4,0,.7,0,1.1,0m-40.5,60.4h72.8s-2.1-23.1-14.3-32.6c-6-4.6-13.2-7-20.4-7,0,0,0,0-.1,0-7.2,0-14.5,2.2-20.9,6.7-13.3,9.3-17,32.8-17,32.8m548.4-59.3v23.9l-8.6-2.5c-2.2-.6-4.4-.9-6.6-.9-10.7,0-21,7.3-27.3,19.9-5.6,11-6.1,15.8-6.1,56v43.9h-24.3V167.8h24.3v11.5s0,11.4,0,11.4l5.7-8.9c7.1-11.1,17.8-16.8,31.9-16.8h10.9m-10.9,0h0m-345.1,.3v23.9l-8.6-2.5c-2.2-.6-4.4-.9-6.6-.9-10.7,0-21,7.3-27.3,19.9-5.6,11-6.1,15.8-6.1,56v43.9h-24.3V168.1h24.3v11.4s0,11.5,0,11.5l5.7-8.9c7.1-11.1,17.8-16.8,31.8-16.8h10.9m33,2.5l19.6,58.2,19.2,52.6,20-52.2c11-30.9,21.6-58.5,21.6-58.5h23.9l-27.6,69.6-27.1,68.1c-3.4,0-6.9,0-10.3,0s-8.6,0-12.8,0c-17.8-45.2-35.3-91.9-51.5-137.7h25M430.6,101c-33.2,0-55.4,11.8-66,35.2-8.1,17.8-8.2,33.7-.2,48.6,7.5,14,22.2,27.1,46.1,41,28.5,16.7,31.8,27.2,31.8,33.7,0,15.7-14,21.3-27,21.3s-20.2-2.8-30.6-8.1c-14.7-7.4-15.1-7.4-17.1-7.5,0,0,0,0-.1,0-3.9,0-7.3,2.9-7.9,6.8-1.3,8.5-.8,26.6-.8,28.6,0,3.1,2,5.9,4.9,7.1,.5,.2,11.7,4.8,28.5,8.2,6.7,1.3,13.4,2,20,2,17.4,0,33.9-4.7,46.5-13.4,13.3-9.2,21.6-22.3,23.2-37,1.9-16.8-.8-29.4-8.7-40.8-7.5-10.8-20-21-41.6-34.1-24.1-14.5-33.5-24.1-32.6-33.2,1.6-14.3,11-21.5,27.9-21.5s25.3,3.7,36,9.6c1.2,.7,2.5,1,3.9,1s2.8-.4,4-1.1c2.4-1.4,3.9-4,4-6.9v-25.2c.1-3.2-1.8-6.1-4.7-7.4-.6-.3-15.9-6.7-37.4-7-.7,0-1.3,0-2,0h0Zm157.6,.1c-.4,0-.8,0-1.1,0-2,0-4,0-6.1,.2-20.4,1.1-37.9,6.4-52.1,15.6-14.2,9.3-25.6,23-33.8,40.7,0,0,0,.1,0,.2-13,30-13,71,.1,104.3,0,.1,.1,.3,.2,.4,14.6,31.7,38.6,48.6,77.7,55,4.9,.8,8.9,3.8,22.9,20.3l18.3,21.5c1.5,1.8,3.7,2.8,6.1,2.8h33.3c3.2,0,6.1-1.9,7.4-4.9,1.2-3,.6-6.4-1.7-8.7l-22.2-22.3c-6.1-6.1-11.2-11.4-14.8-15.3,20.7-6.3,37.8-22.3,49.6-46.2,9.3-18.8,10.9-25.1,12.1-48.4,1.9-36.8-7.4-67.2-27-87.8-17-17.9-40.8-27.3-69-27.3h0Zm-5.5,179.2c-7.1,0-13.6-1-18.7-2.9-13.6-5-27.3-19.9-33.5-36.2-6.9-18.3-6-53.5,1.8-68.5,12.7-24.5,28.6-35,53-35,36.2,0,55.9,21.5,58.5,63.9,2.2,35.4-9.1,61.7-31,72.3-8.3,4-19.3,6.3-30.2,6.3h0ZM926.3,101.4c-33.2,0-55.4,11.8-66,35.2-8.1,17.8-8.2,33.7-.2,48.6,7.5,14,22.2,27.1,46.1,41,28.5,16.6,31.8,27.2,31.8,33.7,0,15.7-14,21.3-27,21.3s-20.2-2.8-30.6-8c-14.7-7.4-15.2-7.4-17.2-7.5,0,0,0,0-.1,0-3.9,0-7.3,2.9-7.9,6.8-1.3,8.5-.8,26.6-.7,28.6,0,3.1,2,5.9,4.9,7.1,.5,.2,11.6,4.8,28.4,8.1,6.7,1.3,13.4,2,20,2,17.4,0,33.9-4.7,46.5-13.4,13.3-9.2,21.6-22.3,23.2-37,1.9-16.8-.8-29.4-8.7-40.8-7.5-10.8-20-21-41.6-34.1-24.1-14.5-33.5-24.1-32.6-33.1,1.6-14.3,11-21.5,27.9-21.5s25.3,3.7,36,9.6c1.2,.7,2.5,1,3.9,1s2.8-.4,4-1.1c2.4-1.4,3.9-4,4-6.9v-25.2c.1-3.2-1.8-6.1-4.7-7.4-.6-.3-15.8-6.7-37.4-7-.7,0-1.3,0-2,0h0Zm-195.5,2.1h-24.3c-4.4,0-8,3.6-8,8v194.1c0,4.4,3.6,8,8,8h102.4c4.4,0,8-3.6,8-8v-23c0-4.4-3.6-8-8-8h-70.2V111.5c0-4.4-3.6-8-8-8h0Zm675.9,52.3c-.4,0-.8,0-1.2,0-5.3,0-10.8,.7-16.4,1.9-.1,0-.2,0-.4,0-17.4,4.6-31.8,15-41.9,30.2-9.3,14.1-14.1,31.4-13.4,49,0,27.6,5.3,43,20.2,59.1,.2,.3,.5,.5,.8,.8,17.1,14.1,33.8,20.7,52.5,20.7s23.6-2.5,37.8-7.5c.2,0,.3-.1,.5-.2,5.6-2.4,11.6-5.1,11.6-5.1,2.9-1.3,4.7-4.2,4.7-7.3v-21.6c0-2.8-1.5-5.4-3.9-6.8-1.3-.8-2.7-1.1-4.1-1.1-1.3,0-2.6,.3-3.7,.9l-11.2,5.9c-11.6,5-21.4,7.5-29.9,7.5s-16.1-2.7-22.6-8.2c-5.9-6.1-9.8-13.1-12.2-22.5h87.7c4.4,0,8-3.6,8-8v-18.6c0-20.2-6-37.4-17.3-49.9-11.4-12.5-27.1-19.1-45.5-19.1h0Zm-30.3,60.4c2.2-6.7,5.9-14.5,11.3-18.3,4.9-3.4,10.6-5.3,16.3-5.3h.1c5.7,0,11.1,1.9,15.6,5.3,5,3.8,8,11.7,9.7,18.3h-53Zm-325.7-60.1c-.4,0-.8,0-1.2,0-5.3,0-10.8,.7-16.3,1.9-.1,0-.2,0-.4,0-17.4,4.6-31.8,15-41.9,30.1-9.3,14.1-14.1,31.4-13.4,48.9,0,27.6,5.3,43.1,20.2,59.2,.2,.3,.5,.5,.8,.8,17.1,14.1,33.8,20.7,52.4,20.7s23.6-2.5,37.8-7.5c.2,0,.3-.1,.5-.2,5.6-2.4,11.4-5.1,11.7-5.2,2.8-1.3,4.7-4.1,4.7-7.3v-21.6c0-2.8-1.5-5.4-3.9-6.8-1.3-.8-2.7-1.2-4.1-1.2-1.3,0-2.5,.3-3.7,.9l-11.2,5.9c-11.6,5-21.4,7.5-29.9,7.5s-16.1-2.7-22.6-8.2c-5.9-6.1-9.8-13.1-12.2-22.6h87.7c4.4,0,8-3.6,8-8v-18.6c0-20.2-6-37.4-17.3-49.9-11.4-12.5-27.2-19.1-45.6-19.1h0Zm-30.2,60.4c2.2-6.6,5.9-14.5,11.3-18.3,4.9-3.4,10.6-5.3,16.3-5.3h0c5.7,0,11.1,1.9,15.6,5.3,5,3.8,8,11.7,9.7,18.2h-53Zm538.1-59.3h-10.9c-11.7,0-21.7,3.5-29.6,10.1-.3-4.1-3.8-7.4-8-7.4h-24.3c-4.4,0-8,3.6-8,8v137.5c0,4.4,3.6,8,8,8h24.3c4.4,0,8-3.6,8-8v-43.9c0-39.7,.6-43.2,5.2-52.3,4.9-9.7,12.4-15.5,20.2-15.5s2.9,.2,4.3,.6l8.6,2.5c.7,.2,1.5,.3,2.2,.3,1.7,0,3.4-.6,4.8-1.6,2-1.5,3.2-3.9,3.2-6.4v-23.9c0-4.4-3.6-8-8-8h0Zm-356,.3h-10.9c-11.7,0-21.7,3.5-29.6,10.2-.3-4.2-3.8-7.4-8-7.4h-24.3c-4.4,0-8,3.6-8,8v137.5c0,4.4,3.6,8,8,8h24.3c4.4,0,8-3.6,8-8v-43.9c0-39.7,.6-43.2,5.2-52.3,4.9-9.7,12.4-15.5,20.2-15.5s2.9,.2,4.3,.6l8.6,2.5c.7,.2,1.5,.3,2.2,.3,1.7,0,3.4-.6,4.8-1.6,1.5-1.1,2.5-2.7,3-4.5,13.9,38.4,28.7,77.8,44.3,117.3,1.2,3,4.1,5,7.4,5.1,3.7,0,7.7,0,12.9,0s4.4,0,6.7,0h3.6c3.3,0,6.2-2,7.4-5l27.1-68.1,27.6-69.6c1-2.5,.7-5.3-.8-7.4-1.5-2.2-4-3.5-6.6-3.5h-23.9c-3.3,0-6.3,2-7.5,5.1-.1,.3-10.7,28-21.6,58.6l-12.4,32.2-11.9-32.4-19.5-58.1c-1.1-3.3-4.1-5.5-7.6-5.5h-25c-.7,0-1.3,0-2,.2-1.5-1.7-3.6-2.7-6-2.7h0Z"/></g></g><g id="h"><g><g><path class="z" d="M787,59.6c-4.2,0-7.8-1.4-10.5-4.1-2.8-2.8-4.2-6.3-4.2-10.5s1.4-7.6,4.3-10.5c2.8-2.8,6.4-4.3,10.6-4.3s7.6,1.4,10.4,4.1c2.9,2.8,4.3,6.3,4.3,10.5,0,4.1-1.4,7.6-4.3,10.5-2.8,2.8-6.4,4.2-10.6,4.2Zm0-25.8c-3.3,0-5.9,1.1-8,3.2-2.1,2.2-3.2,4.8-3.2,8s1.1,5.9,3.3,8c2.2,2.1,4.8,3.2,7.9,3.2s5.7-1.1,7.9-3.2c2.2-2.2,3.3-4.8,3.3-8s-1.1-5.8-3.2-8c-2.2-2.1-4.8-3.2-7.9-3.2Z"/><path class="y" d="M787.1,31.3c3.9,0,7.1,1.3,9.7,3.8,2.7,2.6,4,5.9,4,9.8h0c0,3.9-1.3,7.1-4,9.7-2.7,2.6-6,3.9-9.9,3.9s-7.2-1.3-9.8-3.8c-2.6-2.6-3.9-5.8-3.9-9.7s1.3-7.1,4-9.7c2.7-2.6,5.9-4,9.9-4m0,25.9c3.4,0,6.2-1.2,8.6-3.5,2.4-2.3,3.6-5.2,3.6-8.7s-1.2-6.4-3.5-8.7-5.2-3.5-8.6-3.5-6.4,1.2-8.7,3.5c-2.3,2.3-3.5,5.2-3.5,8.7s1.2,6.4,3.6,8.8c2.4,2.3,5.2,3.5,8.6,3.5m0-27.9c-4.5,0-8.3,1.5-11.3,4.5-3,3-4.6,6.8-4.6,11.2s1.5,8.2,4.5,11.2c3,2.9,6.8,4.4,11.2,4.4s8.2-1.5,11.3-4.5c3.1-3,4.6-6.8,4.6-11.2,0-4.5-1.6-8.3-4.7-11.3-3-2.9-6.7-4.3-11.1-4.3h0Zm0,25.9c-2.9,0-5.2-.9-7.2-2.9-2-2-3-4.4-3-7.3s.9-5.3,2.9-7.2c1.9-2,4.3-2.9,7.3-2.9s5.2,.9,7.2,2.9c2,2,2.9,4.3,2.9,7.3s-1,5.3-3,7.3c-2,2-4.4,2.9-7.2,2.9h0Z"/></g><g><path class="z" d="M790.8,54.6c-.4,0-.7-.2-.9-.6l-1.9-4.2c-.8-1.6-1.6-2.6-2.2-2.6h-.6v6.4c0,.6-.4,1-1,1h-2.5c-.6,0-1-.4-1-1v-17.6c0-.6,.4-1,1-1h5c2.4,0,4.3,.6,5.6,1.7,1.2,1,1.8,2.4,1.8,4.1s-.5,2.7-1.4,3.8c-.5,.6-1.1,1-1.9,1.4,.6,.6,1.1,1.5,1.7,2.5l2.3,4.7c0,.1,.1,.3,.1,.4,0,.6-.4,1-1,1h-3Zm-4-11.4c2.3,0,2.6-1,2.6-2s-.4-1.3-.5-1.4c-.3-.3-1-.6-2.6-.6h-1.2v4h1.6Z"/><path class="y" d="M786.6,36c2.2,0,3.8,.5,5,1.5,1,.8,1.4,1.9,1.4,3.3s-.4,2.2-1.2,3.1c-.8,.9-1.9,1.4-3.3,1.7h0c1,.3,1.9,1.4,2.9,3.3l2.3,4.7h0s-3,0-3,0l-1.9-4.2c-1-2.1-2-3.2-3.1-3.2h-1.6v7.4h-2.5v-17.6h5m-2.5,8.1h2.6c2.4,0,3.6-1,3.6-3h0c0-1-.3-1.7-.8-2.2-.6-.5-1.7-.8-3.2-.8h-2.2v6m2.5-10.1h-5c-1.1,0-2,.9-2,2v17.6c0,1.1,.9,2,2,2h2.5c1.1,0,2-.9,2-2v-5c.2,.3,.6,.8,.9,1.6l1.9,4.2c.3,.7,1,1.2,1.8,1.2h3c1.1,0,2-.9,2-2s0-.6-.2-.9l-2.3-4.7c-.3-.7-.7-1.3-1.1-1.8,.4-.3,.8-.6,1.1-1,1.1-1.2,1.7-2.7,1.7-4.4s-.7-3.6-2.1-4.8c-1.5-1.3-3.6-2-6.3-2h0Zm-.5,6.1h.2c1.6,0,2,.3,2,.3,0,0,.1,.2,.1,.6,0,.3,0,.6-.2,.7,0,0-.4,.3-1.4,.3h-.6v-2h0Z"/></g></g><g id="i"><path class="z" d="M435.7,92.7c-1.1,0-2-.9-2-2V44.6c0-.3,0-.5,0-.8l-21.2,47.7c-.3,.7-1,1.2-1.8,1.2h-3.9c-.8,0-1.5-.5-1.8-1.2l-21.5-48c0,.4,0,47.1,0,47.1,0,1.1-.9,2-2,2h-7.8c-1.1,0-2-.9-2-2V22c0-1.1,.9-2,2-2h10.6c.8,0,1.5,.5,1.8,1.2l21.1,47.9c.6,1.3,1.1,2.5,1.5,3.6,.6-1.6,1.1-2.8,1.6-3.8l21.5-47.7c.3-.7,1-1.2,1.8-1.2h10.1c1.1,0,2,.9,2,2V90.7c0,1.1-.9,2-2,2h-8Z"/><path class="y" d="M443.8,22V90.7s-8,0-8,0V44.6c0-3.6,.2-8.1,.7-13.3h-.2c-.8,3.1-1.5,5.3-2.1,6.6l-23.4,52.7h-3.9l-23.5-52.3c-.7-1.5-1.4-3.8-2.1-7h-.2c.2,2.7,.4,7.2,.4,13.4v46h-7.8V22h10.6l21.1,47.9c1.6,3.6,2.6,6.3,3.1,8.2h.3c1.4-3.8,2.5-6.6,3.3-8.4l21.5-47.7h10.1m0-4h-10.1c-1.6,0-3,.9-3.6,2.4l-21.3,47.2-20.7-47.1c-.6-1.5-2.1-2.4-3.7-2.4h-10.6c-2.2,0-4,1.8-4,4V90.7c0,2.2,1.8,4,4,4h7.8c2.2,0,4-1.8,4-4V52.9l17.7,39.4c.6,1.4,2.1,2.4,3.7,2.4h3.9c1.6,0,3-.9,3.7-2.4l17.3-39.1v37.4c0,2.2,1.8,4,4,4h8c1.1,0,2.1-.4,2.8-1.2,.8-.8,1.2-1.8,1.2-2.8V22c0-2.2-1.8-4-4-4h0Z"/></g><g><rect class="z" x="458.7" y="39.7" width="11.8" height="53" rx="2" ry="2"/><path class="y" d="M468.6,41.7v49h-7.8V41.7h7.8m0-4h-7.8c-2.2,0-4,1.8-4,4v49c0,2.2,1.8,4,4,4h7.8c2.2,0,4-1.8,4-4V41.7c0-2.2-1.8-4-4-4h0Z"/></g><g><path class="z" d="M464.7,31.2c-1.9,0-3.6-.7-5-2-1.4-1.3-2.1-3.1-2.1-5.1s.7-3.7,2.1-5.1c1.4-1.3,3.1-2,5-2s3.7,.7,5.1,2c1.4,1.4,2.1,3.1,2.1,5s-.7,3.7-2.1,5c-1.4,1.4-3.1,2.1-5.1,2.1Z"/><path class="y" d="M464.7,19c1.4,0,2.7,.5,3.7,1.5,1,1,1.5,2.2,1.5,3.6s-.5,2.6-1.5,3.6c-1,1-2.2,1.5-3.7,1.5s-2.6-.5-3.6-1.4c-1-1-1.5-2.2-1.5-3.7s.5-2.7,1.5-3.6c1-1,2.2-1.5,3.6-1.5m0-4c-2.4,0-4.7,.9-6.4,2.6-1.8,1.7-2.7,4-2.7,6.5s.9,4.9,2.7,6.6c1.8,1.7,4,2.5,6.4,2.5s4.7-.9,6.5-2.6c1.8-1.8,2.7-4,2.7-6.5s-.9-4.8-2.7-6.5c-1.7-1.7-4-2.6-6.4-2.6h0Z"/></g><g id="j"><path class="z" d="M504,93.9c-7.6,0-13.8-2.6-18.5-7.6-4.5-4.9-6.8-11.2-6.8-18.9s2.5-15.5,7.5-20.8c5-5.3,11.7-8.1,20-8.1s8.7,.9,12.2,2.7c.7,.3,1.1,1,1.1,1.8v8c0,.7-.4,1.4-1.1,1.8-.3,.2-.6,.2-.9,.2s-.8-.1-1.1-.4c-3.3-2.3-6.8-3.5-10.5-3.5s-7.9,1.5-10.7,4.6c-3,3.2-4.4,7.4-4.4,12.9s1.3,9.2,4,12.2c2.6,2.9,6.1,4.3,10.7,4.3s7.5-1.3,10.9-3.8c.4-.3,.8-.4,1.2-.4s.6,0,.9,.2c.7,.3,1.1,1,1.1,1.8v7.5c0,.7-.4,1.3-1,1.7-4.1,2.5-8.9,3.7-14.5,3.7Z"/><path class="y" d="M506.2,40.5c4.3,0,8,.8,11.3,2.5v8c-3.6-2.5-7.5-3.8-11.7-3.8s-9,1.7-12.2,5.2c-3.3,3.6-4.9,8.3-4.9,14.3s1.5,10.2,4.5,13.5c3,3.3,7,5,12.1,5s8.3-1.4,12.1-4.2v7.5c-3.8,2.3-8.2,3.4-13.4,3.4s-12.7-2.3-17-7c-4.2-4.5-6.3-10.4-6.3-17.5s2.3-14.5,6.9-19.5c4.6-4.9,10.8-7.4,18.6-7.4m0-4c-8.9,0-16.1,2.9-21.5,8.7-5.3,5.7-8,13.2-8,22.2s2.5,15,7.4,20.2c5.1,5.5,11.8,8.3,19.9,8.3s11.1-1.4,15.5-4c1.2-.7,1.9-2,1.9-3.4v-7.5c0-1.5-.9-2.9-2.2-3.6-.6-.3-1.2-.4-1.8-.4s-1.7,.3-2.4,.8c-3.1,2.3-6.2,3.4-9.7,3.4s-6.9-1.2-9.2-3.7c-2.3-2.6-3.5-6.1-3.5-10.8s1.3-8.7,3.9-11.6c2.4-2.6,5.4-3.9,9.3-3.9s6.4,1,9.4,3.1c.7,.5,1.5,.7,2.3,.7s1.3-.1,1.8-.5c1.3-.7,2.2-2.1,2.2-3.5v-8c0-1.5-.8-2.9-2.2-3.6-3.8-1.9-8.3-2.9-13.1-2.9h0Z"/></g><g id="k"><path class="z" d="M529.3,92.7c-1.1,0-2-.9-2-2V41.6c0-1.1,.9-2,2-2h7.9c1.1,0,2,.9,2,2v2.5c.7-.8,1.4-1.6,2.2-2.2,2.6-2.1,5.6-3.1,8.8-3.1s4.2,.3,5.5,.8c.7,.3,1.2,1,1.2,1.8v8.1c0,.8-.4,1.5-1.1,1.8-.3,.1-.6,.2-.9,.2-.4,0-.9-.1-1.2-.4-1-.8-2.6-1.2-4.8-1.2s-4.7,1.1-6.4,3.5c-2.2,2.8-3.3,6.9-3.3,12.1v25c0,1.1-.9,2-2,2h-7.9Z"/><path class="y" d="M550.2,40.8c2.1,0,3.6,.2,4.7,.7v8.1c-1.4-1.1-3.4-1.6-6-1.6s-5.9,1.4-8,4.3c-2.5,3.2-3.7,7.7-3.7,13.3v25h-7.9V41.6h7.9v10.1h.2c1.1-3.6,2.9-6.3,5.3-8.3,2.2-1.8,4.7-2.7,7.5-2.7m0-4c-3.4,0-6.6,1-9.4,3.1-.6-1.3-2-2.2-3.6-2.2h-7.9c-2.2,0-4,1.8-4,4v49c0,2.2,1.8,4,4,4h7.9c2.2,0,4-1.8,4-4v-25c0-4.8,1-8.4,2.9-10.9,1.9-2.5,3.7-2.7,4.9-2.7,2.2,0,3.2,.5,3.5,.7,.7,.6,1.6,.8,2.4,.8s1.2-.1,1.8-.4c1.4-.7,2.2-2.1,2.2-3.6v-8.1c0-1.6-1-3.1-2.5-3.7-1.6-.7-3.6-1-6.2-1h0Z"/></g><g><path class="z" d="M582.3,93.9c-7.9,0-14.3-2.6-19-7.7-4.5-4.9-6.8-11.5-6.8-19.4s2.6-16.2,7.8-21.2c4.8-4.7,11.2-7.1,19.2-7.1s14.1,2.5,18.6,7.5c4.4,4.9,6.7,11.6,6.7,20s-2.4,15.1-7.1,20.2c-4.8,5.1-11.3,7.7-19.3,7.7Zm.6-44.7c-4.3,0-7.7,1.4-10.2,4.1-2.7,3-4.1,7.4-4.1,13.1s1.3,9.5,3.9,12.4c2.6,2.9,6,4.3,10.4,4.3s7.9-1.4,10.3-4.3c2.3-2.9,3.5-7.1,3.5-12.6s-1.3-10.2-3.8-13.1c-2.4-2.7-5.7-4-10-4Z"/><path class="y" d="M583.4,40.5c7.3,0,13,2.3,17.1,6.8,4.1,4.5,6.2,10.8,6.2,18.7s-2.2,14.1-6.6,18.8c-4.4,4.7-10.3,7.1-17.8,7.1s-13.2-2.4-17.5-7.1c-4.2-4.6-6.3-10.6-6.3-18s2.4-15.1,7.2-19.8c4.4-4.3,10.4-6.5,17.8-6.5m-.6,44.7c5.2,0,9.1-1.7,11.8-5,2.7-3.3,4-7.9,4-13.9h0c0-6.3-1.4-11.1-4.3-14.4-2.7-3.1-6.6-4.7-11.5-4.7s-8.8,1.6-11.7,4.8c-3.1,3.4-4.6,8.2-4.6,14.5s1.5,10.5,4.4,13.8c3,3.3,6.9,5,11.9,5m.6-48.7c-8.5,0-15.4,2.6-20.6,7.6-5.6,5.4-8.4,13-8.4,22.6s2.5,15.4,7.4,20.8c5.1,5.6,12,8.4,20.5,8.4s15.5-2.8,20.7-8.3c5.1-5.5,7.7-12.7,7.7-21.5s-2.4-16.1-7.2-21.4c-4.8-5.4-11.6-8.1-20.1-8.1h0Zm-.6,44.7c-3.8,0-6.7-1.2-8.9-3.6-2.3-2.5-3.4-6.2-3.4-11.1s1.2-9.2,3.6-11.8c2.2-2.3,5-3.5,8.7-3.5s6.5,1.1,8.5,3.4c2.2,2.5,3.3,6.5,3.3,11.7,0,5-1,8.8-3.1,11.4-1.9,2.4-4.8,3.5-8.7,3.5h0Z"/></g><g id="l"><path class="z" d="M627.6,93.9c-5,0-9.4-1.1-13.1-3.2-.6-.4-1-1-1-1.7v-8.4c0-.8,.4-1.5,1.1-1.8,.3-.1,.6-.2,.9-.2,.5,0,.9,.2,1.3,.5,3.5,2.9,7.2,4.2,11.5,4.2,7.3,0,7.3-3.4,7.3-4.8s-.4-2.4-1.4-3.3c-1.2-1.1-3.7-2.5-7.5-4.1-4.4-1.9-7.5-3.9-9.4-6-2.4-2.6-3.6-6-3.6-10.2s1.9-8.6,5.6-11.7c3.6-3,8.2-4.5,13.7-4.5s8,.8,11.4,2.5c.7,.3,1.1,1,1.1,1.8v7.9c0,.8-.4,1.4-1.1,1.8-.3,.1-.6,.2-.9,.2s-.8-.1-1.2-.4c-2.9-2.1-6.2-3.1-9.9-3.1s-3.8,.5-5,1.5c-1.1,.9-1.6,2-1.6,3.4s.4,2.8,1.3,3.6c.7,.7,2.5,1.9,6.8,3.7,4.5,1.9,7.6,3.8,9.7,5.8,2.8,2.7,4.2,6.3,4.2,10.4s-1.7,8.5-5.2,11.5c-3.6,3.2-8.6,4.8-14.8,4.8Z"/><path class="y" d="M632.8,40.5c3.9,0,7.4,.8,10.5,2.3v7.9c-3.2-2.3-6.9-3.5-11.1-3.5s-4.7,.6-6.3,1.9c-1.6,1.3-2.4,2.9-2.4,4.9s.7,3.9,2,5.1c1.2,1.1,3.6,2.5,7.4,4.1,4.2,1.8,7.2,3.6,9,5.4,2.4,2.4,3.6,5.4,3.6,9s-1.5,7.4-4.5,10c-3.3,2.9-7.8,4.3-13.4,4.3s-8.7-1-12.1-3v-8.4c3.8,3.1,8.1,4.7,12.7,4.7s9.3-2.3,9.3-6.8-.7-3.5-2.1-4.7c-1.4-1.2-4-2.7-8-4.5-4.1-1.8-7-3.6-8.8-5.6-2.1-2.3-3.1-5.2-3.1-8.9s1.6-7.5,4.8-10.2c3.2-2.7,7.4-4,12.4-4m0-4c-6,0-11.1,1.7-15,5-4.2,3.5-6.3,7.9-6.3,13.2s1.4,8.6,4.2,11.6c2.1,2.3,5.4,4.5,10.1,6.5,4.7,2.1,6.4,3.3,6.9,3.8,.5,.5,.7,1,.7,1.8,0,1.2,0,2.8-5.3,2.8s-7.1-1.2-10.2-3.8c-.7-.6-1.6-.9-2.5-.9s-1.2,.1-1.7,.4c-1.4,.7-2.3,2.1-2.3,3.6v8.4c0,1.4,.8,2.8,2,3.5,4.1,2.3,8.8,3.5,14.1,3.5s12.1-1.8,16.1-5.3c3.9-3.4,5.9-7.8,5.9-13s-1.6-8.7-4.8-11.8c-2.2-2.2-5.6-4.3-10.3-6.3-4.6-1.9-5.9-3-6.2-3.3,0,0,0,0,0,0-.2-.2-.7-.6-.7-2.1s.2-1.3,.9-1.8c.8-.7,2.1-1,3.7-1,3.3,0,6.2,.9,8.8,2.7,.7,.5,1.5,.8,2.3,.8s1.2-.1,1.8-.4c1.3-.7,2.2-2.1,2.2-3.6v-7.9c0-1.5-.9-2.9-2.2-3.6-3.6-1.8-7.8-2.7-12.2-2.7h0Z"/></g><g><path class="z" d="M677.1,93.9c-7.9,0-14.3-2.6-19-7.7-4.5-4.9-6.8-11.5-6.8-19.4s2.6-16.2,7.8-21.2c4.8-4.7,11.2-7.1,19.2-7.1s14.1,2.5,18.6,7.5c4.4,4.9,6.7,11.6,6.7,20.1s-2.4,15.1-7.1,20.2c-4.8,5.1-11.3,7.7-19.3,7.7Zm.6-44.7c-4.3,0-7.7,1.4-10.3,4.1-2.7,3-4.1,7.4-4.1,13.1s1.3,9.5,3.9,12.4c2.6,2.9,6,4.3,10.4,4.3s7.9-1.4,10.3-4.3c2.3-2.9,3.5-7.1,3.5-12.6,0-5.8-1.3-10.2-3.8-13.1-2.4-2.7-5.7-4-10-4Z"/><path class="y" d="M678.3,40.5c7.3,0,13,2.3,17.1,6.8,4.1,4.5,6.2,10.8,6.2,18.7s-2.2,14.1-6.6,18.8c-4.4,4.7-10.3,7.1-17.8,7.1s-13.2-2.4-17.5-7.1c-4.2-4.6-6.3-10.6-6.3-18s2.4-15.1,7.2-19.8c4.4-4.3,10.4-6.5,17.8-6.5m-.6,44.7c5.2,0,9.1-1.7,11.8-5,2.7-3.3,4-7.9,4-13.9h0c0-6.3-1.4-11.1-4.3-14.4-2.7-3.1-6.6-4.7-11.5-4.7s-8.8,1.6-11.7,4.8c-3.1,3.4-4.6,8.2-4.6,14.5s1.5,10.5,4.4,13.8c3,3.3,6.9,5,11.9,5m.6-48.7c-8.5,0-15.4,2.6-20.6,7.6-5.6,5.4-8.4,13-8.4,22.6s2.5,15.4,7.4,20.8c5.1,5.6,12,8.4,20.5,8.4s15.6-2.8,20.7-8.3c5.1-5.5,7.7-12.7,7.7-21.5s-2.4-16.1-7.2-21.4c-4.9-5.4-11.6-8.1-20.1-8.1h0Zm-.6,44.7c-3.8,0-6.7-1.2-8.9-3.6-2.3-2.5-3.4-6.2-3.4-11.1s1.2-9.2,3.6-11.8c2.2-2.3,5-3.5,8.8-3.5s6.5,1.1,8.5,3.4c2.2,2.5,3.3,6.5,3.3,11.7,0,5-1,8.8-3.1,11.4-1.9,2.4-4.8,3.5-8.7,3.5h0Z"/></g><g id="m"><path class="z" d="M714.8,92.7c-1.1,0-2-.9-2-2V50.3h-6.3c-1.1,0-2-.9-2-2v-6.7c0-1.1,.9-2,2-2h6.3v-5.9c0-5.9,1.9-10.7,5.7-14.2,3.3-3,7.3-4.5,11.9-4.5s4.8,.3,6.5,1c.7,.3,1.2,1,1.2,1.8v7.1c0,.7-.4,1.4-1,1.7-.3,.2-.7,.3-1,.3s-.7,0-1-.3c-1.2-.7-2.7-1-4.2-1-2.9,0-6.2,1-6.2,8.4v5.6h9.5c1.1,0,2,.9,2,2v6.7c0,1.1-.9,2-2,2h-9.5v40.3c0,1.1-.9,2-2,2h-7.9Z"/><path class="y" d="M730.4,17.1c2.4,0,4.3,.3,5.7,.9v7.1c-1.5-.9-3.3-1.3-5.2-1.3-5.5,0-8.2,3.5-8.2,10.4v7.6h11.5v6.7h-11.5v42.3h-7.9V48.3h-8.3v-6.7h8.3v-7.9c0-5.4,1.7-9.6,5-12.7,2.9-2.6,6.4-4,10.6-4m0-4c-5.2,0-9.6,1.7-13.3,5-4.2,3.9-6.3,9.1-6.3,15.6v3.9h-4.3c-2.2,0-4,1.8-4,4v6.7c0,2.2,1.8,4,4,4h4.3v38.3c0,2.2,1.8,4,4,4h7.9c2.2,0,4-1.8,4-4V52.3h7.5c2.2,0,4-1.8,4-4v-6.7c0-2.2-1.8-4-4-4h-7.5v-3.6c0-6.4,2.4-6.4,4.2-6.4s2.3,.3,3.3,.8c.6,.3,1.3,.5,2,.5s1.4-.2,2-.5c1.2-.7,2-2,2-3.5v-7.1c0-1.6-1-3.1-2.5-3.7-1.9-.8-4.2-1.2-7.2-1.2h0Z"/></g><g id="n"><path class="z" d="M759.7,93.7c-6.8,0-14.8-2.9-14.8-16.4v-27h-6.4c-1.1,0-2-.9-2-2v-6.7c0-1.1,.9-2,2-2h6.4v-10c0-.9,.6-1.6,1.4-1.9,2.5-.8,5.1-1.6,7.8-2.5,.2,0,.4,0,.6,0,.4,0,.8,.1,1.2,.4,.5,.4,.8,1,.8,1.6v12.5h10.3c1.1,0,2,.9,2,2v6.7c0,1.1-.9,2-2,2h-10.3v25.7c0,3.5,.7,5,1.2,5.7,.7,.9,2.1,1.3,4,1.3s2.8-.4,3.9-1.2c.4-.3,.8-.4,1.2-.4s.6,0,.9,.2c.7,.3,1.1,1,1.1,1.8v6.7c0,.7-.4,1.4-1,1.7-2.2,1.2-4.9,1.8-8.4,1.8Z"/><path class="y" d="M754.8,27.2v14.5h12.3v6.7h-12.3v27.7c0,3.3,.6,5.6,1.7,7,1.1,1.4,3,2.1,5.6,2.1s3.6-.5,5.1-1.6v6.7c-1.9,1.1-4.3,1.6-7.4,1.6-8.5,0-12.8-4.8-12.8-14.4v-29h-8.4v-6.7h8.4v-12c2.5-.8,5.1-1.6,7.8-2.5m0-4c-.4,0-.8,0-1.2,.2-2.7,.9-5.4,1.7-7.8,2.5-1.7,.5-2.8,2.1-2.8,3.8v8h-4.4c-2.2,0-4,1.8-4,4v6.7c0,2.2,1.8,4,4,4h4.4v25c0,16,10.5,18.4,16.8,18.4s6.9-.7,9.4-2.1c1.2-.7,2-2,2-3.5v-6.7c0-1.5-.9-2.9-2.2-3.6-.6-.3-1.2-.4-1.8-.4s-1.7,.3-2.4,.8c-.7,.5-1.6,.8-2.7,.8s-2.3-.3-2.5-.6c-.2-.2-.8-1.2-.8-4.5v-23.7h8.3c2.2,0,4-1.8,4-4v-6.7c0-2.2-1.8-4-4-4h-8.3v-10.5c0-1.3-.6-2.5-1.6-3.2-.7-.5-1.5-.8-2.4-.8h0Z"/></g></g><g><g><path class="z" d="M1579.6,192.1c-4.2,0-7.8-1.4-10.5-4.1-2.8-2.8-4.2-6.3-4.2-10.5s1.4-7.6,4.3-10.5c2.8-2.8,6.4-4.3,10.6-4.3s7.6,1.4,10.4,4.1c2.9,2.8,4.3,6.3,4.3,10.5s-1.4,7.6-4.3,10.5c-2.8,2.8-6.4,4.2-10.6,4.2Zm0-25.8c-3.3,0-5.9,1.1-8,3.2-2.1,2.2-3.2,4.8-3.2,8s1.1,5.9,3.3,8c2.2,2.1,4.8,3.2,7.9,3.2s5.7-1.1,7.9-3.2c2.2-2.2,3.3-4.8,3.3-8s-1.1-5.8-3.2-8c-2.2-2.1-4.8-3.2-7.9-3.2Z"/><path class="y" d="M1579.7,163.8c3.9,0,7.1,1.3,9.7,3.8,2.7,2.6,4,5.9,4,9.8s-1.3,7.1-4,9.7c-2.7,2.6-6,3.9-9.9,3.9s-7.2-1.3-9.8-3.8c-2.6-2.6-3.9-5.8-3.9-9.7s1.3-7.1,4-9.7c2.7-2.6,5.9-4,9.9-4m0,25.9c3.4,0,6.2-1.2,8.6-3.5,2.4-2.3,3.6-5.2,3.6-8.7s-1.2-6.4-3.5-8.7c-2.4-2.3-5.2-3.5-8.6-3.5s-6.4,1.2-8.7,3.5c-2.3,2.3-3.5,5.2-3.5,8.7s1.2,6.4,3.6,8.8c2.4,2.3,5.2,3.5,8.6,3.5m0-27.9c-4.5,0-8.3,1.5-11.3,4.5-3,3-4.6,6.8-4.6,11.2s1.5,8.2,4.5,11.2c3,2.9,6.8,4.4,11.2,4.4s8.2-1.5,11.3-4.5c3.1-3,4.6-6.8,4.6-11.2s-1.6-8.3-4.7-11.3c-3-2.9-6.7-4.3-11.1-4.3h0Zm0,25.9c-2.9,0-5.2-.9-7.2-2.9-2-2-3-4.4-3-7.3s.9-5.3,2.9-7.2c1.9-2,4.3-2.9,7.3-2.9s5.2,.9,7.2,2.9c2,2,2.9,4.3,2.9,7.3s-1,5.3-3,7.3c-2,2-4.4,2.9-7.2,2.9h0Z"/></g><g><path class="z" d="M1583.3,187c-.4,0-.7-.2-.9-.6l-1.9-4.2c-.8-1.6-1.6-2.6-2.2-2.6h-.6v6.4c0,.6-.4,1-1,1h-2.5c-.6,0-1-.4-1-1v-17.6c0-.6,.4-1,1-1h5c2.4,0,4.3,.6,5.6,1.7,1.2,1,1.8,2.4,1.8,4.1s-.5,2.7-1.4,3.8c-.5,.6-1.1,1-1.9,1.4,.6,.6,1.1,1.5,1.7,2.5l2.3,4.7c0,.1,.1,.3,.1,.4,0,.6-.4,1-1,1h-3Zm-4-11.4c2.3,0,2.6-1,2.6-2,0-1-.4-1.3-.5-1.4-.3-.3-1-.6-2.6-.6h-1.2v4h1.6Z"/><path class="y" d="M1579.1,168.5c2.2,0,3.8,.5,5,1.5,1,.8,1.4,1.9,1.4,3.3s-.4,2.2-1.2,3.1c-.8,.9-1.9,1.4-3.3,1.7h0c1,.3,1.9,1.4,2.9,3.3l2.3,4.7h0s-3,0-3,0l-1.9-4.2c-1-2.1-2-3.2-3.1-3.2h-1.6v7.4h-2.5v-17.6h5m-2.5,8.1h2.6c2.4,0,3.6-1,3.6-3h0c0-1-.3-1.7-.8-2.2-.6-.5-1.7-.8-3.2-.8h-2.2v6m2.5-10.1h-5c-1.1,0-2,.9-2,2v17.6c0,1.1,.9,2,2,2h2.5c1.1,0,2-.9,2-2v-5c.2,.3,.6,.8,.9,1.6l1.9,4.2c.3,.7,1,1.2,1.8,1.2h3c1.1,0,1.9-.8,2-1.9,0-.3,0-.7-.2-1l-2.3-4.7c-.3-.7-.7-1.3-1.1-1.8,.4-.3,.8-.6,1.1-1,1.1-1.2,1.7-2.7,1.7-4.4s-.7-3.6-2.1-4.8c-1.5-1.3-3.6-2-6.3-2h0Zm-.5,6.1h.2c1.6,0,2,.3,2,.3,0,0,.1,.2,.1,.6,0,.3,0,.6-.2,.7,0,0-.4,.3-1.4,.3h-.6v-2h0Z"/></g></g></g><g id="o"><g id="p"><path class="ab" d="M168.7,379.1c-2,0-4.3,0-6.1-.1-20.5-.8-58.1-6.1-77.4-11-11.5-2.9-27.2-8.2-36.4-12.2-18.2-8-33.7-19.7-41.6-31.3-6.2-9.2-7.8-19.2-4.6-29,1.8-5.5,5.9-12.4,11.2-19,3.6-4.4,10.5-11.3,15.1-15,4.2-3.3,9.6-7.9,15.3-12.9,5.1-4.5,10.1-9,14.8-13.5,.1-.1,.3-.2,.4-.2l18.3-4.8,65.4-28.9s0,0,0,0l75.3-24.6c.1,0,.2,0,.3,0,.4,0,.8,.2,.9,.6l1.8,4.3c.1,.3,.1,.6,0,.8-.1,.3-.4,.5-.6,.5-5.8,1.7-8.5,2.5-9.5,2.8,0,.3,0,.9,.2,1.5,1.5,8.3,2.4,16.6,2.9,26.9,.3,6.3,.2,24.8-.3,30.4-1.5,19.9-3.8,36.5-6.8,49.1-4.9,20.6-14.2,45.1-26.8,70.9-2.5,5.1-6.8,13.7-7.7,14.3-.3,.2-.5,.3-4.4,.3h0Zm-62-15.1c8.8,1.7,28.5,5.2,40.8,7,7.9,1.2,20,2.9,22.1,3.1,.2-.3,.4-.8,.7-1.6,2.9-7.1,9.9-26.4,11.8-32.3-.5,.2-1.1,.5-1.9,.8-11.3,5.3-22.3,9.5-33.6,13-8.9,2.7-17.6,4.9-36,9.1l-4.1,.9Zm-12-2.5c.3,0,.5,.1,.7,.1,.3,0,3.7-1,8.5-2.4,24.3-7,54.2-15.8,64-18.9,3.7-1.2,8.1-2.6,11.1-3.6-8.4-.9-21-3.1-29.8-5.3-7.8-2-13.8-3.8-21.2-6.6-2.4-.9-4.1-1.5-4.9-1.8-.6,.8-1.7,2.6-3,4.6-6.8,10.3-15,21.4-23.2,31.2-1,1.2-1.8,2.1-2.2,2.8Zm-48.1-19.8c1.8,1.2,5.1,3.2,8.2,4.9,3.6,1.9,8.5,4.2,13.1,6,3.8,1.5,18.1,6.6,20.1,7.1h.1s1.3-2.2,1.3-2.2c1-1.7,2.7-4.5,3.8-6.3,1.2-1.8,4.6-7.2,7.6-12,5.7-9,8.5-13.4,9.8-15.6-.2,0-.5,.1-.7,.2-9.1,2.8-22.9,6.8-47.9,13.5-6.6,1.8-12.6,3.4-15.4,4.2Zm-6-4.1c.3,.2,.5,.3,.7,.5,1.6-.6,7.9-2.7,16.1-5.6,14.8-5.2,42.4-15,49.5-17.6-.4-.3-.9-.5-1.5-.9-10.3-6-18.6-12.8-27-22l-1.1-1.2-9.3,11.2c-14.6,17.6-21.4,26.2-26.7,33.8l-1.1,1.6,.2,.2Zm-26.6-36.9c0,.3,0,1.2,.4,3.2,1.3,5.8,4.5,12,9.3,18,2.3,2.9,7.5,8.2,10.5,10.7l1.7,1.4,1.8-2.7c1.4-2.1,3.7-5.6,5.2-7.7,1.5-2.2,5.7-8,9.2-12.9,8.2-11.5,13.6-19.2,15.9-22.6-1,.2-2.2,.5-3.7,.9-3.4,.8-12.7,3-20.4,4.8-13.3,3.1-27.6,6.4-29.9,7Zm116.4,15.7c1.9,.9,5.3,2.4,8.2,3.5,14.1,5.7,29.2,9.9,46,13,.4-1.2,1.3-3.7,2.3-7.1,3.2-10,4.8-15.4,6.8-22.5,2-7.1,4.2-15.9,5-19.6-.1,0-.2,.1-.4,.2-9.3,5.6-36,18.4-62.1,29.8-2.6,1.1-4.6,2-5.8,2.6Zm-44.2-32.9c7,8.8,17.5,17.7,29.5,25.1,1.2,.8,2.3,1.4,3,1.8,.6-1.1,1.9-3.2,3.4-5.9,8.3-14.7,14.8-27.7,19.7-39.7,0-.2,.1-.4,.2-.5-.6,.2-1.2,.5-2,.9-15.6,6.7-31.6,12.2-50.1,17.3l-3.7,1h0Zm66.8-21.4c-3.7,11.4-10.8,27.5-18,41-.4,.8-.8,1.6-1.2,2.2,1.6-.6,4.5-1.7,6.9-2.6,24.9-9.3,49.2-19.4,57.3-23.8-14.2-3.4-30.8-9.9-42.7-16.8-.8-.5-1.5-.9-2-1.1,0,.3-.2,.7-.4,1.1Zm-90.1-16.8c-2.8,1.5-9.2,5.1-14,7.8-8,4.6-12.7,8.1-18.5,14.2-8.6,8.9-14.8,19.4-16.2,27.5,1.3-.3,3.4-.9,5.8-1.6,11.6-3.2,43-12.4,48.9-14.2-.3-.7-.9-1.9-1.6-3.3-4.2-8.5-5.6-14.9-5.1-23.4,.1-2,.4-4.8,.7-6.2,0-.2,0-.5,.1-.7Zm97,10.6c2.3,1.5,7.6,4.7,12,7.1,8.3,4.5,17.5,8.5,26,11.1,1,.3,1.9,.6,2.5,.8,.1-.7,.3-1.8,.5-3,1.9-12.5,3.3-30.1,3.3-42.6v-.3c-2,1.5-6.2,4.6-9.1,6.5-9.2,6.2-20,12.5-31.2,18.3-1.7,.9-3,1.6-3.9,2Zm-54.8-31.2c-5.9,2.6-22.5,10.4-28.8,13.6h0q-1.1,.6-1.7,3.5h0c-1,4.8-1.1,12.4-.3,16.7,.8,4.4,2.4,9.1,4.3,12.9,0,.1,.1,.2,.2,.4,.5-.8,1.3-2.1,2.2-3.5,8.1-12.9,14.1-23.5,19.6-34.2,1.9-3.8,3.7-7.4,4.7-9.5Zm12.6-5.3c-.5,.2-.6,.3-.7,.8-.2,.6-1.2,3.2-2.1,5.7-5.7,14.6-15.8,35-22.6,45.5,0,0-.1,.2-.2,.3,1-.3,7.5-2.4,7.5-2.4,13.3-4.3,25.1-8.4,35.9-12.5l.5-.2c3.6-1.4,5.9-2.2,7.1-2.7-.5-.4-1.2-1-1.9-1.6-4.3-3.7-9.4-9.2-13.3-14.3-3.6-4.8-7.7-12.2-9.6-17.2-.2-.6-.4-1-.5-1.4,0,0-.1,0-.2,0Zm46.1-17.7c0,.8,0,2.3,0,4.7,0,11.7-2.2,26-6.1,40.3-.1,.5-.2,.9-.3,1.2,.9-.4,2.1-.9,3.5-1.5,15.9-7,28.6-13.9,39-20.9l1-.7c.8-.5,1.4-1,1.9-1.3h-.3c-6.9-3.1-22.8-12-34.6-19.4-.9-.6-3-1.9-4-2.4Zm-38.2,14.4c.5,1.4,1.9,4.7,2.9,6.7,2.5,4.9,6,10,10.3,15.1,2.2,2.5,7.2,7.5,9.4,9.4,.2-.7,.5-1.6,.8-2.7,2.6-8.7,4.2-16.3,5.2-24.6,.4-2.9,.6-12,.5-15.1-4.9,1.7-25.1,9.6-29.1,11.3Zm46.3-17.5c3.3,2.3,12.3,8.3,17.2,11.3,5.6,3.5,12.1,7.4,14.8,8.8,0-.5,0-1.3,0-2.3-.4-10.4-1.9-24.1-2.6-27.4-3.6,1-18.9,5.9-26.4,8.5-1.2,.4-2.2,.8-2.9,1Z"/><path class="y" d="M218.9,177.6l1.8,4.3c-9.3,2.7-10,2.9-10.2,3.1-.1,0,0,1.1,.2,2.3,1.4,8.2,2.3,16.5,2.9,26.7,.3,6.3,.2,24.8-.3,30.3-1.5,19.8-3.8,36.5-6.8,49-4.9,20.7-14.1,44.9-26.7,70.7-3.7,7.6-6.9,13.6-7.4,13.9-.1,0-1.8,.1-3.9,.1s-4.1,0-6.1-.1c-20.6-.8-57.9-6.1-77.2-11-11.6-2.9-27-8.1-36.2-12.1-18-7.9-33.4-19.5-41.1-30.9-6.1-8.9-7.6-18.6-4.5-28.2,1.7-5.3,5.8-12.2,11-18.7,3.5-4.4,10.3-11.1,14.9-14.8,4.1-3.3,9.6-7.9,15.3-12.9,5.3-4.6,10.2-9.1,14.8-13.5l18.4-4.8,65.5-28.9,75.3-24.6m-14.3,42.5c.1,0,.2-1.5,0-3.9-.5-11.1-2.3-28.5-3-28.5h0c-.6,0-19.4,6-27.3,8.7-4.7,1.6-4.7,1.6-4.2,2,1.7,1.3,12.5,8.5,18.2,12.1,6.5,4.1,15.7,9.5,16.2,9.5m-48.7,29.2c0,0,2.4-1,5.2-2.2,15.8-7,28.8-14,39.1-21,4.9-3.3,4.6-2.9,2.5-3.9-6.8-3-22.7-11.8-34.5-19.2-3.1-2-4.5-2.7-4.9-2.7h0s0,0,0,0c-.5,.1-.5,.2-.6,5.9,0,11.5-2.2,25.8-6.1,40-.5,1.7-.8,3.1-.7,3.1m-7.4-.6s0,0,0,0c0-.1,.7-1.9,1.3-4,2.6-8.8,4.2-16.5,5.2-24.8,.4-3.5,.7-16.2,.3-16.6h0s0,0,0,0c-.8,0-30.2,11.4-31.1,12-.2,.1,1.9,5.2,3.2,7.7,2.5,5,6,10.1,10.5,15.3,2.5,3,10.1,10.3,10.6,10.3m-58.5,24.4s.1,0,.2,0c.2,0,4.5-1.5,9.6-3.1,13.5-4.4,25.2-8.4,35.9-12.5,9.3-3.5,9.2-3.5,8.8-3.8-.2-.2-1.4-1.2-2.8-2.4-4.2-3.6-9.3-9.1-13.1-14.2-3.5-4.7-7.6-12-9.4-16.9-.4-1-.8-1.9-.9-2.1,0,0,0,0-.2,0h0s0,0,0,0c-.2,0-.6,0-.9,.3-.8,.3-1,.6-1.3,1.5-.2,.6-1.1,3.1-2.1,5.6-5.7,14.4-15.8,34.9-22.5,45.3-1.3,2-1.6,2.5-1.3,2.5m-11.5,.3c0,0,.1,0,.2-.2,.2-.3,1.5-2.3,2.8-4.5,8.1-12.9,14.1-23.5,19.6-34.2,2.8-5.5,5.7-11.6,5.6-11.8,0,0,0,0,0,0-.7,0-23.9,10.9-31,14.6-1.7,.9-1.6,.8-2.4,4.3-1,4.8-1.1,12.5-.3,17,.8,4.5,2.5,9.4,4.4,13.2,.6,1.2,.9,1.7,1.1,1.7m122.5,2.6s0,0,0,0c0,0,.3-1.9,.7-4.1,2-12.7,3.3-30.1,3.3-42.8v-2.4l-.8,.7c-1.2,1-6.4,4.8-9.9,7.1-9.3,6.2-20,12.5-31.1,18.3-2.8,1.5-5.2,2.7-5.2,2.8-.2,.2,7.8,5.1,13.3,8.2,8.4,4.6,17.6,8.5,26.2,11.2,1.9,.6,3.5,1,3.6,1M13.1,295.9c0,0,.1,0,.2,0,.3,0,3.3-.9,6.8-1.9,11.8-3.2,49.5-14.3,49.9-14.6,0,0-.9-2-2-4.3-4.1-8.4-5.5-14.6-5-22.9,.1-1.9,.4-4.7,.6-6.1,.4-2.1,.4-2.5,.2-2.5,0,0,0,0,0,0h0s0,0-.1,0c-.7,.2-9.6,5.2-15.4,8.5-8.1,4.6-12.8,8.2-18.7,14.3-8.9,9.2-15.3,20.2-16.6,28.5-.1,.8-.1,1,0,1m139.6-36.5h0s-.4,1-.7,2.2c-3.7,11.3-10.8,27.5-17.9,40.8-1.3,2.4-2.3,4.4-2.3,4.5s0,0,0,0c.1,0,.6-.2,1.3-.4,.7-.3,4.3-1.6,8-3,25.4-9.5,50.3-19.9,57.9-24.1l1.8-1-1.3-.3c-14.5-3.3-31.4-9.9-43.6-16.9-1.6-.9-3-1.7-3.1-1.7s0,0,0,0m-33.8,52.2c0,0,1.8-3.1,4-6.8,8.3-14.7,14.8-27.8,19.8-39.8,.6-1.4,1-2.6,1-2.6h0s0,0,0,0c-.1,0-1.9,.7-4.1,1.7-15.7,6.7-31.4,12.2-50,17.3l-5.2,1.4,1,1.3c7,8.9,17.7,18,29.8,25.3,2,1.2,3.7,2.3,3.8,2.3h0m66.3,22.3c0,0,1.3-3.5,2.6-7.9,3.1-9.9,4.8-15.4,6.8-22.5,2.4-8.5,5.3-20.2,5.3-21.5s0,0,0,0h0s0,0,0,0c-.2,0-1,.4-2.1,1-9.2,5.5-36,18.4-62,29.7-4.3,1.9-7.7,3.5-7.6,3.6,.3,.3,6,2.8,10,4.4,14.2,5.7,29.3,10,46.3,13,.3,0,.7,.1,.7,.1,0,0,0,0,0,0m-149.2,1.4l2.4-3.7c1.3-2,3.6-5.5,5.2-7.6,1.5-2.2,5.7-8,9.2-12.9,10.1-14.2,17.4-24.6,17.2-24.7,0,0,0,0,0,0-.2,0-2.8,.6-6,1.4-3.3,.8-12.4,2.9-20.4,4.8-14.3,3.3-29.5,6.9-30.3,7.1-.6,.2-.6,1.6,0,4.3,1.3,5.9,4.6,12.3,9.5,18.4,2.4,3,7.6,8.3,10.6,10.8l2.5,2.1m5,3.7c0,0,7.5-2.6,16.6-5.7,16.1-5.6,50.9-18,51.3-18.2,.1,0-1.3-1-3.1-2-10.2-5.9-18.5-12.7-26.7-21.8l-1.8-2h0s-10.1,12.1-10.1,12.1c-14.7,17.7-21.4,26.2-26.7,33.9l-1.6,2.4,1,.8c.6,.4,1.1,.7,1.1,.8h0m54.3,23.5c0,0,.1,0,.2,0,.2,0,4.1-1.1,8.6-2.4,24.4-7,54.3-15.8,64.1-18.9,6.2-1.9,14.5-4.7,14.9-5,.2-.1-.4-.3-1.7-.4-8.3-.7-22.3-3.1-31.9-5.5-7.9-2-13.7-3.8-21.1-6.6-3-1.1-5.5-2-5.7-2s0,0,0,0h0c0,0-1.6,2.4-3.5,5.2-6.8,10.4-14.9,21.3-23.1,31.1-1.7,2-3,3.7-3,3.8,0,.2,1.5,.7,2.3,.7m-6.8-1.7l1.7-2.9c.9-1.6,2.6-4.4,3.8-6.3,1.2-1.8,4.6-7.2,7.6-12,7.1-11.2,11.1-17.7,11.1-17.7h0s0,0,0,0c-.1,0-1.5,.4-3.1,.9-9.1,2.8-22.9,6.7-47.8,13.5-9.4,2.6-17.2,4.7-17.3,4.7-.5,.1,5.3,3.8,9.8,6.2,3.6,2,8.5,4.2,13.3,6.1,3.8,1.5,18.2,6.6,20.2,7.1l.8,.2m81.3,14.3c.4,0,.7-.5,1.4-2.2,3.4-8.1,12.6-33.7,12.4-34.3,0,0,0,0,0,0s0,0,0,0c-.4,0-1.9,.7-3.7,1.5-11.2,5.2-22.3,9.5-33.5,12.9-8.9,2.7-17.6,4.9-35.9,9l-8.5,1.9,1.4,.3c6,1.4,29.8,5.5,44,7.7,8.1,1.2,21.5,3.1,22.5,3.1,0,0,0,0,0,0m49.1-199.6c-.2,0-.4,0-.6,0l-75.3,24.6c0,0-.1,0-.2,0l-65.4,28.9-18.2,4.8c-.3,0-.6,.3-.9,.5-4.7,4.4-9.7,9-14.8,13.4-5.7,5-11.1,9.5-15.3,12.8-4.7,3.7-11.7,10.7-15.3,15.1-5.4,6.7-9.5,13.7-11.4,19.3-3.3,10.1-1.7,20.5,4.7,29.9,8,11.7,23.7,23.6,42,31.6,9.2,4.1,24.9,9.3,36.5,12.3,19.3,4.9,57,10.2,77.6,11,1.9,0,4.1,.1,6.2,.1,4.3,0,4.5-.1,5-.5,.4-.3,1.3-.8,8.1-14.7,12.6-25.8,21.9-50.4,26.8-71.1,3-12.7,5.3-29.3,6.9-49.3,.4-5.6,.6-24.2,.3-30.6-.5-10.3-1.4-18.6-2.9-27,0-.2,0-.4,0-.6,1.4-.4,4.1-1.2,8.7-2.6,.5-.2,1-.5,1.2-1.1s.3-1.1,0-1.6l-1.8-4.3c-.3-.8-1.1-1.2-1.8-1.2h0Zm-44.9,23.1c.3-.1,.7-.2,1.1-.4,6.7-2.3,20.3-6.7,25.2-8.2,.7,4.5,2,17,2.4,26.2,0,.2,0,.3,0,.5-3.1-1.8-8.5-5-13.2-7.9-4.5-2.9-11.7-7.6-15.5-10.2h0Zm-15.3,47.2c3.8-14.1,5.9-28.2,5.9-39.8,0-1.2,0-2.2,0-3,.7,.4,1.5,.9,2.5,1.5,11.2,7,25.9,15.2,33.4,18.7-.1,0-.3,.2-.4,.3l-1,.7c-10.3,7-23,13.8-38.8,20.8-.6,.2-1.1,.5-1.6,.7h0Zm-32-29.5c5-2.1,20.8-8.2,26.8-10.4,0,3.8-.2,11-.5,13.6-1,8.2-2.6,15.8-5.2,24.5-.1,.4-.2,.8-.4,1.2-2.4-2.3-6.3-6.2-8.1-8.2-4.3-5-7.7-10-10.2-14.9-.9-1.7-1.9-4.2-2.5-5.7h0Zm-32.4,53.2c6.7-11,16-29.9,21.4-43.6,.6-1.6,1.4-3.6,1.8-4.8,1.9,5.1,6,12.3,9.6,17,4,5.2,9.1,10.8,13.4,14.5,.2,.2,.4,.3,.6,.5-1.3,.5-3.1,1.2-5.5,2.1l-.5,.2c-10.8,4.1-22.5,8.2-35.9,12.5l-2.9,.9c-.7,.2-1.4,.5-2,.6h0Zm-18.4-30.2c.1,0,.4-.2,.6-.3h0c5.3-2.8,19.1-9.3,26.3-12.5-1,2-2.2,4.5-3.5,7-5.5,10.7-11.5,21.2-19.6,34.1-.5,.7-.9,1.4-1.2,2-1.6-3.5-2.9-7.6-3.6-11.4-.8-4.2-.6-11.6,.3-16.2h0c.2-1.3,.4-2.3,.6-2.6h0Zm85.8,16.4c.7-.4,1.5-.8,2.4-1.2,11.2-5.8,22.1-12.2,31.3-18.4,2.3-1.5,5.4-3.7,7.6-5.3-.1,12.4-1.5,28.8-3.3,40.7-.1,.7-.2,1.3-.3,1.9-.4-.1-.9-.3-1.4-.4-8.4-2.6-17.6-6.5-25.8-11-3.6-2-7.9-4.5-10.5-6.2h0ZM15.4,293.2c1.9-7.7,7.7-17.2,15.6-25.4,5.8-6,10.4-9.5,18.3-14,3.9-2.3,9-5.1,12.2-6.8-.2,1.5-.4,3.5-.5,5.1-.5,8.7,.9,15.2,5.2,23.9,.4,.9,.8,1.6,1.1,2.2-7.8,2.4-37.1,11-47.7,13.9-1.4,.4-3,.8-4.2,1.2h0Zm120.5,10c7.2-13.5,14.3-29.6,18-41,.3,.2,.6,.3,1,.5,11.2,6.5,26.6,12.7,40.3,16.2-9.7,4.8-32,14-54.8,22.5-1.5,.6-3.1,1.2-4.5,1.7h0Zm-48-19.3l2.3-.6c18.5-5.1,34.4-10.6,50-17.3-4.8,11.5-11,23.9-18.9,37.8-1.3,2.2-2.2,3.9-2.9,5.1-.6-.3-1.3-.8-2.1-1.3-11.4-7-21.4-15.4-28.4-23.8h0Zm45,32.4c1.1-.5,2.3-1.1,3.8-1.7,24.8-10.8,50.1-22.9,60.6-28.9-1,4.2-2.7,11.1-4.5,17.3-2,7-3.6,12.5-6.8,22.5-.9,2.8-1.6,4.9-2,6.2-16.4-3-31.1-7.2-45-12.8-2-.8-4.3-1.8-6.2-2.6h0Zm-117.8-14.9c3.6-.9,16-3.8,29.1-6.8,7.7-1.8,17-4,20.4-4.8,.4,0,.8-.2,1.2-.3-2.8,4-7.7,11-14.5,20.5-3.7,5.2-7.7,10.8-9.2,12.9-1.5,2.1-3.8,5.6-5.2,7.7l-1.2,1.8-.8-.7c-2.9-2.4-8-7.7-10.3-10.5-4.7-5.9-7.9-12-9.1-17.6-.2-1.1-.3-1.7-.4-2.2h0Zm27,35.3l.2-.3c5.3-7.6,12-16.2,26.6-33.7l8.6-10.3,.3,.3c8.3,9.2,16.6,16.1,26.8,22-9.3,3.4-34,12.1-47.5,16.8-6.9,2.4-12.5,4.3-15,5.2h0Zm-27-36h0Zm82.2,59.4c.2-.2,.4-.5,.6-.7,8.2-9.8,16.5-20.9,23.3-31.3,1.1-1.7,2-3.1,2.6-4,.9,.3,2.3,.8,4.1,1.5,7.5,2.8,13.4,4.6,21.3,6.6,7.4,1.9,17.5,3.7,25.5,4.8-2.2,.7-4.6,1.5-6.9,2.2-9.8,3.1-39.7,11.9-64,18.9-2.7,.8-5,1.4-6.5,1.9h0Zm-48.2-18c3.2-.9,7.9-2.2,13.3-3.6,23.3-6.4,37-10.2,46.1-13-1.6,2.6-4.2,6.7-8.4,13.3-3,4.7-6.4,10.1-7.6,12-1.1,1.8-2.9,4.6-3.8,6.3l-.9,1.6c-3.4-1.1-16-5.5-19.4-6.9-4.6-1.8-9.5-4.1-13-6-2.2-1.2-4.5-2.5-6.2-3.6h0Zm133.5-4h0Zm-70.9,26c17.9-4,26.6-6.2,35.4-8.9,11.3-3.5,22.3-7.7,33.5-12.9-2.5,7.4-8.5,23.8-11.1,30.1-.2,.4-.3,.7-.4,.9-3.3-.4-14.2-1.9-21.4-3-10.4-1.6-26.2-4.3-36.1-6.1h0Z"/></g><g id="r"><path class="aa" d="M177.6,74.2c0,0-.1,0-.2,0l-49.4-8.5-43.2-7.7s0,0-.1,0l-18.1-5.8c-.1,0-.3-.1-.4-.2l-7.6-7.2c-.2-.2-.3-.5-.3-.7,0-.8,.1-1.6,.4-2.3,.7-1.9,5-6,8-8.1,8.5-5.9,22.3-12.9,39.9-20,11.3-4.6,32.8-12.5,34.8-12.5s.1,0,.2,0c1.3,.2,1.5,.9,2.6,4.8,1.8,6.4,5,15.2,8.3,22.8,4.3,9.9,11.7,24.5,18.4,36.3l1.1,1.9,6.5,1c.5,0,.9,.6,.8,1.1l-.5,4.2c0,.3-.2,.5-.4,.7-.2,.1-.4,.2-.6,.2Zm-45.1-13.5c3.7,.6,11.6,1.9,23,3.8l2.2,.4c1.2,.2,2.1,.3,2.8,.5-2.2-3.8-7-13.1-8.8-16.9-.1-.3-.3-.7-.5-1.1-.5,.4-1.3,1.1-2.1,1.8-5.2,4.4-10.9,8.4-16.6,11.6Zm-15-2.4c1.4,.2,2.1,.3,2.4,.4,.4-.2,1.7-.9,3.2-1.9,6.2-3.9,15.1-8.8,23.2-12.9,.2-.1,.5-.2,.7-.4-.1,0-.2,0-.3,0-15.8-1.3-44-6.6-57.3-10.7,3.4,3.2,11.4,10.9,20.6,19.7l5.5,5.3,2,.3Zm-44.7-9.4c3.8,1.2,6.4,1.9,12.5,3.3,4.4,1,11.5,2.4,15.1,3.1,0,0-.1-.2-.2-.2-1-1.2-5.4-6.6-9.8-12.1l-7.4-9.3c-7.7,5.5-12.6,11-12.6,14.5h0s2.4,.8,2.4,.8Zm22.7-20.9c18.9,2.6,45,7.1,50.8,8.7,0,0,.5,.1,.5,.1-.2-.7-.5-1.7-1-2.9l-.4-1.1c-2.8-8.4-4.6-16.1-5.6-24.2-.1-.9-.2-1.8-.3-2.4-4.4,1.6-22.3,9-29.7,12.5-4.6,2.1-13.3,6.6-17.3,8.9,.8,.1,1.8,.3,2.9,.4Z"/><path class="y" d="M141.3,2s0,0,0,0c.6,0,.7,.3,1.8,4.1,1.8,6.4,5,15.3,8.3,22.9,4.3,9.9,11.7,24.6,18.4,36.4l1.3,2.3,6.5,1c.1,0,.3,0,.4,0l-.5,4.2-49.4-8.5-43.2-7.7-18.1-5.8-7.6-7.2c0-.7,.1-1.3,.3-1.9,.6-1.5,4.5-5.5,7.7-7.7,8.4-5.9,22.1-12.8,39.7-19.9,12.9-5.2,32.8-12.4,34.4-12.4m6.4,36c.8,0,.3-1.1-1.2-5.6-2.8-8.3-4.6-16-5.5-24-.2-1.9-.5-3.5-.5-3.5,0,0,0,0,0,0s0,0,0,0c-1.6,.3-23,9.2-30.8,12.8-6.1,2.9-19.9,10.1-19.7,10.3s2.6,.4,5.6,.8c18.8,2.6,44.9,7.1,50.7,8.7,.7,.2,1.2,.4,1.5,.4m-27.6,21.6c.2,0,1.9-.9,3.7-2,6.2-3.9,15-8.8,23.1-12.8,2-1,3.6-1.9,3.6-1.9,0,0-1.6-.2-3.5-.4-16.8-1.4-47.1-7.2-59.2-11.3l-2.2-.8,2.9,2.8c3,2.8,10.9,10.4,20.9,20.1l5.7,5.6,2.3,.4c1.2,.2,2.4,.4,2.7,.4,0,0,0,0,0,0m-17.3-3.1s0,0,0,0c0,0-.7-1-1.7-2.2-1-1.2-5.4-6.6-9.8-12.1l-8-10-.7,.5c-8.2,5.8-13.1,11.5-13.1,15.3v.8s3.1,1,3.1,1c3.8,1.2,6.4,1.9,12.6,3.3,5.8,1.3,16.6,3.4,17.6,3.4m59.4,9.9c.5,0,.2-.2,0-.5-1.5-2.2-7.5-13.8-9.4-18-.7-1.6-1-2-1.2-2.1,0,0,0,0,0,0,0,0-.2,0-.2,.1-.2,.2-1.5,1.2-2.7,2.3-5.4,4.5-11.4,8.7-17.4,12-.7,.4-1.3,.8-1.3,.8,0,.1,6.2,1.2,25.5,4.3,4.5,.7,6.2,1,6.8,1M141.3,0c-2.4,0-24.9,8.4-35.2,12.6-17.7,7.2-31.6,14.2-40.1,20.1-2.8,2-7.5,6.3-8.4,8.6-.3,.8-.4,1.7-.5,2.6,0,.6,.2,1.1,.6,1.5l7.6,7.2c.2,.2,.5,.4,.8,.5l18.1,5.8c0,0,.2,0,.3,0l43.2,7.7,49.4,8.5c.1,0,.2,0,.3,0,.4,0,.8-.1,1.2-.4,.4-.3,.7-.8,.8-1.4l.5-4.2c.1-1.1-.6-2-1.7-2.2h-.2s-.2,0-.2,0l-5.6-.9-.8-1.5c-6.7-11.8-14.1-26.4-18.3-36.2-3.3-7.6-6.5-16.3-8.2-22.7-1.1-4.1-1.5-5.3-3.4-5.6,0,0-.2,0-.3,0h0Zm-45.5,27c4.3-2.3,10.7-5.6,14.6-7.4,6.8-3.1,22.7-9.8,28.4-12,0,.3,0,.7,.1,1.1,1,8.2,2.8,15.9,5.6,24.4l.4,1.1c.1,.4,.3,.8,.4,1.2-7.7-1.8-31.8-6-49.6-8.4h0Zm20.2,30l-5.3-5.1c-7.1-6.9-13.5-13-17.6-16.9,13.4,3.6,35.7,7.8,50.4,9.3-7.5,3.8-15.3,8.2-20.9,11.7-1.3,.8-2.4,1.4-2.9,1.7-.4,0-1-.2-2.1-.3l-1.7-.3h0Zm-44.5-9.6c.5-2.5,3.7-6.9,11.4-12.4l6.8,8.5c3.2,4,6.4,7.9,8.3,10.3-3.7-.7-8.8-1.7-12.4-2.6-6.1-1.4-8.6-2.1-12.4-3.3l-1.6-.5h0Zm63.8,12.8c5-3,9.9-6.5,14.4-10.3,.4-.3,.8-.7,1.1-1,1.5,3.4,5.3,10.7,7.8,15.1-.3,0-.5,0-.8-.1l-2.2-.4c-9-1.4-16-2.6-20.3-3.3h0Z"/></g><g id="t"><path class="ac" d="M29.8,262.9c-.4,0-.7-.2-.9-.5-.2-.4-.1-.9,.2-1.3,38.7-31.8,63.2-59.8,75.1-85.7,6.6-14.4,9.2-26.5,8.9-40.5-.6-21.9-6.5-37.4-20.4-53.5-3-3.5-28.1-28-28.3-28.2-2.6-2.5-4.8-4.7-5.6-6.7-1.4-3.4,0-5.7,.2-5.8,.2-.3,.5-.5,.8-.5s.1,0,.2,0c.4,0,.7,.3,.8,.7,1,3.7,5.3,5.3,9.1,6.8,.6,.2,1.1,.4,1.6,.6,5.6,1.9,12.8,3.5,14.9,4,5.7,1.2,13.8,2.6,20.3,3.8l2.8,.5c18.4,3.2,35.1,5.9,61.5,10,12.3,1.9,27.4,4.5,34.4,5.9,36.8,7.3,65.6,17,88,29.6,16.3,9.1,29.6,20.2,40.7,33.9,3.8,4.7,6.9,9.1,11.5,16.2l.8,1.3c.2,.3,.2,.6,0,1-.1,.3-.4,.5-.8,.6l-5.2,.8c-50,7.7-137.2,31-190.5,51.1-37.1,13.9-66.9,27.3-93.9,42-11.9,6.5-16.6,9.3-20.1,11.9,0,0-.2,.1-.3,.1l-5.7,1.9c-.1,0-.2,0-.3,0Zm91.2-77.2c-6.2,4.1-16.8,11.3-22.7,15.6-3,2.2-3.4,2.5-5.5,5.2-3.2,4.2-6.1,7.6-9.9,11.7-.5,.5-1,1-1.4,1.5,12.3-8,22.5-16.4,32.7-26.8,2.2-2.2,4.7-5,6.7-7.3Zm13.5-4.9c-.4,.5-1,1.2-1.7,2.1-10.1,12.4-23.3,24.8-38.5,36.3,1.9-.9,3.8-1.8,5.2-2.5,8.7-4,21.7-9.4,35.6-14.8l7.1-2.7v-.4c-.7-5.1-3.1-11.4-6.3-16.1-.4-.6-.9-1.4-1.3-1.9Zm7.3-8.2c.2,.6,.9,2,1.2,2.6,3.1,6.4,4.9,13.7,4.9,20.7,.9-1.1,2.3-2.6,3.9-4.6,6.8-8,16.8-20.5,22.3-27.9,3.2-4.3,7.8-10.7,10.4-14.3-3.7,1.8-10.1,5.1-15.1,7.8-10.3,5.5-25.1,14-27.6,15.7Zm56.2-25.3c-10,14.9-23.3,30.2-38.4,44.1,0,0-1.6,1.5-2.2,2,.3-.1,.6-.2,1-.4,23.4-8.6,43.7-15.1,69.8-22.3l3-.8c-1.9-1.9-7.3-6.7-10.2-9.1-5.8-4.8-13.2-10.3-19.6-14.4l-1.9-1.3-1.5,2.2Zm-82.2,18.3c-.2,.4-.4,1.1-.7,1.9-1.3,3.9-3,8.3-4.8,12-1.5,3.1-2.9,5.6-5,9.1,.2-.1,.3-.2,.5-.4,4.7-3.7,12.9-10,18.4-13.9,1.1-.8,1.9-1.4,2.4-1.8-2.6-2.1-5.6-4-8.8-5.8-.8-.5-1.5-.8-2-1.1Zm94.8-28.8c.7,.5,2.5,2,4.2,3.4,9.2,7.6,16.8,16,23.2,25.7,.3,.5,.6,.9,.8,1.2,.7-.9,1.9-2.3,3.4-4.2,2.3-2.9,9-11.3,14.9-18.8,11.3-14.3,16.3-20.7,19.7-25.6,1.6-2.3,3.6-5.3,4.8-7.3-2.6,.7-7.3,2.1-12.1,3.6-13.1,4-30.6,10.2-43.5,15.5-5.8,2.4-12.8,5.3-15.6,6.6Zm78-24.8c-.7,1.4-1.9,3.9-2.2,4.6-9.3,18.8-17.4,29.6-34.7,46.3-1,.9-1.8,1.8-2.5,2.4,.2,0,.4,0,.6-.1,29.6-7.1,60.3-12.2,84.3-14,1.5-.1,2.7-.2,3.7-.3-2.2-2.3-6.7-7-9-9.2-10.6-10.4-24.1-20.5-37.9-28.4-1-.6-1.8-1-2.2-1.2Zm-167.2,42c.4,.2,1,.6,1.7,.9,3.9,2,7.1,4.3,10.8,8l2.3,2.2,.8-1.2c.8-1.3,2.2-3.6,3-5.2,3.7-6.7,7.7-15.8,10-22.9,.8-2.5,1.8-6,2.4-8.3-3.5,2.7-10.5,8.4-14.6,11.8-6.8,5.7-14.2,12.5-16.4,14.7Zm40.4-29c0,.1,0,.3-.1,.5-2.4,11-6.5,22.2-11.7,31.6,0,0,0,0,0,0,.7-.4,1.4-.9,2.3-1.4,9.6-5.9,18.7-10.9,29.5-16.3,1.9-1,3.5-1.8,4.5-2.3-2.4-1.3-7.5-4-11.7-6.1-5.1-2.6-10.8-5.2-12.9-6.1Zm-43.3-14.4c0,.4,.1,1,.2,1.7,1.7,11.9,2.1,23.6,1,33,.8-.7,1.8-1.7,3-2.9,8.7-8.4,15.9-14.9,23.3-21.1,.9-.8,1.7-1.4,2.2-1.9-3.4-1.3-13.1-4.5-18.7-6.1-3.5-1-8.8-2.2-11-2.7Zm51.5,3.9c.7,.3,1.7,.7,2.9,1.2,8.3,3.4,15.8,7.1,22.5,11,1.1,.6,2,1.1,2.6,1.4,.4-.6,1-1.7,1.9-3.1,6.7-11.8,12.2-24.3,14.2-32.6,.4-1.7,.9-4.1,1.1-5.7-3.5,1.8-12.5,6.8-18.8,10.6-8.3,5-22.3,14.2-26.3,17.2Zm51.3-27.6c0,.2,0,.5-.1,.8-1,11.7-5,25.2-11.1,38.3-.1,.3-.2,.5-.3,.7,.3-.1,.7-.3,1.1-.5,20.3-8.2,41.2-14.7,65.8-20.4h0s-1.5-.7-1.5-.7c-9.9-4.5-25.4-10.2-38.6-14.1-4.6-1.4-12.7-3.6-15.3-4.2Zm-99.7,12.3c1.4,.4,4,1.2,7.4,2.1,8.6,2.4,18.4,5.3,24.5,7.2l1.9,.6c0-.7,.2-2.3,.2-4.3,.3-8.5-.6-17.6-2.7-25.8-.8-3-1.2-4.5-1.5-5.2-3.2,2.2-15.6,11.8-20.8,16.4-2.5,2.2-7.2,6.8-9,8.9Zm35.8-24.6c4,9.3,6.2,20.4,6.2,31.3,0,.7,0,1.3,0,1.8,.9-.6,2.3-1.5,3.9-2.6,11.1-7.4,22.3-13.5,37.4-20.3,1-.5,1.9-.9,2.6-1.2-3.7-.8-11.5-2.4-17.8-3.6-9.4-1.8-27.2-4.9-32.5-5.7,0,0,0,.2,.1,.3Zm-52.9-9.2c3.9,8.3,8.2,20.1,10.2,28,0,.2,.1,.4,.2,.6,.5-.5,1.1-1.1,1.9-1.9,4.1-4.1,9.9-8.7,16.3-13,2.4-1.6,8.9-5.5,11.4-6.9-.3,0-.6-.1-.9-.2-11-1.9-28.5-5.2-38.2-7.4-.5-.1-.9-.2-1.3-.3,.1,.3,.3,.6,.4,1Zm-25.3-7.4c10.6,8.5,19.7,18.6,26.2,28.9-2.1-7.4-6.5-21.3-7.4-23.8-.8-.2-2.9-.8-5.8-1.5-2.7-.7-5.2-1.4-7.5-2-2-.6-3.8-1.1-5.4-1.6Z"/><path class="y" d="M59.8,41.3h0c1.3,4.8,7.2,6.4,11.4,8.1,5.1,1.7,11.6,3.3,15.1,4,6.6,1.4,16.6,3.1,23.2,4.3,18.6,3.2,35.4,6,61.5,10,12.3,1.9,27.4,4.5,34.4,5.9,36.5,7.3,65.5,17,87.7,29.4,16.2,9.1,29.5,20.1,40.4,33.6,3.7,4.6,6.9,9,11.4,16.1l.8,1.3-5.2,.8c-49.9,7.6-137.5,31.1-190.7,51.1-37,13.9-67.2,27.4-94,42.1-11.7,6.4-16.6,9.3-20.2,12l-5.7,1.9c38.6-31.7,63.5-60.2,75.4-86,6.6-14.4,9.3-26.8,9-40.9-.6-22-6.7-37.9-20.7-54.1-3.1-3.6-28.4-28.3-28.4-28.3-2.4-2.3-4.6-4.5-5.3-6.3-1.2-2.9,0-4.9,0-4.9m48.2,51.9s0,0,0,0c0,0-.5-2.3-1.3-5-2-7-7.7-25.4-8.1-25.8,0,0-2.9-.8-6.3-1.7-2.7-.7-5.2-1.4-7.5-2-3.3-.9-6.1-1.8-8.2-2.5-1.1-.4-2-.7-2.1-.7s0,0,0,0c0,0,1.2,1.1,2.8,2.3,12.2,9.6,22.7,21.5,29.4,33.2,.7,1.2,1.3,2.2,1.4,2.2m6.4,2.8s1.4-1.3,3.1-3c4.1-4.1,9.8-8.6,16.1-12.9,2.5-1.7,10.1-6.2,12-7.2,.8-.4,1.5-.9,1.5-1s-1.5-.4-3.4-.8c-11.1-1.9-28.5-5.2-38.2-7.4-1.4-.3-2.7-.5-3-.5s0,0,0,0h0s0,0,0,0c0,.1,.5,1.3,1.1,2.6,3.8,8.2,8.1,19.9,10.2,27.9,.3,1.2,.6,2.1,.6,2.1m41.7,14.6l.2-.6c0-.3,.2-2.5,.3-4.9,.3-8.6-.6-17.8-2.7-26.1-1.1-4.3-1.7-6.2-2-6.3,0,0,0,0,0,0-.8,0-16.1,12-21.9,17-3,2.7-10.1,9.7-10.1,10.1s4,1.3,8.8,2.6c8.5,2.4,18.4,5.3,24.5,7.2l2.9,1m6.6-.9c0,0,2.5-1.6,5.4-3.6,11.1-7.4,22.2-13.5,37.3-20.3,3.8-1.7,5-2.4,4.7-2.5-.7-.3-12.2-2.7-20.1-4.2-10.4-2-33.1-5.9-34.2-5.9,0,0,0,0,0,0,0,0,.3,.9,.7,1.9,4,9.2,6.1,20.1,6.1,30.9,0,2,0,3.6,0,3.6m35.6,19.8s0,0,0,0c.1,0,1.2-1.8,2.4-3.9,6.8-11.8,12.3-24.4,14.3-32.9,.7-2.7,1.4-7.3,1.3-7.5,0,0,0,0,0,0-.6,0-12.8,6.8-20.4,11.4-9.7,5.8-28,17.9-27.6,18.3,0,0,2.1,.9,4.3,1.9,8.2,3.4,15.7,7.1,22.3,10.9,1.7,1,3.2,1.8,3.4,1.8m9.7-.9c.1,0,1.6-.6,3.2-1.2,20.2-8.2,41.2-14.7,65.6-20.3l2.9-.7-4.2-1.9c-10-4.5-25.4-10.2-38.8-14.2-5.4-1.6-15.7-4.4-16.3-4.4s-.3,.8-.4,1.9c-1,11.5-4.9,25-11,37.9-.7,1.6-1.3,2.9-1.2,2.9m-89.3,19.1c.1,0,2.3-2,4.8-4.5,8.6-8.3,15.8-14.8,23.2-21.1,1.9-1.6,3.4-2.9,3.4-2.9,0-.4-13.8-5-20.3-6.8-4.1-1.2-11.5-2.9-12.3-2.9,0,0,0,0,0,0h0c0,0,0,1.4,.3,3,1.8,12.5,2.1,24.8,.8,34.4,0,.4,0,.8,0,.8m120.1,21.1c0,0,2-2.4,4.2-5.2,2.3-2.9,9-11.3,14.9-18.8,11.3-14.3,16.3-20.7,19.8-25.6,2.4-3.4,6.1-9.3,6-9.4,0,0,0,0,0,0-.4,0-7.6,2.1-14.4,4.1-13.1,4-30.7,10.3-43.5,15.5-7.4,3-17,7.1-17,7.3,0,0,.5,.5,1.2,1,.6,.5,2.5,2,4.2,3.4,9.1,7.5,16.6,15.9,23,25.5,.8,1.2,1.6,2.3,1.6,2.3m7.2-1.7c.1,0,1.8-.4,3.8-.9,29.5-7.1,60.2-12.2,84.1-14,3.1-.2,5.7-.4,5.7-.5,.1,0-7.3-7.8-10.3-10.8-10.7-10.5-24.2-20.6-38.1-28.6-1.6-.9-3-1.6-3.2-1.6s0,0,0,0c0,0,0,0,0,0,0,.1-1.2,2.6-2.6,5.4-9.3,18.8-17.2,29.3-34.5,46-2.8,2.7-5,4.9-4.9,4.9m-98.3-7.4c0,0,2.4-1.4,5.1-3,9.6-5.8,18.7-10.9,29.4-16.3,3.4-1.7,6.1-3.1,6.1-3.2-.4-.4-8.1-4.5-13.2-7-5.6-2.8-13-6.2-13.8-6.4h0s0,0,0,0c-.2,0-.4,.6-.6,1.5-2.4,10.9-6.5,22-11.6,31.4-1.5,2.8-1.6,3-1.4,3m-11.3,7l1.4-2.3c.8-1.3,2.1-3.6,3-5.2,3.8-6.8,7.7-15.9,10.1-23.1,1.2-3.8,3.1-10.8,3-11s0,0,0,0c-.3,0-11.5,8.9-16.8,13.4-7.5,6.3-17.2,15.2-17.2,15.6,0,.1,1.2,.8,2.8,1.6,3.9,2,6.9,4.2,10.6,7.8l3.2,3.1m17.2,29s0,0,0,0c.2,0,2.4-.8,5-1.8,23.5-8.6,43.7-15.1,69.7-22.3l4.6-1.3-.7-.7c-1.3-1.4-7.5-7-10.8-9.7-5.8-4.8-13.3-10.4-19.7-14.5l-2.8-1.8-2,3c-9.9,14.8-23.2,30.1-38.2,43.9-5.3,4.9-5.5,5.1-5.3,5.1m-6.5,2.4s0,0,0,0c.1,0,2.6-2.8,5.4-6.2,6.8-8.1,16.8-20.5,22.3-27.9,4.7-6.2,12.5-17.2,12.4-17.3,0,0,0,0,0,0-.4,0-11.2,5.5-18.3,9.3-10.5,5.6-27,15.1-28.1,16-.3,.2,0,.9,1.3,3.5,3.1,6.2,4.8,13.6,4.8,20.5,0,1.3,0,2.1,.2,2.1m-45.5-5.4c.2,0,1.3-.9,4.8-3.7,4.8-3.8,13-10,18.4-13.9,1.9-1.4,3.4-2.6,3.3-2.7-2.9-2.4-6.1-4.6-9.8-6.6-1.5-.8-2.8-1.5-3-1.5h0c-.1,0-.7,1.3-1.2,2.9-1.2,3.8-3,8.2-4.8,11.9-2,4.2-3.9,7.4-7.6,13.2-.2,.3-.3,.4-.2,.4m32.9-13.4h0s0,0-.1,0c-.1,0-1.2,1.3-2.4,2.8-11.1,13.5-25.8,27.1-42.8,39.5-2.1,1.6-3.9,2.9-3.9,2.9s0,0,0,0c.1,0,2.4-1.1,5.1-2.4,2.8-1.4,7.1-3.5,9.5-4.6,8.7-4,21.5-9.3,35.5-14.7l7.8-3v-1.1c-.8-5.3-3.3-11.7-6.5-16.6-1.5-2.2-1.9-2.8-2.1-2.8s0,0,0,0m-58.4,45s0,0,0,0c.2-.1,1.7-1.1,3.4-2.2,13.5-8.6,24.4-17.3,35.4-28.6,4.4-4.5,10.9-11.8,10.7-12.1s0,0,0,0c-.5,0-19.6,12.9-27.9,18.9-3.1,2.3-3.5,2.6-5.7,5.4-3.2,4.2-6.1,7.6-9.8,11.7-5.3,5.8-6.3,6.8-6.1,6.8M59.8,39.3c-.7,0-1.3,.3-1.7,.9-.2,.3-1.8,3-.2,6.7,.9,2.2,3.1,4.5,5.8,7,.2,.2,25.3,24.7,28.3,28.1,13.8,15.9,19.6,31.2,20.2,52.9,.4,13.9-2.3,25.8-8.8,40.1-11.8,25.7-36.3,53.6-74.8,85.3-.7,.6-.9,1.7-.5,2.5,.4,.7,1,1,1.8,1s.4,0,.6-.1l5.7-1.9c.2,0,.4-.2,.6-.3,3.5-2.6,8.2-5.4,20-11.9,26.9-14.7,56.7-28.1,93.7-42,53.3-20,140.4-43.4,190.3-51l5.2-.8c.7-.1,1.2-.5,1.5-1.2,.3-.6,.2-1.3-.1-1.9l-.8-1.3c-4.6-7.1-7.7-11.5-11.5-16.3-11.1-13.8-24.5-24.9-41-34.1-22.5-12.6-51.4-22.3-88.3-29.7-7-1.4-22.1-4-34.4-5.9-26.4-4.1-43-6.8-61.5-10l-2.9-.5c-6.5-1.1-14.6-2.5-20.3-3.7-2.1-.4-9.2-2.1-14.8-4-.5-.2-1.1-.4-1.6-.6-3.6-1.3-7.7-2.9-8.5-6.1-.2-.8-.8-1.3-1.6-1.5-.1,0-.2,0-.3,0h0Zm42.7,41.7c-5.3-7.3-11.8-14.3-19.1-20.7,.3,0,.5,.2,.8,.2,2.3,.6,4.9,1.3,7.5,2,2.4,.6,4.3,1.1,5.3,1.4,.9,2.5,3.4,10.3,5.4,17h0Zm12.8,11.1c-2.1-7.7-6-18.4-9.6-26.3,9.3,2,25,5.1,35.8,6.9-3.1,1.8-7.3,4.3-9.1,5.6-6.4,4.3-12.2,8.9-16.4,13.1-.2,.2-.5,.5-.7,.7h0Zm8,6.6c2.2-2.3,5.8-5.8,7.9-7.6,5-4.4,15.4-12.6,19.6-15.6,.2,.8,.6,2.1,1,3.9,2,8.1,3,17.1,2.7,25.5,0,1.2,0,2.2-.1,3l-.7-.2c-6.1-2-16-4.9-24.6-7.2-2.4-.7-4.3-1.2-5.8-1.7h0Zm41.2,7.2c0-10.5-2-21.2-5.7-30.4,6.7,1.1,22.4,3.8,30.7,5.4,4.8,.9,10.7,2.1,14.8,3-15.1,6.8-26.3,12.9-37.4,20.4-.9,.6-1.7,1.1-2.4,1.6h0Zm47.1,18.9c5.7-12.5,9.4-25.5,10.4-36.7,3.2,.8,9.8,2.6,14.1,3.9,12.7,3.8,27.4,9.1,37.3,13.5-22.9,5.4-42.7,11.5-61.9,19.2h0Zm-39.6-10.6c5-3.5,16.9-11.3,24.8-16.1,5.6-3.4,12.9-7.5,17-9.7-.2,1.2-.5,2.5-.7,3.6-2,8.3-7.4,20.7-14.1,32.4-.5,.9-1,1.7-1.3,2.3-.5-.3-1.1-.6-1.7-1-6.7-3.9-14.3-7.6-22.6-11-.5-.2-.9-.4-1.3-.5h0Zm-51,28.5c.7-9,.3-19.7-1.3-30.6,0,0,0-.2,0-.3,2.6,.6,6.7,1.6,9.6,2.4,4.8,1.4,12.9,4,17.1,5.5-.3,.2-.6,.5-.9,.8-7.5,6.2-14.7,12.8-23.3,21.2-.4,.4-.7,.7-1.1,1h0Zm91.5-5.7c3.2-1.4,8.9-3.8,14.1-5.9,12.9-5.2,30.3-11.4,43.4-15.5,3.6-1.1,7-2.1,9.5-2.8-1.1,1.7-2.3,3.5-3.4,5-3.4,4.9-8.4,11.3-19.7,25.5-6.1,7.6-12.8,16.1-14.9,18.8-1,1.3-1.9,2.4-2.5,3.2,0,0,0,0,0-.1-6.5-9.7-14.2-18.2-23.4-25.9-.9-.8-2-1.7-2.9-2.4h0Zm39.9,26.4c17.4-16.7,25.5-27.6,34.9-46.4,.8-1.7,1.4-2.8,1.8-3.7,.4,.2,.8,.4,1.3,.7,13.7,7.9,27.1,17.9,37.7,28.3,1.9,1.9,5.2,5.3,7.5,7.7-.5,0-1,0-1.6,.1-23.3,1.8-52.8,6.6-81.5,13.3h0Zm-99.8-9c4.3-8.6,7.8-18.4,10-28.1,2.5,1.1,7.3,3.4,11.7,5.6,3.3,1.7,7.3,3.8,10,5.2-.8,.4-1.7,.9-2.8,1.4-10.6,5.3-19.5,10.2-28.8,15.9h0Zm-29.5-.7c2.9-2.8,9.4-8.6,15.3-13.7,3.4-2.8,8.5-7,12.2-9.9-.5,1.8-1.1,3.8-1.6,5.3-2.3,7.1-6.2,16.1-9.9,22.8-.8,1.5-2.2,3.8-3,5.1v.2c-.1,0-1.5-1.4-1.5-1.4-3.8-3.7-7.1-6.1-11.1-8.2-.2,0-.4-.2-.5-.3h0Zm38.7,37c14.6-13.6,27.4-28.4,37.1-42.9l.9-1.4,1.1,.7c6.3,4.1,13.7,9.6,19.5,14.3,2.4,2,6.5,5.6,8.9,7.8l-1.3,.4c-24.8,6.9-44.3,13.1-66.2,21h0Zm-18.7-17.8c3.7-2.3,17.3-10,26.8-15.2,3.7-2,8-4.2,11.5-6-2.4,3.4-5.5,7.7-8,11-5.5,7.4-15.5,19.8-22.3,27.8-.8,1-1.6,1.9-2.2,2.6-.4-6.4-2.1-12.9-5-18.6-.4-.7-.6-1.3-.8-1.7h0Zm-34.2,11.6c.8-1.5,1.6-3,2.4-4.6,1.8-3.8,3.6-8.2,4.8-12.1,0-.3,.2-.6,.3-.8,.3,.2,.6,.3,1,.5,2.8,1.5,5.3,3.2,7.6,4.9-.4,.3-.8,.6-1.4,1-4.2,3.1-10.1,7.5-14.7,11h0Zm-7.1,30c12.4-10,23.2-20.6,31.8-31.1,.3-.4,.6-.8,.9-1.1,.2,.3,.4,.6,.6,.9,3,4.5,5.3,10.4,6,15.3l-6.3,2.5c-12.5,4.9-24.3,9.7-32.9,13.6h0Zm-13.9-.3c2-2.3,3.8-4.6,5.8-7.2,2-2.6,2.3-2.9,5.3-5,3.9-2.8,10.1-7.1,15.6-10.8-.3,.3-.6,.7-.9,1-8.2,8.4-16.4,15.4-25.7,22h0Z"/></g></g><g id="v"><g id="w"><path class="z" d="M187.1,378.9c-.3,0-.5-.2-.5-.5v-9.3h-2.7c-.3,0-.5-.2-.5-.5v-1.2c0-.3,.2-.5,.5-.5h7.6c.3,0,.5,.2,.5,.5v1.2c0,.3-.2,.5-.5,.5h-2.7v9.3c0,.3-.2,.5-.5,.5h-1.3Z"/><path class="y" d="M191.6,367.4v1.2h-3.2v9.8h-1.3v-9.8h-3.2v-1.2h7.6m0-1h-7.6c-.6,0-1,.4-1,1v1.2c0,.6,.4,1,1,1h2.2v8.8c0,.6,.4,1,1,1h1.3c.6,0,1-.4,1-1v-8.8h2.2c.6,0,1-.4,1-1v-1.2c0-.3-.1-.5-.3-.7-.2-.2-.4-.3-.7-.3h0Zm0,2h0Z"/></g><g id="x"><path class="z" d="M203.2,378.9c-.3,0-.5-.2-.5-.5v-6.6l-3,6.8c0,.2-.3,.3-.5,.3h-.6c-.2,0-.4-.1-.5-.3l-3.1-6.9v6.7c0,.3-.2,.5-.5,.5h-1.2c-.3,0-.5-.2-.5-.5v-11c0-.3,.2-.5,.5-.5h1.7c.2,0,.4,.1,.5,.3,0,0,3.4,7.8,3.4,7.8,0,0,0-.1,0-.2l3.4-7.6c0-.2,.3-.3,.5-.3h1.6c.3,0,.5,.2,.5,.5v11c0,.1,0,.3-.1,.4s-.2,.1-.4,.1h-1.3Z"/><path class="y" d="M204.5,367.4v11s-1.3,0-1.3,0v-7.4c0-.6,0-1.3,.1-2.1h0c-.1,.5-.2,.8-.3,1.1l-3.7,8.4h-.6l-3.8-8.4c-.1-.2-.2-.6-.3-1.1h0c0,.4,0,1.1,0,2.1v7.4h-1.2v-11h1.7l3.4,7.7c.3,.6,.4,1,.5,1.3h0c.2-.6,.4-1.1,.5-1.4l3.4-7.6h1.6m0-1h-1.6c-.4,0-.8,.2-.9,.6l-3.1,6.8-3-6.8c-.2-.4-.5-.6-.9-.6h-1.7c-.6,0-1,.4-1,1v11c0,.6,.4,1,1,1h1.2c.6,0,1-.4,1-1v-4.4l2.1,4.8c.2,.4,.5,.6,.9,.6h.6c.4,0,.8-.2,.9-.6l2.1-4.7v4.3c0,.6,.4,1,1,1h1.3c.3,0,.5-.1,.7-.3,.2-.2,.3-.4,.3-.7v-11c0-.6-.5-1-1-1h0Z"/></g></g></g></g></g></svg>