<?xml version="1.0" encoding="UTF-8"?><svg id="b" xmlns="http://www.w3.org/2000/svg" viewBox="0 0 616.9 158.8"><defs><style>.d{fill:#fff;}.e{fill:#00684a;}</style></defs><g id="c"><g><g><path class="e" d="M35.3,155.8l-.3-2.7c0-.4-1-9-1.5-15.9-4-3.2-25.9-21.7-29.9-51.4C.7,64.4,8,42.4,25.2,20.5h0c6.4-7.7,11.8-15.3,12.4-16.2v-.2c.1,0,.3-.2,.3-.2,.6-.6,1.4-1,2.3-1s1.7,.3,2.3,1l.2,.2v.2c.7,.8,6.1,8.5,12.5,16.1h0c29.4,37.6,24.2,68.7,14.6,88.1-4.7,9.6-10.8,17-15.1,21.5-3.3,3.5-6,5.9-7.8,7.2-.5,6.9-1.5,15.6-1.5,15.9l-.3,2.7h-9.9Zm4.5-26c.1,.1,.3,.3,.4,.5,.2-.2,.3-.3,.4-.5l-.4-9.7-.4,9.7Z"/><path class="d" d="M40.3,6c0,0,.1,0,.2,0,1.1,1.5,6.4,9,12.6,16.3,52.9,67.4-8.3,112.9-8.4,112.9s0,0,0,0l-.5,.4c-.5,7.1-1.6,17.1-1.6,17.1h-4.6s-1.1-10.1-1.6-17.1l-.5-.3S-25.4,89.8,27.5,22.4c6.2-7.3,11.5-14.7,12.6-16.3,0,0,.1,0,.2,0m0,128.4s2.7-2.3,3.5-3.5h0c0-.1-3.3-73.6-3.3-73.6,0-.1,0-.2-.2-.2s-.2,0-.2,.2l-3.3,73.5h0c.7,1.3,3.5,3.7,3.5,3.7m0-134.4c-1.7,0-3.3,.7-4.4,1.8l-.4,.4-.3,.4c-.6,.8-5.9,8.4-12.2,15.9h0c0,0,0,.2,0,.2C5.1,41.2-2.3,64,.6,86.3c3.9,28.8,23.9,47.4,29.9,52.5,.5,6.7,1.4,14.3,1.4,14.7l.6,5.3h15.3l.6-5.3c0-.4,.9-8,1.4-14.7,.3-.3,.6-.5,1-.8,1.4-1.2,3.6-3.3,6.2-6,4.5-4.7,10.8-12.5,15.7-22.5,9.8-20.1,15.1-52.2-15.1-90.8h0c0,0,0-.2,0-.2-6.3-7.5-11.6-15-12.2-15.9l-.3-.4-.4-.4c-1.2-1.2-2.8-1.8-4.4-1.8h0Z"/></g><g><path class="e" d="M131.1,111.6c-2.2,0-4.3-1.4-5.1-3.5l-22-52.6v43.7c0,.3,.3,.6,.6,.6h4.9v10.2h-25.3v-10h6.2c.3-.1,.6-.4,.6-.7l.6-62.3c0-.3-.1-.4-.1-.4,0,0-.2-.2-.5-.2h-6.2v-10.2h25l.7,2.1,22.7,55,23.5-57.2h24.3v10.1h-6.3c-.3,.1-.6,.4-.6,.8l.2,62.3c0,.3,.3,.6,.6,.6h6.1v10.1h-28.7v-10.1h5.1c.3,0,.6-.3,.6-.6l-.3-42.5-21.5,51.4c-.9,2.1-2.9,3.4-5.1,3.4Z"/><path class="d" d="M178,29.1v4.2h-3.3c-1.9,.1-3.5,1.7-3.5,3.7l.2,62.3c0,1.9,1.7,3.6,3.6,3.6h3.1v4.1h-22.7v-4.1h2.1c2,0,3.6-1.7,3.6-3.6l-.4-57.2-27.2,64.9c-.4,1-1.3,1.6-2.3,1.6s-1.9-.6-2.3-1.6l-27.8-66.4v58.7c0,1.9,1.6,3.5,3.5,3.6h2v4.2h-19.3v-4.1h3.3c1.9-.1,3.5-1.7,3.5-3.6l.6-62.3c0-1-.3-1.9-1-2.6-.7-.7-1.6-1.1-2.6-1.1h-3.2v-4.2h19.9v.2c0,0,25.6,61.9,25.6,61.9l25.5-62h19.3m6-6h-29.4l-1.5,3.7-20,48.6-19.9-48.2-1.4-4.1h-30.2v16.2h6.8l-.5,57.5h-.9s-5.9,.1-5.9,.1v16h31.3v-15.9l-5.5-.2v-26.5l16.3,38.9c1.3,3.2,4.4,5.3,7.9,5.3s6.6-2.1,7.9-5.3l15.8-37.8,.2,25.4h-5.6v16.1h34.7v-16.1h-6.7l-.2-57.5h1s5.9-.1,5.9-.1V23.1h0Z"/></g><g><path class="e" d="M253.5,109.8v-10.2h5.3c.1,0,.3,0,.4,0,0,0,0-.3,0-.4V63.3c0-.2,0-.3,0-.4,0,0-.3,0-.6,0h-5.4v-7.6l11.3-6.4h6.7l1.4,5.5c4.8-4.6,11-7.1,18.3-7.1s12,1.9,16,5.7c4,3.8,6.1,9.1,6.1,15.8v30.5c0,0,0,.3,0,.3,0,0,0,0,0,0h.1s.1,0,.1,0h5.3v10.2h-27v-10.2h5.3c.1,0,.3,0,.4,0,0,0,0-.2,0-.4v-29.4c0-3.2-.8-5.8-2.3-7.8-1.3-1.7-3.5-2.6-6.6-2.6s-5.4,.7-7.5,2.2c-2.1,1.5-3.8,3.6-4.9,6-1.1,2.6-1.7,5.2-1.7,7.7v23.8c0,.1,0,.3,0,.4,0,0,.3,0,.4,0h5.3v10.2h-27Z"/><path class="d" d="M291,50.3c5.8,0,10.6,1.7,13.9,4.9,3.4,3.2,5.2,7.8,5.2,13.6v30.5c0,1,.3,1.9,1,2.5h0c.6,.5,1.3,.9,2,.9s.2,0,.3,0h2.3v4.2h-21v-4.2h2.3c1,0,1.9-.3,2.5-1,.6-.6,1-1.5,1-2.5v-29.4c0-3.9-1-7.1-2.9-9.6-1.9-2.5-4.9-3.8-8.9-3.8s-6.7,.9-9.2,2.8c-2.6,1.9-4.5,4.3-5.8,7.2-1.3,3-2,6-2,9v23.8c0,1,.3,1.9,1,2.5,.6,.6,1.5,1,2.5,1h2.3v4.2h-21v-4.2h2.3c1,0,1.9-.3,2.5-1,.6-.6,1-1.5,1-2.5V63.3c0-1.2-.3-2-1-2.6-.6-.6-1.5-.9-2.6-.9h-2.4v-2.8l9.1-5.2h3.6l2.1,8.1c0,.2,.1,.3,.3,.3s.3,0,.4-.2c4.5-6.5,11-9.8,19.2-9.8m0-6c-6.3,0-11.9,1.6-16.5,4.8l-.8-3.3h-9.8l-1.4,.8-9.1,5.2-3,1.7v12.3h6v30.8h-5.8v16.2h33v-16.2h-5.8v-21.3c0-2.1,.5-4.3,1.4-6.6,.9-2,2.2-3.6,3.9-4.8,1.5-1.1,3.4-1.6,5.7-1.6s3.5,.5,4.2,1.4c1.1,1.5,1.7,3.5,1.7,6v26.8h-5.8v16.2h33v-16.2h-5.6v-27.9c0-7.5-2.4-13.5-7-18-4.5-4.3-10.6-6.5-18.1-6.5h0Z"/></g><g><path class="e" d="M453.2,110.4v-10.2h5.7c.3,0,.6-.3,.7-.4,.2-.2,.4-.5,.4-.7V37.5c0-.3-.3-.6-.4-.7-.4-.4-.6-.4-.7-.4h-5.7v-10.2h30.3c7.4,0,14.4,1.7,20.7,5,6.3,3.3,11.4,8.3,15.1,14.8,3.7,6.4,5.6,13.9,5.6,22.4s-1.9,16.1-5.6,22.4c-3.7,6.3-8.8,11.3-15.1,14.6-6.3,3.3-13.2,5-20.7,5h-30.3Zm24.3-72.4c-.3,0-.6,.3-.7,.4-.4,.4-.4,.6-.4,.7v58.1c0,.3,.3,.6,.4,.7,.4,.4,.6,.4,.7,.4h5.5c4.5,0,8.7-1.1,12.4-3.2,3.7-2.1,6.7-5.4,9-9.9,2.3-4.6,3.5-10.3,3.5-17.1s-1.2-12.6-3.5-17.2c-2.3-4.4-5.3-7.8-9-9.9-3.7-2.1-7.9-3.2-12.4-3.2h-5.5Z"/><path class="d" d="M483.6,29.1c7,0,13.5,1.6,19.3,4.7,5.8,3.1,10.5,7.7,13.9,13.6,3.4,5.9,5.2,12.9,5.2,20.9s-1.8,15-5.2,20.9c-3.4,5.8-8.1,10.4-13.9,13.5-5.8,3.1-12.3,4.7-19.3,4.7h-27.3v-4.2h2.7c1,0,2-.5,2.8-1.3,.9-.9,1.3-1.8,1.3-2.9V37.5c0-1-.5-2-1.3-2.9-.9-.9-1.8-1.3-2.8-1.3h-2.7v-4.2h27.3m-6,72.3h5.5c5,0,9.7-1.2,13.9-3.6,4.2-2.4,7.6-6.1,10.2-11.1,2.6-5,3.9-11.2,3.9-18.5s-1.3-13.6-3.9-18.5c-2.6-5-6-8.7-10.2-11.1-4.2-2.4-8.9-3.6-13.9-3.6h-5.5c-1,0-2,.5-2.8,1.3-.9,.9-1.3,1.8-1.3,2.9v58.1c0,1,.5,2,1.3,2.9,.9,.9,1.8,1.3,2.8,1.3m6-78.3h-33.3v16.2h6.8v57.9h-6.8v16.2h33.3c7.9,0,15.4-1.8,22.1-5.4,6.8-3.6,12.3-8.9,16.3-15.8,4-6.8,6-14.9,6-23.9s-2-17-6-23.9c-4.1-7-9.5-12.3-16.3-15.9-6.7-3.6-14.2-5.4-22.1-5.4h0Zm-4.2,17.8h3.7c4,0,7.6,.9,10.9,2.8,3.2,1.8,5.8,4.7,7.8,8.6,2.1,4.1,3.2,9.4,3.2,15.8s-1.1,11.6-3.2,15.7c-2,3.9-4.6,6.8-7.8,8.6-3.3,1.9-6.9,2.8-10.9,2.8h-3.7V41h0Z"/></g><g><path class="e" d="M526.4,110.4v-10.2h5.7c.3,0,.6-.3,.7-.4,.2-.2,.4-.5,.4-.7V37.5c0-.3-.3-.6-.4-.7-.4-.4-.6-.4-.7-.4h-5.5v-10.2h33.9c5.3,0,10.1,.9,14.2,2.8,4.2,1.9,7.5,4.6,10,8.1,2.4,3.5,3.6,7.5,3.6,12.1s-2.7,11.6-7.9,15.8c3.5,1.5,6.5,3.4,8.3,5.6,3.5,4,5.3,8.9,5.3,14.7,0,5.4-1.5,10.1-4.4,13.9-2.8,3.7-6.6,6.6-11.5,8.5-4.6,1.9-9.8,2.8-15.3,2.8h-36.5Zm23.3-13.1c0,.3,.3,.6,.4,.7,.4,.3,.6,.4,.6,.4h.2s11.8,0,11.8,0c3.2,0,5.8-.6,8-1.9,2.2-1.3,3.7-2.9,4.8-4.9,1.1-2.1,1.6-4.3,1.6-6.5,0-3.8-1.2-6.7-3.6-9-2.4-2.3-6-3.5-10.8-3.5h-12.9v24.6Zm10.4-36.5c3.8,0,6.6-1,8.4-2.9,1.9-2.1,2.8-4.9,2.8-8.4s-1-6.2-3-8.3c-1.9-2-5.2-3.1-9.8-3.1h-7.6c-.3,0-.6,.3-.7,.4-.4,.4-.4,.6-.4,.7v21.5h10.4Z"/><path class="d" d="M560.5,29.1c4.9,0,9.3,.9,13,2.5,3.7,1.7,6.7,4.1,8.7,7,2.1,3,3.1,6.5,3.1,10.4,0,7.2-4.1,12.7-12,16.6,5.7,1.3,10.6,3.8,13.1,6.7h0c3,3.5,4.5,7.8,4.6,12.8,0,4.7-1.3,8.8-3.8,12.1-2.5,3.3-5.9,5.8-10.2,7.6-4.3,1.7-9.1,2.6-14.2,2.6h-33.5v-4.2h2.7c1,0,2-.5,2.9-1.3,.9-.9,1.3-1.8,1.3-2.9V37.5c0-1-.5-2-1.3-2.9-.9-.9-1.8-1.3-2.9-1.3h-2.5v-4.2h30.9m-13.8,34.6h13.4c4.7,0,8.3-1.3,10.6-3.9,2.3-2.6,3.6-6.1,3.6-10.5s-1.3-7.7-3.8-10.4c-2.5-2.6-6.5-4-12-4h-7.6c-1,0-2,.5-2.9,1.3-.9,.9-1.3,1.8-1.3,2.9v24.5m4,37.7c0,0,.1,0,.2,0h11.8c3.7,0,6.9-.8,9.5-2.3,2.6-1.5,4.6-3.5,5.9-6.1,1.3-2.5,1.9-5.1,1.9-7.9,0-4.6-1.5-8.3-4.5-11.2-3-2.9-7.3-4.3-12.9-4.3h-15.9v27.6c0,1,.5,2,1.3,2.9h0c.9,.8,1.7,1.3,2.7,1.3m9.8-78.3h-36.9v16.2h6.7v57.9h-6.9v16.2h39.5c5.9,0,11.4-1,16.4-3,5.4-2.1,9.7-5.3,12.8-9.5,3.3-4.4,5-9.6,5-15.7h0s0,0,0,0c0-6.5-2.1-12.2-6.1-16.7-1.4-1.6-3.2-3.1-5.4-4.4,4.6-5.1,5.7-10.6,5.7-15s-1.4-9.8-4.2-13.8c-2.7-3.9-6.5-7-11.2-9.1-4.5-2-9.7-3-15.5-3h0Zm-7.8,17.9h5.8c2.5,0,5.9,.4,7.6,2.1,1.5,1.6,2.1,3.5,2.1,6.2s-.7,4.9-2,6.4c-1.2,1.3-3.3,1.9-6.2,1.9h-7.4v-16.7h0Zm0,34.6h9.9c4,0,6.9,.9,8.7,2.6,1.8,1.7,2.6,3.9,2.6,6.8s-.4,3.5-1.3,5.1c-.8,1.5-1.9,2.7-3.6,3.6h0s0,0,0,0c-1.7,1-3.8,1.5-6.4,1.5h-9.9v-19.8h0Z"/></g><g><path class="e" d="M216.6,111.6c-5.7,0-11.1-1.4-16-4-4.8-2.6-8.7-6.5-11.6-11.4-2.8-4.9-4.3-10.5-4.3-16.7s1.4-11.9,4.3-16.7c2.9-4.9,6.8-8.8,11.6-11.4,4.7-2.7,10.1-4,16-4s11.1,1.4,16,4c4.9,2.7,8.7,6.5,11.6,11.4,2.8,4.9,4.3,10.5,4.3,16.7s-1.4,11.9-4.3,16.7c-2.9,4.9-6.8,8.8-11.6,11.4-4.7,2.7-10.1,4-16,4Zm0-52.2c-4.7,0-8.6,1.7-11.3,5.1-3,3.6-4.4,8.6-4.4,14.9s1.5,11.4,4.4,14.9c2.8,3.4,6.6,5.1,11.4,5.1s8.6-1.7,11.3-5.1c3-3.6,4.4-8.6,4.4-14.9s-1.5-11.3-4.4-14.9c-2.8-3.4-6.6-5.1-11.3-5.1Z"/><path class="d" d="M216.6,50.3c5.3,0,10.2,1.3,14.6,3.6,4.4,2.5,7.9,5.9,10.4,10.3,2.6,4.4,3.9,9.5,3.9,15.2s-1.3,10.8-3.9,15.2c-2.6,4.4-6,7.9-10.4,10.3-4.3,2.5-9.3,3.6-14.6,3.6s-10.2-1.3-14.6-3.6c-4.4-2.4-7.9-5.9-10.4-10.3-2.6-4.4-3.9-9.5-3.9-15.2s1.3-10.8,3.9-15.2c2.6-4.4,6-7.9,10.4-10.3,4.3-2.5,9.3-3.6,14.6-3.6m0,52.2c5.7,0,10.3-2.1,13.7-6.2,3.4-4.1,5.1-9.8,5.1-16.8s-1.7-12.7-5.1-16.8c-3.4-4.1-8-6.2-13.7-6.2s-10.3,2.1-13.7,6.2c-3.4,4.1-5.1,9.8-5.1,16.8s1.7,12.7,5.1,16.8c3.4,4.1,8,6.2,13.7,6.2m0-58.2c-6.4,0-12.3,1.5-17.5,4.4-5.3,2.9-9.5,7.1-12.7,12.5-3.1,5.3-4.7,11.5-4.7,18.2s1.6,12.9,4.7,18.2c3.2,5.4,7.4,9.6,12.7,12.5,5.3,2.9,11.2,4.4,17.4,4.4s12.3-1.5,17.5-4.4c5.3-2.9,9.5-7.1,12.7-12.5,3.1-5.3,4.7-11.5,4.7-18.2s-1.6-12.9-4.7-18.2c-3.1-5.3-7.4-9.5-12.7-12.5h0s0,0,0,0c-5.3-2.9-11.2-4.4-17.4-4.4h0Zm0,52.2c-3.9,0-6.8-1.3-9-4h0s0,0,0,0c-2.5-3-3.7-7.3-3.7-13s1.3-10,3.7-13h0s0,0,0,0c2.2-2.7,5.2-4,9-4s6.8,1.3,9,4c2.5,3,3.8,7.4,3.8,13s-1.3,10-3.7,13h0s0,0,0,0c-2.2,2.7-5.2,4-9,4h0Z"/></g><g><path class="e" d="M418.3,111.6c-5.7,0-11.1-1.4-16-4-4.8-2.6-8.7-6.5-11.6-11.4-2.8-4.9-4.3-10.5-4.3-16.7s1.4-11.9,4.3-16.7c2.9-4.9,6.8-8.8,11.6-11.4,4.7-2.7,10.1-4,16-4s11.1,1.4,16,4c4.9,2.8,8.8,6.6,11.6,11.4,2.8,4.9,4.3,10.5,4.3,16.7s-1.4,11.9-4.3,16.7c-2.9,4.9-6.8,8.8-11.6,11.4-4.7,2.7-10.1,4-16,4Zm0-52.2c-4.7,0-8.6,1.7-11.3,5.1-3,3.6-4.4,8.6-4.4,14.9s1.5,11.4,4.4,14.9c2.8,3.4,6.6,5.1,11.4,5.1s8.6-1.7,11.3-5.1c3-3.6,4.4-8.6,4.4-14.9s-1.5-11.3-4.5-14.9c-2.8-3.4-6.6-5.1-11.3-5.1Z"/><path class="d" d="M418.3,50.3c5.3,0,10.2,1.3,14.6,3.6,4.3,2.5,7.9,5.9,10.4,10.3s3.9,9.5,3.9,15.2-1.3,10.8-3.9,15.2c-2.6,4.4-6,7.9-10.4,10.3-4.3,2.5-9.3,3.6-14.6,3.6s-10.2-1.3-14.6-3.6c-4.4-2.4-7.9-5.9-10.4-10.3-2.6-4.4-3.9-9.5-3.9-15.2s1.3-10.8,3.9-15.2,6-7.9,10.4-10.3c4.3-2.5,9.3-3.6,14.6-3.6m0,52.2c5.7,0,10.3-2.1,13.7-6.2,3.4-4.1,5.1-9.8,5.1-16.8s-1.8-12.7-5.1-16.8c-3.4-4.1-8-6.2-13.7-6.2s-10.3,2.1-13.7,6.2c-3.4,4.1-5.1,9.8-5.1,16.8s1.7,12.7,5.1,16.8c3.4,4.1,8,6.2,13.7,6.2m0-58.2c-6.4,0-12.3,1.5-17.5,4.4-5.3,2.9-9.5,7.1-12.7,12.5-3.1,5.3-4.7,11.5-4.7,18.2s1.6,12.9,4.7,18.2c3.2,5.4,7.4,9.6,12.7,12.5,5.3,2.9,11.2,4.4,17.4,4.4s12.3-1.5,17.5-4.4c5.3-2.9,9.5-7.1,12.7-12.5,3.1-5.3,4.7-11.5,4.7-18.2s-1.6-12.9-4.7-18.2c-3.1-5.2-7.3-9.4-12.6-12.5h0s0,0,0,0c-5.3-2.9-11.2-4.4-17.4-4.4h0Zm0,52.2c-3.9,0-6.8-1.3-9-4h0s0,0,0,0c-2.5-3-3.7-7.3-3.7-13s1.3-10,3.7-13h0s0,0,0,0c2.2-2.7,5.2-4,9-4s6.8,1.3,9,4c2.5,3.1,3.8,7.5,3.8,13s-1.3,10-3.7,13c-2.2,2.7-5.2,4.1-9,4.1h0Z"/></g><g><path class="e" d="M350.2,140.1c-8.1,0-14.7-1.7-19.5-5.1-5.1-3.6-7.7-8.6-7.7-14.5s.9-6.3,2.7-9.2c.4-.8,.9-1.5,1.5-2.2-1.1-.7-2-1.7-2.6-2.9-1.3-2.6-1-5.6,.7-7.9l6.5-8.8c-2-1.8-3.7-3.9-5-6.2-1.9-3.3-2.9-7.1-2.9-11.2s1.2-8.8,3.7-12.6c2.4-3.8,5.7-6.8,10-9,4.2-2.2,8.9-3.3,13.9-3.3s6.9,.5,10.1,1.5h22.2v12l-8.1-.9c2.6,4.5,3.4,9.4,3.4,12.2,0,4.6-1.3,8.8-3.8,12.6-2.4,3.7-5.8,6.8-10.1,9-4.2,2.2-9,3.3-14.3,3.3s-3.8-.2-5.3-.5c-.9-.2-1.9-.5-2.8-.8l-1.2,1.6h17.2c7.4,0,13.4,1.6,17.4,4.8,4.8,3.8,6.9,8,6.9,13.6s-1.7,9.8-5,13.5c-3.1,3.6-7.2,6.3-12.3,8.2-4.9,1.8-10.2,2.7-15.8,2.7Zm-6.6-29.9c-1.4,.8-2.5,1.9-3.5,3.3-1,1.6-1.6,3.3-1.6,5.3,0,3.1,1,5.3,3.1,6.8,2.4,1.7,5.9,2.6,10,2.6s8.7-1.1,11.5-3.3c2.6-2,3.8-4.6,3.8-7.8s-.6-3.8-1.9-5c-.8-.8-2.3-1.8-6.8-1.8h-14.8Zm7.9-50.9c-3.1,0-5.7,1.1-8,3.3-2.2,2.1-3.4,5.3-3.4,9.5s1.1,7.4,3.4,9.5c2.3,2.2,5,3.3,8,3.3s3.7-.5,5.5-1.4c1.7-.9,3.1-2.3,4.2-4.1,1.1-1.8,1.7-4.2,1.7-7.2s-.6-5.3-1.7-7.2c-1.2-1.9-2.5-3.3-4.2-4.1-1.8-1-3.5-1.4-5.5-1.4Z"/><path class="d" d="M351.5,50.3c3.3,0,6.5,.5,9.6,1.5h19.7v5.7l-12.3-1.4s0,0,0,0c5.6,4,7.7,11.7,7.7,15.9s-1.1,7.7-3.3,11c-2.2,3.4-5.2,6-9,8-3.8,1.9-8.1,2.9-13,2.9s-3.3-.1-4.6-.4c-1.3-.3-2.8-.7-4.4-1.5l-6,8c0,0,0,.2,0,.2,0,0,0,0,.1,0h22.9c6.7,0,12.1,1.4,15.5,4.1,4,3.2,5.7,6.5,5.7,11.2s-1.4,8.4-4.2,11.6c-2.8,3.2-6.5,5.7-11.1,7.3-4.5,1.7-9.5,2.5-14.7,2.5-7.5,0-13.5-1.5-17.7-4.6-4.3-3-6.5-7.1-6.5-12s.7-5.2,2.2-7.7c1.3-2.2,3.1-4,5.4-5.6h-2.3c-1.7,0-3.2-.9-4-2.5-.7-1.5-.6-3.3,.4-4.7l8.2-11.1c-2.8-1.9-4.9-4.3-6.5-7.1-1.7-2.9-2.5-6.2-2.5-9.7s1.1-7.7,3.2-11c2.1-3.4,5.1-6,8.9-8,3.8-1.9,8-2.9,12.6-2.9m0,37.6c2.3,0,4.7-.6,6.9-1.8s4-2.9,5.4-5.3c1.4-2.3,2.1-5.2,2.1-8.7s-.7-6.4-2.1-8.7c-1.4-2.3-3.2-4.1-5.4-5.3-2.2-1.2-4.5-1.8-6.9-1.8-3.8,0-7.2,1.4-10.1,4.1-2.9,2.7-4.3,6.6-4.3,11.7s1.4,9,4.3,11.7c2.9,2.7,6.2,4.1,10.1,4.1m.2,43.3c5.5,0,10-1.3,13.3-3.9,3.3-2.6,5-6,5-10.2s-.9-5.3-2.8-7.2c-1.8-1.8-4.6-2.7-8.9-2.7h-15.5c-2.2,1.1-3.8,2.6-5.2,4.6-1.4,2.1-2.1,4.4-2.1,6.9,0,4,1.5,7.2,4.4,9.2,2.9,2.1,6.9,3.2,11.7,3.2m-.2-86.9c-5.5,0-10.7,1.2-15.3,3.6-4.8,2.5-8.6,5.9-11.2,10.1-2.7,4.3-4.1,9.1-4.1,14.2s1.1,8.9,3.2,12.7c1,1.8,2.3,3.5,3.7,5l-4.9,6.7c-2.3,3.1-2.7,7.4-.9,11h0s0,0,0,0c.4,.7,.8,1.4,1.3,1.9,0,0-.1,.2-.2,.3-2,3.4-3.1,7-3.1,10.7,0,6.9,3.1,12.8,9,16.9,5.3,3.8,12.4,5.7,21.2,5.7s11.6-1,16.8-2.9c5.5-2,10.1-5.1,13.5-9,3.7-4.3,5.7-9.6,5.7-15.5s-2.5-11.6-8-15.9h0s0,0,0,0c-2.6-2-5.8-3.5-9.7-4.4,3.9-2.3,7.1-5.4,9.4-9,2.8-4.3,4.2-9.1,4.2-14.2s-.5-5.6-1.5-8.6l6.2,.7v-18.4h-24.8c-3.4-1-6.9-1.5-10.6-1.5h0Zm0,37.6c-2.3,0-4.2-.8-6-2.4-1.6-1.5-2.4-4-2.4-7.3s.8-5.8,2.4-7.3c1.8-1.7,3.7-2.4,6-2.4s2.7,.3,4,1h0s0,0,0,0c1.2,.6,2.1,1.6,3,3,.8,1.5,1.3,3.4,1.3,5.6s-.4,4.2-1.2,5.5h0c0,0,0,.1,0,.1-.8,1.4-1.8,2.4-3,3-1.4,.7-2.8,1.1-4.1,1.1h0Zm.2,43.3c-3.5,0-6.4-.7-8.3-2.1-.9-.6-1.9-1.7-1.9-4.3s.3-2.5,1.1-3.6c.6-.8,1.1-1.5,1.8-2h13.9c2.4,0,4,.3,4.6,.9,.2,.2,1,1,1,2.9s-.8,4-2.7,5.5c-2.3,1.7-5.5,2.6-9.6,2.6h0Z"/></g><g><path class="e" d="M606.5,108.9c-1.6,0-3.1-.4-4.5-1.1-1.3-.7-2.3-1.7-3.2-3.1-.8-1.5-1.2-2.9-1.2-4.4s.4-3,1.2-4.4c.7-1.3,1.8-2.4,3.2-3.1,1.4-.8,2.9-1.1,4.5-1.1s3.1,.4,4.5,1.1c1.3,.7,2.3,1.7,3.2,3.1,.8,1.5,1.2,2.9,1.2,4.4s-.4,3-1.2,4.4c-.7,1.3-1.8,2.4-3.2,3.1-1.4,.8-2.9,1.1-4.5,1.1Zm-4.2-10.8c-.3,.7-.4,1.4-.4,2.1s.1,1.3,.3,1.9l.6-.3v-3.4l-.5-.3Zm8.3,3.5l.3,.3c.2-.6,.3-1.1,.3-1.7s-.2-1.6-.5-2.3c0,.2,0,.4,0,.7,0,.9-.3,1.8-1,2.4l.4,.7h.4Z"/><path class="d" d="M606.5,93.1c1.4,0,2.7,.3,3.8,1,1.1,.6,2,1.5,2.7,2.6,.6,1.1,1,2.3,1,3.6s-.3,2.5-1,3.6c-.6,1.1-1.5,2-2.7,2.6-1.1,.6-2.4,1-3.8,1s-2.7-.3-3.8-1c-1.1-.6-2-1.5-2.7-2.6-.6-1.1-1-2.3-1-3.6s.3-2.5,1-3.6c.6-1.1,1.5-2,2.7-2.6,1.1-.6,2.4-1,3.8-1m0,13.3c1.2,0,2.3-.3,3.2-.8,1-.5,1.6-1.3,2.2-2.2,.5-1,.8-2,.8-3.2s-.3-2.2-.8-3.2c-.5-1-1.3-1.7-2.2-2.2-1-.5-2-.8-3.2-.8s-2.2,.3-3.2,.8c-1,.5-1.6,1.3-2.2,2.2-.5,1-.8,2-.8,3.2s.3,2.2,.8,3.2c.5,1,1.3,1.7,2.2,2.2,1,.5,2,.8,3.2,.8m0-10c.9,0,1.5,.2,2,.6,.5,.4,.7,.9,.7,1.6s-.2,1-.6,1.3c-.4,.4-.9,.6-1.4,.7l.7,.2,1.3,2.1c.1,.2,.2,.2,.4,.2h.4v.6h0c0,0-1.8,0-1.8,0h-.1c0,0-1.8-3.1-1.8-3.1h-.5v2c0,.1,0,.2,.1,.3,.1,.1,.2,.1,.3,.1h.5v.6h-.1c0,0-3,0-3,0h-.1v-.6h.1c0,0,.3,0,.3,0,.1,0,.2,0,.3-.1,.1-.1,.1-.2,.1-.3v-5.2c0-.1,0-.2-.1-.3-.1-.1-.2-.1-.3-.1h-.5v-.6h.1c0,0,2.9,0,2.9,0m-.6,3.5h.5c.5,0,.9-.1,1.1-.4,.2-.2,.4-.6,.4-1.1s-.1-.8-.3-1.1c-.2-.3-.6-.4-1-.4h-.2c-.1,0-.2,0-.3,.1-.1,.1-.1,.2-.1,.3v2.5m.6-9.9c-1.9,0-3.6,.4-5.2,1.3-1.7,.9-3,2.2-3.8,3.7-.9,1.5-1.4,3.3-1.4,5.1s.5,3.4,1.3,5.1h0c0,0,0,.2,0,.2,1,1.6,2.3,2.8,3.8,3.6,1.6,.9,3.4,1.3,5.2,1.3s3.6-.4,5.2-1.3c1.7-.9,3-2.2,3.8-3.7,.9-1.5,1.4-3.3,1.4-5.1s-.5-3.4-1.3-5.1h0c0,0,0-.2,0-.2-1-1.6-2.3-2.8-3.8-3.6-1.6-.9-3.4-1.3-5.2-1.3h0Z"/></g></g></g></svg>