<?xml version="1.0" encoding="utf-8"?>
<!-- Generator: Adobe Illustrator 26.5.3, SVG Export Plug-In . SVG Version: 6.00 Build 0)  -->
<svg version="1.1" id="레이어_1" xmlns:v="https://vecta.io/nano"
	 xmlns="http://www.w3.org/2000/svg" xmlns:xlink="http://www.w3.org/1999/xlink" x="0px" y="0px" viewBox="0 0 1029.9 261.2"
	 style="enable-background:new 0 0 1029.9 261.2;" xml:space="preserve">
<style type="text/css">
	.st0{fill:#660066;}
	.st1{fill:#FFFFFF;}
</style>
<g>
	<path class="st0" d="M670.3,255.2c-5.8,0-11.4-0.8-16.4-2.2c-5.5-1.6-10.4-4.9-14.5-9.7l-22.1-24.8c-2.8,0.5-5.9,0.9-9.1,1.3
		l-0.1,0c-5.1,0.5-9.3,0.7-13.2,0.7c-16,0-30.8-2.7-44.2-8.1c-13.4-5.4-24.9-13-34.3-22.7c-9.4-9.4-16.8-20.8-22.1-33.9
		c-3.6-9.1-6-18.7-7.1-28.8v91.4h-52.2V107.7l-40,77.6c-2,3.9-4.9,7.2-8.6,9.5l-0.1,0.1c-3.6,2.1-7.8,3.2-12.5,3.2h-6.2
		c-4.5,0-8.7-1.1-12.4-3.2c-3.8-2.3-6.8-5.5-8.9-9.7l-40-77.2v110.4H254V9.8h46c2.4,0,4.4,0.4,6.3,1.2c2,0.8,3.7,1.9,5.1,3.4
		c1.4,1.4,2.7,3.2,3.9,5.4l50.6,100l0.7,1.5c1.3,2.5,2.6,5.2,3.8,7.9c1.6-3.3,3.2-6.7,4.8-9.9l50.4-99.5c1.2-2.3,2.4-4,3.9-5.4
		c1.4-1.4,3.2-2.6,5.1-3.4c1.9-0.8,3.9-1.2,6.3-1.2h46v91.1c1.1-10.1,3.5-19.7,7.1-28.9c5.3-13.1,12.7-24.5,22.1-33.9
		c9.6-9.6,21.2-17.2,34.3-22.5c13.3-5.4,28.2-8.1,44.2-8.1c16,0,30.8,2.8,44.1,8.3c13.2,5.5,24.7,13.1,34.2,22.6
		c4.5,4.5,8.5,9.5,12,14.8V9.7h164.2v48.2H796v160.5h-57.6V57.9h-50.3c2.6,4.5,5,9.3,7,14.3c5.1,12.8,7.7,26.8,7.7,41.8
		c0,8.7-0.9,17.3-2.7,25.7c-1.9,8.4-4.6,16.2-8.1,23.2c-3.7,7.5-8,14.3-13,20.2c-3.6,4.5-7.7,8.6-12.2,12.4l54.6,59.7H670.3z
		 M594.7,57.2c-8.1,0-15.2,1.3-21.3,3.8c-6.1,2.6-11.1,6.1-15.2,10.8c-4.2,4.8-7.3,10.6-9.7,17.8c-2.3,7.3-3.5,15.3-3.5,24.4
		c0,9,1.2,17.3,3.5,24.6c2.3,7.1,5.4,12.9,9.7,17.6c4.1,4.7,9.1,8.3,15.2,10.9c6.3,2.6,13.3,3.8,21.3,3.8c7.9,0,15-1.3,21.1-3.8
		c5.9-2.4,11-6.1,15.1-10.8c4.2-4.8,7.3-10.6,9.7-17.8c2.3-7,3.5-15.1,3.5-24.5c0-9-1.2-17.2-3.5-24.5c-2.3-7.1-5.4-12.9-9.7-17.6
		c-4.1-4.7-9.1-8.3-15.2-10.9C609.8,58.5,602.7,57.2,594.7,57.2z M911,218.4V57.9h-53.3V9.7h166.2v48.2h-55.3v160.5H911z"/>
	<path class="st1" d="M594.8,13.4c15.3,0,29.2,2.6,41.8,7.8c12.6,5.2,23.3,12.3,32.2,21.3c8.9,9,15.8,19.6,20.7,31.9
		c4.9,12.2,7.3,25.4,7.3,39.6c0,8.5-0.9,16.6-2.6,24.4c-1.8,7.8-4.3,15.1-7.6,21.9c-3.3,6.8-7.3,13.2-12.2,19
		c-4.8,5.9-10.3,11-16.4,15.5l49.8,54.4h-37.5c-5.4,0-10.3-0.7-14.7-2c-4.4-1.3-8.3-3.9-11.7-7.9l-24.4-27.4c-4,0.8-8,1.4-12.1,1.9
		c-4.1,0.4-8.3,0.7-12.6,0.7c-15.3,0-29.3-2.6-41.9-7.7c-12.6-5.1-23.4-12.2-32.3-21.3c-9-9-15.9-19.7-20.8-31.9
		c-4.9-12.2-7.4-25.5-7.4-39.7c0-14.2,2.5-27.4,7.4-39.7c4.9-12.2,11.8-22.9,20.8-31.9s19.7-16.1,32.3-21.2
		C565.5,16,579.4,13.4,594.8,13.4 M594.7,176.9c8.7,0,16.5-1.4,23.4-4.3c6.8-2.8,12.6-7,17.3-12.4s8.3-12,10.9-19.8
		c2.6-7.8,3.8-16.6,3.8-26.4c0-9.7-1.3-18.5-3.8-26.3c-2.5-7.8-6.1-14.4-10.9-19.8c-4.7-5.4-10.5-9.5-17.3-12.4
		c-6.8-2.9-14.6-4.3-23.4-4.3s-16.7,1.4-23.6,4.3c-6.9,2.9-12.7,7-17.4,12.4c-4.7,5.4-8.3,12-10.9,19.8c-2.5,7.8-3.8,16.5-3.8,26.3
		s1.3,18.6,3.8,26.4c2.5,7.8,6.1,14.4,10.9,19.8c4.7,5.4,10.5,9.5,17.4,12.4C578,175.4,585.8,176.9,594.7,176.9 M1017.9,15.7v36.2
		h-55.3v160.5H917V51.9h-53.3V15.7H1017.9 M843.3,15.7v36.2H790v160.5h-45.6V51.9h-53.3V15.7H843.3 M481.1,15.8v196.6h-40.2V99.2
		c0-5.5,0.3-11.4,0.8-17.8l-52.1,101.1c-1.6,3.2-3.8,5.5-6.5,7.2c-2.7,1.6-5.9,2.4-9.4,2.4h-6.2c-3.5,0-6.6-0.8-9.4-2.4
		c-2.7-1.6-4.9-4-6.5-7.2L299.1,81.3c0.4,3.2,0.6,6.3,0.8,9.4c0.2,3.1,0.3,6,0.3,8.6v113.1H260V15.8h40c1.5,0,2.8,0.2,4,0.7
		c1.2,0.5,2.2,1.1,3.2,2.1c0.9,0.9,1.9,2.3,2.8,4l50.6,99.9c1.7,3.4,3.5,6.9,5.1,10.6c1.7,3.7,3.3,7.5,4.8,11.4
		c1.5-3.9,3.1-7.8,4.9-11.6c1.7-3.7,3.5-7.4,5.3-10.9l50.4-99.4c0.9-1.7,1.8-3,2.8-4c0.9-0.9,2-1.6,3.2-2.1c1.2-0.5,2.5-0.7,4-0.7
		H481.1 M594.8,1.4c-16.7,0-32.3,2.9-46.4,8.6c-13.9,5.6-26.1,13.6-36.3,23.8c-7.6,7.6-14,16.4-19,26.2V15.8v-12h-12h-40
		c-3.2,0-6,0.5-8.6,1.6c-2.7,1.1-5.1,2.7-7.1,4.7c-1.8,1.8-3.4,4.1-4.9,6.9l0,0.1l0,0.1l-49.9,98.4l-49.8-98.4l0-0.1l-0.1-0.1
		c-1-1.9-2.7-4.6-4.9-6.9c-2-2-4.3-3.5-7.1-4.7c-2.6-1.1-5.4-1.6-8.6-1.6h-40h-12v12v196.6v12h12h40.2h12v-12v-79.8l28.7,55.3
		c2.6,5.2,6.3,9.3,11.1,12.1l0.1,0l0.1,0c4.6,2.6,9.8,4,15.4,4h6.2c5.7,0,11-1.4,15.5-4.1l0.1-0.1l0.1-0.1c4.7-2.9,8.3-7,10.8-11.9
		l28.6-55.5v80v12h12h40.2h12v-12v-44.6c5,9.8,11.4,18.6,19,26.1c10,10.2,22.2,18.3,36.3,24c14.1,5.7,29.7,8.6,46.4,8.6
		c4.1,0,8.5-0.2,13.8-0.8l0.1,0l0.1,0c2.1-0.3,4.2-0.5,6.1-0.8l19.9,22.3c4.9,5.7,10.7,9.6,17.3,11.5c5.6,1.7,11.7,2.5,18.1,2.5
		h37.5h27.3l-18.4-20.1l-41.3-45.2c3-2.8,5.7-5.8,8.3-9c5.3-6.2,9.9-13.5,13.8-21.4c3.6-7.4,6.5-15.7,8.5-24.4l0-0.1l0-0.1
		c1.9-8.8,2.9-17.8,2.9-27c0-15.8-2.7-30.6-8.2-44.1c-0.8-2-1.7-4.1-2.6-6h34.4v148.5v12h12H790h12v-12V63.9h41.3h8.4h12H905v148.5
		v12h12h45.6h12v-12V63.9h43.3h12v-12V15.7v-12h-12H863.7h-8.4h-12H691.1h-12v12v20.2c-0.6-0.6-1.2-1.2-1.8-1.8
		c-10-10.1-22.2-18.2-36.2-24C627.2,4.3,611.6,1.4,594.8,1.4L594.8,1.4z M554.2,91.4c2.1-6.4,4.9-11.5,8.5-15.7c3.5-4,7.7-7,13-9.2
		c5.3-2.2,11.7-3.4,19-3.4c7.2,0,13.5,1.1,18.7,3.3c5.3,2.2,9.5,5.3,13,9.2l0,0l0,0c3.7,4.1,6.4,9.2,8.4,15.5
		c2.1,6.7,3.2,14.3,3.2,22.6c0,8.8-1,16.2-3.2,22.6c-2.1,6.4-4.9,11.5-8.6,15.7c-3.5,4-7.8,7.1-12.8,9.2l0,0l0,0
		c-5.3,2.2-11.6,3.4-18.8,3.4c-7.1,0-13.4-1.1-19-3.4c-5.2-2.2-9.5-5.2-12.9-9.2l0,0l0,0c-3.7-4.1-6.4-9.2-8.4-15.5
		c-2.1-6.7-3.2-14.3-3.2-22.7C551,105.6,552,98.2,554.2,91.4L554.2,91.4z"/>
</g>
<g>
	<path class="st1" d="M160.7,220.8l0-5.9C159.9,134.4,93.6,69,12.7,69H6.1V26l6,0c50.6,0.1,98.3,19.9,134.2,55.5
		c35.9,35.6,56,82.9,56.4,133.3l0,6H160.7z M96.3,220.8l-0.1-5.9C95.5,169.7,58.1,133,12.7,133H6.1V90l6,0
		c33.4,0.2,65,13.2,88.7,36.7c23.8,23.5,37.1,54.8,37.4,88l0.1,6.1H96.3z M209.3,136.9C186.7,81.4,141.3,37.9,84.8,17.6L52.3,6
		h102.7l1.5,1.1c14.6,10.1,26.3,19.6,35.8,29c8.2,8,17.4,18.9,27.3,32.5l1.2,1.6v95L209.3,136.9z"/>
	<path class="st1" d="M153.2,12c12,8.3,24.4,17.8,35,28.3c9.5,9.3,19,21.3,26.7,31.8v62.5C191.7,77.8,145,32.9,86.8,12H153.2
		 M12.1,32c101.4,0.3,183.8,82.1,184.6,182.8h-30.1C165.9,131,97.1,63,12.7,63h-0.6V32 M12.1,96c65.9,0.3,119.5,53.4,120.2,118.8
		h-30.1c-0.7-48.5-40.6-87.8-89.5-87.8h-0.6V96 M156.9,0h-3.7H86.8H17.9l64.9,23.3c54.9,19.7,99,61.9,121,115.8l23.1,56.6v-61.1
		V72.1v-3.9l-2.3-3.2c-10.1-13.8-19.6-25-28-33.3c-9.7-9.6-21.7-19.3-36.6-29.6L156.9,0L156.9,0z M0.1,20v12v31v12h12h0.6
		c77.6,0,141.3,62.8,141.9,139.9l0.1,11.9h11.9h30.1h12.1l-0.1-12.1c-0.2-26.2-5.6-51.7-15.9-75.7c-10-23.2-24.2-44-42.2-61.8
		c-18-17.9-39-31.9-62.3-41.8C64.1,25.3,38.5,20.1,12.1,20L0.1,20L0.1,20z M0.1,83.9V96v31v12h12h0.6c42.1,0,76.9,34.1,77.5,76
		l0.2,11.8h11.8h30.1h12.1l-0.1-12.1c-0.4-34.8-14.3-67.6-39.2-92.2C80.2,97.8,47.2,84.2,12.2,84L0.1,83.9L0.1,83.9z"/>
</g>
<g>
	<path class="st0" d="M190.5,220.9l0-6C189.9,117.7,109.8,38.4,12,38.1l-6,0V22.2C6,13.3,13.3,6,22.2,6h65.7l1,0.4
		c59.6,21.5,107.6,67.4,131.5,126l0.4,1.1v71.3c0,8.9-7.1,16-16.1,16.2l-0.1,0H190.5z M126.3,220.8l-0.1-5.9
		C125.5,152.9,74.3,102.3,12,102l-6,0V57h6.6C55,57,95,73.4,125.2,103.2c30.1,29.8,46.9,69.4,47.2,111.6l0,6H126.3z M22.2,220.8
		c-8.9,0-16.2-7.3-16.2-16.2V121h6.6c25.3,0,49.1,9.7,67.1,27.4c18,17.7,28.1,41.2,28.4,66.3l0.1,6.1H22.2z M210.1,75.6
		c-8.9-12.1-18.1-23.1-26.1-31.1c-8.8-8.8-20-17.9-34.1-27.6L134.1,6h70.7c4.4,0,8.4,1.7,11.4,4.7c3,3,4.7,7.1,4.7,11.4v68.3
		L210.1,75.6z"/>
	<path class="st1" d="M204.8,12C204.8,12,204.9,12,204.8,12c5.6,0,10.1,4.5,10.1,10.1v50c-7.7-10.5-17.3-22.4-26.7-31.8
		c-10.5-10.5-22.9-20-34.9-28.3L204.8,12C204.8,12,204.8,12,204.8,12 M86.9,12c58.1,20.9,104.8,65.8,128,122.6v70.1v0
		c0,5.6-4.5,10.1-10.2,10.2h-8.2C195.9,114.1,113.4,32.4,12,32.1v-9.9C12,16.6,16.6,12,22.2,12H86.9 M12.6,63
		c84.5,0,153.2,68,153.8,151.8h-34.2C131.5,149.3,77.9,96.3,12,96V63H12.6 M12.6,127c49,0,88.8,39.3,89.5,87.8H22.2
		c-5.6,0-10.2-4.6-10.2-10.2V127H12.6 M204.8,0L204.8,0L204.8,0l-51.5,0h-38.4l31.6,21.9c13.8,9.5,24.7,18.4,33.2,26.9
		c7.8,7.8,16.8,18.6,25.5,30.4l21.7,29.6V72.1v-50c0-5.9-2.3-11.4-6.4-15.6C216.3,2.3,210.8,0,204.8,0L204.8,0L204.8,0L204.8,0z
		 M89,0h-2.1H22.2C10,0,0,10,0,22.2v9.9v12l12,0c94.6,0.3,172,76.9,172.5,170.9l0.1,11.9h11.9h8.2h0.1l0.1,0c12.3-0.2,22-10,22-22.2
		v-70.1v-2.4l-0.9-2.2C201.4,69.9,152.2,22.7,91,0.7L89,0L89,0z M12.6,51H12H0v12v33v11.9l11.9,0.1c59.1,0.3,107.6,48.2,108.3,106.9
		l0.1,11.9h11.9h34.2h12.1l-0.1-12.1c-0.3-43.8-17.7-84.9-49-115.8C98.1,68,56.6,51,12.6,51L12.6,51z M12.6,115H12H0v12v77.6
		c0,12.2,10,22.2,22.2,22.2h79.9h12.2l-0.2-12.2c-0.4-26.7-11.1-51.7-30.2-70.5C64.7,125.4,39.4,115,12.6,115L12.6,115z"/>
</g>
</svg>
