<?xml version="1.0" encoding="UTF-8"?><svg id="b" xmlns="http://www.w3.org/2000/svg" xmlns:xlink="http://www.w3.org/1999/xlink" viewBox="0 0 324 76.7"><defs><style>.i{fill:#fff;}.j{fill:url(#h);}.k{fill:url(#f);}.l{fill:url(#g);}.m{fill:url(#e);}.n{fill:url(#d);}.o{fill:red;}</style><linearGradient id="d" x1="15" y1="29.8" x2="85.4" y2="57.3" gradientUnits="userSpaceOnUse"><stop offset="0" stop-color="#000"/><stop offset=".3" stop-color="#1e1717"/><stop offset=".5" stop-color="#352a2a"/><stop offset=".7" stop-color="#433535"/><stop offset=".8" stop-color="#483939"/></linearGradient><linearGradient id="e" x1="25.2" y1="22.8" x2="43.5" y2="29.9" xlink:href="#d"/><linearGradient id="f" x1="27.4" y1="25.6" x2="60.8" y2="38.6" xlink:href="#d"/><linearGradient id="g" x1="15.2" y1="77" x2="85.7" y2="19.6" gradientUnits="userSpaceOnUse"><stop offset=".1" stop-color="#000"/><stop offset=".3" stop-color="#060505"/><stop offset=".5" stop-color="#181313"/><stop offset=".8" stop-color="#352a2a"/><stop offset=".9" stop-color="#483939"/></linearGradient><linearGradient id="h" x1="12.3" y1="41.2" x2="51.7" y2="36.9" gradientUnits="userSpaceOnUse"><stop offset=".2" stop-color="#000"/><stop offset=".4" stop-color="#110d0d"/><stop offset=".8" stop-color="#3e3131"/><stop offset=".9" stop-color="#483939"/></linearGradient></defs><g id="c"><g><g><g><path class="n" d="M40,75.7c-16,0-27.3-8.3-31.5-11.9l-6.7-6.6,1.5-.6c7.7-2.9,14.5-6.9,20.3-11.8-4.9-4.5-8.8-10.1-11.4-16.7l-.6-1.5,6.1,.5c3.2,.1,6.4,.4,9.4,.7h.7c0,0,.2,.7,.2,.7,.8,3,2.2,5.7,4.1,8,2.7-2.9,4.6-5.3,5.3-6.2l.4-.5,.6,.2c8.4,2.3,13.2,5.7,13.9,9.8,.2,1.2,0,2.6-.3,4,.9-.3,1.7-.8,2.4-1.3,2-1.6,3.6-4.2,4.4-7.2-5.2-1.9-9.1-4.4-11-5.7-3.3-2.3-4.8-3.8-5.4-4.5l-.6-.6h0c-2-2.7-3.4-5.9-4-9.4l-.5-.6c-.7-.4-1.5-.6-2.3-.7-.3,0-.6,0-.9,0-1.5,0-2.7,.5-4.2,1.1-1.8,.7-3.7,1.6-6.6,1.8-.4,0-.7,0-1,0-1.9,0-2.9-.5-3.5-.8-2-1.3-2.6-3.6-2.7-5l-1-1.6,4.4-3.7,.5,1.4c.3,1,.8,1.9,1.4,2.7,.7,1,1.3,1.8,2.1,2.1,.2,0,.3,0,.4,0,.4,0,.8-.2,1.5-.5,.6-.3,1.5-.6,2.6-.9,1.9-.6,3.5-.8,4.9-.9-2-.9-3.7-3-3.3-5.1,.4-1.9,2.4-2.7,3-2.9l.9-.3,.4,.9c.6,1.7,1.5,2.7,2.5,3.2,.4,.2,.7,.2,1.2,.2s.6,0,.8,0c.4,0,.7,0,1.2,0,.7,0,1.3,0,1.9,.2,1.5,.3,3,1,4.3,2.1l.3,.2,.4,1.9v.2c-.3,1,0,5.8,.2,6.7l.8,1.4c3.4-3.3,5.9-5,8.9-6.2,.9-.3,3.7-1.4,7.2-1.4s.8,0,1.2,0c9.2,.6,14.4,8,15.4,9.5h0s.3,0,.3,0l.3,.3c.8,.8,1.4,1.8,2,2.8,1.2,2.3,1.3,4.4,1.4,6.4l7,2-4.6,1.9,2.6,.5-5.5,3.1c-.9,10.3-5.7,20.2-13.2,27.2-5.5,5.1-15.2,11.2-30.4,11.2h-.1Zm-3.1-66.1c1.5,.1,2.5,.4,3.5,1,.3,.2,.6,.4,.9,.6,0-.1-.1-.3-.2-.4-.6-.8-1.5-1-2.3-1.2-.3,0-.6,0-.9,0s-.6,0-.9,0Z"/><path class="i" d="M33.2,2.6c.9,2.4,2.2,3.3,3.1,3.7,.6,.2,1.1,.3,1.6,.3s1.3,0,2,0c.5,0,1,0,1.7,.2,1.7,.4,3,1.3,3.9,1.9l.3,1.3c-.3,1.2,0,6.7,.3,7.4l1.4,2.3c.1,0,.2,0,.4,0,0,0,0,0,0,0,3.8-3.8,6.3-5.5,9.2-6.6,1-.4,3.6-1.3,6.9-1.3,.4,0,.7,0,1.1,0,9,.6,14.1,8.2,14.6,9,0,.1,.2,.3,.3,.5h.4c.5,.6,1.2,1.4,1.8,2.6,1.1,2.1,1.2,4,1.3,6.1,0,.2,0,.5,0,.8h0c0,0,4.8,1.3,4.8,1.3l-5,2,3.2,.6-3.6,2h0c-.6,9.1-4.7,19.4-13,27.1-11.5,10.7-25.6,11-29.7,11,0,0,0,0-.1,0-16.7,0-27.9-9.1-30.8-11.6l-5.5-5.4c9.8-3.7,16.5-8.5,20.6-12,.3-.2,.6-.5,.8-.7,0,0,0,0,0,0-6.4-5.5-9.9-12-11.9-17l4.5,.4c3.3,.1,6.5,.4,9.4,.7,.8,2.9,2.3,6.2,5.1,9.2,3-3.2,5.2-5.9,6.1-7.1,7.7,2.1,12.6,5.2,13.2,9,.3,1.6-.1,3.5-1,5.3,1.7-.3,3.3-.9,4.7-2,2.7-2,4.3-5.3,4.9-8.6,0,0-.1,0-.2,0-6-2.1-10.1-4.9-11.4-5.8-3.2-2.3-4.7-3.7-5.3-4.3,0-.1,.2-.2,.2-.3-.2,0-.4,0-.5,0-2.8-3.4-3.7-7.2-4-9.4l-.8-1c-.5-.3-1.5-.7-2.8-.9-.3,0-.7,0-1,0-3.5,0-5.7,2.6-10.9,2.9-.3,0-.7,0-1,0-1.7,0-2.4-.4-2.9-.7-1.9-1.2-2.2-3.7-2.3-4.5l-.6-1,2.6-2.2c.3,.8,.7,1.8,1.5,3,.8,1.1,1.5,2.1,2.6,2.5,.3,.1,.5,.1,.8,.1,1,0,2-.7,4.4-1.4,2.7-.8,4.8-.9,6.4-.9,.3,0,.5,0,.7,0,2.1,0,3.3,.3,4.3,.9,.9,.5,1.6,1.2,1.9,1.7l.6-1.3c0-.4-.2-1.1-.6-1.7-.8-1.1-2.2-1.4-3-1.5-.4,0-.8-.1-1.1-.1-1.3,0-1.9,.5-2.9,.5s-.5,0-.8-.1c-1.8-.5-3.6-2.4-3.2-4.1,.3-1.4,2.1-2.1,2.3-2.2m1.2-2.6l-1.8,.7c-.7,.3-3.1,1.3-3.6,3.6-.4,1.7,.3,3.4,1.6,4.6-.8,.1-1.6,.3-2.5,.6-1.2,.3-2,.7-2.6,1-.5,.2-1,.4-1.1,.4s0,0-.1,0c-.5-.2-1-.9-1.7-1.7-.5-.7-1-1.6-1.3-2.5l-1-2.8-2.2,1.9-2.6,2.2-1.3,1.1,.9,1.5,.4,.7c.2,1.6,1,4.1,3.2,5.5,.7,.4,1.8,1,4,1s.7,0,1.1,0c3-.2,5.2-1.1,6.9-1.8,1.4-.6,2.6-1.1,3.8-1.1s.5,0,.7,0c.6,0,1.2,.2,1.8,.5l.2,.2c.6,3.3,1.8,6.3,3.6,8.9h0c0,.1,1.1,1.3,1.1,1.3l.3,.3h0c.8,.8,2.3,2.2,5.3,4.3,1.8,1.3,5.4,3.6,10.3,5.5-.8,2.4-2.1,4.5-3.8,5.8-.1,.1-.3,.2-.4,.3,0-.8,0-1.6,0-2.3-.8-4.6-5.8-8.2-14.7-10.6l-1.3-.3-.8,1c-.7,.8-2.3,2.8-4.5,5.3-1.4-1.9-2.5-4.2-3.2-6.7l-.4-1.3-1.3-.2c-3-.4-6.2-.6-9.5-.7l-4.5-.4-3.2-.3,1.2,3c2.5,6.4,6.2,11.9,10.8,16.3-5.5,4.5-12,8.2-19.2,10.9l-2.9,1.1,2.2,2.2,5.5,5.4h0s0,0,0,0c4.2,3.6,15.8,12.1,32.1,12.1h.2c15.4,0,25.4-6.3,31-11.5,7.6-7,12.5-17,13.5-27.3l2.7-1.5,4.7-2.6-2-.4,4.2-1.7-5.6-1.6-3.5-1c-.1-1.8-.3-3.9-1.5-6.1-.6-1.1-1.3-2.1-2.1-3l-.6-.6h-.2c-1.5-2.2-6.9-8.9-15.8-9.5-.4,0-.8,0-1.3,0-3.7,0-6.6,1.1-7.6,1.5-2.9,1.1-5.2,2.6-8.3,5.5h0c-.2-1.4-.4-5.5-.2-6.3v-.4c.1,0,0-.4,0-.4l-.3-1.3v-.7c-.1,0-.7-.5-.7-.5-1.4-1.2-3-2-4.7-2.4-.7-.1-1.4-.2-2.1-.2-.5,0-.9,0-1.2,0-.3,0-.5,0-.8,0s-.6,0-.9-.1c-.8-.3-1.5-1.2-2-2.6l-.7-1.8h0Z"/></g><g><path class="m" d="M38,32c-3.2-.9-6.9-1.6-11-2.1h-.7c0,0-.2-.7-.2-.7-.6-2.2-1-4.6-1-6.9v-4.5l1.5,.8c5.3,2.8,10.9,4.3,16.4,4.6h.4s.3,.4,.3,.4h0c0,.2,0,.2,.2,.3l.6,.6-.6,.7c-1.4,1.7-2.5,3.2-3.5,4.6-.3,.5-.7,.9-1,1.3l-.9,1.1-.6-.2Z"/><path class="i" d="M26.1,19.5c3.9,2,9.7,4.4,16.9,4.7,0,0,0,.1,.1,.2,0,0,0,.1,.2,.2-1.9,2.3-3.3,4.2-4.5,5.9,0,0-.2,.2-.5,.6-3.3-.9-7-1.6-11.2-2.1-.9-3.1-.9-5.6-.9-6.6v-2.8m-2-3.3v6.1c0,2.4,.4,4.9,1,7.2l.4,1.3,1.3,.2c4.1,.5,7.7,1.2,10.9,2l1.3,.3,.8-1c.3-.4,.5-.6,.5-.6,.3-.4,.7-.9,1-1.3,1-1.3,2.1-2.8,3.5-4.5l1.1-1.3-1.2-1.3s0,0,0-.1c0,0,0-.1-.1-.2l-.6-.7h-.9c-5.4-.3-10.8-1.8-16-4.6l-2.9-1.5h0Z"/></g></g><g><g><path class="k" d="M26.1,19.5c4,2.1,10,4.5,17.4,4.8,7.9,.3,11.7-2.1,14.5,.4,3.9,3.5,3.1,14.1-2.8,18.7-6.6,5.1-17,.6-22.3-4.5-6.4-6.2-6.7-14.5-6.7-16.5v-2.8Z"/><path class="l" d="M3.6,57.7c9.8-3.7,16.5-8.5,20.6-12,8.1-6.9,14.5-15.2,14.5-15.2,2.1-2.8,4.6-6.4,9-10.8,3.8-3.8,6.3-5.5,9.2-6.6,1.1-.4,4.2-1.6,8-1.3,9,.6,14.1,8.2,14.6,9,1,1.5,2.5,4.3,3.1,8.8,1.4,10.3-2.2,24.4-12.8,34.2-11.5,10.7-25.6,11-29.7,11-16.7,0-28-9.1-31-11.6l-5.5-5.4Z"/><path class="j" d="M13.2,27.8c2,5,5.5,11.5,11.9,17,2.8,2.4,6.3,5.4,11.6,6.2,2.1,.3,7.4,1.2,11.2-2.2,2.6-2.3,4.1-6.1,3.6-8.8-1.1-6.6-14.9-11.1-33.8-11.9l-4.5-.4Z"/></g><path class="o" d="M41.8,13.1c-.4-.5-1-1.1-1.9-1.7-1-.6-2.1-.9-4.3-.9-1.6,0-4,0-7.1,.9-3,.9-3.8,1.8-5.2,1.3-1.1-.4-1.8-1.4-2.6-2.5-.8-1.1-1.3-2.2-1.5-3l-2.6,2.2,.6,1c0,.8,.4,3.3,2.3,4.5,.6,.4,1.5,.8,3.9,.6,5.6-.4,7.7-3.4,11.9-2.8,1.3,.2,2.3,.6,2.8,.9l.8,1c.3,2.3,1.2,6.1,4.1,9.5,.4,.4,1.8,1.9,5.4,4.5,1.2,.9,5.3,3.7,11.4,5.8,7.4,2.6,14.1,2.9,18.7,2.7l4.3-.8c.6-2.8,.6-5.1,.5-6.7-.1-2.1-.2-4-1.3-6.1-.6-1.2-1.3-2-1.8-2.6h-2.6c-2.4,.2-5.3,.3-8.8,.3-1.7,0-6.2,0-12-.6-3.4-.3-6.6-.8-9.5-1.3l-1.4-2.3c-.2-.6-.6-6.1-.3-7.4l-.3-1.3c-.8-.7-2.1-1.6-3.9-1.9-2.3-.5-3.6,.3-5.3-.4-.9-.4-2.2-1.3-3.1-3.7-.3,0-2,.8-2.3,2.2-.4,1.7,1.5,3.6,3.2,4.1,1.7,.5,2.3-.7,4.8-.3,.8,.1,2.1,.4,3,1.5,.4,.6,.6,1.3,.6,1.7"/><ellipse class="i" cx="74.2" cy="29" rx="4.7" ry="5.4" transform="translate(19.6 87.1) rotate(-68.1)"/><ellipse cx="75.7" cy="29.4" rx="3.2" ry="3.8" transform="translate(36.1 100.3) rotate(-82)"/><circle class="i" cx="77.1" cy="28.3" r="1.4"/><rect x="71.1" y="24.1" width="10.5" height="1.6" transform="translate(22.7 -34.8) rotate(30)"/><polygon points="83.4 30.6 88.2 31.9 83.3 34 86.4 34.6 82.8 36.6 83.4 30.6"/></g></g><g><g><path d="M122.5,67.1v-24.5s-3.3,24.5-3.3,24.5h-10.9l-3.6-24.7v24.7h-14.9V8.2h21v.8c.7,3.4,1.3,7.5,1.9,12.1l1,7.2,2.6-20.2h21.1v58.9h-14.9Z"/><path class="i" d="M136.5,9.2v56.9h-12.9V27.7s-5.2,38.4-5.2,38.4h-9.2l-5.4-37.5v37.5h-13V9.2h19.2c.6,3.4,1.2,7.5,1.8,12.1l2.1,14.5,3.4-26.6h19.3m2-2h-23l-.2,1.7-1.5,12.1c-.6-4.6-1.2-8.7-1.8-12.1l-.3-1.7h-22.8v60.9h16.9v-2s0-9.8,0-9.8l1.5,10.1,.2,1.7h12.7l.2-1.7,1.2-8.8v8.6s0,2,0,2h16.9V7.2h0Z"/></g><g><path d="M141.5,73.6v-9.5h1c2.7,0,3.6-.2,3.9-.3,.1,0,.3,0,.3-.6,0-.2,0-.9-.9-4.7l-8-40.2h15l3.5,23.4,1.7-23.4h14.9l-4.2,34.9c-.6,5.3-1.2,9.1-1.6,11-.5,2.1-1.3,3.8-2.4,5.2-1.1,1.4-2.7,2.5-4.7,3.1-1.9,.6-4.8,.9-8.9,.9h-9.6Z"/><path class="i" d="M171.7,19.4l-4.1,33.8c-.6,5.3-1.2,9-1.6,10.9-.4,1.9-1.2,3.6-2.2,4.8-1,1.3-2.4,2.2-4.2,2.8-1.8,.6-4.7,.9-8.6,.9h-8.6v-7.5c2.2,0,3.6-.1,4.3-.3,.6-.2,1-.7,1-1.5s-.3-2-.9-4.9l-7.8-39h12.9l4.7,31.5,2.3-31.5h12.8m2.3-2h-17v1.9c-.1,0-1.1,13.4-1.1,13.4l-2-13.5-.3-1.7h-17.1l.5,2.4,7.8,39c.5,2.5,.7,3.7,.8,4.2-.5,0-1.4,.1-3.2,.1h-2v11.5h10.6c4.2,0,7.2-.3,9.2-1,2.2-.7,3.9-1.9,5.1-3.4,1.2-1.5,2.1-3.4,2.5-5.6,.5-2,1-5.7,1.6-11.1l4.1-33.8,.3-2.2h0Z"/></g><g><path d="M173.7,67.1V8.2h15.8c4.7,0,8.4,.4,10.9,1.1,2.6,.8,4.8,2.4,6.4,4.8,1.6,2.4,2.4,6.1,2.4,11.3s-.6,6.1-1.8,7.6c-.8,1-1.9,1.8-3.6,2.4,2,.8,3.5,1.9,4.4,3.3,1.3,2,2,4.9,2,8.8v5.3c0,4-.5,7-1.4,9-1,2.1-2.6,3.5-4.8,4.3-2,.7-6,1.1-12.1,1.1h-18.1Zm16.8-11.8c1.7-.2,2.2-.5,2.3-.6,0,0,.6-.7,.6-3.6v-5.3c0-3.2-.5-3.7-.5-3.7,0,0-.4-.4-2.4-.5v13.8Zm0-24.8c.2,0,.3,0,.5,0,1,0,1.7-.2,1.9-.6,.1-.2,.5-1.2,.5-5.6s-.2-2.9-.4-3.3c-.2-.5-.4-.7-.7-.8-.2,0-.6-.2-1.7-.2v10.6Z"/><path class="i" d="M189.4,9.2c4.7,0,8.2,.4,10.6,1.1,2.4,.7,4.3,2.2,5.8,4.4,1.5,2.2,2.2,5.8,2.2,10.7s-.5,5.6-1.6,7c-1,1.3-3.1,2.3-6.2,3,3.4,.8,5.7,2.1,7,3.9,1.2,1.8,1.8,4.5,1.8,8.2v5.3c0,3.8-.4,6.7-1.3,8.5-.9,1.9-2.3,3.1-4.2,3.8-1.9,.7-5.9,1-11.8,1h-17.1V9.2h14.8m0,22.4c.6,0,1.1,0,1.5,0,1.5,0,2.4-.4,2.8-1.1,.4-.7,.6-2.8,.6-6.1s-.2-3-.5-3.7c-.3-.7-.8-1.2-1.3-1.4-.5-.2-1.6-.3-3.1-.3v12.7m0,24.8c2.1,0,3.4-.4,4-1,.6-.6,.9-2,.9-4.3v-5.3c0-2.4-.3-3.9-.8-4.4-.5-.5-1.9-.8-4.1-.9v15.9m0-49.2h-16.8v60.9h19.1c6.2,0,10.3-.4,12.5-1.1,2.4-.9,4.2-2.5,5.3-4.8,1-2.1,1.5-5.2,1.5-9.4v-5.3c0-4.2-.7-7.2-2.2-9.4-.7-1.1-1.7-2-3-2.7,.9-.5,1.6-1.1,2.1-1.8,1.3-1.7,2-4.4,2-8.2s-.8-9.2-2.6-11.8c-1.7-2.6-4.1-4.4-6.9-5.2-2.6-.8-6.3-1.2-11.2-1.2h0Zm2,22.3v-8.5c.2,0,.3,0,.4,0,0,0,.1,.1,.2,.3,0,.1,.3,.8,.3,2.9,0,3.5-.2,4.7-.3,5.1,0,0-.3,0-.5,.1h0Zm0,24.6v-11.5c.3,0,.5,.1,.6,.1,0,.3,.3,1.2,.3,3v5.3c0,1.9-.2,2.7-.3,2.9,0,0-.2,.1-.5,.2h0Z"/></g><g><path d="M223.3,67.9c-2.7,0-5.2-.8-7.4-2.3-2.4-1.6-3.6-4.9-3.6-10v-3.8c0-3.8,.6-6.3,1.9-7.8,1.2-1.4,4-2.9,8.6-4.7,.8-.3,1.5-.6,2.1-.8h-12.6v-4.1c0-3.8,.4-6.6,1.3-8.7,.9-2.1,2.7-4,5.4-5.7,2.7-1.6,6.1-2.4,10.3-2.4s8.8,.9,11.4,2.7c2.6,1.8,4.3,4.2,4.8,6.9,.5,2.6,.8,7.6,.8,15.5v24.4h-15.8v-2c-.6,.6-1.2,1.1-1.8,1.5-1.5,.9-3.3,1.4-5.4,1.4Zm6.9-22c-1.4,1.2-1.8,2-2,2.4-.3,1-.5,2.5-.5,4.5,0,3.1,.3,4,.4,4.3,0,.2,.2,.5,1,.5s.7,0,.8-.3c0-.1,.3-.8,.3-3.9v-7.5Zm-1.4-18.1c-.5,0-.8,0-.9,.3,0,.2-.3,1.1-.3,4.5v4.7c1.7-.8,2.1-1.1,2.2-1.2,0-.2,.3-.9,.3-3.3s-.3-4-.4-4.3c-.2-.4-.5-.5-.9-.5Z"/><path class="i" d="M229.4,18.6c4.8,0,8.4,.8,10.9,2.5,2.4,1.7,3.9,3.8,4.4,6.3s.7,7.6,.7,15.3v23.4h-13.8v-4.2c-.9,1.7-2,2.9-3.4,3.8-1.4,.8-3,1.3-4.9,1.3s-4.8-.7-6.8-2.1c-2.1-1.4-3.1-4.4-3.1-9.2v-3.8c0-3.5,.6-5.9,1.7-7.1,1.1-1.3,3.8-2.7,8.2-4.4,4.7-1.8,7.2-3.1,7.5-3.7s.5-1.9,.5-3.9-.2-4-.5-4.8c-.4-.7-1-1.1-1.8-1.1s-1.6,.3-1.8,.9c-.2,.6-.4,2.2-.4,4.8v4.9h-13.3v-3.1c0-3.6,.4-6.4,1.2-8.3,.8-2,2.5-3.7,5-5.2s5.8-2.2,9.8-2.2m-.4,40.1c.9,0,1.5-.3,1.7-.8,.3-.6,.4-2,.4-4.3v-9.6c-2.3,1.7-3.6,3.1-4,4.2s-.5,2.7-.5,4.9,.2,4,.5,4.7c.3,.7,.9,1.1,1.9,1.1m.4-42.1c-4.4,0-8,.9-10.8,2.5-2.9,1.7-4.8,3.8-5.8,6.1-.9,2.2-1.4,5.2-1.4,9.1v5.1h8.5c-3.2,1.4-5.2,2.7-6.3,3.9-1.4,1.7-2.1,4.4-2.1,8.4v3.8c0,5.5,1.3,9,4,10.8,2.4,1.6,5.1,2.4,8,2.4s4.3-.5,5.9-1.5c.1,0,.2-.1,.3-.2v.9h17.8v-25.4c0-7.9-.3-13-.8-15.7-.6-3-2.3-5.5-5.2-7.5-2.8-2-6.7-2.9-12-2.9h0Zm-.7,19.1v-3.1c0-2.2,0-3.3,.2-3.8,0,0,0,0,0,0,0,.1,.3,.9,.3,3.9s-.1,2.4-.2,2.8c0,0-.2,.1-.3,.2h0Zm.3,21c0-.3-.3-1.3-.3-3.7s.2-3.6,.4-4.2c0,0,0,0,0-.1v4.9c0,1.8,0,2.7-.2,3.2,0,0,0,0,0,0h0Z"/></g><g><path d="M264,67.1c-3.3,0-5.7-.1-7.1-.4-1.6-.3-3-1-4.1-2.1-1.2-1.1-2-2.4-2.3-3.9-.3-1.3-.4-4.3-.4-9V28.9h-3.1v-9.4h3.1v-7.3h16.2v7.3h3.8v9.4h-3.8v24c0,3,.2,4.1,.2,4.4,.3,0,1.1,.2,3.2,.2h1v9.5h-6.7Z"/><path class="i" d="M265.3,13.2v7.3h3.8v7.4h-3.8v25c0,3.1,.2,4.8,.5,5.1s1.6,.5,4,.5v7.5h-5.7c-3.2,0-5.5-.1-6.9-.4-1.4-.3-2.6-.9-3.7-1.9-1.1-1-1.7-2.1-2-3.3s-.4-4.2-.4-8.8V27.9h-3.1v-7.4h3.1v-7.3h14.2m2-2h-18.2v7.3h-3.1v11.4h3.1v21.7c0,6.4,.2,8.4,.4,9.2,.3,1.7,1.2,3.1,2.6,4.4,1.3,1.2,2.9,2,4.6,2.4,1.5,.3,3.9,.4,7.3,.4h7.7v-11.5h-2c-1.2,0-1.9,0-2.3,0,0-.6-.1-1.7-.1-3.6V29.9h3.8v-11.4h-3.8v-7.3h0Z"/></g><g><path d="M271.2,67.1V18.4h16.6v48.7h-16.6Zm0-49.5V8.2h16.6v9.4h-16.6Z"/><path class="i" d="M286.9,9.2v7.4h-14.6v-7.4h14.6m0,10.3v46.7h-14.6V19.4h14.6m2-12.3h-18.6v60.9h18.6V7.2h0Z"/></g><g><path d="M307.3,67.9c-3.7,0-7-.6-9.7-1.8-2.8-1.2-4.7-2.9-5.8-5-1-2.1-1.5-5.1-1.5-9.2v-3.2h13.1c-1-.6-2.4-1.4-4-2.3-4.4-2.5-7-4.7-8-6.8-1-2-1.5-4.5-1.5-7.2,0-3.9,.5-6.8,1.6-8.7,1.1-2,2.9-3.5,5.5-4.5,2.5-1,5.4-1.5,8.6-1.5s6,.4,8.2,1.2c2.3,.8,4.1,2,5.4,3.4,1.3,1.4,2.1,2.8,2.3,4,.3,1.2,.4,2.9,.4,5.4v3.7h-14.4c1.1,.7,2.7,1.6,4.8,2.6,4.3,2.1,7.1,4.1,8.5,6,1.4,1.9,2.1,4.8,2.1,8.4s-.5,7-1.6,9c-1.1,2.1-2.9,3.8-5.4,4.9-2.4,1.1-5.4,1.7-8.8,1.7Zm-2.4-15.3c0,3.1,.2,4.1,.4,4.5,.1,.2,.3,.5,1,.5s1.1-.1,1.3-.4c0,0,.4-.6,.4-2.6,0-2.8-.4-3.4-.5-3.5-.1-.1-.6-.5-2.6-1.7v3.1Zm1.3-24.8c-.6,0-.9,.2-1,.4-.3,.3-.4,1-.4,1.8,0,1.7,.1,2.5,.3,2.9,0,.3,.4,.8,1.5,1.7,.2,.2,.5,.4,.9,.6v-3.4c0-2.8-.2-3.5-.3-3.7,0-.2-.5-.3-.9-.3Z"/><path class="i" d="M305.6,18.6c3.1,0,5.7,.4,7.9,1.2,2.2,.8,3.8,1.8,5,3.1,1.2,1.3,1.9,2.5,2.1,3.6s.4,2.8,.4,5.2v2.7h-12.6v-2.5c0-2.2-.1-3.5-.4-4.1-.2-.6-.9-.9-1.8-.9s-1.4,.3-1.8,.8c-.4,.5-.6,1.3-.6,2.4s0,2.5,.3,3.1c.2,.7,.8,1.4,1.8,2.2,1,.8,3,2,6.1,3.5,4.1,2,6.8,3.9,8.1,5.7,1.3,1.8,1.9,4.4,1.9,7.8s-.5,6.7-1.5,8.6-2.6,3.4-4.9,4.5c-2.3,1-5.1,1.6-8.3,1.6s-6.7-.6-9.3-1.7-4.3-2.6-5.3-4.6c-1-1.9-1.4-4.8-1.4-8.7v-2.2h12.6v3c0,2.5,.2,4.1,.5,4.9s.9,1.1,1.9,1.1,1.7-.3,2.1-.8c.4-.5,.6-1.6,.6-3.2s-.3-3.6-.8-4.2c-.5-.6-3.3-2.2-8.3-5-4.2-2.3-6.7-4.5-7.6-6.4s-1.4-4.2-1.4-6.8c0-3.7,.5-6.5,1.5-8.2,1-1.8,2.7-3.1,5-4.1,2.4-1,5.1-1.4,8.2-1.4m0-2c-3.4,0-6.4,.5-9,1.6-2.8,1.1-4.8,2.8-6,5-1.2,2.1-1.7,5.1-1.7,9.2s.5,5.5,1.6,7.7c1.1,2.3,3.9,4.7,8.5,7.3,.2,.1,.5,.3,.7,.4h-10.4v4.2c0,4.2,.5,7.4,1.7,9.6,1.2,2.3,3.3,4.2,6.3,5.5,2.8,1.2,6.2,1.9,10.1,1.9s6.6-.6,9.2-1.7c2.7-1.2,4.7-3,5.9-5.4,1.1-2.2,1.7-5.3,1.7-9.5s-.8-6.8-2.3-8.9c-1.5-2.1-4.4-4.1-8.9-6.3-.5-.3-1-.5-1.4-.7h11.5v-4.7c0-2.5-.1-4.3-.4-5.6-.3-1.5-1.2-2.9-2.6-4.5-1.4-1.5-3.3-2.8-5.8-3.7-2.4-.9-5.3-1.3-8.6-1.3h0Zm.4,12.3s.1,0,.2,0,0,0,0,0c0,.4,.1,1.3,.1,3v1.3c-.3-.4-.4-.5-.4-.5,0-.3-.2-1-.2-2.6s.1-1.1,.2-1.1h0Zm.2,27.8c0-.3-.3-1.3-.3-4v-1.3c.4,.3,.7,.4,.8,.5,0,.2,.3,.9,.3,2.9s-.1,1.7-.2,1.9c0,0-.3,0-.5,0s0,0,0,0h0Z"/></g></g></g></svg>