<?xml version="1.0" encoding="UTF-8"?><svg id="b" xmlns="http://www.w3.org/2000/svg" viewBox="0 0 196.2 75.3"><defs><style>.d{fill:#fff;}.e,.f{fill:#00758f;}.f,.g,.h{stroke:#fff;stroke-linecap:round;stroke-linejoin:round;}.f,.h{stroke-width:.5px;}.g{stroke-width:.2px;}.g,.h{fill:#f29111;}</style></defs><g id="c"><g><path class="e" d="M195.7,75s0,0,0,0c-.5-.2-.8-.5-1.2-.9-.2-.2-.3-.4-.5-.5-.5-.3-1-.7-1.4-1-.6-.5-1.3-1-1.9-1.4-1-.6-2.1-1.1-3.1-1.6-1-.5-2.1-1-3.1-1.6-1.2-.7-2.3-1.6-3.3-2.4-1-.7-2.1-2.1-2.7-3.2-.2-.3-.3-.5-.4-.8-.1-.3-.2-.6-.4-.8,0,0,0-.1,0-.2,0-.9,1-1.1,1.6-1.3,.2,0,.4-.1,.6-.2,2.4-1,5.2-1.5,8.9-1.5s.5,0,.8,0c-.4-.6-1.6-1.4-2.4-1.9-.4-.2-.7-.4-.9-.6-1.5-1.1-3.3-2.4-5.1-3.5-.5-.3-1.3-.6-2.1-.9-.5-.2-1-.4-1.4-.5-.4-.2-1-.3-1.5-.5-1.5-.5-3.2-1-3.8-1.8-1.4-1.8-2.4-4.1-3.4-6.3l-.3-.7c-.5-1.2-1.1-2.3-1.6-3.5-.6-1.3-1.3-2.7-1.9-4-.2-.5-.4-1.1-.6-1.6-.2-.7-.5-1.3-.8-1.9-3.7-7.2-9.2-13.2-15.9-17.5-2.6-1.6-5-2.8-7.3-3.5-.8-.2-1.7-.3-2.6-.3-.8,0-1.6,0-2.4-.2h-1c-.7-.2-1.3-.7-1.9-1.2-.2-.2-.5-.4-.7-.6-1.5-1-3.1-1.7-5-2.5-.5-.2-1.6-.7-2.4-.7s-.5,0-.6,.2c0,0,0,0-.1,0-.4,0-.5,.2-.5,.5-.4,.6,0,1.4,.2,1.9,.5,1.1,1.1,1.8,1.8,2.6,.3,.4,.7,.8,1,1.3l.5,.7c.8,1.1,1.6,2.2,2.1,3.3,.7,1.5,1.2,3.2,1.7,4.8,.4,1.4,.9,2.8,1.5,4.2,.4,1,1.1,2.1,1.8,3.3,.2,.3,.5,.5,.7,.8,.5,.5,1,.9,1.2,1.6,.5,.8-.2,2.8-1,4.8-.1,.3-.2,.6-.3,.8-1.3,4.1-1.1,9.9,.5,13.6l.2,.4c.5,1.3,1.1,2.6,2.4,3,0,0,0,0,0,0,0-.5,.1-1.1,.2-1.6,.2-2.2,.5-4.3,1.3-6.1,.4-.9,1-1.7,1.6-2.4,.3-.4,.6-.7,.9-1.1,0,0,.1-.1,.2-.1s0,0,.1,0c.4,.2,.5,.8,.7,1.2,0,.2,.1,.5,.2,.7l.2,.4c.6,1.5,1.3,3.1,2,4.5,1.8,3.5,3.7,6.7,5.7,9.3,.6,.9,1.6,2,2.6,3.1,.1,.1,.3,.2,.4,.3,.3,.2,.5,.4,.7,.7,.1,0,.2,.1,.2,.2v.2c0,0,0,.2-.1,.2,0,0,0,0-.1,0s0,0,0,0c-1-.4-1.8-1.2-2.6-2-.4-.4-.8-.8-1.3-1.2-2.2-1.6-5.1-4.3-6.7-7-.5-1.1-1-2.2-1.6-3.2l-.3-.6c0,0,0,.1,0,.2,0,.2,0,.4-.1,.6-.2,.7-.3,1.5-.4,2.2-.2,1.9-.5,3.7-2.2,4.4-.4,.2-.8,.3-1.3,.3-2.3,0-3.9-2.6-4.4-3.4-2.7-4.4-3.3-11.8-1.5-17.5,.1-.4,.2-.9,.3-1.4,.2-.9,.4-1.8,.8-2.5-.1-.5-.4-.7-.7-1-.2-.2-.4-.3-.5-.5-.8-1-1.4-2.2-1.9-3.2-.8-1.6-1.5-3.5-2.1-5.3-.2-.6-.4-1.1-.6-1.7-.2-.5-.3-.9-.4-1.4-.1-.5-.2-.9-.4-1.3-.5-1-1.2-2-2-3-.2-.3-.4-.5-.6-.8-.2-.3-.5-.6-.8-1-1.5-1.9-3.7-4.7-2.5-7.6,.8-1.9,2.2-2.8,4.3-2.8s.1,0,.1,0c3.2,0,7.1,2.3,8.6,3.2,.3,.2,.6,.5,1,.8,.5,.4,.9,.8,1.4,1,.6,0,1.2,0,1.9,0,.6,0,1.2,0,1.9,0l.7,.2c2.2,.5,4.2,1,6,2,9.2,5.4,14.8,10.9,20,19.3,.7,1.2,1.2,2.5,1.7,3.7,.3,.7,.6,1.5,.9,2.2,1.5,3.4,2.9,6.4,4.2,8.9,.2,.4,.4,.8,.5,1.1,.4,1,.9,2,1.5,2.8,.2,.3,.7,.5,1.2,.6,.3,0,.5,.2,.7,.3,.7,.3,1.4,.7,2.1,1,1.1,.5,2.3,1,3.3,1.6,2.8,1.7,5.6,3.9,8.5,6.4,.5,.5,1,1.1,1.4,1.7,.4,.5,.7,1,1.2,1.4,0,0,0,.1,0,.2v.5c0,.1,0,.2-.2,.2h-.3c-.7,.3-1.5,.5-2.2,.7-.9,.2-1.8,.3-2.6,.4-.9,0-1.7,.2-2.5,.4h-.3c-.9,.4-1.9,.7-2.9,.8,.6,1.2,2.5,2.4,4.1,3.3,.6,.3,1.2,.7,1.6,1,2.1,1.5,4,3.3,5.4,5.3,.2,.2,.5,.5,.7,.7,.3,.2,.5,.5,.8,.7,.2,.3,.3,.6,.5,.9,.1,.3,.2,.6,.4,.8,0,0,0,0,0,.2v.2c0,0,0,.2-.1,.2,0,0,0,0-.1,0Zm-57.5-56.6c0,0-.1,0-.2-.1-.2-.4-.4-.8-.6-1.2-.2-.4-.4-.8-.6-1.3-.2-.2-.4-.5-.6-.8-.3-.4-.7-.8-1-1.3,0,0-.2-.1-.2-.2h0c0-.2,0-.3,.2-.3,.6-.1,1.2-.3,2.2-.3s.1,0,.2,0c.1,.1,.3,.3,.5,.4,.3,.2,.7,.5,.9,.8,.1,.2,.2,.3,.3,.5,0,.2,.2,.4,.3,.5,0,0,0,.1,0,.2,0,1.3-.4,2.2-1.2,2.8h0c0,.1-.1,.1-.2,.1s0,0,0,0Z"/><path class="d" d="M124.7,.5c3,0,6.6,2,8.5,3.2,.7,.5,1.5,1.4,2.4,1.8,1.3,0,2.6,.2,3.9,.2,2.4,.6,4.7,1,6.6,2.1,8.8,5.2,14.6,10.5,19.9,19.2,1.1,1.9,1.7,3.9,2.6,5.9,1.3,3,2.7,6.1,4.2,9,.7,1.3,1.2,2.8,2.1,4,.4,.5,1.4,.7,2,1,1.7,.9,3.7,1.5,5.3,2.6,3,1.9,5.9,4.1,8.5,6.3,1,.9,1.6,2.1,2.6,3v.5c-.8,.3-1.6,.5-2.5,.7-1.8,.5-3.4,.4-5.1,.8-1.1,.3-2.4,.7-3.5,.8,0,0,.1,.1,.1,.1,.7,1.9,4.3,3.4,5.9,4.6,2,1.4,3.8,3.2,5.3,5.2,.5,.5,1,1,1.5,1.5,.4,.5,.5,1.2,.8,1.6v.2c-.7-.3-1.1-.9-1.6-1.3-1.1-.8-2.3-1.7-3.4-2.4-1.9-1.2-4.2-2-6.2-3.2-1.1-.7-2.2-1.5-3.3-2.4-1-.7-2.1-2.1-2.7-3.1-.4-.6-.4-1.2-.8-1.6,.1-1,1.3-1,2.1-1.3,2.4-1,5.2-1.5,8.8-1.5,.4,0,.8,0,1.2,0h0c-.2-1-2.7-2.3-3.5-2.9-1.6-1.2-3.4-2.4-5.1-3.5-.9-.6-2.5-1-3.5-1.4-1.4-.6-4.5-1.1-5.2-2.2-1.5-2-2.6-4.5-3.6-6.9-1.1-2.5-2.4-5-3.5-7.6-.6-1.2-.8-2.3-1.4-3.5-3.7-7.3-9.3-13.3-16-17.6-2.2-1.4-4.7-2.7-7.4-3.5-1.5-.5-3.4-.2-5-.6h-1.1c-.9-.3-1.7-1.2-2.4-1.8-1.6-1.1-3.2-1.8-5.1-2.6-.5-.2-1.6-.7-2.5-.7s-.6,0-.8,.2c-.4,.1-.6,.3-.7,.7-.4,.6,0,1.5,.2,2.1,.8,1.6,1.8,2.6,2.8,4,.9,1.2,2,2.6,2.6,4,1.3,2.9,1.9,6.1,3.2,9,.5,1.1,1.2,2.3,1.8,3.3,.6,.8,1.6,1.3,1.9,2.3,.6,1-.9,4.4-1.3,5.5-1.3,4.2-1.1,10.1,.5,13.7,.6,1.4,1.2,3.1,2.8,3.5,.1-.1,0,0,.2-.1,.4-2.8,.5-5.6,1.4-7.8,.6-1.4,1.7-2.4,2.5-3.5,.5,.3,.5,1.2,.8,1.9,.7,1.6,1.4,3.3,2.2,4.9,1.7,3.3,3.6,6.5,5.7,9.4,.7,1,1.7,2.2,2.7,3.1,.4,.4,.9,.6,1.2,1h.1v.2c-1.5-.6-2.5-2.2-3.7-3.1-2.3-1.7-5.1-4.4-6.7-6.9-.7-1.4-1.4-2.8-2.1-4.3h0c-.3,.3-.2,.7-.4,1.3-.7,2.6-.2,5.5-2.5,6.4-.4,.2-.8,.2-1.2,.2-2,0-3.5-2.2-4.2-3.3-2.6-4.3-3.3-11.5-1.5-17.3,.4-1.3,.5-2.8,1.2-3.9-.2-.9-.9-1.2-1.3-1.8-.7-1-1.3-2.1-1.9-3.2-1.1-2.1-1.8-4.6-2.7-6.9-.4-.9-.5-1.9-.8-2.7-.6-1.3-1.7-2.7-2.6-3.9-1.2-1.7-4.6-5-3.2-8.3,.8-2,2.3-2.6,4.1-2.6,0,0,0,0,.1,0h0m12.7,12.7h0m0,0h0c.4,.4,1.1,.7,1.4,1.2,.3,.4,.3,.7,.6,1.1,0,1.2-.4,2.1-1.1,2.6,0,0,0,0,0,.1-.4-.8-.8-1.6-1.2-2.5-.5-.7-1.2-1.3-1.6-2.1h-.1c.6-.3,1.2-.4,2.1-.4M124.7,0s0,0,0,0h0c-2.2,0-3.7,1-4.5,3-1.3,3,1,5.9,2.5,7.8,.3,.4,.6,.7,.7,1,.2,.3,.4,.5,.6,.8,.7,1,1.5,2,2,3,.2,.4,.3,.8,.4,1.3,.1,.5,.2,.9,.4,1.4,.2,.5,.4,1.1,.6,1.6,.6,1.8,1.3,3.7,2.1,5.3,.5,1,1.2,2.2,1.9,3.3,.2,.2,.4,.4,.5,.6,.3,.2,.5,.5,.6,.8-.4,.7-.6,1.6-.8,2.5,0,.5-.2,.9-.3,1.4-1.8,5.8-1.2,13.2,1.5,17.7,.6,.9,2.2,3.5,4.6,3.5s.9,0,1.4-.3c1.9-.8,2.2-2.7,2.4-4.6,0-.7,.2-1.5,.4-2.2,0,0,0,0,0,0,.5,1,1,2,1.5,3.1,0,0,0,0,0,0,1.4,2.3,4,4.9,6.8,7,.4,.3,.8,.7,1.2,1.2,.8,.8,1.6,1.6,2.6,2,0,0,.1,0,.2,0,.1,0,.2,0,.3,0,.1,0,.2-.2,.2-.4v-.2c0-.2-.1-.4-.3-.5-.2-.3-.5-.5-.7-.6-.1,0-.3-.2-.4-.3-1-1.1-2-2.1-2.6-3-2-2.6-3.9-5.8-5.7-9.3-.7-1.5-1.4-3-2-4.5l-.2-.4c-.1-.2-.2-.4-.2-.7-.1-.5-.3-1.1-.8-1.4,0,0-.2,0-.3,0-.2,0-.3,0-.4,.2-.3,.4-.6,.7-.9,1.1-.6,.7-1.2,1.5-1.6,2.5-.8,1.8-1,3.9-1.3,6.1,0,.4,0,.9-.1,1.3-1-.4-1.5-1.6-2-2.7l-.2-.4c-1.5-3.6-1.7-9.4-.4-13.4,0-.2,.2-.5,.3-.8,.8-2.1,1.5-4.1,1-5-.2-.7-.8-1.2-1.3-1.7-.3-.3-.5-.5-.7-.7-.7-1.1-1.4-2.2-1.8-3.2-.6-1.3-1-2.8-1.4-4.1-.5-1.6-1-3.3-1.7-4.8-.5-1.1-1.3-2.3-2.1-3.3-.2-.2-.3-.5-.5-.7-.3-.5-.7-.9-1-1.3-.7-.8-1.3-1.6-1.8-2.6-.1-.3-.5-1.2-.2-1.6,0,0,0-.1,0-.2,0-.2,0-.2,.4-.3,0,0,.1,0,.2-.1,0,0,.1,0,.4,0,.7,0,1.8,.4,2.3,.6,2,.8,3.5,1.5,5,2.5,.2,.1,.4,.4,.7,.6,.5,.5,1.2,1,1.9,1.3,0,0,0,0,.1,0h1c.8,.2,1.6,.2,2.4,.2,.9,0,1.8,0,2.6,.3,2.4,.8,4.7,1.9,7.3,3.5,6.7,4.2,12.1,10.3,15.8,17.4,.3,.6,.6,1.2,.8,1.9,.2,.5,.4,1,.6,1.6,.6,1.3,1.2,2.7,1.9,4,.6,1.2,1.1,2.4,1.6,3.5l.3,.7c1,2.2,2,4.5,3.4,6.3,.6,.9,2.4,1.4,3.9,1.9,.6,.2,1.1,.3,1.5,.5,.4,.2,.9,.4,1.4,.5,.8,.3,1.5,.5,2.1,.9,1.8,1.1,3.6,2.4,5.1,3.5,.2,.2,.5,.4,.9,.6,.5,.3,1.5,.9,2,1.4,0,0-.2,0-.3,0-3.7,0-6.6,.5-9,1.5-.2,0-.4,.1-.6,.2-.7,.2-1.7,.4-1.8,1.5,0,.2,0,.3,.1,.4,.2,.2,.3,.4,.4,.7,0,.3,.2,.6,.4,.9,.6,1.1,1.8,2.5,2.8,3.3,1,.8,2.1,1.6,3.3,2.4,1,.6,2.1,1.1,3.1,1.6,1.1,.5,2.1,1,3.1,1.6,.6,.4,1.3,.9,1.9,1.4,.5,.4,1,.7,1.5,1.1,.2,.1,.3,.3,.5,.5,.3,.3,.7,.7,1.3,.9,0,0,.1,0,.2,0,.1,0,.2,0,.3,0,.1,0,.2-.2,.2-.4v-.2c0-.1,0-.2-.1-.3-.1-.2-.2-.4-.4-.7-.1-.3-.2-.6-.4-.9,0,0,0,0,0,0-.3-.3-.5-.5-.8-.8-.2-.2-.5-.5-.7-.7-1.5-2-3.3-3.7-5.4-5.3-.5-.3-1-.6-1.6-1-1.4-.8-3.2-1.8-3.9-2.9,.9-.2,1.8-.4,2.6-.7h.3c.8-.3,1.6-.4,2.5-.5,.8,0,1.7-.2,2.6-.4,.7-.2,1.5-.4,2.2-.6h.3c.2-.1,.4-.3,.4-.6v-.5c0-.1,0-.3-.1-.4-.4-.4-.8-.9-1.1-1.4-.4-.6-.9-1.2-1.5-1.7-2.9-2.5-5.8-4.7-8.5-6.4-1-.6-2.2-1.1-3.3-1.6-.7-.3-1.4-.6-2.1-1-.2-.1-.5-.2-.8-.3-.4-.1-.9-.3-1-.5-.7-.8-1.1-1.7-1.5-2.7-.2-.4-.4-.8-.5-1.2-1.3-2.5-2.7-5.5-4.2-8.9-.3-.7-.6-1.5-.9-2.2-.5-1.2-1-2.5-1.7-3.8-5.1-8.5-10.8-14-20-19.4-1.8-1-3.9-1.5-6.1-2h-.6c0-.2,0-.2,0-.2-.6,0-1.2,0-1.9,0-.6,0-1.3,0-1.9-.1-.4-.2-.8-.6-1.2-.9-.3-.3-.7-.6-1-.8C131.9,2.3,128,0,124.7,0c0,0,0,0,0,0h0Zm12.7,12.7h0c-1,0-1.6,.1-2.2,.3-.2,0-.4,.3-.4,.5h0c0,.3,.1,.5,.3,.5,.3,.5,.6,.8,.9,1.2,.2,.2,.4,.5,.6,.7,.2,.4,.4,.8,.6,1.2,.2,.4,.4,.8,.6,1.2,0,.1,.2,.2,.4,.3,0,0,0,0,0,0,.1,0,.3,0,.4-.1,0,0,0,0,0,0,.8-.6,1.3-1.6,1.3-2.9s0-.2-.1-.3c-.1-.1-.2-.3-.3-.5,0-.2-.2-.4-.3-.6-.2-.4-.6-.6-.9-.9-.2-.1-.3-.2-.5-.3,0-.1-.2-.2-.4-.2h0Zm0,1h0Z"/></g><path class="f" d="M75.4,27.5c-2.9,15.8-6.7,27.2-11.5,34.3-3.7,5.5-7.7,8.3-12.1,8.3s-2.6-.4-4.3-1.1v-3.8c.8,.1,1.8,.2,3,.2,2.1,0,3.7-.6,5-1.7,1.5-1.4,2.3-2.9,2.3-4.7s-.6-3.6-1.8-7.3l-7.8-24.3h7l5.6,18.2c1.3,4.1,1.8,7,1.6,8.6,3.1-8.2,5.2-17.1,6.4-26.8h6.7m-30.8,31.4h-7.1c-.3-12-.9-23.3-2.1-34h0l-10.8,34h-5.4L8.3,25h0c-.8,10.2-1.3,21.5-1.5,34H.2c.4-15.1,1.5-29.3,3.1-42.6H12.2l10.3,31.3h0l10.3-31.3h8.4c1.8,15.5,2.9,29.7,3.3,42.6"/><path class="h" d="M170.1,58.9h-20.2V16.3h6.8V53.7h13.4v5.2m-50.8-8.5c-1.7-2.8-2.6-7.2-2.6-13.4,0-10.7,3.3-16.1,9.8-16.1s5.9,1.3,7.5,3.8c1.7,2.8,2.6,7.2,2.6,13.3,0,10.8-3.3,16.2-9.8,16.2s-5.9-1.3-7.5-3.9m25.3,9.5l-7.8-3.9c.7-.6,1.4-1.2,2-1.9,3.3-3.9,5-9.7,5-17.4,0-14.1-5.5-21.1-16.6-21.1s-9.6,1.8-12.7,5.4c-3.3,3.9-5,9.7-5,17.3s1.5,13,4.4,16.5c2.7,3.2,6.7,4.7,12.1,4.7s3.9-.2,5.6-.7l10.2,5.9,2.8-4.8m-38-12.8c0,3.6-1.3,6.6-4,8.9-2.6,2.3-6.2,3.5-10.6,3.5s-8.2-1.3-12.1-4l1.8-3.7c3.4,1.7,6.4,2.5,9.1,2.5s4.6-.6,6-1.7c1.4-1.1,2.3-2.7,2.3-4.7s-1.8-4.7-5-6.5c-3-1.6-8.9-5.1-8.9-5.1-3.2-2.4-4.8-4.9-4.8-9.1s1.2-6.2,3.6-8.4c2.4-2.1,5.5-3.2,9.3-3.2s7.5,1.1,10.8,3.2l-1.6,3.7c-2.8-1.2-5.5-1.8-8.2-1.8s-3.9,.5-5,1.6c-1.2,1-1.9,2.4-1.9,4,0,2.5,1.8,4.7,5.1,6.6,3,1.6,9.1,5.1,9.1,5.1,3.3,2.4,5,4.9,5,9"/><path class="g" d="M174.9,58.9h1.1v-4.3h1.5v-.9h-4.1v.9h1.5v4.3Zm8.6,0h1.1v-5.2h-1.6l-1.3,3.6-1.4-3.6h-1.5v5.2h1v-4h0l1.5,4h.8l1.5-4v4"/></g></svg>