<?xml version="1.0" encoding="utf-8"?>
<!-- Generator: Adobe Illustrator 26.5.3, SVG Export Plug-In . SVG Version: 6.00 Build 0)  -->
<svg version="1.1" id="레이어_1" xmlns="http://www.w3.org/2000/svg" xmlns:xlink="http://www.w3.org/1999/xlink" x="0px"
	 y="0px" viewBox="0 0 119.1 28.1" style="enable-background:new 0 0 119.1 28.1;" xml:space="preserve">
<style type="text/css">
	.st0{fill:#FFFFFF;}
	.st1{fill:#009900;}
</style>
<g transform="translate(-11.56225 -11.12422)">
	<g>
		<path class="st0" d="M16.1,37.2c1.4,0,2.5-1.1,2.5-2.5v-13l14.8,14.8c0.5,0.5,1.1,0.7,1.8,0.7c0.3,0,0.7-0.1,1-0.2
			c0.9-0.4,1.5-1.3,1.5-2.3V15.6c0-1.4-1.1-2.5-2.5-2.5s-2.5,1.1-2.5,2.5v13L17.8,13.9c-0.5-0.5-1.1-0.7-1.8-0.7
			c-0.3,0-0.6,0.1-0.9,0.2c-0.9,0.4-1.5,1.3-1.5,2.3v19.1C13.6,36.1,14.7,37.2,16.1,37.2z M20.6,34.7c0,2.5-2,4.5-4.5,4.5
			c-2.5,0-4.5-2-4.5-4.5V15.6c0-1.8,1.1-3.5,2.8-4.1c0.6-0.2,1.1-0.4,1.7-0.4c1.2,0,2.3,0.5,3.2,1.3l11.4,11.4v-8.2
			c0-2.5,2-4.5,4.5-4.5s4.5,2,4.5,4.5v19.1c0,1.8-1.1,3.5-2.8,4.1c-0.5,0.2-1.1,0.4-1.7,0.4c-1.2,0-2.3-0.5-3.2-1.3L20.6,26.5V34.7z
			"/>
		<path class="st0" d="M57.8,22.1l-1-2h-6L48,25.3l0.4,0.7c0.1-0.9,0.6-1.8,1.3-2.4c0.8-0.9,2-1.3,3.2-1.3L57.8,22.1z M67.1,24.1h-4
			l-10.2,0c0,0,0,0,0,0c-1.3,0-2.5,1.2-2.5,2.5c0,1.3,1.2,2.5,2.5,2.5c0,0,0,0,0,0l6.1,0l-1.5,3h-7.9l-3.9-6.9l3.9-7.1H58l1.9,4h5
			l-3.2-7.6l-0.7-1.4h-1.6H48.2h-1.5L46,14.4l-5.3,9.7L40,25.3l0.7,1.2l5.3,9.4l0.7,1.3h1.5h10.9h1.6l0.7-1.4l4-8L67.1,24.1z
			 M67.2,22.1h3.1L68.9,25l-1.8,3.6l-4,8L62.4,38l-0.5,1.1h-1.2h-1.6H48.2h-1.5h-1.2l-0.6-1l-0.7-1.3L39,27.5l-0.7-1.2l-0.6-1l0.6-1
			l0.7-1.2l5.3-9.6l0.7-1.3l0.6-1.1h1.2h1.5h11.4h1.6h1.2l0.5,1.1l0.7,1.4l0,0l0,0.1l3.2,7.6L67.2,22.1z"/>
		<path class="st0" d="M67.6,15.7c0-2.4,2-4.5,4.4-4.6h0h0c1.2,0,2.3,0.5,3.2,1.4c0.9,0.9,1.3,2,1.3,3.2v6.5v2h-2h-5h-2v-2V15.7z
			 M72.1,13.1C72,13.1,72,13.1,72.1,13.1c-1.3,0-2.5,1.2-2.5,2.5v6.5h5v-6.5C74.6,14.3,73.4,13.1,72.1,13.1z"/>
		<path class="st0" d="M127.9,17.4c1-1,1-2.5,0-3.5c-0.5-0.5-1.1-0.7-1.8-0.7s-1.3,0.2-1.8,0.7l-19.1,19c-1,1-1,2.6,0,3.5
			c0.5,0.5,1.1,0.7,1.8,0.7s1.3-0.2,1.8-0.7L127.9,17.4z M129.3,12.5c0.9,0.9,1.3,2,1.3,3.2s-0.5,2.3-1.3,3.2l-19.1,19
			c-0.8,0.8-2,1.3-3.2,1.3c-1.2,0-2.3-0.5-3.2-1.3s-1.3-2-1.3-3.2c0-1.2,0.5-2.3,1.3-3.2l19.1-19c0.9-0.8,2-1.3,3.2-1.3
			C127.3,11.2,128.5,11.6,129.3,12.5z"/>
		<path class="st0" d="M127.9,36.5c1-1,1-2.6,0-3.5l-19.1-19c-0.5-0.5-1.1-0.7-1.8-0.7s-1.3,0.2-1.8,0.7c-1,1-1,2.6,0,3.5l19.1,19
			c0.5,0.5,1.1,0.7,1.8,0.7S127.4,36.9,127.9,36.5z M130.6,34.7c0,1.2-0.5,2.3-1.3,3.2c-0.9,0.8-2,1.3-3.2,1.3
			c-1.2,0-2.3-0.5-3.2-1.3l-19.1-19c-0.8-0.9-1.3-2-1.3-3.2s0.5-2.3,1.3-3.2c0.9-0.9,2-1.3,3.2-1.3c1.2,0,2.3,0.5,3.2,1.3l19.1,19
			C130.1,32.3,130.6,33.5,130.6,34.7z"/>
		<path class="st0" d="M72.1,37.2c1.3,0,2.5-1.2,2.5-2.5V24.2h-5v10.5C69.5,35.9,70.7,37.2,72.1,37.2C72,37.2,72,37.2,72.1,37.2z
			 M76.6,34.6c0,1.2-0.5,2.3-1.3,3.2c-0.9,0.9-2,1.4-3.2,1.4h0h0c-2.4,0-4.5-2.2-4.4-4.5V24.2v-2h2h5h2v2V34.6z"/>
		<path class="st0" d="M80,11.2c2.5,0,4.5,2,4.5,4.5v8.2l11.4-11.4c0.8-0.8,2-1.3,3.2-1.3c0.6,0,1.2,0.1,1.7,0.3
			c1.7,0.7,2.8,2.3,2.8,4.2v19.1c0,2.5-2,4.5-4.5,4.5c-2.5,0-4.5-2-4.5-4.5v-8.2L83.2,37.9c-0.8,0.8-2,1.3-3.2,1.3
			c-0.6,0-1.2-0.1-1.7-0.4c-1.7-0.7-2.8-2.3-2.8-4.1V15.7C75.5,13.2,77.6,11.2,80,11.2z M81.8,36.5l14.8-14.8v13
			c0,1.4,1.1,2.5,2.5,2.5s2.5-1.1,2.5-2.5V15.7c0-1-0.6-1.9-1.5-2.3c-0.3-0.1-0.6-0.2-1-0.2c-0.7,0-1.3,0.3-1.8,0.7L82.5,28.7v-13
			c0-1.4-1.1-2.5-2.5-2.5c-1.4,0-2.5,1.1-2.5,2.5v19.1c0,1,0.6,1.9,1.5,2.3c0.3,0.1,0.6,0.2,0.9,0.2C80.7,37.2,81.3,37,81.8,36.5z"
			/>
	</g>
	<g>
		<path class="st1" d="M37.6,15.6v19.1c0,1-0.6,1.9-1.5,2.3c-0.3,0.1-0.6,0.2-1,0.2c-0.6,0-1.3-0.3-1.8-0.7L18.6,21.7v13
			c0,1.4-1.1,2.5-2.5,2.5c-1.4,0-2.5-1.1-2.5-2.5V15.6c0-1,0.6-1.9,1.5-2.3c0.3-0.1,0.6-0.2,0.9-0.2c0.7,0,1.3,0.3,1.8,0.7
			l14.8,14.8v-13c0-1.4,1.1-2.5,2.5-2.5S37.6,14.2,37.6,15.6z"/>
		<path class="st1" d="M67.1,24.1l-1.8,3.6l-4,8l-0.7,1.4h-1.6H48.2h-1.5L46,35.9l-5.3-9.4L40,25.3l0.7-1.2l5.3-9.7l0.7-1.3h1.5
			h11.4h1.6l0.7,1.4l3.2,7.6h-5l-1.9-4h-8.4l-3.9,7.1l3.9,6.9h7.9l1.5-3l-6.1,0c0,0,0,0,0,0c-1.3,0-2.5-1.2-2.5-2.5
			c0-1.3,1.2-2.5,2.5-2.5c0,0,0,0,0,0l10.2,0H67.1z"/>
		<path class="st1" d="M74.6,15.7v6.5h-5v-6.5c0-1.3,1.2-2.5,2.5-2.5c0,0,0,0,0,0C73.4,13.1,74.6,14.3,74.6,15.7z"/>
		<path class="st1" d="M101.6,15.7v19.1c0,1.4-1.1,2.5-2.5,2.5s-2.5-1.1-2.5-2.5v-13L81.8,36.5c-0.5,0.5-1.1,0.7-1.8,0.7
			c-0.3,0-0.6-0.1-0.9-0.2c-0.9-0.4-1.5-1.3-1.5-2.3V15.7c0-1.4,1.1-2.5,2.5-2.5c1.4,0,2.5,1.1,2.5,2.5v13l14.8-14.8
			c0.5-0.5,1.1-0.7,1.8-0.7c0.3,0,0.7,0.1,1,0.2C101,13.8,101.6,14.7,101.6,15.7z"/>
		<g>
			<path class="st1" d="M127.9,32.9c1,1,1,2.6,0,3.5c-0.5,0.5-1.1,0.7-1.8,0.7s-1.3-0.2-1.8-0.7l-19.1-19c-1-1-1-2.5,0-3.5
				c0.5-0.5,1.1-0.7,1.8-0.7s1.3,0.2,1.8,0.7L127.9,32.9z"/>
			<path class="st1" d="M127.9,13.9c1,1,1,2.6,0,3.5l-19.1,19c-0.5,0.5-1.1,0.7-1.8,0.7s-1.3-0.2-1.8-0.7c-1-1-1-2.6,0-3.5l19.1-19
				c0.5-0.5,1.1-0.7,1.8-0.7S127.4,13.4,127.9,13.9z"/>
		</g>
		<path class="st1" d="M74.6,34.6c0,1.3-1.2,2.5-2.5,2.5c0,0,0,0,0,0c-1.3,0-2.5-1.2-2.5-2.5V24.2h5V34.6z"/>
	</g>
</g>
</svg>
