<?xml version="1.0" encoding="utf-8"?>
<!-- Generator: Adobe Illustrator 26.5.3, SVG Export Plug-In . SVG Version: 6.00 Build 0)  -->
<svg version="1.1" id="레이어_1" xmlns="http://www.w3.org/2000/svg" xmlns:xlink="http://www.w3.org/1999/xlink" x="0px"
	 y="0px" viewBox="0 0 267 80" style="enable-background:new 0 0 267 80;" xml:space="preserve">
<style type="text/css">
	.st0{fill:#FFFFFF;filter:url(#Adobe_OpacityMaskFilter);}
	.st1{mask:url(#mask0_1803_3458_00000047777789381533137740000007879055704050519464_);}
	.st2{fill:#5FA04E;}
	.st3{fill:#FFFFFF;}
	.st4{fill-rule:evenodd;clip-rule:evenodd;fill:#5FA04E;}
	.st5{fill:url(#SVGID_1_);}
	.st6{fill:url(#SVGID_00000047780694494799833850000008557552403483232441_);}
	.st7{fill:url(#SVGID_00000133508471820268139970000002765442369519312055_);}
</style>
<defs>
	<filter id="Adobe_OpacityMaskFilter" filterUnits="userSpaceOnUse" x="-0.1" y="0.6" width="267.2" height="78.9">
		<feColorMatrix  type="matrix" values="1 0 0 0 0  0 1 0 0 0  0 0 1 0 0  0 0 0 1 0"/>
	</filter>
</defs>
<mask maskUnits="userSpaceOnUse" x="-0.1" y="0.6" width="267.2" height="78.9" id="mask0_1803_3458_00000047777789381533137740000007879055704050519464_">
	<path class="st0" d="M266.9,0.6h-267v79.4h267V0.6z"/>
</mask>
<g class="st1">
	<path class="st2" d="M234.9,79.3c-0.7,0-1.3-0.2-1.9-0.5l-6.1-3.7c-0.9-0.5-0.5-0.7-0.2-0.8c1.2-0.4,1.5-0.5,2.8-1.3
		c0.1-0.1,0.3,0,0.5,0l4.7,2.8c0.2,0.1,0.4,0.1,0.6,0l18.4-10.7c0.2-0.1,0.3-0.3,0.3-0.5V43.4c0-0.2-0.1-0.4-0.3-0.5l-18.4-10.7
		c-0.2-0.1-0.4-0.1-0.6,0l-18.4,10.7c-0.2,0.1-0.3,0.3-0.3,0.5v21.3c0,0.2,0.1,0.4,0.3,0.5l5,2.9c2.7,1.4,4.4-0.2,4.4-1.9V45.3
		c0-0.3,0.2-0.6,0.6-0.6h2.3c0.3,0,0.6,0.2,0.6,0.6v21.1c0,3.7-2,5.8-5.4,5.8c-1.1,0-1.9,0-4.2-1.2l-4.8-2.8c-1.2-0.7-1.9-2-1.9-3.4
		V43.5c0-1.4,0.7-2.7,1.9-3.4l18.4-10.7c1.1-0.6,2.7-0.6,3.9,0l18.4,10.7c1.2,0.7,1.9,2,1.9,3.4v21.3c0,1.4-0.7,2.7-1.9,3.4
		l-18.4,10.7C236.3,79.1,235.6,79.3,234.9,79.3z"/>
	<path class="st2" d="M240.6,64.6c-8.1,0-9.7-3.7-9.7-6.9c0-0.3,0.2-0.6,0.6-0.6h2.4c0.3,0,0.5,0.2,0.5,0.5c0.4,2.5,1.4,3.7,6.3,3.7
		c3.9,0,5.5-0.9,5.5-3c0-1.2-0.5-2.1-6.5-2.7c-5-0.5-8.1-1.6-8.1-5.6c0-3.8,3.1-6,8.4-6c5.9,0,8.8,2,9.2,6.5c0,0.1,0,0.3-0.1,0.4
		c-0.1,0.1-0.2,0.2-0.4,0.2h-2.4c-0.2,0-0.5-0.2-0.5-0.4c-0.6-2.5-2-3.4-5.8-3.4c-4.2,0-4.7,1.5-4.7,2.6c0,1.3,0.6,1.8,6.3,2.5
		c5.7,0.7,8.3,1.8,8.3,5.8C249.7,62.3,246.4,64.6,240.6,64.6z"/>
	<path class="st2" d="M267.1,42.2c0,1.9-1.6,3.6-3.5,3.6c-1.9,0-3.5-1.6-3.5-3.6c0-2,1.7-3.6,3.5-3.6
		C265.4,38.7,267.1,40.2,267.1,42.2z M260.6,42.2c0,1.7,1.3,3,2.9,3c1.7,0,3-1.4,3-3c0-1.7-1.3-3-3-3
		C261.9,39.3,260.6,40.5,260.6,42.2z M262.2,40.2h1.4c0.5,0,1.4,0,1.4,1.1c0,0.7-0.5,0.9-0.7,1c0.6,0,0.6,0.4,0.6,0.9
		c0,0.3,0.1,0.9,0.2,1.1h-0.8c0-0.2-0.1-1.2-0.1-1.3c0-0.2-0.1-0.3-0.4-0.3H263v1.6h-0.8V40.2z M263,42h0.6c0.5,0,0.6-0.4,0.6-0.6
		c0-0.6-0.4-0.6-0.6-0.6h-0.6L263,42L263,42z"/>
	<g id="XMLID_00000054243246100466329670000009786383928407579057_">
		<g>
			<path class="st3" d="M22.9,29.1l19.5,11.3c0.7,0.4,1.2,1.2,1.2,2v30.4c0,0.4-0.2,0.8-0.6,1c-0.4,0.2-0.8,0.2-1.2,0l-11.5-6.7
				c-0.7-0.4-1.2-1.2-1.2-2V51c0-0.8-0.5-1.6-1.2-2L23,46.1c-0.3-0.2-0.7-0.3-1.1-0.3c-0.4,0-0.8,0.1-1.2,0.3l-4.9,2.9
				c-0.7,0.4-1.2,1.2-1.2,2v14.2c0,0.8-0.5,1.6-1.2,2L1.7,73.9c-0.3,0.2-0.8,0.2-1.1,0c-0.4-0.2-0.6-0.6-0.6-1l-0.1-30.4
				c0-0.9,0.5-1.7,1.2-2.1l19.5-11.3c0.3-0.2,0.7-0.3,1.1-0.3c0,0,0.1,0,0.2,0C22.2,28.8,22.6,28.9,22.9,29.1z"/>
		</g>
	</g>
	<path class="st3" d="M149,7.2l-11.6-6.5c-0.4-0.2-0.8-0.2-1.2,0c-0.4,0.2-0.6,0.6-0.6,1v30.1c0,0.3-0.1,0.5-0.4,0.7
		c-0.3,0.1-0.5,0.1-0.8,0l-4.9-2.8c-0.7-0.4-1.6-0.4-2.4,0l-19.5,11.4c-0.7,0.4-1.2,1.2-1.2,2v22.6c0,0.8,0.5,1.6,1.2,2l19.5,11.3
		c0.7,0.4,1.6,0.4,2.4,0L149,67.8c0.7-0.4,1.2-1.2,1.2-2V9.3C150.2,8.4,149.7,7.6,149,7.2z M135.6,58.3c0,0.2-0.1,0.4-0.3,0.5
		l-6.7,3.9c-0.2,0.1-0.4,0.1-0.6,0l-6.7-3.9c-0.2-0.1-0.3-0.3-0.3-0.5v-7.8c0-0.2,0.1-0.4,0.3-0.5l6.7-3.9c0.2-0.1,0.4-0.1,0.6,0
		l6.7,3.9c0.2,0.1,0.3,0.3,0.3,0.5V58.3z"/>
	<g id="XMLID_00000137833435127207691070000003695565824873839759_">
		<g>
			<path class="st3" d="M203.4,42.8v5.5c0,0.8-0.4,1.6-1.2,2l-11.6,6.8c-0.4,0.2-0.8,0.2-1.2,0c-0.4-0.2-0.6-0.6-0.6-1v-5.6
				c0-0.4-0.2-0.8-0.6-1l-6.1-3.5c-0.4-0.2-0.8-0.2-1.2,0l-6.1,3.5c-0.4,0.2-0.6,0.6-0.6,1v7.1c0,0.4,0.2,0.8,0.6,1L194.5,70
				c0.4,0.2,0.6,0.6,0.6,1c0,0.4-0.2,0.8-0.6,1l-11.7,6.6c-0.7,0.4-1.6,0.4-2.3,0l-19.4-11.1c-0.7-0.4-1.2-1.2-1.2-2V42.8
				c0-0.8,0.5-1.6,1.2-2l19.5-11.3c0.7-0.4,1.6-0.4,2.3,0l19.4,11.3C203,41.2,203.4,42,203.4,42.8z"/>
		</g>
	</g>
	<path class="st4" d="M181.5,49.3c0.1-0.1,0.3-0.1,0.5,0l3.7,2.2c0.1,0.1,0.2,0.2,0.2,0.4v4.4c0,0.2-0.1,0.3-0.2,0.4l-3.7,2.2
		c-0.1,0.1-0.3,0.1-0.5,0l-3.7-2.2c-0.1-0.1-0.2-0.2-0.2-0.4v-4.4c0-0.2,0.1-0.3,0.2-0.4L181.5,49.3z"/>
	
		<linearGradient id="SVGID_1_" gradientUnits="userSpaceOnUse" x1="82.9928" y1="42.0406" x2="65.2991" y2="6.1688" gradientTransform="matrix(1 0 0 -1 0 80)">
		<stop  offset="0" style="stop-color:#3F873F"/>
		<stop  offset="0.3296" style="stop-color:#3F8B3D"/>
		<stop  offset="0.6367" style="stop-color:#3E9638"/>
		<stop  offset="0.9341" style="stop-color:#3DA92E"/>
		<stop  offset="1" style="stop-color:#3DAE2B"/>
	</linearGradient>
	<path class="st5" d="M76.2,29.5c-0.7-0.4-1.6-0.4-2.3,0L54.5,40.8c-0.7,0.4-1.2,1.2-1.2,2v22.6c0,0.8,0.5,1.6,1.2,2l19.4,11.3
		c0.7,0.4,1.6,0.4,2.3,0l19.4-11.3c0.7-0.4,1.2-1.2,1.2-2V42.8c0-0.8-0.5-1.6-1.2-2L76.2,29.5z"/>
	
		<linearGradient id="SVGID_00000101812702840158416300000009637823956321681064_" gradientUnits="userSpaceOnUse" x1="72.06" y1="23.2904" x2="121.4287" y2="59.541" gradientTransform="matrix(1 0 0 -1 0 80)">
		<stop  offset="0.1376" style="stop-color:#3F873F"/>
		<stop  offset="0.4016" style="stop-color:#52A044"/>
		<stop  offset="0.7129" style="stop-color:#64B749"/>
		<stop  offset="0.9081" style="stop-color:#6ABF4B"/>
	</linearGradient>
	<path style="fill:url(#SVGID_00000101812702840158416300000009637823956321681064_);" d="M95.6,40.8L76.2,29.5
		c-0.2-0.1-0.4-0.2-0.6-0.2L53.7,66.9c0.2,0.2,0.4,0.4,0.6,0.6l19.5,11.3c0.6,0.3,1.2,0.4,1.8,0.2l20.5-37.7
		C96,41,95.8,40.9,95.6,40.8z"/>
	
		<linearGradient id="SVGID_00000038398994605637605920000003920341294767961274_" gradientUnits="userSpaceOnUse" x1="52.6188" y1="25.8906" x2="97.451" y2="25.8906" gradientTransform="matrix(1 0 0 -1 0 80)">
		<stop  offset="9.191650e-02" style="stop-color:#6ABF4B"/>
		<stop  offset="0.2871" style="stop-color:#64B749"/>
		<stop  offset="0.5984" style="stop-color:#52A044"/>
		<stop  offset="0.8624" style="stop-color:#3F873F"/>
	</linearGradient>
	<path style="fill:url(#SVGID_00000038398994605637605920000003920341294767961274_);" d="M95.6,67.4c0.6-0.3,1-0.9,1.2-1.5
		L75.5,29.3c-0.6-0.1-1.2,0-1.7,0.3L54.5,40.7L75.3,79c0.3,0,0.6-0.1,0.9-0.3L95.6,67.4z"/>
</g>
</svg>
