<?xml version="1.0" encoding="utf-8"?>
<!-- Generator: Adobe Illustrator 26.5.3, SVG Export Plug-In . SVG Version: 6.00 Build 0)  -->
<svg version="1.1" id="레이어_1" xmlns="http://www.w3.org/2000/svg" xmlns:xlink="http://www.w3.org/1999/xlink" x="0px"
	 y="0px" viewBox="0 0 372 72" style="enable-background:new 0 0 372 72;" xml:space="preserve">
<style type="text/css">
	.st0{fill:#00A3E0;}
	.st1{fill:#B9D9EB;}
	.st2{fill-rule:evenodd;clip-rule:evenodd;fill:#B9D9EB;}
	.st3{fill-rule:evenodd;clip-rule:evenodd;fill:#00A3E0;}
</style>
<path class="st0" d="M61.7,26.5c-1.2,0-2.3,1-2.3,2.3c0,18.6-15.1,33.7-33.7,33.7c-1.2,0-2.3,1-2.3,2.3s1,2.3,2.3,2.3
	C46.9,67,64,49.9,64,28.8C64,27.5,63,26.5,61.7,26.5z"/>
<path class="st1" d="M48.1,41c2.2-3.5,4.3-8.3,3.9-14.9c-0.9-13.7-13.3-24.1-25-23C22.3,3.5,17.6,7.3,18,14c0.2,2.9,1.6,4.6,3.9,6
	c2.2,1.3,5,2.1,8.3,3c3.9,1.1,8.4,2.3,11.9,4.9C46.2,30.8,49,34.4,48.1,41z"/>
<path class="st0" d="M3.9,17c-2.2,3.5-4.3,8.3-3.9,14.9c0.9,13.7,13.3,24.1,25,23c4.6-0.4,9.3-4.2,8.9-10.9c-0.2-2.9-1.6-4.6-3.9-6
	c-2.2-1.3-5-2.1-8.3-3c-3.9-1.1-8.4-2.3-11.9-4.9C5.8,27.2,3,23.6,3.9,17z"/>
<path class="st2" d="M354.5,31v23h9V29c0-4.6-0.9-8.1-2.7-10.4c-1.8-2.4-4.5-3.6-8-3.6c-3.8,0-6.9,2.2-8.8,6h-0.5
	c0.1-1.9,0.3-3.1,0.4-3.9c0.1-0.8,0.1-1.4,0.1-2.1V0.5h-9V54h9.5V35.5c0-4.1,0.1-7.2,1-9.4c0.9-2.2,2.3-3.3,4.5-3.3
	C352.8,22.7,354.5,25.4,354.5,31L354.5,31z M223.9,51.2c2.4-2.5,3.6-6.1,3.6-10.9c0-3-0.7-5.6-2-7.9c-1.3-2.3-3.6-4.6-7-6.8
	c-2.5-1.6-4.2-3.1-5.2-4.3c-1-1.3-1.5-2.8-1.5-4.5c0-1.7,0.4-3.1,1.2-4.1c0.8-1,2-1.5,3.6-1.5c1.4,0,2.7,0.3,3.9,0.8
	c1.2,0.5,2.4,1.1,3.5,1.7l3.2-7.5c-3.6-2.2-7.4-3.3-11.3-3.3c-4.1,0-7.4,1.3-9.9,3.8c-2.4,2.5-3.6,6-3.6,10.3c0,2.3,0.3,4.2,0.9,6
	c0.6,1.7,1.5,3.3,2.6,4.6c1.1,1.4,2.8,2.8,5,4.3c2.5,1.7,4.3,3.3,5.4,4.7c1.1,1.4,1.6,2.9,1.6,4.6c0,1.7-0.5,3.1-1.4,4
	c-0.9,1-2.3,1.5-4.1,1.5c-3.2,0-6.7-1.2-10.6-3.7v9.3c3.1,1.7,6.9,2.6,11.4,2.6C218,55,221.4,53.7,223.9,51.2L223.9,51.2z
	 M233.7,49.9c2.8,3.4,6.6,5.1,11.5,5.1c4.2,0,7.7-0.9,10.7-2.7v-7.6c-3.2,1.9-6.2,2.8-9.3,2.8c-2.4,0-4.2-0.8-5.6-2.5
	c-1.3-1.7-1.9-4.1-2-7.6h18.5v-5c0-5.5-1.2-9.8-3.7-12.8c-2.4-3.1-5.8-4.6-10-4.6c-4.5,0-8,1.8-10.6,5.4c-2.5,3.6-3.8,8.6-3.8,14.9
	C229.5,41.6,230.9,46.4,233.7,49.9L233.7,49.9z M240.5,24.2c0.9-1.4,1.9-2.1,3.3-2.1c1.4,0,2.5,0.7,3.3,2.2c0.8,1.5,1.3,3.9,1.4,6.7
	H239C239.1,28.1,239.7,25.6,240.5,24.2L240.5,24.2z M280,54l-1.5-5H278c-1.4,2.3-2.7,3.9-4.2,4.7c-1.5,0.9-3.3,1.3-5.6,1.3
	c-2.9,0-5.1-1.1-6.8-3.2c-1.6-2.1-2.5-5.1-2.5-8.9c0-4.1,1.1-7.1,3.4-9c2.3-2,5.6-3.1,10.1-3.3l5.2-0.2v-2.8c0-3.6-1.6-5.4-4.7-5.4
	c-2.3,0-5,0.9-8.1,2.7l-3.2-6.4c3.9-2.4,8-3.6,12.6-3.6c4.1,0,7.3,1.2,9.5,3.5c2.2,2.3,3.3,5.6,3.3,9.9V54L280,54L280,54z
	 M272.1,47.8c1.7,0,3.1-0.7,4.1-2.2c1-1.5,1.5-3.5,1.5-6.1v-3.2l-2.9,0.1c-2.1,0.1-3.7,0.7-4.7,1.8c-1,1.1-1.5,2.7-1.5,4.8
	C268.6,46.2,269.8,47.8,272.1,47.8z M310,15.8c-1.1-0.3-2.7-0.8-3.8-0.8c-1.6,0-2.9,0.5-4.1,1.6s-2.1,2-3.1,4.4h-0.5l-1.5-5h-7v38
	h9.5V34c0-3.4,0.2-5.5,1.4-7.3c1.2-1.8,2.9-2.7,5.1-2.7c1,0,1.9,0.2,2.6,0.4L310,15.8L310,15.8z M324,55c-4.6,0-8-1.5-10.4-4.9
	c-2.4-3.3-3.6-8.3-3.6-14.8c0-6.8,1.1-11.9,3.4-15.2c2.3-3.3,5.7-5.2,10.4-5.2c1.4,0,3,0.4,4.6,0.8s3.5,0.9,4.7,1.7l-3.1,7.2
	c-1.9-1.1-3.6-1.7-5-1.7c-1.9,0-3.4,1-4.2,3.1c-0.8,2-1.3,5.1-1.3,9.2c0,4,0.4,7,1.3,9c0.8,2,2.2,2.9,4.2,2.9c2.3,0,4.7-0.8,7.2-2.4
	v8.1C329.5,54.4,326.9,55,324,55L324,55z"/>
<path class="st3" d="M99.8,48.3c3.1-4.5,4.7-10.9,4.7-19.3c0-8.4-1.6-14.8-4.7-19.2C96.7,5.2,92.2,3,86.3,3
	c-5.9,0-10.5,2.2-13.6,6.7C69.6,14.1,68,20.6,68,28.9c0,8.4,1.6,14.9,4.7,19.4c3.1,4.5,7.7,6.7,13.5,6.7
	C92.1,55,96.6,52.8,99.8,48.3z M79.8,42.1c-1.5-3-2.2-7.4-2.2-13.2c0-5.8,0.7-10.2,2.2-13.2c1.5-3,3.6-4.5,6.5-4.5
	c5.6,0,8.5,5.9,8.5,17.7S92,46.7,86.3,46.7C83.4,46.7,81.3,45.2,79.8,42.1z M120.2,54c1.3,0.7,2.7,1,4.3,1c3.5,0,6.4-1.7,8.4-5.2
	c2-3.6,3.1-8.5,3.1-14.8c0-6.4-1-11.3-3-14.8c-2-3.5-4.7-5.2-8.2-5.2c-3.6,0-6.5,2.2-8.4,6H116l-1.5-5h-7v55.5h9V55
	c0-0.6-0.1-2.9-0.5-6h0.5C117.2,51.2,118.9,53.2,120.2,54L120.2,54z M117.9,25.4c0.8-1.7,2.1-2.5,3.9-2.5c1.7,0,2.9,1,3.7,3
	c0.8,2,1.2,5,1.2,9c0,8.2-1.6,12.3-4.8,12.3c-1.9,0-3.2-1-4-2.9s-1.2-5-1.2-9.3v-1.2C116.7,29.8,117.1,27.1,117.9,25.4z M153.7,55
	c-4.8,0-8.7-1.7-11.5-5.1c-2.8-3.4-4.2-8.3-4.2-14.6c0-6.4,1.3-11.3,3.8-14.9c2.5-3.6,6.1-5.4,10.6-5.4c4.2,0,7.5,1.5,10,4.6
	c2.4,3,3.7,7.3,3.7,12.8v5h-18.5c0.1,3.4,0.7,5.9,2,7.6c1.3,1.7,3.2,2.5,5.6,2.5c3,0,6.1-0.9,9.3-2.8v7.6
	C161.4,54.1,157.8,55,153.7,55L153.7,55z M152.3,22.1c-1.3,0-2.4,0.7-3.3,2.1c-0.9,1.4-1.4,3.9-1.5,6.8h9.5c0-2.8-0.6-5.3-1.4-6.7
	C154.8,22.8,153.7,22.1,152.3,22.1L152.3,22.1z M188.5,31v23h9V29.2c0-4.6-0.9-8.2-2.6-10.6c-1.7-2.4-4.4-3.6-7.9-3.6
	c-2.1,0-3.9,0.5-5.4,1.5c-1.5,1-2.7,2.7-3.6,4.5h-0.5l-1.2-5H169v38h9.5V35.8c0-4.7,0.2-7.9,1.1-9.9c0.9-2,2.4-3,4.4-3
	c1.5,0,2.6,0.7,3.3,2.2C187.9,26.5,188.5,28.2,188.5,31z"/>
</svg>
