<?xml version="1.0" encoding="UTF-8"?><svg id="b" xmlns="http://www.w3.org/2000/svg" viewBox="0 0 435.3 113.1"><defs><style>.d{fill:#fff;}.e{fill:#c74634;}.f{fill:#333;}</style></defs><g id="c"><g><g><path class="e" d="M223.1,58.7c-.5,0-1-.3-1.3-.7l-5.3-8.8h-27c-.5,0-1-.3-1.3-.7l-5.7-8.9-11.6,18.4c-.3,.4-.8,.7-1.3,.7h-12.1c-.5,0-1.1-.3-1.3-.8s-.2-1.1,0-1.5L188.8,5.5c1.8-2.5,4.6-4,7.6-4s3.7,.6,5.3,1.7c.9,.6,1.6,1.3,2.2,2.2l32.6,51c.3,.5,.3,1,0,1.5-.3,.5-.8,.8-1.3,.8h-12.1Zm-14.9-21.9l-11.8-19.1-12.1,19.1h23.9Z"/><path class="d" d="M196.4,3c1.5,0,3.1,.5,4.4,1.4,.7,.5,1.3,1.1,1.9,1.8l32.6,50.9h-12.1l-5.7-9.5h-27.8l-6.1-9.4h27.5l-14.5-23.5-26.7,42.4h-12.1L190,6.3c1.5-2.2,3.9-3.3,6.4-3.3m0-3c-3.5,0-6.8,1.7-8.8,4.6,0,0,0,0,0,.1l-32.5,50.8c-.6,.9-.6,2.1-.1,3.1,.5,1,1.5,1.6,2.6,1.6h12.1c1,0,2-.5,2.5-1.4l10.3-16.4,4.5,6.9c.6,.9,1.5,1.4,2.5,1.4h26.1l4.8,8c.5,.9,1.5,1.4,2.6,1.4h12.1c1.1,0,2.1-.6,2.6-1.6,.5-1,.5-2.1-.1-3.1L205.2,4.6s0,0,0-.1c-.7-1-1.6-1.8-2.6-2.5-1.8-1.3-3.9-1.9-6.1-1.9h0Zm-9.3,35.2l9.3-14.8,9.2,14.8h-18.5Z"/></g><g><path class="e" d="M304.6,58.7c-1.8,0-3.5-.7-4.8-2-1.2-1.2-2-2.9-2-4.7V3.5c0-.8,.7-1.5,1.5-1.5h10.3c.8,0,1.5,.7,1.5,1.5V46.2h46.5c.5,0,1.1,.3,1.3,.8s.2,1.1,0,1.5l-6.1,9.5c-.3,.4-.8,.7-1.3,.7h-46.9Z"/><path class="d" d="M309.7,3.5V47.7h0c0,0,48.1,0,48.1,0l-6.1,9.5h-46.9s0,0,0,0c-1.4,0-2.7-.6-3.7-1.6-1-.9-1.5-2.2-1.5-3.6V3.5h10.3m0-3h-10.3c-1.7,0-3,1.3-3,3V52c0,2.1,.9,4.2,2.4,5.7,1.5,1.6,3.7,2.4,5.8,2.4h46.9c1,0,2-.5,2.5-1.4l6.1-9.5c.6-.9,.6-2.1,.1-3.1-.5-1-1.5-1.6-2.6-1.6h-45V3.5c0-1.7-1.3-3-3-3h0Z"/></g><g><path class="e" d="M140.1,58.7c-.4,0-.7-.1-1-.4l-30.8-26.8c-.5-.4-.6-1.1-.4-1.7,.2-.6,.8-1,1.4-1h29.1c4,0,7.2-3.2,7.2-7.2s-3.2-7.2-7.2-7.2h-32.7V57.2c0,.8-.7,1.5-1.5,1.5h-10.3c-.8,0-1.5-.7-1.5-1.5V3.5c0-.8,.7-1.5,1.5-1.5h45.1c10.8,0,19.6,8.8,19.6,19.6s-8.8,19.6-19.6,19.6h-.5l17.5,14.7c.5,.4,.7,1.1,.4,1.7-.2,.6-.8,1-1.4,1h-15Z"/><path class="d" d="M139,3.5c10,0,18.1,8.1,18.1,18.1s-8.1,18.1-18.1,18.1h-4.6l20.7,17.4h-15l-30.8-26.8h29.1c4.8,0,8.7-3.9,8.7-8.7s-3.9-8.7-8.7-8.7h-34.2V57.2h-10.3V3.5h45.1m0-3h-45.1c-1.7,0-3,1.3-3,3V57.2c0,1.7,1.3,3,3,3h10.3c1.7,0,3-1.3,3-3v-24.6s0,0,.1,.1l30.8,26.8c.5,.5,1.2,.7,2,.7h15c1.3,0,2.4-.8,2.8-2s0-2.5-.9-3.3l-14.7-12.3c10.1-1.6,17.8-10.3,17.8-20.9S150.7,.5,139,.5h0Zm-31.8,15.5h31.2c3.1,0,5.7,2.5,5.7,5.7s-2.5,5.7-5.7,5.7h-29.1c-.8,0-1.6,.3-2.1,.9v-12.2h0Z"/></g><g><path class="e" d="M29.8,58.7c-.2,0-.5,0-.7,0-15.6-.4-28-13.4-27.6-29C1.9,14.1,14.3,2,29.8,2s.5,0,.7,0h31.1c15.1,.4,27.2,12.5,27.6,27.6,.4,15.6-12,28.6-27.6,29H30.5c-.2,0-.5,0-.7,0Zm31.7-12.4c.2,0,.3,0,.5,0,8.7-.3,15.6-7.6,15.3-16.4-.3-8.6-7.2-15.4-15.8-15.4s-.3,0-.5,0H31.2c-8.3,.3-15,7-15.3,15.3-.1,4.2,1.4,8.3,4.3,11.4,2.9,3.1,6.8,4.9,11.1,5h29.7c.2,0,.4,0,.6,0Z"/><path class="d" d="M29.8,3.5c.2,0,.5,0,.7,0h31.2c14.3,.4,25.7,11.8,26.1,26.1,.4,14.8-11.3,27.1-26.1,27.5H30.5c-.2,0-.5,0-.7,0s-.5,0-.7,0c-14.8-.4-26.5-12.7-26.1-27.5C3.4,15.1,15.3,3.5,29.8,3.5m1.4,44.2h29.8c.2,0,.4,0,.6,0s.4,0,.6,0c9.6-.3,17.1-8.3,16.8-17.9-.3-9.4-8-16.8-17.3-16.8-.2,0-.4,0-.6,0H31.2c-9.1,.3-16.5,7.6-16.8,16.8-.3,9.6,7.2,17.6,16.8,17.9M29.8,.5h0c-7.8,0-15.2,3-20.8,8.4C3.4,14.4,.2,21.7,0,29.6c-.2,8,2.7,15.5,8.2,21.3,5.5,5.8,12.9,9.1,20.9,9.3,.3,0,.5,0,.8,0s.5,0,.7,0h31.1s0,0,0,0c8-.2,15.4-3.5,20.9-9.3,5.5-5.8,8.4-13.3,8.2-21.3-.4-15.9-13.2-28.6-29-29,0,0,0,0,0,0H30.6c-.2,0-.5,0-.7,0h0Zm1.4,15.5h29.7s0,0,0,0c.2,0,.3,0,.5,0,7.8,0,14.1,6.1,14.3,13.9,.1,3.8-1.3,7.5-3.9,10.3-2.6,2.8-6.2,4.4-10,4.5-.2,0-.3,0-.5,0s-.3,0-.5,0c0,0,0,0,0,0H31.3c-3.8-.1-7.4-1.7-10-4.5-2.6-2.8-4-6.5-3.9-10.3,.2-7.5,6.3-13.6,13.8-13.9h0Z"/></g><g><path class="e" d="M256.1,58.7c-.2,0-.5,0-.7,0-15.6-.4-28-13.4-27.6-29,.4-15.5,12.8-27.6,28.3-27.6s.5,0,.7,0h37c.5,0,1.1,.3,1.3,.8,.3,.5,.2,1.1,0,1.5l-6.1,9.5c-.3,.4-.8,.7-1.3,.7h-30.2c-.2,0-.4,0-.6,0s-.3,0-.5,0c-4.2,.1-8.2,1.9-11.1,5-2.9,3.1-4.4,7.1-4.3,11.4,.3,8.6,7.2,15.4,15.8,15.4s.3,0,.5,0h37.2c.5,0,1.1,.3,1.3,.8s.2,1.1,0,1.5l-6,9.4c-.3,.4-.8,.7-1.3,.7h-31.8c-.2,0-.5,0-.7,0Z"/><path class="d" d="M256.1,3.5c.2,0,.5,0,.7,0h37l-6.1,9.5h-30.2c-.2,0-.4,0-.6,0s-.4,0-.6,0c-9.6,.3-17.1,8.3-16.8,17.9,.3,9.4,8,16.8,17.3,16.8s.4,0,.6,0h37.1l-6,9.4h-31.8c-.2,0-.5,0-.7,0s-.5,0-.7,0c-14.8-.4-26.5-12.7-26.1-27.5,.4-14.6,12.3-26.1,26.8-26.1m38.6,44.2h0M256.1,.5h0c-7.8,0-15.2,3-20.8,8.4-5.6,5.5-8.8,12.8-9,20.6-.2,8,2.7,15.5,8.2,21.3,5.5,5.8,12.9,9.1,20.9,9.3,.3,0,.5,0,.8,0s.5,0,.7,0h31.8c1,0,2-.5,2.5-1.4l6-9.4c.3-.5,.5-1.1,.5-1.7,0-1.7-1.3-3-3-3h-37.1s0,0,0,0c-.2,0-.3,0-.5,0-7.8,0-14.1-6.1-14.3-13.9-.3-7.9,6-14.6,13.9-14.8,.2,0,.3,0,.5,0s.3,0,.5,0c0,0,0,0,0,0h30.2c1,0,2-.5,2.5-1.4l6.1-9.5c.6-.9,.6-2.1,.1-3.1s-1.5-1.6-2.6-1.6h-37c-.2,0-.5,0-.7,0h0Z"/></g><g><path class="e" d="M382.2,58.6c-15.1-.4-27.2-12.5-27.6-27.6-.2-7.6,2.6-14.7,7.8-20.2s12.2-8.6,19.8-8.8h37c.5,0,1.1,.3,1.3,.8,.3,.5,.2,1.1,0,1.5l-6,9.5c-.3,.4-.8,.7-1.3,.7h-30.2c-6.4,0-12.1,3.9-14.6,9.6h48c.5,0,1.1,.3,1.3,.8,.3,.5,.2,1.1,0,1.5l-6.1,9.5c-.3,.4-.8,.7-1.3,.7h-42c2.4,5.7,8.1,9.5,14.4,9.6,0,0,.1,0,.2,0h37.2c.5,0,1.1,.3,1.3,.8s.2,1.1,0,1.5l-6,9.4c-.3,.4-.8,.7-1.3,.7h-31.8Z"/><path class="d" d="M419.2,3.5l-6,9.5h-30.2s0,0,0,0c-7.8,0-14.6,5.2-16.7,12.6h50.1l-6.1,9.5h-44.1c2.1,7.5,8.9,12.6,16.7,12.6h0s37.2,0,37.2,0l-6,9.4h-31.8c-14.3-.4-25.7-11.8-26.1-26.1-.4-14.8,11.3-27.1,26.1-27.5h37m.9,44.2h0m-.9-47.2h-37s0,0,0,0c-8,.2-15.4,3.5-20.9,9.3-5.5,5.8-8.4,13.3-8.2,21.3,.4,15.9,13.2,28.6,29,29,0,0,0,0,0,0h31.8c1,0,2-.5,2.5-1.4l6-9.4c.3-.5,.5-1.1,.5-1.7,0-1.7-1.3-3-3-3h-37.2c0,0-.2,0-.3,0-4.8-.1-9.3-2.7-11.8-6.6h39.5c1,0,2-.5,2.5-1.4l6.1-9.5c.6-.9,.6-2.1,.1-3.1-.5-1-1.5-1.6-2.6-1.6h-45.5c2.6-4,7.1-6.6,12.1-6.6h30.3c1,0,2-.5,2.5-1.4l6-9.5c.6-.9,.6-2.1,.1-3.1-.5-1-1.5-1.6-2.6-1.6h0Zm0,6h0Z"/></g></g><g><rect class="f" x="1.5" y="61.2" width="420" height="8" rx="1.5" ry="1.5"/><path class="d" d="M420,62.7v5H3v-5H420m0-3H3C1.3,59.7,0,61,0,62.7v5c0,1.7,1.3,3,3,3H420c1.7,0,3-1.3,3-3v-5c0-1.7-1.3-3-3-3h0Z"/></g><g><g><path class="e" d="M429.6,13.3l-1.8-2.8h-.4v2.8h-2V5.3h3.3c1.4,0,2.8,1,2.8,2.6s-.8,2-1.5,2.4l2,3h-2.4Zm-.9-4.7c.3,0,.8-.3,.8-.7s-.4-.8-.8-.8h-1.4v1.5h1.4Z"/><path class="d" d="M428.7,5.8c1.2,0,2.3,.8,2.3,2.1s-1.4,2.1-1.8,2.1l1.9,2.8h-1.2l-1.8-2.8h-1.2v2.8h-1V5.8h2.8m-1.9,3.3h1.9c.6,0,1.3-.5,1.3-1.2s-.7-1.3-1.3-1.3h-1.9v2.5m1.9-4.3h-3.8V13.8h3v-2.3l1.2,1.8,.3,.5h3.6l-1-1.6-1.2-1.8c.7-.5,1.3-1.3,1.3-2.5,0-1.8-1.4-3.1-3.3-3.1h0Zm-.9,2.9h.9s.3,0,.3,.3-.2,.2-.3,.2h-.9v-.5h0Z"/></g><g><path class="e" d="M428.2,15.9c-3.6,0-6.6-3-6.6-6.6s3-6.6,6.6-6.6,6.6,2.9,6.6,6.6-3,6.6-6.6,6.6Zm0-11.3c-2.6,0-4.7,2.1-4.7,4.7s2.1,4.7,4.7,4.7,4.7-2.1,4.7-4.7-2.1-4.7-4.7-4.7Z"/><path class="d" d="M428.2,3.1c3.4,0,6.1,2.7,6.1,6.1s-2.7,6.1-6.1,6.1-6.1-2.7-6.1-6.1,2.7-6.1,6.1-6.1m0,11.3c2.8,0,5.2-2.3,5.2-5.2s-2.3-5.2-5.2-5.2-5.2,2.3-5.2,5.2,2.3,5.2,5.2,5.2m0-12.3c-3.9,0-7.1,3.2-7.1,7.1s3.2,7.1,7.1,7.1,7.1-3.2,7.1-7.1-3.2-7.1-7.1-7.1h0Zm0,11.3c-2.3,0-4.2-1.9-4.2-4.2s1.8-4.2,4.2-4.2,4.2,1.9,4.2,4.2-1.9,4.2-4.2,4.2h0Z"/></g></g><g><g><path class="f" d="M94.5,110.9c-.8,0-1.5-.7-1.5-1.5v-35.8c0-.8,.7-1.5,1.5-1.5h10.1c12.6,0,19.5,6.8,19.5,19.3s-6.9,19.6-19,19.6h-10.6Zm9.6-9.5c6,0,8.7-3.1,8.7-10.1s-2.6-9.7-8.7-9.7h0v19.8h0Z"/><path class="d" d="M104.7,73.6c10.9,0,18,5.4,18,17.8s-7.1,18.1-17.5,18.1h-10.6v-35.8h10.1m-2,29.3h1.5c6.1,0,10.2-3,10.2-11.6s-4.1-11.2-10.2-11.2h-1.5v22.8m2-32.3h-10.1c-1.7,0-3,1.3-3,3v35.8c0,1.7,1.3,3,3,3h10.6c12.9,0,20.5-7.9,20.5-21.1s-7.7-20.8-21-20.8h0Zm1,29.3v-16.7c3.6,.3,5.7,2.1,5.7,8.2s-2.6,8.2-5.7,8.5h0Z"/></g><g><path class="f" d="M147.4,110.9c-.7,0-1.3-.5-1.5-1.1l-1.9-7.4h-8.6l-1.9,7.4c-.2,.7-.8,1.1-1.5,1.1h-8.3c-.5,0-.9-.2-1.2-.6-.3-.4-.4-.9-.2-1.3l11.3-35.8c.2-.6,.8-1.1,1.4-1.1h9.7c.7,0,1.2,.4,1.4,1.1l11.3,35.8c.1,.5,0,1-.2,1.3-.3,.4-.7,.6-1.2,.6h-8.6Zm-5.8-17.8l-.4-1.4c-.5-1.9-1-3.9-1.5-6-.5,2.1-1,4.1-1.5,6l-.4,1.4h3.8Z"/><path class="d" d="M144.7,73.6l11.3,35.8h-8.6l-2.2-8.5h-10.9l-2.2,8.5h-8.3l11.3-35.8h9.7m-8.8,21h7.7l-.9-3.3c-1-3.6-2-7.8-2.9-11.6h-.2c-.9,3.8-1.8,8-2.8,11.6l-.9,3.3m8.8-24h-9.7c-1.3,0-2.5,.9-2.9,2.1l-11.3,35.8c-.3,.9-.1,1.9,.4,2.7s1.5,1.2,2.4,1.2h8.3c1.4,0,2.6-.9,2.9-2.2l1.6-6.3h6.3l1.6,6.3c.3,1.3,1.5,2.2,2.9,2.2h8.6c1,0,1.9-.5,2.4-1.2s.7-1.8,.4-2.7l-11.3-35.8c-.4-1.3-1.6-2.1-2.9-2.1h0Z"/></g><g><path class="f" d="M162.3,110.9c-.8,0-1.5-.7-1.5-1.5v-27.5h-8.4c-.8,0-1.5-.7-1.5-1.5v-6.8c0-.8,.7-1.5,1.5-1.5h27.8c.8,0,1.5,.7,1.5,1.5v6.8c0,.8-.7,1.5-1.5,1.5h-8.4v27.5c0,.8-.7,1.5-1.5,1.5h-8.1Z"/><path class="d" d="M180.3,73.6v6.8h-9.9v29h-8.1v-29h-9.9v-6.8h27.8m0-3h-27.8c-1.7,0-3,1.3-3,3v6.8c0,1.7,1.3,3,3,3h6.9v26c0,1.7,1.3,3,3,3h8.1c1.7,0,3-1.3,3-3v-26h6.9c1.7,0,3-1.3,3-3v-6.8c0-1.7-1.3-3-3-3h0Z"/></g><g><path class="f" d="M202.2,110.9c-.7,0-1.3-.5-1.5-1.1l-1.9-7.4h-8.6l-1.9,7.4c-.2,.7-.8,1.1-1.5,1.1h-8.3c-.5,0-.9-.2-1.2-.6-.3-.4-.4-.9-.2-1.3l11.3-35.8c.2-.6,.8-1.1,1.4-1.1h9.7c.7,0,1.2,.4,1.4,1.1l11.3,35.8c.1,.5,0,1-.2,1.3-.3,.4-.7,.6-1.2,.6h-8.6Zm-5.8-17.8l-.4-1.4c-.5-1.9-1-3.9-1.5-6-.5,2.1-1,4.1-1.5,6l-.4,1.4h3.8Z"/><path class="d" d="M199.5,73.6l11.3,35.8h-8.6l-2.2-8.5h-10.9l-2.2,8.5h-8.3l11.3-35.8h9.7m-8.8,21h7.7l-.9-3.3c-1-3.6-2-7.8-2.9-11.6h-.2c-.9,3.8-1.8,8-2.8,11.6l-.9,3.3m8.8-24h-9.7c-1.3,0-2.5,.9-2.9,2.1l-11.3,35.8c-.3,.9-.1,1.9,.4,2.7s1.5,1.2,2.4,1.2h8.3c1.4,0,2.6-.9,2.9-2.2l1.6-6.3h6.3l1.6,6.3c.3,1.3,1.5,2.2,2.9,2.2h8.6c1,0,1.9-.5,2.4-1.2s.7-1.8,.4-2.7l-11.3-35.8c-.4-1.3-1.6-2.1-2.9-2.1h0Z"/></g><g><path class="f" d="M213.7,110.9c-.8,0-1.5-.7-1.5-1.5v-35.8c0-.8,.7-1.5,1.5-1.5h12.3c9.8,0,14.7,3.5,14.7,10.4s-1.2,5.8-3.2,7.6c3.2,1.7,4.9,4.8,4.9,8.8,0,7.4-5.9,12.1-15.5,12.1h-13.3Zm12.6-9.3c5.2,0,5.2-2.3,5.2-3.3s0-2.9-5.2-2.9h-3v6.3h3Zm-.7-15.2c4.2,0,4.2-2,4.2-2.8s0-2.3-4.1-2.3h-2.3v5.1h2.3Z"/><path class="d" d="M225.9,73.6c7.4,0,13.2,2,13.2,8.9s-1.8,6.6-4.7,7.7v.2c3.7,1,6.5,3.6,6.5,8.4,0,7.3-6.2,10.6-14,10.6h-13.3v-35.8h12.3m-4.2,14.4h3.8c3.9,0,5.7-1.7,5.7-4.3s-1.8-3.8-5.6-3.8h-3.8v8.1m0,15.2h4.5c4.4,0,6.7-1.6,6.7-4.8s-2.2-4.4-6.7-4.4h-4.5v9.3m4.2-32.6h-12.3c-1.7,0-3,1.3-3,3v35.8c0,1.7,1.3,3,3,3h13.3c10.5,0,17-5.2,17-13.6s-1.5-7-4.2-9.1c1.5-2,2.4-4.6,2.4-7.3,0-5.4-2.8-11.9-16.2-11.9h0Zm-1.2,12.3h.8c1.8,0,2.4,.3,2.6,.4,0,0,0,.2,0,.5,0,.5,0,1.3-2.7,1.3h-.8v-2.1h0Zm0,14.1h1.5c2.3,0,3.1,.4,3.4,.6,.1,0,.3,.2,.3,.9s0,1.8-3.7,1.8h-1.5v-3.3h0Z"/></g><g><path class="f" d="M265.4,110.9c-.7,0-1.3-.5-1.5-1.1l-1.9-7.4h-8.6l-1.9,7.4c-.2,.7-.8,1.1-1.5,1.1h-8.3c-.5,0-.9-.2-1.2-.6-.3-.4-.4-.9-.2-1.3l11.3-35.8c.2-.6,.8-1.1,1.4-1.1h9.7c.7,0,1.2,.4,1.4,1.1l11.3,35.8c.1,.5,0,1-.2,1.3-.3,.4-.7,.6-1.2,.6h-8.6Zm-5.8-17.8l-.4-1.4c-.5-1.9-1-3.9-1.5-6-.5,2.1-1,4.1-1.5,6l-.4,1.4h3.8Z"/><path class="d" d="M262.7,73.6l11.3,35.8h-8.6l-2.2-8.5h-10.9l-2.2,8.5h-8.3l11.3-35.8h9.7m-8.8,21h7.7l-.9-3.3c-1-3.6-2-7.8-2.9-11.6h-.2c-.9,3.8-1.8,8-2.8,11.6l-.9,3.3m8.8-24h-9.7c-1.3,0-2.5,.9-2.9,2.1l-11.3,35.8c-.3,.9-.1,1.9,.4,2.7s1.5,1.2,2.4,1.2h8.3c1.4,0,2.6-.9,2.9-2.2l1.6-6.3h6.3l1.6,6.3c.3,1.3,1.5,2.2,2.9,2.2h8.6c1,0,1.9-.5,2.4-1.2s.7-1.8,.4-2.7l-11.3-35.8c-.4-1.3-1.6-2.1-2.9-2.1h0Z"/></g><g><path class="f" d="M288.3,111.6c-5.3,0-10.5-2-14.3-5.6-.6-.5-.6-1.4-.1-2.1l4.7-5.6c.3-.3,.6-.5,1-.5,0,0,0,0,.1,0,.4,0,.7,.1,1,.4,2.4,2.1,5.4,3.4,7.8,3.4s3.5-.7,3.5-2-.8-1.5-3.8-2.7l-.4-.2-4.7-2c-5.2-2.1-8.1-6.2-8.1-11.1s6.1-12.2,14.3-12.2,9.3,1.9,12.6,5.1c.5,.5,.6,1.4,.1,2l-4.1,5.1c-.3,.4-.7,.6-1.2,.6s-.6-.1-.9-.3c-2.3-1.8-4.2-2.5-6.5-2.5s-3.1,.2-3.1,1.7,1.2,1.5,4,2.6l.5,.2,4.6,1.9c5.4,2.2,8,5.8,8,11.1s-5.2,12.6-15,12.6Z"/><path class="d" d="M289.2,72.9c4.1,0,8.4,1.6,11.5,4.7l-4.1,5.1c-2.4-1.8-4.6-2.8-7.4-2.8s-4.6,1.2-4.6,3.2,2.3,3,5.5,4.2l4.6,1.9c4.4,1.8,7.1,4.7,7.1,9.8s-5,11.1-13.5,11.1-9.6-1.8-13.3-5.2l4.7-5.6c2.5,2.2,5.9,3.7,8.8,3.7s5-1.3,5-3.5-2-3-5.2-4.3l-4.7-2c-3.7-1.5-7.2-4.6-7.2-9.8s5.3-10.7,12.8-10.7m0-3c-9,0-15.8,5.9-15.8,13.7s3.3,10.2,9.1,12.5l4.6,2,.5,.2c1,.4,2.4,1,2.9,1.4,0,0,0,0,0,0-.2,.1-.8,.4-2,.4-2.1,0-4.7-1.2-6.8-3-.5-.5-1.2-.7-2-.7,0,0-.2,0-.2,0-.8,0-1.5,.4-2.1,1.1l-4.7,5.6c-1,1.2-.9,3,.3,4.1,4.1,3.8,9.7,6,15.3,6,10.8,0,16.5-7.1,16.5-14.1s-3-10.1-9-12.5l-4.6-1.8-.5-.2c-1-.4-2.3-.9-2.9-1.3,.3,0,.7-.2,1.4-.2,2,0,3.6,.6,5.6,2.2,.5,.4,1.2,.6,1.8,.6s1.8-.4,2.3-1.1l4.1-5.1c1-1.2,.9-2.9-.2-4-3.6-3.5-8.5-5.6-13.6-5.6h0Z"/></g><g><path class="f" d="M307.4,110.9c-.8,0-1.5-.7-1.5-1.5v-35.8c0-.8,.7-1.5,1.5-1.5h22.5c.8,0,1.5,.7,1.5,1.5v6.8c0,.8-.7,1.5-1.5,1.5h-12.9v4.2h10.7c.8,0,1.5,.7,1.5,1.5v6.8c0,.8-.7,1.5-1.5,1.5h-10.7v5.3h13.4c.8,0,1.5,.7,1.5,1.5v6.8c0,.8-.7,1.5-1.5,1.5h-23Z"/><path class="d" d="M329.8,73.6v6.8h-14.4v7.2h12.2v6.8h-12.2v8.3h14.9v6.8h-23v-35.8h22.5m0-3h-22.5c-1.7,0-3,1.3-3,3v35.8c0,1.7,1.3,3,3,3h23c1.7,0,3-1.3,3-3v-6.8c0-1.7-1.3-3-3-3h-11.9v-2.3h9.2c1.7,0,3-1.3,3-3v-6.8c0-1.7-1.3-3-3-3h-9.2v-1.2h11.4c1.7,0,3-1.3,3-3v-6.8c0-1.7-1.3-3-3-3h0Z"/></g></g></g></svg>