<?xml version="1.0" encoding="utf-8"?>
<!-- Generator: Adobe Illustrator 26.5.3, SVG Export Plug-In . SVG Version: 6.00 Build 0)  -->
<svg version="1.1" id="Layer_1" xmlns="http://www.w3.org/2000/svg" xmlns:xlink="http://www.w3.org/1999/xlink" x="0px" y="0px"
	 viewBox="0 0 594.7 113" style="enable-background:new 0 0 594.7 113;" xml:space="preserve">
<style type="text/css">
	.st0{fill:#FFFFFF;}
	.st1{fill:#FF6C37;}
</style>
<circle class="st0" cx="56.2" cy="57.1" r="51.4"/>
<path class="st1" d="M124.2,98.5V13.6c0-1,0.4-2,1.2-2.6c0.9-0.7,2-1.1,3.1-1.1h23.9c7.1-0.3,14,2,19.4,6.6
	c4.9,4.4,7.3,11.3,7.3,20.8v1.1c0,9.5-2.5,16.4-7.4,20.8c-5.5,4.6-12.6,7-19.8,6.6h-17v32.7c0,0.6-0.1,1.1-0.4,1.6
	c-0.3,0.5-0.7,0.9-1.2,1.2c-1.1,0.7-2.4,1-3.7,1c-1.3,0-2.6-0.3-3.7-1c-0.5-0.3-0.9-0.7-1.2-1.1C124.4,99.6,124.2,99.1,124.2,98.5z
	 M134.8,56.9h17.2c2.3,0.2,4.5-0.2,6.7-1c2.1-0.8,4.1-2,5.7-3.5c3.2-3.7,4.7-8.6,4.3-13.5v-1.5c0.4-4.9-1.2-9.7-4.3-13.4
	c-1.6-1.6-3.6-2.7-5.7-3.5c-2.1-0.8-4.4-1.1-6.7-1h-17L134.8,56.9z"/>
<path class="st1" d="M190.3,75.5V37.4c0-9.5,2.5-16.4,7.4-20.8c11.7-8.8,27.9-8.8,39.6,0c5,4.4,7.4,11.4,7.5,20.8v38.1
	c0,9.5-2.5,16.5-7.5,20.8c-11.7,8.9-28,8.9-39.7,0C192.7,92,190.3,85,190.3,75.5z M200.9,75.5c0,12,5.5,17.9,16.6,18
	c2.3,0.1,4.5-0.2,6.6-1c2.1-0.8,4.1-2,5.7-3.5c3.2-3.7,4.7-8.6,4.4-13.5V37.4c0.2-2.4-0.1-4.8-0.9-7.2c-0.8-2.3-1.9-4.4-3.5-6.3
	c-3.3-3.1-7.8-4.8-12.4-4.5c-11,0-16.5,6-16.5,17.9V75.5z"/>
<path class="st1" d="M256.4,89.3c0-1.4,0.5-2.8,1.4-3.9c0.3-0.5,0.8-1,1.3-1.3c0.5-0.3,1.1-0.5,1.8-0.6c1.1,0.2,2.1,0.8,2.9,1.6
	c1.2,1,2.4,2.2,3.7,3.5c1.7,1.6,3.8,2.8,6,3.6c3,1.1,6.1,1.6,9.3,1.6c4.7,0.3,9.3-1.1,13-4c3.3-3,5-7.3,4.7-11.7
	c0.1-2.1-0.3-4.2-1-6.1c-0.7-1.9-1.9-3.7-3.3-5.2c-2.9-2.9-6.5-5.2-10.4-6.6c-4.1-1.5-8.1-3.1-12.3-4.9c-4.1-1.7-7.7-4.5-10.4-8
	c-3-4-4.5-8.9-4.3-13.9c-0.1-4,0.8-8,2.6-11.6c1.5-3.1,3.8-5.6,6.8-7.4c2.8-1.6,5.7-2.8,8.8-3.6c3.2-0.8,6.5-1.2,9.8-1.1
	c5.1,0,10.1,0.7,15,2.3c4.8,1.6,7.2,3.6,7.2,6.2c-0.1,1.4-0.5,2.7-1.3,3.8c-0.3,0.6-0.8,1.1-1.4,1.5c-0.6,0.4-1.4,0.6-2.1,0.6
	c-1.9-0.6-3.8-1.4-5.7-2.3c-3.7-1.6-7.7-2.5-11.8-2.4c-4.3-0.2-8.6,0.9-12.4,3.1c-3.3,2.2-5.1,6.1-4.8,10c-0.1,1.8,0.2,3.6,1,5.2
	c0.7,1.7,1.8,3.1,3.2,4.3c3.1,2.5,6.6,4.5,10.4,5.7c4.1,1.5,8.2,3.1,12.4,4.9c4.2,2,7.8,5.1,10.4,8.9c3,4.6,4.5,10.1,4.3,15.6
	c0,8.7-2.5,15.2-7.6,19.7c-5.6,4.6-12.8,7-20.1,6.6c-6.7,0.2-13.2-1.4-19-4.7C258.9,95.4,256.4,92.3,256.4,89.3z"/>
<path class="st1" d="M316.6,14.5c0-1.2,0.3-2.3,1-3.2c0.3-0.5,0.7-0.8,1.2-1.1c0.5-0.3,1-0.4,1.6-0.3h51.5c0.5,0,1.1,0.1,1.6,0.3
	c0.5,0.3,0.9,0.6,1.2,1.1c0.7,1,1,2.1,1,3.2c0,1.2-0.3,2.4-1,3.5c-0.3,0.5-0.7,0.9-1.2,1.1c-0.5,0.3-1,0.4-1.6,0.3h-20.2v79
	c0,0.6-0.1,1.1-0.4,1.6c-0.3,0.5-0.7,0.9-1.2,1.2c-1.1,0.7-2.4,1-3.7,1c-1.3,0-2.6-0.3-3.7-1c-0.5-0.3-0.9-0.7-1.2-1.2
	c-0.3-0.5-0.4-1.1-0.4-1.6v-79h-20.5c-0.6,0-1.1-0.1-1.6-0.3c-0.5-0.2-0.9-0.6-1.2-1.1C317,17,316.6,15.8,316.6,14.5z"/>
<path class="st1" d="M385.7,98.5V15.3c-0.2-1.2,0.1-2.4,0.8-3.4c0.7-1,1.8-1.7,3-1.9c0.6-0.1,1.1-0.1,1.7,0c3.4,0,6.2,2.2,8.5,6.7
	l19.8,38.1l20-38.1c2.4-4.5,5.2-6.7,8.5-6.7c2.5-0.4,4.8,1.3,5.2,3.8l0,0c0.1,0.4,0.1,0.9,0,1.3v83.2c0,0.6-0.1,1.1-0.4,1.6
	c-0.3,0.5-0.7,0.9-1.2,1.2c-1.1,0.7-2.4,1-3.7,1c-1.3,0-2.6-0.4-3.7-1c-0.5-0.3-0.9-0.7-1.2-1.2c-0.3-0.5-0.4-1-0.4-1.6V32.1
	l-19,35.9c-0.3,0.9-0.9,1.7-1.6,2.2c-1.4,1.2-3.5,1.2-5,0c-0.7-0.6-1.2-1.3-1.5-2.2l-19.1-36.4v66.8c0,0.6-0.1,1.1-0.4,1.6
	c-0.3,0.5-0.7,0.9-1.1,1.2c-1.1,0.7-2.3,1.1-3.6,1.2c-1.3,0.1-2.6-0.3-3.7-1c-0.6-0.3-1-0.7-1.4-1.2
	C385.9,99.7,385.7,99.1,385.7,98.5z"/>
<path class="st1" d="M463.6,97.9c0-0.4,0.1-0.7,0.2-1l26-83.2c0.8-2.4,2.9-3.7,6.4-3.7s5.7,1.2,6.4,3.7l26,83.7c0,0.2,0,0.3,0,0.5
	c0,0.1,0,0.2,0,0.4c0,0.7-0.2,1.3-0.6,1.8c-0.4,0.5-0.9,1-1.5,1.3c-1.4,0.9-3,1.3-4.6,1.2c-0.8,0.1-1.6-0.1-2.3-0.5
	c-0.7-0.4-1.2-1.1-1.5-1.9l-5.5-18.5h-33.3l-5.5,18.5c-0.2,0.8-0.8,1.5-1.5,1.9c-0.7,0.5-1.5,0.7-2.4,0.5c-1.5,0-3-0.4-4.3-1.3
	c-0.6-0.3-1.2-0.8-1.5-1.4C463.7,99.4,463.5,98.6,463.6,97.9z M481.9,72.6h28.3L496,25.3L481.9,72.6z"/>
<path class="st1" d="M539.2,98.5V13.6c0-2.4,1.7-3.7,5.2-3.7c1.6,0,3.2,0.5,4.5,1.6c1.5,1.5,2.7,3.3,3.6,5.2L584,78.4V13.6
	c0-0.6,0.1-1.1,0.4-1.6c0.3-0.5,0.7-0.9,1.1-1.1c1.1-0.6,2.4-0.9,3.7-0.9c1.3,0,2.6,0.3,3.7,0.9c0.5,0.3,0.9,0.7,1.2,1.1
	c0.3,0.5,0.4,1,0.4,1.6v84.9c0,0.6-0.1,1.1-0.4,1.6c-0.3,0.5-0.7,0.9-1.2,1.2c-1.1,0.7-2.4,1.1-3.7,1c-3-0.1-5.6-2-6.7-4.8
	l-32.8-63.6v64.6c0,1.1-0.6,2.2-1.6,2.8c-2.3,1.3-5.2,1.3-7.5,0c-0.5-0.3-0.9-0.7-1.2-1.2C539.4,99.6,539.2,99,539.2,98.5z"/>
<path class="st1" d="M88.8,28.3c-0.1,0-0.1,0.1-0.2,0.2c-0.1,0.1-0.1,0.1-0.1,0.2c0,0.1,0,0.2,0,0.2c0,0.1,0,0.2,0.1,0.2
	c0.2,0.3,0.2,0.7,0.2,1.1c0,0.4-0.2,0.7-0.4,1c-0.1,0.1-0.2,0.3-0.1,0.5c0,0.2,0.1,0.3,0.2,0.4c0.1,0.1,0.3,0.2,0.5,0.2
	c0.2,0,0.3-0.1,0.4-0.2c0.4-0.5,0.7-1.1,0.7-1.7c0.1-0.6,0-1.3-0.3-1.8c-0.1-0.2-0.2-0.3-0.4-0.3C89.2,28.2,89,28.2,88.8,28.3z"/>
<path class="st1" d="M63.6,0.5c-31-3.9-59.2,18-63.2,48.9s18,59.2,48.9,63.2c30.9,3.9,59.2-17.9,63.2-48.9
	C116.5,32.7,94.6,4.4,63.6,0.5z M75.3,35.7c-1.1,0-2.1,0.4-2.8,1.2l-21,21L47,53.4C67.7,32.8,71.4,32.6,75.3,35.7z M52.3,58.6
	l20.9-20.9c1.1-1.1,3-1.1,4.1,0c0.3,0.3,0.5,0.6,0.7,1c0.1,0.4,0.2,0.8,0.2,1.2c0,0.4-0.1,0.8-0.3,1.1c-0.2,0.4-0.4,0.7-0.7,1
	L55.1,61.4L52.3,58.6z M53.9,61.9L48.7,63c-0.1,0-0.1,0-0.2,0c-0.1,0-0.1-0.1-0.1-0.1c0-0.1,0-0.1,0-0.2c0-0.1,0-0.1,0.1-0.2l3-3
	L53.9,61.9z M40.7,59.7l5.5-5.5l4.2,4.1l-9.3,2c-0.1,0-0.2,0-0.2,0c-0.1,0-0.1-0.1-0.2-0.2c0-0.1,0-0.1,0-0.2
	C40.6,59.8,40.6,59.8,40.7,59.7z M23.5,88.2c-0.1,0-0.1,0-0.2-0.1c-0.1,0-0.1-0.1-0.1-0.2c0-0.1,0-0.1,0-0.2c0-0.1,0-0.1,0.1-0.2
	l4.5-4.5l5.8,5.8L23.5,88.2z M34.9,82.3c-0.2,0.1-0.4,0.3-0.5,0.5c-0.1,0.2-0.1,0.5-0.1,0.7l1,4.1c0,0.1,0,0.2,0,0.4
	c0,0.1-0.1,0.2-0.2,0.3c-0.1,0.1-0.2,0.1-0.4,0.1c-0.1,0-0.2-0.1-0.3-0.2l-5.8-5.8l17.7-17.7l8.6-1.8l4.1,4.1
	C53,72.1,45,77.3,34.9,82.3L34.9,82.3z M59.8,66.2l-4-4L78,42.8c0.2-0.2,0.4-0.4,0.6-0.6C77.9,48.5,69,57.5,59.8,66.2L59.8,66.2z
	 M77,35.7c-3.4-3.3-3.4-8.8-0.1-12.1c3.2-3.2,8.3-3.4,11.7-0.5L81,30.7c0,0.1-0.1,0.1-0.1,0.2c-0.1,0.1-0.1,0.3,0,0.4
	c0,0.1,0.1,0.1,0.1,0.2l5.9,5.9C83.6,39,79.7,38.3,77,35.7L77,35.7z M89.2,35.7c-0.4,0.4-0.8,0.7-1.3,1l-5.7-5.6l7.2-7.2
	C92.6,27.3,92.4,32.5,89.2,35.7L89.2,35.7z"/>
</svg>
