<?xml version="1.0" encoding="UTF-8"?><svg id="b" xmlns="http://www.w3.org/2000/svg" viewBox="0 0 195.2 30.9"><defs><style>.d,.e,.f{fill:#fff;}.g{fill:#417ba2;}.h,.i{stroke-linejoin:round;}.h,.i,.e,.f,.j{stroke:#fff;}.h,.i,.j{fill:none;stroke-width:.9px;}.h,.j{stroke-linecap:round;}.k{stroke:#231f20;stroke-width:2.6px;}.k,.l{fill:#231f20;}.e{stroke-width:.3px;}.m{fill:#367faf;}.f{stroke-width:.1px;}.j{stroke-linejoin:bevel;}</style></defs><g id="c"><g><g><path class="l" d="M33.3,22.8c-.1,0-.2-.1-.2-.2V3.7c0-.1,.1-.2,.2-.2h11.2c2,0,3.6,.4,4.7,1.4,1.1,1,1.7,2.4,1.7,4.2s-.6,3.2-1.9,4.2c-1.2,1-3,1.5-5.1,1.5h-8.1v7.8c0,0,0,.1,0,.2,0,0-.1,0-.2,0h-2.3Zm10.1-10c3.2,0,4.7-1.2,4.7-3.6s-1.4-3.7-4.3-3.7h-8v7.4s7.6,0,7.6,0Z"/><path class="d" d="M44.5,3.6c1.9,0,3.4,.5,4.5,1.4h0c1.1,1,1.6,2.3,1.6,4s-.6,3-1.8,4c-1.2,1-2.8,1.4-4.9,1.4h-8.3v8s-2.2,0-2.2,0V3.7h11.2m-9,9.3h7.8c3.3,0,5-1.3,5-3.9s-1.5-4-4.5-4h-8.3v7.9M44.5,3.1s0,0,0,0h-11.2c-.3,0-.5,.3-.5,.6V22.5c0,.3,.2,.5,.5,.5h2.3c.1,0,.3,0,.4-.1,0,0,.1-.2,.1-.4v-7.5s7.8,0,7.8,0c2.2,0,4-.5,5.3-1.5,1.3-1.1,2-2.5,2-4.4s-.6-3.3-1.7-4.3c0,0,0,0,0,0-1.2-1-2.8-1.6-4.8-1.6h0Zm-8.5,2.5h7.8c2.8,0,4,1.1,4,3.5s-.5,3.4-4.4,3.4c0,0,0,0,0,0h-7.3V5.7h0Z"/></g><g><path class="l" d="M57.9,23.2c-1.3,0-2.4-.2-3.4-.5-1-.3-1.9-.8-2.6-1.5-1.3-1.2-2-2.9-2-4.9s.7-3.7,2-4.9c1.4-1.3,3.5-2,6.1-2s4.9,.7,6.3,1.9c1.3,1.2,2,2.8,2,4.9s-.7,3.7-2,4.9c-1.5,1.3-3.5,1.9-6.3,1.9Zm0-11.9c-1.7,0-3.1,.5-4.1,1.4-.5,.4-.8,1-1.1,1.6-.2,.6-.4,1.3-.4,2.1,0,1.6,.5,2.8,1.4,3.7,1,.9,2.3,1.4,4.1,1.4s3.5-.5,4.5-1.4c.4-.4,.8-.9,1-1.4,0,0,0,0,0,0,.2-.6,.3-1.3,.3-2.1,0-3.4-1.9-5-5.8-5Z"/><path class="d" d="M57.9,9.8c2.7,0,4.7,.6,6.1,1.9h0c1.3,1.2,1.9,2.7,1.9,4.8s-.6,3.6-1.9,4.7c-1.4,1.2-3.4,1.9-6.1,1.9s-2.4-.2-3.4-.4c-1-.3-1.8-.8-2.5-1.4-1.3-1.2-1.9-2.8-1.9-4.7s.6-3.5,1.9-4.7c1.4-1.3,3.4-1.9,5.9-1.9m0,11.9c2.1,0,3.6-.5,4.7-1.5,.5-.4,.9-1,1.1-1.6h0c.2-.6,.3-1.4,.3-2.2,0-3.5-2-5.3-6-5.3s-3.3,.5-4.3,1.4c-.5,.5-.9,1-1.1,1.6-.3,.6-.4,1.4-.4,2.2,0,1.6,.5,2.9,1.5,3.9,1,1,2.4,1.4,4.3,1.4m0-12.4c-2.7,0-4.8,.7-6.3,2.1-1.4,1.3-2,3-2,5.1s.7,3.8,2.1,5.1c.8,.7,1.7,1.2,2.7,1.5,1,.3,2.2,.5,3.5,.5,2.8,0,5-.6,6.5-2,1.4-1.2,2.1-2.9,2.1-5.1s-.7-3.9-2-5.1c0,0,0,0,0,0-1.5-1.3-3.6-2-6.5-2h0Zm0,11.9c-1.7,0-3-.4-4-1.3-.9-.9-1.4-2-1.4-3.5s.1-1.5,.4-2c.2-.6,.6-1.1,1-1.5,.9-.9,2.3-1.3,4-1.3,3.8,0,5.5,1.5,5.5,4.8s-.1,1.5-.3,2c0,0,0,0,0,.1-.2,.5-.5,.9-.9,1.3-.9,.9-2.4,1.4-4.3,1.4h0Z"/></g><g><path class="l" d="M81.1,19.4c-.1,0-.2-.1-.2-.2h0c0-.2,.1-.3,.2-.3h0c.1,0,.2,.1,.2,.2s0,0,0,0c0,.1-.1,.2-.3,.2h0Z"/><path class="d" d="M81.2,19.1s0,0,0,0h0m0,0h0s0,0,0,0c0,0,0,0,0,0m0-.5c-.3,0-.5,.2-.5,.4,0,0,0,0,0,0,0,0,0,0,0,0,0,.3,.2,.5,.5,.5,0,0,0,0,0,0,.3,0,.5-.2,.5-.5,0,0,0,0,0,0,0,0,0,0,0,0,0-.3-.2-.5-.5-.5,0,0,0,0,0,0h0Zm0,1h0Z"/></g><g><path class="l" d="M74.3,23.2c-1.4,0-2.6,0-3.6-.3-1-.2-1.8-.5-2.4-.9-.5-.3-.9-.8-1.2-1.3-.3-.5-.5-1.2-.6-2,0,0,0-.1,0-.2s.1,0,.2,0c0,0,2.1,0,2.1,0,0,0,.1,0,.2,0,0,0,0,.1,0,.2,0,.9,.3,1.6,1,2,.8,.5,2.1,.8,4.1,.8,3,0,4.5-.7,4.5-2.1s-.5-1.4-1.4-1.7c-.1,0-.8-.1-3.8-.5-2.4-.3-3.9-.6-4.5-.8-1.4-.5-2-1.5-2-2.9,0-1.3,.7-2.5,1.8-3.1,.6-.3,1.3-.5,2.1-.6,.8-.1,1.8-.2,2.9-.2,4.5,0,6.8,1.5,6.8,4.4s-.1,.2-.2,.2h-2c-.1,0-.2-.1-.2-.2,0-1.8-1.4-2.6-4.4-2.6s-2.7,.2-3.4,.6c-.7,.4-1,.9-1,1.6s.5,1.1,1.4,1.4c.6,.2,2,.4,4.1,.6,2,.2,3.3,.4,4.1,.8,1.5,.6,2.2,1.6,2.2,3,0,2.7-2.4,4-7.1,4Z"/><path class="d" d="M74,9.8c4.4,0,6.6,1.4,6.6,4.1h-2c0-1.9-1.5-2.9-4.6-2.9s-2.7,.2-3.5,.6c-.8,.4-1.2,1-1.2,1.8s.5,1.3,1.6,1.6c.6,.2,2,.4,4.2,.6,2,.2,3.3,.4,4,.8,1.4,.5,2.1,1.5,2.1,2.7,0,2.5-2.3,3.8-6.8,3.8s-2.6,0-3.5-.3c-1-.2-1.7-.5-2.3-.9-.5-.3-.8-.7-1.1-1.2-.3-.5-.4-1.1-.5-1.9h2.1c0,1,.4,1.7,1.1,2.2,.8,.6,2.2,.9,4.2,.9,3.2,0,4.8-.8,4.8-2.4s-.5-1.6-1.6-1.9c-.2,0-1.5-.2-3.9-.5-2.4-.3-3.8-.6-4.4-.8-1.3-.5-1.9-1.4-1.9-2.7,0-1.2,.6-2.3,1.7-2.8,.6-.3,1.2-.5,2.1-.6,.8-.1,1.8-.2,2.9-.2m0-.5c-1.1,0-2.1,0-3,.2-.9,.1-1.6,.4-2.2,.6-1.3,.6-2,1.9-2,3.3,0,1.5,.8,2.6,2.2,3.1,.6,.2,2.1,.5,4.5,.8,3.1,.4,3.7,.5,3.8,.5,1.1,.4,1.2,1,1.2,1.4,0,1.3-1.4,1.9-4.3,1.9s-3.2-.3-3.9-.8c-.6-.4-.9-1-.9-1.8s0-.3-.1-.4c0,0-.2-.1-.4-.1s0,0,0,0h-2.1c-.1,0-.3,0-.4,.2,0,.1-.1,.2-.1,.4,0,.8,.3,1.5,.6,2.1,.3,.5,.7,1,1.2,1.4,.7,.4,1.5,.8,2.5,1,1,.2,2.2,.3,3.6,.3,4.8,0,7.3-1.4,7.3-4.3,0-1-.4-2.4-2.4-3.2-.8-.3-2.1-.6-4.2-.8-2.1-.2-3.5-.4-4.1-.6-1.1-.3-1.2-.8-1.2-1.2,0-.6,.3-1,.9-1.4,.7-.4,1.8-.5,3.3-.5,4.1,0,4.1,1.8,4.1,2.4s.2,.5,.5,.5h2c.3,0,.5-.2,.5-.5,0-3.1-2.4-4.6-7.1-4.6h0Z"/></g><g><path class="l" d="M88.1,23c-1.4,0-2.5-.2-3.1-.6-.7-.4-1-1.2-1-2.3V11.7h-2.3c-.1,0-.2-.1-.2-.2v-1.3c0-.1,.1-.2,.2-.2h2.2v-3.8c0-.1,.1-.2,.3-.2h1.9c.1,0,.2,.1,.2,.2v3.8h3.1c.1,0,.2,.1,.2,.2v1.3c0,0,0,.1,0,.2,0,0-.1,0-.2,0s-3.1,0-3.1,0v8.1c0,.6,.1,.9,.4,1.1,.3,.2,.8,.3,1.6,.3,0,0,.1,0,.1,0,0,0,.1,0,.2,0,.1,0,.4,0,.6-.1,0,0,0,0,0,0,0,0,.1,0,.2,0,0,0,0,.1,0,.2v1.3c0,.1,0,.2-.2,.3h-.9c0,.1-.6,.2-.6,.2Z"/><path class="d" d="M86.1,6.1v4.1h3.4v1.3h-3.4s0,8.3,0,8.3c0,.6,.2,1.1,.5,1.3,.3,.2,.9,.4,1.8,.4,0,0,0,0,.1,0,0,0,.2,0,.3,0,.2,0,.4,0,.7-.2v1.3s0,0,0,0h-.9c0,.1-.5,.2-.5,.2-1.4,0-2.4-.2-3-.6-.6-.4-.9-1.1-.9-2.1V11.4h-2.5v-1.3h2.5V6.1h1.9m0-.5h-1.9c-.3,0-.5,.2-.5,.5v3.6h-2c-.3,0-.5,.2-.5,.5v1.3c0,.3,.2,.5,.5,.5h2v8.1c0,1.2,.4,2,1.1,2.5,.7,.5,1.8,.7,3.3,.7h.6s.9-.2,.9-.2c.3,0,.5-.3,.4-.5v-1.3c0-.2,0-.3-.2-.4,0,0-.2-.1-.3-.1s0,0-.1,0c-.3,0-.5,.1-.6,.1,0,0-.1,0-.2,0s0,0,0,0c0,0,0,0,0,0-.9,0-1.3-.1-1.5-.3,0,0-.3-.2-.3-.9v-7.9h2.9s0,0,0,0c.1,0,.3,0,.4-.1,0,0,.1-.2,.1-.4v-1.3c0-.3-.2-.5-.5-.5h-2.9v-3.6c0-.3-.2-.5-.5-.5h0Z"/></g><g><path class="l" d="M98.7,28c-2.7,0-4.6-.4-5.7-1.1-1-.7-1.6-1.7-1.9-3.2,0,0,0-.1,0-.2,0,0,.1,0,.2,0h2c.1,0,.2,0,.2,.2,.2,.9,.6,1.6,1.1,1.9,.7,.5,2.1,.7,3.9,.7s3.4-.4,4.2-1.1c.8-.7,1.2-1.7,1.2-3.1v-1.5c-1.3,1.3-3.3,2-5.9,2s-4.4-.6-5.8-1.7c-.6-.6-1.1-1.3-1.5-2.1-.3-.8-.5-1.7-.5-2.7,0-2.1,.7-3.7,2-4.8,1.4-1.2,3.3-1.8,5.9-1.8s3.2,.3,4.3,.9c.3,.2,.8,.6,1.5,1.3v-1.5c0-.1,.1-.2,.3-.2h1.9s0,0,0,0c0,0,0,0,.1,0,0,0,.1,.1,.1,.2v12c0,3.9-2.6,5.9-7.8,5.9Zm-.2-16.6c-1.8,0-3.2,.4-4.2,1.3-1,.8-1.5,2-1.5,3.4,0,3.2,1.9,4.7,5.8,4.7s1.6-.1,2.2-.3c.6-.2,1.2-.5,1.7-.9,0,0,0,0,0,0,.9-.8,1.4-2,1.4-3.5s-.5-2.5-1.4-3.4c-.9-.8-2.3-1.3-4.1-1.3Z"/><path class="d" d="M98.3,9.8c1.7,0,3.1,.3,4.2,.9,.4,.2,1,.8,1.8,1.6v-2.1h2s0,12,0,12c0,3.7-2.5,5.6-7.6,5.6s-4.5-.4-5.6-1.1c-1-.6-1.5-1.6-1.8-3h2c.2,1,.6,1.7,1.3,2.1,.8,.5,2.1,.8,4,.8s3.5-.4,4.4-1.2,1.3-1.9,1.3-3.3v-2.2c-1.2,1.6-3.3,2.4-6.2,2.4s-4.3-.6-5.6-1.7c-.6-.5-1.1-1.2-1.4-2-.3-.8-.5-1.7-.5-2.6,0-2,.6-3.5,1.9-4.6,1.3-1.1,3.2-1.7,5.7-1.7m.4,11.3c.9,0,1.7-.1,2.3-.3,.7-.2,1.3-.6,1.8-1h0c1-.9,1.5-2.1,1.5-3.7s-.5-2.7-1.5-3.5c-1-.9-2.4-1.3-4.3-1.3s-3.3,.4-4.4,1.3c-1,.9-1.5,2.1-1.5,3.6,0,3.3,2,5,6,5m-.4-11.8c-2.6,0-4.7,.6-6.1,1.8-1.4,1.1-2.1,2.8-2.1,4.9s.2,2,.5,2.8c.3,.8,.9,1.6,1.5,2.2,1.4,1.2,3.4,1.8,5.9,1.8s4.3-.6,5.7-1.7v1c0,1.3-.4,2.2-1.2,2.9-.8,.7-2.1,1-4,1s-3.1-.2-3.8-.7c-.5-.3-.8-.9-1-1.8,0-.2-.3-.4-.5-.4h-2c-.1,0-.3,0-.4,.2,0,.1-.1,.3-.1,.4,.2,1.5,.9,2.7,2,3.4,1.2,.8,3.1,1.2,5.9,1.2,5.3,0,8.1-2.1,8.1-6.1V10.2c0-.2,0-.3-.2-.4,0,0-.2,0-.3,0s0,0-.1,0h-1.8c-.3,0-.5,.2-.5,.5v.9c-.5-.4-.8-.7-1.1-.9-1.2-.6-2.7-1-4.5-1h0Zm.4,11.3c-3.8,0-5.5-1.4-5.5-4.5s.4-2.5,1.4-3.3c.9-.8,2.3-1.2,4-1.2s3.1,.4,4,1.2c.9,.8,1.3,1.8,1.3,3.2s-.4,2.5-1.3,3.3c0,0,0,0,0,0-.5,.4-1,.7-1.6,.9-.6,.2-1.4,.3-2.2,.3h0Z"/></g><g><path class="l" d="M108.4,22.8c-.1,0-.2-.1-.2-.2V10.2c0,0,0-.1,0-.2,0,0,.1,0,.2,0s1.9,0,1.9,0c.1,0,.2,.1,.2,.2v1.3c.3-.5,.7-1,1.3-1.3,.8-.5,2-.7,3.6-.7h1.3c.1,0,.2,.1,.2,.2v1.7c0,0,0,.2-.1,.2,0,0,0,0-.1,0s0,0,0,0c-.5,0-1-.1-1.6-.1-3,0-4.5,1.6-4.5,5v6c0,.1-.1,.2-.2,.2h-1.9Z"/><path class="d" d="M116.6,9.8v1.7h0c-.5,0-1.1-.1-1.6-.1-3.2,0-4.8,1.7-4.8,5.2v6h-1.9V10.2s1.9,0,1.9,0v2.2h.1c.3-.9,.8-1.5,1.5-2,.8-.5,1.9-.7,3.4-.7h1.3m0-.5h-1.3c-1.7,0-2.9,.2-3.7,.7-.3,.2-.6,.5-.9,.8v-.6c0-.3-.2-.5-.5-.5h-1.9s0,0,0,0c-.1,0-.3,0-.4,.1,0,0-.1,.2-.1,.4v12.4c0,.3,.2,.5,.5,.5h1.9c.3,0,.5-.2,.5-.5v-6c0-3.2,1.4-4.7,4.3-4.7,.5,0,1,0,1.5,.1,0,0,0,0,0,0,0,0,.1,0,.2,0,.2,0,.3-.3,.3-.5v-1.7c0-.3-.2-.5-.5-.5h0Z"/></g><g><path class="l" d="M124.5,23.2c-2.7,0-4.8-.7-6.2-2-1.4-1.2-2.1-2.9-2.1-4.9s.7-3.7,2.2-4.9c1.4-1.2,3.4-1.8,6-1.8s2.6,.2,3.6,.5c1,.3,1.9,.8,2.6,1.6,0,0,0,0,0,0,1.2,1.2,1.8,2.9,1.8,5s-.1,.2-.2,.2h-13.5c0,1.2,.5,2.2,1.3,3,1,1,2.5,1.5,4.5,1.5s4.4-1,5.1-3c0-.1,.1-.2,.2-.2h2.1c0,0,.2,0,.2,0,0,0,0,.1,0,.2-.3,1.3-1.1,2.4-2.3,3.2-.7,.5-1.5,.8-2.4,1-.9,.2-1.9,.4-2.9,.4Zm5.4-7.9c0-1-.6-1.9-1.5-2.8-1-.9-2.4-1.3-4-1.3s-1.6,.1-2.3,.3c-.7,.2-1.3,.5-1.8,1-.7,.7-1.2,1.6-1.5,2.8h11.2Z"/><path class="d" d="M124.3,9.8c1.3,0,2.5,.2,3.5,.5,.9,.3,1.8,.8,2.5,1.5h0c1.2,1.2,1.8,2.8,1.8,4.9h-13.7c0,1.4,.5,2.5,1.4,3.4,1.1,1,2.6,1.6,4.7,1.6,2.8,0,4.6-1.1,5.3-3.2h2.1c-.3,1.2-1,2.2-2.2,3.1-.7,.4-1.4,.8-2.3,1-.9,.2-1.8,.4-2.9,.4-2.6,0-4.6-.6-6.1-1.9-1.3-1.2-2-2.8-2-4.8s.7-3.6,2.1-4.7c1.4-1.2,3.3-1.7,5.8-1.7m-5.9,5.8h11.7c0-1.2-.6-2.3-1.6-3.2-1.1-.9-2.5-1.4-4.2-1.4s-1.7,.1-2.4,.3c-.7,.2-1.3,.6-1.9,1-.8,.8-1.4,1.9-1.6,3.3h0m13.5,2.9h0m-7.6-9.2c-2.6,0-4.7,.6-6.1,1.9-1.5,1.3-2.2,3-2.2,5.1s.7,3.9,2.2,5.1c1.5,1.4,3.7,2.1,6.4,2.1s2.1-.1,3-.4c.9-.2,1.7-.6,2.5-1.1,1.3-.9,2.1-2,2.4-3.3,0,0,0-.1,0-.2,0-.3-.2-.5-.5-.5h-2.1c-.2,0-.4,.1-.5,.3-.6,1.9-2.2,2.8-4.9,2.8s-3.3-.5-4.3-1.4c-.7-.7-1.1-1.5-1.2-2.6h13.2c.3,0,.5-.2,.5-.5,0-2.2-.6-3.9-1.9-5.2,0,0,0,0,0,0-.8-.7-1.7-1.3-2.7-1.6-1-.3-2.3-.5-3.7-.5h0Zm-5.3,5.8c.3-1,.7-1.8,1.4-2.4,.5-.4,1.1-.7,1.7-.9,.6-.2,1.4-.3,2.2-.3,1.6,0,2.9,.4,3.9,1.3,.8,.7,1.3,1.5,1.4,2.3h-10.6Z"/></g></g><g><path class="m" d="M143.7,23.2c-3.6,0-6.3-.7-7.9-2-1.4-1.1-2.1-2.7-2.1-5s.1-.2,.2-.2h2.4c.1,0,.2,.1,.2,.2,0,3.3,2.3,4.9,7.1,4.9s4-.3,5-1c.8-.6,1.2-1.5,1.2-2.7s-.5-2-1.7-2.5c-.6-.3-2.2-.6-5-1.1-3.4-.5-5.6-1-6.6-1.6-1.5-.8-2.3-2.2-2.3-4.1s.7-3.1,2-4c1.4-.9,3.7-1.4,6.9-1.4,5.9,0,9,2,9,6s-.1,.2-.2,.2h-2.4c-.1,0-.2-.1-.2-.2,0-2.7-2-4.1-6.2-4.1s-3.7,.3-4.6,.8c-.9,.6-1.3,1.4-1.3,2.5s.5,1.9,1.7,2.4c.6,.3,2.5,.7,5.7,1.2,3,.5,5,1,6.1,1.6,1.5,.8,2.3,2.1,2.3,4s0,0,0,0c0,3.8-3.1,5.7-9.1,5.7Z"/><path class="d" d="M143.2,3.2c5.8,0,8.7,1.9,8.7,5.8h-2.4c0-2.9-2.2-4.3-6.5-4.3s-3.7,.3-4.7,.9c-.9,.6-1.4,1.5-1.4,2.7s.6,2.1,1.8,2.7c.6,.3,2.5,.7,5.7,1.2,3,.4,5,1,6,1.6,1.4,.7,2.1,2,2.1,3.8h0c0,3.7-3,5.5-8.9,5.5s-6.1-.6-7.8-1.9c-1.4-1-2-2.6-2-4.8h2.4c0,3.4,2.5,5.1,7.4,5.1s4.1-.4,5.1-1c.9-.6,1.4-1.6,1.4-2.9s-.6-2.2-1.8-2.8c-.7-.3-2.4-.6-5-1.1-3.4-.5-5.5-1-6.5-1.5-1.4-.8-2.2-2-2.2-3.8s.6-2.9,1.8-3.8c1.3-.9,3.6-1.4,6.8-1.4m0-.5c-3.3,0-5.7,.5-7.1,1.4-1.4,.9-2.1,2.3-2.1,4.2s.8,3.4,2.4,4.3c1.1,.5,3.2,1.1,6.7,1.6,1.7,.3,4.1,.7,4.9,1,1,.4,1.5,1.2,1.5,2.3s-.4,2-1.1,2.5c-1,.6-2.6,1-4.8,1-4.6,0-6.9-1.5-6.9-4.6s-.2-.5-.5-.5h-2.4c-.3,0-.5,.2-.5,.5,0,2.3,.7,4,2.2,5.2,1.7,1.3,4.4,2,8.1,2,6.2,0,9.3-2,9.4-5.9,0,0,0,0,0-.1,0-2-.8-3.4-2.4-4.2-1.1-.6-3.1-1.1-6.2-1.6-3.9-.6-5.2-1-5.6-1.2-1-.4-1.5-1.1-1.5-2.2s.4-1.8,1.2-2.3c.9-.5,2.4-.8,4.5-.8,4,0,6,1.3,6,3.8s.2,.5,.5,.5h2.4c.3,0,.5-.2,.5-.5,0-4.2-3.1-6.3-9.2-6.3h0Z"/></g><g><path class="m" d="M175.1,24.5s0,0-.1,0l-3.4-2.4c-.7,.4-1.6,.7-2.7,.8-1.1,.2-2.4,.3-3.8,.3-3.7,0-6.7-.9-8.8-2.8-2.1-1.9-3.2-4.3-3.2-7.4s1.1-5.6,3.2-7.4c2.1-1.8,5.1-2.7,8.8-2.7s3.6,.2,5.1,.7c1.5,.5,2.8,1.2,3.8,2.2,2,1.8,3,4.3,3,7.2s-.3,3.2-.9,4.4c-.6,1.2-1.4,2.2-2.5,3.1l3.1,2.1c0,0,.1,.1,.1,.2,0,0,0,.2,0,.2l-1.5,1.4s-.1,0-.2,0Zm-10-19.6c-2.8,0-5.1,.7-6.7,2.2-1.7,1.4-2.5,3.4-2.5,6s.8,4.4,2.5,5.9c1.7,1.5,3.9,2.2,6.7,2.2s2.6-.2,3.7-.5c1.1-.3,2.1-.9,2.9-1.6,1.7-1.5,2.5-3.5,2.5-6.1s-.2-2.4-.6-3.4c-.4-1-1-1.8-1.9-2.6-1.6-1.5-3.9-2.3-6.7-2.3Z"/><path class="d" d="M165.1,3.2c1.9,0,3.6,.2,5,.7s2.7,1.2,3.8,2.2c1.9,1.8,2.9,4.1,2.9,7.1s-.3,3.1-.9,4.3c-.6,1.2-1.5,2.3-2.7,3.2l3.4,2.3-1.5,1.3-3.5-2.4c-.7,.4-1.6,.7-2.7,.9-1.1,.2-2.3,.3-3.7,.3-3.7,0-6.6-.9-8.7-2.7-2.1-1.8-3.2-4.2-3.2-7.2s1-5.5,3.1-7.2c2.1-1.8,5-2.7,8.6-2.7m0,18.3c1.4,0,2.6-.2,3.8-.5,1.1-.3,2.1-.9,3-1.6h0c1.8-1.5,2.6-3.6,2.6-6.3s-.2-2.5-.6-3.5c-.4-1-1.1-1.9-1.9-2.6-1.7-1.6-3.9-2.3-6.8-2.3s-5.2,.7-6.9,2.2c-1.7,1.5-2.6,3.5-2.6,6.2s.9,4.6,2.6,6.1c1.7,1.5,4,2.3,6.9,2.3m0-18.8c-3.8,0-6.8,.9-9,2.8-2.2,1.9-3.3,4.4-3.3,7.6s1.1,5.6,3.3,7.6c2.2,1.9,5.2,2.9,9,2.9s2.7-.1,3.8-.3c1-.2,1.8-.4,2.6-.8l3.3,2.3c0,0,.2,0,.3,0s.2,0,.3-.1l1.5-1.3c.1-.1,.2-.3,.2-.4s0-.3-.2-.4l-2.8-1.9c1-.8,1.8-1.8,2.3-2.9,.6-1.3,.9-2.8,.9-4.5,0-3.1-1-5.5-3.1-7.4-1.1-1-2.4-1.8-3.9-2.3-1.5-.5-3.2-.7-5.2-.7h0Zm0,18.3c-2.8,0-4.9-.7-6.5-2.2-1.7-1.5-2.5-3.3-2.5-5.7s.8-4.4,2.4-5.8c1.6-1.4,3.8-2.1,6.6-2.1s5,.7,6.5,2.2c.8,.7,1.4,1.5,1.8,2.5,.4,.9,.6,2,.6,3.3,0,2.5-.8,4.4-2.4,5.9,0,0,0,0,0,0-.9,.7-1.8,1.2-2.9,1.5-1.1,.3-2.3,.5-3.6,.5h0Z"/></g><g><path class="m" d="M178.4,22.8c-.1,0-.2-.1-.2-.2V3.7c0-.1,.1-.2,.2-.2,0,0,2.2,0,2.2,0,0,0,.1,0,.2,0,0,0,0,.1,0,.2V20.7h13.8c0,0,.1,0,.2,0,0,0,0,.1,0,.2v1.6s0,0,0,.1c0,0-.1,.1-.2,.1h-16.3Z"/><path class="d" d="M180.6,3.6V21h14.1v1.6s0,0,0,0h-16.3V3.7h2.2m0-.5s0,0,0,0h-2.2c-.3,0-.5,.3-.5,.5V22.5c0,.3,.2,.5,.5,.5h16.3c.2,0,.4-.1,.4-.3,0,0,0-.1,0-.2v-1.6c0-.1,0-.3-.1-.4,0,0-.2-.1-.4-.1h-13.6V3.6c0-.1,0-.3-.1-.4,0,0-.2-.1-.4-.1h0Z"/></g><path class="k" d="M22.4,22.5c.2-1.6,.1-1.9,1.4-1.6h.3c.9,0,2.2-.1,2.9-.5,1.6-.7,2.5-1.9,.9-1.6-3.5,.7-3.7-.5-3.7-.5,3.7-5.5,5.2-12.4,3.9-14.1C24.5-.4,18.2,1.8,18.1,1.9h0c-.7-.1-1.5-.2-2.3-.2-1.6,0-2.8,.4-3.7,1.1C12,2.7,.8-1.9,1.3,8.5c.1,2.2,3.2,16.8,6.8,12.4,1.3-1.6,2.6-3,2.6-3,.6,.4,1.4,.6,2.2,.6h0c0,.2,0,.4,0,.6-.9,1.1-.7,1.2-2.5,1.6-1.9,.4-.8,1.1,0,1.3,.9,.2,2.9,.5,4.3-1.4v.2c.3,.3,.3,2.1,.3,3.4s.1,2.5,.4,3.2c.3,.7,.6,2.6,3.1,2,2.1-.4,3.7-1.1,3.8-7"/><path class="g" d="M27.9,18.8c-3.5,.7-3.7-.5-3.7-.5,3.7-5.5,5.2-12.4,3.9-14.1C24.5-.4,18.2,1.8,18.1,1.9h0c-.7-.1-1.5-.2-2.3-.2-1.6,0-2.8,.4-3.7,1.1C12,2.7,.8-1.9,1.3,8.5c.1,2.2,3.2,16.8,6.8,12.4,1.3-1.6,2.6-3,2.6-3,.6,.4,1.4,.6,2.2,.6h0c0,.1,0,.3,0,.6-.9,1.1-.7,1.2-2.5,1.6-1.9,.4-.8,1.1,0,1.3,.9,.2,2.9,.5,4.3-1.4v.2c.3,.3,.6,1.9,.5,3.4s0,2.5,.2,3.3c.3,.8,.6,2.6,3.1,2,2.1-.4,3.1-1.6,3.3-3.5,.1-1.4,.3-1.2,.4-2.4l.2-.6c.2-1.9,0-2.4,1.3-2.2h.3c.9,0,2.2-.1,2.9-.5,1.6-.7,2.5-1.9,.9-1.6h0Z"/><g><g><path class="h" d="M15,19.9c0,3.4,0,6.9,.4,7.7,.3,.8,1.1,2.5,3.5,1.9,2.1-.4,2.8-1.3,3.1-3.2l.8-6.1M12,2.7S.8-1.9,1.3,8.5c0,2.2,3.2,16.8,6.8,12.4,1.3-1.6,2.5-2.9,2.5-2.9M18.1,1.8c-.4,.1,6.2-2.4,10,2.4,1.3,1.7-.2,8.6-3.9,14.1"/><path class="j" d="M24.2,18.3s.2,1.2,3.7,.5c1.5-.3,.6,.9-.9,1.6-1.3,.6-4.1,.7-4.2,0-.1-2.1,1.5-1.5,1.4-2-.1-.5-.8-.9-1.3-2.1-.4-1-5.8-8.8,1.5-7.7,.3,0-1.9-6.9-8.7-7s-6.5,8.3-6.5,8.3"/></g><g><path class="i" d="M13.1,19.1c-.9,1.1-.7,1.2-2.5,1.6-1.9,.4-.8,1.1,0,1.3,.9,.2,2.9,.5,4.3-1.4,.4-.6,0-1.5-.6-1.8-.3-.1-.7-.3-1.1,.3h0Z"/><path class="h" d="M13,19c0-.6,.2-1.4,.5-2.2,.5-1.3,1.6-2.6,.7-6.7-.7-3.1-5.1-.6-5.1-.2s.2,2.1,0,4.1c-.4,2.6,1.6,4.7,3.9,4.5"/></g></g><g><path class="e" d="M12,9.8c0,.1,.3,.5,.6,.6s.7-.2,.7-.4-.3-.3-.6-.4-.7,0-.7,.2h0Z"/><path class="f" d="M23,9.6c0,.1-.3,.5-.6,.6s-.7-.2-.7-.4,.3-.3,.6-.3,.7,0,.7,.2h0Z"/></g><path class="h" d="M24.3,8.6c0,1.1-.2,1.9-.3,3,0,1.7,.8,3.7-.5,5.7"/></g></svg>