<?xml version="1.0" encoding="UTF-8"?><svg id="b" xmlns="http://www.w3.org/2000/svg" xmlns:xlink="http://www.w3.org/1999/xlink" viewBox="0 0 425.9 142.8"><defs><style>.g{fill:#fff;}.h{fill:#646464;}.i{fill:url(#f);isolation:isolate;opacity:.4;}.j{fill:url(#e);}.k{fill:url(#d);}</style><linearGradient id="d" x1="-251.5" y1="955.3" x2="-139.1" y2="858.7" gradientTransform="translate(139.3 552.8) scale(.6 -.6)" gradientUnits="userSpaceOnUse"><stop offset="0" stop-color="#5a9fd4"/><stop offset="1" stop-color="#306998"/></linearGradient><linearGradient id="e" x1="-97.1" y1="801.8" x2="-137.4" y2="858.6" gradientTransform="translate(139.3 552.8) scale(.6 -.6)" gradientUnits="userSpaceOnUse"><stop offset="0" stop-color="#ffd43b"/><stop offset="1" stop-color="#ffe873"/></linearGradient><radialGradient id="f" cx="1781.1" cy="590.2" fx="1781.1" fy="590.2" r="29" gradientTransform="translate(680.4 563.2) rotate(-90) scale(.2 -1.1)" gradientUnits="userSpaceOnUse"><stop offset="0" stop-color="#b8b8b8" stop-opacity=".5"/><stop offset="1" stop-color="#7f7f7f" stop-opacity="0"/></radialGradient></defs><g id="c"><g><path class="h" d="M131.8,120.4c-.3,0-.6,0-.8-.1l-8.9-3.2c-1-.4-1.7-1.3-1.7-2.4V44.6c0-.6,.2-1.1,.6-1.6,1.6-2,3.8-3.8,6.3-5.2,5.6-3.3,12.6-5,20.5-5.1h0c.3,0,.5,0,.8,.1,7.5,0,13.4,3.3,17.5,9.7,3.8,5.7,5.7,13,5.7,21.7s0,0,0,0c0,7.9-1.9,14.5-5.7,19.8-4.3,6.2-10.5,9.4-18.1,9.6-.2,0-.5,0-.8,0-4.2,0-8.5-1.1-12.8-3.2v27.4c0,.8-.4,1.6-1.1,2-.4,.3-.9,.5-1.4,.5Zm2.5-41.6c4.1,2.4,7.7,3.6,10.8,3.6s.5,0,.7,0c2.6-.2,10.7-.7,10.7-18.7s0-.1,0-.2c0-19.3-7.6-19.6-10.1-19.8-.3,0-.7,0-1,0-2.6,0-5.2,.5-7.6,1.4-1.8,.6-2.9,1.2-3.5,1.6v32.1Z"/><path class="g" d="M147.9,35.2h.1c.1,.1,.2,.1,.3,.1,6.8,0,12,2.8,15.7,8.5,3.5,5.3,5.3,12.1,5.3,20.4h0c0,7.4-1.7,13.5-5.2,18.4-3.9,5.5-9.3,8.4-16.2,8.5-.2,0-.5,0-.7,0-5,0-10.1-1.6-15.3-4.9v31.6l-8.9-3.2V44.6c1.5-1.8,3.3-3.3,5.6-4.6,5.3-3.1,11.8-4.7,19.3-4.8m-2.8,49.7c.3,0,.6,0,.8,0,8.7-.6,13.1-7.6,13.1-21.2h0c0-14.6-4.2-22-12.5-22.4-.4,0-.8,0-1.1,0-2.9,0-5.8,.5-8.5,1.6-2.5,.9-4.2,1.8-5.1,2.7v34.8c5,3.1,9.4,4.7,13.3,4.7m2.8-54.7s0,0,0,0c-8.4,0-15.8,1.9-21.8,5.4-2.8,1.6-5.2,3.6-7,5.8-.7,.9-1.1,2-1.1,3.2V114.8c0,2.1,1.3,4,3.3,4.7l8.9,3.2c.5,.2,1.1,.3,1.7,.3,1,0,2-.3,2.9-.9,1.3-.9,2.1-2.5,2.1-4.1v-23.6c3.5,1.3,6.9,1.9,10.3,1.9s.6,0,.9,0c8.5-.2,15.3-3.8,20.1-10.6,4-5.7,6.1-12.8,6.1-21.2,0,0,0,0,0-.1,0-9.2-2-17-6.1-23.1-4.4-6.8-11.1-10.6-19.2-10.8-.4,0-.8-.1-1.1-.1h0Zm-11,18c.5-.2,1-.4,1.8-.7,0,0,0,0,.1,0,2.2-.8,4.4-1.3,6.7-1.3,.3,0,.6,0,.9,0,1.9,0,7.6,.4,7.7,17.2,0,0,0,.2,0,.3,0,15.7-6.1,16.1-8.4,16.2-.1,0-.3,0-.5,0-2.4,0-5.1-.9-8.3-2.5v-29.2h0Z"/></g><g><path class="h" d="M194.6,120.2c-1.1,0-2.1-.8-2.4-1.9l-1.5-5.6c-.2-.7,0-1.4,.3-2,.4-.6,1-1,1.7-1.1,5.2-.7,8.9-1.4,10.9-2.1,3.7-1.2,6.2-3.1,7.5-5.5,.7-1.3,1.5-4.4,1.6-11.4-5.3,1.9-10.9,2.9-16.6,2.9s-9.4-1.6-13.2-4.7c-4.3-3.5-6.5-8-6.5-13.4V38.3c0-1.1,.7-2,1.7-2.4l8.9-3.1c.3,0,.5-.1,.8-.1,.5,0,1,.2,1.5,.5,.7,.5,1,1.2,1,2v37.3c0,3.2,1,5.6,3,7.3,2,1.7,4.6,2.5,8,2.5h.4c3.3,0,6.9-1.3,10.7-3.6V36.6c0-1.4,1.1-2.5,2.5-2.5h8.9c1.4,0,2.5,1.1,2.5,2.5v48.4c0,0,0,.1,0,.2,0,10.3-1.1,17.4-3.3,21.6-2.3,4.4-6.5,7.8-12.7,10.3-4.8,1.9-10.1,2.9-15.6,3.1,0,0,0,0,0,0Z"/><path class="g" d="M187.9,35.3v37.3c0,4,1.3,7.1,3.9,9.2,2.5,2.1,5.7,3.1,9.6,3.1s.3,0,.4,0c4.1,0,8.5-1.7,13.1-4.8V36.6h8.9v48.4h0c0,9.9-1,16.8-3,20.6-2,3.8-5.8,6.9-11.4,9.1-4.6,1.8-9.5,2.8-14.8,2.9l-1.5-5.6c5.4-.7,9.2-1.5,11.4-2.2,4.3-1.5,7.3-3.7,8.9-6.7,1.3-2.4,1.9-7.1,1.9-14v-2.3c-6.1,2.8-12.5,4.1-19.1,4.1s-8.3-1.4-11.6-4.1c-3.7-3-5.6-6.8-5.6-11.5V38.3l8.9-3.1m0-5c-.5,0-1.1,0-1.6,.3l-8.9,3.1c-2,.7-3.4,2.6-3.4,4.7v37.1c0,6.1,2.6,11.4,7.4,15.3,4.2,3.5,9.2,5.3,14.8,5.3s9.5-.7,14-1.9c-.3,4.7-1,6.3-1.2,6.8-1,1.8-3,3.3-6.1,4.3-1.3,.4-4.1,1.1-10.4,2-1.4,.2-2.7,1-3.5,2.2-.8,1.2-1,2.7-.7,4l1.5,5.6c.6,2.2,2.6,3.7,4.8,3.7s.1,0,.2,0c5.8-.2,11.4-1.3,16.4-3.3,6.8-2.7,11.5-6.6,14-11.5,2.4-4.6,3.5-12,3.6-22.7,0,0,0-.2,0-.3V36.6c0-2.8-2.2-5-5-5h-8.9c-2.8,0-5,2.2-5,5v40.7c-3,1.6-5.7,2.5-8.2,2.6,0,0-.2,0-.3,0-2.7,0-4.8-.6-6.4-1.9-.9-.7-2.1-2.1-2.1-5.4V35.3c0-1.6-.8-3.1-2.1-4.1-.9-.6-1.9-.9-2.9-.9h0Z"/></g><g><path class="h" d="M255.6,93.4c-5.6,0-10.1-1.4-13.4-4.2-3.4-2.9-5.1-6.9-5.1-11.9V44.7h-3.6c-1.4,0-2.5-1.1-2.5-2.5v-5.6c0-1.4,1.1-2.5,2.5-2.5h3.6v-12.4c0-1.1,.7-2,1.7-2.4l8.9-3.2c.3,0,.6-.1,.8-.1,.5,0,1,.2,1.4,.5,.7,.5,1.1,1.2,1.1,2v15.6h7.5c1.4,0,2.5,1.1,2.5,2.5v5.6c0,1.4-1.1,2.5-2.5,2.5h-7.5v32.3c0,2.5,.6,4.2,1.7,5.1,.7,.5,2.4,1.3,5.9,1.4,1.3,0,2.4,1.2,2.4,2.5v4.6c0,1.1-.8,2.1-1.9,2.4-.2,0-.4,0-.6,0-1,0-2,.1-2.9,.1Z"/><path class="g" d="M248.5,18.5v18h10v5.6h-10v34.9c0,3.3,.9,5.7,2.7,7.1,1.5,1.1,4,1.8,7.3,2v4.6h0c-1.1,0-2,.1-2.9,.1-5,0-9-1.2-11.8-3.6-2.8-2.4-4.2-5.7-4.2-10V42.2h-6.1v-5.6h6.1v-14.9l8.9-3.2m0-5c-.6,0-1.1,0-1.7,.3l-8.9,3.2c-2,.7-3.3,2.6-3.3,4.7v9.9h-1.1c-2.8,0-5,2.2-5,5v5.6c0,2.8,2.2,5,5,5h1.1v30.1c0,5.7,2.1,10.4,5.9,13.8,3.7,3.2,8.8,4.8,15,4.8s2.1,0,3.1-.1c.4,0,.8,0,1.1-.2,2.2-.6,3.7-2.6,3.7-4.8v-4.6c0-2.7-2.1-4.9-4.8-5-3.1-.2-4.3-.8-4.5-1-.3-.3-.7-1.3-.7-3.1v-29.9h5c2.8,0,5-2.2,5-5v-5.6c0-2.8-2.2-5-5-5h-5v-13c0-1.6-.8-3.1-2.1-4.1-.9-.6-1.9-.9-2.9-.9h0Z"/></g><g><path class="h" d="M303.5,92.5c-1.4,0-2.5-1.1-2.5-2.5V55.6c0-3-.7-5.6-2-7.7-1.4-2.1-3.2-3.1-5.7-3.1s-7.6,1.8-12.8,5.3v39.9c0,1.4-1.1,2.5-2.5,2.5h-8.9c-1.4,0-2.5-1.1-2.5-2.5V7.8c0-1.1,.7-2.1,1.7-2.4l8.9-2.8c.2,0,.5-.1,.8-.1,.5,0,1,.2,1.5,.5,.6,.5,1,1.2,1,2V37.9c5-2.8,10.5-4.2,16.2-4.2s9.9,1.9,13.3,5.6c3.4,3.6,5.1,8.2,5.1,13.5v37.2c0,.3,0,.6-.1,.8-.4,1-1.3,1.7-2.4,1.7h-8.9Z"/><path class="g" d="M277.9,5V42.4c5.7-4.1,11.9-6.2,18.7-6.2s8.5,1.6,11.5,4.8c2.9,3.2,4.4,7.1,4.4,11.8v37.2h0s-8.9,0-8.9,0V55.6c0-3.5-.8-6.5-2.4-9-1.9-2.8-4.5-4.3-7.8-4.3s-9.2,2.2-15.3,6.5v41.2h-8.9V7.8l8.9-2.8m0-5c-.5,0-1,0-1.5,.2l-8.9,2.8c-2.1,.7-3.5,2.6-3.5,4.8V90c0,2.8,2.2,5,5,5h8.9c2.8,0,5-2.2,5-5V51.4c5.3-3.4,8.5-4.1,10.3-4.1s2.7,.6,3.7,2c1.1,1.7,1.6,3.7,1.6,6.3v34.4c0,2.8,2.2,5,5,5h8.9c2.2,0,4.1-1.4,4.7-3.4,.2-.5,.3-1.1,.3-1.6V52.8c0-6-1.9-11.1-5.7-15.2-3.9-4.2-9-6.4-15.1-6.4s-9.3,.9-13.7,2.7V5c0-1.6-.8-3.1-2-4-.9-.6-1.9-1-3-1h0Z"/></g><g><path class="h" d="M344.9,93.6c-8.6,0-15.4-3.3-20.3-9.9-4.3-5.7-6.5-12.9-6.5-21.4s2.4-14.9,7-20.5c5-6,11.7-9.1,19.8-9.1s14.8,3,20,9c4.6,5.5,7,12.3,7.1,20.3,0,0,0,.2,0,.3,0,8.5-2.2,15.7-6.6,21.4-4.9,6.5-11.9,9.9-20.5,9.9Zm0-49.8c-5.3,.3-12.2,2.7-12.2,18.5s.9,10.6,2.8,14.3c2.2,4.3,5.1,6.4,9.3,6.4h.2c3,0,12.2,0,12.3-20.6,0,0,0,0,0-.1,0-5.1-1-9.4-2.8-12.6-2.1-3.7-5.2-5.6-9.5-5.8Z"/><path class="g" d="M345,35.3c7.4,0,13.4,2.7,18.1,8.2,4.3,5.1,6.5,11.4,6.5,18.9h0c0,8-2,14.6-6.1,19.9-4.5,5.9-10.7,8.9-18.5,8.9s-13.9-3-18.3-8.9c-4-5.3-6-11.9-6-19.9s2.2-13.8,6.5-18.9c4.6-5.4,10.5-8.2,17.9-8.2m-.2,50.3c0,0,.2,0,.3,0,9.8,0,14.7-7.8,14.7-23.2h0c0-5.6-1.1-10.2-3.2-13.9-2.5-4.5-6.4-6.8-11.7-7-9.8,.6-14.6,7.6-14.6,21s1,11.3,3.1,15.4c2.6,5.2,6.4,7.8,11.5,7.8m.2-55.3c-8.9,0-16.2,3.4-21.8,10-5.1,6-7.6,13.5-7.6,22.1s2.3,16.7,7,22.9c5.4,7.2,12.9,10.9,22.3,10.9s17.1-3.7,22.5-10.9c4.7-6.1,7.1-13.8,7.1-22.9s0-.3,0-.4c0-8.5-2.6-15.8-7.6-21.7-5.6-6.6-13-10-21.9-10h0Zm-.2,50.3c-2.2,0-4.8-.6-7-5-1.7-3.4-2.5-7.8-2.5-13.2,0-15,6.6-15.8,9.7-16,3.4,.2,5.7,1.6,7.3,4.5,0,0,0,0,0,0,1.7,2.9,2.5,6.7,2.5,11.4s0,.1,0,.2c0,18-7.1,18-9.7,18.1h-.2Z"/></g><g><path class="h" d="M411.7,92.5c-1.4,0-2.5-1.1-2.5-2.5V53.7c0-3.3-.9-5.7-2.8-7.5-1.8-1.7-4.3-2.6-7.4-2.6h-.4c-3.4,0-6.5,1-9.6,3v43.4c0,1.4-1.1,2.5-2.5,2.5h-8.9c-1.4,0-2.5-1.1-2.5-2.5V44.1c0-.8,.4-1.6,1-2,5.4-3.9,10.4-6.5,15-7.7,4.2-1.1,8.1-1.7,11.4-1.7s4.5,.2,6.5,.7c4,.9,7.3,2.7,9.8,5.2,2.9,2.9,4.4,6.5,4.4,10.5v40.7c0,0,0,.2,0,.3,0,1.3-1.2,2.3-2.5,2.3h-8.9Z"/><path class="g" d="M402.4,35.3c2.1,0,4.1,.2,6,.6,3.5,.8,6.3,2.3,8.5,4.5,2.4,2.4,3.7,5.4,3.7,8.8v40.9h0s-8.9,0-8.9,0V53.7c0-4-1.2-7.1-3.6-9.3-2.3-2.1-5.4-3.2-9.1-3.2-.1,0-.3,0-.4,0-4.2,0-8.3,1.5-12.1,4.1v44.8h-8.9V44.1c5.1-3.7,9.8-6.2,14.1-7.3,4.1-1.1,7.7-1.6,10.7-1.6m0-5c-3.5,0-7.6,.6-12,1.8-4.9,1.3-10.2,4-15.8,8.1-1.3,.9-2.1,2.4-2.1,4v45.9c0,2.8,2.2,5,5,5h8.9c2.8,0,5-2.2,5-5V48c2.3-1.2,4.7-1.9,7.2-1.9,.1,0,.2,0,.4,0,2.5,0,4.4,.6,5.7,1.9,.9,.8,2,2.3,2,5.7v36.3c0,2.8,2.2,5,5,5h8.9c2.7,0,4.8-2.1,5-4.7,0-.2,0-.4,0-.6V49.2c0-4.8-1.7-8.9-5.1-12.3-2.8-2.8-6.5-4.8-10.9-5.8,0,0,0,0,0,0-2.2-.5-4.6-.7-7-.7h0Z"/></g><g><path class="k" d="M18.1,92.2c-7.6,0-13-5.1-15.2-14.4-2.6-10.6-2.6-17.1,0-27.7,2.1-8.9,8.9-14.4,17.7-14.4H56.5v-1.4H29.7v-11.2c0-8,2.3-12.8,14.2-14.9,3.6-.6,7.6-1,11.7-1.1h0s1.7,0,1.7,0c4.7,0,9.3,.4,13.7,1.1,8.3,1.4,14.2,7.7,14.2,14.9v25.5c0,8.1-6.5,14.6-14.4,14.6h-26.8c-8.4,0-15.8,7.3-15.8,15.7v13.2h-10.2ZM42.4,17.4c-2.2,0-4,1.9-4,4.1s1.8,4.1,4,4.1,4-1.8,4-4.1-1.8-4.1-4-4.1Z"/><path class="g" d="M57.3,8.1c4.5,0,9.1,.3,13.6,1.1,7.3,1.2,13.4,6.7,13.4,13.9v25.5c0,7.5-6,13.6-13.4,13.6h-26.8c-9.1,0-16.8,7.8-16.8,16.7v12.2h-9.2c-7.8,0-12.3-5.7-14.2-13.6-2.6-10.7-2.5-17,0-27.2,2.1-8.9,9-13.6,16.8-13.6H57.5v-3.4H30.7v-10.2c0-7.7,2.1-11.9,13.4-13.9,3.8-.7,8.2-1.1,12.8-1.1h0c.1,0,.3,0,.4,0m-14.9,18.4c2.8,0,5-2.3,5-5.1s-2.3-5.1-5-5.1-5,2.3-5,5.1,2.3,5.1,5,5.1M57.3,6.1h-.4s-2.6,0-2.6,0h0c-3.7,.2-7.3,.5-10.6,1.1-12.6,2.2-15.1,7.5-15.1,15.9v11.6h-8.1c-9.3,0-16.5,5.8-18.7,15.1-2.6,10.8-2.6,17.4,0,28.2,2.3,9.8,8.1,15.1,16.2,15.1h11.2v-14.2c0-7.8,6.9-14.7,14.8-14.7h26.8c8.5,0,15.4-7,15.4-15.6V23.2c0-7.8-6.3-14.4-15.1-15.9-4.5-.7-9.2-1.1-13.9-1.1h0Zm-14.9,18.4c-1.7,0-3-1.4-3-3.1s1.4-3.1,3-3.1,3,1.4,3,3.1-1.4,3.1-3,3.1h0Z"/></g><g><path class="j" d="M57.4,121.5c-4.4,0-8.8-.7-13.6-2.1-9.1-2.7-14.1-7.9-14.1-14.6v-25.5c0-7.9,6.6-14.6,14.4-14.6h26.8c8.4,0,15.8-7.5,15.8-16v-13.4l1.2,.5h9.9c7.3,0,12,4.7,14.4,14.3,2.8,11.1,2.8,19.4,0,27.8-2.5,7.5-5.5,14.3-14.4,14.3H58.5v1.4h26.8v11.2c0,6.9-4.9,11.9-14.1,14.6-4.8,1.4-9.3,2.1-13.8,2.1Zm15.2-19.1c-2.2,0-4,1.8-4,4.1s1.8,4.1,4,4.1,4-1.9,4-4.1-1.8-4.1-4-4.1Z"/><path class="g" d="M87.6,36.8h0s10.1,0,10.1,0c7.8,0,11.5,5.8,13.4,13.6,2.7,10.8,2.8,18.9,0,27.2-2.7,8.2-5.6,13.6-13.4,13.6H57.5v3.4h26.8v10.2c0,7.7-6.7,11.7-13.4,13.6-4.9,1.4-9.3,2-13.5,2s-8.9-.7-13.3-2c-7.1-2.1-13.4-6.4-13.4-13.6v-25.5c0-7.3,6.1-13.6,13.4-13.6h26.8c8.9,0,16.8-7.8,16.8-17v-11.9m-15.1,74.9c2.8,0,5-2.3,5-5.1s-2.3-5.1-5-5.1-5,2.3-5,5.1,2.3,5.1,5,5.1m13.1-77.8v3s0,11.9,0,11.9c0,8-6.9,15-14.8,15h-26.8c-8.4,0-15.4,7.2-15.4,15.6v25.5c0,7.2,5.3,12.7,14.8,15.5,4.9,1.4,9.4,2.1,13.9,2.1s9.1-.7,14-2.1c9.7-2.8,14.9-8.2,14.9-15.5v-11.6h11.4c9.5,0,12.8-7.4,15.3-15,2.8-8.6,2.9-17,0-28.4-2.5-10.2-7.5-15.1-15.4-15.1h-9.7l-2.4-1h0Zm-13.1,75.8c-1.7,0-3-1.4-3-3.1s1.4-3.1,3-3.1,3,1.4,3,3.1-1.4,3.1-3,3.1h0Z"/></g><g><g><polygon class="h" points="407.5 29.2 407.5 19.4 403.8 19.4 403.8 17.2 413.8 17.2 413.8 19.4 410.1 19.4 410.1 29.2 407.5 29.2"/><path class="g" d="M413.3,17.7v1.2h-3.7v9.8h-1.6v-9.8h-3.7v-1.2h9m1-1h-11v3.2h3.7v9.8h3.6v-9.8h3.7v-3.2h0Z"/></g><g><polygon class="h" points="422.9 29.2 422.9 22.8 420.7 29.1 418.5 29.1 416.5 22.9 416.5 29.2 414.2 29.2 414.2 17.2 417.2 17.2 419.7 25.5 422.6 17.2 425.4 17.2 425.4 29.2 422.9 29.2"/><path class="g" d="M424.9,17.7v11h-1.5v-8.9l-3,8.9h-1.5l-2.9-8.9v8.9h-1.3v-11h2.2l2.8,9.4,3.3-9.4h1.9m1-1h-3.6l-.2,.7-2.3,6.5-1.9-6.4-.2-.7h-3.9v13h3.3v-3.6l.9,2.9,.2,.7h2.9l.2-.7,1.1-3.2v3.8h3.5v-13h0Z"/></g></g><path class="i" d="M93.8,135.8c0,3.8-16.1,7-35.9,7s-35.9-3.1-35.9-7h0c0-3.8,16.1-7,35.9-7s35.9,3.1,35.9,7Z"/></g></svg>