<?xml version="1.0" encoding="utf-8"?>
<!-- Generator: Adobe Illustrator 26.5.3, SVG Export Plug-In . SVG Version: 6.00 Build 0)  -->
<svg version="1.1" id="레이어_1" xmlns="http://www.w3.org/2000/svg" xmlns:xlink="http://www.w3.org/1999/xlink" x="0px"
	 y="0px" viewBox="0 0 224 160" style="enable-background:new 0 0 224 160;" xml:space="preserve">
<style type="text/css">
	.st0{fill-rule:evenodd;clip-rule:evenodd;fill:#00414A;}
</style>
<path class="st0" d="M0,25.6L25.6,0H224v134.4L198.4,160H0V25.6z M106.6,146.5l14.8-6.9h0l-12.1-19.4c5.6-3.7,9.6-9.2,12-16.3
	c2.4-7.1,3.7-16.4,3.7-27.9c0-17.5-3-30.4-8.9-38.8c-6-8.4-16.3-12.6-31.1-12.6s-25.2,4.2-31.2,12.7c-6,8.5-9,21.4-9,38.8
	s2.9,30.2,8.8,38.2c5.9,8.1,16.4,12.1,31.3,12.1c4,0,7-0.3,8.8-0.9L106.6,146.5z M146.6,120.8c3,3.7,8.6,5.6,16.8,5.6
	c3.4,0,8.3-0.6,14.7-1.9l-0.7-12.5l-11.8,0.4c-3.6,0-5.8-1-6.6-2.9c-0.9-1.9-1.3-5.8-1.3-11.7V66.2h19.9V52.8h-19.9V31.9h-15.6v20.9
	h-9.2v13.4h9.2v33.4C142.1,110,143.6,117,146.6,120.8z M66.4,47.5c3.4-6,9.6-8.9,18.6-8.9s15.2,3,18.5,8.9c3.3,6,5,15.5,5,28.7
	s-1.6,22.5-4.8,28c-3.2,5.5-9.4,8.3-18.7,8.3s-15.5-2.8-18.7-8.4C63,98.4,61.4,89,61.4,76S63.1,53.4,66.4,47.5z"/>
</svg>
