<?xml version="1.0" encoding="UTF-8"?><svg id="b" xmlns="http://www.w3.org/2000/svg" viewBox="0 0 1509.6 306.6"><defs><style>.d{fill:#fff;}.e{fill:#0e70c7;}.f{fill:#666;}</style></defs><g id="c"><g><g><path class="e" d="M1146.2,294.9c-26.8,0-54,0-79.4-.1-13.3,0-22.3-7.5-22.4-18.7,0-5.6,1.8-10.4,5.3-14,4-4.1,10.1-6.2,17.6-6.2h21.1c27.3,0,54.6,0,81.9,0,15.3,0,48.4,0,48.4,0,3.1,0,5.8,0,8.4,0,5.9-.2,5.9-1.7,5.9-3.2,0-1.2,0-3.3-6-4-2.6-.3-5.3-.3-7.9-.3s-3.8,0-4.5,0c-23.8,0-47.6,0-71.4,0-19.9,0-39.7,0-59.6,0-12.6,0-28.4-1.9-38.8-17.1-9.9-14.3-11.4-28.9-4.7-43.2,7.4-15.6,20.3-24,37.4-24.3,10-.1,20.7-.2,33.8-.2s16.1,0,24.1,0c7.5,0,14.9,0,22.4,0,.5-.2,1.1-.3,1.7-.3,7.7,0,38.4,0,46.1,0,11.3,0,22.6,0,33.9,0,7.7,0,13.9,2.3,18,6.5,3.4,3.5,5.2,8.2,5.2,13.5-.1,9.1-6.2,18.9-23.1,18.9-5.6,0-11.2,0-16.8,0-21.3,0-42.7,0-64,0-21.3,0-42.7,0-64,0h-3.2c-4.9,0-10.1,.1-14.9,1-1.2,.2-2.3,.8-2.3,3.2,0,1.2,0,1.9,2.8,2.3,2.5,.4,5.3,.4,8,.4h.2c17.1,0,34.2,0,51.3,0,18.1,0,36.3,0,54.4,0s25,0,25,0c8.4,0,17.1,0,25.7,3,19.4,6.6,31.7,27.3,28.5,48.1-2.8,18.5-21,34.3-39.8,34.4-25.6,.2-53.3,.3-84.6,.3Z"/><path class="d" d="M1205.7,169.1c11.3,0,22.6,0,34,0,11.2,0,17.8,5.5,17.7,14.4-.1,8.4-6.4,13.4-17.6,13.4-5.6,0-11.2,0-16.8,0-42.7,0-85.4-.1-128.1-.1s-2.1,0-3.1,0c-5.3,0-10.7,.1-15.9,1.1-4.3,.8-6.9,4-6.8,8.6,0,5,3.2,7.1,7.5,7.7,2.9,.4,5.8,.4,8.7,.4s.2,0,.3,0c35.3,0,70.5,0,105.8,0s16.2,0,24.2,0c8.3,0,16.7,0,24.7,2.7,17,5.8,27.6,23.8,24.8,42.1-2.4,15.5-17.7,29.6-34.4,29.7-28.2,.2-56.4,.3-84.6,.3s-53,0-79.4-.1c-10.7,0-16.8-5.4-16.9-13.2,0-9.2,6.3-14.7,17.5-14.7,7.1,0,14.1,0,21.2,0,42.6,0,85.2,0,127.8,0,.8,0,1.6,0,2.4,0,2.9,0,5.7,0,8.6,0,5.8-.2,11.2-1.8,11.2-8.6,0-6.5-5.3-8.8-10.9-9.4-2.8-.3-5.6-.4-8.4-.4s-3,0-4.5,0c-43.7,0-87.3,0-131,.1,0,0,0,0,0,0-13.5,0-25.9-2.6-34.2-14.7-8.1-11.8-10.5-24.4-4.2-37.8,6.4-13.6,17.6-20.9,32.5-21.1,11.2-.2,22.5-.2,33.7-.2,16.1,0,32.2,0,48.3,0v-.3c15.3,0,30.7,0,46,0m0-11c-7.7,0-15.3,0-23,0-7.7,0-15.3,0-23,0s-1.7,0-2.4,.3c-7.2,0-14.6,0-21.7,0-7.9,0-16.1,0-24.2,0-13.1,0-23.9,0-33.9,.2-19.1,.3-34.1,10-42.3,27.4-7.6,16-5.8,32.8,5.1,48.7,5.9,8.6,13.5,13.5,21.1,16.2-7.8,1.2-12.7,4.5-15.6,7.4-4.6,4.6-7,10.8-6.9,17.9,0,7.2,3.1,13.6,8.6,18,4.9,4,11.6,6.1,19.3,6.1,25.4,0,52.7,.1,79.5,.1s59,0,84.6-.3c21.6-.2,41.9-17.7,45.2-39.1,1.7-11.3-.5-23-6.4-33-5.6-9.4-14-16.6-23.9-20.5,5.4-.8,10-2.6,13.8-5.5,5.6-4.4,8.8-10.9,8.9-18.4,0-6.8-2.2-12.9-6.7-17.4-5.2-5.3-12.8-8.1-21.9-8.1-10,0-20.8,0-34,0h0Zm-128.1,45.2s0,0,0,0h0Z"/></g><g><path class="f" d="M1254,144c-4.4,0-8.7-1.9-12.5-5.4l-3-2.8c-9-8.4-18.3-17-26.5-26.6-7.5-8.7-16.1-12.6-28.1-12.6s-1.2,0-1.8,0c-9.9,.3-20.3,.4-33.8,.4s-12.7,0-19,0c-6.3,0-12.6,0-18.9,0h-5.5c-1.9,0-4.1,0-6.3-.2-11.6-.9-20-9.8-19.6-20.5,.2-6.3,3.1-16.9,19.9-16.9,19.8,0,39.6,0,59.4,0s37.7,0,56.5,0h3.8c3.3,0,6,0,8.6-.3,7.2-.8,7.2-2.2,7.1-4.7,0-2.3-.1-3-7.2-3.7-.5,0-1.2,0-1.8,0h-15.9c-36.2,0-72.5,0-108.7,.1-3.1,0-5.8,.2-8.1,.5-12.9,2-19.1,8.9-19.5,21.7-.3,9.6-.3,19.3-.3,28.8,0,6.3,0,12.7,0,19.1-.2,19.2-13.1,21.8-18.5,22-.3,0-.6,0-.9,0-11.9,0-19-8.2-19.2-21.9,0-3.9-.2-7.9-.3-11.7-.4-15.1-.8-30.7,2.1-46.2,2.6-14.2,9.7-26.7,21-37.2,9.1-8.5,19.3-12.7,31.1-12.7h.7c8.8,.1,18.4,.2,30.1,.2s13.9,0,20.9,0c7,0,13.9,0,20.9,0s.5,0,.7,0c6.7,0,13.4,0,20.1,0,7,0,13.9,0,20.9,0,10.5,0,19.2,0,27.3,.1,21.5,.2,36.8,11.8,41.9,31.8,4.8,18.9-3.4,36.6-21.4,46.3-1.1,.6-1.9,1.1-2.4,1.4,.5,.5,1.2,1.2,2.3,2.1,6.7,5.8,13.1,11.6,18.3,18.7,6.3,8.6,5.5,17.8-2.3,25.1-3.6,3.4-7.8,5.2-12.1,5.2Z"/><path class="d" d="M1088,18.7c.2,0,.4,0,.6,0,10.1,.1,20.1,.2,30.2,.2s27.9,0,41.8,0h0c13.9,0,27.8,0,41.7,0s18.2,0,27.3,.1c19.1,.2,32.2,10.4,36.7,27.7,4.1,16.1-2.3,31.3-18.6,40.1-8.5,4.6-6.9,7.5-1.1,12.5,6.3,5.5,12.5,11,17.5,17.8,4.8,6.5,4.1,12.5-1.6,17.8-2.7,2.5-5.5,3.7-8.3,3.7s-6-1.4-8.7-3.9c-10-9.3-20.2-18.5-29-28.9-8.9-10.4-19.1-14.6-32.3-14.6-.6,0-1.3,0-2,0-11.2,.3-22.4,.4-33.7,.4s-25.3-.1-38-.1-1.6,0-2.4,0c-1,0-2.1,0-3.1,0-2,0-3.9,0-5.9-.2-8.4-.7-14.9-7-14.6-14.8,.3-9,6.6-11.6,14.4-11.6,38.7,0,77.3,0,116,0,0,0,.1,0,.2,0,1.2,0,2.4,0,3.6,0,3.1,0,6.2,0,9.2-.4,6.3-.7,12.3-2.2,12-10.4-.3-7.7-6.3-8.4-12.1-9-.8,0-1.6,0-2.3,0s-.4,0-.7,0c-41.3,0-82.7,0-124,.1-3,0-6,.2-9,.6-15.3,2.4-23.7,11.3-24.2,26.9-.5,16-.1,32-.3,48-.1,10.7-4.7,16.2-13.2,16.5-.2,0-.5,0-.7,0-8.5,0-13.6-5.6-13.7-16.4-.2-19-1.8-38,1.7-56.8,2.5-13.5,9.3-24.8,19.3-34.2,7.7-7.2,16.5-11.2,27.3-11.2m0-11c-13.1,0-24.8,4.8-34.8,14.2-12.1,11.4-19.7,24.9-22.6,40.2-3,16.1-2.6,32-2.1,47.4,.1,3.8,.2,7.8,.3,11.6,.1,8,2.2,14.5,6.3,19.3,3.1,3.7,8.8,8,18.4,8s.7,0,1.1,0c9.5-.3,15-4.8,17.9-8.4,3.8-4.7,5.8-11.1,5.9-19,0-6.4,0-12.9,0-19.2,0-3.4,0-6.8,0-10.2,4.4,5.9,11.5,10.1,19.8,10.7,2.4,.2,4.8,.2,6.8,.2s1.2,0,1.7,0h1.4s2.3,0,2.3,0c6.3,0,12.7,0,18.9,0,6.2,0,12.7,0,19,0,13.6,0,24.1-.1,34-.4,.5,0,1.1,0,1.6,0,10.5,0,17.4,3.1,23.9,10.7,8.4,9.8,17.8,18.6,26.9,27,1,.9,2,1.8,3,2.7,4.8,4.5,10.4,6.8,16.2,6.8s11.2-2.3,15.9-6.7c9.9-9.3,11-21.3,2.9-32.3-4.6-6.3-10.1-11.6-15.8-16.7,17.4-11.4,25-30.1,19.9-50-5.7-22.2-23.3-35.7-47.2-35.9-8.1,0-16.8-.1-27.4-.1s-13.9,0-20.9,0c-6.6,0-13.2,0-19.8,0-.3,0-.7,0-1,0-7,0-14,0-20.9,0-7,0-13.9,0-20.9,0-11.7,0-21.2,0-30-.2-.3,0-.5,0-.8,0h0Z"/></g><g><path class="e" d="M976,295.2c-.9,0-1.8,0-2.8,0-8.2-.4-17.1-.5-27.9-.5s-14.1,0-21,.1c-6.9,0-14.1,.1-21.1,.1,0,0-23.2,0-34.5,0-13,0-26,0-39,0-.8,0-1.5,0-2.2,0-.7,0-1.5,0-2.2,0-1.7,0-4,0-6.2-.3-11.6-1.3-18.4-8.4-18.2-18.9,.2-11.4,7.2-18.8,18.7-19.7,2.3-.2,4.5-.2,6.6-.2h7.4c11.8,0,23.8,0,35.4-.1,11.6,0,23.6-.1,35.4-.1,23.8,0,43.1,.2,60.6,.8,.4,0,.9,0,1.3,0,9.9,0,17.7-3.5,22.6-10,5.3-7.1,6.7-17.2,3.8-27-3.6-12-10.1-16.8-22.6-16.9-26.5,0-52.8-.1-79.7-.1h-15c-14.1,0-28.1,0-42.2,0h-.9c-4.5,0-9.1,0-13.8-.6-11.7-1.5-18.4-8.8-17.7-19.4,.7-11,7.7-17.9,18.7-18.4,2.2-.1,4.6-.2,7.3-.2h4c12.9,0,25.7,0,38.6,0,12.9,0,25.7,0,38.6,0,25,0,45.2,0,63.6-.3,.3,0,.6,0,.9,0,22.2,0,38.8,10,49.5,29.8,13.8,25.5,13.2,51.7-1.8,75.8-10.9,17.6-25.4,26.2-44.2,26.2Z"/><path class="d" d="M972.5,169c20.7,0,35.3,9.4,44.7,26.9,12.6,23.4,12.6,47.4-1.6,70.3-9.1,14.6-21.4,23.6-39.6,23.6s-1.7,0-2.5,0c-9.4-.4-18.8-.5-28.2-.5-14.1,0-28.1,.3-42.2,.3s-.4,0-.6,0c-24.3,0-48.6,0-72.9,0,0,0,0,0,0,0-1.4,0-2.9,0-4.3,0s-3.8,0-5.6-.3c-7.9-.9-13.4-4.9-13.3-13.3,.2-8.4,4.8-13.6,13.6-14.3,2.1-.2,4.1-.2,6.2-.2s1.9,0,2.8,0c1.5,0,3.1,0,4.6,0,23.6,0,47.2-.2,70.8-.2s40.3,.2,60.4,.7c.5,0,1,0,1.4,0,27.5,0,37.7-23.6,31.6-44.1-4.1-13.9-12.6-20.8-27.8-20.8-26.6,0-53.1-.1-79.7-.1s-10.2,0-15.2,0c-14,0-28,0-41.9,0-4.7,0-9.4,0-14-.6-7.8-1-13.4-5.2-12.9-13.6,.5-7.9,5.1-12.8,13.5-13.3,2.3-.1,4.7-.2,7-.2,1.4,0,2.7,0,4.1,0,25.7,0,51.5,0,77.2,0s42.4,0,63.6-.3c.3,0,.5,0,.8,0m0-11c-.3,0-.6,0-.9,0-18.4,.2-38.6,.3-63.5,.3s-25.9,0-38.6,0c-12.7,0-25.7,0-38.6,0h-4.1c-2.8,0-5.2,0-7.6,.2-13.7,.7-23.1,10-23.9,23.6-.8,13.4,8,23.3,22.5,25.2,5,.6,9.8,.7,14.5,.7h.9c14,0,28,0,42,0h7.6s7.6,0,7.6,0c26.9,0,53.2,0,79.7,.1,9.9,0,14.5,3.4,17.3,13,2.4,8,1.3,16.5-2.9,22.1-3.9,5.2-10,7.8-18.2,7.8s-.7,0-1.1,0c-17.6-.5-36.9-.8-60.8-.8s-23.8,0-35.5,.1c-11.6,0-23.6,.1-35.4,.1s-3.1,0-4.6,0h-1.2c-.5,0-1.1,0-1.6,0-2.2,0-4.5,0-7,.2-8.9,.7-14.3,4.5-17.2,7.7-4.2,4.4-6.4,10.4-6.6,17.4-.3,13.5,8.6,22.8,23,24.5,2.5,.3,5,.3,6.8,.3s1.5,0,2.3,0c.7,0,1.4,0,2.1,0h0c12.9,0,25.7,0,38.6,0,11.4,0,22.9,0,34.3,0h.6c7.1,0,14.3,0,21.2-.1,6.9,0,14-.1,21-.1,10.7,0,19.5,.2,27.7,.5,1,0,2,0,3,0,20.6,0,37.1-9.7,48.9-28.8,16-25.8,16.7-54,1.9-81.3-5.7-10.5-13.1-18.6-22-24.1-9.2-5.7-20.1-8.5-32.3-8.5h0Z"/></g><g><path class="f" d="M889.5,142.7c-8.7,0-17.4,0-26.2,0-33.7,0-55.4-18.4-61.1-51.7-3.6-20.9,.6-39.5,12.5-55.4,11.5-15.3,25.8-22.8,43.6-22.8h.8c26.3,.3,52.7,.4,77.4,.4h37.2c11.8,0,23.6,0,35.4,0,11.9,0,17.4,4.6,20,8.4,3.2,4.7,3.4,10.8,.8,17.3-4.8,11.7-16.1,11.7-21.6,11.7h-.1c-28.8,0-57.7,0-86.5,0s-29.8,0-29.8,0c-2.1,0-4.1,0-6.2,0-2.1,0-4.1,0-6.2,0-5,0-11,0-17,.4-12.8,.7-18.7,5.3-22.7,17.7-3.4,10.5,.4,25.3,8.1,31.7,4.5,3.7,9.8,3.9,17.4,3.9,0,0,111.2,0,136,0,.8,0,1.6,0,2.4,0,.8,0,1.6,0,2.4,0,1.6,0,3.6,0,5.7,.2,8.4,.8,19.5,3.7,19.2,19.7-.3,16.2-11.9,18.2-20.6,18.2-9.8,0-20.5,0-33.6,0s-15.1,0-22.7,0c-7.3,0-14.6,0-21.8,0-.3,0-.6,0-.9,0h-41.8Z"/><path class="d" d="M858.3,18.4c.2,0,.5,0,.7,0,25.8,.3,51.6,.4,77.4,.4s24.7,0,37.1,0,23.6,0,35.4,0c13.9,0,20.1,7.4,15.7,18.2-3.1,7.5-9.5,8.3-16.5,8.3s0,0-.1,0c-28.9,0-57.8,0-86.7,0s-19.5,0-29.3,0c-.1,0-.2,0-.3,0-4.1,0-8.2,0-12.4,0s-11.5,0-17.3,.4c-15.3,.8-23,7.1-27.7,21.6-4.1,12.9,.4,29.9,9.9,37.6,6.2,5.1,13.5,5.2,20.8,5.2,45.3,0,90.7,0,136,0,0,0,0,0,0,0,1.6,0,3.1,0,4.7,0s3.5,0,5.2,.2c10.5,1,14.4,5,14.2,14.2-.2,9.2-4,12.8-15.1,12.8-11.2,0-22.3,0-33.5,0s-30.3,0-45.5,0h0c-14,0-27.9,0-41.9,0s-17.4,0-26.1,0c-31.1,0-50.4-16.2-55.7-47.1-3.2-18.5,0-35.9,11.5-51.2,9.8-13.1,22.1-20.6,39.2-20.6m0-11c-19.7,0-35.4,8.2-48,25-12.8,17.1-17.4,37.2-13.5,59.6,3.1,18,10.5,32,21.9,41.7,11.4,9.7,26.4,14.6,44.6,14.6,8.7,0,17.4,0,26.1,0h21s21,0,21,0c.4,0,.8,0,1.2,0,7.2,0,14.3,0,21.5,0,7.6,0,15.2,0,22.7,0,13.1,0,23.7,0,33.6,0,5.3,0,13-.7,18.8-5.6,7.1-6.1,7.2-15,7.3-18,.2-10.5-3.9-23.4-24.2-25.3-2.4-.2-4.6-.3-6.3-.3s-1.6,0-2.5,0c-.7,0-1.5,0-2.2,0h0c-24.6,0-49.2,0-73.7,0-20.7,0-41.5,0-62.2,0-6.6,0-10.8-.2-13.9-2.7-6.1-5-9.1-17.2-6.4-25.7,3.3-10.4,7.2-13.4,17.8-13.9,5.9-.3,11.8-.3,16.7-.3s4.1,0,6.1,0c2.1,0,4.1,0,6.2,0h.3c9.8,0,19.5,0,29.3,0,28.7,0,57.9,0,86.7,0h.1c5.6,0,20.5,0,26.7-15.2,3.3-8.2,2.8-16.2-1.4-22.5-2.7-4-9.5-10.8-24.5-10.8-10.3,0-21.2,0-35.5,0s-12.4,0-18.6,0c-6.2,0-12.4,0-18.5,0-24.6,0-51,0-77.3-.3-.3,0-.5,0-.8,0h0Z"/></g><g><path class="f" d="M361.7,142.7c-32.8,0-53-16.4-59.9-48.7-5-23.2-.4-43.8,13.6-61.1,10.8-13.3,23.4-19.8,38.6-19.8s.6,0,.9,0c7.9,.1,16.5,.2,26.8,.2s13.3,0,20,0c6.7,0,13.3,0,20,0s.8,0,1.2,.1c6.3,0,12.5,0,18.8,0,6.7,0,13.3,0,20,0,9.6,0,17.6,0,25,.1,15.1,.2,30.1,7.7,41.3,20.4,11.4,13,16.9,29.3,15,44.6-1.2,9.9-7.2,15.9-17,17.1-.9,0-1.7,.1-2.6,.1-4.7,0-13.1-1.7-16.7-13.3-.8-2.6-1.2-5.1-1.6-7.5-.1-.7-.2-1.3-.3-2-2.9-17-8.7-21.9-25.6-22.1-11.8,0-24.7-.1-40.4-.1s-17.7,0-26.6,0c-8.9,0-17.7,0-26.6,0s-14.9,0-22.3,0h-.2c-12.5,0-19.8,4.4-23.2,13.7-4.6,12.8-3.3,24.1,4,33.7,3.3,4.3,8.2,6.2,16,6.2,13.3,0,26.5,0,39.7,0,21.2,0,40.3,0,58.4,.1,10.8,0,22.3,2.1,25,17.1,.8,4.4,1.4,10.8-2.6,15.6-3,3.6-7.7,5.4-14.6,5.5-4.3,0-8.9,0-14.2,0s-9.5,0-14.2,0c-4.7,0-9.4,0-14.2,0h-1.4c-10,0-20,0-30,0-10,0-20,0-30,0h-.1Z"/><path class="d" d="M353.9,18.6c.3,0,.6,0,.8,0,9,.2,18,.2,27,.2,13.3,0,26.6-.1,40-.1,0,0,0,0,0,.1,13.3,0,26.7,0,40,0s16.6,0,24.9,.1c28.7,.4,54.4,30.3,50.9,58.9-.9,7.2-4.9,11.4-12.2,12.3-.7,0-1.3,.1-1.9,.1-6,0-9.6-3.6-11.4-9.4-.9-2.8-1.2-5.9-1.7-8.8-3.3-19.2-11.3-26.5-31-26.6-13.5,0-27-.1-40.5-.1s-35.4,0-53.1,0-14.9,0-22.3,0c0,0-.1,0-.2,0-13.1,0-23.7,4.4-28.4,17.3-4.9,13.5-4.2,27,4.8,38.9,5,6.6,12.3,8.4,20.3,8.4s0,0,0,0c13.2,0,26.4,0,39.6,0,19.4,0,38.8,0,58.3,.1,13,0,18,3.5,19.6,12.5,1.8,10.2-1.5,14.5-11.9,14.6-4.7,0-9.4,0-14.1,0-9.5,0-18.9,0-28.4,0s-1,0-1.4,0c-20,0-40,.1-59.9,.1,0,0,0,0,0,0-30.1,0-48.2-14.6-54.6-44.4-4.4-20.7-1-39.8,12.5-56.4,8.8-10.9,19.7-17.8,34.3-17.8m0-11c-16.7,0-31.1,7.3-42.9,21.8-15.1,18.6-20.1,40.7-14.7,65.7,7.4,34.7,30,53.1,65.3,53.1h.1c10,0,20,0,30.1,0,10,0,19.9,0,29.9,0h1.4c4.7,0,9.5,0,14.1,0,4.7,0,9.5,0,14.3,0s10,0,14.3,0c3.2,0,12.8-.2,18.8-7.5,6-7.3,4.3-16.9,3.8-20.1-3.8-21.5-23.1-21.6-30.4-21.6-18,0-37.1-.1-58.3-.1s-25,0-39.6,0h0c-7.5,0-10-1.9-11.6-4-6.2-8.1-7.2-17.5-3.2-28.5,1.9-5.2,5.4-10.1,18-10.1h.2c6.8,0,14.1,0,22.4,0s17.7,0,26.6,0c8.8,0,17.7,0,26.5,0,15.8,0,28.6,0,40.4,.1,14.2,.1,17.8,3.2,20.2,17.5,.1,.6,.2,1.3,.3,1.9,.4,2.5,.9,5.3,1.8,8.3,3.4,10.9,11.4,17.2,21.9,17.2s2.1,0,3.2-.2c12.2-1.4,20.4-9.6,21.9-21.9,2-16.9-3.9-34.7-16.3-48.9-12.2-14-28.7-22.1-45.4-22.3-7.5-.1-15.4-.1-25.1-.1s-13.5,0-20,0c-6,0-12.2,0-18.3,0-.5,0-1.1-.1-1.7-.1-6.7,0-13.5,0-20,0-6.5,0-13.3,0-19.9,0-10.4,0-18.9,0-26.8-.2-.3,0-.7,0-1,0h0Z"/></g><g><path class="f" d="M615.8,142.7c-33.8,0-55-17.4-61.2-50.2-3.4-18-2.6-36.3-1.8-53.9,.1-2.4,.2-4.8,.3-7.1,.5-11.6,7.5-18.5,18.9-18.5s.6,0,.9,0c11,.4,17.4,7.4,17.6,19.4,.3,12.4,.3,25,.3,37.1v2c0,5.1,.2,11.9,2.2,18.2,2.8,9.2,9.2,14.4,18.2,14.4,26.4,.2,53.3,.4,79.9,.4s30.1,0,45-.1c9.3,0,16.6-6.7,18.6-17,1.4-7.1,1.3-14.4,1.2-22.2,0-3.5-.1-7.2,0-10.8,0-2.8,0-5.7,0-8.5,0-5.2,0-10.5,.5-15.8,.9-10.5,7.7-17,17.8-17s1.5,0,2.3,.1c10.9,1,17,7.7,16.9,18.6,0,7,0,14.1,0,20.9,0,10.9,.1,22.1-.3,33.2-.7,17.1-6.6,31.4-17.2,41.5-10.5,10-25.1,15.3-42.1,15.3-7.8,0-15.6,0-23.5,0h-36.8c-.2,0-.5,0-.7,0h-35.6s-21.4,0-21.4,0Z"/><path class="d" d="M572.1,18.5c.2,0,.5,0,.8,0,8.8,.3,12.2,6,12.3,14,.3,13,.3,26,.3,39,0,6.7,.5,13.3,2.4,19.8,3.4,11.1,11.7,18.3,23.4,18.4,26.6,.2,53.3,.4,79.9,.4s30,0,45-.1c12.2,0,21.5-8.9,24-21.4,2.3-11.2,1-22.6,1.3-33.9,.2-8-.2-16,.5-24,.6-7.6,5-12,12.4-12s1.2,0,1.8,0c7.8,.7,12,4.7,11.9,13.1-.2,18,.4,36-.3,54-1.3,31.9-22,51.5-53.8,51.5-7.7,0-15.5,0-23.2,0-12.6,0-25.2,0-37.7,0h0c-11.8,0-23.6,0-35.3,0s-14.4,0-21.6,0c-30.9,0-50.1-15.4-55.8-45.7-3.7-19.8-2.2-39.8-1.4-59.8,.3-8.5,5-13.2,13.4-13.2m0-11c-14.3,0-23.9,9.3-24.4,23.8,0,2.4-.2,4.7-.3,7.1-.8,17.9-1.6,36.5,1.9,55.2,6.7,35.2,30.3,54.6,66.6,54.6,7.2,0,14.4,0,21.6,0h17.7s17.7,0,17.7,0c.4,0,.7,0,1,0,5.9,0,11.9,0,17.8,0,6.3,0,12.6,0,18.9,0s15.5,0,23.3,0c37.9,0,63.3-24.4,64.8-62.1,.4-11.2,.4-22.5,.3-33.4,0-6.9,0-13.9,0-20.8,.2-13.7-8.2-23-21.9-24.2-.9,0-1.9-.1-2.8-.1-13,0-22.2,8.7-23.3,22.1-.5,5.6-.5,11-.5,16.3,0,2.9,0,5.6,0,8.3,0,3.8,0,7.5,0,11,.1,7.4,.3,14.4-1.1,21-1.2,6.1-5.4,12.5-13.3,12.6-14.9,0-30.1,.1-45,.1-26.5,0-53.4-.1-79.8-.4-6.5,0-10.9-3.6-13-10.5-1.7-5.6-1.9-11.8-1.9-16.6v-2c0-12.2,0-24.8-.3-37.2-.3-14.8-9.1-24.3-23-24.7-.4,0-.7,0-1.1,0h0Z"/></g><g><path class="f" d="M1389,142.6c-.5,0-1.1,0-1.7,0-11.4-.9-17.9-8.3-17.8-20.3,0-2.5,0-5,0-7.5,0-1.2,0-2.3,0-3.5s0-.7,0-1c0-.4,0-.8,0-1.2,.1-4.9,.3-10-.4-10.9-.7-.9-5.5-2.1-10.1-3.2h-.6c-33.7-8.4-58.7-30.9-79.5-51.3-7.5-7.4-8.1-17-1.4-24.6,4.9-5.5,10-6.7,13.5-6.7s7.9,1.4,11.7,4.3c5.4,4,10.7,8.2,15.8,12.2,3.9,3.1,7.9,6.2,11.8,9.2,18.8,14.4,38.2,21.6,57.7,21.6s37.8-6.9,56.3-20.4c4.9-3.6,9.7-7.6,14.3-11.4,3.6-3,7.4-6.2,11.3-9.1,5.4-4.2,10.3-6.2,15-6.2s10.1,2.5,14.3,7.5c3.5,4.1,5,8.3,4.7,12.6-.4,5-3.4,9.9-9.3,14.9l-3.1,2.6c-23.8,20.3-48.5,41.2-82.4,46.4-.8,.1-1.2,.3-1.3,.4h0s-.3,.5-.3,2.6v1.6c0,7.1,0,14.4-.3,21.7-.7,11.9-7.9,19.7-18.4,19.7Z"/><path class="d" d="M1291.1,18c2.8,0,5.6,1.1,8.4,3.2,9.3,7,18.3,14.4,27.6,21.4,19.8,15.2,40.4,22.8,61,22.8s40-7.1,59.5-21.5c8.8-6.5,17-13.9,25.7-20.6,4.4-3.4,8.2-5.1,11.7-5.1s7,1.9,10.2,5.6c5.4,6.3,4.7,12.3-4,19.6-24.7,20.9-49,42.6-82.7,47.7-5.2,.8-6.2,4-6.2,8.5,0,7.7,.1,15.3-.3,23-.5,9.1-5.4,14.5-12.9,14.5s-.8,0-1.3,0c-8.9-.7-12.8-6.1-12.7-14.7,0-3.7,0-7.3,0-11,0,0,0,0,0,0,0-.7,0-1.3,0-2,.5-16.1,.4-15.9-15.3-19.7-31.4-7.7-54.7-27.9-77-49.7-4.9-4.8-6.3-11.1-1.1-17,2.9-3.3,6.1-4.8,9.3-4.8m0-11c-4.6,0-11.4,1.5-17.6,8.6-8.6,9.8-7.9,22.7,1.7,32.1,21.3,20.9,47,44,82.1,52.6h.6c2.3,.7,4.7,1.3,6.4,1.8,0,1.8,0,4.5-.1,6.9,0,.3,0,.6,0,1,0,.4,0,.9,0,1.4,0,1.2,0,2.3,0,3.5,0,2.4,0,5,0,7.4-.2,14.8,8.6,24.7,22.9,25.8,.7,0,1.4,0,2.1,0,13.5,0,23.1-10,23.9-24.9,.4-7.3,.4-14.6,.3-21.7,33.8-6.2,58.3-27,82-47.1l3-2.6c7-5.9,10.7-12,11.2-18.6,.5-5.8-1.6-11.4-6-16.6-5.4-6.3-11.6-9.5-18.5-9.5s-12,2.4-18.4,7.4c-3.9,3-7.7,6.2-11.4,9.2-4.8,4-9.3,7.7-14.1,11.2-17.5,12.8-35.3,19.3-53,19.3s-36.5-6.9-54.3-20.5c-3.9-3-7.9-6.1-11.8-9.2-5.2-4.1-10.5-8.3-15.9-12.3-4.8-3.6-9.9-5.4-15-5.4h0Z"/></g><g><path class="e" d="M1338.7,295.3c-16.3,0-29.7-5.6-39.8-16.7-7.7-8.4-13.3-20.1-16.3-33.8-4-18.3-3-36.9-2.1-54.8,.1-2.4,.3-4.9,.4-7.3,.6-11.9,7.7-18.9,19.2-18.9s1,0,1.5,0c7.5,.4,16.5,4.1,16.9,19.8,.2,6.8,.2,13.7,.2,20.4,0,7.4,0,15,.3,22.5,.8,22.7,8,29.7,30.7,29.7h.4c12.6,0,25.3-.1,37.9-.2,12.3,0,24.6-.1,37-.2,.7,0,1.3,0,2,0,.9,0,1.7,0,2.6,0,1.6,0,3.8,0,6,.3,11.7,1.2,18.7,8.6,18.7,19.7,0,11.6-7.5,18.8-19.5,19-6.4,0-13.2,.1-21.6,.1s-10.1,0-15.2,0c-4.6,0-9.1,0-13.7,0-.5,.1-.9,.2-1.5,.2-4.1,0-8.3,0-12.3-.2-4,0-8.1-.2-12.1-.2s-9.9,.1-14.1,.5c-1.8,.1-3.7,.2-5.4,.2Z"/><path class="d" d="M1300.1,169.2c.4,0,.8,0,1.2,0,9.3,.5,11.5,7,11.7,14.5,.4,14.3,0,28.6,.5,42.9,.9,25.7,10.6,35,36.2,35s.3,0,.4,0c25,0,49.9-.2,74.9-.3,1.5,0,3,0,4.5,0s3.7,0,5.5,.2c8.5,.9,13.8,5.5,13.7,14.2,0,8.8-5.4,13.4-14.1,13.5-7.2,0-14.4,.1-21.6,.1s-20.2,0-30.3,0c0,0,0,.1,0,.2-8.1,0-16.3-.3-24.4-.3-4.8,0-9.7,.1-14.5,.5-1.7,.1-3.4,.2-5,.2-32.4,0-45.9-24.3-50.7-46.1-4.3-20-2.5-40.5-1.6-60.7,.4-9.3,5.6-13.7,13.7-13.7m0-11c-14.3,0-24,9.5-24.7,24.2-.1,2.4-.2,4.8-.4,7.3-1,18.3-1.9,37.3,2.2,56.3,7.5,34.8,29.9,54.8,61.4,54.8s3.9,0,5.8-.2c4-.3,8.4-.4,13.7-.4,4,0,8.1,0,12,.2,4.1,0,8.3,.2,12.4,.2s1.4,0,2.1-.2c4.4,0,8.7,0,13.1,0,5.1,0,10.1,0,15.2,0,8.4,0,15.3,0,21.7-.1,14.9-.2,24.9-10,24.9-24.4,0-14-9-23.7-23.6-25.2-2.5-.3-4.8-.3-6.6-.3s-1.7,0-2.6,0c-.6,0-1.3,0-1.9,0-12.3,0-24.5,0-36.8,.2-12.7,0-25.4,.1-38.1,.2h-.4c-19.8,0-24.5-4.6-25.2-24.4-.3-7.4-.3-15-.3-22.3,0-6.7,0-13.7-.2-20.6-.6-21.7-15.7-24.8-22.1-25.1-.6,0-1.2,0-1.7,0h0Z"/></g><g><path class="f" d="M929.2,96.9c-21.5,0-42.5,0-62.4-.2-6.2,0-11.7-2.3-15.4-6.4-3.4-3.7-5-8.7-4.5-13.9,.6-6.3,4-17,20.4-17h.3c8.2,0,17.2,0,28.2,0s12.5,0,18.8,0c6,0,12,0,17.9,0,.3,0,.6,0,.9,0,6.4,0,12.8,0,19.2,0,6.4,0,12.8,0,19.2,0,10.7,0,19.4,0,27.5,0,13.4,0,19.9,5.9,20.5,18.2,.3,5.7-1.2,10.2-4.4,13.6-3.4,3.6-8.4,5.4-14.8,5.5-25.3,.1-48.7,.2-71.3,.2Z"/><path class="d" d="M971.8,64.8c9.2,0,18.3,0,27.5,0,10.6,0,14.6,3.8,15,13,.5,9.7-5.7,13.2-13.8,13.3-23.8,.1-47.5,.2-71.3,.2s-41.6,0-62.4-.2c-9.4,0-15.2-6.5-14.5-14.3,.8-9,6.6-12,15-12s.2,0,.3,0c9.4,0,18.8,0,28.3,0s25.1,0,37.6,0h0c12.8,0,25.6-.1,38.4-.1m0-11c-6.4,0-12.8,0-19.2,0-6.4,0-12.8,0-19.2,0s-.8,0-1.2,0c-5.9,0-11.7,0-17.6,0-6.3,0-12.5,0-18.8,0-11,0-19.9,0-28.2,0h-.3c-6.9,0-12.4,1.5-16.7,4.7-3.7,2.7-8.3,7.9-9.2,17.3-.6,6.8,1.5,13.2,6,18.1,4.7,5.2,11.6,8.1,19.4,8.2,20,.1,41,.2,62.5,.2s46,0,71.3-.2c10,0,15.7-3.9,18.8-7.2,2.9-3.1,6.3-8.6,5.9-17.6-.5-10.6-5.4-23.3-25.9-23.5-8.1,0-16.8,0-27.5,0h0Z"/></g><g><path class="e" d="M868.3,248.7c-3,0-6,0-9.1,0-3,0-6,0-9,0s-1.4-.1-2-.4c-2.3,0-4.7,0-7,0-3,0-6,0-9,0-4.6,0-8.4,0-12-.1-11.3-.2-18.7-7.1-19.2-17.9-.5-11.5,6.6-19.5,18.1-20.4,10.8-.8,22.1-1.2,33.4-1.2s19.1,.3,28.9,.8c5.6,.3,11,3,14.7,7.4,3.4,4,5,9.1,4.5,14-1.2,10.9-8.7,17.3-20.4,17.7-3.5,0-7.4,.1-12,.1Z"/><path class="d" d="M852.6,214.2c9.5,0,19.1,.3,28.6,.8,8.4,.5,14.8,7.9,14,15.2-1,8.7-6.9,12.5-15.1,12.8-3.9,.1-7.9,.1-11.8,.1-6,0-12,0-18,0,0-.1,0-.3,0-.4-6,0-12,0-18,0s-7.9,0-11.8-.1c-8.1-.2-13.4-4.3-13.8-12.6-.4-8.6,4.5-14,13-14.6,11-.8,22-1.2,33-1.2m0-11c-11.5,0-22.9,.4-33.8,1.2-14.5,1.1-23.8,11.6-23.2,26.1,.6,13.7,10.3,22.8,24.6,23.1,3.6,0,7.4,.1,12.1,.1s6,0,9.1,0c2,0,4.1,0,6.1,0,.9,.2,1.9,.4,2.9,.4,3,0,6,0,9,0,3,0,6.1,0,9.1,0,4.7,0,8.5,0,12.1-.1,14.4-.4,24.2-9,25.7-22.5,.7-6.4-1.4-13-5.8-18.1-4.7-5.5-11.4-8.9-18.6-9.3-9.9-.6-19.7-.8-29.2-.8h0Z"/></g><g><path class="f" d="M520,142.9c-3.2,0-6.4-1-9.4-2.9-5.8-3.7-10.4-8.4-14.8-13-1.3-1.3-2.5-2.6-3.8-3.9l-3.7-3.7c-7-6.9-14.2-14-21.1-21.2-8.7-9.1-9.1-19-1.1-27,5-5,9.9-6.1,13.2-6.1,4.8,0,9.7,2.2,14,6.4,13.3,13,26.3,26.2,38.9,39,3.6,3.6,5.7,8.2,6,13.3,0,.2,0,.4,0,.6-.2,6.5-3.1,11.8-8.4,15.3-3.1,2.1-6.4,3.1-9.7,3.1Z"/><path class="d" d="M479.2,70.7c3.5,0,7,1.8,10.2,4.9,13.1,12.8,26,25.8,38.8,38.9,2.6,2.6,4.2,6,4.5,9.8-.1,4.6-2.1,8.3-6,10.9-2.2,1.5-4.4,2.2-6.6,2.2s-4.3-.7-6.5-2c-6.9-4.3-12-10.5-17.7-16.1-8.3-8.2-16.6-16.4-24.7-24.8-5.6-5.9-7.9-12.6-1.2-19.3,3-3.1,6.2-4.4,9.3-4.4m0-11h0c-4.3,0-10.8,1.3-17.1,7.7-7.1,7.1-7.8,14.4-7.1,19.2,.7,5.3,3.5,10.5,8.2,15.5,7,7.3,14.2,14.5,21.2,21.4l3.7,3.7c1.2,1.2,2.4,2.5,3.7,3.8,4.4,4.6,9.5,9.8,15.9,13.8,3.9,2.5,8.1,3.7,12.3,3.7s8.7-1.4,12.7-4c6.9-4.6,10.6-11.4,10.9-19.7,0-.4,0-.8,0-1.1-.5-6.3-3.1-12.1-7.6-16.7-12.6-12.9-25.6-26.1-39-39.1-6.8-6.6-13.4-8-17.8-8h0Z"/></g></g><g><g><path class="e" d="M270.5,295.2c-1.6,0-3.2,0-4.7-.2-15.2-1.2-29-8.6-38.8-20.7-9.7-12-14.2-27.6-12.3-42.8,.5-3.5,.8-7,.4-10.2-.5-3.8-2.4-5.7-5.5-5.7s-1.4,0-2.2,.3c-1,.2-2,.5-3.1,.9-1.9,.6-3.8,1.1-5.9,1.5-1.5,.2-3.1,.4-4.6,.4-13.3,0-24.6-9.3-27.4-22.6-2.9-14,6.6-28.5,21.2-32.2,2.2-.6,4.4-.8,6.6-.8,12,0,22.5,8.1,26.1,20.2,.5,1.8,.9,3.6,1.3,5.3,.3,1.3,.5,2.5,.8,3.6,.4,1.4,1.6,4.8,5.1,4.8s1.7-.2,2.7-.6c2.8-1.2,5.6-2.8,8.4-4.6,.6-.4,1.3-.8,1.9-1.1,9.7-5.7,20.5-8.8,31.1-8.8,26.4,0,48.4,17.8,54.6,44.4,.9,3.6,1.3,7.7,1.3,12.5,0,0,0,0,0,.1-.8,31.6-25.8,56.4-56.9,56.4Z"/><path class="d" d="M194.1,168c9.6,0,18.3,6.5,21.3,16.7,.9,2.9,1.2,5.9,2,8.8,1.4,5.3,5.3,8.5,9.9,8.5s3-.3,4.6-1c3.8-1.6,7.3-3.9,10.9-6,9.3-5.5,19.1-8.1,28.5-8.1,23,0,43.8,15.3,49.8,40.5,1,4.1,1.1,8.2,1.1,11.3-.7,29.3-23.9,51.5-51.9,51.5s-2.9,0-4.3-.2c-28.8-2.3-50.3-29-46.5-57.9,.5-3.8,.9-7.6,.4-11.5-.8-6.3-4.8-10.1-10.5-10.1-1.1,0-2.2,.1-3.4,.4-2.9,.7-5.7,1.8-8.7,2.2-1.3,.2-2.6,.3-3.8,.3-10.9,0-20.1-7.5-22.5-18.6-2.4-11.5,5.4-23.2,17.5-26.3,1.8-.5,3.6-.7,5.4-.7m0-10c-2.6,0-5.3,.3-7.8,1-8.3,2.1-15.4,7.1-20.1,14.2-4.8,7.2-6.5,15.7-4.8,23.9,3.3,15.6,16.6,26.6,32.3,26.6s3.6-.1,5.3-.4c2.4-.4,4.6-1,6.5-1.6,1-.3,2-.6,2.9-.8,.5-.1,.9-.1,1.1-.1s.1,0,.2,0c.1,.2,.3,.7,.4,1.4,.3,2.6,0,5.6-.4,8.9-2.1,16.5,2.7,33.5,13.3,46.6,10.7,13.2,25.7,21.1,42.3,22.5,1.7,.1,3.4,.2,5.1,.2,33.8,0,61-26.9,61.9-61.2,0,0,0-.2,0-.2,0-5.2-.5-9.6-1.4-13.6-6.8-28.9-30.7-48.2-59.5-48.2-11.5,0-23.2,3.3-33.6,9.5-.6,.4-1.3,.8-1.9,1.1-2.7,1.6-5.3,3.2-7.8,4.3-.2,.1-.4,.1-.5,.2-.1-.2-.3-.5-.4-1-.3-1-.5-2.1-.7-3.3-.4-1.7-.8-3.7-1.4-5.8-4.3-14.2-16.7-23.8-30.9-23.8h0Z"/></g><g><path class="e" d="M63.4,119.4c-9.7,0-18.8-3.9-25.7-10.9-6.8-6.9-10.5-15.9-10.4-25.4,.2-19.7,15.9-35.1,35.7-35.1,9.6,0,18.6,3.7,25.2,10.4,6.8,6.8,10.4,16.1,10.4,26-.2,18.6-16.6,35-35.1,35h-.1Z"/><path class="d" d="M63,53h0c17.3,0,30.7,13.8,30.6,31.4-.1,15.9-14.3,30-30.1,30s0,0,0,0c-17.1,0-31.3-14.3-31.1-31.2,.2-17,13.6-30.2,30.7-30.2m0-10h0c-22.6,0-40.5,17.6-40.7,40.1-.1,10.8,4.1,21.1,11.9,28.9,7.8,7.9,18.2,12.3,29.2,12.4h.1c10.2,0,20.4-4.4,28-11.9,7.6-7.6,12-17.8,12.1-28,.1-11.3-4.1-21.8-11.8-29.6-7.6-7.7-17.8-11.9-28.7-11.9h0Z"/></g><g><path class="e" d="M39.3,193.6c-.3,0-.5,0-.8,0-19.6-.5-34-15.9-33.5-35.8,.4-17.7,15.6-32.1,33.8-32.1s.5,0,.7,0c18.7,.4,33.6,16.1,33.2,35.1-.4,17.5-16,32.8-33.4,32.8Z"/><path class="d" d="M38.8,130.7c.2,0,.4,0,.6,0,16.1,.3,28.7,13.6,28.3,30-.3,14.8-13.8,27.9-28.4,27.9s-.4,0-.6,0c-16.8-.4-29.1-13.6-28.7-30.7,.4-15,13.3-27.2,28.8-27.2m0-10h0c-20.9,0-38.3,16.6-38.8,37-.3,10.9,3.5,21.1,10.6,28.7,7.1,7.6,17,12,27.8,12.2,.3,0,.6,0,.9,0,20,0,38-17.6,38.4-37.7,.2-10.5-3.6-20.5-10.7-28.1-7.2-7.6-16.9-11.9-27.4-12.1-.3,0-.5,0-.8,0h0Z"/></g><g><path class="e" d="M124.7,72.9c-9.4,0-18.1-3.7-24.4-10.1-6.2-6.4-9.6-14.9-9.6-24,.2-19.2,14.7-33.7,33.7-33.7h.5c19,.3,33.2,15,33.1,34.4-.1,18.1-15.2,33.5-33,33.5h-.2Z"/><path class="d" d="M124.3,10c.1,0,.3,0,.4,0,16.1,.2,28.2,12.8,28.1,29.3,0,15.3-13.1,28.5-28,28.5s-.1,0-.2,0c-16.5-.1-29.2-12.8-29.1-29.1,.2-16.6,12.3-28.7,28.7-28.7m0-10h0c-21.8,0-38.5,16.6-38.7,38.7,0,10.5,3.8,20.2,11,27.5,7.3,7.4,17.2,11.6,28,11.6h.3c20.5,0,37.9-17.6,38-38.4,0-10.6-3.8-20.5-10.8-27.8C145.1,4.3,135.4,.2,124.9,0c-.2,0-.4,0-.6,0h0Z"/></g><g><path class="e" d="M189.4,62.8c-7.9,0-15.2-3.1-20.7-8.7-5.4-5.5-8.4-12.8-8.3-20.5,.2-16,12.8-28.5,28.8-28.5h.2c7.7,0,14.8,3,20.1,8.4,5.5,5.5,8.4,13.1,8.3,21.3-.2,15.2-13.1,28.1-28.3,28.1h-.2Z"/><path class="d" d="M189.2,10c0,0,.1,0,.2,0,13.4,0,23.6,10.8,23.5,24.6-.1,12.5-10.8,23.2-23.3,23.2s0,0-.1,0c-13.4,0-24.2-10.9-24-24.2,.1-13.2,10.6-23.5,23.8-23.5m0-10h0c-18.8,0-33.7,14.7-33.8,33.4,0,9.1,3.4,17.6,9.8,24.1,6.4,6.5,15,10.2,24.2,10.2h.2c17.9,0,33.1-15.1,33.3-33.1,0-9.5-3.4-18.3-9.8-24.8C206.9,3.6,198.5,0,189.5,0h-.2Z"/></g><g><path class="e" d="M61.5,258c-16.2,0-28.9-12.7-29-28.9,0-16.1,12.5-28.8,28.6-28.9h.2c16,0,28.6,12.9,28.7,29.4,0,15.3-12.8,28.2-28.2,28.4h-.2Z"/><path class="d" d="M61.3,205.3c13.2,0,23.6,10.7,23.7,24.4,0,12.5-10.6,23.2-23.2,23.3,0,0-.1,0-.2,0-13.5,0-23.9-10.4-24-23.9,0-13.4,10.2-23.8,23.6-23.8,0,0,0,0,.1,0m0-10v0h-.2c-18.8,0-33.6,15-33.5,33.9,0,19,15,33.9,34,33.9h.3c18.1-.1,33.2-15.4,33.1-33.4-.1-19.3-14.9-34.3-33.7-34.3h0Z"/></g><g><path class="e" d="M106.2,292.5c-12.6-.2-22.4-10.3-22.4-23.1,0-13,9.9-23,22.9-23.1h.2c6,0,11.7,2.5,16.1,7,4.3,4.5,6.7,10.3,6.7,16.4,0,12.3-10.6,22.8-23.2,22.8h-.3Z"/><path class="d" d="M106.9,251.4c9.6,0,17.8,8.4,17.8,18.4,0,9.7-8.3,17.8-18.2,17.8s-.1,0-.2,0c-9.9-.1-17.5-8-17.4-18,0-10.4,7.6-18,17.9-18.1,0,0,.1,0,.1,0m0-10h-.2c-15.8,.1-27.8,12.2-27.8,28.1,0,15.6,11.9,27.9,27.3,28.1h.3c7.4,0,14.4-2.9,19.8-8.1,5.4-5.3,8.4-12.3,8.4-19.7,0-7.4-2.9-14.5-8.1-19.9-5.3-5.5-12.3-8.5-19.7-8.5h0Z"/></g><g><path class="e" d="M237.3,78.1c-12.7,0-22.3-9.5-22.4-22.1,0-6.2,2.2-11.9,6.3-16,4.1-4.1,9.7-6.4,15.9-6.4,12.7,0,22.1,9.4,22.3,22.3,0,5.9-2.1,11.4-6.3,15.6-4.2,4.2-9.8,6.6-15.7,6.6h0Z"/><path class="d" d="M237.1,38.6h0c9.9,0,17.1,7.2,17.2,17.4,.1,9.4-7.6,17.1-17,17.1s0,0,0,0c-10,0-17.4-7.3-17.4-17.2,0-10.1,7.1-17.3,17.2-17.4m0-10h0c-7.5,0-14.4,2.8-19.4,7.8-5,5.1-7.8,12-7.7,19.6,.1,15.4,11.9,27.1,27.4,27.1,7.3,0,14.1-2.9,19.3-8.1,5.1-5.2,7.8-12,7.7-19.2-.2-15.5-12-27.2-27.2-27.2h0Z"/></g><g><path class="e" d="M152.9,301.6c-10.3,0-19.1-8.7-19.1-18.9,0-4.9,2-9.6,5.5-13.1,3.5-3.5,8.2-5.4,13.2-5.4,10.4,0,18.3,8.1,18.3,18.7,0,5-2,9.9-5.5,13.4-3.4,3.4-7.8,5.3-12.4,5.3h0Z"/><path class="d" d="M152.5,269.1s0,0,0,0c7.6,0,13.2,5.9,13.3,13.8,0,7.4-5.9,13.7-12.9,13.7h0c-7.6,0-14.1-6.4-14.1-13.9,0-7.4,6.2-13.6,13.7-13.6m0-10h0c-6.3,0-12.2,2.4-16.7,6.9-4.5,4.5-7,10.4-7,16.7,0,13,11,23.9,24.1,23.9,6,0,11.7-2.4,16-6.8,4.5-4.5,7-10.7,6.9-17-.1-13.5-10.1-23.7-23.3-23.7,0,0,0,0,0,0h0Z"/></g><g><path class="e" d="M267.7,105.9c-4.7-.1-9.4-2.3-12.8-5.9-3.4-3.6-5.2-8.4-5.1-13.1,.3-9.7,8.3-17.3,18.1-17.3s.4,0,.5,0c10.3,.3,18,8.3,17.8,18.7-.1,9.4-8.6,17.6-18.2,17.6s-.3,0-.4,0Z"/><path class="d" d="M268,74.6c.1,0,.3,0,.4,0,7.5,.2,13.1,6,13,13.6,0,6.7-6.4,12.7-13.2,12.7s-.2,0-.3,0c-7.2-.2-13.2-6.6-13-13.8,.2-7,6.1-12.5,13.2-12.5m0-10h0c-12.5,0-22.7,9.7-23.1,22.1-.2,6,2.1,12.1,6.4,16.7,4.3,4.6,10.2,7.3,16.3,7.4,.2,0,.4,0,.6,0,12.4,0,23.1-10.3,23.2-22.5,0-6.3-2.2-12.2-6.4-16.6-4.2-4.4-10-7-16.3-7.1-.2,0-.5,0-.7,0h0Z"/></g><g><path class="e" d="M193.4,295.5c-8.2,0-15.4-7.2-15.3-15.1,0-8.4,7.3-15.8,15.4-15.8s.4,0,.6,0c8.1,.3,14.8,7.7,14.7,16.2-.1,8.2-7,14.8-15.3,14.8h-.2Z"/><path class="d" d="M193.5,269.5c.1,0,.2,0,.4,0,5.5,.2,10,5.3,9.9,11.1,0,5.5-4.6,9.9-10.3,9.9s0,0-.1,0c-5.5,0-10.4-4.8-10.3-10.1,0-5.8,5-10.9,10.4-10.9m0-10h0c-11,0-20.3,9.5-20.4,20.8,0,10.8,9.2,20,20.2,20.2h.3c11,0,20.1-8.8,20.3-19.7,.2-11.2-8.6-20.8-19.5-21.2-.3,0-.5,0-.8,0h0Z"/></g><g><path class="e" d="M284.6,137.1c-8.1,0-15.4-6.9-15.6-14.7-.1-4,1.5-8.1,4.4-11.1,2.9-3,6.8-4.8,10.7-4.8h.2c8.5,0,14.9,6.7,14.9,15.6,0,4-1.4,7.7-4.2,10.5-2.8,2.9-6.4,4.5-10.4,4.5h0Z"/><path class="d" d="M284.3,111.5c5.7,0,9.9,4.5,9.9,10.6,0,5.5-4.2,10-9.6,10,0,0,0,0,0,0-5.3,0-10.4-4.7-10.6-9.8-.2-5.6,4.7-10.7,10.2-10.8,0,0,0,0,.1,0m0-10h-.3c-5.3,0-10.5,2.4-14.3,6.4-3.8,4-5.9,9.4-5.8,14.7,.3,10.4,10,19.5,20.6,19.5h.1c5.3,0,10.3-2.2,14-6,3.6-3.8,5.6-8.8,5.6-14,0-11.5-8.8-20.6-19.9-20.6h0Z"/></g><g><path class="e" d="M289.7,168.3c-3.5,0-6.9-1.5-9.5-4.1-2.6-2.6-4.1-6.1-4.1-9.6,0-7,6.2-13,13.5-13.1,3.6,0,7,1.4,9.5,4,2.6,2.6,4,6.1,4,9.7,0,7.1-6.2,13.1-13.4,13.1h0Z"/><path class="d" d="M289.7,146.5c4.6,0,8.5,3.9,8.4,8.7,0,4.3-4,8.1-8.4,8.1h0c-4.5,0-8.6-4.1-8.6-8.7,0-4.3,4-8.1,8.5-8.1,0,0,0,0,0,0m0-10s0,0-.1,0c-10.1,0-18.4,8.1-18.5,18,0,4.8,2,9.6,5.5,13.2,3.5,3.5,8.3,5.5,13,5.5,9.9,0,18.4-8.3,18.4-18,0-5-1.9-9.7-5.4-13.3-3.5-3.5-8.1-5.5-13-5.5h0Z"/></g></g></g></svg>