<?xml version="1.0" encoding="UTF-8"?><svg id="b" xmlns="http://www.w3.org/2000/svg" viewBox="0 0 2217.4 524"><defs><style>.d{fill:#58c4dc;}.e{fill:#23272f;}</style></defs><g id="c"><g><path class="d" d="M407,518c-10,0-21-2.1-32.7-6.2-22-7.8-45.2-22.1-69-42.6-3.5-2.9-7.2-6.3-11.4-10.2-2.6,2.4-5.2,4.8-7.8,7-24.4,21.4-49.5,37-72.5,45.1-12.5,4.4-24.2,6.6-34.7,6.6s-21.2-2.5-29.7-7.5c-16.4-9.4-27.2-27.2-32-53-4.2-23.1-3.4-50.4,2.4-81.2,.9-4.7,1.9-9.5,3.1-14.8-3.3-1-6.5-2.1-9.9-3.2-30.5-10.3-56.6-24.3-75.4-40.4-20.9-17.8-31.5-36.7-31.5-56.2s10.1-37.1,30-54.2c17.9-15.2,42-28.2,71.5-38.4,5.1-1.8,10.3-3.5,15.6-5-1.1-4.6-2-9-2.9-13.4-6.1-31.3-7.2-59-3.1-82.4,4.5-26.4,15.2-44.7,31.7-54.2,8.4-4.9,18.3-7.4,29.3-7.4s1.2,0,1.8,0c10.4,.2,21.9,2.7,34.3,7.3,23.6,8.8,48.4,24.7,73.7,47.1h0c1.7,1.6,3.5,3.2,5.2,4.8,3.4-3.1,6.7-6.2,10.1-9.1,24.1-21,47.6-35.7,69.8-43.9,11.7-4.3,22.7-6.6,32.7-6.8h1.9c10.6,0,20,2.5,28.1,7.2,17.1,9.8,28.1,28.9,32.8,56.6,4.1,24.6,2.7,54.8-4,87.4-.5,2.3-1,4.6-1.5,7,4.4,1.3,8.7,2.7,12.8,4.2,30.1,10.3,54.6,23.2,72.9,38.5,20.6,17.3,31.1,35.7,31.1,54.6s-11,38.9-32.7,56.7c-19.5,16-45.7,29.5-77.7,40.1-1.7,.6-3.4,1.1-5.2,1.7,.7,3,1.4,6.2,2.1,9.7,6.4,32.4,7.4,61.1,2.8,85.5-5,27-16.1,45.7-32.9,55.4-8.4,4.9-18.2,7.4-29.2,7.4h0Zm-88-84.8c3.2,3,6.4,5.9,9.6,8.6,19.8,17,40.2,29.8,57.6,36,7.6,2.7,14.5,4,20.5,4s8.6-.9,11.4-2.5c5.3-3.1,12.2-12.8,15.5-30.8,3.6-19.4,2.6-44.9-2.7-71.9-.4-2.2-1-4.8-1.6-7.6-21,4.6-44,8-68.2,10.3-13.9,20-28,38-42.1,53.8Zm-161.4-63c-1.1,4.6-1.9,8.7-2.7,12.6-4.9,25.9-5.7,50-2.4,67.9,2.7,14.1,8.1,24.7,14.6,28.4,2,1.2,5.6,2.5,11.9,2.5s14.3-1.5,22.5-4.5c18.6-6.5,40.2-20.1,60.9-38.2,2-1.7,4-3.5,6.3-5.7-14.7-16.2-29.2-34.2-43.1-53.6-24.3-2-47.1-5.2-68-9.6Zm115,12.1c7,8.8,14.1,17.2,21.2,25.1,6.8-7.8,13.7-16.2,20.6-25.2-7.4,.2-14.5,.3-21.5,.3s-13.5,0-20.2-.2Zm-27.3-37.2c16.6,1,32.2,1.4,47.6,1.4s32.5-.5,48-1.6c8.6-13,17.1-26.7,25.2-40.7,7.7-13.2,15.3-27.5,22.6-42.5-6.8-13.8-14.4-27.9-22.6-42-8.1-14-16.7-27.7-25.3-40.5-16.3-1.1-32.4-1.7-47.9-1.7s-31.5,.6-47.8,1.7c-9.2,13.6-17.7,27.2-25.4,40.6-8.3,14.3-15.8,28.5-22.4,42.3,7,14.5,14.6,28.7,22.5,42.3,7.8,13.4,16.4,27.1,25.5,40.7Zm-77.9-9.7c10.3,2.1,21.1,3.9,32.2,5.3-3.9-6.2-7.5-12.3-11-18.3-3.4-6-6.8-12-10-17.9-4.2,10.6-7.9,20.9-11.2,30.9Zm240.4-32c-3.5,6.5-7,12.7-10.5,18.8-3.4,5.8-6.9,11.9-10.7,18,11.3-1.6,22.3-3.5,32.8-5.8-3.3-9.8-7.2-20.2-11.7-31ZM132.7,198.6c-4.8,1.4-9.3,2.9-13.4,4.3-24.7,8.6-46,19.9-60,31.9-10.9,9.3-17.4,19.3-17.4,26.7s5,16.9,18.9,28.8c15,12.8,37.6,24.8,63.6,33.7,2.4,.8,5.1,1.7,7.9,2.6,6.8-21.1,15.2-42.7,25.2-64.5-9.8-21.5-18.1-42.8-24.8-63.5Zm296,63.1c10.4,22.1,19.1,43.5,25.8,63.7,1.2-.4,2.4-.8,3.7-1.2,27-9,50.5-21,66.1-33.8,18.1-14.9,19.5-25.9,19.5-28.9s-1.3-12.9-18.1-26.9c-14.3-12-36.2-23.4-61.6-32.1-3.6-1.2-7.2-2.4-10.7-3.5-6.6,20.4-14.9,41.4-24.7,62.7Zm-42-77.4c3.4,5.6,6.9,11.4,10.4,17.4,3.5,6,6.9,12.1,10.2,18.2,4.2-10.4,7.9-20.4,11-30-10.5-2.2-21.1-4.1-31.6-5.7Zm-219,5.5c3.3,10.1,7,20.2,10.8,29.9,3.5-6.6,6.8-12.4,9.9-17.9,3.5-6.1,7-11.9,10.5-17.6-10.9,1.6-21.4,3.5-31.2,5.6Zm193.1-45c23.7,2.3,46.3,5.8,67.3,10.4,.4-1.8,.8-3.5,1.1-5.2,5.8-28.1,7.2-54.4,3.9-74.2-3.9-23.2-12.7-29.9-15.3-31.4-1.8-1.1-5.1-2.3-10.7-2.3s-.7,0-1,0c-6.1,.2-13.1,1.7-20.7,4.5-17.5,6.4-38.4,19.7-58.6,37.3-2.8,2.4-5.6,5-8.4,7.6,14.4,15.9,28.6,33.8,42.4,53.3ZM177,42.7c-4.2,.1-7.7,1-10.1,2.4-2.4,1.4-10.5,7.6-14.3,29.2-3.2,18.7-2.1,43.3,3.1,69.3,.7,3.8,1.6,7.6,2.4,11.3,21.3-4.5,43.8-8,67.2-10.3,13.9-19.3,28.2-37.2,42.7-53.1-1.3-1.2-2.6-2.4-4-3.6-21.3-19-43.4-33.3-62.3-40.4-8.2-3-15.6-4.7-22.1-4.9h-2.6Zm115.9,98.8c6.7,0,13.6,.1,20.8,.3-7-8.9-13.8-17.1-20.5-24.4-7,7.8-13.9,16-20.7,24.4,7-.2,13.8-.3,20.4-.3Zm1848.4,363.9c-50.8,0-80-30.5-80-83.6V210.6h-54v-57.4h54V62.4h64s0,90.8,0,90.8h68v57.4h-68v200.2c0,17.7,7.4,36.6,28,36.6s24.9-5.9,29.3-11.5l6.3-8,21.4,51.5-2.7,2.8c-10.3,10.6-30.1,23.2-66.3,23.2Zm-272,0c-48.6,0-92.7-18.5-124.1-52.1-30.9-33-47.9-78.6-47.9-128.5s17-94.9,47.9-127.8c31.4-33.5,75.5-52,124.1-52s94.5,19,126.7,59.9l3.4,4.3-43,40-4-5.5c-20-27.4-45.9-40.7-79.2-40.7-65.8,0-110,48.9-110,121.8s44.2,122.6,110,122.6,58.7-13.4,79.2-41l4-5.4,43,39.9-3.4,4.3c-32.3,41-72.6,60.1-126.7,60.1Zm-400,0c-30.5,0-60.7-10.7-82.9-29.3-17.9-15-39.1-42.2-39.1-86.7s13.6-66.1,39.2-87.1c21.8-17.9,52-28.1,82.8-28.1s76.9,12.4,104,36.9v-45.3c0-39-30.6-64.2-78-64.2s-68.7,13.6-97.6,44.1l-5.1,5.4-30.9-45.8,3.4-3.5c37.5-38.8,80.8-56.8,136.3-56.8s71,9.4,93.9,27.1c26.6,20.5,40.1,51.1,40.1,90.9v234.2h-62v-29.5c-27.8,24.7-63.5,37.7-104,37.7Zm18-182.2c-44.7,0-76,27.6-76,67s31.3,66,76,66,68.2-13.9,86-37.2v-58.6c-17.9-23.3-49.9-37.2-86-37.2Zm-338,182.2c-48.9,0-93.1-17.8-124.6-50.2-31.7-32.6-49.2-79-49.2-130.4s17-93.7,47.9-127c31.5-34,74.8-52.8,121.9-52.8s91.5,18.6,121.1,53.7c27.7,32.8,42.9,79.1,42.9,130.3v19h-266.9c5.8,52.2,42.2,102.8,112.9,102.8s73.3-15,97.7-40.2l5-5.2,31.1,43.7-3.5,3.6c-33.4,34.4-80.5,52.6-136.3,52.6Zm97.6-207.2c-4.4-48.6-37.9-98.6-103.6-98.6s-96.3,56.8-100.9,98.6h204.5Zm-371.1,199l-116.8-182.2h-82.1v182.2h-69.2V26.8h190.2c43.2,0,80.4,13.5,107.5,39,27.7,26,42.3,62.3,42.3,105s-13.1,74.6-37.7,99.8c-19.9,20.3-47,33.7-76.9,38.4l124.6,188.2h-81.8Zm-84.7-244.4c50.3,0,85.4-33.7,85.4-82s-34.3-81.2-85.4-81.2h-114.2V252.8h114.2Zm-498.2,64.9c-31,0-56.1-25.3-56.1-56.2,0-30.9,25.2-56.1,56.1-56.1,31,0,56.2,25.2,56.2,56.1,0,31-25.2,56.2-56.2,56.2h0Z"/><path class="e" d="M407.7,12c9,0,17.6,2,25.1,6.4,16.7,9.6,25.9,28.8,29.9,52.5,3.9,23.6,2.7,52.6-4,85.2-.8,4.1-1.8,8.2-2.8,12.3,6.2,1.8,12.2,3.7,18,5.7,29.5,10.1,53.6,22.9,71,37.4,17.4,14.6,28.9,31.4,28.9,50s-12,36.9-30.5,52.1-44.2,28.6-75.8,39c-3.4,1.1-6.9,2.2-10.4,3.3,1.2,5,2.3,10.1,3.3,15,6.3,31.8,7.1,60.1,2.8,83.2-4.3,23.1-13.6,41.8-30,51.3-7.8,4.5-16.7,6.6-26.2,6.6s-20.1-2.1-30.7-5.9c-21-7.4-43.8-21.4-67.1-41.5-5.1-4.3-10.2-9-15.3-13.9-3.9,3.8-7.8,7.4-11.7,10.8-24.4,21.4-48.5,36.2-70.6,44-11.4,4-22.4,6.3-32.7,6.3s-18.8-2.1-26.7-6.7c-15.9-9.1-25-27-29.1-48.9-4-21.9-3.3-48.7,2.4-79,1.2-6.5,2.7-13.2,4.4-20-5.2-1.5-10.2-3.1-15.1-4.8-30.7-10.4-55.6-24-73.4-39.3-17.8-15.2-29.4-32.7-29.4-51.6s11-35.1,27.9-49.6c16.9-14.4,40.5-27.2,69.6-37.3,6.6-2.3,13.6-4.5,20.8-6.5-1.6-6.4-3-12.6-4.2-18.7-6-30.6-7-57.8-3.1-80.2,3.8-22.3,12.6-40.7,28.8-50,7.8-4.6,16.8-6.6,26.3-6.6,.6,0,1.1,0,1.7,0,10.2,.2,21.1,2.8,32.3,6.9,22.4,8.4,46.9,23.9,71.8,46,3.1,2.8,6.2,5.6,9.3,8.6,4.7-4.5,9.4-8.8,14-12.8,23.5-20.5,46.6-35,67.9-42.8,10.6-3.9,21-6.3,30.8-6.5h1.8m24.9,150.4c.9-3.8,1.7-7.5,2.5-11.2,6.3-30.4,7.2-56.8,3.9-76.4-3.3-19.5-10.6-31.2-18.2-35.6-3.3-1.9-7.9-3.1-13.7-3.1-.4,0-.8,0-1.1,0-6.3,.2-13.9,1.6-22.6,4.8-17.5,6.4-38.6,19.4-60.5,38.4-4.3,3.7-8.5,7.7-12.9,11.8,16.2,17.5,32.2,37.5,47.5,59.3,26.6,2.5,51.9,6.5,75.1,11.9m-279-.3c23.1-5.2,48.4-9.2,74.9-11.7,15.5-21.8,31.6-41.7,47.8-59.1-2.8-2.7-5.6-5.3-8.4-7.8-23.1-20.6-45.6-34.6-64.2-41.5-9.3-3.5-17.4-5.1-24.1-5.3h-2.4c-5.6,.1-10.1,1.3-13.4,3.2-7.1,4.1-14,15-17.2,33.3-3.1,18.3-2.5,43.1,3.1,71.5,1.1,5.6,2.4,11.4,3.9,17.3m106.3-13.8c10.9-.5,21.9-.8,33-.8s22.4,.3,33.3,.8c-10.9-14.5-21.9-27.9-33-39.8-11.1,12-22.3,25.3-33.3,39.8m33,204.2c17.5,0,34.7-.6,51.4-1.8,9.3-13.9,18.3-28.4,27-43.5,8.8-15.1,16.8-30.4,24.1-45.5-7.3-14.9-15.4-30-24.1-45-8.7-15-17.8-29.5-27.2-43.3-16.6-1.2-33.7-1.9-51.2-1.9s-34.5,.7-51.1,1.9c-9.4,13.8-18.6,28.3-27.3,43.4-8.7,15.1-16.7,30.2-23.9,45.3,7.2,15,15.2,30.2,24,45.3,8.8,15.1,18,29.6,27.4,43.5,16.6,1,33.6,1.6,50.9,1.6m-115-118.7c5-9.6,10.2-19.3,15.8-29,5.6-9.7,11.3-19.1,17.2-28.3-17.9,2.3-34.9,5.2-50.9,8.8,4.9,15.6,10.8,31.9,17.9,48.5m230.2,0c7.1-16.6,13.2-32.8,18-48.4-16-3.6-33.2-6.7-51.2-8.9,5.8,9.1,11.5,18.5,17.1,28.1,5.6,9.7,11,19.5,16.1,29.2m-271.8,100.1c7.1-23,16.4-47.2,27.8-71.9-11.2-24.3-20.4-48.2-27.4-70.9-6.7,1.9-13.2,3.9-19.3,6-27,9.4-48.1,21.2-61.9,33-13.8,11.8-19.5,23-19.5,31.3s6.2,20.8,21,33.4c14.7,12.6,37.1,25.1,65.5,34.8,4.5,1.5,9.1,3,13.8,4.3m314.3-1.2c3.2-.9,6.3-1.9,9.4-2.9,29.4-9.8,52.7-22.3,68.1-34.9,15.3-12.6,21.7-24.8,21.7-33.5s-6-19.6-20.2-31.5c-14.3-12-36.1-23.8-63.5-33.2-5.3-1.8-10.9-3.6-16.6-5.3-7,22.6-16.2,46.2-27.4,70.2,11.6,24.3,21.3,48.3,28.5,71.1m-75.7,15c18.4-2.2,36-5.2,52.3-8.9-5-15.8-11.4-32.4-18.8-49.4-5.2,9.9-10.6,19.8-16.3,29.7-5.6,9.7-11.4,19.3-17.2,28.6m-163.5,.4c-6-9.4-11.9-19-17.6-28.8-5.6-9.7-10.9-19.4-15.9-29.1-7.2,17.1-13.3,33.7-18.2,49.6,16.1,3.5,33.5,6.3,51.7,8.3m195.4,139.7c6,0,10.8-1.2,14.4-3.3,7.4-4.3,14.9-15.8,18.4-34.9,3.5-19,3.1-44.7-2.7-74.1-.9-4.4-1.9-9-3.1-13.6-23.4,5.4-49,9.3-76,11.7-15.2,22-31,42.2-47.1,59.8,4.7,4.6,9.4,8.9,14.1,12.9,21.6,18.6,42.4,31,59.5,37.1,8.7,3.1,16.3,4.4,22.5,4.4m-227.8-.3c6.8,0,15-1.4,24.5-4.8,18.2-6.4,40.3-19.6,62.8-39.3,3.6-3.1,7.1-6.4,10.7-9.9-16.3-17.5-32.6-37.6-48.2-59.6-26.8-2.1-52.3-5.7-75.7-10.9-1.6,6.4-3,12.6-4.1,18.6-5.3,28.1-5.7,52.3-2.4,70.1,3.4,17.8,10.3,28.4,17.5,32.5,3.6,2.1,8.6,3.3,14.9,3.3m113.8-111.1c-11.1,0-22-.2-32.8-.6,11.1,14.6,22.5,28.2,33.8,40.4,11-12.2,22-25.8,32.9-40.6-11.2,.5-22.5,.8-33.9,.8M797.9,32.8c84,0,143.8,53.6,143.8,138s-56.4,127.8-119,133.4l123.8,187h-67.4l-116.8-182.2h-91.4v182.2h-57.2V32.8h184.2m-127,226h120.2c54.2,0,91.4-36.4,91.4-88s-37.2-87.2-91.4-87.2h-120.2v175.2M2119.3,68.4v90.8h68v45.4h-68v206.2c0,24.6,12,42.6,34,42.6s28-6.2,34-13.8l16,38.4c-12,12.4-32,21.4-62,21.4-48,0-74-28.2-74-77.6V204.6h-54v-45.4h54V68.4h52m-250,82.6c60,0,96,24.6,122,57.6l-34,31.6c-22-30.2-50-43.2-84-43.2-72,0-116,54.2-116,127.8s44,128.6,116,128.6,62-13.8,84-43.4l34,31.6c-26,33-62,57.8-122,57.8-98,0-166-75.6-166-174.6s68-173.8,166-173.8m-368,0c70,0,128,31.6,128,112v228.2h-50v-37.8c-28,30.2-66,46-110,46s-116-37.8-116-110,60-109.2,116-109.2,82,14.4,110,45.4v-59.8c0-44.8-36-70.2-84-70.2s-72,14.4-102,46l-24-35.6c36-37.2,78-55,132-55m-14,311.2c36,0,72-13.6,92-41.2v-62.6c-20-27.4-56-41.2-92-41.2s-82,30.2-82,73,34,72,82,72m-342-311.2c100,0,158,78.2,158,178v13h-267.4c4,62.6,48,114.8,119.4,114.8s76-15.2,102-42l24,33.8c-32,33-78,50.8-132,50.8-97,0-167.8-70.8-167.8-174.6s68.8-173.8,163.8-173.8m-109.4,153.2h217.4c-2-49.4-34-110.6-110-110.6s-104.8,59.8-107.4,110.6M292.9,211.4c27.7,0,50.1,22.4,50.2,50.1h0c0,27.8-22.5,50.2-50.2,50.2h0c-27.7,0-50.1-22.5-50.1-50.2,0-27.7,22.4-50.1,50.1-50.1h0M407.7,0h-2.1c-10.7,.2-22.4,2.6-34.7,7.2-22.9,8.4-47,23.5-71.6,45-2,1.8-4.1,3.6-6.1,5.5-.4-.4-.8-.7-1.2-1.1h0s0,0,0,0c-25.9-22.9-51.3-39.2-75.6-48.2-13-4.8-25.2-7.4-36.2-7.7-.6,0-1.3,0-2,0-12.1,0-22.9,2.8-32.3,8.2h0c-18.2,10.5-29.8,30.1-34.6,58.4-4.2,24.1-3.1,52.5,3.2,84.6,.5,2.7,1.1,5.4,1.7,8.1-3.5,1.1-7,2.3-10.5,3.5-30.3,10.5-55,23.8-73.4,39.5C10.8,221,0,240.8,0,261.5s11.3,41.7,33.6,60.7c19.3,16.6,46.1,30.9,77.3,41.5,1.6,.6,3.2,1.1,4.7,1.6-.7,3.3-1.4,6.5-2,9.7-5.9,31.5-6.7,59.6-2.4,83.3h0s0,0,0,0c5.2,27.6,16.9,46.8,34.9,57.1,9.5,5.5,20.5,8.3,32.7,8.3s23.5-2.3,36.7-7c24.1-8.5,49.2-24.1,74.5-46.3,1.3-1.1,2.5-2.2,3.8-3.4,2.6,2.4,5.1,4.6,7.5,6.6,24.3,21,48.2,35.7,70.9,43.7,12.3,4.4,24,6.6,34.7,6.6s22.8-2.8,32.2-8.2c18.4-10.6,30.4-30.6,35.8-59.5,4.7-25.1,3.7-54.6-2.8-87.7h0s0,0,0,0c-.3-1.5-.6-3-.9-4.5h0c32.8-10.8,59.6-24.6,79.7-41.1,23.1-19,34.9-39.7,34.9-61.4s-11.2-40.7-33.2-59.2c-18.9-15.7-44-29-74.8-39.6-2.5-.9-5.1-1.7-7.7-2.6,.1-.6,.2-1.2,.3-1.7,6.9-33.8,8.3-63.9,4.1-89.5h0s0,0,0,0c-5-29.6-17-50.1-35.7-60.8C429.8,2.8,419.4,0,407.8,0h0Zm-80.9,91.9c1.3-1.2,2.6-2.3,3.9-3.5h0s0,0,0,0c19.8-17.1,39.9-30,56.8-36.2,6.9-2.6,13.4-4,18.8-4.1,.3,0,.6,0,.8,0,4.8,0,7,1.1,7.6,1.4h0s0,0,0,0c3.2,1.8,9.4,9.6,12.3,27.2,3.2,18.9,1.9,44.2-3.7,71.3-18.7-3.9-38.6-6.9-59.4-9-12.1-17-24.7-32.8-37.3-47.2h0Zm-168.4-16.6c2.8-16.2,8.5-23.3,11.4-25,.7-.4,2.9-1.4,7.2-1.6h.1s2.2,0,2.2,0c5.7,.2,12.7,1.7,20.1,4.5,18.1,6.7,39.3,20.5,59.9,38.8-12.7,14.3-25.3,30.1-37.5,47-20.5,2.1-40.4,5.1-59.3,8.9-.4-1.8-.8-3.6-1.1-5.4-5-25.4-6.1-49.2-3.1-67.2h0Zm127,60.2c2.6-3.1,5.2-6.1,7.8-9.1,2.5,2.9,5.1,6,7.7,9.1-2.7,0-5.4,0-8,0s-5,0-7.5,0h0Zm-36.9,49.4c15.2-1,30.1-1.5,44.4-1.5s29.4,.5,44.5,1.5c8,12,15.9,24.7,23.5,37.7,7.6,13.1,14.7,26.2,21.1,39-6.9,13.9-14,27.2-21.1,39.4h0s0,0,0,0c-7.5,13-15.3,25.8-23.3,37.9-14.5,.9-29.5,1.4-44.7,1.4s-28.9-.4-44.3-1.2c-8.5-12.7-16.4-25.4-23.7-37.9-7.4-12.7-14.4-25.9-21-39.3,6.3-12.8,13.3-26,21-39.3,7.2-12.5,15.1-25.2,23.6-37.8h0Zm-72.9,9.3c3.8-.7,7.7-1.4,11.6-2.1-1.3,2.2-2.6,4.4-3.9,6.6-1.2,2.2-2.5,4.4-3.8,6.6-1.4-3.7-2.7-7.4-4-11.1h0Zm230.9,11.5c-1.3-2.4-2.7-4.8-4.1-7.1h0s0,0,0,0c-1.3-2.2-2.5-4.3-3.8-6.4,4,.7,8,1.4,12,2.2-1.3,3.7-2.6,7.5-4.1,11.3h0ZM126.3,318.3c-25.3-8.6-47.2-20.2-61.6-32.5-13.2-11.3-16.8-20.6-16.8-24.3s4-12.5,15.3-22.2c13.4-11.5,34-22.4,58.1-30.8,2.4-.8,4.9-1.6,7.5-2.5,6.1,18.3,13.5,37.1,22,56-8.7,19.2-16.2,38.3-22.4,57-.7-.2-1.5-.5-2.2-.7h0Zm309-56.7c8.5-18.7,15.9-37.2,21.9-55.1,1.7,.5,3.3,1.1,5,1.7,24.7,8.5,45.9,19.5,59.6,31,12.6,10.5,15.9,19,15.9,22.3s-3.6,13-17.3,24.2c-14.7,12-36.7,23.4-62.2,32.1-6.2-18-13.9-36.8-22.9-56.2h0Zm-37,70.7c1.4-2.4,2.8-4.8,4.2-7.1,1.5-2.6,2.9-5.1,4.4-7.8,1.6,4.3,3.2,8.4,4.6,12.5-4.3,.8-8.7,1.6-13.2,2.4h0Zm-223.1-1.5c1.4-4,2.8-8,4.3-12.1,1.3,2.2,2.5,4.5,3.8,6.7,1.5,2.5,2.9,5,4.5,7.6-4.3-.7-8.5-1.4-12.6-2.2h0Zm189.2,54.3c21.3-2.1,41.5-5,60.3-8.9,.1,.6,.2,1.1,.3,1.7,5.2,26.2,6.1,50.9,2.7,69.6-3.1,17.1-9.4,24.8-12.6,26.7-1.1,.6-3.5,1.7-8.3,1.7s-11.7-1.3-18.5-3.7c-16.7-6-36.5-18.4-55.6-34.9h0s0,0,0,0c-1.7-1.5-3.4-3-5.1-4.5,12.4-14.2,24.8-30.2,37-47.6h0Zm-206,64.4c-3.2-17.2-2.3-40.5,2.4-65.7h0s0,0,0,0c.4-2.1,.8-4.3,1.3-6.6,18.7,3.6,38.9,6.4,60.2,8.3,12.3,17,25,32.9,37.9,47.4-.6,.5-1.1,1-1.7,1.5h0s0,0,0,0c-20.1,17.6-41,30.7-58.9,37-7.6,2.7-14.7,4.1-20.5,4.1s-8-1.2-8.8-1.7h0s0,0,0,0c-3.6-2.1-8.8-9.7-11.6-24.3h0Zm134.4-61.1c3,0,5.9,0,9,0-2.7,3.4-5.4,6.6-8.1,9.8-2.8-3.2-5.6-6.4-8.3-9.8,2.5,0,5,0,7.5,0h0ZM797.9,20.8h-196.2V503.2h81.2v-182.2h72.8l113.3,176.7,3.5,5.5h96.3l-12.3-18.6-113.4-171.4c27.6-6,52.4-19.3,71.2-38.4,25.8-26.3,39.5-62.2,39.5-104s-3.9-43-11.6-61.7c-7.5-18.3-18.5-34.4-32.6-47.7-13.9-13.1-30.6-23.3-49.6-30.2-19-6.9-39.8-10.4-62-10.4h0Zm-115,74.8h108.2c47.5,0,79.4,30.2,79.4,75.2s-31.9,76-79.4,76h-108.2V95.6h0Zm1448.4-39.2h-76v90.8h-54v54.7l-.6-.7c-15.5-19.7-32.6-34.2-52.1-44.4-23-12-48.9-17.8-79.3-17.8s-49.8,4.8-72,14.3c-21.5,9.2-40.5,22.5-56.5,39.6-31.9,34-49.5,80.9-49.5,131.9s17.6,98.5,49.5,132.6c16,17.1,35,30.4,56.5,39.6,22.2,9.5,46.4,14.3,72,14.3s56.3-5.9,79.3-17.9c19.5-10.2,36.6-24.8,52.1-44.5l6.8-8.7-8.1-7.5-34-31.6-9.8-9.1-8,10.8c-19.3,25.9-43.6,38.6-74.4,38.6-62.2,0-104-46.9-104-116.6s40.8-115.8,104-115.8,55.3,12.2,74.3,38.3l8,10.9,9.9-9.2,34-31.6,1.8-1.7v.9h54v205.2c0,27.9,7.5,49.9,22.3,65.6,15.1,15.9,36.5,24,63.7,24s59.6-13.6,70.6-25.1l5.5-5.7-3-7.3-16-38.4-7.8-18.8-12.6,16c-3.5,4.4-13.9,9.2-24.6,9.2-19.9,0-22-21.4-22-30.6V216.6h68v-69.4h-68V56.4h0Zm-630,82.6c-28.8,0-54.1,4.7-77.4,14.5-23.2,9.7-43.9,24.1-63.2,44.2l-6.8,7,5.4,8.1,24,35.6,8.4,12.4,10.3-10.8c27.7-29.2,56.5-42.3,93.3-42.3s72,15.3,72,58.2v32.6c-9.9-7.5-20.8-13.6-32.5-18.3-19.6-7.9-41.7-11.9-65.5-11.9s-30.9,2.4-45.5,7.2c-15.4,5.1-29.3,12.6-41.1,22.3-27.1,22.2-41.4,53.9-41.4,91.7s3.8,36.8,11.4,52.8c7,14.8,17.1,27.7,29.9,38.5,23.3,19.5,54.9,30.7,86.7,30.7s70.7-10.7,98-31.1v22.9h74v-240.2c0-21.1-3.8-40.1-11.2-56.4-7.1-15.6-17.6-28.8-31.2-39.2-24-18.5-57.8-28.4-97.6-28.4h0Zm-14,311.2c-41.2,0-70-24.7-70-60s28.8-61,70-61,63,12.4,80,33.3v54.5c-16.9,20.9-46.5,33.3-80,33.3h0Zm-342-311.2c-48.8,0-93.7,19.4-126.3,54.7-31.9,34.5-49.5,81-49.5,131.1s4.5,52.3,13.4,75.4c8.7,22.6,21.3,42.5,37.5,59.2,16.2,16.6,35.4,29.6,57.2,38.4,22.1,9,46.2,13.6,71.7,13.6s54.8-4.7,78.6-13.8c24-9.3,44.9-22.9,62-40.6l6.9-7.2-5.8-8.1-24-33.8-8.4-11.8-10,10.4c-23.3,24-58.2,38.4-93.4,38.4-63.9,0-98.2-43.8-106-90.8h266v-25c0-26.1-3.8-50.9-11.2-73.7-7.6-23.1-18.7-43.4-33.1-60.5-14.9-17.7-33-31.5-53.8-41-21.6-9.9-45.8-14.9-71.9-14.9h0Zm-96,153.2c6.5-38.7,34.4-86.6,94-86.6s91.2,49.8,96.8,86.6h-190.8ZM292.9,199.4h0c-34.2,0-62.1,27.9-62.1,62.1,0,34.3,27.8,62.2,62.1,62.2,34.3,0,62.2-27.9,62.2-62.1h0c0-34.3-27.9-62.2-62.2-62.2h0Z"/></g></g></svg>