<?xml version="1.0" encoding="UTF-8"?><svg id="b" xmlns="http://www.w3.org/2000/svg" viewBox="0 0 2191.3 500"><defs><style>.d{fill:#58c4dc;}</style></defs><g id="c"><path class="d" d="M395.7,0h-1.8c-9.8,.2-20.2,2.5-30.8,6.5-21.3,7.8-44.4,22.3-67.9,42.8-4.6,4-9.3,8.3-14,12.8-3.1-3-6.2-5.8-9.3-8.6-24.9-22.1-49.4-37.6-71.8-46-11.2-4.2-22.1-6.7-32.3-6.9-10.2-.2-19.7,1.8-28,6.6-16.2,9.3-25,27.7-28.8,50-3.9,22.4-2.9,49.6,3.1,80.2,1.2,6.1,2.6,12.3,4.2,18.7-7.2,2-14.2,4.2-20.8,6.5-29.1,10.1-52.7,22.9-69.6,37.3C11,214.4,0,231.2,0,249.5s11.5,36.4,29.4,51.6c17.8,15.3,42.7,28.9,73.4,39.3,4.9,1.7,9.9,3.3,15.1,4.8-1.7,6.8-3.2,13.5-4.4,20-5.7,30.3-6.4,57.1-2.4,79,4.1,21.9,13.2,39.8,29.1,48.9,16.3,9.5,37.2,8.2,59.4,.4,22.1-7.8,46.2-22.6,70.6-44,3.9-3.4,7.8-7,11.7-10.8,5.1,4.9,10.2,9.6,15.3,13.9,23.3,20.1,46.1,34.1,67.1,41.5,21,7.4,41.1,8.5,56.9-.7,16.4-9.5,25.7-28.2,30-51.3,4.3-23.1,3.5-51.4-2.8-83.2-1-4.9-2.1-10-3.3-15,3.5-1.1,7-2.2,10.4-3.3,31.6-10.4,57.3-23.8,75.8-39s30.5-32.8,30.5-52.1-11.5-35.4-28.9-50c-17.4-14.5-41.5-27.3-71-37.4-5.8-2-11.8-3.9-18-5.7,1-4.1,2-8.2,2.8-12.3,6.7-32.6,7.9-61.6,4-85.2-4-23.6-13.2-42.8-29.9-52.5-7.5-4.4-16.1-6.3-25.1-6.4Zm-1.7,24.2c6.3-.2,11.3,1,14.8,3,7.6,4.3,14.9,16,18.2,35.6,3.3,19.6,2.4,46-3.9,76.4-.8,3.7-1.6,7.4-2.5,11.2-23.2-5.4-48.5-9.4-75.1-11.9-15.3-21.8-31.3-41.8-47.5-59.3,4.4-4.1,8.6-8.1,12.9-11.8,21.9-19,43-32,60.5-38.4,8.7-3.2,16.3-4.7,22.6-4.8Zm-228.8,.5h2.4c6.7,.2,14.8,1.8,24.1,5.3,18.6,6.9,41.1,20.9,64.2,41.5,2.8,2.5,5.6,5.1,8.4,7.8-16.2,17.4-32.3,37.3-47.8,59.1-26.5,2.5-51.8,6.5-74.9,11.7-1.5-5.9-2.8-11.7-3.9-17.3-5.6-28.4-6.2-53.2-3.1-71.5,3.2-18.3,10.1-29.2,17.2-33.3,3.3-1.9,7.8-3.1,13.4-3.2h0Zm116,71.8c11.1,11.9,22.1,25.3,33,39.8-10.9-.5-22.1-.8-33.3-.8s-22.1,.3-33,.8c11-14.5,22.2-27.8,33.3-39.8ZM601.7,20.8V479.2h57.2v-182.2h91.4l116.8,182.2h67.4l-123.8-187c62.6-5.6,119-50.8,119-133.4S869.9,20.8,785.9,20.8h-184.2Zm1453.6,35.6v90.8h-54v45.4h54v217.2c0,49.4,26,77.6,74,77.6s50-9,62-21.4l-16-38.4c-6,7.6-20,13.8-34,13.8-22,0-34-18-34-42.6V192.6h68v-45.4h-68V56.4h-52Zm-1396.4,15.2h120.2c54.2,0,91.4,35.8,91.4,87.2s-37.2,88-91.4,88h-120.2V71.6Zm-378,87.9c17.5,0,34.6,.7,51.2,1.9,9.4,13.8,18.5,28.3,27.2,43.3s16.8,30.1,24.1,45c-7.3,15.1-15.3,30.4-24.1,45.5-8.7,15.1-17.7,29.6-27,43.5-16.7,1.2-33.9,1.8-51.4,1.8s-34.3-.6-50.9-1.6c-9.4-13.9-18.6-28.4-27.4-43.5-8.8-15.1-16.8-30.3-24-45.3,7.2-15.1,15.2-30.2,23.9-45.3s17.9-29.6,27.3-43.4c16.6-1.2,33.7-1.9,51.1-1.9h0Zm-82,5c-5.9,9.2-11.6,18.6-17.2,28.3-5.6,9.7-10.8,19.4-15.8,29-7.1-16.6-13-32.9-17.9-48.5,16-3.6,33-6.5,50.9-8.8Zm164,.1c18,2.2,35.2,5.3,51.2,8.9-4.8,15.6-10.9,31.8-18,48.4-5.1-9.7-10.5-19.5-16.1-29.2-5.6-9.6-11.3-19-17.1-28.1Zm-238.2,14.6c7,22.7,16.2,46.6,27.4,70.9-11.4,24.7-20.7,48.9-27.8,71.9-4.7-1.3-9.3-2.8-13.8-4.3-28.4-9.7-50.8-22.2-65.5-34.8-14.7-12.6-21-24.8-21-33.4s5.7-19.5,19.5-31.3c13.8-11.8,34.9-23.6,61.9-33,6.1-2.1,12.6-4.1,19.3-6h0Zm1008.6-40.2c-95,0-163.8,77.6-163.8,173.8s70.8,174.6,167.8,174.6,100-17.8,132-50.8l-24-33.8c-26,26.8-64,42-102,42-71.4,0-115.4-52.2-119.4-114.8h267.4v-13c0-99.8-58-178-158-178h0Zm356,0c-54,0-96,17.8-132,55l24,35.6c30-31.6,62-46,102-46s84,25.4,84,70.2v59.8c-28-31-66-45.4-110-45.4s-116,35-116,109.2,60,110,116,110,82-15.8,110-46v37.8h50V251c0-80.4-58-112-128-112h0Zm368,0c-98,0-166,75.6-166,173.8s68,174.6,166,174.6,96-24.8,122-57.8l-34-31.6c-22,29.6-50,43.4-84,43.4-72,0-116-55-116-128.6s44-127.8,116-127.8,62,13,84,43.2l34-31.6c-26-33-62-57.6-122-57.6h0ZM437.5,179.5c5.7,1.7,11.3,3.5,16.6,5.3,27.4,9.4,49.2,21.2,63.5,33.2,14.2,11.9,20.2,23.3,20.2,31.5s-6.4,20.9-21.7,33.5c-15.4,12.6-38.7,25.1-68.1,34.9-3.1,1-6.2,2-9.4,2.9-7.2-22.8-16.9-46.8-28.5-71.1,11.2-24,20.4-47.6,27.4-70.2h0Zm-156.6,19.9c-27.7,0-50.1,22.4-50.1,50.1,0,27.7,22.4,50.2,50.1,50.2,27.7,0,50.2-22.4,50.2-50.1h0c0-27.8-22.5-50.2-50.2-50.2Zm850.4-17.8c76,0,108,61.2,110,110.6h-217.4c2.6-50.8,37.8-110.6,107.4-110.6Zm344,123.6c36,0,72,13.8,92,41.2v62.6c-20,27.6-56,41.2-92,41.2s-82-30.2-82-72,34-73,82-73Zm-1078.9-27.7c7.4,17,13.8,33.6,18.8,49.4-16.3,3.7-33.9,6.7-52.3,8.9,5.8-9.3,11.6-18.9,17.2-28.6,5.7-9.9,11.1-19.8,16.3-29.7h0Zm-230.5,.8c5,9.7,10.3,19.4,15.9,29.1,5.7,9.8,11.6,19.4,17.6,28.8-18.2-2-35.6-4.8-51.7-8.3,4.9-15.9,11-32.5,18.2-49.6Zm255.9,71.7c1.2,4.6,2.2,9.2,3.1,13.6,5.8,29.4,6.2,55.1,2.7,74.1-3.5,19.1-11,30.6-18.4,34.9-7.2,4.2-19.8,4.9-36.9-1.1-17.1-6.1-37.9-18.5-59.5-37.1-4.7-4-9.4-8.3-14.1-12.9,16.1-17.6,31.9-37.8,47.1-59.8,27-2.4,52.6-6.3,76-11.7h0Zm-280.6,1.1c23.4,5.2,48.9,8.8,75.7,10.9,15.6,22,31.9,42.1,48.2,59.6-3.6,3.5-7.1,6.8-10.7,9.9-22.5,19.7-44.6,32.9-62.8,39.3-18.3,6.5-32,5.8-39.4,1.5-7.2-4.1-14.1-14.7-17.5-32.5-3.3-17.8-2.9-42,2.4-70.1,1.1-6,2.5-12.2,4.1-18.6h0Zm173.6,12.6c-10.9,14.8-21.9,28.4-32.9,40.6-11.3-12.2-22.7-25.8-33.8-40.4,10.8,.4,21.7,.6,32.8,.6s22.7-.3,33.9-.8h0Z"/></g></svg>