<?xml version="1.0" encoding="utf-8"?>
<!-- Generator: Adobe Illustrator 26.5.3, SVG Export Plug-In . SVG Version: 6.00 Build 0)  -->
<svg version="1.1" id="b" xmlns="http://www.w3.org/2000/svg" xmlns:xlink="http://www.w3.org/1999/xlink" x="0px" y="0px"
	 viewBox="0 0 2204.4 512.2" style="enable-background:new 0 0 2204.4 512.2;" xml:space="preserve">
<style type="text/css">
	.st0{fill:#58C4DC;}
</style>
<g id="c">
	<g>
		<path class="st0" d="M401.1,512.2c-10,0-21-2.1-32.7-6.2c-22-7.8-45.2-22.1-69-42.6c-3.5-2.9-7.2-6.3-11.4-10.2
			c-2.6,2.4-5.2,4.8-7.8,7c-24.4,21.4-49.5,37-72.5,45.1c-12.5,4.4-24.2,6.6-34.7,6.6s-21.2-2.5-29.7-7.5c-16.4-9.4-27.2-27.2-32-53
			c-4.2-23.1-3.4-50.4,2.4-81.2c0.9-4.7,1.9-9.5,3.1-14.8c-3.3-1-6.5-2.1-9.9-3.2c-30.5-10.3-56.6-24.3-75.4-40.4
			C10.6,294,0,275.1,0,255.6s10.1-37.1,30-54.2c17.9-15.2,42-28.2,71.5-38.4c5.1-1.8,10.3-3.5,15.6-5c-1.1-4.6-2-9-2.9-13.4
			c-6.1-31.3-7.2-59-3.1-82.4c4.5-26.4,15.2-44.7,31.7-54.2c8.4-4.9,18.3-7.4,29.3-7.4s1.2,0,1.8,0c10.4,0.2,21.9,2.7,34.3,7.3
			c23.6,8.8,48.4,24.7,73.7,47.1l0,0c1.7,1.6,3.5,3.2,5.2,4.8c3.4-3.1,6.7-6.2,10.1-9.1c24.1-21,47.6-35.7,69.8-43.9
			c11.7-4.3,22.7-6.6,32.7-6.8h1.9c10.6,0,20,2.5,28.1,7.2c17.1,9.8,28.1,28.9,32.8,56.6c4.1,24.6,2.7,54.8-4,87.4
			c-0.5,2.3-1,4.6-1.5,7c4.4,1.3,8.7,2.7,12.8,4.2c30.1,10.3,54.6,23.2,72.9,38.5c20.6,17.3,31.1,35.7,31.1,54.6s-11,38.9-32.7,56.7
			c-19.5,16-45.7,29.5-77.7,40.1c-1.7,0.6-3.4,1.1-5.2,1.7c0.7,3,1.4,6.2,2.1,9.7c6.4,32.4,7.4,61.1,2.8,85.5
			c-5,27-16.1,45.7-32.9,55.4c-8.4,4.9-18.2,7.4-29.2,7.4l0,0L401.1,512.2z M313.1,427.4c3.2,3,6.4,5.9,9.6,8.6
			c19.8,17,40.2,29.8,57.6,36c7.6,2.7,14.5,4,20.5,4s8.6-0.9,11.4-2.5c5.3-3.1,12.2-12.8,15.5-30.8c3.6-19.4,2.6-44.9-2.7-71.9
			c-0.4-2.2-1-4.8-1.6-7.6c-21,4.6-44,8-68.2,10.3c-13.9,20-28,38-42.1,53.8V427.4z M151.7,364.4c-1.1,4.6-1.9,8.7-2.7,12.6
			c-4.9,25.9-5.7,50-2.4,67.9c2.7,14.1,8.1,24.7,14.6,28.4c2,1.2,5.6,2.5,11.9,2.5s14.3-1.5,22.5-4.5c18.6-6.5,40.2-20.1,60.9-38.2
			c2-1.7,4-3.5,6.3-5.7c-14.7-16.2-29.2-34.2-43.1-53.6c-24.3-2-47.1-5.2-68-9.6V364.4z M266.7,376.5c7,8.8,14.1,17.2,21.2,25.1
			c6.8-7.8,13.7-16.2,20.6-25.2c-7.4,0.2-14.5,0.3-21.5,0.3S273.5,376.7,266.7,376.5L266.7,376.5z M239.4,339.3
			c16.6,1,32.2,1.4,47.6,1.4c15.4,0,32.5-0.5,48-1.6c8.6-13,17.1-26.7,25.2-40.7c7.7-13.2,15.3-27.5,22.6-42.5
			c-6.8-13.8-14.4-27.9-22.6-42c-8.1-14-16.7-27.7-25.3-40.5c-16.3-1.1-32.4-1.7-47.9-1.7s-31.5,0.6-47.8,1.7
			c-9.2,13.6-17.7,27.2-25.4,40.6c-8.3,14.3-15.8,28.5-22.4,42.3c7,14.5,14.6,28.7,22.5,42.3C221.7,312,230.3,325.7,239.4,339.3
			L239.4,339.3z M161.5,329.6c10.3,2.1,21.1,3.9,32.2,5.3c-3.9-6.2-7.5-12.3-11-18.3c-3.4-6-6.8-12-10-17.9
			C168.5,309.3,164.8,319.6,161.5,329.6z M401.9,297.6c-3.5,6.5-7,12.7-10.5,18.8c-3.4,5.8-6.9,11.9-10.7,18
			c11.3-1.6,22.3-3.5,32.8-5.8c-3.3-9.8-7.2-20.2-11.7-31H401.9z M126.8,192.8c-4.8,1.4-9.3,2.9-13.4,4.3c-24.7,8.6-46,19.9-60,31.9
			C42.5,238.3,36,248.3,36,255.7s5,16.9,18.9,28.8c15,12.8,37.6,24.8,63.6,33.7c2.4,0.8,5.1,1.7,7.9,2.6
			c6.8-21.1,15.2-42.7,25.2-64.5C141.8,234.8,133.5,213.5,126.8,192.8L126.8,192.8z M422.8,255.9c10.4,22.1,19.1,43.5,25.8,63.7
			c1.2-0.4,2.4-0.8,3.7-1.2c27-9,50.5-21,66.1-33.8c18.1-14.9,19.5-25.9,19.5-28.9s-1.3-12.9-18.1-26.9
			c-14.3-12-36.2-23.4-61.6-32.1c-3.6-1.2-7.2-2.4-10.7-3.5C440.9,213.6,432.6,234.6,422.8,255.9L422.8,255.9z M380.8,178.5
			c3.4,5.6,6.9,11.4,10.4,17.4s6.9,12.1,10.2,18.2c4.2-10.4,7.9-20.4,11-30c-10.5-2.2-21.1-4.1-31.6-5.7V178.5z M161.8,184
			c3.3,10.1,7,20.2,10.8,29.9c3.5-6.6,6.8-12.4,9.9-17.9c3.5-6.1,7-11.9,10.5-17.6C182.1,180,171.6,181.9,161.8,184z M354.9,139
			c23.7,2.3,46.3,5.8,67.3,10.4c0.4-1.8,0.8-3.5,1.1-5.2c5.8-28.1,7.2-54.4,3.9-74.2c-3.9-23.2-12.7-29.9-15.3-31.4
			c-1.8-1.1-5.1-2.3-10.7-2.3c-5.6,0-0.7,0-1,0c-6.1,0.2-13.1,1.7-20.7,4.5c-17.5,6.4-38.4,19.7-58.6,37.3c-2.8,2.4-5.6,5-8.4,7.6
			C326.9,101.6,341.1,119.5,354.9,139z M171.1,36.9c-4.2,0.1-7.7,1-10.1,2.4c-2.4,1.4-10.5,7.6-14.3,29.2
			c-3.2,18.7-2.1,43.3,3.1,69.3c0.7,3.8,1.6,7.6,2.4,11.3c21.3-4.5,43.8-8,67.2-10.3c13.9-19.3,28.2-37.2,42.7-53.1
			c-1.3-1.2-2.6-2.4-4-3.6c-21.3-19-43.4-33.3-62.3-40.4c-8.2-3-15.6-4.7-22.1-4.9L171.1,36.9L171.1,36.9z M287,135.7
			c6.7,0,13.6,0.1,20.8,0.3c-7-8.9-13.8-17.1-20.5-24.4c-7,7.8-13.9,16-20.7,24.4C273.6,135.8,280.4,135.7,287,135.7L287,135.7z
			 M2135.4,499.6c-50.8,0-80-30.5-80-83.6V204.8h-54v-57.4h54V56.6h64v90.8h68v57.4h-68V405c0,17.7,7.4,36.6,28,36.6
			s24.9-5.9,29.3-11.5l6.3-8l21.4,51.5l-2.7,2.8C2191.4,487,2171.6,499.6,2135.4,499.6z M1863.4,499.6c-48.6,0-92.7-18.5-124.1-52.1
			c-30.9-33-47.9-78.6-47.9-128.5s17-94.9,47.9-127.8c31.4-33.5,75.5-52,124.1-52s94.5,19,126.7,59.9l3.4,4.3l-43,40l-4-5.5
			c-20-27.4-45.9-40.7-79.2-40.7c-65.8,0-110,48.9-110,121.8s44.2,122.6,110,122.6s58.7-13.4,79.2-41l4-5.4l43,39.9l-3.4,4.3
			c-32.3,41-72.6,60.1-126.7,60.1V499.6z M1463.4,499.6c-30.5,0-60.7-10.7-82.9-29.3c-17.9-15-39.1-42.2-39.1-86.7
			s13.6-66.1,39.2-87.1c21.8-17.9,52-28.1,82.8-28.1s76.9,12.4,104,36.9V260c0-39-30.6-64.2-78-64.2s-68.7,13.6-97.6,44.1l-5.1,5.4
			l-30.9-45.8l3.4-3.5c37.5-38.8,80.8-56.8,136.3-56.8s71,9.4,93.9,27.1c26.6,20.5,40.1,51.1,40.1,90.9v234.2h-62v-29.5
			c-27.8,24.7-63.5,37.7-104,37.7L1463.4,499.6z M1481.4,317.4c-44.7,0-76,27.6-76,67s31.3,66,76,66s68.2-13.9,86-37.2v-58.6
			C1549.5,331.3,1517.5,317.4,1481.4,317.4L1481.4,317.4z M1143.4,499.6c-48.9,0-93.1-17.8-124.6-50.2
			c-31.7-32.6-49.2-79-49.2-130.4s17-93.7,47.9-127c31.5-34,74.8-52.8,121.9-52.8s91.5,18.6,121.1,53.7
			c27.7,32.8,42.9,79.1,42.9,130.3v19h-266.9c5.8,52.2,42.2,102.8,112.9,102.8s73.3-15,97.7-40.2l5-5.2l31.1,43.7l-3.5,3.6
			c-33.4,34.4-80.5,52.6-136.3,52.6L1143.4,499.6z M1241,292.4c-4.4-48.6-37.9-98.6-103.6-98.6s-96.3,56.8-100.9,98.6H1241z
			 M869.9,491.4L753.1,309.2H671v182.2h-69.2V21H792c43.2,0,80.4,13.5,107.5,39c27.7,26,42.3,62.3,42.3,105s-13.1,74.6-37.7,99.8
			c-19.9,20.3-47,33.7-76.9,38.4l124.6,188.2H869.9L869.9,491.4z M785.2,247c50.3,0,85.4-33.7,85.4-82s-34.3-81.2-85.4-81.2H671V247
			L785.2,247L785.2,247z M287,311.9c-31,0-56.1-25.3-56.1-56.2s25.2-56.1,56.1-56.1c31,0,56.2,25.2,56.2,56.1
			C343.2,286.7,318,311.9,287,311.9L287,311.9z"/>
	</g>
</g>
</svg>
