<?xml version="1.0" encoding="utf-8"?>
<!-- Generator: Adobe Illustrator 26.5.3, SVG Export Plug-In . SVG Version: 6.00 Build 0)  -->
<svg version="1.1" id="b" xmlns="http://www.w3.org/2000/svg" xmlns:xlink="http://www.w3.org/1999/xlink" x="0px" y="0px"
	 viewBox="0 0 138.6 40.9" style="enable-background:new 0 0 138.6 40.9;" xml:space="preserve">
<style type="text/css">
	.st0{fill:#FFFFFF;}
	.st1{fill:#EE0000;}
</style>
<g id="c">
	<g>
		<g>
			<g>
				<polygon points="55.7,38.7 55.7,22.4 59,22.4 59,35.7 67.8,35.7 67.8,38.7 				"/>
				<path class="st0" d="M58.5,22.9v13.3h8.8v2H56.2V22.9L58.5,22.9 M59.5,21.9h-4.3v17.3h13.1v-4h-8.8V21.9L59.5,21.9z"/>
			</g>
			<g>
				<path d="M68.9,38.7V26.6h3.2v12.1H68.9z M70.5,25.8c-1,0-1.8-0.8-1.8-1.7l0,0c0-1.2,0.8-2,1.8-2c0.6,0,1,0.3,1.3,0.7
					c0.3,0.4,0.5,0.9,0.4,1.4c0,0.9-0.8,1.6-1.7,1.7l0,0l0,0L70.5,25.8z"/>
				<path class="st0" d="M70.5,22.5L70.5,22.5c0.7,0,1.3,0.7,1.2,1.5c0,0.7-0.6,1.2-1.2,1.2c-0.7,0-1.3-0.6-1.3-1.3l0,0l0,0
					C69.2,23.1,69.8,22.5,70.5,22.5L70.5,22.5 M71.6,27v11.2h-2.2V27L71.6,27 M70.5,21.5L70.5,21.5c-1.3,0-2.3,1.1-2.3,2.3V24l0,0
					c0,0.8,0.6,1.5,1.4,1.9h-1.1v13.2h4.2V25.9h-1.2c0.8-0.3,1.3-1.1,1.4-1.9c0.1-1.3-0.9-2.4-2.1-2.6l0,0l0,0l0,0l0,0l0,0
					L70.5,21.5z"/>
			</g>
			<g>
				<path d="M81.4,38.7v-7.2c0-1.2-0.8-2.2-1.9-2.3h-0.4c-0.9,0-1.8,0.4-2.3,1.1v8.3h-3.2V26.5h3.2v0.6c0.8-0.5,1.8-0.8,2.7-0.8
					c0,0,0.2,0,0.3,0c2.5,0,4.5,1.9,4.7,4.4v8h-3.2L81.4,38.7z"/>
				<path class="st0" d="M79.9,26.8c2.2,0,4,1.7,4.2,4l0,0v7.4h-2.2v-6.7c0.1-1.4-0.9-2.7-2.4-2.8l0,0h-0.4l0,0
					c-1.1,0-2.1,0.5-2.7,1.5v8h-2.2V27.1h2.2v1.1c0.9-0.9,2-1.3,3.2-1.3s0,0,0.1,0c0,0,0.1,0,0.2,0 M79.9,25.9c0,0-0.1,0-0.2,0h-0.1
					c-0.8,0-1.5,0.2-2.2,0.5v-0.2h-4.2v1v11.1v1h1h3.2v-8.7c0.4-0.5,1-0.8,1.7-0.8l0,0h0.4c0.4,0,0.8,0.2,1.1,0.6
					c0.3,0.3,0.4,0.7,0.4,1.2l0,0v7.8h4.2V31l0,0l0,0c-0.1-2.8-2.4-4.9-5.2-4.9l0,0L79.9,25.9z"/>
			</g>
			<g>
				<path d="M90.6,38.9c-2.5,0-4.6-2-4.7-4.5v-7.9h3.2v7.2C89,34.9,89.8,36,91,36.1c0,0,0.1,0,0.2,0s0.2,0,0.2,0l0,0
					c0.9,0,1.7-0.4,2.2-1.1v-8.3h3.2v12.1h-3.2v-0.6c-0.8,0.5-1.8,0.8-2.7,0.8h-0.3L90.6,38.9z"/>
				<path class="st0" d="M88.6,27v6.7c-0.1,1.4,0.9,2.7,2.3,2.9l0,0c0,0,0.1,0,0.2,0s0.1,0,0.2,0l0,0c1.1,0,2.1-0.5,2.7-1.5v-8h2.2
					v11.1H94v-1.1c-0.9,0.9-2,1.3-3.2,1.3s0,0-0.1,0c0,0-0.1,0-0.2,0c-2.2,0-4.1-1.8-4.2-4l0,0V27L88.6,27 M89.5,26h-4.2v8.4
					c0.1,2.8,2.4,5,5.2,5s0.1,0,0.2,0h0.1c0.8,0,1.5-0.2,2.2-0.5v0.2h4.2V26H93v8.7c-0.4,0.5-1,0.8-1.7,0.8l0,0l0,0l0,0
					c0,0,0,0-0.1,0s0,0-0.1,0c-0.4,0-0.8-0.3-1.1-0.6c-0.3-0.3-0.4-0.8-0.3-1.2l0,0v-0.1v-6.7v-1l0,0L89.5,26z"/>
			</g>
			<g>
				<polygon points="106.1,38.7 103.3,34.9 100.4,38.7 96.7,38.7 101.4,32.5 96.8,26.5 100.7,26.5 103.3,30 105.9,26.5 109.6,26.5 
					105.1,32.5 109.9,38.7 				"/>
				<path class="st0" d="M108.6,27l-4.1,5.4l4.4,5.7h-2.6l-3.1-4.1l-3.1,4.1h-2.5l4.3-5.7L97.7,27h2.6l2.9,3.8l2.9-3.8L108.6,27
					 M110.6,26h-5l-0.3,0.4l-2.1,2.8l-2.1-2.8l-0.3-0.4h-5.1l1.2,1.6l3.7,4.8l-3.9,5.1l-1.2,1.6h5l0.3-0.4l2.3-3.1l2.3,3l0.3,0.4
					h5.1l-1.2-1.6l-3.9-5.1l3.6-4.8L110.6,26L110.6,26L110.6,26z"/>
			</g>
		</g>
		<g>
			<g>
				<g>
					<path d="M76.2,19.1c-3.7,0-6.7-2.9-6.7-6.6V12l0,0c0.3-3.4,3.1-6.1,6.5-6.1h0.1c3.7,0,6.4,2.9,6.4,6.9v1.4h-3.4l2.9,2.6
						l-0.4,0.4c-1.4,1.2-3.1,1.9-5,1.9C76.6,19.1,76.2,19.1,76.2,19.1z M76.7,15.1c0.7,0,1.3-0.3,1.8-0.8h0.1c0-0.1-4.1-0.1-4.1-0.1
						c0.5,0.5,1.1,0.9,1.9,0.9h0.1L76.7,15.1L76.7,15.1z M77.7,10.7c-0.4-0.5-1-0.9-1.7-0.9V9.3v0.5c-0.7,0-1.3,0.3-1.6,0.9h3.4
						H77.7z"/>
					<path class="st0" d="M76,6.5C76,6.5,76,6.5,76,6.5c3.5,0,6,2.7,6,6.4v0.9h-8.3c0.5,1.1,1.6,1.9,2.8,1.9s0,0,0.1,0
						c0,0,0.1,0,0.2,0c0.8,0,1.6-0.3,2.2-0.9l2.4,2.1c-1.3,1.1-2.9,1.8-4.7,1.8s-0.2,0-0.2,0h-0.1l0,0c-3.4,0-6.1-2.7-6.2-6.1l0,0
						c0-0.1,0-0.2,0-0.2c0-3.3,2.7-5.9,6-5.9 M73.8,11.3h4.9c-0.3-1.1-1.3-1.8-2.5-1.9l0,0l0,0C75.1,9.4,74.1,10.2,73.8,11.3
						 M76.2,5.5c-3.5,0-6.5,2.6-6.9,6.1l0,0v1c0,3.9,3.3,7.1,7.2,7.1l0,0h0.1h0.2c2,0,3.9-0.7,5.3-2l0.8-0.7l-0.8-0.7L80.6,15h2.6
						v-1.9c0-4.3-2.9-7.4-6.9-7.4h-0.1L76.2,5.5z"/>
				</g>
				<g>
					<path d="M65.5,18.9l-2.9-5.6h-2.1v5.6h-4.8V2.4h8.4c3.5,0,6,2.3,6,5.4c0,1.9-1,3.7-2.7,4.6l3.6,6.5H65.5L65.5,18.9z M64,9.2
						c0.7,0,1.3-0.6,1.3-1.3V7.7c0-0.6-0.6-1.1-1.3-1.1s-0.1,0-0.2,0h-3.3v2.5L64,9.2L64,9.2z"/>
					<path class="st0" d="M64.1,2.9c3.3,0,5.5,2.1,5.5,4.9c0,1.9-1.1,3.6-2.9,4.4l3.4,6.2h-4.2L63,12.7h-2.9v5.7h-3.8V2.9H64.1
						 M60.1,9.7h4l0,0c1,0,1.8-0.8,1.8-1.8V7.7l0,0c-0.1-0.9-0.9-1.5-1.8-1.5h-0.2h-3.8V9.7 M64.2,1.9h-8.9v17.5h5.8v-5.7h1.3
						l2.6,5.1l0.3,0.5h6.5L71,17.8l-2.9-5.3c1.6-1,2.6-2.8,2.6-4.8c0-3.4-2.7-5.9-6.5-5.9l0,0L64.2,1.9z M61.1,7.1H64c0,0,0,0,0.1,0
						c0.4,0,0.7,0.3,0.8,0.7l0,0c0,0.5-0.4,0.9-0.8,0.9h-3V7.1L61.1,7.1L61.1,7.1z"/>
				</g>
				<g>
					<path d="M135,19c-3.1,0-4.8-1.5-4.8-4.2v-4.7h-2.4V6.2h2.4V3.3l4.6-1v3.9h3.3v4h-3.3v4c0,0.7,0.1,0.9,1.1,0.9l0,0
						c0.5,0,1,0,1.5-0.2l0.7-0.2v4h-0.4c-0.9,0.3-1.7,0.4-2.6,0.5l0,0l0,0L135,19z"/>
					<path class="st0" d="M134.3,2.9v3.8h3.3v3h-3.3v4.5c0,1.1,0.4,1.4,1.5,1.4l0,0c0.5,0,1.1,0,1.6-0.3v2.9
						c-0.8,0.2-1.7,0.3-2.5,0.4c-2.7,0-4.2-1.2-4.2-3.7V9.7h-2.4v-3h2.4v-3L134.3,2.9 M135.3,1.7L134.1,2l-3.6,0.8L129.7,3v2.8h-2.4
						v5h2.4V15c0,3,1.9,4.7,5.2,4.7c0.9,0,1.9-0.2,2.7-0.4l0.8-0.2v-5l-1.3,0.4c-0.4,0.1-0.9,0.2-1.3,0.2c-0.3,0-0.5,0-0.5,0
						s0-0.2,0-0.4v-3.5h3.3V5.7h-3.3V1.6l0,0L135.3,1.7z"/>
				</g>
				<g>
					<path d="M120.5,19.1L120.5,19.1c-2.7-0.1-4.6-1.8-4.6-4.2s2-4,5.3-4s1.5,0,2.2,0.2c0-0.6-0.2-1.2-1.7-1.2
						c-1.1,0-2.3,0.4-3.3,0.9l-0.5,0.2l-1.7-3.5l0.4-0.2c1.8-0.9,3.7-1.3,5.7-1.3c3.5,0,5.6,1.8,5.6,4.9V19h-4.5v-0.4
						c-0.8,0.4-1.6,0.6-2.5,0.6h-0.4V19.1z M121.6,14.2c-0.4,0-1.4,0-1.4,0.6s1,0.7,1.3,0.7h0.1c0.6,0,1.1-0.1,1.6-0.4v-0.8
						C122.7,14.2,122.1,14.1,121.6,14.2L121.6,14.2z"/>
					<path class="st0" d="M122.3,6.4c3.2,0,5.1,1.6,5.1,4.4v7.5h-3.6v-0.7c-0.9,0.6-2,0.9-3,0.9s-0.1,0-0.2,0l0,0
						c-2.6,0-4.3-1.6-4.3-3.7s1.8-3.5,4.8-3.5l0,0c0.9,0,1.8,0.1,2.6,0.3V11c0-1.2-0.8-1.8-2.2-1.8c-1.2,0-2.4,0.4-3.5,0.9l-1.2-2.6
						c1.7-0.8,3.6-1.3,5.5-1.3 M121.5,15.9c0.7,0,1.5-0.2,2.1-0.6v-1.6c-0.7-0.2-1.4-0.3-2.1-0.3c-1.2,0-2,0.4-2,1.2l0,0
						c0,0.8,0.7,1.2,1.8,1.2c0,0,0,0,0.1,0 M122.2,5.1L122.2,5.1c-2,0-4.1,0.5-5.9,1.4l-0.9,0.4l0.4,0.9l1.2,2.6l0.2,0.5
						c-1.3,0.8-2.1,2-2.1,3.6c0,2.6,2,4.5,4.8,4.6l0,0h0.4h0.2c0.7,0,1.4-0.1,2-0.3l0,0c0,0.1,1,0.1,1,0.1h4.6v-8
						c0-3.3-2.4-5.4-6.1-5.4l0,0L122.2,5.1z M121.9,10.1c-0.1,0-0.2,0-0.3,0C121.7,10.1,121.8,10.1,121.9,10.1L121.9,10.1z
						 M120.4,14.6c0,0,0.4-0.2,1-0.2c0.4,0,0.7,0,1.1,0l0,0c-0.4,0.2-0.7,0.3-1.1,0.3l0,0C120.8,14.7,120.6,14.6,120.4,14.6
						L120.4,14.6L120.4,14.6L120.4,14.6z"/>
				</g>
				<g>
					<polygon points="110.9,18.9 110.9,12.8 105.5,12.8 105.5,18.9 100.7,18.9 100.7,2.4 105.5,2.4 105.5,8.4 110.9,8.4 110.9,2.4 
						115.7,2.4 115.7,18.9 					"/>
					<path class="st0" d="M115.2,2.9v15.5h-3.8v-6.1H105v6.1h-3.8V2.9h3.8v6h6.4v-6H115.2 M116.2,1.9h-5.8v6H106v-6h-5.8v17.5h5.8
						v-6.1h4.4v6.1h5.8V1.9C116.2,1.9,116.2,1.9,116.2,1.9z"/>
				</g>
				<g>
					<path d="M89.1,19c-3.5,0-6.4-3-6.4-6.5v-0.2c0-1.1,0.3-2.1,0.8-3c1.2-2.1,3.4-3.4,5.8-3.4s1.7,0.2,2.5,0.5V2.5l4.6-1v17.4h-4.6
						v-0.5C91,18.8,90.1,19,89.2,19H89.1L89.1,19z M89.9,14.9c0.7,0,1.3-0.2,1.9-0.7v-3.6c-0.5-0.4-1.2-0.6-1.9-0.6h-0.2
						c-1.3,0-2.4,1-2.5,2.2v0.3c0,1.4,1.2,2.4,2.5,2.4H89.9L89.9,14.9z"/>
					<path class="st0" d="M95.9,2.1v16.3h-3.5v-0.9c-0.9,0.7-2,1-3.1,1s0,0,0,0l0,0c-3.3,0-5.9-2.7-5.9-6v-0.2c0-1,0.3-1.9,0.8-2.7
						c1.1-2,3.2-3.1,5.3-3.1c1,0,2,0.2,3,0.8V2.9l3.6-0.8 M86.9,12.5L86.9,12.5c0,1.7,1.4,2.9,3,2.9s0,0,0,0s0,0,0.1,0
						c0.9,0,1.7-0.3,2.4-0.9v-4.1c-0.7-0.6-1.5-0.9-2.4-0.9l0,0h-0.1C88.2,9.5,86.9,10.8,86.9,12.5 M96.9,0.9l-1.2,0.3L92.1,2
						l-0.8,0.2v3.7c-0.6-0.2-1.3-0.3-2-0.3c-2.6,0-5,1.4-6.2,3.7c-0.5,1-0.9,2.1-0.9,3.2v0.2c0,3.8,3.1,6.9,6.9,7h0.1l0,0
						c0.7,0,1.4-0.1,2.1-0.3v0.2h1h4.5L96.9,0.9L96.9,0.9L96.9,0.9z M87.7,12.3c0.1-1,1-1.7,2-1.7h0.2c0.5,0,1,0.1,1.4,0.4v3.1
						c-0.4,0.3-0.9,0.4-1.4,0.4l0,0l0,0l0,0l0,0c-1.1,0-2-0.8-2-1.9v-0.3l0,0L87.7,12.3z"/>
				</g>
			</g>
		</g>
	</g>
</g>
<g>
	<path class="st1" d="M36.1,23.6c3.6,0,8.7-0.7,8.7-5c0-0.3,0-0.7-0.1-1l-2.1-9.2c-0.5-2-0.9-2.9-4.5-4.7C35.4,2.4,29.4,0,27.6,0
		c-1.8,0-2.1,2.1-4,2.1s-3.3-1.6-5.1-1.6s-2.8,1.2-3.7,3.6c0,0-2.4,6.7-2.7,7.7c0,0.2,0,0.4,0,0.6c0,2.6,10.3,11.2,24.1,11.2
		 M45.5,20.4c0.2,0.9,0.4,1.9,0.4,2.8c0,4-4.5,6.2-10.4,6.2c-13.3,0-25-7.8-25-12.9c0-0.7,0.1-1.4,0.4-2.1c-4.8,0.2-11,1.1-11,6.6
		c0,8.9,21.2,20,38,20c12.9,0,16.1-5.8,16.1-10.4c0-3.6-3.1-7.7-8.8-10.2"/>
	<path d="M45.4,20.4c0.3,0.9,0.4,1.9,0.5,2.8c0,4-4.5,6.2-10.4,6.2c-13.3,0-24.9-7.8-24.9-12.9c0-0.7,0.1-1.4,0.4-2.1l1.1-2.6
		C12,12,11.9,12.2,12,12.3c0,2.6,10.3,11.2,24.1,11.2c3.6,0,8.7-0.7,8.7-5c0-0.3,0-0.7-0.1-1L45.4,20.4z"/>
</g>
</svg>
