<?xml version="1.0" encoding="utf-8"?>
<!-- Generator: Adobe Illustrator 26.5.3, SVG Export Plug-In . SVG Version: 6.00 Build 0)  -->
<svg version="1.1" id="selenium_logo" xmlns="http://www.w3.org/2000/svg" xmlns:xlink="http://www.w3.org/1999/xlink" x="0px"
	 y="0px" viewBox="0 0 184.5 34" style="enable-background:new 0 0 184.5 34;" xml:space="preserve">
<style type="text/css">
	.st0{fill:#01A71C;}
</style>
<path class="st0" d="M44.8,31.2c-1.3,0-2.6-0.1-3.9-0.3c-1.4-0.2-2.8-0.5-4.1-0.8V28c1.3,0.3,2.7,0.6,4.1,0.8
	c1.2,0.2,2.5,0.3,3.8,0.3c1.7,0.1,3.5-0.3,4.9-1.3c1.1-0.8,1.8-2.2,1.7-3.6c0.1-1.5-0.6-2.9-1.9-3.7c-0.6-0.4-1.2-0.8-1.9-1.1
	c-0.8-0.3-1.6-0.6-2.5-0.8c-1.2-0.3-2.4-0.8-3.5-1.3c-0.9-0.4-1.7-0.9-2.4-1.6c-0.6-0.6-1.1-1.2-1.4-2c-0.3-0.8-0.4-1.7-0.4-2.6
	c0-1,0.2-2,0.6-2.9c0.4-0.9,1-1.6,1.8-2.2c0.8-0.7,1.7-1.2,2.7-1.5C43.6,4.2,44.8,4,46,4.1c2.2,0,4.4,0.3,6.6,0.9v2.1
	c-1.1-0.3-2.2-0.5-3.3-0.7c-1-0.1-2-0.2-3-0.2c-1.6-0.1-3.3,0.4-4.6,1.3c-1.2,0.8-1.9,2.2-1.8,3.6c0,0.6,0.1,1.2,0.3,1.8
	c0.2,0.6,0.6,1.1,1.1,1.5c0.6,0.5,1.2,0.9,1.9,1.2c1,0.4,2,0.8,3,1c1.1,0.3,2.1,0.7,3.1,1.1c0.9,0.3,1.7,0.8,2.5,1.4
	c0.7,0.6,1.3,1.3,1.6,2.1c0.4,0.9,0.6,2,0.6,3c0.1,2-0.8,4-2.3,5.2C49.5,30.8,47.2,31.4,44.8,31.2L44.8,31.2z"/>
<path class="st0" d="M66.4,31.1c-2.4,0.2-4.7-0.7-6.4-2.4c-1.6-2-2.4-4.5-2.2-7c-0.2-2.7,0.6-5.3,2.1-7.5c1.5-1.8,3.8-2.8,6.2-2.6
	c2-0.1,3.9,0.7,5.2,2.1c1.3,1.8,1.9,4,1.8,6.2c0,0.5,0,1,0,1.4c0,0.3-0.1,0.6-0.1,1H60.1c-0.1,1.9,0.6,3.8,1.8,5.2
	c1.3,1.2,3,1.8,4.8,1.7c0.9,0,1.8-0.1,2.7-0.3c1-0.2,2-0.4,2.9-0.8l0.2,1.9c-1,0.4-2,0.6-3,0.8C68.5,31,67.4,31.1,66.4,31.1z
	 M66.1,13.3c-3.7,0-5.7,2.4-5.9,7.1h10.7c0.1-1.9-0.3-3.8-1.2-5.4C68.9,13.8,67.5,13.2,66.1,13.3z"/>
<path class="st0" d="M78.4,2.2h2.4v28.7h-2.4V2.2z"/>
<path class="st0" d="M94.8,31.1c-2.4,0.2-4.7-0.7-6.4-2.4c-1.6-2-2.3-4.5-2.2-7c-0.2-2.7,0.6-5.3,2.1-7.5c1.5-1.8,3.8-2.8,6.2-2.6
	c2-0.1,3.9,0.7,5.2,2.1c1.2,1.8,1.8,4,1.7,6.2c0,0.5,0,1,0,1.4c0,0.3-0.1,0.6-0.1,1H88.5c0,1.9,0.6,3.8,1.8,5.2
	c1.3,1.2,3,1.8,4.8,1.7c0.9,0,1.8-0.1,2.7-0.3c1-0.2,2-0.4,2.9-0.8l0.2,1.9c-1,0.4-2,0.6-3,0.8C96.9,31,95.9,31.1,94.8,31.1z
	 M94.5,13.3c-3.7,0-5.6,2.4-5.9,7.1h10.7c0.1-1.9-0.3-3.8-1.2-5.4C97.3,13.8,95.9,13.2,94.5,13.3z"/>
<path class="st0" d="M106.7,11.7h2l0.2,2.2h0.2c0.9-0.4,1.8-0.8,2.6-1.2c0.8-0.3,1.5-0.6,2.1-0.8c0.6-0.2,1.2-0.4,1.8-0.5
	c0.5-0.1,1.1-0.1,1.6-0.1c1.4-0.1,2.7,0.4,3.7,1.3c0.9,1.1,1.4,2.5,1.2,3.9v14.3h-2.4V17.4c0.1-1.1-0.2-2.1-0.8-3
	c-0.7-0.6-1.6-1-2.5-0.9c-1.1,0-2.3,0.2-3.4,0.6c-1.4,0.5-2.7,1-4,1.7v15h-2.4L106.7,11.7z"/>
<path class="st0" d="M129.6,7.4c-0.8,0.1-1.5-0.4-1.6-1.2c0-0.1,0-0.2,0-0.3c0-0.9,0.7-1.6,1.6-1.6c0.9,0,1.6,0.7,1.6,1.6
	c0.1,0.8-0.5,1.4-1.3,1.5C129.8,7.5,129.7,7.4,129.6,7.4z M128.4,11.7h2.4v19.1h-2.4V11.7z"/>
<path class="st0" d="M141.7,31.2c-3.1,0-4.7-1.7-4.7-5.2V11.7h2.4v13.5c-0.1,1.1,0.2,2.1,0.7,3c0.6,0.7,1.5,1,2.4,0.9
	c1.3,0,2.5-0.3,3.7-0.7c1.2-0.5,2.5-1,3.9-1.7v-15h2.4v19.1h-2l-0.2-2.4h-0.1l-2.6,1.2c-0.7,0.3-1.4,0.6-2.1,0.9
	c-0.6,0.2-1.2,0.4-1.8,0.5C143,31.1,142.4,31.2,141.7,31.2z"/>
<path class="st0" d="M158.7,11.7h1.9l0.2,2.2h0.1c1.2-0.7,2.5-1.4,3.9-2c1-0.4,2-0.6,3-0.6c1.9-0.3,3.8,0.8,4.5,2.7h0.2
	c0.8-0.5,1.5-0.9,2.2-1.2c0.6-0.3,1.2-0.6,1.8-0.8c0.5-0.2,1-0.4,1.5-0.5c0.5-0.1,1-0.1,1.5-0.1c1.3-0.1,2.7,0.4,3.7,1.3
	c0.9,1.1,1.4,2.5,1.2,3.9v14.3h-2.3V17.3c0.1-1.1-0.2-2.1-0.8-3c-0.7-0.6-1.6-1-2.5-0.9c-0.9,0-1.8,0.2-2.7,0.6
	c-1.1,0.5-2.2,1-3.2,1.6v15.2h-2.4V17.3c0.1-1.1-0.2-2.1-0.8-3c-0.7-0.6-1.6-1-2.5-0.9c-1,0-1.9,0.2-2.8,0.6c-1.1,0.5-2.2,1-3.2,1.6
	v15.2h-2.4L158.7,11.7z"/>
<path class="st0" d="M21.4,21.5c-1.3,0-2.4,0.9-2.5,2.2c0,0,0,0.1,0.1,0.1c0,0,0,0,0,0h4.9c0,0,0.1,0,0.1-0.1c0,0,0,0,0,0
	C23.9,22.4,22.8,21.4,21.4,21.5z"/>
<path class="st0" d="M32.1,4.9L21.6,16.7c-0.1,0.1-0.3,0.1-0.5,0c0,0,0,0,0,0l-5.4-5.5c-0.1-0.1-0.1-0.3,0-0.4l1.8-2.3
	c0.1-0.1,0.3-0.2,0.4-0.1c0,0,0.1,0,0.1,0.1l3,3.3c0.1,0.1,0.3,0.2,0.5,0c0,0,0,0,0,0l8.4-11.5c0.1-0.1,0-0.2-0.1-0.3
	c0,0-0.1,0-0.1,0H0.2C0.1,0,0,0.1,0,0.2v33.5C0,33.9,0.1,34,0.2,34h32c0.1,0,0.2-0.1,0.2-0.2V5.1c0-0.1,0-0.3-0.1-0.3
	C32.2,4.7,32.1,4.8,32.1,4.9z M9.1,30.3c-2.1,0.1-4.2-0.6-5.7-2c-0.1-0.1-0.1-0.3,0-0.4l1.2-1.8C4.7,26,4.8,25.9,5,26c0,0,0,0,0,0
	c1.1,1.1,2.6,1.6,4.2,1.6c1.6,0,2.4-0.8,2.4-1.6c0-2.5-8.1-0.8-8.1-6.1c0-2.3,2-4.3,5.3-4.3c1.9-0.1,3.8,0.6,5.2,1.8
	c0.1,0.1,0.1,0.3,0,0.4l-1.2,1.7c-0.1,0.1-0.3,0.2-0.4,0.1c0,0,0,0,0,0c-1.1-0.9-2.4-1.3-3.8-1.3c-1.3,0-2,0.6-2,1.4
	c0,2.2,8.1,0.7,8.1,6C14.7,28.3,12.8,30.3,9.1,30.3L9.1,30.3z M26.7,25.4c0,0.1-0.1,0.3-0.3,0.3c0,0,0,0,0,0H19c0,0-0.1,0-0.1,0.1
	c0,0,0,0,0,0c0.2,1.4,1.6,2.4,3,2.3c0.9,0,1.8-0.3,2.6-0.8c0.1-0.1,0.3-0.1,0.4,0c0,0,0,0,0,0l0.9,1.3c0.1,0.1,0.1,0.3-0.1,0.4
	c-1.2,0.9-2.6,1.3-4.1,1.3c-2.9,0.2-5.4-2.1-5.6-5c0-0.2,0-0.3,0-0.5c-0.1-2.9,2.2-5.4,5.2-5.5c0.1,0,0.2,0,0.2,0
	c3.1,0,5.2,2.3,5.2,5.7L26.7,25.4z"/>
</svg>
