<?xml version="1.0" encoding="utf-8"?>
<!-- Generator: Adobe Illustrator 26.5.3, SVG Export Plug-In . SVG Version: 6.00 Build 0)  -->
<svg version="1.1" id="레이어_1" xmlns="http://www.w3.org/2000/svg" xmlns:xlink="http://www.w3.org/1999/xlink" x="0px"
	 y="0px" viewBox="0 0 787.5 168.7" style="enable-background:new 0 0 787.5 168.7;" xml:space="preserve">
<style type="text/css">
	.st0{fill:#FFFFFF;}
	.st1{fill:#33CC33;}
</style>
<g id="XMLID_00000003069237913945242360000008231248655507202202_">
	<g>
		<path d="M147.6,116c0,7.5-3.9,14.4-10.3,18.3L84,165.9c-6.3,3.7-14.2,3.7-20.5,0l-53.3-31.6C3.9,130.4,0,123.5,0,116V52.7
			c0-7.5,3.9-14.5,10.4-18.3L63.6,2.8c6.3-3.7,14.2-3.7,20.5,0l53.3,31.6l0,0c6.4,3.9,10.2,10.8,10.2,18.3V116z M143.7,49.9
			c-0.8-5.1-3.8-9.5-8.2-12.2L82.2,6C77,3,70.6,3,65.5,6L12.2,37.7c-5.3,3.2-8.5,8.9-8.4,15.1V116c0,6.2,3.2,11.9,8.4,15.1
			l53.3,31.6c2.5,1.5,5.4,2.3,8.4,2.3c0.9,0,1.9-0.1,2.8-0.3c-2.8-0.9-4.6-3.8-4.6-8.3V94.3c0-7.6,4.6-11.7,10.9-15.4l50.4-31.1l0,0
			c0,0,0,0,0,0h0l0,0C138,45.1,141.9,46.1,143.7,49.9z M123.6,126.6c0.3-0.2,0.5-0.6,0.4-1v-3.1c0-0.1,0-0.2-0.1-0.3
			c-0.1-0.2-0.4-0.2-0.6-0.1l-13.3,7.9c-0.4,0.1-0.6,0.5-0.6,0.9v3.5c0,0.2,0,0.3,0.2,0.4c0.1,0.1,0.3,0.1,0.4,0L123.6,126.6z
			 M101.4,98.5c0.2-0.4,0-0.9-0.3-1.1c-1.7-0.3-3.5-0.1-5.1,0.6v-4.6c0-0.6-0.4-0.8-0.8-0.6l-2.6,1.7c-0.5,0.3-0.8,0.8-0.8,1.4v4.6
			c-3.9,3.1-6.2,7.7-6.3,12.7c0.1,5.7,3.7,6.5,7.5,6.5c3.1,0,4.3,1,4.3,3.3c-0.1,2.7-1.7,5.2-4.2,6.4c-1.7,1-3.7,1.2-5.6,0.7
			c-0.1-0.1-0.3-0.1-0.4,0c-0.4,0.2-0.7,0.6-0.8,1.1l-1,4.1c-0.2,0.4,0,0.8,0.3,1c2,0.5,4.2,0.3,6.1-0.6v4.5c0,0.6,0.4,0.8,0.8,0.6
			l2.7-1.5c0.5-0.3,0.8-0.8,0.8-1.4v-4.5l0,0c4-3.3,6.4-8.2,6.5-13.3c-0.1-5-2.2-7.2-7.1-7.2c-3.7-0.1-4.8-0.7-4.8-2.8
			c0.1-2.4,1.5-4.5,3.7-5.5c1.5-0.9,3.2-1.2,4.9-0.8c0.1,0,0.3,0,0.4,0c0.4-0.2,0.6-0.6,0.7-1L101.4,98.5z"/>
		<path class="st0" d="M135.5,37.7c4.4,2.7,7.4,7.1,8.2,12.2c-1.7-3.8-5.7-4.8-10.3-2.1l0,0L82.9,78.9C76.6,82.6,72,86.7,72,94.3
			v62.1c0,4.5,1.9,7.4,4.6,8.3c-0.9,0.2-1.9,0.3-2.8,0.3c-3,0-5.9-0.8-8.4-2.3l-53.3-31.6c-5.3-3.2-8.5-8.9-8.4-15.1V52.7
			c0-6.2,3.2-11.9,8.4-15.1L65.5,6C70.6,3,77,3,82.2,6L135.5,37.7z"/>
		<path d="M133.3,47.8L133.3,47.8C133.3,47.8,133.3,47.8,133.3,47.8L133.3,47.8z"/>
		<path class="st1" d="M124,125.6c0.1,0.4-0.1,0.8-0.4,1l-13.5,8.2c-0.1,0.1-0.3,0.1-0.4,0c-0.1-0.1-0.2-0.3-0.2-0.4v-3.5
			c0-0.4,0.3-0.7,0.6-0.9l13.3-7.9c0.2-0.1,0.4-0.1,0.6,0.1c0.1,0.1,0.1,0.2,0.1,0.3V125.6z"/>
		<path class="st1" d="M101,97.5c0.4,0.2,0.5,0.7,0.3,1.1l-0.9,4.1c-0.1,0.4-0.4,0.8-0.7,1c-0.1,0-0.3,0-0.4,0
			c-1.7-0.4-3.4-0.1-4.9,0.8c-2.2,0.9-3.6,3.1-3.7,5.5c0,2.1,1.1,2.7,4.8,2.8c4.9,0,7.1,2.2,7.1,7.2c-0.1,5.2-2.5,10.1-6.5,13.3l0,0
			v4.5c0,0.6-0.3,1.1-0.8,1.4l-2.7,1.5c-0.4,0.2-0.8,0-0.8-0.6v-4.5c-1.9,0.9-4.1,1.1-6.1,0.6c-0.3-0.2-0.5-0.6-0.3-1l1-4.1
			c0.1-0.5,0.4-0.8,0.8-1.1c0.1-0.1,0.3-0.1,0.4,0c1.9,0.5,3.9,0.3,5.6-0.7c2.5-1.2,4-3.6,4.2-6.4c0-2.3-1.3-3.3-4.3-3.3
			c-3.9,0-7.4-0.7-7.5-6.5c0.1-4.9,2.4-9.6,6.3-12.7V96c0-0.6,0.3-1.1,0.8-1.4l2.6-1.7c0.4-0.2,0.8,0,0.8,0.6v4.6
			C97.5,97.4,99.3,97.1,101,97.5z"/>
	</g>
</g>
<g>
	<path d="M787.5,112v8l-7.8,1.8c-2.4,0.5-4.9,1-7.4,1.3c-2.6,0.3-5.1,0.5-7.5,0.5c-4.2,0-7.9-0.5-11.2-1.4c-3.8-1.1-7.1-2.9-9.8-5.3
		c-2.8-2.6-4.9-5.8-6.2-9.6c-1.1-3.2-1.6-6.9-1.6-10.9V82.1h-3.3h-10v-10v-9.3v-10h10h3.3v-2.7v-7.7l7.5-1.9l12.2-3.2l12.5-3.2V47
		v5.9h9.3h10v10v9.3v10h-10h-9.3V94c0.8-0.1,1.7-0.2,2.5-0.3c1.5-0.3,2.9-0.6,4.1-0.9l12.7-3.5v13.1V112z M777.5,112v-9.5
		c-1.5,0.4-3.2,0.8-5.1,1.1c-1.9,0.3-3.8,0.5-5.7,0.5c-3.1,0-5.2-0.7-6.5-2.2c-1.3-1.4-1.9-3.6-1.9-6.4V72.1h19.3v-9.3h-19.3V47
		L746,50.2v12.7h-13.3v9.3H746v24.2c0,3,0.4,5.6,1.1,7.7c0.7,2.2,1.9,3.9,3.4,5.3c1.5,1.4,3.5,2.4,5.9,3.1c2.4,0.7,5.2,1,8.4,1
		c2,0,4-0.2,6.2-0.4S775.4,112.5,777.5,112z"/>
	<g>
		<g id="XMLID_00000070830055611300718240000000624254017805142933_">
			<g>
				<path class="st1" d="M215.5,86.4c0.9,1.9,1.3,4.2,1.3,6.8c0,3.5-0.6,6.5-1.9,9.1c-1.3,2.6-3.1,4.7-5.4,6.4
					c-2.3,1.7-5.1,2.9-8.2,3.7s-6.7,1.2-10.4,1.2c-3.4,0-6.6-0.2-9.7-0.6c-3.1-0.4-6.2-1.1-9.3-2V99.2c1.5,0.5,3.1,1,4.7,1.5
					c1.6,0.5,3.3,0.9,4.9,1.2c1.6,0.3,3.3,0.6,4.9,0.8c1.6,0.2,3.2,0.3,4.7,0.3c2.3,0,4.2-0.2,5.8-0.6c1.6-0.4,2.9-0.9,3.9-1.6
					c1-0.7,1.7-1.5,2.2-2.4c0.5-1,0.7-2,0.7-3.1c0-1.6-0.4-2.9-1.3-3.9c-0.9-1.1-2.1-2-3.5-2.8c-1.5-0.8-3.1-1.5-5-2.2
					c-1.9-0.6-3.8-1.3-5.7-2.1c-1.9-0.8-3.8-1.6-5.7-2.5c-1.9-0.9-3.5-2.1-5-3.5c-1.5-1.4-2.6-3.1-3.5-5c-0.9-1.9-1.4-4.3-1.4-7
					c0-2.5,0.5-4.9,1.4-7.1c0.9-2.2,2.3-4.2,4.3-5.9c1.9-1.7,4.5-3,7.5-4c3.1-1,6.8-1.5,11.1-1.5c1.3,0,2.6,0,4,0.2
					c1.4,0.1,2.8,0.3,4.1,0.4c1.3,0.2,2.6,0.4,3.9,0.6c1.2,0.2,2.4,0.5,3.4,0.8v11c-1-0.4-2.2-0.7-3.4-1.1c-1.2-0.3-2.5-0.6-3.8-0.8
					c-1.3-0.2-2.6-0.4-4-0.6c-1.3-0.1-2.6-0.2-3.8-0.2c-2.1,0-3.9,0.2-5.4,0.5c-1.5,0.3-2.7,0.8-3.6,1.4c-0.9,0.6-1.6,1.3-2,2.2
					c-0.4,0.9-0.6,1.8-0.6,2.9c0,1.3,0.4,2.5,1.3,3.4c0.9,1,2.1,1.8,3.6,2.6c1.5,0.8,3.2,1.5,5,2.1c1.9,0.7,3.8,1.4,5.8,2.2
					c2,0.8,3.9,1.6,5.8,2.6c1.9,1,3.6,2.2,5,3.6C213.4,82.9,214.6,84.5,215.5,86.4z"/>
				<path d="M226.8,93.2c0,5-1,9.6-3,13.6c-2,4-4.8,7.4-8.5,10c-3.3,2.4-7.2,4.2-11.7,5.3c-4,1-8.3,1.5-12.9,1.5
					c-3.8,0-7.4-0.2-10.9-0.7c-3.7-0.5-7.3-1.2-10.9-2.3l-7.1-2.1V111V99.2V85.1l13.3,4.6c1,0.3,2.1,0.7,3.2,1
					c-0.1-0.1-0.3-0.2-0.4-0.2c-2.8-1.4-5.2-3.1-7.4-5.2c-2.4-2.3-4.3-5-5.7-8c-1.5-3.3-2.3-7-2.3-11.2c0-3.8,0.7-7.5,2.1-10.9
					c1.5-3.7,3.9-7,7-9.7c3-2.5,6.6-4.5,11-5.9c4.1-1.3,8.7-2,14.2-2c1.5,0,3.1,0.1,4.8,0.2c1.5,0.1,3.1,0.3,4.6,0.5
					c1.5,0.2,3.1,0.4,4.5,0.7c1.4,0.3,2.7,0.6,3.9,0.9l7.6,1.9v7.8v11V75l-4.2-1.6c0.3,0.2,0.6,0.5,0.9,0.8c2.4,2.2,4.3,4.9,5.8,8
					C226.1,85.4,226.8,89.1,226.8,93.2z M216.8,93.2c0-2.6-0.4-4.9-1.3-6.8c-0.9-1.9-2.1-3.6-3.6-5c-1.5-1.4-3.2-2.6-5-3.6
					c-1.9-1-3.8-1.8-5.8-2.6c-2-0.8-3.9-1.5-5.8-2.2c-1.9-0.7-3.5-1.4-5-2.1c-1.5-0.8-2.7-1.6-3.6-2.6c-0.9-1-1.3-2.1-1.3-3.4
					c0-1.1,0.2-2,0.6-2.9c0.4-0.9,1.1-1.6,2-2.2c0.9-0.6,2.2-1.1,3.6-1.4c1.5-0.3,3.3-0.5,5.4-0.5c1.2,0,2.5,0.1,3.8,0.2
					c1.3,0.1,2.7,0.3,4,0.6c1.3,0.2,2.6,0.5,3.8,0.8c1.2,0.3,2.4,0.7,3.4,1.1v-11c-1-0.3-2.2-0.5-3.4-0.8c-1.3-0.2-2.6-0.5-3.9-0.6
					c-1.4-0.2-2.7-0.3-4.1-0.4c-1.4-0.1-2.7-0.2-4-0.2c-4.3,0-8,0.5-11.1,1.5c-3.1,1-5.6,2.3-7.5,4c-2,1.7-3.4,3.6-4.3,5.9
					c-0.9,2.2-1.4,4.6-1.4,7.1c0,2.7,0.4,5.1,1.4,7c0.9,1.9,2.1,3.6,3.5,5c1.5,1.4,3.1,2.6,5,3.5c1.9,0.9,3.8,1.8,5.7,2.5
					c1.9,0.8,3.8,1.5,5.7,2.1c1.9,0.7,3.5,1.4,5,2.2c1.5,0.8,2.6,1.8,3.5,2.8c0.9,1.1,1.3,2.4,1.3,3.9c0,1.1-0.2,2.2-0.7,3.1
					c-0.5,0.9-1.2,1.8-2.2,2.4c-1,0.7-2.3,1.2-3.9,1.6c-1.6,0.4-3.5,0.6-5.8,0.6c-1.5,0-3.1-0.1-4.7-0.3c-1.6-0.2-3.3-0.5-4.9-0.8
					c-1.6-0.3-3.3-0.7-4.9-1.2c-1.6-0.4-3.2-0.9-4.7-1.5V111c3.1,0.9,6.2,1.6,9.3,2c3.1,0.4,6.4,0.6,9.7,0.6c3.8,0,7.3-0.4,10.4-1.2
					s5.9-2.1,8.2-3.7c2.3-1.7,4.1-3.8,5.4-6.4C216.2,99.7,216.8,96.7,216.8,93.2z"/>
			</g>
		</g>
	</g>
	<g>
		<g id="XMLID_00000153666761244299579010000014609107359319619499_">
			<g>
				<path class="st1" d="M268.3,79.2v33.3h-11.9V80.1c0-5.4-2-8.1-6-8.1c-2,0-3.9,0.8-5.8,2.4c-1.8,1.6-3.8,3.8-5.8,6.6v31.4h-11.9
					v-69h11.9v17l-0.6,9c1-1.2,2-2.3,3.1-3.2c1-1,2.2-1.8,3.4-2.4c1.2-0.6,2.5-1.1,3.9-1.5s2.9-0.5,4.6-0.5c2.5,0,4.8,0.4,6.6,1.2
					c1.9,0.8,3.5,2,4.7,3.5c1.3,1.5,2.2,3.3,2.9,5.5C268,74.1,268.3,76.5,268.3,79.2z"/>
				<path d="M278.3,112.5v10h-10h-11.9h-7.7h-10h-11.9h-10v-10v-69v-10h10h11.9h10v10v8.6c1.4-0.2,2.9-0.3,4.4-0.3
					c3.9,0,7.5,0.7,10.7,2.1c3.3,1.5,6.1,3.6,8.4,6.2c2.1,2.6,3.8,5.6,4.8,9c0.9,3,1.4,6.4,1.4,10V112.5z M268.3,112.5V79.2
					c0-2.6-0.3-5-0.9-7.2c-0.6-2.1-1.6-3.9-2.9-5.5c-1.3-1.5-2.9-2.7-4.7-3.5c-1.9-0.8-4.1-1.2-6.6-1.2c-1.7,0-3.2,0.2-4.6,0.5
					s-2.7,0.8-3.9,1.5c-1.2,0.7-2.3,1.5-3.4,2.4c-1,1-2.1,2-3.1,3.2l0.6-9v-17h-11.9v69h11.9V81.1c2.1-2.8,4-5,5.8-6.6
					c1.8-1.6,3.8-2.4,5.8-2.4c4,0,6,2.7,6,8.1v32.3H268.3z"/>
			</g>
		</g>
	</g>
	<g>
		<g id="XMLID_00000103238423216716822890000017943904840126019456_">
			<g>
				<path class="st1" d="M323,83.8c0,0.8,0,1.9-0.1,3.2c0,1.3-0.1,2.5-0.2,3.7h-32.6c0,2.2,0.3,4.1,1,5.8c0.7,1.7,1.6,3,2.8,4.2
					c1.2,1.1,2.7,2,4.4,2.6s3.6,0.9,5.7,0.9c2.4,0,5-0.2,7.7-0.6c2.8-0.4,5.6-1,8.6-1.8v9.5c-1.3,0.4-2.6,0.7-4.1,1
					c-1.5,0.3-3,0.5-4.6,0.8c-1.6,0.2-3.1,0.4-4.7,0.5c-1.6,0.1-3.1,0.2-4.6,0.2c-3.8,0-7.2-0.5-10.1-1.6c-3-1.1-5.5-2.7-7.6-4.8
					c-2.1-2.1-3.7-4.7-4.8-7.8c-1.1-3.1-1.7-6.7-1.7-10.7c0-4,0.6-7.7,1.7-11c1.1-3.3,2.7-6.1,4.7-8.5c2-2.4,4.5-4.2,7.3-5.5
					c2.9-1.3,6.1-1.9,9.6-1.9c3.5,0,6.6,0.5,9.3,1.6c2.7,1.1,5,2.6,6.8,4.6c1.8,1.9,3.2,4.3,4.1,7C322.5,77.7,323,80.6,323,83.8z
					 M310.9,82.1c0-2-0.2-3.7-0.7-5.1c-0.5-1.4-1.2-2.6-2.1-3.6c-0.9-0.9-1.9-1.6-3.1-2.1c-1.2-0.5-2.5-0.7-3.8-0.7
					c-3,0-5.5,1-7.4,3c-1.9,2-3.1,4.8-3.4,8.5H310.9z"/>
				<path d="M333,83.8c0,0.9,0,2.1-0.1,3.5c-0.1,1.5-0.1,2.8-0.2,4.1l-0.8,9.2h-1.6v1v9.5v7.6l-7.3,2.1c-1.5,0.4-3.2,0.8-5,1.2
					c-1.6,0.3-3.3,0.6-5.1,0.9c-1.8,0.3-3.6,0.5-5.5,0.6c-1.8,0.1-3.6,0.2-5.4,0.2c-4.9,0-9.5-0.7-13.5-2.2c-4.4-1.6-8.2-4-11.3-7.1
					c-3.1-3.1-5.5-7-7.1-11.5c-1.5-4.2-2.2-8.9-2.2-14.1c0-5.1,0.7-9.9,2.2-14.2c1.5-4.5,3.7-8.5,6.6-11.8c3-3.5,6.6-6.2,10.9-8.1
					c4.1-1.8,8.8-2.8,13.7-2.8c4.8,0,9.2,0.8,13.1,2.4c4.1,1.6,7.5,4,10.4,7c2.8,3,4.9,6.5,6.3,10.5C332.3,75.4,333,79.5,333,83.8z
					 M322.9,87c0.1-1.3,0.1-2.4,0.1-3.2c0-3.2-0.5-6.2-1.4-8.9c-0.9-2.7-2.3-5-4.1-7c-1.8-2-4.1-3.5-6.8-4.6
					c-2.7-1.1-5.8-1.6-9.3-1.6c-3.5,0-6.8,0.7-9.6,1.9c-2.9,1.3-5.3,3.1-7.3,5.5c-2,2.4-3.6,5.2-4.7,8.5c-1.1,3.3-1.7,7-1.7,11
					c0,4.1,0.6,7.7,1.7,10.7c1.1,3.1,2.7,5.7,4.8,7.8c2.1,2.1,4.6,3.7,7.6,4.8c3,1.1,6.4,1.6,10.1,1.6c1.5,0,3-0.1,4.6-0.2
					c1.6-0.1,3.2-0.3,4.7-0.5c1.6-0.2,3.1-0.5,4.6-0.8c1.5-0.3,2.9-0.6,4.1-1v-9.5c-3,0.8-5.8,1.5-8.6,1.8c-2.8,0.4-5.3,0.6-7.7,0.6
					c-2.1,0-4-0.3-5.7-0.9s-3.2-1.4-4.4-2.6c-1.2-1.1-2.2-2.5-2.8-4.2c-0.7-1.7-1-3.6-1-5.8h32.6C322.8,89.5,322.9,88.3,322.9,87z"
					/>
				<path d="M310.1,77c0.5,1.5,0.8,3.2,0.7,5.1h-20.6c0.4-3.7,1.5-6.5,3.4-8.5c1.9-2,4.4-3,7.4-3c1.4,0,2.6,0.2,3.8,0.7
					c1.2,0.5,2.2,1.2,3.1,2.1C308.9,74.4,309.6,75.6,310.1,77z"/>
			</g>
		</g>
	</g>
	<g>
		<g id="XMLID_00000157283757570702969790000014231809146695374745_">
			<g>
				<polygon class="st1" points="375.3,103.2 375.3,112.5 333,112.5 333,103.2 348.8,103.2 348.8,52.7 334.8,52.7 334.8,43.5 
					361,43.5 361,103.2 				"/>
				<path d="M385.3,112.5v10h-10H333h-10v-10v-9.3v-10h10h5.7V62.7h-4h-10v-10v-9.3v-10h10H361h10v10v49.7h4.3h10v10V112.5z
					 M375.3,112.5v-9.3H361V43.5h-26.2v9.3h14v50.4H333v9.3H375.3z"/>
			</g>
		</g>
	</g>
	<g>
		<g id="XMLID_00000157292671038283061020000015180617466759612347_">
			<g>
				<polygon class="st1" points="428.3,103.2 428.3,112.5 386,112.5 386,103.2 401.8,103.2 401.8,52.7 387.7,52.7 387.7,43.5 
					414,43.5 414,103.2 				"/>
				<path d="M438.3,112.5v10h-10H386h-10v-10v-9.3v-10h10h5.7V62.7h-4h-10v-10v-9.3v-10h10H414h10v10v49.7h4.3h10v10V112.5z
					 M428.3,112.5v-9.3H414V43.5h-26.2v9.3h14v50.4H386v9.3H428.3z"/>
			</g>
		</g>
	</g>
	<g>
		<g id="XMLID_00000033348498431146654030000013886270083251590565_">
			<g>
				<path class="st1" d="M513.4,86.4c0.9,1.9,1.3,4.2,1.3,6.8c0,3.5-0.6,6.5-1.9,9.1c-1.3,2.6-3.1,4.7-5.4,6.4
					c-2.3,1.7-5.1,2.9-8.3,3.7s-6.7,1.2-10.4,1.2c-3.4,0-6.6-0.2-9.7-0.6c-3.1-0.4-6.2-1.1-9.3-2V99.2c1.5,0.5,3.1,1,4.7,1.5
					c1.6,0.5,3.3,0.9,4.9,1.2c1.6,0.3,3.3,0.6,4.9,0.8c1.6,0.2,3.2,0.3,4.7,0.3c2.3,0,4.2-0.2,5.8-0.6c1.6-0.4,2.9-0.9,3.9-1.6
					c1-0.7,1.7-1.5,2.2-2.4c0.5-1,0.7-2,0.7-3.1c0-1.6-0.5-2.9-1.4-3.9c-0.9-1.1-2.1-2-3.5-2.8c-1.5-0.8-3.1-1.5-5-2.2
					c-1.9-0.6-3.8-1.3-5.7-2.1c-1.9-0.8-3.8-1.6-5.7-2.5c-1.9-0.9-3.5-2.1-5-3.5c-1.5-1.4-2.6-3.1-3.5-5c-0.9-1.9-1.3-4.3-1.3-7
					c0-2.5,0.5-4.9,1.4-7.1c0.9-2.2,2.4-4.2,4.3-5.9c1.9-1.7,4.5-3,7.5-4c3.1-1,6.8-1.5,11.1-1.5c1.3,0,2.6,0,4,0.2
					c1.4,0.1,2.8,0.3,4.1,0.4c1.4,0.2,2.7,0.4,3.9,0.6c1.2,0.2,2.4,0.5,3.4,0.8v11c-1-0.4-2.2-0.7-3.4-1.1c-1.2-0.3-2.5-0.6-3.8-0.8
					c-1.3-0.2-2.6-0.4-4-0.6c-1.3-0.1-2.6-0.2-3.8-0.2c-2.1,0-3.9,0.2-5.4,0.5c-1.5,0.3-2.7,0.8-3.6,1.4c-0.9,0.6-1.6,1.3-2.1,2.2
					c-0.4,0.9-0.6,1.8-0.6,2.9c0,1.3,0.4,2.5,1.3,3.4c0.9,1,2.1,1.8,3.6,2.6c1.5,0.8,3.2,1.5,5,2.1c1.9,0.7,3.8,1.4,5.8,2.2
					c2,0.8,3.9,1.6,5.8,2.6c1.9,1,3.5,2.2,5,3.6C511.3,82.9,512.5,84.5,513.4,86.4z"/>
				<path d="M524.7,93.2c0,5-1,9.6-3,13.6c-2,4-4.9,7.4-8.5,10c-3.3,2.4-7.2,4.2-11.6,5.3c-4,1-8.3,1.5-12.9,1.5
					c-3.8,0-7.4-0.2-11-0.7c-3.7-0.5-7.3-1.2-10.9-2.3l-7.2-2.1V111V99.2V85.1l13.3,4.6c1,0.3,2.1,0.7,3.2,1
					c-0.1-0.1-0.3-0.2-0.4-0.2c-2.7-1.4-5.2-3.1-7.4-5.2c-2.4-2.3-4.3-5-5.7-8c-1.5-3.3-2.3-7-2.3-11.2c0-3.8,0.7-7.5,2.1-10.9
					c1.5-3.7,3.9-7,7-9.7c3-2.5,6.6-4.5,10.9-5.9c4.1-1.3,8.7-2,14.2-2c1.5,0,3.1,0.1,4.8,0.2c1.5,0.1,3.1,0.3,4.6,0.5
					c1.5,0.2,3.1,0.4,4.5,0.7c1.4,0.3,2.8,0.6,4,0.9l7.6,1.9v7.8v11V75l-4.2-1.6c0.3,0.2,0.6,0.5,0.9,0.8c2.4,2.2,4.3,4.9,5.8,8
					C523.9,85.4,524.7,89.1,524.7,93.2z M514.7,93.2c0-2.6-0.5-4.9-1.3-6.8c-0.9-1.9-2.1-3.6-3.6-5c-1.5-1.4-3.1-2.6-5-3.6
					c-1.9-1-3.8-1.8-5.8-2.6c-2-0.8-3.9-1.5-5.8-2.2c-1.9-0.7-3.6-1.4-5-2.1c-1.5-0.8-2.7-1.6-3.6-2.6c-0.9-1-1.3-2.1-1.3-3.4
					c0-1.1,0.2-2,0.6-2.9c0.4-0.9,1.1-1.6,2.1-2.2c0.9-0.6,2.1-1.1,3.6-1.4c1.5-0.3,3.3-0.5,5.4-0.5c1.2,0,2.5,0.1,3.8,0.2
					c1.3,0.1,2.7,0.3,4,0.6c1.3,0.2,2.6,0.5,3.8,0.8c1.2,0.3,2.4,0.7,3.4,1.1v-11c-1-0.3-2.2-0.5-3.4-0.8c-1.2-0.2-2.5-0.5-3.9-0.6
					c-1.4-0.2-2.7-0.3-4.1-0.4c-1.4-0.1-2.7-0.2-4-0.2c-4.3,0-8,0.5-11.1,1.5c-3.1,1-5.6,2.3-7.5,4c-2,1.7-3.4,3.6-4.3,5.9
					c-0.9,2.2-1.4,4.6-1.4,7.1c0,2.7,0.4,5.1,1.3,7c0.9,1.9,2.1,3.6,3.5,5c1.5,1.4,3.1,2.6,5,3.5c1.9,0.9,3.8,1.8,5.7,2.5
					c1.9,0.8,3.8,1.5,5.7,2.1c1.9,0.7,3.5,1.4,5,2.2c1.5,0.8,2.6,1.8,3.5,2.8c0.9,1.1,1.4,2.4,1.4,3.9c0,1.1-0.2,2.2-0.7,3.1
					c-0.5,0.9-1.2,1.8-2.2,2.4c-1,0.7-2.3,1.2-3.9,1.6c-1.6,0.4-3.5,0.6-5.8,0.6c-1.5,0-3.1-0.1-4.7-0.3c-1.6-0.2-3.3-0.5-4.9-0.8
					c-1.6-0.3-3.3-0.7-4.9-1.2c-1.6-0.4-3.2-0.9-4.7-1.5V111c3.1,0.9,6.2,1.6,9.3,2c3.1,0.4,6.4,0.6,9.7,0.6c3.8,0,7.2-0.4,10.4-1.2
					s6-2.1,8.3-3.7c2.3-1.7,4.1-3.8,5.4-6.4C514.1,99.7,514.7,96.7,514.7,93.2z"/>
			</g>
		</g>
	</g>
	<g>
		<g id="XMLID_00000062162294452503055320000017645876969335818684_">
			<g>
				<path class="st1" d="M564.8,100v10.6c-2.3,0.9-4.8,1.6-7.3,2.1c-2.5,0.5-5.1,0.7-7.9,0.7c-3.9,0-7.5-0.5-10.6-1.6
					c-3.1-1.1-5.8-2.7-8-4.8c-2.2-2.1-3.8-4.7-5-7.9c-1.2-3.1-1.7-6.7-1.7-10.8c0-4,0.6-7.6,1.9-10.8c1.2-3.2,3-6,5.3-8.2
					c2.3-2.3,5-4,8.2-5.3c3.2-1.2,6.8-1.9,10.7-1.9c3.2,0,5.9,0.2,8.1,0.5c2.2,0.3,4.2,0.8,5.9,1.3v11.6c-2-1-4.2-1.8-6.6-2.3
					c-2.4-0.5-4.6-0.8-6.7-0.8c-2.2,0-4.2,0.4-6,1.1c-1.8,0.7-3.2,1.8-4.5,3.1c-1.2,1.3-2.1,3-2.8,4.9c-0.6,1.9-1,4-1,6.3
					c0,2.4,0.3,4.5,1,6.4s1.7,3.5,2.9,4.8c1.3,1.3,2.8,2.3,4.5,3c1.8,0.7,3.7,1.1,5.9,1.1c1,0,2.1-0.1,3.3-0.2
					c1.1-0.2,2.3-0.4,3.5-0.6c1.2-0.3,2.3-0.6,3.4-1S563.8,100.4,564.8,100z"/>
				<path d="M574.8,110.6v6.8l-6.3,2.5c-3,1.2-6.1,2.1-9.2,2.7c-3.1,0.6-6.3,0.9-9.6,0.9c-5,0-9.7-0.7-13.8-2.2
					c-4.5-1.6-8.4-3.9-11.7-7.1c-3.3-3.2-5.8-7.1-7.4-11.6c-1.6-4.2-2.4-9-2.4-14.3c0-5.2,0.9-10,2.6-14.4c1.8-4.5,4.3-8.4,7.5-11.7
					c3.3-3.3,7.2-5.8,11.7-7.5c4.3-1.7,9.2-2.5,14.3-2.5c3.8,0,6.9,0.2,9.7,0.6c2.6,0.4,5.1,0.9,7.2,1.6l7.2,2.1v7.5v11.6v9.4
					l0.2-0.1V100V110.6z M560.8,90.8l6.5-2.8l-7.2-3.6c-1.3-0.7-2.8-1.2-4.4-1.5c-1.6-0.4-3.1-0.6-4.4-0.6c-0.8,0-1.6,0.1-2,0.3
					c-0.5,0.2-0.8,0.5-0.9,0.6c-0.3,0.3-0.5,0.7-0.7,1.3c-0.3,0.9-0.4,1.9-0.4,3.1c0,1.2,0.1,2.2,0.4,3c0.2,0.6,0.5,1,0.8,1.3
					c0.2,0.2,0.4,0.4,1,0.6c0.6,0.2,1.3,0.3,2.2,0.3c0.6,0,1.3-0.1,2-0.1c0.8-0.1,1.6-0.2,2.4-0.4c0.9-0.2,1.8-0.5,2.7-0.8
					C559.4,91.4,560.2,91.1,560.8,90.8z M564.8,110.6V100c-1,0.4-2,0.8-3.1,1.2s-2.3,0.7-3.4,1c-1.1,0.3-2.3,0.5-3.5,0.6
					c-1.2,0.1-2.3,0.2-3.3,0.2c-2.2,0-4.1-0.3-5.9-1.1c-1.8-0.7-3.3-1.7-4.5-3c-1.2-1.3-2.2-2.9-2.9-4.8s-1-4-1-6.4
					c0-2.3,0.3-4.4,1-6.3c0.6-1.9,1.5-3.5,2.8-4.9c1.2-1.3,2.7-2.4,4.5-3.1c1.8-0.8,3.7-1.1,6-1.1c2.1,0,4.3,0.3,6.7,0.8
					c2.4,0.6,4.5,1.3,6.6,2.3V63.9c-1.8-0.5-3.7-0.9-5.9-1.3c-2.2-0.3-4.9-0.5-8.1-0.5c-3.9,0-7.5,0.6-10.7,1.9
					c-3.2,1.2-6,3-8.2,5.3c-2.3,2.3-4,5-5.3,8.2c-1.2,3.2-1.9,6.8-1.9,10.8c0,4.1,0.6,7.7,1.7,10.8c1.2,3.1,2.8,5.7,5,7.9
					c2.2,2.1,4.8,3.7,8,4.8c3.1,1.1,6.7,1.6,10.6,1.6c2.7,0,5.4-0.2,7.9-0.7C560,112.2,562.5,111.5,564.8,110.6z"/>
			</g>
		</g>
	</g>
	<g>
		<g id="XMLID_00000026158367819869632940000000977406959068980376_">
			<g>
				<path class="st1" d="M620.8,73.3c0.6,2.6,0.9,5.5,0.8,8.9h-12c0.1-1.9,0-3.4-0.3-4.7c-0.2-1.3-0.6-2.4-1.2-3.2
					c-0.5-0.8-1.2-1.5-2-1.9c-0.8-0.4-1.7-0.6-2.7-0.6c-1.8,0-3.6,0.7-5.4,2.2c-1.9,1.4-3.9,3.8-6.2,7.1v31.4h-12.2V62.9h10.8
					l0.4,7.2c0.8-1.3,1.7-2.4,2.8-3.4c1-1,2.2-1.9,3.4-2.6c1.3-0.7,2.7-1.3,4.2-1.7c1.5-0.4,3.2-0.6,5-0.6c2.5,0,4.7,0.4,6.7,1.3
					c1.9,0.9,3.6,2.1,4.9,3.8C619.1,68.6,620.1,70.7,620.8,73.3z"/>
				<path d="M630.5,70.9c0.8,3.4,1.2,7.3,1.1,11.6l-0.3,9.7h-9.7h-12h-7.7v20.3v10h-10h-12.2h-10v-10V62.9v-10h10h10.8h7.7
					c0.2-0.1,0.4-0.1,0.7-0.2c2.3-0.6,4.9-0.9,7.5-0.9c3.9,0,7.5,0.7,10.7,2.2c3.4,1.5,6.4,3.8,8.7,6.8
					C627.9,63.6,629.5,67,630.5,70.9z M621.6,82.1c0.1-3.4-0.2-6.3-0.8-8.9c-0.6-2.5-1.6-4.7-2.9-6.4c-1.3-1.7-3-3-4.9-3.8
					c-1.9-0.9-4.2-1.3-6.7-1.3c-1.8,0-3.5,0.2-5,0.6c-1.5,0.4-2.9,1-4.2,1.7c-1.2,0.7-2.4,1.6-3.4,2.6c-1,1-2,2.1-2.8,3.4l-0.4-7.2
					h-10.8v49.6h12.2V81.1c2.2-3.3,4.3-5.7,6.2-7.1c1.9-1.5,3.7-2.2,5.4-2.2c1,0,1.9,0.2,2.7,0.6c0.8,0.4,1.4,1,2,1.9
					c0.5,0.8,0.9,1.9,1.2,3.2c0.2,1.3,0.3,2.9,0.3,4.7H621.6z"/>
			</g>
		</g>
	</g>
	<g>
		<g id="XMLID_00000135680325638769474160000006142551890132814989_">
			<g>
				<path class="st1" d="M659.3,46.3c0.4,0.9,0.6,2,0.6,3c0,1.1-0.2,2.1-0.6,3c-0.4,1-0.9,1.8-1.6,2.5c-0.7,0.7-1.5,1.2-2.5,1.7
					c-1,0.4-2,0.6-3.1,0.6s-2.1-0.2-3.1-0.6c-1-0.4-1.8-1-2.5-1.7c-0.7-0.7-1.2-1.5-1.6-2.5c-0.4-0.9-0.6-2-0.6-3
					c0-1.1,0.2-2.1,0.6-3c0.4-1,0.9-1.8,1.6-2.5c0.7-0.7,1.5-1.3,2.5-1.7c1-0.4,2-0.6,3.1-0.6s2.1,0.2,3.1,0.6
					c0.9,0.4,1.8,1,2.5,1.7C658.3,44.5,658.9,45.3,659.3,46.3z"/>
				<polygon class="st1" points="673.2,103.2 673.2,112.5 630.9,112.5 630.9,103.2 646.7,103.2 646.7,72.1 632.6,72.1 632.6,62.9 
					658.9,62.9 658.9,103.2 				"/>
				<path d="M683.2,112.5v10h-10h-42.2h-10v-10v-9.3v-10h10h5.7V82.1h-4h-10v-10v-9.3v-10h10h2c-0.2-1.2-0.4-2.4-0.4-3.6
					c0-2.4,0.5-4.7,1.3-6.8c0.9-2.1,2.1-4,3.7-5.7c1.6-1.7,3.6-3,5.7-3.9c2.2-0.9,4.5-1.4,7-1.4c2.5,0,4.8,0.5,7,1.4
					c2.1,0.9,4,2.2,5.7,3.9c1.6,1.6,2.8,3.5,3.7,5.7c0.9,2.2,1.3,4.5,1.3,6.8c0,2-0.3,4-1,5.9v7.7v30.3h4.3h10v10V112.5z
					 M673.2,112.5v-9.3h-14.3V62.9h-26.2v9.3h14v31.1h-15.7v9.3H673.2z M659.8,49.3c0-1.1-0.2-2.1-0.6-3c-0.4-1-0.9-1.8-1.6-2.5
					c-0.7-0.7-1.5-1.3-2.5-1.7c-1-0.4-2-0.6-3.1-0.6s-2.1,0.2-3.1,0.6c-1,0.4-1.8,1-2.5,1.7c-0.7,0.7-1.2,1.5-1.6,2.5
					c-0.4,0.9-0.6,2-0.6,3c0,1.1,0.2,2.1,0.6,3c0.4,1,0.9,1.8,1.6,2.5c0.7,0.7,1.5,1.2,2.5,1.7c1,0.4,2,0.6,3.1,0.6s2.1-0.2,3.1-0.6
					c0.9-0.4,1.8-1,2.5-1.7c0.7-0.7,1.2-1.5,1.6-2.5C659.6,51.4,659.8,50.4,659.8,49.3z"/>
			</g>
		</g>
	</g>
	<g>
		<g id="XMLID_00000061462428281323457100000003584541546431778739_">
			<g>
				<path d="M738.2,86.8c0,5.8-0.9,11-2.6,15.4c-1.8,4.7-4.4,8.7-7.8,11.9c-3.4,3.2-7.3,5.6-11.8,7.1c-3.3,1.1-6.8,1.8-10.5,2v8.6
					v10h-10h-11.9h-10v-10v-69v-10h10h10.3h8c0.2,0,0.4-0.1,0.5-0.1c2.3-0.6,4.8-0.9,7.5-0.9c4.5,0,8.7,1,12.4,2.9
					c3.7,1.9,6.8,4.6,9.3,8.1c2.2,3.1,4,6.9,5.1,11.1C737.7,77.7,738.2,82.1,738.2,86.8z M728.2,86.8c0-3.8-0.4-7.3-1.2-10.4
					c-0.8-3.1-2-5.7-3.5-7.9c-1.5-2.2-3.5-3.8-5.7-5c-2.3-1.2-4.9-1.8-7.8-1.8c-1.8,0-3.5,0.2-4.9,0.6c-1.5,0.4-2.8,1-4.1,1.7
					c-1.3,0.7-2.5,1.6-3.5,2.7c-1.1,1-2.1,2.2-3.2,3.5l-0.3-7.3h-10.3v69h11.9v-19.4c1,0.3,2.1,0.5,3.4,0.6c1.2,0.2,2.5,0.2,3.7,0.2
					c3.7,0,7.1-0.5,10.2-1.6c3.1-1.1,5.8-2.7,8.1-4.9c2.3-2.2,4.1-5,5.4-8.3C727.6,95.3,728.2,91.3,728.2,86.8z"/>
				<path class="st1" d="M727,76.4c0.8,3.1,1.2,6.5,1.2,10.4c0,4.6-0.6,8.5-1.9,11.8c-1.3,3.3-3.1,6.1-5.4,8.3
					c-2.3,2.2-5,3.8-8.1,4.9c-3.1,1.1-6.5,1.6-10.2,1.6c-1.2,0-2.5-0.1-3.7-0.2c-1.2-0.2-2.4-0.4-3.4-0.6v19.4h-11.9v-69h10.3
					l0.3,7.3c1-1.3,2.1-2.4,3.2-3.5c1.1-1,2.3-1.9,3.5-2.7c1.3-0.7,2.6-1.3,4.1-1.7c1.5-0.4,3.1-0.6,4.9-0.6c2.9,0,5.5,0.6,7.8,1.8
					c2.3,1.2,4.2,2.8,5.7,5C725,70.7,726.2,73.3,727,76.4z M715.7,87.3c0-2.7-0.2-5.1-0.6-7c-0.4-1.9-1-3.5-1.7-4.7
					c-0.7-1.2-1.6-2.1-2.7-2.7s-2.3-0.8-3.6-0.8c-2,0-4,0.8-5.8,2.4c-1.8,1.6-3.8,3.8-5.8,6.6v21.7c0.9,0.4,2.1,0.7,3.5,0.9
					c1.4,0.2,2.8,0.3,4.2,0.3c1.9,0,3.6-0.4,5.2-1.2c1.5-0.8,2.9-1.9,4-3.3c1.1-1.4,1.9-3.2,2.5-5.2
					C715.5,92.2,715.7,89.8,715.7,87.3z"/>
				<path d="M715.2,80.3c0.4,1.9,0.6,4.2,0.6,7c0,2.6-0.3,4.9-0.9,7c-0.6,2.1-1.4,3.8-2.5,5.2c-1.1,1.4-2.4,2.5-4,3.3
					c-1.5,0.8-3.3,1.2-5.2,1.2c-1.4,0-2.8-0.1-4.2-0.3c-1.4-0.2-2.5-0.5-3.5-0.9V81.1c2-2.8,4-5,5.8-6.6c1.8-1.6,3.8-2.4,5.8-2.4
					c1.4,0,2.6,0.3,3.6,0.8s1.9,1.5,2.7,2.7C714.2,76.8,714.8,78.4,715.2,80.3z M705.7,87.3c0-1.2,0-2.1-0.1-2.9
					c0,0-0.1,0.1-0.1,0.1v5.7C705.7,89.3,705.7,88.3,705.7,87.3z"/>
			</g>
		</g>
	</g>
	<g>
		<g id="XMLID_00000106827316364148637420000013517289147116947903_">
			<g>
				<path class="st1" d="M777.5,102.5v9.5c-2.1,0.5-4.3,0.9-6.5,1.2s-4.2,0.4-6.2,0.4c-3.3,0-6.1-0.3-8.4-1
					c-2.4-0.7-4.3-1.7-5.9-3.1c-1.6-1.4-2.7-3.2-3.4-5.3c-0.7-2.2-1.1-4.7-1.1-7.7V72.1h-13.3v-9.3H746V50.2l12.2-3.2v15.9h19.3v9.3
					h-19.3v23.3c0,2.8,0.6,5,1.9,6.4c1.3,1.5,3.5,2.2,6.5,2.2c2,0,3.9-0.2,5.7-0.5C774.3,103.3,776,102.9,777.5,102.5z"/>
			</g>
		</g>
	</g>
</g>
</svg>
