<?xml version="1.0" encoding="utf-8"?>
<!-- Generator: Adobe Illustrator 26.5.3, SVG Export Plug-In . SVG Version: 6.00 Build 0)  -->
<svg version="1.1"
	 id="svg29" xmlns:svg="http://www.w3.org/2000/svg" xmlns:inkscape="http://www.inkscape.org/namespaces/inkscape" xmlns:sodipodi="http://sodipodi.sourceforge.net/DTD/sodipodi-0.dtd" xmlns:rdf="http://www.w3.org/1999/02/22-rdf-syntax-ns#" xmlns:dc="http://purl.org/dc/elements/1.1/" xmlns:cc="http://creativecommons.org/ns#" inkscape:version="0.92.3 (unknown)" sodipodi:docname="PVLG-Spring-FullColor-Transparent.svg"
	 xmlns="http://www.w3.org/2000/svg" xmlns:xlink="http://www.w3.org/1999/xlink" x="0px" y="0px" viewBox="0 0 245.1 63"
	 style="enable-background:new 0 0 245.1 63;" xml:space="preserve">
<style type="text/css">
	.st0{fill:#5FB832;}
	.st1{fill:#FFFFFF;}
</style>
<sodipodi:namedview  bordercolor="#666666" borderopacity="1" gridtolerance="10" guidetolerance="10" id="namedview31" inkscape:current-layer="g37" inkscape:cx="122.54666" inkscape:cy="31.493334" inkscape:pageopacity="0" inkscape:pageshadow="2" inkscape:window-height="1025" inkscape:window-maximized="1" inkscape:window-width="1853" inkscape:window-x="67" inkscape:window-y="27" inkscape:zoom="6.8626921" objecttolerance="10" pagecolor="#ffffff" showgrid="false">
	</sodipodi:namedview>
<g id="g39" transform="scale(0.1)">
	<path id="path41" inkscape:connector-curvature="0" class="st0" d="M643.9,438.1c-7.5-4.1-13.3-12.7-13.3-24.3
		c0-15.6,12.1-28.3,28.4-28.3c5.8,0,11,1.7,15,4c29.5,19.7,60.2,29.5,88,29.5c30.1,0,47.4-12.7,47.4-33v-1.1
		c0-23.7-32.4-31.8-68.3-42.8c-45.1-12.7-95.4-31.2-95.4-89.7v-1.2c0-57.9,48-93.2,108.8-93.2c32.4,0,66.5,9.3,96,24.9
		c9.9,5.2,16.8,14.5,16.8,26.6c0,16.2-12.7,28.4-28.9,28.4c-5.8,0-9.3-1.2-13.9-3.5c-24.9-12.7-50.4-20.9-71.8-20.9
		c-27.2,0-42.8,12.8-42.8,30.1v1.1c0,22.6,33,31.8,68.9,43.4c44.6,13.9,94.9,34.1,94.9,89.1v1.2c0,64.2-49.8,96-113.4,96
		C721.5,474.5,679.2,462.4,643.9,438.1"/>
	<path id="path43" inkscape:connector-curvature="0" class="st0" d="M1144.8,316.6v-1.2c0-59-39.9-97.8-87.4-97.8
		c-47.4,0-89.1,39.3-89.1,97.8v1.2c0,58.4,41.7,97.8,89.1,97.8C1105.5,414.4,1144.8,376.8,1144.8,316.6 M900.1,193.3
		c0-19.6,15-35.3,34.7-35.3c19.7,0,35.3,15.6,35.3,35.3v20.9c22.6-31.8,54.4-57.3,104.2-57.3c71.7,0,141.8,56.7,141.8,158.5v1.2
		c0,101.3-69.4,158.5-141.8,158.5c-50.9,0-82.7-25.5-104.2-53.8v108.1c0,19.7-15.6,34.8-35.3,34.8c-19.1,0-34.7-15-34.7-34.8V193.3"
		/>
	<path id="path45" inkscape:connector-curvature="0" class="st0" d="M1242.5,193.4c0-19.6,15-35.3,34.7-35.3
		c19.7,0,35.3,15.6,35.3,35.3v16.8c3.5-26.2,46.3-52.1,76.9-52.1c22,0,34.7,14.5,34.7,34.7c0,18.5-12.2,30.7-27.8,33.6
		c-49.8,8.7-83.9,52.2-83.9,112.5v100.9c0,19.1-15.6,34.7-35.3,34.7c-19.1,0-34.7-15.1-34.7-34.7V193.4"/>
	<path id="path47" inkscape:connector-curvature="0" class="st0" d="M1450.7,193.5c0-19.7,15.1-35.3,34.7-35.3
		c19.7,0,35.3,15.6,35.3,35.3v246.3c0,19.6-15.6,34.7-35.3,34.7c-19.1,0-34.7-15-34.7-34.7V193.5"/>
	<path id="path49" inkscape:connector-curvature="0" class="st0" d="M1556,193.6c0-19.7,15.1-35.3,34.7-35.3
		c19.7,0,35.3,15.6,35.3,35.3V208c19.7-28.4,48-49.8,95.5-49.8c68.9,0,108.8,46.3,108.8,116.9v164.7c0,19.7-15.1,34.7-34.7,34.7
		c-19.7,0-35.3-15.1-35.3-34.7V296.5c0-47.4-23.7-74.6-65.4-74.6c-40.5,0-68.9,28.3-68.9,75.8v142.1c0,19.7-15.6,34.7-35.3,34.7
		c-19.1,0-34.7-15.1-34.7-34.7L1556,193.6"/>
	<path id="path51" inkscape:connector-curvature="0" class="st0" d="M2015.3,413.7c-48.1,0-87.4-37.6-87.4-97.8v-1.1
		c0-59,39.9-97.8,87.4-97.8c47.5,0,89.1,39.4,89.1,97.8v1.1C2104.4,374.4,2062.8,413.7,2015.3,413.7 M2137.9,157.4
		c-19.6,0-35.3,15.7-35.3,35.3v20.8c-22.6-31.8-54.4-57.3-104.1-57.3c-71.8,0-141.8,56.7-141.8,158.5v1.1
		c0,101.3,69.4,158.5,141.8,158.5c50.6,0,82.4-25.2,103.8-53.3c-3.5,55-37.2,84.1-96.3,84.1c-35.3,0-65.9-8.7-93.8-24.4
		c-3.5-1.7-7.5-2.8-12.7-2.8c-16.2,0-29.5,13.3-29.5,28.9c0,13.3,7.5,23.2,19.7,27.8c37,17.9,75.1,27.2,118,27.2
		c55,0,97.8-13.3,125.6-41.1c25.4-25.5,39.3-63.6,39.3-115.1V192.7C2172.7,173.1,2157.6,157.4,2137.9,157.4"/>
	<path id="path53" inkscape:connector-curvature="0" class="st0" d="M1521,73.9c0,19.5-15.8,35.3-35.3,35.3
		c-19.5,0-35.3-15.8-35.3-35.3c0-19.5,15.8-35.3,35.3-35.3C1505.2,38.6,1521,54.4,1521,73.9"/>
	<g id="XMLID_00000037654054070593204020000014115531956563446671_">
		<g>
			<path class="st1" d="M141.6,509.9c11.5,9.3,13.3,26.3,3.9,37.8c-9.3,11.6-26.3,13.3-37.8,4l-2.3-2.1c-9.4-9.7-10.3-25-1.7-35.7
				c5.3-6.6,13.1-10,21-10C130.6,503.9,136.6,505.8,141.6,509.9z"/>
			<path class="st1" d="M572.4,453.5C494.8,557,329,522,222.7,527.1c0,0-18.6,1-37.5,4c1.5-0.7,8-3.3,16.1-6.1
				c74.6-25.8,109.9-31,155.3-54.3c85.2-43.6,170-138.8,187.3-237.5c-32.5,95-131.1,176.8-221,210c-61.5,22.7-172.7,44.7-172.7,44.7
				c0.1,0.1-4.4-2.3-4.5-2.3c-2-1-4-2.1-6-3.3c-69.6-42.2-68.1-198.7,65.6-250.1c60.2-23.2,117.8-10.5,182.9-26
				c69.4-16.5,149.8-68.5,182.5-136.6c9.5,28,19.4,60.2,27.6,94.2C621.9,261.7,631,375.5,572.4,453.5z"/>
			<path class="st0" d="M573.8,35.9c14.7,44.3,27.2,85.9,36.6,124.9l-12.1,3c-8.2-34-18.1-66.2-27.6-94.2
				C538,137.7,457.6,189.7,388.2,206.2c-65.1,15.5-122.7,2.8-182.9,26C71.6,283.6,70.1,440.1,139.7,482.3l-15,21.6
				c-7.9,0-15.7,3.4-21,10c-8.6,10.7-7.7,26,1.7,35.7l-4.6-4C38.8,488,0,406,0,314.9C0,141.3,141.3,0.1,314.9,0.1
				c88.3,0,168.1,36.5,225.4,95.3C553.3,77.7,564.5,57.9,573.8,35.9z"/>
			<path class="st0" d="M610.4,160.8c16.5,67.2,23.9,126.3,18.4,176.9c-11.6,163-147.9,292.2-313.9,292.2
				c-77.1,0-147.7-27.9-202.5-74l-4.7-4.2c11.5,9.3,28.5,7.6,37.8-4c9.4-11.5,7.6-28.5-3.9-37.8c-5-4.1-11-6-16.9-6l15-21.6
				c2,1.2,4,2.3,6,3.3c0.1,0,4.6,2.4,4.5,2.3c0,0,111.2-22,172.7-44.7c89.9-33.2,188.5-115,221-210
				c-17.3,98.7-102.1,193.9-187.3,237.5c-45.4,23.3-80.7,28.5-155.3,54.3c-8.1,2.8-14.6,5.4-16.1,6.1c18.9-3,37.5-4,37.5-4
				C329,522,494.8,557,572.4,453.5c58.6-78,49.5-191.8,25.9-289.7L610.4,160.8z"/>
		</g>
	</g>
	<path id="path57" inkscape:connector-curvature="0" class="st0" d="M2224.6,179.5h-11V194h11c3.6,0,7.5-2.9,7.5-7.1
		C2232.1,182.4,2228.2,179.5,2224.6,179.5z M2231.4,215.5l-10.7-16.2h-7.1v16.2h-5.7v-41.1h16.7c6.9,0,13.4,4.9,13.4,12.5
		c0,9.1-8.1,12.2-10.5,12.2l11,16.4H2231.4z M2221.6,164.4c-16.9,0-30.5,13.5-30.5,30.5c0,16.7,13.5,30.5,30.5,30.5
		c16.7,0,30.5-13.7,30.5-30.5C2252.1,177.9,2238.4,164.4,2221.6,164.4z M2221.6,230.8c-19.8,0-35.9-16.1-35.9-35.9
		c0-20,16.1-35.9,35.9-35.9c20,0,35.9,15.9,35.9,35.9C2257.5,214.7,2241.6,230.8,2221.6,230.8"/>
</g>
</svg>
