<?xml version="1.0" encoding="utf-8"?>
<!-- Generator: Adobe Illustrator 26.5.3, SVG Export Plug-In . SVG Version: 6.00 Build 0)  -->
<svg version="1.1"
	 id="svg2" xmlns:sodipodi="http://sodipodi.sourceforge.net/DTD/sodipodi-0.dtd" xmlns:svg="http://www.w3.org/2000/svg" xmlns:inkscape="http://www.inkscape.org/namespaces/inkscape" xmlns:dc="http://purl.org/dc/elements/1.1/" xmlns:cc="http://creativecommons.org/ns#" xmlns:rdf="http://www.w3.org/1999/02/22-rdf-syntax-ns#" inkscape:export-filename="C:\Users\dfernandez\Desktop\thymeleaf_new.png" inkscape:export-xdpi="283.16165" inkscape:export-ydpi="283.16165" inkscape:version="0.91 r13725" sodipodi:docname="thymeleaf.svg"
	 xmlns="http://www.w3.org/2000/svg" xmlns:xlink="http://www.w3.org/1999/xlink" x="0px" y="0px" viewBox="0 0 740 150.3"
	 style="enable-background:new 0 0 740 150.3;" xml:space="preserve">
<style type="text/css">
	.st0{fill:#FFFFFF;}
	.st1{enable-background:new    ;}
	.st2{fill:#ECECEC;}
	.st3{fill:#005F0F;}
	.st4{fill:#AEA99F;}
</style>
<sodipodi:namedview  bordercolor="#666666" borderopacity="1.0" id="base" inkscape:current-layer="layer1" inkscape:cx="329.62599" inkscape:cy="804.45425" inkscape:document-units="px" inkscape:pageopacity="0.0" inkscape:pageshadow="2" inkscape:window-height="998" inkscape:window-maximized="1" inkscape:window-width="1920" inkscape:window-x="1440" inkscape:window-y="1" inkscape:zoom="1.1688298" pagecolor="#ffffff" showgrid="false" showguides="false">
	</sodipodi:namedview>
<g id="flowRoot4165">
</g>
<g>
	<g id="path4191">
		<rect x="128.9" y="31.1" class="st0" width="0" height="0"/>
	</g>
	<g class="st1">
		<path class="st2" d="M190.8,111.5l15.8-75.7h-28l2-9.7h67.2l-2,9.7H218l-15.8,75.7H190.8z"/>
	</g>
	<g class="st1">
		<path class="st2" d="M237.4,111.5l17.8-85.4h10.5l-6.8,32.8c3.9-3.8,7.6-6.5,11-8.2c3.4-1.7,6.9-2.5,10.4-2.5
			c5.1,0,9.1,1.4,11.9,4c2.8,2.7,4.3,6.3,4.3,10.7c0,2.2-0.6,6.2-1.9,12l-7.6,36.5h-10.5l7.9-37.5c1.1-5.4,1.7-8.9,1.7-10.3
			c0-2-0.7-3.7-2.1-5c-1.4-1.3-3.4-1.9-6.1-1.9c-3.8,0-7.4,1-10.9,3c-3.5,2-6.2,4.7-8.1,8.2c-2,3.5-3.8,9.1-5.4,16.8l-5.5,26.6
			H237.4z"/>
	</g>
	<g class="st1">
		<path class="st2" d="M296.6,135.4l0.6-9.9c2.2,0.6,4.3,0.9,6.4,0.9c2.1,0,3.9-0.5,5.2-1.5c1.7-1.3,3.6-3.7,5.6-7.2l3.4-6.1
			l-10.3-62h10.4l4.7,31.3c0.9,6.2,1.7,12.4,2.4,18.5l27.7-49.8h11L324,119.7c-3.8,6.8-7.2,11.4-10.1,13.6c-3,2.2-6.4,3.3-10.2,3.3
			C301.3,136.6,298.9,136.2,296.6,135.4z"/>
	</g>
	<g class="st1">
		<path class="st2" d="M356.9,111.5l12.9-61.9h10.5l-2.2,10.2c3.9-4.4,7.4-7.4,10.5-9.1s6.4-2.5,10.1-2.5c3.8,0,7.1,1,9.6,3.1
			s4.3,4.9,5.1,8.5c3.1-3.9,6.5-6.8,9.9-8.7c3.5-1.9,7.1-2.9,11-2.9c5.2,0,9,1.2,11.6,3.7c2.6,2.4,3.9,5.9,3.9,10.3
			c0,1.9-0.4,5-1.3,9.4l-8.3,39.9h-10.5l8.5-40.9c0.7-3.3,1.1-5.7,1.1-7.2c0-2-0.6-3.6-1.9-4.8c-1.3-1.2-3.1-1.7-5.4-1.7
			c-3.1,0-6.4,1-9.6,2.9c-3.3,1.9-5.8,4.4-7.6,7.5c-1.8,3.1-3.4,7.8-4.7,14.2l-6.3,30h-10.5l8.7-41.8c0.6-2.8,0.9-4.9,0.9-6.1
			c0-2-0.6-3.7-1.9-4.9c-1.3-1.2-2.9-1.9-4.9-1.9c-3,0-6.1,1-9.4,2.9c-3.3,1.9-6,4.6-8,8c-2.1,3.4-3.7,8.2-5.1,14.5l-6.1,29.2H356.9
			z"/>
	</g>
	<g class="st1">
		<path class="st2" d="M498.6,90.5l10.3,1c-1.5,5.1-4.9,9.9-10.2,14.5c-5.3,4.6-11.6,6.9-19,6.9c-4.6,0-8.8-1.1-12.6-3.2
			c-3.8-2.1-6.7-5.2-8.7-9.2c-2-4-3-8.6-3-13.8c0-6.8,1.6-13.3,4.7-19.7c3.1-6.4,7.2-11.1,12.1-14.2c5-3.1,10.4-4.6,16.1-4.6
			c7.4,0,13.3,2.3,17.7,6.9c4.4,4.6,6.6,10.8,6.6,18.8c0,3-0.3,6.1-0.8,9.3h-45.6c-0.2,1.2-0.2,2.3-0.2,3.3c0,5.8,1.3,10.2,4,13.3
			c2.7,3,5.9,4.6,9.8,4.6c3.6,0,7.2-1.2,10.7-3.6C493.9,98.4,496.6,95,498.6,90.5z M467.9,75.2h34.7c0-1.1,0.1-1.9,0.1-2.3
			c0-5.3-1.3-9.3-4-12.1c-2.6-2.8-6-4.2-10.2-4.2c-4.5,0-8.6,1.6-12.3,4.7C472.5,64.2,469.8,68.9,467.9,75.2z"/>
	</g>
	<g class="st1">
		<path class="st2" d="M515.5,111.5l17.8-85.4h10.5L526,111.5H515.5z"/>
	</g>
	<g class="st1">
		<path class="st2" d="M585,90.5l10.3,1c-1.5,5.1-4.9,9.9-10.2,14.5c-5.3,4.6-11.6,6.9-19,6.9c-4.6,0-8.8-1.1-12.6-3.2
			c-3.8-2.1-6.7-5.2-8.7-9.2c-2-4-3-8.6-3-13.8c0-6.8,1.6-13.3,4.7-19.7c3.1-6.4,7.2-11.1,12.1-14.2s10.4-4.6,16.1-4.6
			c7.4,0,13.3,2.3,17.7,6.9c4.4,4.6,6.6,10.8,6.6,18.8c0,3-0.3,6.1-0.8,9.3h-45.6c-0.2,1.2-0.2,2.3-0.2,3.3c0,5.8,1.3,10.2,4,13.3
			c2.7,3,5.9,4.6,9.8,4.6c3.6,0,7.2-1.2,10.7-3.6C580.3,98.4,583.1,95,585,90.5z M554.4,75.2h34.7c0-1.1,0.1-1.9,0.1-2.3
			c0-5.3-1.3-9.3-4-12.1c-2.6-2.8-6-4.2-10.2-4.2c-4.5,0-8.6,1.6-12.3,4.7C559,64.2,556.2,68.9,554.4,75.2z"/>
	</g>
	<g class="st1">
		<path class="st2" d="M644.4,103.8c-3.7,3.1-7.2,5.4-10.5,6.9c-3.4,1.5-7,2.2-10.8,2.2c-5.7,0-10.3-1.7-13.8-5
			c-3.5-3.4-5.2-7.7-5.2-12.9c0-3.5,0.8-6.5,2.4-9.2c1.6-2.7,3.7-4.8,6.3-6.4c2.6-1.6,5.8-2.8,9.6-3.5c2.4-0.5,6.9-0.8,13.5-1.1
			c6.6-0.3,11.4-1,14.2-2.1c0.8-2.9,1.2-5.3,1.2-7.2c0-2.4-0.9-4.4-2.7-5.8c-2.4-1.9-6-2.9-10.7-2.9c-4.4,0-8.1,1-10.9,2.9
			c-2.8,2-4.9,4.7-6.1,8.4L610,67.2c2.2-6.1,5.6-10.8,10.3-14.1c4.7-3.3,10.7-4.9,17.9-4.9c7.7,0,13.7,1.8,18.2,5.5
			c3.4,2.7,5.1,6.3,5.1,10.6c0,3.3-0.5,7.1-1.5,11.5l-3.4,15.4c-1.1,4.9-1.6,8.9-1.6,11.9c0,1.9,0.4,4.7,1.3,8.4h-10.7
			C645.1,109.5,644.7,106.9,644.4,103.8z M648.3,80.2c-1.5,0.6-3.1,1-4.7,1.3c-1.7,0.3-4.5,0.6-8.5,1c-6.1,0.5-10.5,1.2-13,2.1
			c-2.5,0.8-4.4,2.2-5.7,4c-1.3,1.8-1.9,3.8-1.9,6.1c0,3,1,5.4,3.1,7.3c2,1.9,4.9,2.9,8.7,2.9c3.5,0,6.9-0.9,10.1-2.8
			c3.2-1.8,5.8-4.4,7.6-7.7C645.8,91,647.3,86.3,648.3,80.2z"/>
	</g>
	<g class="st1">
		<path class="st2" d="M667.3,111.5l11.2-53.7h-9.4l1.7-8.2h9.4l1.8-8.8c0.9-4.4,1.9-7.6,2.9-9.5s2.6-3.5,4.8-4.8
			c2.2-1.3,5.3-1.9,9.1-1.9c2.7,0,6.6,0.6,11.7,1.7l-1.9,9.2c-3.6-0.9-6.6-1.4-9-1.4c-2.1,0-3.6,0.5-4.7,1.5c-1.1,1-2,3.5-2.8,7.3
			l-1.4,6.6h11.8l-1.7,8.2h-11.8l-11.2,53.7H667.3z"/>
	</g>
	<g class="st1">
	</g>
	<g id="rect4415">
		
			<path inkscape:export-filename="C:\Users\dfernandez\Desktop\thymeleaf_new.png" inkscape:export-xdpi="39.758492" inkscape:export-ydpi="39.758492" class="st3" d="
			M41.7,15h102.7c4.7,0,8.5,3.8,8.5,8.5v102.9c0,4.7-3.8,8.5-8.5,8.5H41.7c-4.7,0-8.5-3.8-8.5-8.5V23.5C33.2,18.8,37,15,41.7,15z"/>
		<path class="st2" d="M144.4,137H41.7c-5.8,0-10.5-4.7-10.5-10.5V23.5c0-5.8,4.7-10.5,10.5-10.5h102.7c5.8,0,10.5,4.7,10.5,10.5
			v102.9C154.9,132.3,150.2,137,144.4,137z M41.7,17c-3.6,0-6.5,2.9-6.5,6.5v102.9c0,3.6,2.9,6.5,6.5,6.5h102.7
			c3.6,0,6.5-2.9,6.5-6.5V23.5c0-3.6-2.9-6.5-6.5-6.5H41.7z"/>
	</g>
	<g id="path4417">
		
			<path inkscape:export-filename="C:\Users\dfernandez\Desktop\thymeleaf_new.png" inkscape:export-xdpi="39.758492" inkscape:export-ydpi="39.758492" sodipodi:cx="89.308342" sodipodi:cy="927.31293" sodipodi:end="0.18880423" sodipodi:open="true" sodipodi:rx="21.532141" sodipodi:ry="21.532141" sodipodi:start="0.1882215" sodipodi:type="arc" class="st0" d="
			M108.8,107.9C108.8,107.9,108.8,107.9,108.8,107.9"/>
	</g>
	<g id="path4419">
		<path inkscape:connector-curvature="0" class="st0" d="M135.3,31.4c-14.8,18.1-32.8,33.2-52,46.3c-6.2,4.5-13.1,8.4-17.9,14.6
			c-1.8,3.2-2.3,7.8,0.9,10.4c5.2,4.9,13.4,6,19.9,3.2c9.2-3.5,15.5-11.4,20.8-19.3C118.8,69.5,125.9,49.8,135.3,31.4z"/>
	</g>
	<g id="path4421">
		<path inkscape:connector-curvature="0" sodipodi:nodetypes="cccccccccc" class="st4" d="M126.8,37.6C108.4,52.2,93.7,60,75,66.8
			c-5.7,2.4-11.7,5.5-14.4,11.5c-2.7,5.6-1.8,13.5,1.3,18.7c-0.2-2.2,0.9-5.7,2.7-7.4c5.8-6.4,13.3-10.7,20-15.6l0,0l0,0
			C99.9,63.4,114.3,51.4,126.8,37.6L126.8,37.6z"/>
	</g>
</g>
</svg>
