<?xml version="1.0" encoding="utf-8"?>
<!-- Generator: Adobe Illustrator 26.5.3, SVG Export Plug-In . SVG Version: 6.00 Build 0)  -->
<svg version="1.1" id="레이어_1" xmlns:v="https://vecta.io/nano"
	 xmlns="http://www.w3.org/2000/svg" xmlns:xlink="http://www.w3.org/1999/xlink" x="0px" y="0px" viewBox="0 0 669.4 197.8"
	 style="enable-background:new 0 0 669.4 197.8;" xml:space="preserve">
<style type="text/css">
	.st0{fill:#D1A41A;}
	.st1{fill:#FFDC76;}
	.st2{stroke:#000000;stroke-width:6;stroke-miterlimit:10;}
	.st3{stroke:#000000;stroke-width:2;stroke-miterlimit:10;}
</style>
<g>
	<path class="st0" d="M248.8,180.2l-44.6-47.4l-5.1,3.4c-24.7-14.6-43.2-35.5-52.6-67c-33.7,8.3-73.1,29.6-98.4,58.4c0,0,0,0,0,0
		c-25.2,27.3-41.4,52.9-45.7,62.2l24.6,0.2c-0.9-11,1.9-20.2,9.4-30.5c34-46.4,161.6,7.1,212,36l26.8-0.2
		C275.2,195.2,271.2,177.6,248.8,180.2L248.8,180.2L248.8,180.2z"/>
	<path class="st1" d="M200.1,136.1c-51.9-25.9-65.9-89-53.2-132.3c0,0,9.7,4.5,18.8,26.1c21-6,45.5-6.6,66.9-0.7c0,0,2.6-17,18.1-25
		C253,14.3,268.6,94.2,200.1,136.1z"/>
	<path d="M106.6,86l15.1-7.3l8.6,23.3L106.6,86L106.6,86z M89.6,94.6L99,89l8.6,15.2L89.6,94.6z M71.4,106.3l8.2-5.4l4.1,14
		L71.4,106.3L71.4,106.3z M216.5,145.1l-5.4-5.4l-7.5,11.9L216.5,145.1z M227.3,158.1l-4.3-4.3l-12.9,8.6L227.3,158.1L227.3,158.1z
		 M147.1,63.6l-0.6-8.6l15.1,7.7L147.1,63.6L147.1,63.6z M151.9,76.1l-3-6.4l10.6,4.3L151.9,76.1z M251.1,67.1l2.2-6.5l-11.9,5
		L251.1,67.1z M246.7,80.2l1.1-5.3l-8.6,2.6L246.7,80.2z M142.2,96.9h28.2v3.5h-28.2V96.9z M142.2,88.5h28.2V92h-28.2V88.5z
		 M228.4,96.9h28.2v3.5h-28.2L228.4,96.9L228.4,96.9z M228.4,88.5h28.2V92h-28.2L228.4,88.5L228.4,88.5z"/>
	<path d="M256.2,35.1L256.2,35.1c-0.1-5.5-1.8-28.5-4.9-34.9c-8.4,3.2-23.7,13.6-27.1,24.3c-16.5-2.5-35.2-2.2-51.7,0.7
		C169.8,13.6,156.1,4.9,145.7,0c-4.4,7.4-6.3,24.6-5.8,36.8c0,0,0,0-0.1,0c1.9,51.2,26.9,83.1,59.6,102.4
		C233.1,120,257.1,82.3,256.2,35.1C256.1,35.1,256.2,35.1,256.2,35.1z M199.9,132.7c-51.3-25.8-61.1-91-52.3-125.6
		c2.4,13.4,6.9,21.8,16.4,25.9c8.9-2.6,19.2-4.1,29.8-4.6l7.6,17.6l5.6-17.7c9.8,0.4,19.3,1.7,27.6,4c8.8-6.4,12.3-16.3,14.1-24.9
		c2.3,10,2.1,31.7,2.1,31.7l0.1-0.4C251.8,81.3,230.2,115.3,199.9,132.7L199.9,132.7L199.9,132.7z"/>
	<path d="M273.2,186.1c-5.3-5.9-15.6-8.7-24.2-8.5c-6.1-7.3-41.6-45-41.6-45l-2.5,3.1l42.9,46.4l1.9-0.2c11.6-1,18.3,5.3,20.1,7.3
		c1.3,1.5,2.1,2.8,2.5,3.8h-23.6c-54-28.3-101.5-48.3-151.6-52.7c0.1-7.1,1.4-15,3.8-23.9l-4.6-1.3c-2.5,9.1-3.8,17.4-3.9,24.8
		c-5.3-0.4-10.6-0.5-15.9-0.5c-4.5,0-8.6,0.4-12.4,1.2c-4.9-4.9-9.1-9.6-12.6-14.1c23.4-24.5,62-46.7,95.5-54.9l-1.1-4.7
		c-36.1,8.8-75.6,32.5-97.6,55.6C38,108.6,33.9,97.2,32.8,88.7c-1.5-10.8,1.1-20.8,7.5-28.9c10-12.6,24.2-13.4,39-11
		c-0.3,2.3,0,4.6,0.9,5.9c3.9,5.8,24.7,7.8,37.1,2.2c-9.2-12.9-27.8-19.2-32.9-16.8c-1.7,0.8-3,2.4-3.9,4.2
		c-5.1-0.9-10.1-1.6-13.8-1.6c-12.9,0.1-22.8,4.6-30.2,13.9c-7.3,9.1-10.2,20.3-8.5,32.5c1.6,11.6,7.3,23.9,16.9,36.7l-4.6,5.1
		C17.1,157.2,0,185.4,0,190v2.4h30.7l-0.5-2.9c-1.7-9.2,1.7-20.8,8.8-29.4c4.5-5.4,11.8-11.6,23.5-14.5
		c10.3,10.1,23.5,20.8,38.1,31.2h22.8v-2.4c0-2.7-1.3-5.1-3.8-6.7c-3.6-2.4-9.2-2.7-14.3-0.9c-4.9-5.5-7.6-12.8-8.2-21.8
		c49.6,4.4,97,24.6,150.5,52.7h29.5l0-1.9C276.7,190.2,273.2,186.1,273.2,186.1L273.2,186.1L273.2,186.1z M35.2,157.3
		c-7.3,8.8-11.1,20.5-10.2,30.5H5.5c3.9-8.5,19.4-33,42.3-57.8c3.2,3.9,6.7,7.9,10.5,11.9c-11.2,3.4-18.7,9.7-23.3,15.4H35.2z
		 M171.2,53L171.2,53L171.2,53L171.2,53z"/>
	<path d="M237.3,53.4v-3.1c-11.7,0-18.7,4.6-22,14.4h-25.2c1.8-7.9,2.1-15.6-0.5-20.1c-1.5-2.5-3.8-3.8-6.7-3.8
		c-10.4,0-14.5,10.7-14.7,11.1l2.9,1.1c0.1-0.4,3.6-9,11.8-9c1.8,0,3,0.7,4,2.3c2.1,3.7,1.8,10.9,0,18.4h-14.3v3.1l13.6,0
		c-1.5,5.2-3.5,10.3-5.8,14.3l-0.7,1.3l18,11.3l-10.1,6.7l1.7,2.6l11.3-7.5l12.2,8l1.7-2.7l-11.3-7l17.8-11.5c0,0,0,0,0,0l-0.1,0
		l0,0c-3.7-5.5-4.9-10.2-3.4-15.5l14.7,0l0-3.1h-13.7C221.2,58.8,224.7,53.4,237.3,53.4L237.3,53.4L237.3,53.4z M200.5,92.8
		l-13.3-8.4l26,0L200.5,92.8L200.5,92.8L200.5,92.8z M214.3,67.8c-1.1,3.6-0.7,8.9,2.1,13.5h-32c2-3.9,3.8-8.7,5.1-13.5H214.3z"/>
</g>
<g>
	<path class="st2" d="M344.2,85.7h-10.3l-7.1-20.3h-31.4l-7.1,20.3h-9.8L304.9,13h12.9L344.2,85.7z M323.8,57.1l-12.7-35.7
		l-12.8,35.7H323.8z"/>
	<path class="st2" d="M402.5,57.7c0,4.4-0.6,8.5-1.9,12.1s-3.1,6.8-5.4,9.3c-2.1,2.4-4.7,4.3-7.6,5.6c-2.9,1.3-6,2-9.3,2
		c-2.8,0-5.4-0.3-7.7-0.9s-4.6-1.6-7-2.9v22.9h-9.2V31.1h9.2v5.7c2.4-2.1,5.2-3.8,8.2-5.2c3-1.4,6.3-2.1,9.7-2.1
		c6.6,0,11.7,2.5,15.4,7.4C400.7,42,402.5,48.9,402.5,57.7z M393.1,58c0-6.6-1.1-11.5-3.4-14.7c-2.2-3.3-5.7-4.9-10.4-4.9
		c-2.6,0-5.3,0.6-8,1.7c-2.7,1.1-5.2,2.6-7.7,4.5v30.9c2.6,1.2,4.8,2,6.7,2.4c1.9,0.4,4,0.6,6.4,0.6c5.1,0,9.1-1.7,12-5.2
		C391.6,69.9,393.1,64.8,393.1,58z"/>
	<path class="st2" d="M459.2,85.7h-9.1v-5.8c-0.8,0.6-1.9,1.3-3.3,2.3c-1.4,1-2.7,1.8-4,2.4c-1.5,0.7-3.3,1.4-5.3,1.9
		c-2,0.5-4.3,0.8-7,0.8c-4.9,0-9.1-1.6-12.5-4.9c-3.4-3.3-5.1-7.4-5.1-12.5c0-4.1,0.9-7.5,2.7-10c1.8-2.6,4.3-4.6,7.6-6
		c3.3-1.5,7.3-2.5,12-3c4.7-0.5,9.7-0.9,15-1.2v-1.4c0-2.1-0.4-3.8-1.1-5.2s-1.8-2.4-3.1-3.2c-1.3-0.7-2.9-1.3-4.7-1.5
		c-1.8-0.3-3.7-0.4-5.7-0.4c-2.4,0-5.1,0.3-8.1,1c-3,0.6-6,1.6-9.2,2.8h-0.5v-9.3c1.8-0.5,4.4-1,7.8-1.6c3.4-0.6,6.7-0.9,10-0.9
		c3.8,0,7.2,0.3,10,1c2.8,0.6,5.3,1.7,7.4,3.2c2.1,1.5,3.6,3.4,4.7,5.8c1.1,2.4,1.6,5.3,1.6,8.8V85.7z M450.1,72.2V57.1
		c-2.8,0.2-6.1,0.4-9.9,0.7c-3.8,0.3-6.8,0.8-9,1.4c-2.6,0.7-4.8,1.9-6.4,3.5c-1.6,1.6-2.4,3.8-2.4,6.5c0,3.1,0.9,5.5,2.8,7.1
		c1.9,1.6,4.8,2.4,8.6,2.4c3.2,0,6.2-0.6,8.8-1.9C445.3,75.5,447.8,74,450.1,72.2z"/>
	<path class="st2" d="M517.2,82.3c-3.1,1.5-6,2.6-8.7,3.4c-2.8,0.8-5.7,1.2-8.8,1.2c-3.9,0-7.6-0.6-10.8-1.7
		c-3.3-1.2-6.1-2.9-8.4-5.2c-2.4-2.3-4.2-5.3-5.5-8.9c-1.3-3.6-2-7.8-2-12.5c0-8.9,2.4-15.9,7.3-21c4.9-5.1,11.4-7.6,19.4-7.6
		c3.1,0,6.2,0.4,9.2,1.3c3,0.9,5.8,2,8.3,3.2v10.2h-0.5c-2.8-2.2-5.7-3.9-8.7-5s-5.9-1.8-8.7-1.8c-5.2,0-9.3,1.8-12.3,5.2
		c-3,3.5-4.5,8.6-4.5,15.4c0,6.6,1.5,11.6,4.4,15.2c2.9,3.5,7.1,5.3,12.4,5.3c1.9,0,3.7-0.2,5.7-0.7c1.9-0.5,3.6-1.1,5.2-1.9
		c1.3-0.7,2.6-1.4,3.8-2.2c1.2-0.8,2.1-1.4,2.8-2h0.5V82.3z"/>
	<path class="st2" d="M574.6,85.7h-9.2V54.6c0-2.5-0.1-4.9-0.4-7.1s-0.8-3.9-1.6-5.2c-0.8-1.4-2-2.4-3.5-3.1c-1.5-0.7-3.5-1-6-1
		c-2.5,0-5.1,0.6-7.9,1.9c-2.7,1.2-5.4,2.8-7.9,4.7v40.7H529v-76h9.2v27.5c2.9-2.4,5.8-4.2,8.9-5.6c3.1-1.3,6.2-2,9.4-2
		c5.9,0,10.4,1.8,13.5,5.3c3.1,3.5,4.6,8.7,4.6,15.3V85.7z"/>
	<path class="st2" d="M637.9,59.3h-40.2c0,3.4,0.5,6.3,1.5,8.8c1,2.5,2.4,4.5,4.2,6.1c1.7,1.6,3.7,2.7,6,3.5
		c2.3,0.8,4.9,1.2,7.7,1.2c3.7,0,7.4-0.7,11.2-2.2c3.8-1.5,6.4-2.9,8-4.4h0.5v10c-3.1,1.3-6.2,2.4-9.5,3.3s-6.6,1.3-10.2,1.3
		c-9,0-16.1-2.4-21.2-7.3c-5.1-4.9-7.6-11.9-7.6-20.9c0-8.9,2.4-16,7.3-21.2c4.9-5.2,11.3-7.9,19.2-7.9c7.4,0,13,2.1,17,6.4
		c4,4.3,6,10.4,6,18.3V59.3z M629,52.3c0-4.8-1.2-8.5-3.6-11.2s-6-4-10.9-4c-4.9,0-8.8,1.4-11.7,4.3c-2.9,2.9-4.6,6.5-5,10.8H629z"
		/>
	<path class="st2" d="M338.8,121.6h-26v64.1h-9.7v-64.1h-26V113h61.6V121.6z"/>
	<path class="st2" d="M383.5,158.4c0,8.9-2.3,15.9-6.8,21c-4.6,5.1-10.7,7.7-18.3,7.7c-7.7,0-13.8-2.6-18.4-7.7
		c-4.5-5.1-6.8-12.2-6.8-21s2.3-15.9,6.8-21.1c4.5-5.2,10.7-7.7,18.4-7.7c7.6,0,13.8,2.6,18.3,7.7
		C381.3,142.5,383.5,149.5,383.5,158.4z M374.1,158.4c0-7.1-1.4-12.3-4.2-15.7c-2.8-3.4-6.6-5.2-11.5-5.2c-5,0-8.8,1.7-11.6,5.2
		c-2.8,3.4-4.1,8.7-4.1,15.7c0,6.8,1.4,12,4.2,15.6c2.8,3.5,6.6,5.3,11.6,5.3c4.9,0,8.7-1.7,11.5-5.2
		C372.7,170.5,374.1,165.3,374.1,158.4z"/>
	<path class="st2" d="M477.3,185.7h-9.2v-31.1c0-2.3-0.1-4.6-0.3-6.8c-0.2-2.2-0.7-3.9-1.3-5.2c-0.7-1.4-1.8-2.5-3.2-3.2
		c-1.4-0.7-3.4-1.1-6.1-1.1c-2.6,0-5.1,0.6-7.7,1.9c-2.6,1.3-5.1,2.9-7.7,4.9c0.1,0.7,0.2,1.6,0.2,2.6c0.1,1,0.1,2,0.1,3v34.9H433
		v-31.1c0-2.4-0.1-4.7-0.3-6.9c-0.2-2.2-0.7-3.9-1.3-5.2c-0.7-1.4-1.8-2.4-3.2-3.1c-1.4-0.7-3.4-1-6.1-1c-2.5,0-5,0.6-7.5,1.9
		c-2.5,1.2-5,2.8-7.5,4.7v40.7h-9.2v-54.5h9.2v6.1c2.9-2.4,5.7-4.2,8.6-5.6c2.8-1.3,5.9-2,9.1-2c3.7,0,6.9,0.8,9.4,2.3
		s4.5,3.7,5.8,6.5c3.7-3.1,7.1-5.4,10.2-6.8c3.1-1.4,6.3-2.1,9.8-2.1c6,0,10.4,1.8,13.3,5.4c2.8,3.6,4.3,8.7,4.3,15.2V185.7z"/>
	<path class="st2" d="M535.3,182.3c-3.1,1.5-6,2.6-8.7,3.4c-2.8,0.8-5.7,1.2-8.8,1.2c-3.9,0-7.6-0.6-10.8-1.7
		c-3.3-1.2-6.1-2.9-8.4-5.2c-2.4-2.3-4.2-5.3-5.5-8.9c-1.3-3.6-2-7.8-2-12.5c0-8.9,2.4-15.9,7.3-21c4.9-5.1,11.4-7.6,19.4-7.6
		c3.1,0,6.2,0.4,9.2,1.3c3,0.9,5.8,2,8.3,3.2v10.2h-0.5c-2.8-2.2-5.7-3.9-8.7-5s-5.9-1.8-8.7-1.8c-5.2,0-9.3,1.8-12.3,5.2
		c-3,3.5-4.5,8.6-4.5,15.4c0,6.6,1.5,11.6,4.4,15.2c2.9,3.5,7.1,5.3,12.4,5.3c1.9,0,3.7-0.2,5.7-0.7c1.9-0.5,3.6-1.1,5.2-1.9
		c1.3-0.7,2.6-1.4,3.8-2.2c1.2-0.8,2.1-1.4,2.8-2h0.5V182.3z"/>
	<path class="st2" d="M589.5,185.7h-9.1v-5.8c-0.8,0.6-1.9,1.3-3.3,2.3c-1.4,1-2.7,1.8-4,2.4c-1.5,0.7-3.3,1.4-5.3,1.9
		c-2,0.5-4.3,0.8-7,0.8c-4.9,0-9.1-1.6-12.5-4.9c-3.4-3.3-5.1-7.4-5.1-12.5c0-4.1,0.9-7.5,2.7-10c1.8-2.6,4.3-4.6,7.6-6
		c3.3-1.5,7.3-2.5,12-3c4.7-0.5,9.7-0.9,15-1.2v-1.4c0-2.1-0.4-3.8-1.1-5.2s-1.8-2.4-3.1-3.2c-1.3-0.7-2.9-1.3-4.7-1.5
		c-1.8-0.3-3.7-0.4-5.7-0.4c-2.4,0-5.1,0.3-8.1,1c-3,0.6-6,1.6-9.2,2.8H548v-9.3c1.8-0.5,4.4-1,7.8-1.6c3.4-0.6,6.7-0.9,10-0.9
		c3.8,0,7.2,0.3,10,1c2.8,0.6,5.3,1.7,7.4,3.2c2.1,1.5,3.6,3.4,4.7,5.8c1.1,2.4,1.6,5.3,1.6,8.8V185.7z M580.4,172.2v-15.2
		c-2.8,0.2-6.1,0.4-9.9,0.7c-3.8,0.3-6.8,0.8-9,1.4c-2.6,0.7-4.8,1.9-6.4,3.5c-1.6,1.6-2.4,3.8-2.4,6.5c0,3.1,0.9,5.5,2.8,7.1
		c1.9,1.6,4.8,2.4,8.6,2.4c3.2,0,6.2-0.6,8.8-1.9C575.6,175.5,578.1,174,580.4,172.2z"/>
	<path class="st2" d="M635.5,185.2c-1.7,0.5-3.6,0.8-5.6,1.1c-2,0.3-3.8,0.4-5.4,0.4c-5.6,0-9.8-1.5-12.7-4.5
		c-2.9-3-4.3-7.8-4.3-14.4v-29h-6.2v-7.7h6.2v-15.7h9.2v15.7h18.9v7.7h-18.9v24.9c0,2.9,0.1,5.1,0.2,6.7c0.1,1.6,0.6,3.1,1.4,4.5
		c0.7,1.3,1.7,2.3,3,2.9c1.3,0.6,3.2,0.9,5.7,0.9c1.5,0,3.1-0.2,4.7-0.7c1.6-0.4,2.8-0.8,3.5-1.1h0.5V185.2z"/>
</g>
<path id="path57" class="st3" d="M645.7,16.1h-4.4v5.8h4.4c1.4,0,3-1.1,3-2.8C648.7,17.2,647.1,16.1,645.7,16.1z M648.4,30.5
	l-4.3-6.5h-2.8v6.5H639V14.1h6.7c2.8,0,5.4,2,5.4,5c0,3.7-3.3,4.9-4.2,4.9l4.4,6.6H648.4z M644.5,10.1c-6.8,0-12.2,5.4-12.2,12.2
	c0,6.7,5.4,12.2,12.2,12.2c6.7,0,12.2-5.5,12.2-12.2C656.6,15.5,651.2,10.1,644.5,10.1z M644.5,36.6c-7.9,0-14.4-6.4-14.4-14.4
	c0-8,6.4-14.4,14.4-14.4c8,0,14.4,6.4,14.4,14.4C658.8,30.2,652.4,36.6,644.5,36.6"/>
<path id="path57_00000016760632995239431640000003267239277451640483_" class="st3" d="M655.3,121.6h-4.4v5.8h4.4c1.4,0,3-1.1,3-2.8
	C658.3,122.8,656.7,121.6,655.3,121.6z M658,136l-4.3-6.5h-2.8v6.5h-2.3v-16.5h6.7c2.8,0,5.4,2,5.4,5c0,3.7-3.3,4.9-4.2,4.9l4.4,6.6
	H658z M654.1,115.6c-6.8,0-12.2,5.4-12.2,12.2c0,6.7,5.4,12.2,12.2,12.2c6.7,0,12.2-5.5,12.2-12.2
	C666.3,121,660.8,115.6,654.1,115.6z M654.1,142.1c-7.9,0-14.4-6.4-14.4-14.4c0-8,6.4-14.4,14.4-14.4c8,0,14.4,6.4,14.4,14.4
	C668.4,135.7,662.1,142.1,654.1,142.1"/>
</svg>
