<?xml version="1.0" encoding="utf-8"?>
<!-- Generator: Adobe Illustrator 26.5.3, SVG Export Plug-In . SVG Version: 6.00 Build 0)  -->
<svg version="1.1" id="레이어_1" xmlns="http://www.w3.org/2000/svg" xmlns:xlink="http://www.w3.org/1999/xlink" x="0px"
	 y="0px" viewBox="0 0 118.8 25.6" style="enable-background:new 0 0 118.8 25.6;" xml:space="preserve">
<style type="text/css">
	.st0{fill-rule:evenodd;clip-rule:evenodd;fill:url(#SVGID_1_);}
	.st1{fill:#FFFFFF;}
</style>
<g>
	
		<linearGradient id="SVGID_1_" gradientUnits="userSpaceOnUse" x1="-398.7359" y1="588.6348" x2="-398.7359" y2="589.6348" gradientTransform="matrix(25.2082 0 0 -25.1919 10064.0088 14854.0352)">
		<stop  offset="0" style="stop-color:#0052CC"/>
		<stop  offset="1" style="stop-color:#2684FF"/>
	</linearGradient>
	<path class="st0" d="M22.2,0H3C1.3,0,0,1.3,0,3v19.2c0,0.8,0.3,1.6,0.9,2.1c0.6,0.6,1.3,0.9,2.1,0.9h19.2c0.8,0,1.6-0.3,2.1-0.9
		s0.9-1.3,0.9-2.1V3C25.2,1.3,23.9,0,22.2,0z M10.9,18.1c0,0.3-0.1,0.5-0.3,0.7c-0.2,0.2-0.4,0.3-0.7,0.3H5.7c-0.5,0-1-0.4-1-1V5.6
		c0-0.5,0.4-1,1-1h4.2c0.5,0,1,0.4,1,1L10.9,18.1z M20.6,12.4c0,0.3-0.1,0.5-0.3,0.7c-0.2,0.2-0.4,0.3-0.7,0.3h-4.2
		c-0.5,0-1-0.4-1-1V5.6c0-0.5,0.4-1,1-1h4.2c0.5,0,1,0.4,1,1L20.6,12.4z"/>
	<g transform="translate(87)">
		<path class="st1" d="M-41.6,1.8v4.9h-5.8v18.5h-5.6V6.7h-5.8V1.8L-41.6,1.8z"/>
		<path class="st1" d="M-34.5,25.2h-5.1V7h5.1v3.5c1-2.5,2.5-3.9,5.3-3.7v5.4c-3.6-0.3-5.3,0.6-5.3,3.5V25.2z"/>
		<path class="st1" d="M-1.1,25.3c-3.4,0-5.5-1.6-5.5-5.4V0h5.2v19.2c0,1.1,0.7,1.5,1.6,1.5c0.3,0,0.5,0,0.8,0v4.5
			C0.3,25.3-0.4,25.4-1.1,25.3z"/>
		<path class="st1" d="M9.7,25.3c-3.4,0-5.5-1.6-5.5-5.4V0h5.2v19.2c0,1.1,0.7,1.5,1.6,1.5c0.3,0,0.5,0,0.8,0v4.5
			C11.1,25.3,10.4,25.4,9.7,25.3z"/>
		<path class="st1" d="M14.3,16.1c0-5.6,3.2-9.5,8.8-9.5s8.7,3.8,8.7,9.5s-3.2,9.5-8.7,9.5S14.3,21.7,14.3,16.1z M19.3,16.1
			c0,2.7,1.1,4.9,3.8,4.9s3.7-2.2,3.7-4.9s-1.1-4.8-3.7-4.8S19.3,13.4,19.3,16.1z"/>
		<path class="st1" d="M-22.3,17.7c1.4,0.2,2.9,0.2,4.3,0.3c3.9,0,7.3-1.1,7.3-4.9c0-3.7-3.4-6.5-7.5-6.5c-5.5,0-9.1,4-9.1,9.6
			c0,5.8,3.1,9.3,10,9.3c2.1,0,4.1-0.3,6-1.1v-4.4c-1.8,0.6-3.8,1.1-5.8,1.1C-19.9,21.3-21.8,20.4-22.3,17.7z M-18.3,10.6
			c1.5,0,2.6,1,2.6,2.3c0,1.7-1.8,2.3-4,2.3c-0.9,0-1.8-0.1-2.7-0.2c0.1-0.8,0.3-1.7,0.7-2.4C-20.9,11.4-19.7,10.6-18.3,10.6
			L-18.3,10.6z"/>
	</g>
</g>
</svg>
