<?xml version="1.0" encoding="utf-8"?>
<!-- Generator: Adobe Illustrator 26.5.3, SVG Export Plug-In . SVG Version: 6.00 Build 0)  -->
<svg version="1.1" id="레이어_1" xmlns="http://www.w3.org/2000/svg" xmlns:xlink="http://www.w3.org/1999/xlink" x="0px"
	 y="0px" viewBox="0 0 1337 260" style="enable-background:new 0 0 1337 260;" xml:space="preserve">
<style type="text/css">
	.st0{fill:#FFFFFF;}
	.st1{fill:#3178C6;}
	.st2{fill-rule:evenodd;clip-rule:evenodd;fill:#3178C6;}
</style>
<g>
	<path class="st0" d="M9.8,0h240.5c5.4,0,9.8,4.4,9.8,9.8v240.5c0,5.4-4.4,9.8-9.8,9.8H9.8c-5.4,0-9.8-4.4-9.8-9.8V9.8
		C0,4.4,4.4,0,9.8,0z"/>
	<path class="st1" d="M9.8,0h240.5c5.4,0,9.8,4.4,9.8,9.8v240.5c0,5.4-4.4,9.8-9.8,9.8H9.8c-5.4,0-9.8-4.4-9.8-9.8V9.8
		C0,4.4,4.4,0,9.8,0z M144.5,138.3V117H52v21.3h33v94.9h26.3v-94.9H144.5z M155,230.8c4.2,2.2,9.3,3.8,15,4.9
		c5.8,1.1,11.9,1.6,18.3,1.6c6.3,0,12.2-0.6,17.8-1.8c5.6-1.2,10.6-3.1,14.8-5.9s7.6-6.3,10.1-10.7s3.7-9.9,3.7-16.3
		c0-4.7-0.7-8.8-2.1-12.4c-1.4-3.5-3.5-6.7-6.1-9.4s-5.9-5.2-9.6-7.4c-3.7-2.2-7.9-4.3-12.6-6.2c-3.4-1.4-6.5-2.8-9.2-4.1
		c-2.7-1.3-5-2.7-6.9-4.1c-1.9-1.4-3.4-2.8-4.4-4.4c-1-1.5-1.6-3.3-1.6-5.2c0-1.8,0.5-3.4,1.4-4.8c0.9-1.4,2.2-2.7,3.9-3.7
		c1.7-1,3.8-1.8,6.2-2.4c2.4-0.6,5.2-0.9,8.2-0.9c2.2,0,4.5,0.2,6.9,0.5c2.4,0.3,4.9,0.8,7.3,1.5c2.4,0.7,4.8,1.5,7.1,2.6
		c2.3,1,4.4,2.2,6.4,3.6v-24.2c-4-1.5-8.3-2.6-13-3.4c-4.7-0.7-10.1-1.1-16.2-1.1c-6.2,0-12.1,0.7-17.6,2
		c-5.5,1.3-10.4,3.4-14.6,6.2s-7.5,6.4-10,10.7c-2.4,4.4-3.7,9.6-3.7,15.6c0,7.7,2.2,14.3,6.7,19.8c4.5,5.5,11.3,10.1,20.4,13.9
		c3.6,1.5,6.9,2.9,10,4.3c3.1,1.4,5.8,2.9,8,4.4c2.3,1.5,4,3.2,5.3,4.9s2,3.8,2,6.1c0,1.7-0.4,3.2-1.2,4.7c-0.8,1.4-2.1,2.7-3.7,3.7
		c-1.7,1.1-3.7,1.9-6.2,2.5c-2.5,0.6-5.4,0.9-8.7,0.9c-5.7,0-11.3-1-16.8-3s-10.7-4.9-15.4-8.9L155,230.8z"/>
</g>
<path class="st2" d="M815.8,185.1v-14.2c12.9,8.2,26,12.3,39.3,12.3c14.1,0,24.8-2.9,32.1-8.7c7.3-5.8,11-13.9,11-24.4
	c0-9.2-2.5-16.5-7.4-22c-4.7-5.3-14.8-12.4-30.2-21.4l-1.7-1c-18.3-10.6-29.9-19.5-34.7-26.6c-4.9-7.1-7.3-15.4-7.3-24.7
	c0-12.7,5-23.5,14.9-32.3c9.9-8.9,23.1-13.3,39.7-13.3c10.7,0,21.5,1.8,32.2,5.4v13C893,22.4,881.7,20,869.7,20
	c-12.3,0-22,3.1-29.1,9.3c-7.2,6.2-10.8,14-10.8,23.6c0,9.2,2.5,16.5,7.4,21.9c4.9,5.4,15.5,12.8,31.8,22.2
	c16.9,9.5,28.1,18,33.7,25.4c5.6,7.4,8.4,15.9,8.4,25.5c0,13.8-4.8,25-14.4,33.7c-9.6,8.7-23.2,13-40.7,13c-6.2,0-13.4-1-21.5-2.9
	C826.3,189.8,820.1,187.6,815.8,185.1z M368.3,37.1H420V11.8H287v25.3h51.5v154.5h29.8V37.1z M467.5,212.1l58.2-149h-29.5L464,156.7
	c-0.8,2.9-1.4,5.2-1.8,7l-0.5,2h-0.6c-0.7-2.9-1.2-5.1-1.6-6.7l-0.7-2.6l-30.7-93.3h-32.4L447,191.3l-8.7,21.1
	c-5.4,10.7-13.5,16.1-24.4,16.1c-3.8,0-8-0.8-12.6-2.3v24.2c4.1,1.1,9.2,1.6,15.4,1.6C438.5,252,455.5,238.7,467.5,212.1z
	 M573.5,172.5H573v77.9h-29.2V63.1H573v22.6h0.5c10-17,24.6-25.6,43.8-25.6c16.3,0,29.1,5.7,38.2,17.2c9.1,11.4,13.7,26.8,13.7,46.1
	c0,21.4-5.2,38.5-15.5,51.4s-24.4,19.3-42.3,19.3C595.1,194.1,582.4,186.9,573.5,172.5z M572.5,138.5v-15.8c0-11,3.2-20.1,9.5-27.4
	c6.3-7.3,14.7-11,25.1-11c9.8,0,17.6,3.6,23.3,10.7c5.7,7.1,8.6,16.9,8.6,29.5c0,15-3.1,26.6-9.2,35c-6.2,8.4-14.6,12.5-25.4,12.5
	c-9.2,0-16.8-3.2-22.8-9.7C575.5,155.7,572.5,147.8,572.5,138.5z M800.7,135.3h-87c0.3,11.9,4,21,10.9,27.5
	c6.9,6.4,16.5,9.7,28.6,9.7c13.6,0,26.1-4.1,37.5-12.3v23.5c-11.6,7.4-27,11-46.1,11c-18.8,0-33.5-5.8-44.2-17.5
	c-10.7-11.7-16-28.1-16-49.2c0-20,5.9-36.3,17.6-48.9c11.8-12.6,26.4-18.9,43.8-18.9s31,5.6,40.5,16.9s14.3,27,14.3,47V135.3z
	 M766.1,90c4.8,5.8,7.3,14,7.3,24.5h-58.9c1.3-9.9,4.9-17.9,10.6-24c5.8-6.1,12.8-9.2,21.1-9.2C754.7,81.3,761.3,84.2,766.1,90z
	 M984.9,194.6c13.3,0,24.8-2.9,34.4-8.8v-12c-9.6,6.8-20.9,10.3-33.9,10.3c-14.2,0-25.6-5-34.2-15.1c-8.6-10.1-13-23.5-13-40.1
	c0-17.2,4.7-31.2,14.2-42c9.4-10.8,21.7-16.2,36.9-16.2c11,0,21.2,2.8,30.5,8.5v-13c-9.3-4-18.8-6-28.7-6c-19,0-34.6,6.5-46.8,19.5
	c-12.1,13-18.2,29.7-18.2,50c0,19.4,5.4,35,16.2,47C953,188.6,967.2,194.6,984.9,194.6z M1095.3,74.7c-3.8-2.8-8.3-4.2-13.5-4.2
	c-10.1,0-18.6,5.2-25.4,15.7c-6.8,10.5-10.3,25.4-10.3,44.7v60.6h-11.3V62.6h11.3v28.6h0.5c2.9-9.8,7.5-17.5,13.9-22.9
	c6.3-5.5,13.7-8.2,22-8.2c4.8,0,9,0.8,12.8,2.3L1095.3,74.7z M1113.3,28.6c2,1.9,4.2,2.8,6.8,2.8c2.7,0,5.1-1,7-3
	c2-2,2.9-4.4,2.9-7.1c0-2.9-1-5.3-3-7c-2-1.7-4.3-2.6-7-2.6c-2.5,0-4.7,0.9-6.7,2.6c-2,1.8-3,4.1-3,6.9
	C1110.4,24.3,1111.4,26.7,1113.3,28.6L1113.3,28.6z M1113.4,191.6V63.2h12.1v128.4H1113.4z M1164.2,168.7h0.5
	c9.2,17.3,23.4,25.9,42.6,25.9c17.2,0,31-6.6,41.5-19.9c10.5-13.2,15.7-30.6,15.7-52c0-19.3-4.6-34.5-13.7-45.8
	c-9.1-11.2-21.8-16.8-38.1-16.8c-10.3,0-19.7,2.6-28.2,7.7c-8.6,5.1-15.1,12.4-19.7,21.9h-0.5V63.3h-11.5v187.2h11.5L1164.2,168.7z
	 M1164.8,121v16.1c0,12.8,4.1,23.9,12.3,33.1s18.9,13.8,32.2,13.8c13.2,0,24-5.6,32.2-16.8c8.3-11.2,12.4-26,12.4-44.2
	c0-16-3.8-28.7-11.4-38.1c-7.6-9.4-17.7-14.1-30.3-14.1c-15.1,0-26.8,5-35,15C1168.9,95.7,1164.8,107.5,1164.8,121z M1320.2,194.6
	c5.2,0,10.8-1.4,16.8-4.3v-10.8c-5.5,3.1-10.6,4.6-15.3,4.6c-6.6,0-11.4-2-14.1-5.9c-2.8-4-4.2-10.4-4.2-19.2V74.5h33.6V64h-33.6
	V26.9c-1.8,0.7-3.7,1.3-5.7,1.9c-2,0.7-3.9,1.3-5.7,2V64H1269v10.5h22.9v86C1291.9,183.3,1301.4,194.6,1320.2,194.6z"/>
</svg>
