<?xml version="1.0" encoding="utf-8"?>
<!-- Generator: Adobe Illustrator 26.5.3, SVG Export Plug-In . SVG Version: 6.00 Build 0)  -->
<svg version="1.1" id="레이어_1" xmlns="http://www.w3.org/2000/svg" xmlns:xlink="http://www.w3.org/1999/xlink" x="0px"
	 y="0px" viewBox="0 0 555 125.2" style="enable-background:new 0 0 555 125.2;" xml:space="preserve">
<style type="text/css">
	.st0{fill:#F14A00;}
	.st1{fill:#FFFFFF;}
	.st2{fill:#2A004E;}
</style>
<g>
	<g>
		<g id="XMLID_00000176742366603153199420000012339192054215619226_">
			<g>
				<path class="st0" d="M84.4,13.8c3.8,1.7,4.1,3.4,1.2,6.3c-13,13.1-26,26.1-39,39.2C44,62,44,63,46.6,65.7
					c13,13.1,26,26.1,38.9,39.2c2.9,2.9,2.7,4.6-1,6.3c-7.2,3.4-14.7,4.9-22.1,4.9c-25.6,0-49.6-19-52.9-46.5
					C9.4,69.1,9.6,68.5,9,68c0-3.3,0-6.6,0-10c0.7-3.2,1-6.5,1.9-9.8C17.6,24.2,39.2,9,62.3,9C69.7,9,77.2,10.5,84.4,13.8z"/>
				<path class="st1" d="M96.4,14.9c0.7,4-0.7,7.9-4.4,11.6C85.5,33,79,39.5,72.5,46.1C67,51.6,61.6,57,56.1,62.5
					c3.3,3.3,6.6,6.6,9.8,9.9c8.5,8.6,17.3,17.4,25.9,26.2c3.7,3.7,5.2,7.6,4.4,11.6s-3.4,7.1-8,9.2c-8.2,3.8-16.9,5.8-25.9,5.8
					c-14.8,0-29.3-5.4-40.7-15.1C10.5,100.5,3.2,87.4,0.9,73L0,72.2V68V58v-1l0.2-1c0.2-1.1,0.4-2.3,0.6-3.5c0.3-2,0.7-4.3,1.4-6.8
					C6,32.3,13.9,20.7,25.1,12.4C35.8,4.4,49,0,62.3,0c8.9,0,17.6,1.9,25.8,5.6C92.8,7.8,95.6,10.9,96.4,14.9z M85.6,20.1
					c2.9-2.9,2.6-4.6-1.2-6.3C77.2,10.5,69.7,9,62.3,9C39.2,9,17.6,24.2,10.9,48.2C10,51.5,9.7,54.8,9,58c0,3.4,0,6.7,0,10
					c0.6,0.5,0.4,1.1,0.5,1.6c3.3,27.6,27.3,46.5,52.9,46.5c7.4,0,14.9-1.6,22.1-4.9c3.7-1.7,3.9-3.4,1-6.3
					C72.6,91.8,59.6,78.8,46.6,65.7C44,63,44,62,46.6,59.3C59.6,46.2,72.6,33.2,85.6,20.1z"/>
			</g>
		</g>
	</g>
	<g>
		<g id="XMLID_00000183212197002590594490000007963934796556908200_">
			<g>
				<path class="st2" d="M166.1,59.6c0.8,0.8,1.7,1.6,1.6,2.7c0,1.6-0.9,2.4-1.8,3.3c-6.1,6.1-12.2,12.3-18.3,18.4
					c-9.6,9.6-19.2,19.2-28.7,28.9c-1.3,1.3-2.2,2-3.1,2c-0.9,0-1.8-0.6-3.1-1.9C96.9,97.2,81.2,81.5,65.5,65.7
					c-2.6-2.6-2.7-3.8,0-6.4C80.3,44.5,95.1,29.6,110,14.8c0.5-0.5,1-0.9,1.4-1.4c2-2.1,3.2-3.2,4.3-3.2c1.1,0,2.2,1,4.2,3
					C135.3,28.7,150.7,44.1,166.1,59.6z"/>
				<path class="st1" d="M172.6,53.4c1.2,1.2,4.3,4.3,4.1,9.3c-0.1,5-3,7.9-4.3,9.2l-0.1,0.1c-3,3-6.1,6.1-9.1,9.2
					c-3.1,3.1-6.1,6.2-9.2,9.2c-9.4,9.4-19.1,19.1-28.6,28.8c-1.3,1.3-4.6,4.7-9.6,4.7c-4.9,0-8.2-3.3-9.4-4.5
					c-15.5-15.5-31.5-31.5-47.2-47.3c-1.4-1.4-4.7-4.7-4.6-9.7c0-5,3.3-8.2,4.7-9.5c4.9-4.9,9.8-9.8,14.7-14.8
					c9.7-9.7,19.8-19.8,29.7-29.7c0.2-0.2,0.5-0.5,0.7-0.7c0-0.1,0.1-0.1,0.1-0.1l0.1-0.1l0.3-0.3c2.4-2.5,5.7-6,10.8-6
					c5,0,8.2,3.2,10.6,5.6c7.7,7.8,15.4,15.5,23.1,23.2c7.7,7.7,15.4,15.5,23.1,23.2L172.6,53.4z M167.7,62.3
					c0.1-1.1-0.8-1.9-1.6-2.7c-15.4-15.5-30.8-30.9-46.2-46.4c-2-2-3.1-3-4.2-3c-1.1,0-2.3,1.1-4.3,3.2c-0.4,0.5-0.9,0.9-1.4,1.4
					C95.1,29.6,80.3,44.5,65.5,59.3c-2.7,2.6-2.6,3.8,0,6.4c15.7,15.8,31.4,31.5,47.2,47.3c1.2,1.2,2.2,1.9,3.1,1.9
					c0.9,0,1.9-0.7,3.1-2c9.5-9.7,19.1-19.3,28.7-28.9c6.1-6.1,12.2-12.3,18.3-18.4C166.8,64.7,167.7,63.9,167.7,62.3z"/>
			</g>
		</g>
	</g>
</g>
<g>
	<g>
		<path class="st1" d="M541.1,48c-2.1,4.7-4.3,9.3-6.5,14c-3.1,6.6-6.2,13.3-9.4,19.9c-0.4,0.8-1.4,1.7-2.1,1.7s-1.6-1.1-2-1.9
			c-5-10.6-9.9-21.3-14.9-31.9c-0.3-0.6-0.7-1.3-1.3-2.4c-0.2,1.1-0.4,1.6-0.4,2.1c-0.1,12.7-0.1,25.5-0.2,38.2c0,2.2-1,3.3-3.1,3.3
			c-2.2,0-4.3,0-6.5,0c-1.8,0-2.8-0.9-2.8-2.8c0-6.5,0.1-13,0.1-19.5c0-2.7,0.3-5.3,0.3-8c0.2-9.6,0.4-19.1,0.5-28.7
			c0-2.4,0.9-3.5,3.4-3.5c2.8,0.1,5.7,0.1,8.5,0c2.3-0.1,3.6,0.9,4.6,3c4.1,9.5,8.4,18.9,12.6,28.3c0.3,0.7,0.7,1.3,1.3,2.4
			c0.6-1.2,1.1-1.9,1.5-2.7c4.2-9.4,8.3-18.7,12.4-28.1c0.9-2.1,2.2-2.9,4.4-2.9c3,0.1,6,0,9,0c2,0,2.8,0.9,2.9,2.9
			c0.1,5.1,0.4,10.1,0.5,15.2c0.3,12.6,0.6,25.3,1,37.9c0.2,6.1,0,6.4-6.1,6.4c-6.9,0-6.8,0-6.9-6.9c-0.1-7.2-0.3-14.3-0.4-21.5
			c0-3,0.2-6,0.3-9c0-1.8,0-3.6,0-5.4C541.5,48.1,541.3,48.1,541.1,48z"/>
		<path class="st1" d="M435.9,59.6c0-9,0-18,0-27c0-3.6,0.5-4.1,4-4.1c7,0,14-0.2,21,0.1c6.5,0.2,12.6,1.7,16.7,7.4
			c4.5,6.2,4.3,17.8-0.6,23.8c-1.2,1.5-3,2.6-4.7,3.6c-2.8,1.7-2.9,1.6-1.2,4.5c3.9,6.5,7.7,13,11.5,19.6c1.6,2.8,1.3,3.3-1.8,3.4
			c-2.6,0-5.2,0-7.7,0c-2,0-3.2-0.9-4.2-2.6c-3.3-6.1-6.8-12.2-10.2-18.3c-1.9-3.4-4.3-4.4-8.1-3.4c-1.7,0.4-1.8,1.7-1.9,3.1
			c0,5.6,0,11.2,0,16.7c0,4.2-0.3,4.5-4.6,4.5c-1.5,0-3,0-4.5,0c-3.1-0.1-3.8-0.7-3.8-3.9c0-7.9,0-15.8,0-23.7
			C435.9,62.1,435.9,60.9,435.9,59.6z M448.9,47.7c0,2.1-0.2,4.2,0.1,6.2c0.1,0.9,1.3,2.4,2,2.5c3.8,0.1,7.7,0.1,11.4-0.6
			c3.7-0.7,5.6-4,5.4-8.4c-0.1-4.2-2.1-6.9-5.9-7.5c-3.4-0.5-6.9-0.6-10.4-0.7c-1.7-0.1-2.6,0.9-2.6,2.6
			C448.8,43.7,448.9,45.7,448.9,47.7z"/>
		<path class="st1" d="M374.9,59.4c0-3.4-0.1-6.8,0-10.2c0.4-12.2,7.3-20.1,19.5-21.4c4.5-0.5,9.2-0.4,13.6,0.4
			c9.2,1.7,15.3,7.7,16.1,17c0.8,9.3,0.9,18.8,0.1,28.1c-1,10.9-8.3,17.1-19.3,18.1c-3.4,0.3-6.8,0.4-10.2,0
			c-12.4-1.3-19.3-8.9-19.8-21.3C374.8,66.6,374.9,63,374.9,59.4z M411.8,59.5L411.8,59.5c0-3.3,0.1-6.7,0-10
			c-0.4-6.9-4.7-10.9-11.7-10.9c-7.2-0.1-11.9,3.9-12.1,10.8c-0.3,6.8-0.2,13.7,0,20.5c0.1,3.7,1.4,7,4.7,8.9
			c4.3,2.6,9,2.6,13.5,0.6c4.2-1.9,5.6-5.8,5.8-10.1C411.9,66,411.8,62.7,411.8,59.5z"/>
		<path class="st1" d="M288.3,49.3c0.5-0.4,1.2-0.9,1.9-1.4c3-2.4,6.3-4.3,10.2-5c8.3-1.5,14.6,2.7,15.1,11c0.5,8.1,0.6,16.3,0,24.4
			c-0.7,9.5-7.9,14.7-17.5,13.3c-2.2-0.3-4.4-0.9-6.6-1.4c-2.5-0.6-3.1-0.3-3.1,2.2c-0.1,4.2,0,8.3-0.1,12.5c0,3-0.5,3.5-3.5,3.5
			c-2,0-4,0-6,0s-2.9-1-2.9-2.9c0-0.4,0-0.8,0-1.2c-0.1-19.4-0.1-38.8-0.2-58.2c0-1.6,0.6-2.3,2.1-2.5c0.2,0,0.3,0,0.5,0
			c2.2,0,4.7-0.5,6.4,0.3C286.2,44.7,287,47.2,288.3,49.3z M303.3,66.8L303.3,66.8c0-2.6,0.3-5.2-0.1-7.7c-0.2-1.7-1-3.8-2.3-4.6
			c-4.3-3-12.5,1.4-12.6,6.6s0,10.5,0,15.7c0,2.4,0.9,3.8,3.2,4.3c1.3,0.2,2.6,0.5,3.9,0.5c5.2,0.1,7.6-2.2,7.8-7.5
			C303.4,71.6,303.3,69.2,303.3,66.8z"/>
		<path class="st1" d="M350.9,70c-3.6,0-7.2,0-10.7,0c-2.9,0-3.5,0.8-3.2,3.7c0.6,7.1,4.7,10.1,11.2,8.3c2-0.5,3.4-1.5,4.2-3.5
			c0.3-0.8,1.6-1.8,2.5-1.9c2.4-0.3,4.8-0.1,7.2-0.1c1.6,0,2.4,0.9,2.3,2.6c-0.3,4.6-2.4,8.3-6.6,10.2c-7.7,3.4-15.7,3.5-23.6,0.6
			c-6.3-2.3-9-7.5-9.3-13.9c-0.3-5.6-0.3-11.2,0-16.7c0.4-8.9,5.6-14.4,14.3-16.1c4.8-0.9,9.6-0.7,14.3,0.6
			c6.7,1.9,11.2,7.3,11.7,14.1c0.2,3.1,0,6.2,0.1,9.2c0,2-0.9,2.9-2.9,2.9C358.6,70,354.8,70,350.9,70L350.9,70z M345.1,62.5
			c1.7,0,3.5,0.1,5.2,0c2.5-0.1,3.2-0.9,2.8-3.5c-0.6-4.5-3.5-7-8-6.9c-4.7,0.1-7.3,2.6-7.9,7.3c-0.3,2.1,0.4,3.2,2.6,3.1
			C341.6,62.5,343.3,62.5,345.1,62.5z"/>
		<path class="st1" d="M247.3,75c0.2-0.9,0.5-1.7,0.7-2.6c2.3-8.3,4.6-16.7,7-25c1-3.5,1.5-3.8,5.1-3.8c1.9,0,3.8,0,5.7,0
			c2.9,0.1,3.3,0.5,2.4,3.3c-2.2,6.6-4.5,13.2-6.8,19.9c-4.3,12.6-8.7,25.2-13.1,37.8c-1.3,3.8-1.6,4-5.5,4c-1.5,0-3,0-4.5,0
			c-3.2-0.1-3.4-0.5-2.3-3.6c1.3-3.7,2.6-7.4,3.9-11.1c0.8-2.2,0.6-4.1-0.1-6.3c-4.9-13.5-9.7-27-14.4-40.5c-1-2.9-0.7-3.4,2.3-3.5
			c2.2,0,4.3,0.1,6.5,0c2.4-0.1,3.7,0.9,4.3,3.2c2.3,8.5,4.8,17,7.2,25.5c0.3,0.9,0.5,1.9,0.8,2.8C246.8,75,247,75,247.3,75z"/>
		<path class="st1" d="M193.3,65c0-7.2,0-14.5,0-21.7c0-3.3-0.5-3.8-3.8-3.8c-3.2,0-6.3-0.1-9.5,0c-2.4,0.1-3.3-1-3.3-3.3
			c0-8.5-0.6-7.6,7.4-7.7c11.4,0,22.8,0,34.2,0c3.9,0,4.3,0.4,4.3,4.3c0.1,6.7,0.1,6.7-6.5,6.7c-1.6,0-3.2,0-4.7,0
			c-5.2,0-5.2,0.1-5.2,5.1c0,13.4,0,26.8,0,40.2c0,0.9,0,1.8,0,2.7c0.1,2.3-1,3.4-3.3,3.4c-2.1,0-4.2-0.1-6.2,0
			c-2.5,0.1-3.4-1-3.4-3.5C193.4,80,193.4,72.5,193.3,65L193.3,65z"/>
	</g>
</g>
</svg>
