<?xml version="1.0" encoding="utf-8"?>
<!-- Generator: Adobe Illustrator 26.5.3, SVG Export Plug-In . SVG Version: 6.00 Build 0)  -->
<svg version="1.1" id="레이어_1" xmlns="http://www.w3.org/2000/svg" xmlns:xlink="http://www.w3.org/1999/xlink" x="0px"
	 y="0px" viewBox="0 0 1230.6 260" style="enable-background:new 0 0 1230.6 260;" xml:space="preserve">
<style type="text/css">
	.st0{fill:#FFFFFF;}
	.st1{fill:#3178C6;}
	.st2{fill-rule:evenodd;clip-rule:evenodd;fill:#3178C6;}
</style>
<g>
	<path class="st0" d="M9.8,0h240.5c5.4,0,9.8,4.4,9.8,9.8v240.5c0,5.4-4.4,9.8-9.8,9.8H9.8c-5.4,0-9.8-4.4-9.8-9.8V9.8
		C0,4.4,4.4,0,9.8,0z"/>
	<path class="st1" d="M9.8,0h240.5c5.4,0,9.8,4.4,9.8,9.8v240.5c0,5.4-4.4,9.8-9.8,9.8H9.8c-5.4,0-9.8-4.4-9.8-9.8V9.8
		C0,4.4,4.4,0,9.8,0z M144.5,138.3V117H52v21.3h33v94.9h26.3v-94.9H144.5z M155,230.8c4.2,2.2,9.3,3.8,15,4.9
		c5.8,1.1,11.9,1.6,18.3,1.6c6.3,0,12.2-0.6,17.8-1.8c5.6-1.2,10.6-3.1,14.8-5.9s7.6-6.3,10.1-10.7s3.7-9.9,3.7-16.3
		c0-4.7-0.7-8.8-2.1-12.4c-1.4-3.5-3.5-6.7-6.1-9.4s-5.9-5.2-9.6-7.4c-3.7-2.2-7.9-4.3-12.6-6.2c-3.4-1.4-6.5-2.8-9.2-4.1
		c-2.7-1.3-5-2.7-6.9-4.1c-1.9-1.4-3.4-2.8-4.4-4.4c-1-1.5-1.6-3.3-1.6-5.2c0-1.8,0.5-3.4,1.4-4.8c0.9-1.4,2.2-2.7,3.9-3.7
		c1.7-1,3.8-1.8,6.2-2.4c2.4-0.6,5.2-0.9,8.2-0.9c2.2,0,4.5,0.2,6.9,0.5c2.4,0.3,4.9,0.8,7.3,1.5c2.4,0.7,4.8,1.5,7.1,2.6
		c2.3,1,4.4,2.2,6.4,3.6v-24.2c-4-1.5-8.3-2.6-13-3.4c-4.7-0.7-10.1-1.1-16.2-1.1c-6.2,0-12.1,0.7-17.6,2
		c-5.5,1.3-10.4,3.4-14.6,6.2s-7.5,6.4-10,10.7c-2.4,4.4-3.7,9.6-3.7,15.6c0,7.7,2.2,14.3,6.7,19.8c4.5,5.5,11.3,10.1,20.4,13.9
		c3.6,1.5,6.9,2.9,10,4.3c3.1,1.4,5.8,2.9,8,4.4c2.3,1.5,4,3.2,5.3,4.9s2,3.8,2,6.1c0,1.7-0.4,3.2-1.2,4.7c-0.8,1.4-2.1,2.7-3.7,3.7
		c-1.7,1.1-3.7,1.9-6.2,2.5c-2.5,0.6-5.4,0.9-8.7,0.9c-5.7,0-11.3-1-16.8-3s-10.7-4.9-15.4-8.9L155,230.8z"/>
</g>
<g>
	<path class="st2" d="M390.3,243.7c-6.1,0-11.1-0.5-15.4-1.7l-4.5-1.2v-34.7l7.9,2.6c3.5,1.2,6.7,1.7,9.5,1.7
		c7.5,0,12.7-3.5,16.5-10.9l6.8-16.5L362.6,61.8H405l25.7,78.2l26.9-78.2h39.6l-55.6,142.4l-0.1,0.1
		C429.7,230.5,412.4,243.7,390.3,243.7z M1046.7,242.4V61.9h22.4v11.9c2.7-2.6,5.8-5,9.1-7c8.6-5.2,18.2-7.8,28.5-7.8
		c16.5,0,29.6,5.8,39,17.4c9.1,11.2,13.7,26.3,13.7,45c0,20.6-5.2,37.6-15.4,50.6c-10.6,13.4-24.7,20.1-42.1,20.1
		c-13.2,0-24.2-4-32.8-12.1v62.3H1046.7z M1106.3,80.6c-11.8,0-20.6,3.7-26.9,11.3c-6.6,8-9.8,17.1-9.8,27.9v14.5
		c0,10.1,3.1,18.6,9.5,25.8c6.2,7,14.2,10.4,24.5,10.4c10,0,17.9-4.2,24.2-12.7c6.6-9,10-21.2,10-36.2c0-12.9-3-23.2-8.9-30.6
		C1123.2,84,1115.8,80.6,1106.3,80.6z M498.7,242.4V61.7H537v9.8c9-8.3,20.4-12.5,33.8-12.5c16.6,0,29.7,6,39.1,17.7
		c9.1,11.3,13.6,26.6,13.6,45.2c0,20.6-5.1,37.4-15.2,50c-10.4,13-24.8,19.6-42.7,19.6c-11.2,0-20.8-3.3-28.6-9.8v60.5H498.7z
		 M561.7,92.8c-7.6,0-13.5,2.6-18,7.8c-4.8,5.5-7.1,12.3-7.1,20.8v14.2c0,6.9,2.1,12.5,6.5,17.2c4.2,4.6,9.5,6.8,16.1,6.8
		c7.8,0,13.7-2.9,18.1-8.8c4.7-6.4,7.1-15.8,7.1-27.9c0-9.8-2.2-17.5-6.4-22.8C574,95.2,568.7,92.8,561.7,92.8z M1203.5,192.1
		c-11.7,0-31.4-4.8-31.4-36.6V84h-20.6V62.6h20.6V34.4l3.9-1.4c1.6-0.6,3.4-1.2,5.3-1.9l0.2-0.1c1.6-0.5,3.2-1,4.8-1.6l8.1-2.9v36
		h30.3V84h-30.3v70.1c0,8.7,1.7,12.4,2.7,13.8c0.5,0.7,2,2.8,7.8,2.8c3.2,0,6.8-1.1,10.8-3.4l8.9-5V186l-3.4,1.6
		C1215,190.6,1209,192.1,1203.5,192.1z M901.7,192.1c-17.6,0-32-6.1-42.8-18.2c-10.7-11.9-16.1-27.5-16.1-46.3
		c0-19.8,6.1-36.3,18-49.1C872.8,65.6,888.4,59,907.2,59c9.7,0,19.1,2,28.2,5.9l3.6,1.6v26.4l-9.1-5.6c-7.5-4.6-15.4-6.8-24.3-6.8
		c-11.9,0-21.3,4.1-28.7,12.5c-7.6,8.7-11.3,19.8-11.3,33.9c0,13.4,3.4,24.2,10.2,32.2c6.6,7.8,15.2,11.5,26.2,11.5
		c10.5,0,19.3-2.7,27-8.1l9.5-6.8v25.8l-2.9,1.8C926.2,189.1,914.7,192.1,901.7,192.1z M785.5,192.1c-6,0-13-0.9-20.7-2.8
		c-7.9-1.9-13.9-4.1-18.4-6.6l-3-1.7v-27.1l9.2,5.8c10.6,6.7,21.4,10.1,32.1,10.1c11.2,0,19.7-2.2,25.2-6.5
		c5.1-4.1,7.6-9.7,7.6-17.2c0-6.8-1.7-12-5.1-15.8c-2.6-2.9-9.2-8.4-25.7-18l-1.5-0.9C767.8,101.2,757,92.8,752,85.5
		c-5.1-7.4-7.6-16-7.6-25.7c0-13.2,5.2-24.4,15.4-33.6c10-8.9,23.4-13.5,39.7-13.5c10.3,0,20.7,1.7,30.9,5.2l4.1,1.4v25.3l-8.5-3.8
		c-8.7-3.9-18.1-5.9-28-5.9c-9.5,0-17,2.3-22.3,6.9c-5.1,4.4-7.6,9.9-7.6,16.7c0,6.8,1.7,11.9,5.1,15.7c2.7,3,9.7,8.7,27.1,18.8
		c16,9,26.5,17,32.1,24.4c5.8,7.7,8.7,16.6,8.7,26.6c0,14.1-5,25.8-15,34.8C816.5,187.6,802.8,192.1,785.5,192.1z M685.4,192.1
		c-18.6,0-33.5-6-44.2-17.7c-10.6-11.6-16-27.9-16-48.4c0-19.5,5.9-35.6,17.5-48.1C654.4,65.4,669.2,59,686.5,59
		c17.5,0,31.3,5.8,41,17.4c9.5,11.2,14.3,26.8,14.3,46.2v16h-77.7c1.1,6,3.5,10.8,7.3,14.3c5.1,4.8,12.2,7.1,21.7,7.1
		c11.1,0,21-3.2,30.3-9.9l9.5-6.8v36.1l-2.8,1.8C718.7,188.4,703.7,192.1,685.4,192.1z M705,108c-0.7-5.1-2.3-9.2-4.8-12.2
		c-3.2-3.8-7.5-5.7-13.3-5.7c-5.8,0-10.6,2.1-14.6,6.4c-3,3.2-5.1,7-6.5,11.5H705z M1011.4,189.3V61.8h22.9v127.6H1011.4z
		 M940.7,189.3v-128h22.1v9.5c1-1,2-2,3-2.9c6.8-5.9,14.8-8.8,23.7-8.8c5,0,9.7,0.8,13.7,2.5l3.8,1.5v26.9l-9.5-6.9
		c-2.4-1.8-5.3-2.6-8.6-2.6c-7,0-12.8,3.7-17.8,11.4c-5.5,8.4-8.3,20.8-8.3,36.9v60.5H940.7z M313.9,189.3v-139h-46.4V15.5h131.7
		v34.8h-46.5v139H313.9z M1023.4,45.2c-3.8,0-7.4-1.5-10.3-4.2c-2.9-2.8-4.5-6.6-4.5-10.8c0-4.3,1.6-8,4.7-10.7
		c2.9-2.5,6.3-3.9,10-3.9c3.8,0,7.3,1.3,10.2,3.8c3.1,2.7,4.8,6.4,4.8,10.8c0,4-1.5,7.7-4.4,10.6
		C1031.1,43.7,1027.4,45.2,1023.4,45.2z"/>
	<path class="st0" d="M799.5,18.8c9.7,0,19.3,1.6,29,4.8v11.7C819,31.1,808.8,29,798,29c-11,0-19.8,2.8-26.2,8.3
		c-6.5,5.6-9.7,12.6-9.7,21.2c0,8.3,2.2,14.8,6.6,19.7c4.4,4.9,14,11.5,28.6,20c15.2,8.6,25.3,16.2,30.3,22.8c5,6.7,7.5,14.3,7.5,23
		c0,12.4-4.3,22.5-13,30.3c-8.6,7.8-20.9,11.7-36.7,11.7c-5.6,0-12-0.9-19.3-2.6c-7.3-1.7-12.9-3.7-16.7-6v-12.7
		c11.6,7.4,23.4,11.1,35.4,11.1c12.7,0,22.3-2.6,28.9-7.8c6.6-5.2,9.9-12.5,9.9-21.9c0-8.3-2.2-14.9-6.6-19.8
		c-4.3-4.7-13.3-11.2-27.2-19.2l-1.6-0.9c-16.5-9.5-26.9-17.5-31.3-24c-4.4-6.4-6.6-13.9-6.6-22.3c0-11.4,4.5-21.1,13.4-29.1
		C772.7,22.8,784.6,18.8,799.5,18.8 M1023.4,21.5c2.4,0,4.5,0.8,6.3,2.3c1.8,1.6,2.7,3.6,2.7,6.3c0,2.5-0.9,4.6-2.6,6.4
		c-1.8,1.8-3.9,2.7-6.3,2.7c-2.3,0-4.3-0.9-6.1-2.6h0c-1.8-1.7-2.6-3.9-2.6-6.5c0-2.6,0.9-4.6,2.7-6.2S1021.1,21.5,1023.4,21.5
		 M393.2,21.5v22.8h-46.5v139h-26.8v-139h-46.4V21.5H393.2 M1188.3,35.1v33.4h30.3V78h-30.3v76.1c0,8,1.3,13.7,3.8,17.3
		c2.5,3.6,6.7,5.3,12.7,5.3c4.3,0,8.9-1.4,13.8-4.2v9.7c-5.4,2.6-10.4,3.8-15.1,3.8c-17,0-25.4-10.2-25.4-30.6V78h-20.6v-9.5h20.6
		V38.6c1.6-0.6,3.4-1.2,5.1-1.8C1185,36.3,1186.7,35.7,1188.3,35.1 M1106.7,65c14.6,0,26.1,5.1,34.3,15.2
		c8.2,10.1,12.3,23.8,12.3,41.2c0,19.3-4.7,34.9-14.1,46.8c-9.4,11.9-21.9,17.9-37.4,17.9c-17.3,0-30-7.8-38.3-23.3h-0.5v73.6h-10.4
		V67.9h10.4v23.8h0.5c4.1-8.5,10-15,17.7-19.7C1089,67.3,1097.4,65,1106.7,65 M1103.6,176.5c11.9,0,21.6-5,29-15.1
		c7.4-10.1,11.2-23.4,11.2-39.8c0-14.4-3.4-25.9-10.2-34.3c-6.8-8.5-15.9-12.7-27.3-12.7c-13.6,0-24.1,4.5-31.5,13.5
		c-7.4,9-11.2,19.6-11.2,31.7v14.5c0,11.6,3.7,21.5,11,29.8C1082,172.4,1091.7,176.5,1103.6,176.5 M989.6,65c4.3,0,8.1,0.7,11.5,2
		l0,11.1c-3.5-2.5-7.5-3.7-12.2-3.7c-9.1,0-16.7,4.7-22.9,14.2s-9.2,22.9-9.2,40.2v54.5h-10.1v-116h10.1V93h0.5
		c2.6-8.8,6.8-15.7,12.5-20.6C975.4,67.5,982,65,989.6,65 M907.2,65c8.9,0,17.5,1.8,25.8,5.4v11.7c-8.3-5.1-17.5-7.7-27.4-7.7
		c-13.7,0-24.7,4.9-33.2,14.6c-8.5,9.7-12.7,22.3-12.7,37.8c0,14.9,3.9,27,11.7,36.1c7.8,9.1,18,13.6,30.8,13.6
		c11.7,0,21.8-3.1,30.5-9.2v10.8c-8.6,5.3-19,7.9-30.9,7.9c-15.9,0-28.6-5.4-38.3-16.2c-9.7-10.8-14.6-24.9-14.6-42.3
		c0-18.3,5.5-33.3,16.4-45C876.1,70.9,890.1,65,907.2,65 M686.5,65c15.7,0,27.9,5.1,36.5,15.2c8.6,10.2,12.9,24.3,12.9,42.3v10
		h-78.3c0.3,10.7,3.6,18.9,9.8,24.7c6.2,5.8,14.8,8.7,25.8,8.7c12.3,0,23.5-3.7,33.8-11.1v21.1c-10.5,6.6-24.3,9.9-41.5,9.9
		c-16.9,0-30.2-5.2-39.8-15.7c-9.6-10.5-14.4-25.3-14.4-44.3c0-18,5.3-32.6,15.9-44C657.7,70.7,670.8,65,686.5,65 M658.4,114h53
		c-0.1-9.4-2.3-16.8-6.6-22c-4.3-5.2-10.3-7.9-17.9-7.9c-7.5,0-13.8,2.8-19,8.3C662.8,97.9,659.6,105.1,658.4,114 M570.9,65
		c14.7,0,26.2,5.2,34.4,15.5c8.2,10.3,12.3,24.1,12.3,41.5c0,19.2-4.6,34.7-13.9,46.2c-9.3,11.6-22,17.4-38,17.4
		c-14.8,0-26.2-6.5-34.2-19.4H531v70.2h-26.3V67.7H531V88h0.5C540.4,72.7,553.6,65,570.9,65 M559.2,165.7c9.7,0,17.4-3.8,22.9-11.3
		c5.5-7.5,8.3-18,8.3-31.5c0-11.3-2.6-20.1-7.7-26.5c-5.2-6.4-12.2-9.6-21-9.6c-9.3,0-16.9,3.3-22.6,9.9c-5.7,6.6-8.5,14.8-8.5,24.7
		v14.2c0,8.4,2.7,15.5,8.1,21.3C544.1,162.7,550.9,165.7,559.2,165.7 M1028.2,67.8v115.6h-10.9V67.8H1028.2 M488.4,67.8l-52.3,134.1
		c-10.9,23.9-26.1,35.9-45.8,35.9c-5.5,0-10.1-0.5-13.8-1.5v-21.8c4.2,1.4,7.9,2,11.3,2c9.8,0,17.1-4.8,22-14.4l7.8-19L371.5,67.8
		h29.1l27.6,84l0.6,2.3c0.4,1.4,0.8,3.5,1.4,6h0.6l0.4-1.8c0.4-1.6,0.9-3.7,1.6-6.3l29-84.2H488.4 M799.5,6.8
		c-17.9,0-32.6,5-43.7,15c-11.5,10.3-17.4,23.1-17.4,38c0,10.8,2.9,20.6,8.7,29c5.5,8.1,16.7,16.9,35.2,27.6l1.6,0.9
		c16.6,9.7,22.3,14.7,24.3,16.9c2.4,2.7,3.6,6.5,3.6,11.8c0,7.4-2.8,10.6-5.3,12.5c-4.3,3.4-11.7,5.2-21.4,5.2
		c-9.7,0-19.2-3-28.9-9.2l-15.7-9.9h7.7v-12v-10c0-20.9-5.3-37.7-15.7-50.1C721.2,59.6,705.8,53,686.5,53c-19.1,0-35.3,7-48.2,20.8
		c-5.4,5.8-9.7,12.4-12.8,19.6c-2.5-7.7-6.1-14.5-10.8-20.4c-10.6-13.2-25.3-20-43.8-20c-10.3,0-19.7,2.3-27.8,6.8v-4.1h-12h-26.3
		h-12v0h-4.3h-26.5h-8.6l-2.8,8.1l-19.7,57.3L412,64l-2.7-8.2h-4V44.3V21.5v-12h-12H273.6h-12v12v22.8v12h12h34.4v127v12h12h26.8h12
		v-12v-115l1.6,3.9L404.7,183l-5.8,14c-3.4,6.6-7.3,7.5-11.1,7.5c-2.1,0-4.7-0.5-7.6-1.4l-15.7-5.1v16.5v21.8v9.2l8.9,2.4
		c4.7,1.3,10.3,1.9,16.9,1.9c12.5,0,23.8-3.9,33.6-11.5c9.1-7.2,16.9-17.7,23.1-31.4l0.1-0.3l0.1-0.3l45.5-116.5v146.7v12h12H531h12
		v-12v-43.7c6.8,3.2,14.4,4.9,22.6,4.9c19.8,0,35.8-7.4,47.4-21.9c4.5-5.7,8.2-12.1,10.8-19.2c2.9,8.4,7.2,15.7,12.9,21.9
		c11.9,13,28.3,19.6,48.6,19.6c19.4,0,35.6-4,47.9-11.8l4.2-2.6v0.7l5.9,3.5c4.9,2.9,11.5,5.3,20,7.3c8.2,1.9,15.6,2.9,22.1,2.9
		c18.8,0,33.8-5,44.7-14.8c6.5-5.9,11.1-12.8,13.9-20.6c2.7,5.6,6.1,10.7,10.3,15.3c12,13.4,27.9,20.1,47.3,20.1
		c12.3,0,23.4-2.5,33-7.3v4.6h12h10.1h12v-12v-54.5c0-14.9,2.5-26.3,7.3-33.7c5-7.7,9.5-8.7,12.8-8.7c2.8,0,4.3,0.8,5.1,1.5
		l11.3,8.2v87.2v12h12h10.9h12v-12V67.8v-12h-12h-10.9h-12v0.1c-4.8-1.9-10.1-2.8-15.8-2.8c-7.5,0-14.5,1.8-20.8,5.4v-3.1h-12h-10.1
		h-12v2.8c-8.9-3.4-18.1-5.1-27.4-5.1c-20.5,0-37.6,7.2-50.9,21.3c-10.2,11-16.5,24.4-18.7,40c-0.1-0.2-0.3-0.4-0.4-0.6
		c-6.1-8-17.2-16.6-33.9-26c-17.7-10.2-23.7-15.4-25.7-17.6c-2.4-2.6-3.5-6.4-3.5-11.7c0-5.1,1.7-8.8,5.5-12.1
		c4.2-3.7,10.3-5.4,18.4-5.4c9,0,17.6,1.8,25.6,5.4l16.9,7.6V35.4V23.7V15l-8.2-2.7C821.4,8.6,810.4,6.8,799.5,6.8L799.5,6.8z
		 M902.1,164.6c-9.3,0-16.1-3-21.7-9.4c-5.9-6.9-8.8-16.2-8.8-28.3c0-12.6,3.2-22.4,9.8-29.9c6.2-7.2,13.9-10.5,24.2-10.5
		c7.8,0,14.7,1.9,21.2,5.9l7.9,4.8v53.9l-9,6.4C919,162.3,911.3,164.6,902.1,164.6L902.1,164.6z M675.5,102c0.4-0.5,0.8-1,1.2-1.4
		c2.9-3.1,6.1-4.5,10.2-4.5c5.1,0,7.2,1.8,8.6,3.5c0.6,0.7,1.1,1.5,1.5,2.4H675.5L675.5,102z M559.2,153.7c-5,0-8.6-1.5-11.7-4.9
		c-3.3-3.6-4.9-7.8-4.9-13.2v-14.2c0-7,1.8-12.5,5.6-16.8c3.4-4,7.6-5.7,13.5-5.7c5.2,0,8.8,1.6,11.6,5.1c3.4,4.2,5.1,10.6,5.1,19
		c0,10.8-2,19-6,24.3C569.2,151.7,565.1,153.7,559.2,153.7L559.2,153.7z M672.5,144.7h48.3l-0.8,0.6c-8.2,5.9-17,8.8-26.8,8.8
		c-7.9,0-13.6-1.8-17.6-5.5C674.3,147.5,673.3,146.2,672.5,144.7L672.5,144.7z M1023.4,9.5c-5.2,0-10,1.9-14,5.4
		c-4.4,3.8-6.8,9.3-6.8,15.2c0,5.9,2.2,11.1,6.3,15.1c4,3.9,9,5.9,14.4,5.9c5.7,0,10.8-2.2,14.9-6.2c4-4,6.1-9.2,6.1-14.8
		c0-6.1-2.4-11.6-6.9-15.4C1033.5,11.3,1028.6,9.5,1023.4,9.5L1023.4,9.5z M1200.3,18l-16.1,5.9c-1.5,0.5-2.9,1-4.4,1.4l-0.2,0.1
		l-0.2,0.1c-1.9,0.6-3.8,1.3-5.5,1.9l-7.9,2.9v8.4v17.9h-8.6h-12v10.8c-10-9.5-23-14.3-38.7-14.3c-11.4,0-22,2.9-31.6,8.6
		c0,0,0,0,0,0v-5.8h-12h-10.4h-12v12v168.5v12h12h10.4h12v-12v-44.7c7.8,4.3,16.8,6.4,26.8,6.4c19.3,0,35-7.5,46.8-22.4
		c11.1-14,16.7-32.3,16.7-54.3c0-11.8-1.7-22.3-5.2-31.4h5.9v65.4c0,13,3.1,23.3,9.1,30.6c4.5,5.5,13.1,12,28.3,12
		c6.5,0,13.3-1.7,20.3-5l6.9-3.3v-7.6v-9.7V152l-17.9,10.1c-3,1.7-5.8,2.6-7.9,2.6c-1.7,0-2.6-0.2-3-0.4c-0.3-0.6-1.5-3.2-1.5-10.2
		V90h18.3h12V78v-9.5v-12h-12h-18.3V35.1V18L1200.3,18z M1103.6,164.5c-8.6,0-15-2.7-20-8.4c-5.4-6.1-8-13.2-8-21.8v-14.5
		c0-9.4,2.7-17.3,8.4-24.1c5.2-6.2,12.2-9.1,22.3-9.1c7.7,0,13.4,2.6,18,8.2c5,6.3,7.6,15.3,7.6,26.8c0,13.7-3,24.7-8.8,32.7
		C1117.8,161.3,1111.7,164.5,1103.6,164.5L1103.6,164.5z"/>
</g>
</svg>
