<?xml version="1.0" encoding="UTF-8"?><svg id="b" xmlns="http://www.w3.org/2000/svg" viewBox="0 0 1396.7 360.3"><defs><style>.d{fill:#fff;}.e{fill:#1d1d1b;}.f{fill:#e9500e;}</style></defs><g id="c"><g><path class="e" d="M374.9,326.1c-17,0-31.8-2.7-44-7.9-11.6-4.8-22-12.5-30-22.2-7.9-9.8-13.4-20.8-16.6-32.9-3.4-12.8-5.1-26-5-39.2V69.6c0-3.3,2.7-6,6-6h24.1c3.3,0,6,2.7,6,6,0,0,0,151.2,0,151.2-.2,11.2,1.3,22.3,4.5,33,2.5,8.2,6.5,15.6,12.1,22.1,4.8,5.5,11.1,9.8,18,12.4,8,2.8,16.4,4.2,24.8,4.2s16.8-1.4,24.8-4.2c6.9-2.6,13.2-6.9,18.1-12.5,5.5-6.4,9.5-13.8,12-22,3.2-10.7,4.7-21.8,4.5-33,0,0,0-151.2,0-151.2,0-3.3,2.7-6,6-6h24.1c3.3,0,6,2.7,6,6V223.8c0,13.2-1.6,26.4-5,39.2-3.2,12-8.7,23.1-16.5,32.8-8.1,9.8-18.5,17.5-30.2,22.3-12.1,5.2-26.8,7.9-43.9,7.9h0Z"/><path class="d" d="M464.4,69.6V223.8c0,12.7-1.5,25.4-4.8,37.7-2.9,11.2-8.2,21.6-15.4,30.6-7.4,9-17,16-27.8,20.5-11.4,5-25.3,7.4-41.6,7.4-16.3,0-30.1-2.5-41.6-7.4-10.8-4.5-20.3-11.5-27.8-20.5-7.2-9-12.5-19.4-15.4-30.6-3.3-12.3-4.9-25-4.8-37.7V69.6h24.1V220.6c-.2,11.8,1.4,23.6,4.8,34.8,2.7,8.9,7.2,17.2,13.3,24.2,5.6,6.3,12.6,11.2,20.5,14.2,8.7,3.1,17.8,4.6,26.9,4.6s18.2-1.5,26.9-4.6c7.9-3,14.9-7.8,20.5-14.2,6.1-7.1,10.6-15.3,13.3-24.2,3.4-11.3,5-23.1,4.8-34.8V69.6h24.1m0-12h-24.1c-6.6,0-12,5.4-12,12V220.6c0,0,0,.2,0,.2,.2,10.6-1.2,21-4.3,31.2-2.2,7.3-5.9,14-10.8,19.8-4.2,4.8-9.6,8.5-15.6,10.8-7.3,2.6-15,3.9-22.8,3.9s-15.4-1.3-22.8-3.9c-6-2.3-11.3-6-15.6-10.8-5-5.8-8.6-12.5-10.8-19.8-3-10.1-4.5-20.6-4.3-31.1,0,0,0-.2,0-.2V69.6c0-6.6-5.4-12-12-12h-24.1c-6.6,0-12,5.4-12,12V223.8c0,13.8,1.6,27.5,5.2,40.8,3.4,12.8,9.3,24.6,17.6,35,0,0,0,0,.1,.1,8.6,10.4,19.8,18.7,32.3,23.9,12.9,5.6,28.4,8.4,46.3,8.4,17.8,0,33.4-2.8,46.3-8.4,12.5-5.2,23.7-13.5,32.3-23.9,0,0,0,0,.1-.1,8.3-10.4,14.3-22.2,17.6-35.1,3.5-13.3,5.3-27,5.2-40.8V69.6c0-6.6-5.4-12-12-12h0Z"/></g><g><path class="e" d="M588.2,325c-.5,0-.9,0-1.4,0h0c-16.5,0-30.5-1.1-41.4-3.3-9-1.7-18.1-4-26.9-6.9-2.5-.8-4.1-3.1-4.1-5.7V44.5c0-2.9,2.1-5.4,4.9-5.9l23-4.2c.4,0,.7,0,1.1,0,1.4,0,2.8,.5,3.8,1.4,1.4,1.1,2.2,2.8,2.2,4.6v92.1c3.2-1.6,6.9-3.2,11.1-4.8,0,0,0,0,.1,0,10.1-3.7,20.7-5.5,31.5-5.5s1.2,0,1.9,0c.5,0,1,0,1.5,0,12.5,0,24.6,2.6,36.1,7.6,10.9,4.9,20.6,12.3,28.2,21.5,7.9,9.6,13.7,20.5,17.2,32.4,3.9,13,5.9,26.5,5.7,40.1,.2,14.3-2.1,28.5-6.9,42-4.3,12.1-10.9,22.9-19.7,32.2-8.5,8.9-19.1,15.9-30.5,20.4-12,4.6-24.6,7-37.5,7Zm-38.8-36.4c3.5,.9,7,1.5,10.5,2,7.9,1,15.9,1.6,23.9,1.6,.9,0,1.8,0,2.7,0,18.3,0,32.5-5.7,43.5-17.4,10.9-11.6,16.4-28.9,16.4-51.3,0-9.3-1-18.5-3-27.5-1.7-7.8-4.9-15.1-9.4-21.7-4.2-5.9-9.8-10.8-16.4-14.1-6.8-3.6-15.5-5.4-25.8-5.4h-.3c-4.7,0-9.4,.5-14,1.5-4.4,.9-8.7,2.2-12.9,3.8-3.6,1.4-7,3-10.3,4.9-1.7,1-3.4,2-5,3.2v120.4Z"/><path class="d" d="M543.3,40.2v102.6c4-3.1,10.4-6.3,19.3-9.7,9.4-3.4,19.4-5.2,29.4-5.2s1.2,0,1.9,0c.5,0,1,0,1.5,0,11.6,0,23,2.4,33.7,7.1,10.1,4.6,18.9,11.3,26,19.8,7.3,8.9,12.8,19.2,16.1,30.3,3.8,12.4,5.6,25.4,5.5,38.4,.2,13.6-2,27.1-6.5,40-4,11.2-10.3,21.4-18.4,30.1-7.9,8.3-17.6,14.7-28.3,18.9-11.3,4.3-23.2,6.6-35.3,6.6s-.9,0-1.3,0c-16.3,0-29.7-1.1-40.3-3.2-8.9-1.7-17.6-3.9-26.2-6.7V44.5l23-4.2m40.4,257.9c.9,0,1.9,0,2.8,0,19.8,0,35.7-6.4,47.8-19.3,12-12.9,18-31.3,18-55.4,0-9.7-1-19.4-3.2-28.8-1.9-8.5-5.3-16.5-10.3-23.7-4.8-6.8-11.2-12.3-18.6-16.1-7.7-4-17.2-6-28.5-6,0,0-.2,0-.3,0-5.1,0-10.3,.5-15.3,1.6-4.7,1-9.3,2.3-13.8,4.1-3.9,1.5-7.6,3.2-11.1,5.3-2.8,1.6-5.4,3.4-8,5.3v128.1c5.2,1.5,10.4,2.7,15.7,3.4,8.2,1.1,16.4,1.6,24.6,1.6M543.3,28.2c-.7,0-1.5,0-2.2,.2l-23,4.2c-5.7,1.1-9.8,6-9.8,11.8V309.1c0,5.2,3.3,9.8,8.3,11.4,9,3,18.3,5.3,27.6,7.1,11.3,2.3,25.6,3.4,42.5,3.4,.5,0,.9,0,1.4,0,13.6,0,26.9-2.5,39.6-7.4,0,0,0,0,0,0,12.2-4.8,23.5-12.3,32.6-21.8,0,0,0,0,0,0,9.3-9.9,16.4-21.4,21-34.3,5-14.2,7.5-29,7.2-44,.1-14.2-1.9-28.3-6-41.8-3.8-12.6-9.9-24.2-18.3-34.4,0,0,0,0,0,0-8.2-9.8-18.6-17.8-30.3-23.1,0,0,0,0-.1,0-12.2-5.4-25.2-8.1-38.5-8.1s-1,0-1.5,0c-.6,0-1.3,0-1.9,0-11.5,0-22.7,2-33.5,5.9,0,0-.2,0-.3,0-1,.4-2,.8-3,1.2V40.2c0-3.6-1.6-6.9-4.3-9.2-2.2-1.8-4.9-2.8-7.7-2.8h0Zm12,143.2c.7-.4,1.3-.8,2-1.2,3-1.7,6.1-3.2,9.4-4.5,3.9-1.5,7.9-2.7,12-3.5,4.2-.9,8.5-1.3,12.8-1.3h.2c9.4,0,17.1,1.6,23,4.6,0,0,0,0,0,0,5.6,2.9,10.5,7.1,14.2,12.3,4,5.9,6.9,12.4,8.4,19.4,0,0,0,0,0,.1,2,8.5,2.9,17.3,2.9,26.1,0,0,0,0,0,0,0,20.8-5,36.7-14.8,47.2-9.7,10.4-22.5,15.5-39,15.5s-.1,0-.2,0c-.9,0-1.7,0-2.6,0-7.7,0-15.5-.5-23.1-1.5-1.8-.2-3.5-.5-5.3-.9v-112.4h0Z"/></g><g><path class="e" d="M795.4,324.3c-1.1,0-2.3,0-3.4,0h0c-14.4,0-26.7-2.2-36.6-6.5-9.6-4-18.1-10.5-24.6-18.8,0,0,0,0,0,0-6.5-8.6-10.9-18.3-13.3-28.9-2.7-11.7-4-23.7-3.9-35.7v-102.5c0-3.3,2.7-6,6-6h23c3.3,0,6,2.7,6,6v95.2c-.2,10.7,.7,21.3,2.7,31.7,1.7,8,4.4,14.5,8.1,19.3,3.5,4.6,8.2,8.1,13.7,10,6.7,2.3,13.7,3.4,20.8,3.4s1.1,0,1.6,0c0,0,1.4,0,2.1,0,8.5,0,17.1-.6,25.6-1.7,4.8-.7,8-1.3,10-1.7V131.8c0-3.3,2.7-6,6-6h23c3.3,0,6,2.7,6,6v176.5c0,2.7-1.8,5.1-4.4,5.8-6.9,1.9-16.4,4.1-28,6.5,0,0,0,0-.1,0-13.2,2.4-26.8,3.7-40.2,3.7Z"/><path class="d" d="M862.1,131.8v176.5c-6.8,1.9-16,4-27.6,6.4-12.9,2.4-26,3.6-39.1,3.6s-2.2,0-3.3,0c-13.7,0-25.1-2-34.3-6-8.8-3.7-16.4-9.5-22.3-17-5.9-7.9-10.1-16.9-12.2-26.5-2.6-11.3-3.8-22.8-3.7-34.3v-102.6h23v95.2c-.2,11,.8,22.1,2.8,32.9,1.9,9,5,16.2,9.2,21.8,4.2,5.5,9.9,9.7,16.5,12,7.4,2.5,15.1,3.7,22.8,3.7s1.2,0,1.8,0c.6,0,1.3,0,1.9,0,8.8,0,17.6-.6,26.4-1.8,8-1.2,13.1-2.2,15.2-3.2V131.8h23m0-12h-23c-6.6,0-12,5.4-12,12v151.2c-1.4,.2-3,.5-4.9,.8-8.2,1.1-16.5,1.7-24.7,1.7s-1.2,0-1.8,0c0,0,0,0-.1,0,0,0-.2,0-.3,0-.5,0-1,0-1.5,0-6.4,0-12.8-1-18.9-3.1-4.3-1.6-8.1-4.3-10.9-8-3.1-4.1-5.5-9.7-7-16.8-1.9-10-2.8-20.2-2.6-30.4,0,0,0-.1,0-.2v-95.2c0-6.6-5.4-12-12-12h-23c-6.6,0-12,5.4-12,12v102.6c-.1,12.4,1.2,24.9,4,37,2.5,11.4,7.3,21.8,14.3,31.1,0,0,0,.1,.1,.2,7.1,9,16.4,16.2,27,20.6,10.6,4.6,23.7,7,38.9,7,1.1,0,2.3,0,3.4,0,13.8,0,27.7-1.3,41.3-3.8,0,0,.2,0,.2,0,11.8-2.4,21.3-4.6,28.4-6.6,5.2-1.4,8.8-6.2,8.8-11.6V131.8c0-6.6-5.4-12-12-12h0Z"/></g><g><path class="e" d="M1036.1,320.8c-3.3,0-6-2.7-6-6v-94.8c.2-10.7-.7-21.4-2.6-31.9-1.2-7-3.9-13.7-7.8-19.5-3.4-4.6-8-8.1-13.4-10-6.1-2.2-13.9-3.4-23.3-3.4-.7,0-1.3,0-1.9,0-8.5,0-17,.6-25.4,1.7-4.8,.7-8.1,1.3-10.2,1.8v156.1c0,3.3-2.7,6-6,6h-23c-3.3,0-6-2.7-6-6V138.2c0-2.7,1.8-5.1,4.4-5.8,6.9-1.9,16.4-4.1,28-6.5,0,0,0,0,.1,0,13.2-2.4,26.8-3.7,40.2-3.7s2.3,0,3.4,0h0c14.6,0,27.1,2.2,37.1,6.5,9.7,4,18.3,10.6,24.7,19,0,0,0,0,0,.1,6.3,8.7,10.6,18.5,12.9,29,2.5,11.7,3.8,23.6,3.7,35.6v102.2c0,3.3-2.7,6-6,6h-23Z"/><path class="d" d="M983.2,128.3c1.1,0,2.2,0,3.3,0,13.9,0,25.5,2,34.9,6,8.8,3.6,16.5,9.6,22.3,17.2,5.8,8,9.8,17.1,11.9,26.7,2.5,11.3,3.6,22.8,3.5,34.3v102.3h-23v-94.8c.2-11-.7-22-2.7-32.9-1.3-7.9-4.3-15.4-8.8-21.9-4.1-5.6-9.7-9.9-16.3-12.2-6.7-2.5-15.2-3.7-25.3-3.7-.6,0-1.3,0-1.9,0-8.8,0-17.5,.6-26.2,1.8-7.9,1.2-13,2.2-15.4,3.2v160.6h-23V138.2c6.8-1.9,16-4,27.6-6.4,12.9-2.4,26-3.6,39.1-3.6m0-12c-13.8,0-27.7,1.3-41.3,3.8,0,0-.2,0-.2,0-11.8,2.4-21.3,4.6-28.4,6.6-5.2,1.4-8.8,6.2-8.8,11.6v176.5c0,6.6,5.4,12,12,12h23c6.6,0,12-5.4,12-12V163.6c1.4-.2,3.1-.5,5.1-.8,8.1-1.1,16.3-1.7,24.5-1.7,.6,0,1.2,0,1.8,0,0,0,0,0,.1,0,8.7,0,15.8,1,21.2,3,0,0,0,0,.1,0,4.2,1.5,7.9,4.2,10.5,7.8,3.4,5.1,5.8,11,6.8,17,0,0,0,0,0,.1,1.8,10.1,2.6,20.4,2.5,30.6,0,0,0,.1,0,.2v94.8c0,6.6,5.4,12,12,12h23c6.6,0,12-5.4,12-12v-102.2c.1-12.4-1.2-24.8-3.8-36.9-2.4-11.3-7.1-21.9-13.9-31.2,0,0-.1-.1-.2-.2-7-9.3-16.4-16.5-27.2-21-10.7-4.6-24-6.9-39.4-7-1.1,0-2.3,0-3.4,0h0Z"/></g><g><path class="e" d="M1169.9,324.7c-12,0-22.3-1.6-30.6-4.8-8.3-3-15.5-8.3-21-15.4,0,0,0,0,0-.1-5.4-7.3-9.1-16-10.8-24.9-2.1-10.8-3.1-22-2.9-33V78.1c0-2.9,2.1-5.4,4.9-5.9l23-4.2c.4,0,.7,0,1.1,0,1.4,0,2.8,.5,3.8,1.4,1.4,1.1,2.2,2.8,2.2,4.6v52h66.9c3.3,0,6,2.7,6,6v19.5c0,3.3-2.7,6-6,6h-66.9s0,91.4,0,91.4c-.2,8,.6,16,2.5,23.8,1.1,4.6,3.2,8.9,6.3,12.4,2.4,2.6,5.5,4.4,9,5.2,4.4,1.1,9,1.6,13.5,1.6h.6c9,0,16.1-1,21.3-3,4.5-1.6,8.9-3.6,13.1-5.9,.9-.5,1.9-.7,2.9-.7s1.6,.2,2.3,.5c1.7,.7,2.9,2.1,3.5,3.8l5.7,19.1c.8,2.6-.3,5.3-2.5,6.8-3.8,2.4-9.9,5-18.7,7.9-9.1,2.9-18.5,4.4-28,4.4h-.8Z"/><path class="d" d="M1133.5,73.8v58h72.9v19.5h-72.9v97.3c-.2,8.5,.7,17,2.7,25.3,1.3,5.6,3.9,10.7,7.6,15,3.2,3.5,7.4,6,12,7.1,4.9,1.2,9.9,1.8,15,1.8s.4,0,.6,0c9.7,0,17.5-1.1,23.4-3.4,4.7-1.7,9.4-3.8,13.8-6.2l5.7,19.1c-3.3,2.1-9.1,4.5-17.3,7.3-8.4,2.7-17.3,4.1-26.1,4.1s-.5,0-.8,0c-11.3,0-20.8-1.5-28.5-4.4-7.3-2.7-13.7-7.3-18.4-13.4-4.9-6.7-8.2-14.3-9.7-22.5-2-10.5-3-21.2-2.8-31.8V78.1l23-4.2m0-12c-.7,0-1.5,0-2.2,.2l-23,4.2c-5.7,1.1-9.8,6-9.8,11.8V246.4c-.2,11.4,.9,22.9,3,34.2,1.8,9.8,5.9,19.3,11.8,27.3,0,0,.1,.2,.2,.3,6.1,7.9,14.3,13.9,23.7,17.3,9,3.4,20,5.2,32.6,5.2,.3,0,.5,0,.8,0,10.1,0,20.1-1.6,29.8-4.6,0,0,0,0,0,0,9.4-3.1,15.8-5.8,20.1-8.6,4.5-2.9,6.5-8.4,5-13.5l-5.7-19.1c-1-3.5-3.6-6.3-6.9-7.7-1.5-.6-3-.9-4.6-.9-2,0-3.9,.5-5.7,1.4-3.9,2.1-8,4-12.2,5.5,0,0-.1,0-.2,0-4.5,1.7-10.9,2.6-19.1,2.6,0,0,0,0-.1,0h-.5c-4.1,0-8.2-.5-12.1-1.4-2.2-.5-4.3-1.7-5.9-3.4-2.4-2.8-4-6.2-4.9-9.7,0,0,0,0,0,0-1.7-7.3-2.5-14.7-2.3-22.2,0,0,0-.2,0-.3v-85.3h60.9c6.6,0,12-5.4,12-12v-19.5c0-6.6-5.4-12-12-12h-60.9v-46c0-3.6-1.6-6.9-4.3-9.2-2.2-1.8-4.9-2.8-7.7-2.8h0Z"/></g><g><path class="e" d="M1317.9,324.3c-1.1,0-2.3,0-3.4,0h0c-14.4,0-26.7-2.2-36.6-6.5-9.6-4-18.1-10.5-24.6-18.8,0,0,0,0,0,0-6.5-8.6-10.9-18.3-13.3-28.9-2.7-11.7-4-23.7-3.9-35.7v-102.5c0-3.3,2.7-6,6-6h23c3.3,0,6,2.7,6,6v95.2c-.2,10.7,.7,21.3,2.7,31.7,1.7,8,4.4,14.5,8.1,19.3,3.5,4.6,8.2,8.1,13.7,10,6.7,2.3,13.7,3.4,20.8,3.4s1.1,0,1.6,0c0,0,1.4,0,2.1,0,8.5,0,17.1-.6,25.6-1.7,4.8-.7,8-1.3,10-1.7V131.8c0-3.3,2.7-6,6-6h23c3.3,0,6,2.7,6,6v176.5c0,2.7-1.8,5.1-4.4,5.8-6.9,1.9-16.4,4.1-28,6.5,0,0,0,0-.1,0-13.2,2.4-26.8,3.7-40.2,3.7Z"/><path class="d" d="M1384.7,131.8v176.5c-6.8,1.9-16,4-27.6,6.4-12.9,2.4-26,3.6-39.1,3.6s-2.2,0-3.3,0c-13.7,0-25.1-2-34.3-6-8.8-3.7-16.4-9.5-22.3-17-5.9-7.9-10.1-16.9-12.2-26.5-2.6-11.3-3.8-22.8-3.7-34.3v-102.6h23v95.2c-.2,11,.8,22.1,2.8,32.9,1.9,9,5,16.2,9.2,21.8,4.2,5.5,9.9,9.7,16.5,12,7.4,2.5,15.1,3.7,22.8,3.7s1.2,0,1.8,0c.6,0,1.3,0,1.9,0,8.8,0,17.6-.6,26.4-1.8,8-1.2,13.1-2.2,15.2-3.2V131.8h23m0-12h-23c-6.6,0-12,5.4-12,12v151.2c-1.4,.2-3,.5-4.9,.8-8.2,1.1-16.5,1.7-24.7,1.7s-1.2,0-1.8,0c0,0,0,0-.1,0,0,0-.2,0-.3,0-.5,0-1,0-1.5,0-6.4,0-12.8-1-18.9-3.1-4.3-1.6-8.1-4.3-10.9-8-3.1-4.1-5.5-9.7-7-16.8-1.9-10-2.8-20.2-2.6-30.4,0,0,0-.1,0-.2v-95.2c0-6.6-5.4-12-12-12h-23c-6.6,0-12,5.4-12,12v102.6c-.1,12.4,1.2,24.9,4,37,2.5,11.4,7.3,21.8,14.3,31.1,0,0,0,.1,.1,.2,7.1,9,16.4,16.2,27,20.6,10.6,4.6,23.7,7,38.9,7,1.1,0,2.3,0,3.4,0,13.8,0,27.7-1.3,41.3-3.8,0,0,.2,0,.2,0,11.8-2.4,21.3-4.6,28.4-6.6,5.2-1.4,8.8-6.2,8.8-11.6V131.8c0-6.6-5.4-12-12-12h0Z"/></g><rect class="f" width="233.9" height="360.3"/><circle class="d" cx="51" cy="237.8" r="24.5"/><circle class="d" cx="153.3" cy="184" r="24.5"/><path class="d" d="M106.4,301c-17.6-3.7-32.5-15.1-40.8-31.1-6.6,3-13.9,3.9-21,2.6,10,24.6,31.5,42.7,57.5,48.2,5.7,1.2,11.6,1.8,17.4,1.8-4.5-5.9-7-13.1-7.2-20.5-2-.2-4-.6-6-1Z"/><circle class="d" cx="147.7" cy="301.1" r="24.5"/><path class="d" d="M181.9,292.1c21.6-27.2,23.2-65.3,4-94.2-2.8,6.7-7.7,12.3-13.8,16.2,10,18.9,9.2,41.6-2,59.8,5.7,4.7,9.9,11.1,11.7,18.3Z"/><path class="d" d="M49.1,202.6c.6,0,1.2,0,1.9,0,6.6,0,13,1.8,18.6,5.3,11-15.9,28.9-25.5,48.2-25.8,.4-7.2,3-14.2,7.4-19.9-31.1-2.3-60.7,13.4-76.1,40.4Z"/></g></svg>