<?xml version="1.0" encoding="utf-8"?>
<!-- Generator: Adobe Illustrator 26.5.3, SVG Export Plug-In . SVG Version: 6.00 Build 0)  -->
<svg version="1.1" id="레이어_1" xmlns="http://www.w3.org/2000/svg" xmlns:xlink="http://www.w3.org/1999/xlink" x="0px"
	 y="0px" viewBox="0 0 486 100" style="enable-background:new 0 0 486 100;" xml:space="preserve">
<style type="text/css">
	.st0{fill:#FFFFFF;}
	.st1{fill:#3C790A;}
</style>
<g>
	<g>
		<g id="XMLID_00000066493308711491273870000018183692069739772324_">
			<g>
				<circle class="st0" cx="50" cy="50" r="40"/>
				<path class="st1" d="M50,0c27.6,0,50,22.4,50,50s-22.4,50-50,50S0,77.6,0,50S22.4,0,50,0z M90,50c0-22.1-17.9-40-40-40
					c-22,0-40,17.9-40,40c0,22.1,18,40,40,40C72.1,90,90,72.1,90,50z"/>
			</g>
		</g>
	</g>
	<g>
		<g>
			<path class="st1" d="M66.2,62.2h8V43l-9-9l-5.7,5.7l6.7,6.7V62.2z M74.3,66.2H62.6H46.3l-6.7-6.7l2.8-2.8l5.5,5.5h11.3L48.2,51.1
				l2.9-2.9l11.2,11.2V48l-5.5-5.5l2.8-2.8L45.6,25.8H32l0,0H17.8l8,8v0h0h16.5l5.8,5.8l-8.6,8.6l-5.8-5.8v-4.5h-8v7.9l13.9,13.9
				L34,65.2l9,9h13.7h25.6l0,0L74.3,66.2z"/>
		</g>
	</g>
</g>
<g>
	<path class="st0" d="M485.2,74.7l0.8,3.6l-3.5,1.1c-2.4,0.8-5.7,1.6-10,1.6c-11.2,0-17.7-7.1-17.7-19.4v-12h-1.4h-4v-4v-8.8v-3.7
		l3.7-0.3l2.8-0.2l0.9-7.3l0.5-3.5h3.5h9.7h4v4v6.5h5.5h4v4v9.2v4h-4h-5.5v11.9c0,1.5,0.3,2.1,0.4,2.2c0,0,0.2,0.1,0.7,0.1
		c0.6,0,1.5-0.2,2.4-0.5l4.3-1.6l1,4.5L485.2,74.7z"/>
	<g>
		<g id="XMLID_00000094582294211578994800000015221268237175041203_">
			<g>
				<path class="st0" d="M172.8,19.9l-0.8,4.7l-9.3,52.1l-0.6,3.3h-3.4h-14.8h-3.2l-0.7-3.2L136.6,61l-3.3,15.9l-0.7,3.2h-3.2h-14.6
					h-3.3l-0.6-3.3l-9.7-52.1l-0.9-4.7h4.8h12.1h3.4l0.5,3.4l2.7,18.1l4.2-18.4l0.7-3.1h3.2h10h3.2l0.7,3.1l4.2,18.4l2.7-18.1
					l0.5-3.4h3.4H168H172.8z M158.7,76.1l9.3-52.1h-11.3l-3.6,24.3c-0.7,5.4-1.4,10.9-2.1,16.5h-0.3c-1.1-5.6-2.1-11.2-3.1-16.5
					L142,23.9h-10l-5.6,24.3c-1,5.4-2.1,11-3.1,16.5h-0.3c-0.7-5.5-1.4-11-2.1-16.5l-3.6-24.3h-12.1l9.7,52.1h14.6l4.9-23.7
					c0.8-4,1.5-8.2,2.1-12.1h0.3c0.6,3.9,1.3,8.1,2.1,12.1l5.1,23.7H158.7z"/>
				<path class="st1" d="M168,23.9l-9.3,52.1h-14.8l-5.1-23.7c-0.8-4-1.5-8.2-2.1-12.1h-0.3c-0.6,3.9-1.3,8.1-2.1,12.1l-4.9,23.7
					h-14.6l-9.7-52.1h12.1l3.6,24.3c0.7,5.5,1.4,11,2.1,16.5h0.3c1-5.5,2.1-11,3.1-16.5l5.6-24.3h10l5.6,24.3
					c1.1,5.3,2.1,10.9,3.1,16.5h0.3c0.7-5.6,1.4-11.1,2.1-16.5l3.6-24.3H168z"/>
			</g>
		</g>
	</g>
	<g>
		<g id="XMLID_00000018230850671658349380000018254802966933065354_">
			<g>
				<path class="st0" d="M210,54.5c0,2.5-0.3,4.9-0.6,6.1l-0.7,3.1h-3.2h-1.3l3.8,7l1.7,3.2l-3,2.1c-4.7,3.2-10.8,5.2-16.4,5.2
					c-14.2,0-24.1-10.2-24.1-24.8c0-15.5,11.6-24.8,22.7-24.8C201.8,31.4,210,40.5,210,54.5z M205.5,59.7c0.2-1,0.5-3.1,0.5-5.2
					c0-10.8-5.6-19.1-16.9-19.1c-9.5,0-18.7,8-18.7,20.8c0,13.1,8.8,20.8,20.1,20.8c4.7,0,10-1.7,14.1-4.5l-3.9-7.1
					c-2.9,1.7-5.6,2.6-8.6,2.6c-5.3,0-9.2-2.6-10.3-8.4H205.5z M194.9,63.7h-5.6c0.8,0.3,1.7,0.4,2.8,0.4
					C193,64.1,193.9,63.9,194.9,63.7z"/>
				<path class="st0" d="M195.9,51.9h-14.3c0.8-5,4-7.5,7.7-7.5C194,44.4,195.9,47.5,195.9,51.9z"/>
				<path class="st1" d="M206,54.5c0,2.1-0.3,4.2-0.5,5.2h-23.7c1.1,5.8,5,8.4,10.3,8.4c3,0,5.7-0.9,8.6-2.6l3.9,7.1
					c-4.1,2.8-9.4,4.5-14.1,4.5c-11.3,0-20.1-7.7-20.1-20.8c0-12.9,9.2-20.8,18.7-20.8C200.4,35.4,206,43.6,206,54.5z M181.6,51.9
					h14.3c0-4.4-1.9-7.5-6.6-7.5C185.6,44.4,182.4,46.9,181.6,51.9z"/>
			</g>
		</g>
	</g>
	<g>
		<g id="XMLID_00000181061353616971539100000015887296280129062326_">
			<g>
				<path class="st0" d="M249,38.5c3.3,4.3,5,10.2,5,17c0,7.4-2.1,13.8-6.1,18.5c-3.8,4.5-9.1,7-14.6,7c-2.8,0-5.5-0.8-8.1-2.3
					l-0.3,1.3h-3.2h-9.2h-4v-4V20v-4h4h11.8h4v4v12.5c2-0.8,4.1-1.1,6.2-1.1C240.3,31.4,245.5,33.9,249,38.5z M250,55.5
					c0-12.2-5.9-20.1-15.6-20.1c-3.8,0-7.5,1.7-10.5,4.4l0.3-6.1V20h-11.8v56h9.2l1-4.2h0.3c3.2,3.4,6.8,5.2,10.4,5.2
					C241.9,77,250,69.2,250,55.5z"/>
				<path class="st0" d="M231.1,45c4.7,0,6.9,3.6,6.9,10.7c0,8.2-3.3,11.7-7.4,11.7c-2,0-4.2-0.7-6.3-2.5V48.6
					C226.5,46.1,228.6,45,231.1,45z M230.6,63.4c3.1,0,3.4-5.9,3.4-7.7c0-6.7-1.9-6.7-2.9-6.7c-0.7,0-1.6,0.2-2.8,1.2v12.6
					C229,63.2,229.8,63.4,230.6,63.4z"/>
				<path class="st1" d="M234.5,35.4c9.6,0,15.6,8,15.6,20.1c0,13.7-8.1,21.5-16.7,21.5c-3.6,0-7.2-1.8-10.4-5.2h-0.3l-1,4.2h-9.2
					V20h11.8v13.7l-0.3,6.1C227,37.1,230.7,35.4,234.5,35.4z M238,55.7c0-7.1-2.2-10.7-6.9-10.7c-2.4,0-4.5,1.1-6.8,3.6v16.3
					c2.1,1.9,4.3,2.5,6.3,2.5C234.7,67.4,238,63.9,238,55.7z"/>
			</g>
		</g>
	</g>
	<g>
		<g id="XMLID_00000159466586199402390020000013045111385175288986_">
			<g>
				<path class="st0" d="M297.1,29.5l-2.2,2.8l-5.9,7.4l-2.5,3.1l-3.1-2.4c-3-2.3-5.4-3.3-8.4-3.3c-1.8,0-2.6,0.5-2.6,0.5
					c0,0,0,0,0,0.1c0.6,0.6,2.9,1.5,4.7,2.2l0.8,0.3l6.6,2.7c8.5,3.4,12.9,9.5,12.9,17.9c0,10-8.1,20.2-23.6,20.2
					c-8.1,0-16.2-3.1-22-8.6l-2.8-2.6l2.4-2.9l6.8-8.1l2.6-3.1l3.1,2.7c3.2,2.8,7.1,4.5,10.2,4.5c2.2,0,3-0.5,3.2-0.6
					c0.1-0.1,0.1-0.1,0.1-0.4c0,0,0-0.1,0-0.1c-0.5-0.6-2.7-1.5-4.4-2.2l-0.6-0.3l0,0l0,0l-6.8-2.9c-8.2-3.4-13-9.9-13-17.9
					c0-11.1,9.7-19.5,22.6-19.5c7.3,0,14.5,2.9,19.6,8L297.1,29.5z M285.8,37.2l5.9-7.4C287.3,25.3,281,23,275,23
					c-10.9,0-18.6,6.9-18.6,15.5c0,7.6,5.1,12,10.5,14.2l6.8,2.9c4.6,1.9,7.5,2.9,7.5,6.2c0,3.1-2.4,5-7.3,5
					c-4.3,0-9.1-2.2-12.8-5.4l-6.8,8.1c5.3,5,12.5,7.5,19.3,7.5c12.4,0,19.6-7.5,19.6-16.2c0-7.4-4-11.6-10.4-14.2l-6.6-2.7
					c-4.5-1.8-8-3-8-6.2c0-3,2.6-4.7,6.6-4.7C279.1,33.1,282.4,34.6,285.8,37.2z"/>
				<path class="st1" d="M291.8,29.8l-5.9,7.4c-3.4-2.6-6.7-4.1-10.8-4.1c-4.1,0-6.6,1.7-6.6,4.7c0,3.2,3.4,4.4,8,6.2l6.6,2.7
					c6.4,2.6,10.4,6.8,10.4,14.2c0,8.7-7.2,16.2-19.6,16.2c-6.8,0-14-2.6-19.3-7.5l6.8-8.1c3.7,3.2,8.5,5.4,12.8,5.4
					c4.9,0,7.3-1.9,7.3-5c0-3.3-3-4.3-7.5-6.2l-6.8-2.9c-5.4-2.2-10.5-6.6-10.5-14.2c0-8.6,7.7-15.5,18.6-15.5
					C281,23,287.3,25.3,291.8,29.8z"/>
			</g>
		</g>
	</g>
	<g>
		<g id="XMLID_00000079458298599802000930000002768373206150032290_">
			<g>
				<path class="st0" d="M332.9,38c4.6,4.6,7.1,10.9,7.1,18.2c0,7.3-2.5,13.6-7.1,18.2c-4.3,4.3-10.1,6.6-16.3,6.6
					c-6.2,0-12-2.4-16.2-6.6c-4.6-4.6-7.1-10.9-7.1-18.2c0-7.3,2.5-13.6,7.1-18.2c4.3-4.3,10.1-6.6,16.2-6.6
					C322.8,31.4,328.6,33.8,332.9,38z M336,56.2c0-13.2-9.3-20.8-19.3-20.8c-10,0-19.3,7.6-19.3,20.8c0,13.2,9.3,20.8,19.3,20.8
					C326.7,77,336,69.4,336,56.2z"/>
				<path class="st0" d="M316.6,44.9c4.9,0,7.3,4.5,7.3,11.3s-2.4,11.3-7.3,11.3c-4.9,0-7.3-4.4-7.3-11.3S311.8,44.9,316.6,44.9z
					 M319.9,56.2c0-2.2-0.3-7.3-3.3-7.3c-3,0-3.3,5.1-3.3,7.3c0,2.7,0.4,7.3,3.3,7.3C319.5,63.5,319.9,59,319.9,56.2z"/>
				<path class="st1" d="M316.6,35.4c10,0,19.3,7.6,19.3,20.8c0,13.2-9.3,20.8-19.3,20.8c-10,0-19.3-7.6-19.3-20.8
					C297.3,43,306.6,35.4,316.6,35.4z M323.9,56.2c0-6.9-2.4-11.3-7.3-11.3c-4.9,0-7.3,4.5-7.3,11.3s2.4,11.3,7.3,11.3
					C321.5,67.5,323.9,63.1,323.9,56.2z"/>
			</g>
		</g>
	</g>
	<g>
		<g id="XMLID_00000176757216029508794470000016515108916601576844_">
			<g>
				<path class="st0" d="M376.2,70.2l1.7,2.9l-2.5,2.2c-4.2,3.7-9.8,5.7-15.7,5.7c-13.9,0-23.6-10.2-23.6-24.8
					c0-16.3,12.4-24.8,24.7-24.8c5.4,0,10.1,1.8,14.2,5.2l2.8,2.4l-2.2,3l-5.6,7.6l-2.5,3.5l-3.3-2.8c-1.5-1.3-2.2-1.4-2.8-1.4
					c-4.8,0-5.3,5.1-5.3,7.3c0,3.6,1.5,7.3,4.9,7.3c1.7,0,3.5-1.1,4.7-2.1l3.6-2.8l2.3,3.9L376.2,70.2z M372.8,72.3l-4.6-7.7
					c-2.1,1.6-4.6,2.9-7.2,2.9c-5.1,0-8.9-4.4-8.9-11.3s3.6-11.3,9.3-11.3c1.9,0,3.5,0.7,5.4,2.3l5.6-7.6c-3-2.5-6.7-4.3-11.6-4.3
					c-11,0-20.7,7.6-20.7,20.8c0,13.2,8.5,20.8,19.6,20.8C364,77,368.9,75.7,372.8,72.3z"/>
				<path class="st1" d="M368.2,64.6l4.6,7.7c-3.9,3.4-8.8,4.7-13.1,4.7c-11.1,0-19.6-7.6-19.6-20.8c0-13.2,9.7-20.8,20.7-20.8
					c4.9,0,8.6,1.7,11.6,4.3l-5.6,7.6c-1.9-1.6-3.5-2.3-5.4-2.3c-5.7,0-9.3,4.5-9.3,11.3s3.8,11.3,8.9,11.3
					C363.6,67.5,366.1,66.2,368.2,64.6z"/>
			</g>
		</g>
	</g>
	<g>
		<g id="XMLID_00000075156699446719539930000008180295600206302654_">
			<g>
				<path class="st0" d="M424,32.4l-5.6,6.6l-12,14.1l13.4,20.8l4,6.2h-7.3h-12.7h-2.3l-1.1-2L394,67.4l-0.4,0.4v8.3v4h-4h-11.5h-4
					v-4V20v-4h4h11.5h4v4v21.1l5.8-7.2l1.2-1.5h1.9h12.8H424z M416.4,76.1l-14.9-23.3l13.9-16.4h-12.8l-12.6,15.8h-0.3V20h-11.5v56
					h11.5v-9.8l5-5.7l8.9,15.5H416.4z"/>
				<polygon class="st1" points="401.4,52.7 416.4,76.1 403.6,76.1 394.7,60.6 389.7,66.3 389.7,76.1 378.2,76.1 378.2,20 389.7,20 
					389.7,52.1 389.9,52.1 402.5,36.4 415.3,36.4 				"/>
			</g>
		</g>
	</g>
	<g>
		<g id="XMLID_00000008835149453377449400000009963254185112571800_">
			<g>
				<path class="st0" d="M455.5,54.5c0,2.5-0.3,4.9-0.6,6.1l-0.7,3.1H451h-1.3l3.8,7l1.7,3.2l-3,2.1c-4.7,3.2-10.8,5.2-16.4,5.2
					c-14.2,0-24.1-10.2-24.1-24.8c0-15.5,11.6-24.8,22.7-24.8C447.3,31.4,455.5,40.5,455.5,54.5z M451,59.7c0.2-1,0.5-3.1,0.5-5.2
					c0-10.8-5.6-19.1-16.9-19.1c-9.5,0-18.7,8-18.7,20.8c0,13.1,8.8,20.8,20.1,20.8c4.7,0,10-1.7,14.1-4.5l-3.9-7.1
					c-2.9,1.7-5.6,2.6-8.6,2.6c-5.3,0-9.2-2.6-10.3-8.4H451z M440.4,63.7h-5.6c0.8,0.3,1.7,0.4,2.8,0.4
					C438.5,64.1,439.4,63.9,440.4,63.7z"/>
				<path class="st0" d="M441.4,51.9h-14.3c0.8-5,4-7.5,7.7-7.5C439.5,44.4,441.4,47.5,441.4,51.9z"/>
				<path class="st1" d="M451.5,54.5c0,2.1-0.3,4.2-0.5,5.2h-23.8c1.1,5.8,5,8.4,10.3,8.4c3,0,5.7-0.9,8.6-2.6l3.9,7.1
					c-4.1,2.8-9.4,4.5-14.1,4.5c-11.3,0-20.1-7.7-20.1-20.8c0-12.9,9.2-20.8,18.7-20.8C445.9,35.4,451.5,43.6,451.5,54.5z
					 M427.1,51.9h14.3c0-4.4-1.9-7.5-6.6-7.5C431.1,44.4,427.9,46.9,427.1,51.9z"/>
			</g>
		</g>
	</g>
	<g>
		<g id="XMLID_00000093141861716484553360000010164623185417932968_">
			<g>
				<path class="st0" d="M481.3,75.6l-1.9-8.5c-1.1,0.4-2.5,0.8-3.8,0.8c-3.1,0-5.1-1.8-5.1-6.3V45.6h9.5v-9.2h-9.5V25.8h-9.7
					l-1.4,10.5l-6.1,0.4v8.8h5.4v16c0,9.2,3.9,15.4,13.7,15.4C476.3,77,479.2,76.3,481.3,75.6z"/>
				<path class="st1" d="M479.5,67l1.9,8.5c-2.1,0.7-5,1.4-8.8,1.4c-9.8,0-13.7-6.2-13.7-15.4v-16h-5.4v-8.8l6.1-0.4l1.4-10.5h9.7
					v10.5h9.5v9.2h-9.5v15.9c0,4.5,2,6.3,5.1,6.3C477,67.8,478.4,67.4,479.5,67z"/>
			</g>
		</g>
	</g>
</g>
</svg>
