<?xml version="1.0" encoding="UTF-8"?><svg id="b" xmlns="http://www.w3.org/2000/svg" viewBox="0 0 848.8 196.2"><defs><style>.p{fill:#fff;}.q{fill:#0078d4;}</style></defs><g id="c"><g id="d"><g id="e"><polygon class="q" points="307.1 156 287.2 80.3 267.1 156 239.3 156 207.1 40.3 234.1 40.3 253.8 118.8 275.4 40.3 300.9 40.3 321 118.6 339.6 40.3 365.8 40.3 334.4 156 307.1 156"/><path class="p" d="M361.9,43.3l-29.7,109.7h-22.7l-22.2-84.4-22.4,84.4h-23.2l-30.5-109.7h20.6l22,87.3,24-87.3h20.8l22.6,87.8,20.9-87.8h19.9m7.8-6h-32.5l-1.1,4.6-15.3,64.2-16.5-64.3-1.2-4.5h-30.1l-1.2,4.4-18,65.3-16.4-65.2-1.1-4.5h-33.2l2.1,7.6,30.5,109.7,1.2,4.4h32.4l1.2-4.5,16.6-62.4,16.4,62.4,1.2,4.5h32l1.2-4.4,29.7-109.7,2.1-7.6h0Z"/></g><g id="f"><path class="q" d="M367.5,156V70.9h24.4v85h-24.4Zm12.5-91.3c-3.8,0-7.1-1.3-9.8-3.8-2.8-2.6-4.2-5.8-4.2-9.6s1.4-7.1,4.1-9.7c2.8-2.6,6.1-3.9,9.9-3.9s7.3,1.3,10,4c2.7,2.6,4.1,5.9,4.1,9.6s-1.4,7.1-4.3,9.6c-2.7,2.5-6,3.7-9.8,3.7Z"/><path class="p" d="M379.9,40.7c3.2,0,5.8,1,7.9,3.1,2.1,2.1,3.2,4.6,3.2,7.5h0c0,3-1.1,5.4-3.3,7.4-2.1,2-4.7,3-7.8,3s-5.7-1-7.8-3c-2.1-2-3.2-4.4-3.2-7.4s1.1-5.5,3.2-7.6c2.2-2,4.8-3,7.8-3m8.9,33.2v79h-18.4V73.9h18.4m-8.9-39.2c-4.5,0-8.6,1.6-11.9,4.6h0s0,0,0,0c-3.3,3.2-5.1,7.3-5.1,11.9s1.8,8.7,5.1,11.8c3.2,3,7.3,4.6,11.9,4.6s8.6-1.6,11.9-4.5c3.4-3.1,5.2-7.2,5.2-11.8,0-4.5-1.7-8.6-5-11.8-3.2-3.2-7.4-4.9-12.1-4.9h0Zm14.9,33.2h-30.4v91h30.4V67.9h0Z"/></g><g id="g"><path class="q" d="M456.8,109c0-18.5-9.2-18.5-12.2-18.5-9.9,0-15.9,9.1-15.9,17.9v47.6h-24V70.9h24v6.3c5.7-5.2,13.3-7.7,23.2-7.7s17,2.7,21.9,8.5c5,5.8,7.5,14.5,7.5,26.6v51.2h-24.5s0-47,0-47Z"/><path class="p" d="M452,72.6c8.5,0,15,2.1,19.7,7.5,4.7,5.4,6.7,13.6,6.7,24.7v48.2h-18.5s0-44,0-44c0-11.5-3.6-21.5-15.2-21.5s-18.9,10.4-18.9,20.9v44.6h-18V73.9h18v11.2h.3c6-9.3,14.6-12.5,25.9-12.5m0-6c-8.1,0-14.8,1.5-20.2,4.7v-3.4h-30v91h30v-50.6c0-7.3,4.8-14.9,12.9-14.9s9.2,0,9.2,15.5v50h6s18.5,0,18.5,0h6v-54.2c0-12.9-2.7-22.2-8.2-28.6-5.5-6.4-13.4-9.6-24.2-9.6h0Z"/></g><g id="h"><path class="q" d="M524.5,157.6c-22.6,0-36.1-15.6-36.1-41.8s3.6-25.3,10.6-33.8c7-8.5,16.5-12.6,29-12.6s15.6,2.7,19.3,5.5V33.4h24.7v122.6h-24.7v-5.5c-7.7,6.3-18,7.2-22.9,7.2Zm6.9-67.1c-15.9,0-17.6,17.3-17.6,24.8s1.6,21.7,16.6,21.9c12.4,0,17-12.6,17.1-21.1v-8.2c0-7-4.3-17.4-16.1-17.4Z"/><path class="p" d="M569,36.4v116.6h-18.7v-10.2h-.3c-5.7,9.6-17.4,11.8-25.5,11.8-24.2,0-33.1-18.8-33.1-38.8s3.3-23.9,9.9-31.8c6.7-8,15.6-11.5,26.7-11.5,17.3,0,22,9.6,22,9.6h.3V36.4h18.7m-38.7,103.8c13.8,0,20-13.2,20.1-24.1v-8.2c0-9.5-6.1-20.4-19.1-20.4s-20.6,12.9-20.6,27.8,5.4,24.7,19.5,24.9m44.7-109.8h-30.7v39.4c-4-1.9-9.4-3.3-16.3-3.3-13.4,0-23.7,4.5-31.3,13.6-7.5,9-11.3,21-11.3,35.7,0,27.6,15,44.8,39.1,44.8s14.4-1.6,19.9-4.6v2.9h6s18.7,0,18.7,0h6s0-6,0-6V30.4h0Zm-44.6,103.8c-11.8-.2-13.6-11.9-13.6-18.9s1.9-21.8,14.6-21.8,13.1,9.4,13.1,14.4v8.2c0,6.3-3.1,18.1-14.1,18.1h0Z"/></g><g id="i"><path class="q" d="M622.4,158.3c-27.2,0-43.4-16.3-43.4-43.5s17-45.6,45.4-45.6,42,16.8,42,43.9-16.8,45.2-43.9,45.2Zm.9-67.3c-16.5,0-19,14.5-19,23.2s2.4,22.6,18.8,22.6,17.8-7.8,17.9-23.1c0-10.3-3.1-22.7-17.8-22.7Z"/><path class="p" d="M624.4,72.2c23.8,0,39,15.2,39,40.9h0c0,27.4-16.4,42.2-40.9,42.2s-40.4-16-40.4-40.5,16.4-42.6,42.4-42.6m-1.1,67.6c15.5,0,20.8-11.9,20.9-26.1h0c0-12.2-4.3-25.7-20.8-25.7s-22,11.8-22,26.2,7.4,25.6,21.8,25.6m1.1-73.6c-30.3,0-48.4,18.2-48.4,48.6s4.1,25.5,11.9,33.6c8.1,8.4,20,12.9,34.6,12.9,29,0,46.9-18.5,46.9-48.2s-4.2-25.9-12.3-34.2c-8-8.3-19.3-12.6-32.7-12.6h0Zm-1.1,67.6c-10.5,0-15.8-6.6-15.8-19.6s5.4-20.2,16-20.2,14.8,0,14.8,19.7c-.2,20.1-10.9,20.1-14.9,20.1h0Z"/></g><g id="j"><polygon class="q" points="739.6 156 726.3 106.8 712 156 687.7 156 663 71.2 688.6 71.2 701.5 123.7 716.6 71.2 739.3 71.2 752.5 122.8 764.9 71.2 788.9 71.2 764.5 156 739.6 156"/><path class="p" d="M784.9,74.2l-22.6,78.8h-20.3l-15.5-57.2-16.7,57.2h-19.7l-23-78.8h19.3l15,61.2,17.6-61.2h18.1l15.7,61.1,14.6-61.1h17.7m8-6h-30.4l-1.1,4.6-9,37.5-9.6-37.6-1.2-4.5h-27.3l-1.2,4.3-11.3,39.5-9.6-39.3-1.1-4.6h-32l2.2,7.7,23,78.8,1.3,4.3h28.7l1.3-4.3,10.7-36.8,10,36.7,1.2,4.4h29.4l1.2-4.3,22.6-78.8,2.2-7.7h0Z"/></g><g id="k"><path class="q" d="M810.9,158.4c-10.9,0-21.4-4-21.9-4.2l-1.9-.7v-27.4l5,4.3c0,0,8.4,7.1,19.7,7.2,9.5,0,9.5-3.4,9.5-4.9v-.2c.1-2.3-.9-3.8-3.8-5.4-2-1.2-5.2-2.7-9.4-4.4-5.6-2.4-9.6-4.6-12.4-6.9-2.9-2.4-5-5.2-6.5-8.4-1.6-3.8-2.3-7.2-2.3-10.9,0-16.3,13.6-27.3,33.8-27.3s18.8,3.1,19.4,3.5l1.5,.9v25.3l-4.7-3.3c0,0-8.3-5.6-16.5-5.7-3.2,0-8.6,.6-8.7,4.9,0,4.9,7.3,7.9,11.7,9.7h.1c8.3,3.4,14,6.9,17.2,10.8,3.6,4.4,5.1,8.9,5.1,15.6s-3.9,16.5-11.3,21.3c-6,3.9-14.4,6.1-23.6,6.1Z"/><path class="p" d="M820.6,72.3c12.5,0,17.9,3.1,17.9,3.1v17.8s-8.9-6.2-18.1-6.2c-6.6,0-11.6,2.4-11.7,7.9,0,7,8.6,10.5,13.7,12.5,7.5,3,13,6.2,16,9.9,3.1,3.7,4.4,7.4,4.4,13.7h0c0,17.6-16,24.5-32,24.5s-20.8-4-20.8-4v-18.7s9,7.9,21.6,8c8.6,0,12.5-2.7,12.5-7.9,.2-4.2-2.3-6.5-5.3-8.2-2.1-1.2-5.3-2.8-9.8-4.6-5.2-2.2-9.1-4.4-11.6-6.5-2.5-2.1-4.4-4.5-5.6-7.3-1.2-2.8-2.1-5.9-2.1-9.6,0-14.2,11.9-24.3,30.8-24.3m0-6c-10.6,0-19.7,2.8-26.3,8.1-6.8,5.5-10.5,13.3-10.5,22.1s.8,7.9,2.6,12h0s0,0,0,0c1.6,3.6,4.1,6.8,7.3,9.5h0s0,0,0,0c3,2.5,7.3,4.9,13.1,7.3h0s0,0,0,0c5.1,2.1,7.7,3.5,9,4.2h0s0,0,0,0c2.4,1.4,2.4,2,2.3,2.6v.2s0,.2,0,.2c0,.5,0,.7,0,.7-.2,.3-1.8,1.2-6.4,1.2-10.1,0-17.6-6.4-17.7-6.5l-9.9-8.7v13.2s0,18.7,0,18.7v4.1l3.8,1.5c.5,.2,11.6,4.4,23,4.4,23.1,0,38-12,38-30.5,0-7.5-1.7-12.6-5.8-17.5-3.6-4.4-9.5-8.1-18.4-11.7h-.1c-3.2-1.3-9.8-4-9.8-6.9,0-.5,0-.7,.6-.9,.5-.3,2-1,5.2-1,7.2,0,14.7,5.1,14.7,5.2l9.4,6.4v-11.4s0-17.8,0-17.8v-3.5l-3-1.7c-.7-.4-7.2-3.8-20.9-3.8h0Z"/></g><g id="l"><rect class="q" x="3" y="3" width="93.3" height="93.3"/><path class="p" d="M93.3,6V93.3H6V6H93.3m6-6H0V99.3H99.3V0h0Z"/></g><g id="m"><rect class="q" x="99.9" y="3" width="93.3" height="93.3"/><path class="p" d="M190.2,6V93.3H102.9V6h87.3m6-6H96.9V99.3h99.3V0h0Z"/></g><g id="n"><rect class="q" x="3" y="99.9" width="93.3" height="93.3"/><path class="p" d="M93.3,102.9v87.3H6V102.9H93.3m6-6H0v99.3H99.3V96.9h0Z"/></g><g id="o"><rect class="q" x="99.9" y="99.9" width="93.3" height="93.3"/><path class="p" d="M190.2,102.9v87.3H102.9V102.9h87.3m6-6H96.9v99.3h99.3V96.9h0Z"/></g></g></g></svg>