<?xml version="1.0" encoding="utf-8"?>
<!-- Generator: Adobe Illustrator 26.5.3, SVG Export Plug-In . SVG Version: 6.00 Build 0)  -->
<svg version="1.1"
	 id="svg548" xmlns:svg="http://www.w3.org/2000/svg" xmlns:inkscape="http://www.inkscape.org/namespaces/inkscape" xmlns:sodipodi="http://sodipodi.sourceforge.net/DTD/sodipodi-0.dtd" xmlns:rdf="http://www.w3.org/1999/02/22-rdf-syntax-ns#" xmlns:dc="http://purl.org/dc/elements/1.1/" xmlns:cc="http://web.resource.org/cc/" inkscape:export-filename="/home/gerald/devel/wsweb/wslogotrans800.png" inkscape:export-xdpi="181.64000" inkscape:export-ydpi="181.64000" inkscape:version="0.44.1" sodipodi:docbase="D:\dokumenty\kot" sodipodi:docname="Wireshark_Logo.svg" sodipodi:version="0.32"
	 xmlns="http://www.w3.org/2000/svg" xmlns:xlink="http://www.w3.org/1999/xlink" x="0px" y="0px" viewBox="0 0 373.4 108.6"
	 style="enable-background:new 0 0 373.4 108.6;" xml:space="preserve">
<style type="text/css">
	.st0{fill:none;stroke:#000000;stroke-width:4.2972;stroke-linejoin:round;}
</style>
<sodipodi:namedview  height="109.6px" id="base" inkscape:current-layer="svg548" inkscape:cx="199.13001" inkscape:cy="54.799999" inkscape:guide-bbox="true" inkscape:window-height="682" inkscape:window-width="1024" inkscape:window-x="-4" inkscape:window-y="-4" inkscape:zoom="2.3637177" showgrid="true" showguides="true" width="398.26px">
	</sodipodi:namedview>
<path id="text555" d="M11.5,107.7L0,59.4h5.9l6.6,31.7c0.7,3.3,1.3,6.6,1.8,9.9c1.1-5.2,1.8-8.1,2-8.9l8.3-32.6h6.9l6.2,24.5
	c1.6,6.1,2.7,11.8,3.4,17.1c0.6-3.1,1.3-6.6,2.2-10.5l6.8-31.1h5.8l-11.9,48.3h-5.5l-9.2-36.8c-0.8-3.1-1.2-5-1.4-5.7
	c-0.5,2.2-0.9,4.1-1.3,5.7l-9.2,36.8H11.5z M62.1,107.7V59.4h5.7v48.3H62.1z M78.1,107.7V59.4h19.3c3.9,0,6.8,0.4,8.8,1.3
	c2,0.9,3.6,2.4,4.8,4.6c1.2,2.2,1.8,4.6,1.8,7.3c0,3.4-1,6.3-3,8.7c-2,2.4-5.1,3.8-9.2,4.5c1.5,0.8,2.7,1.6,3.5,2.4
	c1.7,1.7,3.3,3.9,4.8,6.4l7.6,13.2h-7.2l-5.7-10.1c-1.7-2.9-3.1-5.1-4.1-6.7c-1.1-1.5-2.1-2.6-2.9-3.2c-0.9-0.6-1.7-1-2.6-1.3
	c-0.7-0.2-1.7-0.2-3.2-0.2h-6.7v21.5H78.1z M83.8,80.7h12.4c2.6,0,4.7-0.3,6.2-0.9c1.5-0.6,2.6-1.6,3.4-2.9c0.8-1.3,1.2-2.8,1.2-4.3
	c0-2.3-0.7-4.2-2.2-5.6c-1.5-1.5-3.8-2.2-7.1-2.2H83.8V80.7z M122,107.7V59.4h31.4v5.7h-25.7v14.8h24v5.7h-24V102h26.7v5.7H122z
	 M159.9,92l8.5-0.9c0.5,3.2,1.6,5.5,3.1,7c1.6,1.5,3.7,2.2,6.4,2.2c2.8,0,5-0.7,6.4-2c1.4-1.3,2.1-2.9,2.1-4.7
	c0-1.1-0.3-2.1-0.9-2.9c-0.6-0.8-1.7-1.5-3.2-2.1c-1-0.4-3.4-1.1-7-2.1c-4.7-1.3-8-2.9-9.9-4.8c-2.7-2.7-4-5.9-4-9.7
	c0-2.5,0.6-4.8,1.9-6.9c1.3-2.1,3.1-3.8,5.4-4.9c2.4-1.1,5.2-1.7,8.5-1.7c5.5,0,9.6,1.3,12.3,4c2.8,2.7,4.2,6.2,4.3,10.6l-8.8,0.4
	c-0.4-2.5-1.2-4.3-2.4-5.4c-1.2-1.1-3.1-1.6-5.6-1.6c-2.5,0-4.5,0.6-6,1.7c-0.9,0.7-1.4,1.7-1.4,3c0,1.1,0.4,2.1,1.3,2.9
	c1.1,1,3.8,2.1,8.1,3.2c4.3,1.1,7.4,2.3,9.5,3.5c2,1.2,3.6,2.8,4.8,4.9c1.2,2.1,1.7,4.6,1.7,7.7c0,2.8-0.7,5.4-2.1,7.8
	c-1.4,2.4-3.3,4.2-5.9,5.4c-2.5,1.2-5.7,1.8-9.4,1.8c-5.5,0-9.7-1.4-12.6-4.2C162.2,101.5,160.4,97.4,159.9,92L159.9,92z
	 M202.6,107.7V59.4h8.8v19h17.2v-19h8.8v48.3h-8.8V86.6h-17.2v21.1H202.6z M285.6,107.7h-9.5l-3.8-11h-17.4l-3.6,11H242L259,59.4
	h9.3L285.6,107.7z M269.5,88.6l-6-17.9l-5.9,17.9H269.5z M290.3,107.7V59.4h18.5c4.6,0,8,0.4,10.1,1.3c2.1,0.9,3.8,2.4,5.1,4.6
	c1.3,2.2,1.9,4.8,1.9,7.6c0,3.6-1,6.6-2.9,9c-1.9,2.4-4.8,3.9-8.6,4.5c1.9,1.2,3.5,2.6,4.7,4.1c1.2,1.5,2.9,4.1,5,7.8l5.3,9.4h-10.5
	l-6.3-10.5c-2.3-3.8-3.8-6.1-4.6-7.1c-0.8-1-1.7-1.6-2.6-2c-0.9-0.4-2.4-0.5-4.4-0.5h-1.8v20.2H290.3z M299.1,79.9h6.5
	c4.2,0,6.8-0.2,7.9-0.6c1-0.4,1.9-1.1,2.5-2c0.6-1,0.9-2.2,0.9-3.6c0-1.6-0.4-2.9-1.2-3.9c-0.8-1-1.9-1.6-3.3-1.9
	c-0.7-0.1-2.8-0.2-6.4-0.2h-6.8V79.9z M334.3,107.7V59.4h8.8v21.5l17.7-21.5h11.8l-16.4,18.8l17.2,29.5h-11.3l-11.9-22.7l-7.1,8.1
	v14.6H334.3z"/>
<path id="path1328" inkscape:export-filename="/home/gerald/devel/wsweb/image/wslogo.png" inkscape:export-xdpi="90.000000" inkscape:export-ydpi="90.000000" sodipodi:nodetypes="ccccc" class="st0" d="
	M0.6,50.6h148.9c0,0,3.9-47.8,43.8-48.4c-12.9,21.2-0.8,48.5-0.8,48.5h180.9"/>
</svg>
