<?xml version="1.0" encoding="utf-8"?>
<!-- Generator: Adobe Illustrator 26.5.3, SVG Export Plug-In . SVG Version: 6.00 Build 0)  -->
<svg version="1.1" id="레이어_1" xmlns:sketch="http://www.bohemiancoding.com/sketch/ns"
	 xmlns="http://www.w3.org/2000/svg" xmlns:xlink="http://www.w3.org/1999/xlink" x="0px" y="0px" viewBox="0 0 372.8 91"
	 style="enable-background:new 0 0 372.8 91;" xml:space="preserve">
<style type="text/css">
	.st0{fill:#FFFFFF;}
	.st1{fill:#3498DB;}
</style>
<g id="xamarin-logo" sketch:type="MSArtboardGroup">
	<g id="XMLID_00000182526099696541488390000012744727678856524968_">
		<g>
			<path class="st0" d="M72.8,67.6c0.3,0.6-0.2,1.5-0.8,1.4h-7.4c-0.3,0-0.7-0.2-0.8-0.5L51.1,46C51,45.8,51,45.7,51,45.6v-0.2
				c0-0.1,0-0.2,0.1-0.4l12.6-22.6c0.2-0.3,0.5-0.5,0.8-0.5H72c0.7,0,1.2,0.8,0.8,1.4L60.5,45.5L72.8,67.6z"/>
			<path class="st0" d="M50.9,45c0.1,0.1,0.1,0.2,0.1,0.4v0.2c0,0.1-0.1,0.2-0.1,0.4L38.2,68.5c-0.2,0.3-0.5,0.5-0.8,0.5H30
				c-0.7,0-1.2-0.9-0.8-1.4l12.3-22.1L29.2,23.4c-0.3-0.5,0.1-1.3,0.7-1.4c0.1,0,0.1,0,0.2,0h7.4c0.3,0,0.7,0.2,0.8,0.5L50.9,45z"/>
			<g>
				<path class="st1" d="M359.2,72.7V48.6c0-8.7-3.7-9.7-6.5-9.7c-2.3,0-4.1,0.9-5.7,2.6c-1.6,1.8-2.3,4-2.3,6.8v24.4h-12.1V29.5
					h12.1v3.7c3-3.1,6.9-4.7,11.7-4.7c6.8,0,14.9,3.1,14.9,18v26.2H359.2z"/>
				<path class="st0" d="M356.4,30c9,0,13.4,5.5,13.4,16.5v24.7h-9.1V48.6c0-7.5-2.7-11.2-8.1-11.2c-2.7,0-5,1-6.8,3.1
					c-1.8,2-2.7,4.6-2.7,7.8v22.9h-9.1V31h9.1v6.5h0.2C346.3,32.5,350.6,30,356.4,30 M356.4,27c-3.9,0-7.3,1-10.2,2.9v-2h-3h-9.1h-3
					v3v40.3v3h3h9.1h3v-3V48.3c0-2.4,0.6-4.3,2-5.8c1.3-1.4,2.7-2.1,4.5-2.1c1.6,0,5.1,0,5.1,8.2v22.6v3h3h9.1h3v-3V46.5
					C372.8,29.5,362.5,27,356.4,27L356.4,27z"/>
			</g>
			<g>
				<rect x="315.9" y="29.5" class="st1" width="12.1" height="43.3"/>
				<path class="st0" d="M326.4,31v40.3h-9.1V31H326.4 M329.4,28h-3h-9.1h-3v3v40.3v3h3h9.1h3v-3V31V28L329.4,28z"/>
			</g>
			<g>
				<path class="st1" d="M322,23.5c-1.9,0-3.6-0.6-4.9-1.9c-1.4-1.3-2.1-3-2.1-4.8c0-1.9,0.7-3.6,2.1-4.9c1.4-1.3,3-2,5-2
					c2,0,3.7,0.7,5,2c1.4,1.3,2.1,2.9,2.1,4.8c0,1.9-0.7,3.5-2.1,4.8C325.6,22.8,324,23.5,322,23.5z"/>
				<path class="st0" d="M322,11.4c1.6,0,2.9,0.5,4,1.6c1.1,1,1.6,2.3,1.6,3.8c0,1.5-0.5,2.7-1.6,3.7c-1.1,1-2.4,1.5-4,1.5
					c-1.6,0-2.9-0.5-3.9-1.5c-1.1-1-1.6-2.3-1.6-3.7c0-1.5,0.5-2.8,1.6-3.8C319.2,11.9,320.5,11.4,322,11.4 M322,8.4
					c-2.3,0-4.4,0.8-6,2.4c-1.7,1.6-2.5,3.7-2.5,6c0,2.3,0.9,4.3,2.5,5.9l0,0l0,0c1.6,1.5,3.7,2.3,6,2.3c2.3,0,4.4-0.8,6-2.3
					c1.7-1.6,2.6-3.7,2.6-5.9c0-2.3-0.9-4.4-2.5-5.9C326.4,9.2,324.3,8.4,322,8.4L322,8.4z"/>
			</g>
			<g>
				<path class="st1" d="M288.3,72.7V29.5h12.1V33c2.2-2.8,5.2-4.2,8.9-4.2c1.8,0,3.2,0.2,4.3,0.7l0.9,0.4v12.7l-2.3-1.4
					c-1.2-0.8-2.7-1.2-4.5-1.2c-2.1,0-3.8,0.9-5.2,2.8c-1.4,2-2.2,4.6-2.2,7.9v22.1H288.3z"/>
				<path class="st0" d="M309.3,30.3c1.6,0,2.8,0.2,3.7,0.5v9c-1.5-0.9-3.2-1.4-5.3-1.4c-2.6,0-4.8,1.1-6.4,3.4
					c-1.6,2.2-2.4,5.2-2.4,8.8v20.6h-9.1V31h9.1v7.8h0.2C301,33.1,304.4,30.3,309.3,30.3 M309.3,27.3c-2.3,0-5,0.5-7.4,2.3V28h-3
					h-9.1h-3v3v40.3v3h3h9.1h3v-3V50.6c0-2.9,0.6-5.3,1.9-7c1.1-1.5,2.3-2.1,4-2.1c1.5,0,2.7,0.3,3.7,0.9l4.6,2.8v-5.4v-9v-2
					l-1.8-0.8C313,27.5,311.4,27.3,309.3,27.3L309.3,27.3z"/>
			</g>
			<g>
				<path class="st1" d="M261.6,73.7c-4.3,0-7.8-1.2-10.4-3.6c-2.6-2.5-3.9-5.8-3.9-9.8c0-6,2.5-13.4,14.5-14.8l10.4-1.4
					c-0.3-3.7-2.2-5.4-6.1-5.4c-4.5,0-8.7,1.4-12.5,4.2l-2.4,1.8V32.7l0.7-0.4c1.6-1,3.9-1.9,6.9-2.6c3-0.8,5.7-1.1,8.1-1.1
					c11.2,0,17,6,17,17.2v27h-12v-3C269.4,72.4,265.8,73.7,261.6,73.7z M265.3,54.3c-2.4,0.3-4,0.9-4.9,1.6
					c-0.7,0.7-1.1,1.8-1.1,3.4c0,1.3,0.4,2.2,1.3,3c0.9,0.8,2.2,1.2,3.8,1.2c2.3,0,4.1-0.8,5.6-2.3c1.5-1.6,2.2-3.5,2.2-5.9v-1.9
					L265.3,54.3z"/>
				<path class="st0" d="M267.1,30c10.4,0,15.6,5.2,15.6,15.7v25.5h-9v-5.5h-0.2c-2.8,4.3-6.8,6.5-11.9,6.5c-4,0-7.1-1.1-9.4-3.2
					c-2.3-2.2-3.4-5.1-3.4-8.7c0-7.8,4.4-12.3,13.1-13.3l11.7-1.6c0-5.5-2.5-8.2-7.6-8.2c-4.8,0-9.3,1.5-13.3,4.5v-8
					c1.5-0.9,3.7-1.7,6.5-2.5C262.1,30.3,264.7,30,267.1,30 M264.4,65c2.7,0,4.9-0.9,6.7-2.8c1.8-1.9,2.6-4.2,2.6-7v-3.6l-8.7,1.1
					c-2.7,0.4-4.6,1-5.7,2c-1.1,1-1.6,2.5-1.6,4.5c0,1.7,0.6,3.1,1.8,4.1C260.8,64.5,262.4,65,264.4,65 M267.1,27
					c-2.6,0-5.4,0.4-8.5,1.2c-3.2,0.8-5.6,1.7-7.3,2.8l-1.4,0.9v1.7v8v5.9l4.8-3.5c3.6-2.6,7.3-3.9,11.6-3.9c2.2,0,3.7,0.5,4.3,2.6
					l-8.9,1.2c-13,1.6-15.7,9.7-15.7,16.3c0,4.5,1.5,8.2,4.3,10.9c2.9,2.7,6.7,4.1,11.4,4.1c3.4,0,6.5-0.8,9-2.5v1.5h3h9h3v-3V45.7
					C285.6,33.6,279,27,267.1,27L267.1,27z M264.4,62c-1.3,0-2.2-0.3-2.9-0.9c-0.5-0.5-0.8-1-0.8-1.8c0-0.6,0.1-1.8,0.6-2.3
					c0.3-0.3,1.3-0.9,4.1-1.3l5.3-0.7v0.2c0,2-0.6,3.6-1.8,4.9C267.7,61.4,266.3,62,264.4,62L264.4,62z"/>
			</g>
			<g>
				<path class="st1" d="M232.9,72.7V48.5c0-3.4-0.5-6-1.5-7.5c-0.9-1.4-2.5-2.1-4.9-2.1c-1.9,0-3.5,0.9-4.8,2.7
					c-1.4,1.9-2.1,4.2-2.1,7v24.1h-12.1v-25c0-7.9-3.6-8.8-6.4-8.8c-2,0-3.6,0.8-4.9,2.5c-1.3,1.8-2,4.2-2,7.2v24.1H182V29.5h12.1
					V33c3-3,6.8-4.5,11.4-4.5c3,0,5.6,0.8,7.9,2.4c1.5,1,2.8,2.4,3.8,4c3.3-4.2,7.7-6.3,13.3-6.3c6.7,0,14.6,3.1,14.6,17.9v26.4
					H232.9z"/>
				<path class="st0" d="M230.4,30c8.8,0,13.1,5.5,13.1,16.4v24.9h-9.1V48.5c0-3.8-0.6-6.5-1.8-8.3c-1.1-1.8-3.2-2.8-6.2-2.8
					c-2.4,0-4.4,1.1-6,3.3c-1.6,2.2-2.4,4.8-2.4,7.9v22.6h-9.1V47.7c0-6.9-2.6-10.3-7.9-10.3c-2.5,0-4.5,1-6.1,3.1
					c-1.6,2.1-2.3,4.8-2.3,8.1v22.6h-9.1V31h9.1v6.2h0.1c2.9-4.8,7.2-7.2,12.7-7.2c2.7,0,5,0.7,7.1,2.1c2.1,1.4,3.5,3.3,4.4,5.8
					C219.9,32.6,224.4,30,230.4,30 M230.4,27c-5.3,0-9.7,1.9-13.1,5.4c-0.9-1.1-1.9-2-3.1-2.8c-2.5-1.7-5.5-2.6-8.7-2.6
					c-3.8,0-7.1,0.9-9.9,2.8V28h-3h-9.1h-3v3v40.3v3h3h9.1h3v-3V48.6c0-2.6,0.6-4.8,1.7-6.3c1-1.3,2.2-1.9,3.7-1.9
					c1.7,0,4.9,0,4.9,7.3v23.5v3h3h9.1h3v-3V48.6c0-2.5,0.6-4.5,1.8-6.1c1.4-1.9,2.6-2.1,3.6-2.1c2.8,0,3.5,1,3.7,1.3l0,0l0,0
					c0.6,0.9,1.3,2.8,1.3,6.7v22.7v3h3h9.1h3v-3V46.3C246.5,29.5,236.4,27,230.4,27L230.4,27z"/>
			</g>
			<g>
				<path class="st1" d="M155.5,73.7c-4.3,0-7.8-1.2-10.4-3.6c-2.6-2.5-3.9-5.8-3.9-9.8c0-6,2.5-13.4,14.5-14.8l10.4-1.4
					c-0.3-3.7-2.2-5.4-6.1-5.4c-4.5,0-8.7,1.4-12.4,4.2l-2.4,1.8V32.7l0.7-0.4c1.6-1,3.9-1.9,6.9-2.6c3-0.8,5.7-1.1,8.2-1.1
					c11.1,0,17,6,17,17.2v27h-11.9v-3C163.3,72.4,159.7,73.7,155.5,73.7z M159.2,54.3c-3,0.4-4.3,1.1-4.9,1.6
					c-0.7,0.7-1.1,1.8-1.1,3.4c0,1.2,0.4,2.2,1.3,3c0.9,0.8,2.2,1.2,3.8,1.2c2.3,0,4.1-0.8,5.6-2.3c1.5-1.6,2.2-3.5,2.2-5.9v-1.9
					L159.2,54.3z"/>
				<path class="st0" d="M161,30c10.4,0,15.5,5.2,15.5,15.7v25.5h-8.9v-5.5h-0.2c-2.8,4.3-6.8,6.5-11.9,6.5c-3.9,0-7.1-1.1-9.3-3.2
					c-2.3-2.2-3.4-5.1-3.4-8.7c0-7.8,4.4-12.3,13.2-13.3l11.7-1.6c0-5.5-2.5-8.2-7.6-8.2c-4.8,0-9.3,1.5-13.3,4.5v-8
					c1.5-0.9,3.7-1.7,6.5-2.5C156,30.3,158.6,30,161,30 M158.3,65c2.7,0,4.9-0.9,6.7-2.8s2.6-4.2,2.6-7v-3.6l-8.7,1.1
					c-2.7,0.4-4.6,1-5.7,2c-1.1,1-1.6,2.5-1.6,4.5c0,1.7,0.6,3.1,1.9,4.1C154.7,64.5,156.3,65,158.3,65 M161,27
					c-2.6,0-5.4,0.4-8.5,1.2c-3.2,0.8-5.6,1.8-7.3,2.8l-1.4,0.9v1.7v8v5.9l4.8-3.5c3.5-2.6,7.3-3.9,11.6-3.9c2.2,0,3.7,0.5,4.3,2.6
					l-8.9,1.2c-13,1.6-15.7,9.7-15.7,16.3c0,4.5,1.5,8.1,4.4,10.9c2.8,2.7,6.7,4.1,11.4,4.1c3.4,0,6.4-0.8,9.1-2.5v1.5h3h8.9h3v-3
					V45.7C179.5,33.6,172.9,27,161,27L161,27z M158.3,62c-1.3,0-2.2-0.3-2.9-0.9c-0.6-0.5-0.8-1-0.8-1.8c0-0.6,0.1-1.8,0.6-2.3
					c0.3-0.3,1.2-0.9,4.1-1.3l5.3-0.7v0.2c0,2-0.6,3.6-1.8,4.9C161.6,61.4,160.2,62,158.3,62L158.3,62z"/>
			</g>
			<g>
				<polygon class="st1" points="129.9,72.7 120.4,54.6 110.8,72.7 95.8,72.7 112.9,45.6 97.6,18.8 112.6,18.8 121.1,36.3 
					130.3,18.8 144.4,18.8 128.6,45.5 144.6,72.7 				"/>
				<path class="st0" d="M141.8,20.3l-14.9,25.2L142,71.2h-11.2l-10.3-19.8l-10.6,19.8H98.6l16.1-25.5l-14.5-25.4h11.5l9.4,19.3
					l10.2-19.3H141.8 M147,17.3h-5.3h-10.5h-1.8l-0.8,1.6l-7.4,14.1l-6.8-14l-0.8-1.7h-1.9h-11.5H95l2.6,4.5l13.6,23.8L96,69.6
					l-2.9,4.6h5.4h11.3h1.8l0.8-1.6l7.9-14.8l7.7,14.7l0.8,1.6h1.8H142h5.2l-2.7-4.5l-14.2-24.2l14-23.7L147,17.3L147,17.3z"/>
			</g>
			<path class="st1" d="M101,41.5c1.4,2.4,1.4,5.5,0,7.9L79.4,87c-1.4,2.4-4.1,4-6.8,4H29.4c-2.8,0-5.5-1.6-6.8-4L1,49.5
				c-1.4-2.4-1.4-5.5,0-7.9L22.6,4c1.4-2.4,4.1-4,6.8-4h43.1c2.8,0,5.4,1.6,6.8,4L101,41.5z M72,69c0.7,0,1.2-0.9,0.8-1.4L60.5,45.5
				l12.3-22.1c0.3-0.6-0.2-1.4-0.8-1.4h-7.4c-0.3,0-0.7,0.2-0.8,0.5L51.1,45C51,45.1,51,45.2,51,45.4c0-0.1-0.1-0.2-0.1-0.4
				L38.2,22.5c-0.2-0.3-0.5-0.5-0.8-0.5H30c-0.1,0-0.1,0-0.2,0c-0.6,0.1-1,0.9-0.7,1.4l12.3,22.1L29.2,67.6C28.8,68.2,29.3,69,30,69
				h7.4c0.3,0,0.7-0.2,0.8-0.5L50.9,46c0.1-0.1,0.1-0.2,0.1-0.4c0,0.1,0,0.2,0.1,0.4l12.6,22.6c0.2,0.3,0.5,0.5,0.8,0.5H72z"/>
		</g>
	</g>
</g>
</svg>
