<?xml version="1.0" encoding="utf-8"?>
<!-- Generator: Adobe Illustrator 26.5.3, SVG Export Plug-In . SVG Version: 6.00 Build 0)  -->
<svg version="1.1" id="Signature" xmlns="http://www.w3.org/2000/svg" xmlns:xlink="http://www.w3.org/1999/xlink" x="0px" y="0px"
	 viewBox="0 0 540 140" enable-background="new 0 0 540 140" xml:space="preserve">
<rect fill="#FFFFFF" width="540" height="140"/>
<g>
	<path fill="#1B2E67" d="M110.5,70.4h30.8v9.4H98.7V11.9h11.8V70.4z"/>
	<path fill="#1B2E67" d="M213.3,51H186v28.8h-11.8V11.9h43.1v9.5H186v20.2h27.3V51z"/>
	<path fill="#1B2E67" d="M225.6,16.2c0-1.7,0.6-3.2,1.7-4.3c1.1-1.2,2.7-1.7,4.7-1.7c2.1,0,3.6,0.6,4.8,1.7c1.1,1.2,1.7,2.6,1.7,4.3
		c0,1.7-0.6,3.1-1.7,4.3c-1.1,1.1-2.7,1.7-4.8,1.7c-2.1,0-3.6-0.6-4.7-1.7C226.1,19.4,225.6,17.9,225.6,16.2z M237.6,79.8h-11.3
		V29.3h11.3V79.8z"/>
	<path fill="#1B2E67" d="M260.4,29.3l0.3,5.8c1.8-2.1,3.9-3.8,6.4-5c2.5-1.2,5.3-1.8,8.3-1.8c2.4,0,4.6,0.3,6.6,1
		c2,0.7,3.7,1.7,5.1,3.2c1.4,1.5,2.5,3.4,3.2,5.8c0.8,2.4,1.1,5.3,1.1,8.7v32.6h-11.3V47.1c0-1.7-0.2-3.2-0.6-4.4
		c-0.4-1.2-1-2.2-1.7-2.9c-0.7-0.7-1.7-1.3-2.8-1.6c-1.1-0.3-2.4-0.5-3.8-0.5c-2.3,0-4.4,0.6-6.1,1.7c-1.7,1.1-3.1,2.6-4.1,4.5v35.9
		h-11.3V29.3H260.4z"/>
</g>
<g>
	<g>
		<rect x="9.9" y="10.5" fill="#1B2E67" width="70" height="69.7"/>
	</g>
	<g>
		<path fill="#FFFFFF" d="M17.8,47.4h9.6v2.2H15.1V29.4h2.7V47.4z"/>
		<path fill="#FFFFFF" d="M26.3,65.7h-8.5v8.9h-2.7V54.4h12.5v2.2h-9.8v6.9h8.5V65.7z"/>
		<path fill="#FFFFFF" d="M30.5,55.6c0-0.4,0.1-0.8,0.4-1.1c0.3-0.3,0.6-0.4,1.1-0.4c0.5,0,0.9,0.1,1.1,0.4c0.3,0.3,0.4,0.6,0.4,1.1
			c0,0.4-0.1,0.8-0.4,1C32.9,56.9,32.5,57,32,57c-0.5,0-0.9-0.1-1.1-0.4C30.6,56.4,30.5,56,30.5,55.6z M33.2,74.6h-2.6v-15h2.6V74.6
			z"/>
		<path fill="#FFFFFF" d="M39.8,59.6l0.1,1.9c0.5-0.7,1.2-1.2,1.9-1.6c0.8-0.4,1.6-0.6,2.6-0.6c0.7,0,1.4,0.1,2,0.3
			c0.6,0.2,1.1,0.5,1.5,1c0.4,0.4,0.7,1,1,1.7c0.2,0.7,0.3,1.5,0.3,2.5v9.8h-2.6v-9.9c0-0.6-0.1-1.1-0.2-1.5c-0.1-0.4-0.3-0.7-0.6-1
			c-0.3-0.3-0.6-0.4-0.9-0.6c-0.4-0.1-0.8-0.2-1.3-0.2c-0.8,0-1.6,0.2-2.2,0.7c-0.6,0.4-1.1,1-1.5,1.7v10.7h-2.6v-15H39.8z"/>
	</g>
</g>
<g>
	<path fill="#1B2E67" d="M62,116.1H46.3v13.7h-4.5v-13.7H26.3v-3.6h35.7L62,116.1z M28.3,106c7.5-1,13.1-5.3,13.3-9.9h-12v-3.6h29.1
		v3.6H46.8c0.3,4.6,5.8,8.9,13.3,9.9l-1.6,3.5c-6.5-1-11.9-4.2-14.3-8.6c-2.4,4.4-7.7,7.6-14.3,8.6L28.3,106z"/>
	<path fill="#1B2E67" d="M88.3,111.7c-4.5-1.6-7.8-4.7-9.6-8.6c-1.8,4.3-5.2,7.7-9.8,9.3l-2.2-3.5c6.2-2.1,9.7-7.5,9.7-13V92H81v3.8
		c0,5.3,3.5,10.3,9.6,12.3L88.3,111.7z M72.5,115.8h26.6v14h-4.5v-10.3H72.5V115.8z M99.1,90.2v23.7h-4.5V90.2H99.1z"/>
	<path fill="#1B2E67" d="M122,118.7c3.5-0.2,7.1-0.4,10.5-0.9l0.3,3.3c-8.7,1.5-18.1,1.6-25.2,1.6l-0.6-3.7c3.2,0,6.8,0,10.5-0.1
		V115c-4.5-0.7-7.4-3.4-7.4-7.2c0-4.4,3.9-7.3,9.7-7.3c5.7,0,9.6,2.9,9.6,7.3c0,3.8-2.9,6.5-7.4,7.2V118.7z M131.7,98.5h-23.9v-3.6
		h9.7v-4.5h4.5v4.5h9.7V98.5z M119.8,111.7c3.1,0,5.3-1.5,5.3-3.9c0-2.4-2.2-3.9-5.3-3.9c-3.2,0-5.4,1.5-5.4,3.9
		C114.4,110.2,116.6,111.7,119.8,111.7z M139.3,90.2v39.5h-4.5V90.2H139.3z"/>
	<path fill="#1B2E67" d="M160.8,100c0,7,3.7,14.2,9.6,17.1l-2.8,3.6c-4.2-2.2-7.4-6.5-9.1-11.6c-1.7,5.5-5,10.1-9.5,12.4l-2.8-3.6
		c6.2-3,10-10.5,10-17.8v-6.5h4.5V100z M183.8,109.6h-6.2v20.1h-4.5V90.2h4.5v15.7h6.2V109.6z"/>
	<path fill="#1B2E67" d="M217.6,102.5c-0.7,4.2-4.2,7-8.9,7c-5.3,0-9-3.6-9-8.8c0-5.1,3.7-8.7,9-8.7c4.6,0,8.1,2.7,8.9,6.8h3.5V91
		h4.2v19.4H221v-7.9H217.6z M208.7,106c2.9,0,5-2.1,5-5.3c0-3.1-2.1-5.1-5-5.1c-2.8,0-4.9,2.1-4.9,5.1
		C203.8,103.9,205.9,106,208.7,106z M234.3,125.7v3.6h-27.7v-10.3h21.8v-3.1h-21.9v-3.5h26.4v10h-21.8v3.4H234.3z M232.9,110.6h-4.3
		V90.3h4.3V110.6z"/>
	<path fill="#1B2E67" d="M264.7,112.3c-7.9,1.2-17,1.4-23.8,1.4l-0.5-3.7c1.4,0,3,0,4.6,0V97.4h-3.6v-3.7h21.2v3.7h-3.5v12.1
		c1.8-0.1,3.5-0.3,5.3-0.5L264.7,112.3z M273.2,125.3v3.7h-26.9v-12.3h4.5v8.6H273.2z M249.3,109.9c1.8,0,3.6-0.1,5.4-0.2V97.4h-5.4
		V109.9z M272.3,119.3h-4.5V90.2h4.5V119.3z"/>
</g>
<rect x="306.6" y="7" fill="#1B2E67" width="6" height="126"/>
<g>
	<rect x="312.6" y="95.4" fill="none" width="227.4" height="28.4"/>
	<path fill="#1B2E67" d="M334.1,119.4c-0.2,0-0.3,0-0.3-0.1c0,0-0.1-0.1-0.1-0.3v-1.2c-0.3,0.5-0.8,0.9-1.6,1.3
		c-0.7,0.4-1.4,0.5-2.1,0.5c-0.8,0-1.5-0.1-2.2-0.3c-0.7-0.2-1.3-0.6-1.8-1c-0.5-0.5-0.8-1-1.1-1.7c-0.3-0.6-0.4-1.4-0.4-2.2
		c0-1,0.2-1.8,0.7-2.6c0.5-0.8,1.1-1.4,1.9-1.8c0.8-0.4,1.7-0.8,2.8-1c1.1-0.2,2.2-0.3,3.5-0.2c-0.1-1.5-0.7-2.3-1.9-2.4
		c-0.4,0-0.8,0-1.1,0c-0.4,0.1-0.8,0.1-1.1,0.3c-0.4,0.1-0.7,0.3-1,0.4c-0.3,0.2-0.6,0.3-0.9,0.5c-0.4,0.3-0.7,0.4-0.8,0.4
		s-0.3-0.2-0.3-0.6v-2.3c0-0.2,0-0.4,0.1-0.5c0-0.1,0.2-0.2,0.4-0.3c0.6-0.3,1.2-0.5,2-0.8s1.6-0.4,2.7-0.4c1.9,0,3.3,0.5,4.3,1.5
		s1.4,2.5,1.4,4.5v6.4c0,0.2,0,0.5,0,0.8c0,0.3,0,0.6,0,0.9s0,0.6,0,0.9c0,0.3,0,0.5,0,0.7c0,0.4,0,0.6-0.1,0.6
		c-0.1,0-0.2,0.1-0.4,0.1H334.1z M333.7,111.6c-1.1,0-1.9,0.1-2.6,0.2c-0.7,0.1-1.2,0.3-1.7,0.6c-0.4,0.2-0.7,0.5-0.9,0.9
		s-0.2,0.7-0.2,1.1c0,0.6,0.2,1.1,0.5,1.4c0.4,0.3,0.8,0.5,1.5,0.5c1,0,1.8-0.4,2.4-1.1S333.7,113.3,333.7,111.6z"/>
	<path fill="#1B2E67" d="M341.1,119.3c-0.2,0-0.3,0-0.3-0.1c-0.1-0.1-0.1-0.2-0.1-0.4V96.9c0-0.2,0-0.4,0.1-0.4
		c0.1-0.1,0.2-0.1,0.4-0.1h2.8c0.2,0,0.3,0,0.4,0.1c0.1,0.1,0.1,0.2,0.1,0.4v21.9c0,0.2,0,0.4-0.1,0.4c-0.1,0.1-0.2,0.1-0.4,0.1
		H341.1z"/>
	<path fill="#1B2E67" d="M360,112c0,0.2-0.1,0.4-0.2,0.5c-0.1,0.1-0.2,0.2-0.5,0.2h-8.8c0.1,1.2,0.5,2.2,1.2,2.8
		c0.7,0.6,1.5,0.9,2.4,1c0.9,0,1.6,0,2.3-0.3c0.6-0.2,1.3-0.5,1.9-0.9c0.3-0.2,0.4-0.2,0.5-0.1c0.1,0.1,0.1,0.3,0.1,0.6v2.1
		c0,0.2,0,0.3-0.1,0.4c0,0.1-0.2,0.2-0.3,0.3c-0.5,0.4-1.2,0.7-2.1,0.8c-0.8,0.2-1.6,0.3-2.4,0.3c-2.2,0-4-0.7-5.3-2.2
		s-1.9-3.5-1.9-6.1c0-1,0.1-2,0.4-3c0.3-1,0.7-1.9,1.3-2.7c0.6-0.8,1.3-1.4,2.1-1.9c0.8-0.5,1.8-0.7,3-0.7c1.2,0,2.2,0.2,3,0.6
		c0.8,0.4,1.5,1,2,1.7c0.5,0.7,0.9,1.6,1.1,2.5c0.2,1,0.3,2,0.3,3.1V112z M353.7,106.4c-0.4,0-0.8,0.1-1.1,0.3s-0.6,0.4-0.9,0.7
		c-0.3,0.3-0.5,0.6-0.7,1c-0.2,0.4-0.3,0.8-0.4,1.2h5.7c0-0.4-0.1-0.8-0.2-1.1c-0.1-0.4-0.3-0.7-0.5-1s-0.5-0.6-0.8-0.8
		C354.5,106.5,354.2,106.4,353.7,106.4z"/>
	<path fill="#1B2E67" d="M365.1,119c-0.1,0.1-0.2,0.2-0.2,0.3c-0.1,0-0.1,0-0.2,0h-3.2c-0.2,0-0.3,0-0.3-0.1c0-0.1,0.1-0.3,0.2-0.5
		l4.7-7.6l-4.4-6.9c-0.2-0.3-0.3-0.5-0.2-0.6s0.2-0.1,0.5-0.1h3c0.2,0,0.4,0.1,0.5,0.3l2.6,4.3l2.6-4.3c0.1-0.2,0.3-0.3,0.5-0.3h3
		c0.3,0,0.5,0,0.5,0.1c0,0.1,0,0.3-0.2,0.6l-4.4,6.9l4.7,7.6c0.2,0.3,0.2,0.4,0.2,0.5c0,0.1-0.1,0.1-0.3,0.1h-3.2
		c-0.1,0-0.2,0-0.2,0c-0.1,0-0.1-0.1-0.2-0.3l-3-4.9L365.1,119z"/>
	<path fill="#1B2E67" d="M379.7,121.5c-0.7,0-1.3-0.2-1.8-0.7s-0.7-1.1-0.7-1.8c0-0.7,0.2-1.3,0.7-1.8s1.1-0.7,1.8-0.7
		s1.3,0.2,1.8,0.7s0.7,1.1,0.7,1.8c0,0.7-0.2,1.3-0.7,1.8S380.4,121.5,379.7,121.5z"/>
	<path fill="#1B2E67" d="M391.2,119.9c-0.5,1.4-1.1,2.4-1.8,3c-0.7,0.6-1.6,0.9-2.6,0.9c-0.2,0-0.5,0-0.9,0c-0.4,0-0.8-0.1-1.1-0.3
		c-0.2-0.1-0.3-0.2-0.4-0.2c-0.1-0.1-0.1-0.2-0.1-0.4l0.2-2.3c0-0.2,0.1-0.3,0.2-0.3c0.1,0,0.2,0,0.4,0c0.3,0.1,0.5,0.2,0.8,0.2
		c0.3,0,0.5,0.1,0.8,0c0.1,0,0.3-0.1,0.4-0.1c0.1-0.1,0.2-0.2,0.3-0.3c0.2-0.4,0.4-0.8,0.6-1.3c0.2-0.4,0.3-0.9,0.5-1.4l-4.6-13.2
		c-0.1-0.3-0.1-0.5,0-0.5c0.1-0.1,0.2-0.1,0.4-0.1h2.7c0.2,0,0.3,0,0.3,0.1c0.1,0,0.1,0.2,0.2,0.4l2.8,8.9l2.8-8.9
		c0.1-0.2,0.1-0.3,0.2-0.4c0.1,0,0.2-0.1,0.3-0.1h2.7c0.3,0,0.4,0,0.5,0.1c0,0.1,0,0.3-0.1,0.5L391.2,119.9z"/>
	<path fill="#1B2E67" d="M408.5,119.4c-0.2,0-0.3,0-0.4-0.1c-0.1-0.1-0.1-0.2-0.1-0.3v-1.1c-0.2,0.3-0.4,0.5-0.7,0.7
		c-0.3,0.2-0.6,0.4-0.9,0.5c-0.3,0.1-0.6,0.3-1,0.4c-0.3,0.1-0.7,0.1-1,0.1c-1.8,0-3.2-0.5-4.1-1.6c-0.9-1.1-1.4-2.6-1.4-4.6v-9.3
		c0-0.2,0-0.4,0.1-0.4c0.1-0.1,0.2-0.1,0.4-0.1h2.6c0.2,0,0.4,0.1,0.4,0.2c0.1,0.1,0.1,0.3,0.1,0.4v8.8c0,0.7,0.1,1.2,0.2,1.6
		s0.2,0.8,0.4,1c0.2,0.3,0.4,0.4,0.7,0.5c0.3,0.1,0.6,0.2,0.9,0.2c0.8,0,1.5-0.3,2.1-1c0.6-0.6,0.9-1.6,0.9-3v-8.1
		c0-0.2,0-0.4,0.1-0.4c0.1-0.1,0.2-0.1,0.4-0.1h2.6c0.2,0,0.4,0.1,0.4,0.2s0.1,0.3,0.1,0.4v11.2c0,0.6,0,1.1,0,1.8s0,1.1,0,1.6
		c0,0.2,0,0.4-0.1,0.5c0,0.1-0.2,0.1-0.5,0.1H408.5z"/>
	<path fill="#1B2E67" d="M419.5,118.8c0,0.2,0,0.4-0.1,0.4c-0.1,0.1-0.2,0.1-0.4,0.1h-2.6c-0.2,0-0.4,0-0.4-0.1
		c-0.1-0.1-0.1-0.2-0.1-0.4v-10.9c0-0.7,0-1.4,0-2.2c0-0.7,0-1.3-0.1-1.7c0-0.2,0-0.3,0.1-0.4c0.1-0.1,0.2-0.1,0.5-0.1h2.7
		c0.2,0,0.3,0,0.4,0.1s0.1,0.1,0.1,0.3v1.1c0.4-0.4,0.9-0.8,1.5-1.1c0.6-0.3,1.3-0.5,1.9-0.5c1.9,0,3.2,0.5,4.1,1.6
		c0.9,1.1,1.3,2.6,1.3,4.6v9.2c0,0.2,0,0.4-0.1,0.4c-0.1,0.1-0.2,0.1-0.4,0.1h-2.6c-0.4,0-0.6-0.2-0.6-0.6v-8.7c0-2.3-0.7-3.4-2-3.4
		c-1,0-1.7,0.3-2.2,0.9c-0.5,0.6-0.8,1.5-0.8,2.5V118.8z"/>
	<path fill="#1B2E67" d="M454.1,106.6c0,0.7-0.1,1.3-0.2,2s-0.3,1.2-0.6,1.7c-0.2,0.5-0.5,1-0.8,1.4c-0.3,0.4-0.6,0.8-1,1.1
		c-1.5,1.5-3.2,2.2-4.9,2.2c-0.5,0-0.9-0.2-1.3-0.5c-0.4-0.3-0.7-0.8-0.9-1.3c-0.2,0.3-0.5,0.5-0.8,0.7c-0.3,0.2-0.6,0.4-1,0.5
		s-0.7,0.2-1,0.3s-0.6,0.1-0.9,0.1c-0.7,0-1.4-0.1-2-0.4c-0.6-0.2-1-0.6-1.4-1c-0.4-0.4-0.6-0.9-0.8-1.5c-0.2-0.6-0.3-1.2-0.3-1.9
		c0-1,0.2-2,0.5-2.9c0.4-0.9,0.9-1.8,1.5-2.5c0.6-0.7,1.4-1.3,2.2-1.7s1.8-0.6,2.8-0.6c0.6,0,1.2,0.2,1.7,0.4c0.6,0.3,1,0.7,1.2,1.2
		l0.4-1.3h2.1c-0.7-0.7-1.6-1.3-2.6-1.7c-1-0.4-2.1-0.6-3.2-0.6c-1.1,0-2.1,0.2-3,0.6c-1,0.4-1.8,1-2.5,1.7
		c-0.7,0.7-1.3,1.6-1.7,2.6c-0.4,1-0.6,2.1-0.6,3.2c0,1.4,0.2,2.6,0.6,3.7c0.4,1.1,1,1.9,1.8,2.6c0.7,0.7,1.6,1.2,2.6,1.6
		c1,0.4,2,0.5,3.1,0.5c0.9,0,1.6-0.1,2.3-0.2c0.7-0.1,1.2-0.3,1.7-0.5c0.5-0.2,0.9-0.5,1.3-0.8s0.7-0.6,1-1h4.1
		c-1,1.8-2.4,3.1-4.1,4.1c-1.7,0.9-3.8,1.4-6.3,1.4c-1.6,0-3.1-0.3-4.5-0.8c-1.4-0.6-2.6-1.3-3.7-2.3c-1-1-1.8-2.2-2.4-3.6
		c-0.6-1.4-0.9-3-0.9-4.7c0-1.6,0.3-3.1,0.9-4.5c0.6-1.4,1.4-2.6,2.5-3.6s2.3-1.8,3.7-2.4c1.4-0.6,2.9-0.9,4.5-0.9
		c1.5,0,3,0.3,4.3,0.8c1.3,0.5,2.5,1.2,3.5,2c1,0.9,1.8,1.9,2.4,3S454.1,105.3,454.1,106.6z M443.6,105.2c-0.5,0-1,0.2-1.4,0.5
		c-0.4,0.3-0.8,0.7-1.1,1.2c-0.3,0.5-0.6,1-0.7,1.6c-0.2,0.6-0.3,1.1-0.3,1.6s0.1,0.9,0.3,1.2c0.2,0.3,0.5,0.5,0.9,0.5
		c0.5,0,1-0.2,1.5-0.5c0.5-0.3,0.9-0.7,1.2-1.2c0.3-0.5,0.6-1,0.8-1.6c0.2-0.6,0.3-1.1,0.3-1.7c0-0.5-0.1-1-0.3-1.3
		C444.4,105.3,444,105.2,443.6,105.2z M450.7,106.9c0-0.5-0.1-1.1-0.2-1.5c-0.1-0.5-0.3-0.9-0.6-1.4c-0.4,1-0.7,2-1.1,3
		s-0.7,2-1.1,3.1c-0.1,0.4-0.2,0.6-0.2,0.8c0,0.2-0.1,0.4,0,0.5c0,0.1,0,0.2,0.1,0.2c0,0,0.1,0,0.1,0c0.3,0,0.7-0.1,1-0.4
		c0.4-0.3,0.7-0.6,1-1c0.3-0.4,0.5-0.9,0.7-1.5C450.6,108.1,450.7,107.5,450.7,106.9z"/>
	<path fill="#1B2E67" d="M457.3,119.3c-0.2,0-0.3,0-0.3-0.1c-0.1-0.1-0.1-0.2-0.1-0.4V96.9c0-0.2,0-0.4,0.1-0.4
		c0.1-0.1,0.2-0.1,0.4-0.1h2.8c0.2,0,0.3,0,0.4,0.1c0.1,0.1,0.1,0.2,0.1,0.4v21.9c0,0.2,0,0.4-0.1,0.4c-0.1,0.1-0.2,0.1-0.4,0.1
		H457.3z"/>
	<path fill="#1B2E67" d="M471.6,99.3c0,0.2,0,0.3-0.1,0.3c-0.1,0-0.2,0-0.4-0.1c-0.3-0.1-0.5-0.2-0.7-0.2c-0.2,0-0.5,0-0.8,0
		c-0.5,0.1-0.8,0.4-1,1.1c0,0.1-0.1,0.4-0.1,0.7c0,0.3,0,0.6,0,1v1.4h2.4c0.2,0,0.4,0,0.4,0.1s0.1,0.2,0.1,0.4v2.3
		c0,0.2,0,0.3-0.1,0.4c-0.1,0.1-0.2,0.1-0.4,0.1h-2.4v11.8c0,0.2,0,0.4-0.1,0.4c-0.1,0.1-0.2,0.1-0.4,0.1h-2.6c-0.2,0-0.3,0-0.4-0.1
		c-0.1-0.1-0.1-0.2-0.1-0.4v-11.8h-2c-0.4,0-0.5-0.2-0.5-0.6V104c0-0.4,0.2-0.6,0.5-0.6h2v-1.2c0-0.8,0.1-1.6,0.2-2.3
		c0.1-0.8,0.3-1.4,0.7-2c0.3-0.6,0.8-1.1,1.3-1.4s1.3-0.5,2.2-0.6c0.4,0,0.8,0,1.2,0.1c0.4,0.1,0.8,0.1,1,0.2
		c0.1,0.1,0.2,0.1,0.3,0.2s0,0.2,0,0.3L471.6,99.3z"/>
	<path fill="#1B2E67" d="M475.5,101.2c-0.6,0-1.1-0.2-1.5-0.6c-0.4-0.4-0.6-1-0.6-1.6s0.2-1.1,0.6-1.6s0.9-0.7,1.6-0.7
		c0.6,0,1.2,0.2,1.6,0.7c0.4,0.4,0.6,1,0.6,1.6s-0.2,1.1-0.6,1.6C476.7,101,476.2,101.2,475.5,101.2z M474.1,119.3
		c-0.2,0-0.3,0-0.3-0.1c-0.1-0.1-0.1-0.2-0.1-0.4v-14.6c0-0.2,0-0.4,0.1-0.4c0.1-0.1,0.2-0.1,0.4-0.1h2.8c0.2,0,0.3,0,0.4,0.1
		c0.1,0.1,0.1,0.2,0.1,0.4v14.6c0,0.2,0,0.4-0.1,0.4c-0.1,0.1-0.2,0.1-0.4,0.1H474.1z"/>
	<path fill="#1B2E67" d="M484.6,118.8c0,0.2,0,0.4-0.1,0.4c-0.1,0.1-0.2,0.1-0.4,0.1h-2.6c-0.2,0-0.4,0-0.4-0.1
		c-0.1-0.1-0.1-0.2-0.1-0.4v-10.9c0-0.7,0-1.4,0-2.2c0-0.7,0-1.3-0.1-1.7c0-0.2,0-0.3,0.1-0.4c0.1-0.1,0.2-0.1,0.5-0.1h2.7
		c0.2,0,0.3,0,0.4,0.1s0.1,0.1,0.1,0.3v1.1c0.4-0.4,0.9-0.8,1.5-1.1c0.6-0.3,1.3-0.5,1.9-0.5c1.9,0,3.2,0.5,4.1,1.6
		c0.9,1.1,1.3,2.6,1.3,4.6v9.2c0,0.2,0,0.4-0.1,0.4c-0.1,0.1-0.2,0.1-0.4,0.1h-2.6c-0.4,0-0.6-0.2-0.6-0.6v-8.7c0-2.3-0.7-3.4-2-3.4
		c-1,0-1.7,0.3-2.2,0.9c-0.5,0.6-0.8,1.5-0.8,2.5V118.8z"/>
	<path fill="#1B2E67" d="M500.2,121.5c-0.7,0-1.3-0.2-1.8-0.7s-0.7-1.1-0.7-1.8c0-0.7,0.2-1.3,0.7-1.8s1.1-0.7,1.8-0.7
		s1.3,0.2,1.8,0.7s0.7,1.1,0.7,1.8c0,0.7-0.2,1.3-0.7,1.8S500.9,121.5,500.2,121.5z"/>
	<path fill="#1B2E67" d="M515.7,119.3c-0.3,0-0.4,0-0.5-0.1c-0.1,0-0.2-0.2-0.3-0.3l-3.9-6.1l-1.1,1.3v4.6c0,0.2,0,0.4-0.1,0.4
		s-0.2,0.1-0.4,0.1h-2.6c-0.2,0-0.3,0-0.4-0.1c-0.1-0.1-0.1-0.2-0.1-0.4V96.9c0-0.4,0.2-0.6,0.5-0.6h2.6c0.4,0,0.6,0.2,0.6,0.6v12.2
		l4.4-5.3c0.1-0.1,0.2-0.2,0.3-0.2s0.2-0.1,0.4-0.1h2.7c0.3,0,0.5,0.1,0.5,0.2c0,0.1-0.1,0.4-0.3,0.7l-4.6,5.8l5.4,8.4
		c0.2,0.2,0.2,0.4,0.2,0.5c0,0.1-0.2,0.2-0.5,0.2H515.7z"/>
	<path fill="#1B2E67" d="M528.4,107c-0.4-0.1-0.7-0.2-1-0.3c-0.3,0-0.6,0-0.8,0.1c-0.4,0.1-0.8,0.4-1.1,0.7s-0.5,0.7-0.6,1.2
		c-0.1,0.4-0.2,0.9-0.3,1.4c0,0.5-0.1,1-0.1,1.4v7.2c0,0.2,0,0.4-0.1,0.5s-0.2,0.1-0.4,0.1h-2.7c-0.2,0-0.3,0-0.4-0.1
		c-0.1-0.1-0.1-0.2-0.1-0.5v-11.1c0-0.6,0-1.2,0-1.9c0-0.7,0-1.2,0-1.6c0-0.2,0-0.4,0.1-0.5c0.1-0.1,0.2-0.1,0.4-0.1h2.7
		c0.3,0,0.4,0.1,0.4,0.4v1.1c0.2-0.4,0.6-0.7,0.9-1c0.4-0.3,0.8-0.5,1.2-0.6c0.4-0.1,0.8-0.1,1.2-0.1c0.4,0,0.7,0.1,0.9,0.3
		c0.1,0.1,0.2,0.1,0.2,0.2c0,0.1,0,0.2,0,0.3v2.4c0,0.2,0,0.4-0.1,0.4C528.7,107.1,528.6,107.1,528.4,107z"/>
</g>
<g>
	<rect x="312.6" y="21.4" fill="none" width="227.4" height="34.8"/>
	<path d="M352.1,42h-7.7v5.7c0,0.3,0,0.4-0.1,0.6c-0.1,0.1-0.3,0.2-0.6,0.2h-3.5c-0.3,0-0.5-0.1-0.6-0.2c-0.1-0.1-0.1-0.3-0.1-0.6
		V42h-3.6v5.7c0,0.3,0,0.4-0.1,0.6c-0.1,0.1-0.3,0.2-0.6,0.2h-3.5c-0.3,0-0.5-0.1-0.6-0.2c-0.1-0.1-0.1-0.3-0.1-0.6V42h-9.8
		c-0.3,0-0.5-0.1-0.6-0.2s-0.1-0.3-0.1-0.6v-2.5c0-0.3,0-0.5,0.1-0.6c0.1-0.1,0.3-0.2,0.6-0.2h30.9c0.5,0,0.8,0.3,0.8,0.8v2.5
		C352.8,41.7,352.6,42,352.1,42z M348.4,55.5h-21.2c-1,0-1.7-0.2-2-0.5s-0.5-1-0.5-2.1v-7.9c0-0.5,0.3-0.8,0.8-0.8h3.5
		c0.5,0,0.7,0.3,0.7,0.8v5.8c0,0.4,0.2,0.5,0.6,0.5h18.1c0.2,0,0.4,0,0.5,0.1c0.2,0.1,0.2,0.3,0.2,0.5v2.8c0,0.3-0.1,0.5-0.2,0.6
		C348.7,55.5,348.6,55.5,348.4,55.5z M336.7,36.1c-1.6,0-3.2-0.2-4.6-0.5c-1.4-0.3-2.7-0.8-3.7-1.4c-1.1-0.6-1.9-1.3-2.5-2.2
		c-0.6-0.9-0.9-1.8-0.9-2.9s0.3-2,0.9-2.9c0.6-0.8,1.4-1.6,2.5-2.2c1.1-0.6,2.3-1.1,3.7-1.4c1.4-0.3,3-0.5,4.6-0.5
		c1.6,0,3.2,0.2,4.6,0.5s2.7,0.8,3.7,1.4c1.1,0.6,1.9,1.3,2.5,2.2c0.6,0.8,0.9,1.8,0.9,2.9s-0.3,2-0.9,2.9c-0.6,0.9-1.5,1.6-2.5,2.2
		c-1.1,0.6-2.3,1-3.7,1.4S338.3,36.1,336.7,36.1z M336.7,26.3c-1.1,0-2,0.1-2.8,0.3c-0.8,0.2-1.5,0.4-2.1,0.7
		c-0.6,0.3-1,0.6-1.3,0.9c-0.3,0.3-0.4,0.7-0.4,1c0,0.3,0.1,0.7,0.4,1c0.3,0.3,0.7,0.7,1.3,0.9c0.6,0.3,1.3,0.5,2.1,0.6
		c0.8,0.2,1.8,0.3,2.8,0.3c1,0,2-0.1,2.8-0.3c0.8-0.2,1.5-0.4,2.1-0.6c0.6-0.3,1-0.6,1.3-0.9c0.3-0.3,0.4-0.7,0.4-1
		c0-0.4-0.1-0.7-0.4-1c-0.3-0.3-0.7-0.6-1.3-0.9c-0.6-0.3-1.3-0.5-2.1-0.7C338.7,26.4,337.7,26.3,336.7,26.3z"/>
	<path d="M385.9,41.6H355c-0.3,0-0.5-0.1-0.6-0.2c-0.1-0.1-0.1-0.3-0.1-0.6v-2.6c0-0.3,0-0.5,0.1-0.6c0.1-0.1,0.3-0.2,0.6-0.2h13v-3
		h-5.8c-1.1,0-1.8-0.2-2.2-0.7c-0.4-0.5-0.7-1.2-0.7-2.1v-7c0-1,0.2-1.7,0.6-2c0.4-0.3,1.1-0.5,2.1-0.5h19c0.5,0,0.7,0.2,0.7,0.7
		v2.7c0,0.3,0,0.4-0.1,0.5c-0.1,0.1-0.3,0.1-0.5,0.1h-16.2c-0.4,0-0.6,0.2-0.6,0.6V30c0,0.4,0.2,0.6,0.6,0.6h16.3
		c0.5,0,0.8,0.2,0.8,0.6v2.6c0,0.5-0.3,0.8-0.8,0.8H373v3h12.9c0.2,0,0.4,0,0.5,0.1c0.1,0.1,0.2,0.3,0.2,0.6v2.6
		C386.6,41.3,386.4,41.6,385.9,41.6z M370.4,56.3c-1.8,0-3.5-0.2-4.9-0.5c-1.4-0.3-2.6-0.8-3.6-1.4c-1-0.6-1.8-1.3-2.3-2.1
		c-0.5-0.8-0.8-1.6-0.8-2.5c0-0.9,0.3-1.8,0.8-2.6c0.5-0.8,1.3-1.5,2.3-2.1s2.2-1,3.6-1.4c1.4-0.3,3.1-0.5,4.9-0.5s3.5,0.2,4.9,0.5
		c1.4,0.3,2.6,0.8,3.6,1.4s1.7,1.3,2.3,2.1c0.5,0.8,0.8,1.6,0.8,2.6c0,0.9-0.3,1.8-0.8,2.5c-0.5,0.8-1.3,1.5-2.3,2.1
		c-1,0.6-2.2,1-3.6,1.4C373.9,56.1,372.3,56.3,370.4,56.3z M370.4,47.2c-2,0-3.5,0.3-4.7,0.8c-1.2,0.5-1.7,1.1-1.7,1.9
		c0,0.3,0.1,0.7,0.4,1c0.3,0.3,0.7,0.6,1.3,0.8c0.6,0.3,1.2,0.5,2,0.6c0.8,0.2,1.7,0.2,2.7,0.2s1.9-0.1,2.7-0.2
		c0.8-0.2,1.5-0.4,2-0.6c0.6-0.3,1-0.5,1.3-0.8c0.3-0.3,0.5-0.6,0.5-1c0-0.7-0.6-1.4-1.7-1.9C374,47.4,372.4,47.2,370.4,47.2z"/>
	<path d="M419.8,43.6h-13v11.5c0,0.5-0.2,0.7-0.7,0.7h-3.6c-0.5,0-0.7-0.2-0.7-0.7V43.6h-13c-0.3,0-0.5-0.1-0.6-0.2
		s-0.1-0.3-0.1-0.6v-2.5c0-0.3,0-0.5,0.1-0.6s0.3-0.2,0.6-0.2h30.9c0.5,0,0.8,0.3,0.8,0.8v2.5C420.5,43.3,420.3,43.6,419.8,43.6z
		 M392.9,37.3c-0.3,0.1-0.6,0.1-0.7,0c-0.1,0-0.1-0.1-0.2-0.2s-0.1-0.2-0.2-0.3l-1.3-2.6c-0.2-0.4,0-0.7,0.5-0.9
		c3.5-1.2,6.1-2.7,7.9-4.6c1.8-1.9,2.8-4.1,3.1-6.6c0-0.3,0.1-0.5,0.2-0.6c0.1-0.1,0.3-0.1,0.6-0.1l3.3,0.1c0.6,0,0.8,0.3,0.8,0.8
		c0,0.3,0,0.6-0.1,0.9c0,0.3-0.1,0.6-0.1,0.9c0.4,0.9,1,1.8,1.7,2.6c0.8,0.9,1.6,1.6,2.6,2.4c1,0.7,2.1,1.4,3.2,1.9
		c1.2,0.6,2.4,1,3.6,1.4c0.3,0.1,0.5,0.2,0.5,0.4c0,0.2,0,0.4-0.2,0.7l-1.2,2.5c0,0-0.1,0.1-0.1,0.2c0,0.1-0.1,0.2-0.1,0.2
		c0,0-0.1,0-0.2,0.1c-0.1,0-0.2,0-0.4-0.1c-1-0.2-2.1-0.5-3.2-1c-1.1-0.5-2.2-1-3.2-1.7c-1-0.6-2-1.4-2.9-2.2s-1.7-1.6-2.3-2.5
		c-1.2,1.9-2.9,3.6-4.9,4.9C397.6,35.5,395.3,36.6,392.9,37.3z"/>
	<path d="M445.3,45.9H436c-0.6,0-1,0-1.3-0.1c-0.3-0.1-0.6-0.2-0.8-0.4s-0.3-0.4-0.4-0.8c-0.1-0.3-0.1-0.8-0.1-1.3V26.7
		c0-1,0.2-1.7,0.6-2c0.4-0.3,1-0.4,1.9-0.4h9.4c0.5,0,0.9,0,1.2,0.1c0.3,0,0.6,0.2,0.7,0.3c0.2,0.2,0.3,0.4,0.4,0.7
		c0.1,0.3,0.1,0.8,0.1,1.3v16.7c0,0.5,0,1-0.1,1.3c-0.1,0.3-0.2,0.6-0.4,0.8c-0.2,0.2-0.4,0.3-0.7,0.4
		C446.2,45.9,445.8,45.9,445.3,45.9z M442.8,29.1c0-0.3,0-0.5-0.1-0.6c0-0.1-0.2-0.1-0.5-0.1H439c-0.3,0-0.5,0-0.6,0.1
		c-0.1,0.1-0.1,0.3-0.1,0.6v12.1c0,0.3,0,0.5,0.1,0.6c0.1,0.1,0.3,0.1,0.6,0.1h3.2c0.3,0,0.5,0,0.5-0.1c0-0.1,0.1-0.3,0.1-0.6V29.1z
		 M462.1,56.1h-3.6c-0.3,0-0.4,0-0.5-0.1c-0.1-0.1-0.1-0.3-0.1-0.5V38.6h-2.8v15.5c0,0.3,0,0.5-0.1,0.6c-0.1,0.1-0.3,0.1-0.5,0.1
		h-3.4c-0.3,0-0.4,0-0.5-0.1s-0.1-0.2-0.1-0.6V22.9c0-0.3,0-0.4,0.1-0.5s0.3-0.1,0.5-0.1h3.4c0.3,0,0.4,0,0.5,0.1
		c0.1,0.1,0.1,0.3,0.1,0.5v11.7h2.8V22.2c0-0.3,0-0.4,0.1-0.5c0.1-0.1,0.3-0.1,0.5-0.1h3.6c0.3,0,0.4,0,0.5,0.1
		c0.1,0.1,0.1,0.3,0.1,0.5v33.2c0,0.3,0,0.4-0.1,0.5C462.5,56.1,462.3,56.1,462.1,56.1z"/>
	<path d="M487.7,45c-1.3,0.3-2.8,0.5-4.3,0.6c-1.5,0.2-3,0.3-4.5,0.4s-2.8,0.1-4.1,0.1c-1.3,0-2.3,0-3.2-0.1c-1,0-1.7-0.3-2.1-0.7
		c-0.4-0.4-0.6-1.1-0.6-2v-19c0-0.5,0.2-0.8,0.7-0.8h3.6c0.5,0,0.8,0.3,0.8,0.8v16.7c0,0.2,0,0.4,0.1,0.5c0.1,0.1,0.3,0.1,0.5,0.2
		c0.7,0,1.6,0.1,2.7,0c1.1,0,2.2-0.1,3.3-0.2c1.2-0.1,2.3-0.2,3.4-0.3c1.1-0.1,2.1-0.3,2.9-0.5c0.3,0,0.5,0,0.6,0.1
		c0.1,0.1,0.2,0.2,0.2,0.3l0.5,3C488.4,44.7,488.2,44.9,487.7,45z M494.3,56.1h-3.6c-0.3,0-0.4,0-0.5-0.1c-0.1-0.1-0.1-0.3-0.1-0.6
		V22.3c0-0.3,0-0.4,0.1-0.5c0.1-0.1,0.3-0.1,0.5-0.1h3.6c0.3,0,0.4,0,0.5,0.1c0.1,0.1,0.1,0.3,0.1,0.5v33.2c0,0.3,0,0.5-0.1,0.6
		C494.8,56.1,494.6,56.1,494.3,56.1z"/>
	<path d="M519.5,46.6c-0.2,0.2-0.4,0.3-0.6,0.3c-0.2-0.1-0.5-0.2-0.8-0.4c-0.4-0.3-0.9-0.7-1.4-1.2c-0.5-0.5-1.1-1-1.7-1.6
		c-0.6-0.6-1.2-1.2-1.7-1.9s-1.1-1.3-1.5-1.9c-1.2,1.5-2.6,2.9-4,4.2c-1.5,1.3-3,2.5-4.7,3.6c-0.2,0.1-0.4,0.2-0.5,0.2
		c-0.1,0-0.3-0.2-0.5-0.4l-1.7-2.3c-0.2-0.3-0.3-0.5-0.2-0.6c0.1-0.2,0.2-0.3,0.4-0.4c1.4-1,2.7-2,4-3.2c1.2-1.2,2.4-2.4,3.4-3.7
		s2-2.6,2.8-4s1.4-2.7,1.8-4.1c0.1-0.5,0-0.7-0.5-0.7h-8.7c-0.3,0-0.5-0.1-0.6-0.2c-0.1-0.1-0.1-0.3-0.1-0.6V25
		c0-0.3,0.1-0.5,0.2-0.6c0.1-0.1,0.3-0.2,0.6-0.2H515c0.9,0,1.7,0.2,2.2,0.6c0.5,0.4,0.8,1,0.8,1.8c0,0.3,0,0.7-0.1,1
		c-0.1,0.3-0.1,0.6-0.2,0.9c-0.6,2.5-1.8,5-3.5,7.6c0.5,0.7,1,1.4,1.6,2.1c0.6,0.7,1.2,1.3,1.8,1.9c0.6,0.6,1.2,1.2,1.9,1.7
		s1.2,1,1.7,1.4c0.4,0.3,0.4,0.7,0,1.2L519.5,46.6z M528.8,56.1h-3.7c-0.3,0-0.4,0-0.5-0.1c-0.1-0.1-0.1-0.3-0.1-0.6V37.4h-5.6
		c-0.2,0-0.4,0-0.5-0.1c-0.1-0.1-0.2-0.3-0.2-0.5v-2.8c0-0.3,0.1-0.4,0.2-0.5c0.1-0.1,0.3-0.1,0.5-0.1h5.6v-11c0-0.3,0-0.4,0.1-0.5
		c0.1-0.1,0.3-0.1,0.5-0.1h3.7c0.3,0,0.4,0,0.5,0.1c0.1,0.1,0.1,0.3,0.1,0.5v33.2c0,0.3,0,0.5-0.1,0.6
		C529.3,56.1,529.1,56.1,528.8,56.1z"/>
</g>
<g>
	<rect x="312.6" y="57.4" fill="none" width="227.4" height="20.3"/>
	<path fill="#666666" d="M349.6,73.4c-0.3,0.4-0.8,0.7-1.4,1s-1.2,0.4-1.8,0.5c-0.3,0-0.7,0-1.1,0c-0.4,0-0.8-0.1-1.2-0.1
		c-0.4-0.1-0.7-0.1-1.1-0.2c-0.3-0.1-0.6-0.1-0.7-0.2c-0.1-0.1-0.2-0.1-0.3-0.2c0-0.1,0-0.2,0-0.3l0.2-1.9c0-0.1,0-0.2,0.1-0.2
		c0,0,0.2,0,0.3,0.1c0.3,0.1,0.5,0.2,0.9,0.3c0.3,0.1,0.7,0.2,1,0.2c0.3,0,0.7,0.1,1,0.1c0.3,0,0.6,0,0.9-0.1c0.6-0.1,1-0.4,1.2-0.7
		c0.2-0.3,0.4-0.7,0.4-1.3c0-0.1,0-0.3-0.1-0.4c-0.1-0.2-0.2-0.3-0.3-0.5s-0.3-0.4-0.6-0.6c-0.2-0.2-0.6-0.4-1-0.7
		c-0.7-0.5-1.4-0.9-1.9-1.3c-0.5-0.4-0.9-0.8-1.3-1.1c-0.3-0.4-0.6-0.8-0.7-1.2s-0.2-0.8-0.2-1.3c0-0.6,0.1-1.2,0.4-1.7s0.6-1,1-1.3
		c0.4-0.4,0.9-0.7,1.5-0.9s1.2-0.3,1.9-0.3s1.3,0.1,1.8,0.1c0.5,0.1,0.9,0.2,1.2,0.4c0.2,0.1,0.3,0.1,0.3,0.2c0,0.1,0,0.2,0,0.3
		l-0.4,1.7c0,0.1-0.1,0.2-0.1,0.2c-0.1,0-0.2,0-0.4-0.1c-0.6-0.2-1.2-0.3-1.7-0.4s-1,0-1.4,0.1s-0.7,0.3-0.9,0.6
		c-0.2,0.3-0.3,0.6-0.3,1.1c0,0.3,0.1,0.6,0.4,1c0.3,0.3,0.8,0.7,1.4,1.1c0.8,0.5,1.5,1,2,1.4c0.5,0.4,1,0.8,1.3,1.2
		s0.5,0.8,0.7,1.2c0.1,0.4,0.2,0.8,0.2,1.3c0,0.6-0.1,1.2-0.3,1.7C350.3,72.5,350,73,349.6,73.4z"/>
	<path fill="#666666" d="M361.9,73c-0.5,0.6-1.1,1.1-1.8,1.4c-0.7,0.3-1.5,0.5-2.3,0.5c-0.9,0-1.7-0.2-2.3-0.5
		c-0.7-0.3-1.2-0.8-1.7-1.3c-0.4-0.5-0.8-1.2-1-1.9c-0.2-0.7-0.3-1.5-0.3-2.3s0.1-1.6,0.3-2.3c0.2-0.7,0.6-1.4,1-1.9s1-1,1.7-1.3
		c0.7-0.3,1.4-0.5,2.3-0.5s1.7,0.2,2.3,0.5c0.7,0.3,1.2,0.8,1.7,1.3c0.4,0.5,0.8,1.2,1,1.9c0.2,0.7,0.3,1.5,0.3,2.3
		c0,0.8-0.1,1.5-0.3,2.2S362.3,72.4,361.9,73z M357.9,65.3c-0.4,0-0.8,0.1-1.2,0.3c-0.3,0.2-0.6,0.5-0.8,0.8
		c-0.2,0.3-0.4,0.7-0.5,1.1s-0.2,0.9-0.2,1.3c0,0.5,0.1,0.9,0.2,1.3c0.1,0.4,0.3,0.8,0.5,1.2s0.5,0.6,0.8,0.8s0.7,0.3,1.2,0.3
		c0.5,0,0.8-0.1,1.2-0.3s0.6-0.5,0.8-0.8s0.4-0.7,0.5-1.2c0.1-0.4,0.2-0.9,0.2-1.3c0-0.4-0.1-0.9-0.2-1.3c-0.1-0.4-0.3-0.8-0.5-1.2
		c-0.2-0.3-0.5-0.6-0.8-0.8C358.7,65.4,358.3,65.3,357.9,65.3z"/>
	<path fill="#666666" d="M370.8,60.2c0,0.1,0,0.2-0.1,0.2c-0.1,0-0.1,0-0.2,0c-0.2-0.1-0.4-0.1-0.5-0.2c-0.2,0-0.3,0-0.6,0
		c-0.3,0.1-0.6,0.3-0.7,0.8c0,0.1,0,0.3-0.1,0.5s0,0.5,0,0.7v1h1.7c0.2,0,0.3,0,0.3,0.1s0.1,0.2,0.1,0.3v1.7c0,0.1,0,0.2-0.1,0.3
		s-0.1,0.1-0.3,0.1h-1.7v8.5c0,0.2,0,0.3-0.1,0.3c-0.1,0.1-0.2,0.1-0.3,0.1h-1.9c-0.1,0-0.2,0-0.3-0.1c-0.1-0.1-0.1-0.2-0.1-0.3
		v-8.5h-1.4c-0.3,0-0.4-0.1-0.4-0.4v-1.7c0-0.3,0.1-0.4,0.4-0.4h1.4v-0.9c0-0.6,0-1.1,0.1-1.7c0.1-0.5,0.2-1,0.5-1.4s0.6-0.8,1-1
		c0.4-0.2,0.9-0.4,1.6-0.4c0.3,0,0.6,0,0.9,0c0.3,0,0.6,0.1,0.7,0.2c0.1,0,0.2,0.1,0.2,0.1c0,0,0,0.1,0,0.2L370.8,60.2z"/>
	<path fill="#666666" d="M378.1,74.4c-0.3,0.1-0.6,0.2-1,0.3c-0.4,0.1-0.8,0.1-1.3,0.1c-0.5,0-0.9-0.1-1.3-0.4
		c-0.4-0.2-0.7-0.5-0.9-0.8c-0.2-0.4-0.3-0.8-0.3-1.3c0-0.5-0.1-1.1-0.1-1.9v-4.7h-1.4c-0.3,0-0.4-0.1-0.4-0.4v-1.7
		c0-0.3,0.1-0.4,0.4-0.4h1.4v-2.7c0-0.3,0.1-0.4,0.4-0.4h1.8c0.3,0,0.4,0.1,0.4,0.4v2.7h1.7c0.2,0,0.3,0,0.3,0.1s0.1,0.2,0.1,0.3
		v1.7c0,0.1,0,0.2-0.1,0.3s-0.2,0.1-0.3,0.1h-1.7v4.5c0,0.5,0,0.9,0,1.2c0,0.3,0,0.5,0,0.6c0.1,0.3,0.2,0.4,0.3,0.5
		c0.2,0.1,0.4,0.1,0.6,0.1s0.4-0.1,0.6-0.1c0.2-0.1,0.3-0.1,0.4-0.2c0.1-0.1,0.2-0.1,0.2,0c0.1,0,0.1,0.1,0.1,0.3l0.2,1.5
		c0,0.1,0,0.2,0,0.3C378.3,74.3,378.3,74.3,378.1,74.4z"/>
	<path fill="#666666" d="M386.9,67l-2.3,7.2c0,0.1-0.1,0.2-0.1,0.2c0,0-0.1,0-0.3,0h-1.9c-0.1,0-0.2,0-0.2,0c-0.1,0-0.1-0.1-0.1-0.2
		l-3.4-10.6c-0.1-0.2-0.1-0.3,0-0.4c0-0.1,0.2-0.1,0.4-0.1h1.8c0.1,0,0.2,0,0.3,0c0,0,0.1,0.1,0.1,0.2l2.2,7.3l2.2-7.3
		c0-0.1,0.1-0.2,0.1-0.2c0,0,0.1,0,0.3,0h1.9c0.1,0,0.2,0,0.3,0c0,0,0.1,0.1,0.1,0.2l2.2,7.3l2.2-7.3c0-0.1,0.1-0.2,0.1-0.2
		c0,0,0.1,0,0.3,0h1.8c0.2,0,0.4,0,0.4,0.1c0,0.1,0,0.2,0,0.4l-3.4,10.6c0,0.1-0.1,0.2-0.1,0.2c-0.1,0-0.1,0-0.2,0h-1.9
		c-0.1,0-0.2,0-0.3,0c0,0-0.1-0.1-0.1-0.2L386.9,67z"/>
	<path fill="#666666" d="M402.8,74.6c-0.1,0-0.2,0-0.2,0c0,0,0-0.1,0-0.2v-0.9c-0.2,0.4-0.6,0.7-1.1,0.9c-0.5,0.3-1,0.4-1.5,0.4
		c-0.5,0-1.1-0.1-1.6-0.2c-0.5-0.2-0.9-0.4-1.2-0.7c-0.3-0.3-0.6-0.7-0.8-1.2s-0.3-1-0.3-1.6c0-0.7,0.2-1.3,0.5-1.9
		c0.3-0.6,0.8-1,1.3-1.3c0.6-0.3,1.2-0.5,2-0.7c0.8-0.1,1.6-0.2,2.5-0.1c-0.1-1.1-0.5-1.6-1.4-1.7c-0.3,0-0.5,0-0.8,0
		s-0.5,0.1-0.8,0.2c-0.3,0.1-0.5,0.2-0.8,0.3c-0.2,0.1-0.5,0.2-0.6,0.4c-0.3,0.2-0.5,0.3-0.6,0.3s-0.2-0.1-0.2-0.4v-1.7
		c0-0.2,0-0.3,0-0.4c0-0.1,0.1-0.1,0.3-0.2c0.4-0.2,0.9-0.4,1.4-0.6c0.5-0.2,1.2-0.3,1.9-0.3c1.4,0,2.4,0.3,3.1,1
		c0.7,0.7,1,1.8,1,3.2v4.6c0,0.2,0,0.4,0,0.6c0,0.2,0,0.4,0,0.6c0,0.2,0,0.4,0,0.6c0,0.2,0,0.4,0,0.5c0,0.3,0,0.4,0,0.4
		c-0.1,0-0.1,0-0.3,0H402.8z M402.5,69c-0.8,0-1.4,0.1-1.9,0.2c-0.5,0.1-0.9,0.2-1.2,0.4s-0.5,0.4-0.6,0.6c-0.1,0.2-0.2,0.5-0.2,0.8
		c0,0.4,0.1,0.8,0.4,1c0.3,0.2,0.6,0.3,1.1,0.3c0.7,0,1.3-0.3,1.7-0.8C402.3,71.1,402.5,70.2,402.5,69z"/>
	<path fill="#666666" d="M413.1,65.7c-0.3-0.1-0.5-0.2-0.7-0.2c-0.2,0-0.4,0-0.6,0.1c-0.3,0.1-0.6,0.3-0.8,0.5
		c-0.2,0.2-0.3,0.5-0.4,0.8c-0.1,0.3-0.2,0.7-0.2,1s0,0.7,0,1v5.2c0,0.2,0,0.3-0.1,0.3c0,0.1-0.1,0.1-0.3,0.1h-1.9
		c-0.1,0-0.2,0-0.3-0.1c0-0.1-0.1-0.2-0.1-0.4v-7.9c0-0.4,0-0.9,0-1.3c0-0.5,0-0.9,0-1.2c0-0.2,0-0.3,0.1-0.3
		c0.1-0.1,0.2-0.1,0.3-0.1h1.9c0.2,0,0.3,0.1,0.3,0.3v0.8c0.2-0.3,0.4-0.5,0.7-0.7c0.3-0.2,0.5-0.4,0.8-0.4c0.3-0.1,0.6-0.1,0.8-0.1
		c0.3,0,0.5,0.1,0.6,0.2c0.1,0.1,0.1,0.1,0.1,0.1c0,0,0,0.1,0,0.2v1.7c0,0.1,0,0.3-0.1,0.3C413.4,65.8,413.3,65.8,413.1,65.7z"/>
	<path fill="#666666" d="M423.7,69.3c0,0.2,0,0.3-0.1,0.4c-0.1,0.1-0.2,0.1-0.3,0.1H417c0.1,0.9,0.4,1.6,0.8,2
		c0.5,0.4,1,0.7,1.7,0.7c0.6,0,1.2,0,1.6-0.2s0.9-0.4,1.3-0.6c0.2-0.1,0.3-0.2,0.4-0.1c0.1,0.1,0.1,0.2,0.1,0.4v1.5
		c0,0.1,0,0.2,0,0.3c0,0.1-0.1,0.1-0.2,0.2c-0.4,0.3-0.9,0.5-1.5,0.6c-0.6,0.1-1.2,0.2-1.8,0.2c-1.6,0-2.9-0.5-3.8-1.5
		c-0.9-1-1.4-2.5-1.4-4.4c0-0.7,0.1-1.4,0.3-2.1c0.2-0.7,0.5-1.3,0.9-1.9s0.9-1,1.5-1.4c0.6-0.4,1.3-0.5,2.1-0.5
		c0.8,0,1.5,0.2,2.1,0.5c0.6,0.3,1.1,0.7,1.4,1.2c0.4,0.5,0.6,1.1,0.8,1.8c0.2,0.7,0.2,1.4,0.2,2.2V69.3z M419.2,65.3
		c-0.3,0-0.5,0.1-0.8,0.2c-0.2,0.1-0.5,0.3-0.6,0.5c-0.2,0.2-0.3,0.5-0.5,0.7c-0.1,0.3-0.2,0.6-0.3,0.9h4.1c0-0.3,0-0.5-0.1-0.8
		c-0.1-0.3-0.2-0.5-0.4-0.8c-0.2-0.2-0.4-0.4-0.6-0.5C419.8,65.3,419.5,65.3,419.2,65.3z"/>
	<path fill="#666666" d="M432.5,74.5c-0.3,0-0.5,0-0.6-0.1s-0.1-0.3-0.1-0.6v-14c0-0.3,0-0.5,0.1-0.6c0.1-0.1,0.2-0.1,0.5-0.1h7.1
		c0.2,0,0.4,0,0.4,0.1c0,0.1,0,0.2,0,0.4v1.6c0,0.2,0,0.3-0.1,0.4s-0.2,0.1-0.4,0.1h-5v3.8h4.8c0.2,0,0.3,0,0.4,0.1
		c0,0.1,0,0.2,0,0.4v1.6c0,0.2,0,0.3-0.1,0.4s-0.2,0.1-0.3,0.1h-4.8V72h5.2c0.2,0,0.3,0,0.4,0.1c0,0.1,0,0.2,0,0.4v1.6
		c0,0.2,0,0.3,0,0.4c0,0.1-0.2,0.1-0.4,0.1H432.5z"/>
	<path fill="#666666" d="M445.7,74.1c0,0.2,0,0.3-0.1,0.3c-0.1,0.1-0.2,0.1-0.3,0.1h-1.9c-0.2,0-0.3,0-0.3-0.1
		c-0.1-0.1-0.1-0.2-0.1-0.3v-7.8c0-0.5,0-1,0-1.5s0-0.9,0-1.2c0-0.1,0-0.2,0-0.3c0.1,0,0.2-0.1,0.4-0.1h1.9c0.1,0,0.2,0,0.3,0
		c0,0,0.1,0.1,0.1,0.2v0.8c0.3-0.3,0.6-0.6,1.1-0.8c0.4-0.2,0.9-0.4,1.4-0.4c1.3,0,2.3,0.4,2.9,1.1c0.6,0.8,0.9,1.9,0.9,3.3v6.6
		c0,0.2,0,0.3-0.1,0.3c-0.1,0.1-0.2,0.1-0.3,0.1h-1.9c-0.3,0-0.4-0.1-0.4-0.4v-6.2c0-1.6-0.5-2.4-1.5-2.4c-0.7,0-1.2,0.2-1.6,0.7
		c-0.4,0.4-0.6,1-0.6,1.8V74.1z"/>
	<path fill="#666666" d="M459.2,77.9c-0.5,0-1.1-0.1-1.6-0.2c-0.6-0.1-1.1-0.3-1.6-0.5c-0.1-0.1-0.2-0.1-0.2-0.2c0-0.1,0-0.2,0-0.3
		l0.1-1.7c0-0.2,0-0.3,0.1-0.3c0.1-0.1,0.2,0,0.4,0.1c0.4,0.2,0.9,0.4,1.4,0.5c0.5,0.1,1.1,0.2,1.6,0.2c0.7,0,1.4-0.3,1.8-0.7
		c0.5-0.5,0.8-1.1,0.8-1.9c-0.3,0.4-0.8,0.7-1.3,0.9c-0.5,0.2-1,0.3-1.4,0.3c-0.7,0-1.3-0.2-1.9-0.4c-0.6-0.3-1-0.6-1.4-1.1
		c-0.4-0.5-0.7-1-0.9-1.7c-0.2-0.6-0.3-1.3-0.3-2.1c0-1.7,0.4-3.1,1.2-4.1c0.8-1,1.9-1.5,3.4-1.5c0.3,0,0.5,0,0.8,0.1
		s0.5,0.2,0.8,0.3c0.2,0.1,0.5,0.2,0.7,0.4s0.4,0.3,0.5,0.4v-0.8c0-0.2,0.1-0.3,0.3-0.3h1.8c0.1,0,0.2,0,0.3,0.1s0.1,0.2,0.1,0.4
		v8.2c0,2-0.5,3.5-1.4,4.6C462.1,77.3,460.8,77.9,459.2,77.9z M459.7,65.5c-0.7,0-1.2,0.2-1.6,0.7s-0.6,1.3-0.6,2.4
		c0,0.5,0.1,0.9,0.2,1.2c0.1,0.4,0.3,0.7,0.5,0.9c0.2,0.3,0.4,0.4,0.7,0.6c0.3,0.1,0.5,0.2,0.8,0.2c0.6,0,1.2-0.3,1.6-0.8
		c0.4-0.5,0.6-1.2,0.6-2.2c0-1-0.2-1.7-0.6-2.3S460.3,65.5,459.7,65.5z"/>
	<path fill="#666666" d="M468.3,61.6c-0.4,0-0.8-0.2-1.1-0.5s-0.4-0.7-0.4-1.1s0.1-0.8,0.4-1.1c0.3-0.3,0.7-0.5,1.1-0.5
		s0.8,0.2,1.1,0.5c0.3,0.3,0.4,0.7,0.4,1.1s-0.1,0.8-0.4,1.1C469.1,61.4,468.7,61.6,468.3,61.6z M467.3,74.5c-0.1,0-0.2,0-0.2-0.1
		c0-0.1-0.1-0.2-0.1-0.3V63.7c0-0.2,0-0.3,0.1-0.3c0-0.1,0.1-0.1,0.3-0.1h2c0.1,0,0.2,0,0.3,0.1c0,0.1,0.1,0.2,0.1,0.3v10.4
		c0,0.2,0,0.3-0.1,0.3c0,0.1-0.1,0.1-0.3,0.1H467.3z"/>
	<path fill="#666666" d="M474.8,74.1c0,0.2,0,0.3-0.1,0.3c-0.1,0.1-0.2,0.1-0.3,0.1h-1.9c-0.2,0-0.3,0-0.3-0.1
		c-0.1-0.1-0.1-0.2-0.1-0.3v-7.8c0-0.5,0-1,0-1.5s0-0.9,0-1.2c0-0.1,0-0.2,0-0.3c0.1,0,0.2-0.1,0.4-0.1h1.9c0.1,0,0.2,0,0.3,0
		c0,0,0.1,0.1,0.1,0.2v0.8c0.3-0.3,0.6-0.6,1.1-0.8c0.4-0.2,0.9-0.4,1.4-0.4c1.3,0,2.3,0.4,2.9,1.1c0.6,0.8,0.9,1.9,0.9,3.3v6.6
		c0,0.2,0,0.3-0.1,0.3c-0.1,0.1-0.2,0.1-0.3,0.1h-1.9c-0.3,0-0.4-0.1-0.4-0.4v-6.2c0-1.6-0.5-2.4-1.5-2.4c-0.7,0-1.2,0.2-1.6,0.7
		c-0.4,0.4-0.6,1-0.6,1.8V74.1z"/>
	<path fill="#666666" d="M493,69.3c0,0.2,0,0.3-0.1,0.4c-0.1,0.1-0.2,0.1-0.3,0.1h-6.3c0.1,0.9,0.4,1.6,0.8,2c0.5,0.4,1,0.7,1.7,0.7
		c0.6,0,1.2,0,1.6-0.2s0.9-0.4,1.3-0.6c0.2-0.1,0.3-0.2,0.4-0.1c0.1,0.1,0.1,0.2,0.1,0.4v1.5c0,0.1,0,0.2,0,0.3
		c0,0.1-0.1,0.1-0.2,0.2c-0.4,0.3-0.9,0.5-1.5,0.6c-0.6,0.1-1.2,0.2-1.8,0.2c-1.6,0-2.9-0.5-3.8-1.5c-0.9-1-1.4-2.5-1.4-4.4
		c0-0.7,0.1-1.4,0.3-2.1c0.2-0.7,0.5-1.3,0.9-1.9s0.9-1,1.5-1.4c0.6-0.4,1.3-0.5,2.1-0.5c0.8,0,1.5,0.2,2.1,0.5
		c0.6,0.3,1.1,0.7,1.4,1.2c0.4,0.5,0.6,1.1,0.8,1.8c0.2,0.7,0.2,1.4,0.2,2.2V69.3z M488.4,65.3c-0.3,0-0.5,0.1-0.8,0.2
		c-0.2,0.1-0.5,0.3-0.6,0.5c-0.2,0.2-0.3,0.5-0.5,0.7c-0.1,0.3-0.2,0.6-0.3,0.9h4.1c0-0.3,0-0.5-0.1-0.8c-0.1-0.3-0.2-0.5-0.4-0.8
		c-0.2-0.2-0.4-0.4-0.6-0.5C489,65.3,488.8,65.3,488.4,65.3z"/>
	<path fill="#666666" d="M503.9,69.3c0,0.2,0,0.3-0.1,0.4c-0.1,0.1-0.2,0.1-0.3,0.1h-6.3c0.1,0.9,0.4,1.6,0.8,2
		c0.5,0.4,1,0.7,1.7,0.7c0.6,0,1.2,0,1.6-0.2s0.9-0.4,1.3-0.6c0.2-0.1,0.3-0.2,0.4-0.1c0.1,0.1,0.1,0.2,0.1,0.4v1.5
		c0,0.1,0,0.2,0,0.3c0,0.1-0.1,0.1-0.2,0.2c-0.4,0.3-0.9,0.5-1.5,0.6c-0.6,0.1-1.2,0.2-1.8,0.2c-1.6,0-2.9-0.5-3.8-1.5
		c-0.9-1-1.4-2.5-1.4-4.4c0-0.7,0.1-1.4,0.3-2.1c0.2-0.7,0.5-1.3,0.9-1.9s0.9-1,1.5-1.4c0.6-0.4,1.3-0.5,2.1-0.5
		c0.8,0,1.5,0.2,2.1,0.5c0.6,0.3,1.1,0.7,1.4,1.2c0.4,0.5,0.6,1.1,0.8,1.8c0.2,0.7,0.2,1.4,0.2,2.2V69.3z M499.3,65.3
		c-0.3,0-0.5,0.1-0.8,0.2c-0.2,0.1-0.5,0.3-0.6,0.5c-0.2,0.2-0.3,0.5-0.5,0.7c-0.1,0.3-0.2,0.6-0.3,0.9h4.1c0-0.3,0-0.5-0.1-0.8
		c-0.1-0.3-0.2-0.5-0.4-0.8c-0.2-0.2-0.4-0.4-0.6-0.5C499.9,65.3,499.7,65.3,499.3,65.3z"/>
	<path fill="#666666" d="M511.4,65.7c-0.3-0.1-0.5-0.2-0.7-0.2c-0.2,0-0.4,0-0.6,0.1c-0.3,0.1-0.6,0.3-0.8,0.5
		c-0.2,0.2-0.3,0.5-0.4,0.8c-0.1,0.3-0.2,0.7-0.2,1s0,0.7,0,1v5.2c0,0.2,0,0.3-0.1,0.3c0,0.1-0.1,0.1-0.3,0.1h-1.9
		c-0.1,0-0.2,0-0.3-0.1c0-0.1-0.1-0.2-0.1-0.4v-7.9c0-0.4,0-0.9,0-1.3c0-0.5,0-0.9,0-1.2c0-0.2,0-0.3,0.1-0.3
		c0.1-0.1,0.2-0.1,0.3-0.1h1.9c0.2,0,0.3,0.1,0.3,0.3v0.8c0.2-0.3,0.4-0.5,0.7-0.7c0.3-0.2,0.5-0.4,0.8-0.4c0.3-0.1,0.6-0.1,0.8-0.1
		c0.3,0,0.5,0.1,0.6,0.2c0.1,0.1,0.1,0.1,0.1,0.1c0,0,0,0.1,0,0.2v1.7c0,0.1,0,0.3-0.1,0.3C511.6,65.8,511.5,65.8,511.4,65.7z"/>
</g>
<g>
</g>
<g>
</g>
<g>
</g>
<g>
</g>
<g>
</g>
<g>
</g>
</svg>
